<?xml version="1.0" encoding="UTF-8"?>
<svg id="Layer_2" data-name="Layer 2" xmlns="http://www.w3.org/2000/svg" viewBox="0 0 35.05 33.19">
  <defs>
    <style>
      .cls-1 {
        fill: #4a5c74;
      }

      .cls-1, .cls-2, .cls-3, .cls-4, .cls-5, .cls-6, .cls-7, .cls-8, .cls-9, .cls-10, .cls-11, .cls-12, .cls-13, .cls-14, .cls-15, .cls-16, .cls-17, .cls-18, .cls-19, .cls-20, .cls-21, .cls-22, .cls-23, .cls-24, .cls-25, .cls-26, .cls-27, .cls-28, .cls-29, .cls-30, .cls-31, .cls-32, .cls-33, .cls-34, .cls-35, .cls-36, .cls-37, .cls-38, .cls-39, .cls-40, .cls-41, .cls-42 {
        stroke-width: 0px;
      }

      .cls-2 {
        fill: #caad4b;
      }

      .cls-3 {
        fill: #26a1b0;
      }

      .cls-4 {
        fill: #386488;
      }

      .cls-5 {
        fill: #9eabd3;
      }

      .cls-6 {
        fill: #0b0d0f;
      }

      .cls-7 {
        fill: #1c2614;
      }

      .cls-8 {
        fill: #31495b;
      }

      .cls-9 {
        fill: #2f4244;
      }

      .cls-10 {
        fill: #637278;
      }

      .cls-11 {
        fill: #dbb679;
      }

      .cls-12 {
        fill: #747c83;
      }

      .cls-13 {
        fill: #ac9866;
      }

      .cls-14 {
        fill: #c9484e;
      }

      .cls-15 {
        fill: #aacfd1;
      }

      .cls-16 {
        fill: #176a5b;
      }

      .cls-17 {
        fill: #aac5d0;
      }

      .cls-18 {
        fill: #c3b5d9;
      }

      .cls-19 {
        fill: #42adca;
      }

      .cls-20 {
        fill: #e9bd66;
      }

      .cls-21 {
        fill: #60a5c9;
      }

      .cls-22 {
        fill: #cee2e5;
      }

      .cls-23 {
        fill: #b6c8e7;
      }

      .cls-24 {
        fill: #54636d;
      }

      .cls-25 {
        fill: #b5b6da;
      }

      .cls-26 {
        fill: #f29f58;
      }

      .cls-27 {
        fill: #c13d96;
      }

      .cls-28 {
        fill: #2e96bf;
      }

      .cls-29 {
        fill: #3c4c53;
      }

      .cls-30 {
        fill: #be8f56;
      }

      .cls-31 {
        fill: #87a1d3;
      }

      .cls-32 {
        fill: #236f98;
      }

      .cls-33 {
        fill: #7786a2;
      }

      .cls-34 {
        fill: #8cc8cc;
      }

      .cls-35 {
        fill: #718abc;
      }

      .cls-36 {
        fill: #f9fbfd;
      }

      .cls-37 {
        fill: #647590;
      }

      .cls-38 {
        fill: #1d546f;
      }

      .cls-39 {
        fill: #d1cae3;
      }

      .cls-40 {
        fill: #f4cc93;
      }

      .cls-41 {
        fill: #dfe7f2;
      }

      .cls-42 {
        fill: #eceaf5;
      }
    </style>
  </defs>
  <g id="Layer_1-2" data-name="Layer 1">
    <g>
      <path class="cls-6" d="M13.52.05c.32,0,.65,0,.97,0h.88s.04.04.05.14c0,.21-.05,1.38.07,1.43.9,0,1.81,0,2.71,0,.54,0,1.08,0,1.62,0,0,.23,0,.46,0,.69,0,.36-.05.4-.05.42-.23,0-.46.01-.69,0-.31-.02-.58,0-.88,0-.22,0-.46-.05-.69-.05-.27,0-.53.04-.79.05-.22,0-.42-.01-.65,0-.23.01-.46,0-.69,0,0-.05-.1-.86-.05-1.09-.05-.12-.67-.06-.93-.07-.23,0-2-.04-2.04.07v2.13c.08.17.87.02,1.02.02.32,0,.64.05.97.05.36,0,.72-.05,1.06-.05.21,0,.43,0,.65,0,.26,0,.52,0,.79,0,.2,0,.4,0,.6,0,.28,0,.56,0,.83,0,.03,0,.29.05.69.05.28,0,.57-.05.83-.05.27,0,.52,0,.79,0,.27,0,.56.05.83.05.18,0,.37,0,.56,0,.27,0,.78.05.83-.07V1.64c-.07-.17-1.86-.03-2.13-.02-.28,0-.56.01-.83-.05V.09c.24,0,.18-.05.19-.05.33,0,.65,0,.97,0,.32,0,.65.05.97.05.29,0,.59,0,.88,0,0,.11-.02.66.02.69h.9s.09-.14.09.32c0,.31,0,.62,0,.93,0,.31-.01.62,0,.93,0,.13-.02.85.02.88.34.04.77-.05.81-.05.32,0,.61,0,.93,0,.3,0,.62.04.93.05.31,0,.62,0,.93,0,.32,0,.65,0,.97,0,.31,0,.62,0,.93,0,.32,0,.66-.05.97-.05.32,0,.65.04.97.05.28,0,.56,0,.83,0,.31,0,.62,0,.93,0,.28,0,.55.03.83.05.04,0,.05.04.09.05v1l.95.02c0,.28.05.56.07.83,0,.12,0,.59,0,.83,0,.28,0,.56,0,.83,0,.29,0,.59,0,.88,0,.29,0,.59,0,.88,0,.28,0,.56,0,.83,0,.29,0,.59,0,.88,0,.29,0,.59,0,.88,0,.32,0,.61,0,.93,0,.28-.1.59-.05.88-.05,0-.05-.05-.09-.05,0-.03.1-.1.02-.19h-.93s-.02.21-.02.28c-.03.26.02.6,0,.88-.02,0-.03,0-.05,0-.39-.02-.87-.05-1.25-.05v-1.04c.06-.09.11-.06.19-.07.05,0,.76.15.97-.02,0-1.09,0-2.18,0-3.26,0-1.06.01-2.13,0-3.19,0-.58,0-1.16,0-1.74l-.97-.02H1.95l-.69.02c0,.27,0,.54,0,.81-.02.49,0,.99,0,1.48,0,.97,0,1.94,0,2.92,0,1,.02,1.99-.05,2.99l-.09.02c-.41.03-.91-.08-.97.09-.06.17-.08-.38-.09-.74,0-.29,0-.59,0-.88,0-.31,0-.62,0-.93,0-.29-.05-.6-.05-.88,0-.28,0-.56,0-.83C0,8.92,0,8.62,0,8.33c0-.28,0-.56,0-.83,0-.29,0-.59,0-.88,0-.27.04-.56.05-.83,0-.13-.02-.8.02-.83l1.04-.07c0-.32-.01-.63,0-.95,0-.02,0-.03,0-.05.31.04.62-.04.93-.05.32-.01.65,0,.97,0,.32,0,.65,0,.97,0,.31,0,.62,0,.93,0,.31,0,.62,0,.93,0,.32,0,.65,0,.97,0,.32,0,.65,0,.97,0,.32,0,.65,0,.97,0,.32,0,.65,0,.97,0,.32,0,.65.01.97,0,.25-.01.69.05.74-.07.04-.33-.05-.77-.05-.81.01-.32,0-.61,0-.93,0-.23,0-.92,0-.97,0-.01.07.03.05-.25l.14-.07c1.35.08.73-.14.88-.6.02-.08.09-.02.09-.09.32,0,.65,0,.97,0Z"/>
      <path class="cls-6" d="M34.9,19.02c.12,0,.09.05.09.05-.04.23.04.47.05.69.01.29,0,.59,0,.88,0,.26,0,.52,0,.79,0,.26,0,.52,0,.79,0,.29,0,.59,0,.88,0,.31,0,.62,0,.93,0,.31,0,.62,0,.93,0,.29.01.59,0,.88,0,.26.04.53-.05.79l-.05.05c-.24-.01-.5.02-.74,0-.08,0-.34.02-.37-.02.03-2.53-.04-5.06,0-7.59,0-.04.09,0,.09-.07.29.08.67.06.97.05Z"/>
      <path class="cls-6" d="M.19,20.6c.18-.04.77.03,1.06,0,0,.18.05.13.05.14.02,1.58.02,3.18,0,4.77-.01.68-.07,1.36-.05,2.04,0,0,.04.04-.14.05-.32,0-.66-.04-.97.05,0,0-.05.01-.05-.05,0-.29-.04-.59-.05-.88,0-.29,0-.59,0-.88,0-.31,0-.62,0-.93,0-.29,0-.59,0-.88,0-.31,0-.62,0-.93,0-.29,0-.59,0-.88,0-.26,0-.53,0-.79,0-.25,0-.49,0-.74.08-.06.02-.06.14-.09Z"/>
      <path class="cls-6" d="M2.69,29.02c-.25-.02-.6.03-.83,0-.06,0-.2.02-.23-.02.04-.34-.05-.51-.05-.53-.01-.26.1-.6.05-.88.16,0,1.09-.12,1.16-.02-.04.52.1,1.39-.09,1.46Z"/>
      <path class="cls-29" d="M2.27,14.53s0,.03,0,.05c-.01.3-.08.63-.09.93h-.97l-.05-.05v-.88l1.11-.05Z"/>
      <path class="cls-17" d="M2.18,15.51s.06-.04.05.14c0,.18.02.55-.05.65,0,.01.02.07-.02.09-.32,0-.63,0-.95,0-.01-.29,0-.59,0-.88h.97Z"/>
      <path class="cls-42" d="M34.9,13.56s0,.03,0,.05l-.93.05c0-.07-.02-.24.02-.28h.93c.07.09-.03.15-.02.19Z"/>
      <g>
        <path class="cls-6" d="M33.47,27.54c-.01.31.02.62,0,.93-.01.26.05.51-.07.6l-1.04.02c-.13.11,0,1,0,1.18,0,.29,0,.55,0,.83,0,.3-.09.62-.05.93,0,0,.03.06-.14.05-.38-.02-.75-.08-1.13-.05,0,.37-.07.75-.07,1.11-.32.01-.65.04-.97.05-.34.01-.68,0-1.02,0,0-.02-.04-.04-.05-.19-.01-.3,0-.6,0-.9l-.95-.07s-.02-.71-.02-.83c0-.12.02-.75-.02-.79-.29,0-.57,0-.86,0-.32-.01-.65,0-.97,0-.32,0-.65,0-.97,0-.31,0-.62,0-.93,0-.34,0-.68,0-1.02,0-.31,0-.62,0-.93,0-.34,0-.68,0-1.02,0-.31,0-.62,0-.93,0-.32,0-.65,0-.97,0-.31,0-.62,0-.93,0-.31,0-.62,0-.93,0-.32,0-.65,0-.97,0s-.65,0-.97,0-.65,0-.97,0c-.31,0-.62,0-.93,0s-.62,0-.93,0-.62,0-.93,0c-.31,0-.62,0-.93,0-.32,0-.65,0-.97,0-.32,0-.65,0-.97,0-.32,0-.65,0-.97,0-.11,0-.71-.02-.74.02-.02.25.02.51,0,.76-.02.28-.03.55-.05.83,0,.06-.05.04-.05.05l-1.18-.05c-.12.05-.07.9-.07,1.06,0,.02,0,.03,0,.05-.34-.05-.69.05-1.02.05s-.65-.1-.97-.05c0-.04-.05-.05-.05-.09,0-.31.09-.63.05-.95-.02-.06-.84-.02-.97-.02-.1,0-.1-.05-.14-.05.13-.26,0-.69,0-.88,0-.3,0-.58,0-.88,0-.3.09-.62.05-.93,0-.06,0-.12,0-.19-.06-.15.42-.09.88-.09.66,0,1.33,0,1.99,0,8.44,0,16.88,0,25.32,0l1.2-.07v-1.41s-.01-.09.02-.09c.41-.02.82.05,1.23.05Z"/>
        <g>
          <g>
            <path class="cls-3" d="M5.88,30.78c.01.16.04,1.16-.07,1.2h-1.94c-.11-.05-.07-.7-.07-.83.2-.03,1.4.04,1.46,0,.12-.08-.27-.47.62-.37Z"/>
            <path class="cls-15" d="M5.88,30.78c-.89-.1-.51.29-.62.37-.06.04-1.25-.03-1.46,0,0-.34-.05-.69.07-.79l1.99.05s.02.29.02.37Z"/>
          </g>
          <g>
            <path class="cls-12" d="M30.18,31.98c.1-.29.01-.55,0-.83-.01-.25,0-.49,0-.74.13,0,.81-.12.88-.02v1.57s-.75.02-.88.02Z"/>
            <path class="cls-27" d="M30.18,31.15c.01.28.1.55,0,.83-.38.01-.76,0-1.13,0-.16-.07-.03-.7-.02-.83h1.16Z"/>
            <path class="cls-39" d="M30.18,30.41c0,.25-.01.49,0,.74h-1.16c0-.11-.02-.75.02-.79.38-.04.76.03,1.13.05Z"/>
          </g>
        </g>
      </g>
      <path class="cls-6" d="M32.59,14.53l-.02,1.11c-.5.01-1,0-1.5,0l.02-1.11c.5,0,1,0,1.5,0Z"/>
      <path class="cls-6" d="M2.27,13.42c0,.37.01.74,0,1.11l-1.11.05v-1.16c.08.02.95.01,1.11,0Z"/>
      <path class="cls-32" d="M3.33,16.85l-.79.05c-.07-.72-.05-.38-.37-.6.07-.1.04-.47.05-.65l1.16.07c.05.37-.05.77-.05,1.13Z"/>
      <path class="cls-4" d="M21.89,15.64c-.23,0-.66.05-.69-.07.07-.32.06-.67.05-1,1.05-.1.61.19.65,1.06Z"/>
      <g>
        <path class="cls-14" d="M21.99,3.84c-.03-.15.11-.72.05-.81-.03-.05-.46-.02-.56-.02-.03,0-.06,0-.09,0v-.72c-.13-.2-.88.42-.69-.67.27,0,2.06-.14,2.13.02v2.13c-.05.12-.57.06-.83.07Z"/>
        <path class="cls-39" d="M15.37,2.73c.23,0,.46.01.69,0,.08.7.06.38.56.46.06.01.26.08.32.09-.15-.04-.08.21-.09.51-.26,0-.52,0-.79,0-.1-.14,0-.42-.07-.46-.04-.03-.78-.17-.58.46-.35,0-.71.05-1.06.05v-.79s.03,0,.05,0c.29,0,.57,0,.86,0,.01-.43.11-.3.12-.32Z"/>
        <path class="cls-24" d="M15.37,2.73s-.1-.1-.12.32c-.29,0-.57,0-.86,0v-1.48c.26,0,.87-.05.93.07-.05.23.05,1.03.05,1.09Z"/>
        <path class="cls-39" d="M21.39,3.01s.06,0,.09,0l-.05.83c-.28,0-.57-.05-.83-.05l.02-.79c-.27,0-.54,0-.81,0,0-.31-.05-.26-.05-.28,0-.02.04-.06.05-.42,1.35-.32.62.57.9.69.22,0,.45-.01.67,0Z"/>
        <path class="cls-8" d="M20.69,1.62c-.18,1.09.56.47.69.67v.72c-.22-.01-.45,0-.67,0-.29-.13.44-1.02-.9-.69,0-.23,0-.46,0-.69l.05-.05c.27.06.56.05.83.05Z"/>
        <path class="cls-38" d="M14.35,3.05v.79c-.33,0-.65-.04-.97-.05,0-.26-.01-.53,0-.79.32-.04.65.04.97.05Z"/>
        <path class="cls-10" d="M20.6,3.8c-.27,0-.52,0-.79,0,0-.26,0-.52,0-.79.27,0,.54,0,.81,0l-.02.79Z"/>
        <path class="cls-16" d="M21.99,3.84c-.18,0-.37,0-.56,0l.05-.83c.09,0,.52-.02.56.02.06.09-.08.66-.05.81Z"/>
        <path class="cls-9" d="M18.98,3.84c-.41,0-.66-.05-.69-.05-.22-.63.58-.49.62-.46.07.05-.04.35.07.51Z"/>
        <path class="cls-24" d="M16.94,3.29c.47.07.55-.24.51.51-.2,0-.4,0-.6,0,.02-.3-.06-.55.09-.51Z"/>
        <path class="cls-29" d="M16.06,3.8c-.21,0-.43,0-.65,0-.2-.63.54-.49.58-.46.07.05-.03.33.07.46Z"/>
        <path class="cls-24" d="M19.77,2.73s.05-.03.05.28c-.62-.02-.81.13-.74-.28.23.01.46,0,.69,0Z"/>
        <g>
          <path class="cls-11" d="M19.07.09c.25,1.15-.68.51-.83.72l-.05.81c-.9,0-1.81,0-2.71,0-.12-.05-.06-1.22-.07-1.43.1-.22.5-.13.93-.14.02,0,.03,0,.05,0-.44.63.93.49,1,.46.12-.05.05-.35.07-.46.26,0,.54-.05.79-.05.25,0,.58.09.83.09Z"/>
          <path class="cls-13" d="M19.16.05c.22,0,.46.05.69.05v1.48l-.05.05c-.54,0-1.08,0-1.62,0l.05-.81c.15-.21,1.08.43.83-.72,0,0-.03-.05.09-.05Z"/>
          <path class="cls-7" d="M17.36.05s.06,0,.09,0c-.02.11.05.41-.07.46-.07.03-1.44.17-1-.46.32,0,.65,0,.97,0Z"/>
        </g>
        <g>
          <path class="cls-26" d="M14.4,1.57v.83h-1s-.02.5-.02.6c-.01.26,0,.53,0,.79-.15,0-.94.15-1.02-.02V1.64c.04-.11,1.81-.08,2.04-.07Z"/>
          <path class="cls-30" d="M14.4,2.41v.65s-.03,0-.05,0c-.32,0-.65-.09-.97-.05,0-.1-.02-.57.02-.6h1Z"/>
        </g>
      </g>
      <g>
        <path class="cls-4" d="M11.94,15.64c-.62,0-1.23,0-1.85,0l.02-.97h1.81l.02.97Z"/>
        <path class="cls-1" d="M13.56,16.99l-.05.95c-1.87,0-1.05.11-1.25.56-.06.15-.5.01-.56.09-.03.05.05.67-.02.72-.02.02-.51,0-.53-.02-.2-.28.59-.88-.95-.72-.08.06.06.67-.09.74-.73.32-.38-.66-.56-.74h-1.34l-.02-1.53c1.79,0,3.58-.08,5.37-.05Z"/>
      </g>
      <path class="cls-4" d="M4.21,14.63v1.02c-.12,0-.75.02-.79-.02,0-.33,0-.66,0-1h.79Z"/>
      <g>
        <path class="cls-1" d="M33.93,14.53c0,.31,0,.62,0,.93,0,.32,0,.65,0,.97,0,.28,0,.56,0,.83,0,.29.05.6.05.88,0,.27-.04.56-.05.83,0,.07-.09.03-.09.07-.04,2.53.03,5.06,0,7.59.03.05.29.02.37.02l-.05.88s-.03,0-.05,0c-.22,0-.43,0-.65,0-.41,0-.81-.07-1.23-.05-.04,0-.02.09-.02.09-.02,0-.1-.14-.44-.09.02,1.36-.97-.3-.76,1.57-8.44,0-16.88,0-25.32,0,.18-.13.06-.54.09-.88,1.55-.02,3.1.01,4.65,0l.09-.83,2.29.05c-.05.82-.03.57.86.6,0-.16.07-.7.07-.74l.83-.02.07.95h2.87c0-.72.11-1.05.14-.56.96-.15.43.44.6.56.09.07,1.97-.05,2.27,0,.09-.06.06-.11.07-.19.84-.02.88.25.83-.6,1.61.08,1.67-.37,1.64.79h.88l.09-.79h1.34l.05.79h3.93l.05-.83c1.77.18.07-.73,1.69-.62.05-.53-.13-1.28.14-1.55.33-.02.2-.07.28-.09.1-.03.36.06.42-.07.09-.21.07-.81-.46-.62,0-.2,0-.4,0-.6,0-1.14-.18-2.7.37-2.38-.11-.73.34-.4.42-.51.09-.13-.05-2.74-.02-3.12h-1.3l-.09.79c-.23.04-1.6-.05-1.67,0-.07.05.03.64-.05.69-.02.02-.56,0-.58-.02-.04-.06.05-1.22-.02-1.27-.19.03-1.24-.04-1.3,0-.07.05.03.69-.05.74-.06.04-1.33-.04-1.39,0-.05.04.13.89-.51.6-.16-.07,0-1.11-.09-1.3l-.88-.05c-.25.11.26,1.59-.51,1.25-.16-.07-.01-1.47-.07-1.55-.02-.03-.45-.04-.49-.02-.13.06,0,.31-.14.37-.11.05-.56-.08-.62.07-.16.36.47.64-.79.6.03.72-.03,1.44-.05,2.15-.11.02-.56-.03-.6.02-.02.03-.06.64-.05.67-.83.04-.49.1-.56,1.32l-.62.02c-.08.05-.07.14-.09.14-.78.08-2.21-.06-3.1,0l-.02-.97c.83,0,1.65,0,2.48,0l.14-1.16,1.27-.07.07-3.77q5.21-.02,10.41-.05l-.02-1.34s.06,0,.09,0c.5,0,1,.01,1.5,0l.02-1.11s.05-.05.09-.05c.38,0,.86.03,1.25.05Z"/>
        <path class="cls-4" d="M5.74,28.19s.03,0,.05,0c-.03.34.08.75-.09.88-.66,0-1.33,0-1.99,0l.02-.88c.67,0,1.34,0,2.01,0Z"/>
        <path class="cls-28" d="M32.22,27.59v1.41l-1.2.07c-.21-1.88.79-.21.76-1.57.34-.05.42.09.44.09Z"/>
        <path class="cls-39" d="M21.43,27.4c.05.85,0,.58-.83.6,0-.05-.15-.99.02-1.06h.79s.02.38.02.46Z"/>
        <path class="cls-39" d="M13.75,27.26s-.08.58-.07.74c-.89-.03-.91.21-.86-.6.01-.19-.05-.38.07-.46h.74c.05.02.11.27.12.32Z"/>
        <path class="cls-33" d="M21.66,20.83c0,.13.11.72.05.81-.02.03-.63.11-.69-.12,0-.03.03-.64.05-.67.04-.06.5,0,.6-.02Z"/>
        <g>
          <path class="cls-17" d="M31.48,23.79c0,.2,0,.4,0,.6,0,.22-.03.5.05.69-.08.02.05.07-.28.09-.11,0-.51.04-.56-.07.03-.19-.04-1.24,0-1.3.04-.06.66,0,.79-.02Z"/>
          <path class="cls-33" d="M31.52,25.09c-.08-.2-.04-.47-.05-.69.53-.18.56.41.46.62-.06.13-.32.04-.42.07Z"/>
        </g>
        <path class="cls-28" d="M2.55,16.89c.04.37,0,1,0,1.43.01.79,0,1.57,0,2.36l-1.25.05s-.04.04-.05-.14c0-.25-.09-.58-.09-.83,0-.04.06.15.05-.83,0-.26-.04-.53-.05-.79,0-.05.06.09.05-.88,0-.29.01-.59,0-.88.32,0,.63,0,.95,0,.04-.02.01-.08.02-.09.32.22.3-.12.37.6Z"/>
        <path class="cls-15" d="M2.55,24.16c-.08-.07-.64-.07-.67-.05-.03.02-.04.6-.02.62.04.06.58,0,.69.02.01.24.02.51.05.74h-1.3c.02-1.58.02-3.18,0-4.77l1.25-.05c0,1.15-.04,2.32,0,3.47Z"/>
        <path class="cls-22" d="M3.33,18.33c.02,2.54.08,5.08.05,7.61-.73.03-.71.2-.79-.44-.03-.23-.03-.5-.05-.74-.01-.2,0-.4,0-.6-.04-1.15,0-2.32,0-3.47,0-.79.01-1.57,0-2.36h.79Z"/>
        <path class="cls-32" d="M5.79,16.99v.93c-.1,0-.51-.02-.53,0-.17.12.42.59-.79.46l-.02-1.39c.45,0,.89,0,1.34,0Z"/>
        <path class="cls-34" d="M3.38,16.94c0,.46-.05.93-.05,1.39h-.79c0-.44.04-1.06,0-1.43l.79-.05s.05.05.05.09Z"/>
        <g>
          <path class="cls-28" d="M4.44,16.99l.02,1.39c1.2.13.61-.34.79-.46.02-.02.44,0,.53,0l-.05,10.28c-.67,0-1.34,0-2.01,0l-.02.88c-.46,0-.94-.05-.88.09l-.14-.14c.19-.07.05-.94.09-1.46-.07-.09-1,.02-1.16.02-.08,0-.32-.05-.37-.05-.02-.68.04-1.36.05-2.04h1.3c.07.64.06.47.79.44.03-2.54-.02-5.08-.05-7.61,0-.45.05-.93.05-1.39.34.08.71.05,1.06.05Z"/>
          <path class="cls-15" d="M4,24.86l.86.07-.07,1-.86-.07.07-1Z"/>
        </g>
        <path class="cls-1" d="M14.95,20.88c-.27,0-.83.05-.88-.07v-3.77c.13,0,.8-.15.88.02.02,1.27-.03,2.55,0,3.82Z"/>
        <g>
          <path class="cls-37" d="M14.07,17.03v3.77c.05.12.61.06.88.07,0,.38,0,.76,0,1.13.07.1.92-.03,1.06-.02.19,0,.4.04.6.05l.02.97c.9-.06,2.32.08,3.1,0,.02,0,.02-.09.09-.14l.62-.02c.06-1.22-.28-1.28.56-1.32.06.23.67.15.69.12.06-.09-.05-.68-.05-.81.02-.72.08-1.43.05-2.15,1.26.03.63-.24.79-.6.07-.15.52-.02.62-.07.13-.06,0-.31.14-.37.04-.02.47,0,.49.02.06.08-.09,1.48.07,1.55.77.34.26-1.14.51-1.25l.88.05c.09.19-.07,1.23.09,1.3.64.29.46-.57.51-.6.06-.04,1.33.04,1.39,0,.07-.05-.03-.69.05-.74.05-.04,1.11.03,1.3,0,.07.05-.02,1.22.02,1.27.02.03.55.04.58.02.07-.05-.03-.64.05-.69.07-.05,1.44.04,1.67,0l.09-.79h1.3c-.03.39.11,3,.02,3.12-.08.11-.53-.23-.42.51-.55-.32-.37,1.24-.37,2.38-.12.02-.74-.04-.79.02-.04.05.03,1.11,0,1.3.05.11.45.08.56.07-.27.27-.08,1.02-.14,1.55-1.62-.11.09.81-1.69.62l-.05.83h-3.93l-.05-.79h-1.34l-.09.79h-.88c.03-1.16-.03-.7-1.64-.79,0-.09.02-.43-.02-.46h-.79c-.17.08-.02,1.01-.02,1.06,0,.08.02.12-.07.19-.29-.05-2.18.07-2.27,0-.17-.12.35-.7-.6-.56-.03-.49-.13-.17-.14.56h-2.87l-.07-.95-.83.02c0-.06-.06-.3-.12-.32h-.74c-.12.08-.06.27-.07.46l-2.29-.05-.09.83c-1.55.01-3.1-.02-4.65,0-.02,0-.03,0-.05,0l.05-10.28c.51-.02,1.04.02,1.55,0l.07-.88c.26,0,.52,0,.79,0l.02,1.53h1.34c.18.08-.17,1.06.56.74.15-.07,0-.68.09-.74,1.54-.16.75.43.95.72.02.03.51.04.53.02.07-.05-.01-.67.02-.72.06-.08.49.05.56-.09.2-.44-.62-.56,1.25-.56l.05-.95c.17,0,.34.04.51.05Z"/>
          <path class="cls-17" d="M30.71,19.35s.74,0,.76.02l-.07,2.11c-.12-.02-.68.04-.72-.02-.06-.09-.06-2.05.02-2.11Z"/>
        </g>
        <path class="cls-1" d="M7.41,17.03l-.07.88c-.52.02-1.04-.02-1.55,0v-.93c.54,0,1.09.05,1.62.05Z"/>
        <path class="cls-1" d="M16.02,21.99c-.15,0-.99.12-1.06.02,0-.38,0-.76,0-1.13.15,0,1.03-.03,1.06.02v1.09Z"/>
        <path class="cls-28" d="M2.55,24.16c0,.2-.01.4,0,.6-.11-.02-.65.04-.69-.02-.02-.03,0-.61.02-.62.03-.02.59-.02.67.05Z"/>
      </g>
      <g>
        <path class="cls-35" d="M32.86,5.14c0,.49.01.99,0,1.48h-.76c-.06.23-.16.35-.16.37-1.62,0-3.24,0-4.86,0-.43,0-.86,0-1.3,0-.28,0-.56,0-.83,0-.28,0-.56.05-.83.05-.41,0-.83-.05-1.25-.05-.34,0-.68,0-1.02,0-.85,0-1.7.03-2.55.05-.26,0-.51,0-.79,0-.04,0-.5-.09-.86-.05-.12.05-.06.62-.07.88,0,.02,0,.03,0,.05-.31,0-.62,0-.93,0-.29,0-.59,0-.88,0-.35,0-.76.06-1.06-.09,0-.14.04-.78-.07-.83-1.9-.05-3.81.05-5.72.05-.32,0-.65-.05-.97-.05-1.53,0-3.05,0-4.58,0,0-.32,0-.63,0-.95-.09-.12-.37-.05-.65-.07-.28-.01-.56.01-.83,0l.05-.83h30.92Z"/>
        <path class="cls-35" d="M2.5,10.37l.05.05-.05,1.83c.07.1.14.06.14.07.03.34-.02.7,0,1.04-.08.12-.23.06-.37.07-.16.01-1.04.02-1.11,0-.03,0-.05,0-.05-.05l.09-.02c.06-.99.04-1.99.05-2.99h1.25Z"/>
        <path class="cls-4" d="M33.84,10.09c0,1.09,0,2.18,0,3.26-.21.17-.92.02-.97.02v-3.26l.97-.02Z"/>
        <path class="cls-31" d="M1.85,7.5c0,.51.03,1.01.05,1.53,0,.05-.07.6-.05.62.22,0,.48.06.69.07l-.05.65h-1.25c0-.97,0-1.94,0-2.92l.6.05Z"/>
        <path class="cls-4" d="M33.84,6.9l-.97-.05c0-.08,0-.15,0-.23.01-.49,0-.99,0-1.48l.97.02c0,.58,0,1.16,0,1.74Z"/>
        <path class="cls-4" d="M1.95,5.14l-.05.83h-.65c0-.27,0-.54,0-.81l.69-.02Z"/>
        <path class="cls-31" d="M3.43,14.58h-1.16s0-.03,0-.05c.01-.37,0-.74,0-1.11.14-.01.29.05.37-.07-.02-.34.03-.7,0-1.04l.65-.05c0,.08.14.02.14.07.04.74-.02,1.5,0,2.24Z"/>
        <path class="cls-5" d="M5,8.98s.04.09.07.09c.18,0,.39-.05.53-.05.02,0,.16.03.46.05l-.05.95c-.11.11-.52.07-.88.07-.14,0-.8-.15-.88.02v4.47l-.05.05h-.79s0-.03,0-.05c-.02-.75.04-1.5,0-2.24,0-.05-.13.01-.14-.07-.04-.6.03-1.22,0-1.83l-.74-.02-.05-.05.05-.65s-.05-.04.14-.05c.69-.03.81.21.65-.69l.05-.05c.53.1,1.08.02,1.62.05Z"/>
        <path class="cls-22" d="M14.72,7.82s-.05-.01-.05.05c-.26-.02-.52-.04-.79-.05-.44-.01-.88,0-1.32,0l-.07,1.32-1.25.02,1.2-.07v-1.2c-.08-.17-1.07-.02-1.25-.02-.46,0-.93-.09-1.39-.05h-.88v-.79c1.9,0,3.81-.1,5.72-.05.11.05.07.7.07.83Z"/>
        <path class="cls-31" d="M29.86,7.87v1.18l1.13.02.02-1.25h.93c-.03.43-.05.87-.05,1.3l-.88.02v.9c-.42,0-.83,0-1.25,0v-.9l-.95-.07-.02.97c-.29,0-.59,0-.88,0v-.9l.83-.09v-1.18c.37,0,.74,0,1.11,0Z"/>
        <path class="cls-31" d="M5.14,10.09v4.49h-.88v-4.47c.07-.17.74-.02.88-.02Z"/>
        <path class="cls-31" d="M7.92,7.87l-.05,1.18,1,.07.07-1.25v-.05h.88v1.27l-.88.05-.07.95c-.35.04-.7-.04-1.04-.05v-.9c-.05-.12-.67-.06-.93-.07-.01-.41,0-.8,0-1.2.34,0,.67,0,1.02,0Z"/>
        <path class="cls-31" d="M24.07,7.87v1.18s.34.02.42.02c-.04.22.14.1.19.16.02.03-.14.48,0,.81-.29.01-.59,0-.88,0l-.02-.93c-.38-.04-.86.05-.9.05,0,0,.03-.04-.09-.05.08-.41.04-.84.05-1.25,0-.02,0-.03,0-.05l1.25.05Z"/>
        <path class="cls-22" d="M21.85,6.99v.83s-.04.05-.23.05c-.29,0-.59,0-.88,0-.48,0-.96-.05-1.43-.05v-.79c.85-.01,1.7-.04,2.55-.05Z"/>
        <path class="cls-35" d="M32.77,7.82c0,.3.13,2.13.05,2.24-.3.09-.7-.02-.88-.02.04-.31-.04-.62-.05-.93,0-.43.02-.87.05-1.3,0-.02,0-.03,0-.05l.83.05Z"/>
        <path class="cls-18" d="M17.59,7.91c-.01.36-.02.8,0,1.16l-.93.07c-.19.43.53,1.11-.83.88-.01-.3.02-.6,0-.9l.83-.07v-1.13c.31,0,.62,0,.93,0Z"/>
        <path class="cls-18" d="M28.74,7.87v1.18l-.83.09v.9c-.12,0-.8.02-.83-.02v-.95c.12,0,.8.02.83-.02v-1.23c.28,0,.57.05.83.05Z"/>
        <g>
          <path class="cls-4" d="M28.93,15.64c-.6,0-1.21-.05-1.81-.05l.02-.97h1.76l.02,1.02Z"/>
          <path class="cls-4" d="M25.46,15.6c-.52,0-1.05,0-1.57,0v-1.09c1.69,0,1.63-.41,1.57,1.09Z"/>
        </g>
        <path class="cls-4" d="M8.84,15.6c-.57,0-1.14.05-1.71.05l.02-1.06h1.67l.02,1.02Z"/>
        <path class="cls-25" d="M11.25,9.16l-.05-1.3c.18,0,1.17-.15,1.25.02v1.2l-1.2.07Z"/>
        <path class="cls-18" d="M27.03,7.87c-.02.4.04.81-.05,1.2-.46.01-1.19-.05-1.25-.05.02-.38-.02-.77,0-1.16,0,0,.09-.09.09-.09,0,.18.72.06,1.2.09Z"/>
        <path class="cls-18" d="M22.82,7.87c0,.41.04.84-.05,1.25-.37,0-.74,0-1.11,0-.16-.17-.11-.91-.05-1.25.19,0,.21-.05.23-.05.31,0,.65.1.97.05Z"/>
        <path class="cls-18" d="M6.9,7.87c0,.4-.01.8,0,1.2-.28,0-.56.01-.83,0-.31-.01-.44-.05-.46-.05l.05-1.2c.42,0,.84.04,1.25.05Z"/>
        <path class="cls-31" d="M25.74,7.87c-.02.38.02.77,0,1.16-.12,0-.29.07-.42.07l-.02.95c-.21,0-.42,0-.62,0-.14-.33.02-.78,0-.81-.04-.06-.23.06-.19-.16.11,0,.6.04.65-.07v-1.13c.2,0,.4,0,.6,0Z"/>
        <path class="cls-18" d="M15.78,7.91c.01.38-.02.77,0,1.16-.35.06-.71.05-1.06.05,0-.4-.05-.84-.05-1.25,0-.06.05-.04.05-.05.3.15.72.09,1.06.09Z"/>
        <g>
          <path class="cls-35" d="M33.84,6.9c.01,1.06,0,2.13,0,3.19l-.97.02v3.26c-.08,0-.12-.02-.19.07v1.04s-.05.05-.09.05c-.5,0-1,0-1.5,0l-.02,1.11s-.06,0-.09,0c-.68,0-1.36,0-2.04,0l-.02-1.02h-1.76l-.02.97c-.56,0-1.11,0-1.67,0,.06-1.5.11-1.08-1.57-1.09v1.09c-.66,0-1.33.07-1.99.05-.04-.88.41-1.16-.65-1.06-.02-.39-.08-.78-.05-1.18l-1.23-.07-.09-1.02h-4.72c-.08.05-.02.91-.02,1.06-.18,0-1.06-.05-1.11.07l-.02,2.2c-.69,0-1.37,0-2.06,0l-.02-.97h-1.81l-.02.97c-.42,0-.84-.05-1.25-.05l-.02-1.02h-1.67l-.02,1.06c-.66,0-1.33,0-1.99,0v-5.55c.36,0,.77.05.88-.07l.05-.95c.28.01.56,0,.83,0,0,.32,0,.63,0,.95.07.16.76.02.93.02.34,0,.7.09,1.04.05l.07-.95.88-.05v-1.27c.46-.04.93.04,1.39.05l.05,1.3,1.25-.02.07-1.32c.44,0,.88-.01,1.32,0,0,.43-.01.87,0,1.3,0,.3,0,.6,0,.9l.76.07c0-.32.06-.66.07-.97.35,0,.71.01,1.06-.05,0,.06.05.04.05.05.02.3-.01.6,0,.9,1.37.24.64-.45.83-.88l.93-.07s.04.05.05.09c0,.13-.03.84.02.88h.88c.09-.07-.02-.83-.02-.97,0-.39,0-.77,0-1.16.24-.03.55-.09.79-.09.47,0,.96.05,1.43.05-.12.41-.02.84,0,1.25.01.35-.1.77.02.93l.81-.02v-.86s.05-.05.09-.05c.37,0,.74,0,1.11,0,.12,0,.09.05.09.05l.02.88c.3,0,.6,0,.9,0,.29,0,.59.01.88,0,.21,0,.42,0,.62,0l.02-.95c.13,0,.29-.06.42-.07.06,0,.79.06,1.25.05.03,0,.06,0,.09,0v.95s.71.02.83.02c.29,0,.59,0,.88,0,.32,0,.65,0,.97,0,.42,0,.83,0,1.25,0,.31,0,.62,0,.93,0,.18,0,.58.11.88.02.08-.12-.05-1.95-.05-2.24,0-.31.09-.66.09-.97l.97.05Z"/>
          <path class="cls-4" d="M25.71,13.42h1.2l.07,1-1.27.07v-1.06Z"/>
          <path class="cls-4" d="M8.96,13.42l1.04.02-.02,1.09c-.05.06-1.01.12-1.09-.07l.07-1.04Z"/>
        </g>
        <path class="cls-31" d="M18.52,7.87v.05c0,.39,0,.77,0,1.16-.34.03-.75-.08-.88.09,0-.04-.04-.05-.05-.09-.02-.35-.01-.8,0-1.16,0-.02,0-.03,0-.05h.93Z"/>
        <path class="cls-31" d="M21.62,7.87c-.06.34-.12,1.08.05,1.25-.04,0-.05.05-.09.05-.26,0-.56-.1-.83-.05-.02-.41-.12-.83,0-1.25.29,0,.59,0,.88,0Z"/>
        <path class="cls-31" d="M27.91,7.82v1.23s-.71.02-.83.02c-.03,0-.06,0-.09,0,.09-.4.03-.8.05-1.2,0,0,.04.01.05-.05.28,0,.56,0,.83,0Z"/>
        <path class="cls-5" d="M32.86,6.62c0,.08,0,.15,0,.23,0,.31-.09.66-.09.97l-.83-.05c.02-.25-.03-.63,0-.79,0-.02.1-.14.16-.37h.76Z"/>
        <path class="cls-31" d="M16.66,7.91v1.13l-.83.07s-.04.01-.05-.05c-.02-.38.01-.77,0-1.16.29,0,.59,0,.88,0Z"/>
        <path class="cls-31" d="M14.67,7.87c0,.41.05.85.05,1.25-.28,0-.56,0-.83,0-.01-.43,0-.86,0-1.3.27,0,.52.03.79.05Z"/>
        <path class="cls-18" d="M5.14,14.58v1.06c-.31,0-.62,0-.93,0v-1.02l.05-.05h.88Z"/>
        <path class="cls-18" d="M29.76,10.04c-.32,0-.65,0-.97,0l.02-.97.95.07v.9Z"/>
        <path class="cls-18" d="M7.82,10.04c-.16,0-.85.14-.93-.02,0-.32,0-.63,0-.95.26,0,.87-.05.93.07v.9Z"/>
        <path class="cls-18" d="M18.52,9.07c0,.14.12.9.02.97h-.88c-.05-.04-.01-.75-.02-.88.13-.18.54-.06.88-.09Z"/>
        <path class="cls-18" d="M31.89,9.12c0,.3.09.62.05.93-.31,0-.62,0-.93,0v-.9l.88-.02Z"/>
        <path class="cls-18" d="M23.79,10.04c-.3,0-.6,0-.9,0l-.02-.88s.52-.09.9-.05l.02.93Z"/>
        <path class="cls-18" d="M21.57,9.16v.86l-.81.02c-.12-.16-.01-.57-.02-.93.27-.05.57.05.83.05Z"/>
        <path class="cls-18" d="M14.72,9.12c0,.31-.07.65-.07.97l-.76-.07c0-.3,0-.6,0-.9.28,0,.56,0,.83,0Z"/>
        <path class="cls-19" d="M19.3,7.04v.79c-.23,0-.55.06-.79.09v-.88c.27,0,.52,0,.79,0Z"/>
        <path class="cls-22" d="M31.94,6.99c-.03.16.02.54,0,.79,0,.02,0,.03,0,.05h-.93c-.38-.05-.78.05-1.16.05-.37,0-.74,0-1.11,0-.27,0-.56-.05-.83-.05-.28,0-.56,0-.83,0,.01-.28,0-.56,0-.83,1.62,0,3.24,0,4.86,0Z"/>
        <path class="cls-22" d="M7.96,6.99l.05.88s-.06,0-.09,0c-.35,0-.67,0-1.02,0-.41,0-.83-.04-1.25-.05-.22,0-.43,0-.65,0-.54,0-1.09-.04-1.62.05,0-.29,0-.59,0-.88,1.53,0,3.05,0,4.58,0Z"/>
        <path class="cls-22" d="M24.12,7.04v.79l-.05.05-1.25-.05c0-.27-.04-.59.05-.83.42,0,.84.05,1.25.05Z"/>
        <path class="cls-19" d="M27.08,6.99c0,.28.01.56,0,.83,0,.06-.05.04-.05.05-.48-.04-1.2.09-1.2-.09,0-.16-.01-.61-.05-.79.43,0,.86,0,1.3,0Z"/>
        <path class="cls-3" d="M22.87,6.99c-.08.25-.05.57-.05.83,0,.02,0,.03,0,.05-.32.05-.66-.05-.97-.05v-.83c.34,0,.68,0,1.02,0Z"/>
        <path class="cls-3" d="M8.93,7.04v.83c-.31,0-.62,0-.93,0l-.05-.88c.32,0,.66.05.97.05Z"/>
        <path class="cls-22" d="M18.52,7.04v.83h-.93c0-.26-.05-.83.07-.88.36-.04.81.05.86.05Z"/>
        <path class="cls-22" d="M25.78,6.99c.03.17.06.63.05.79,0,0-.09.09-.09.09-.2,0-.4,0-.6,0-.19,0-.21-.05-.23-.05l.05-.83c.28,0,.56,0,.83,0Z"/>
        <path class="cls-19" d="M24.95,6.99l-.05.83s-.3.26-.79,0v-.79c.27,0,.56-.05.83-.05Z"/>
        <path class="cls-22" d="M3.29,12.27l-.65.05s-.07.03-.14-.07l.05-1.83.74.02c.03.61-.04,1.22,0,1.83Z"/>
        <g>
          <path class="cls-23" d="M1.85,5.97c0,.51,0,1.02,0,1.53l-.6-.05c0-.49-.02-.99,0-1.48h.6Z"/>
          <path class="cls-41" d="M2.73,5.97c.07.36-.11,2.94.02,3.01h.58c.16.9.05.67-.65.69-.02-.11.04-.61-.02-.65-.04-.03-.61.02-.76,0-.02-.51-.05-1.01-.05-1.53,0-.51,0-1.02,0-1.53h.05c.28.01.56-.01.83,0Z"/>
          <path class="cls-36" d="M3.38,6.99c0,.29,0,.59,0,.88,0,.35,0,.71,0,1.06l-.05.05h-.58c-.14-.07.05-2.65-.02-3.01.28.02.56-.05.65.07,0,.32,0,.63,0,.95Z"/>
          <path class="cls-25" d="M2.69,9.67c-.18,0-.13.05-.14.05-.22,0-.47-.07-.69-.07-.03-.02.05-.57.05-.62.15.02.73-.03.76,0,.06.04,0,.54.02.65Z"/>
        </g>
        <path class="cls-31" d="M5,7.82v1.16c-.54-.02-1.09.06-1.62-.05,0-.35,0-.71,0-1.06.53-.08,1.08-.05,1.62-.05Z"/>
        <path class="cls-21" d="M5.65,7.82l-.05,1.2c-.14,0-.36.05-.53.05-.03,0-.06-.09-.07-.09v-1.16c.22,0,.43,0,.65,0Z"/>
        <path class="cls-18" d="M31.01,7.82l-.02,1.25-1.13-.02v-1.18c.38,0,.77-.1,1.16-.05Z"/>
        <path class="cls-18" d="M8.01,7.87c.31,0,.62,0,.93,0l-.07,1.25-1-.07.05-1.18s.06,0,.09,0Z"/>
        <path class="cls-18" d="M24.9,7.82s.05.05.23.05v1.13c-.05.11-.54.08-.65.07-.08,0-.38.02-.42-.02v-1.18l.05-.05c.49.26.74,0,.79,0Z"/>
      </g>
      <g>
        <g>
          <path class="cls-11" d="M19.95,14.3l-.76-.05-.07.6c-1.32,0-2.66.07-3.98.14-.02-.53,0-1.09,0-1.62,1.58-.04,3.16.03,4.74,0,.12.05.06.67.07.93Z"/>
          <path class="cls-11" d="M19.95,15.14c0,.09.02.43-.02.46h-4.77s-.02-.5-.02-.6c1.32-.07,2.66-.14,3.98-.14.16,0,.57-.02.62,0,.21.07.02.27.21.28Z"/>
          <path class="cls-11" d="M19.95,14.3c0,.26.02.57,0,.83-.19-.01,0-.21-.21-.28-.05-.02-.46,0-.62,0l.07-.6.76.05Z"/>
        </g>
        <g>
          <path class="cls-6" d="M21.25,14.58c.02.32.02.68-.05,1,.04.11.46.06.69.07.67.02,1.33-.05,1.99-.05.53,0,1.05,0,1.57,0,.56,0,1.11,0,1.67,0,.6,0,1.2.05,1.81.05.68,0,1.36,0,2.04,0l.02,1.34q-5.21.02-10.41.05l-.07,3.77-1.27.07-.14,1.16c-.83,0-1.65,0-2.48,0-.2,0-.41-.04-.6-.05v-1.09s-.92-.02-1.06-.02c-.03-1.27.02-2.55,0-3.82-.08-.17-.75-.02-.88-.02-.17,0-.34-.04-.51-.05-1.79-.03-3.58.05-5.37.05-.26,0-.52,0-.79,0-.53,0-1.08-.04-1.62-.05-.45,0-.89,0-1.34,0-.35,0-.72.04-1.06-.05,0-.04-.05-.05-.05-.09,0-.36.1-.76.05-1.13l-1.16-.07c0-.17-.05-.13-.05-.14.02-.3.08-.63.09-.93h1.16s0,.03,0,.05c0,.33,0,.66,0,1,.03.05.67.02.79.02.31,0,.62,0,.93,0,.66,0,1.33,0,1.99,0,.57,0,1.15-.04,1.71-.05.41,0,.83.05,1.25.05.62,0,1.23,0,1.85,0,.69,0,1.37,0,2.06,0l.02-2.2c.05-.12.93-.07,1.11-.07,0,.53-.02,1.09,0,1.62,0,.1-.02.57.02.6h4.77s.02-.38.02-.46c.02-.26,0-.57,0-.83,0-.26.05-.87-.07-.93-1.58.03-3.16-.04-4.74,0,0-.15-.05-1.01.02-1.06h4.72l.09,1.02,1.23.07c-.03.4.02.79.05,1.18Z"/>
          <g>
            <path class="cls-13" d="M19.16,17.54c.02.32.13,3.22-.02,3.29q-1.48.02-2.96.05c-.12-.05-.06-.62-.07-.88.48-.12,1.8,0,1.87-.05.06-.04,0-.35.02-.39.05-.06.32.02.37-.05.03-.04-.05-.9.05-.97.17-.14.34.36.28-1,.15,0,.31,0,.46,0Z"/>
            <path class="cls-11" d="M18.7,17.54c.06,1.35-.11.86-.28,1-.09.08-.02.93-.05.97-.05.06-.32-.02-.37.05-.03.04.04.35-.02.39-.08.05-1.4-.07-1.87.05-.02-.49-.01-.99,0-1.48.26.05.54-.05.79-.05.18,0,1.13.11,1.23.05l.02-.93s.12-.04.56-.05Z"/>
            <path class="cls-2" d="M19.16,17.54c-.15,0-.31,0-.46,0-.43,0-.53.05-.56.05-.41,0-.84-.1-1.25-.05,0-.05,0-.09,0-.14.01-.17-.02-.2.09-.37.72-.02,1.44.02,2.15,0,.05.03.02.42.02.51Z"/>
            <path class="cls-40" d="M16.9,17.4s0,.09,0,.14c0,.31,0,.62,0,.93-.25,0-.53.1-.79.05.01-.39-.02-.77.05-1.16.01.28.62.26.74.05Z"/>
            <path class="cls-20" d="M16.99,17.03c-.11.17-.08.2-.09.37-.12.21-.73.23-.74-.05.01-.07-.03-.29.02-.32.27,0,.54,0,.81,0Z"/>
            <path class="cls-6" d="M18.15,17.59l-.02.93c-.1.07-1.04-.05-1.23-.05,0-.31,0-.62,0-.93.41-.05.84.05,1.25.05Z"/>
          </g>
        </g>
      </g>
    </g>
  </g>
</svg>