<?xml version="1.0" encoding="UTF-8"?>
<svg id="Layer_2" data-name="Layer 2" xmlns="http://www.w3.org/2000/svg" viewBox="0 0 35.22 31">
  <defs>
    <style>
      .cls-1 {
        fill: #3697da;
      }

      .cls-2 {
        stroke: #02192a;
        stroke-width: .5px;
      }

      .cls-2, .cls-3, .cls-4 {
        fill: none;
        stroke-linejoin: round;
      }

      .cls-2, .cls-4 {
        stroke-linecap: round;
      }

      .cls-5 {
        fill: #2d85b4;
      }

      .cls-3 {
        stroke: #2b84b3;
        stroke-linecap: square;
        stroke-width: .38px;
      }

      .cls-6 {
        fill: #55b4e9;
      }

      .cls-7 {
        fill: #73c6f3;
      }

      .cls-4 {
        stroke: #02192b;
        stroke-width: .44px;
      }

      .cls-8 {
        fill: #fefefe;
      }

      .cls-9 {
        fill: #fdfdfd;
      }
    </style>
  </defs>
  <g id="Layer_1-2" data-name="Layer 1">
    <g>
      <g id="Generative_Object" data-name="Generative Object">
        <g>
          <path class="cls-7" d="M4.71,2.42h7.77c.2.11-.03,2.56.06,2.91.05.19.21.1.3.12l.07,3.31,2.06-.06c0,.15-.05.4.08.46l1.92.12v18.69s0,.06,0,.06l-6.43-.03-.05-6.68c.06-.06.34-.54.36-.55.13-.05,1.34.18,1.4-.03v-2.76c-.05-.12-1.25.05-1.44-.03-.02-.01-.23-.53-.33-.52l-.02.02.02-.02c.05-.07.02-.37.03-.5l2.3-.04-.02-7.21-8.35-.06-.06,11.11c.75.25,1.8-.45,2.32.56-.08.12-.04.35-.05.51l-2.27.03.06,2.79,2.22-.04c0,.41.05,3.36-.05,3.45l-6.41-.11V9.23s2.03-.1,2.03-.1l.03-3.59,2.38-.12.06-3Z"/>
          <path class="cls-8" d="M12.84,18.01h1.79c.08.05.09,2.55.06,2.67,0,.01-.08.14-.09.14-.08.05-1.6.05-1.68,0,0,0-.09-.13-.09-.14-.03-.12-.05-2.59.02-2.67Z"/>
          <path class="cls-8" d="M12.88,21.86h1.75c.08.05.09,2.49.06,2.61,0,.01-.08.14-.09.14-.27.16-1.36-.12-1.72,0v-2.76Z"/>
          <polygon class="cls-8" points="5.01 5.95 6.8 5.95 6.82 8.62 5.05 8.71 5.01 5.95"/>
        </g>
        <g>
          <path class="cls-4" d="M16.99,28.03v-.06s0-18.69,0-18.69l-1.92-.12c-.12-.06-.07-.32-.08-.46-.07-1.03.06-2.18-.03-3.22-.07-.11-1.82.01-2.1-.03-.1-.01-.25.08-.3-.12-.09-.36.13-2.8-.06-2.93h-7.77s-.06,3.01-.06,3.01l-2.38.12-.03,3.59-2.02.1v18.68s6.4.11,6.4.11c.1-.09.04-3.04.05-3.45,0-.92,0-1.85,0-2.77,0-.16-.03-.39.05-.51l3.79.02.05,6.68,6.43.03Z"/>
          <path class="cls-2" d="M6.67,17.48l.08-4.47h3.75c.11.11.05,3.52.03,3.92,0,.12.02.43-.03.5l-.02.02-3.8.03Z"/>
        </g>
      </g>
      <g id="Generative_Object-2" data-name="Generative Object">
        <g>
          <rect class="cls-9" x="17.37" width="17.85" height="31"/>
          <path class="cls-6" d="M28.3,3.36v2.61c.5.03,1,.01,1.49.02.02.16.05.83-.03.88-.06.04-.82,0-.96,0-.12,0-.96-.08-.98-.02v5.13c-.04.16-.43.03-.53.09v12.91l2.49.05.04,1.77.98-.05v-1.72h.99v1.75s.98.02.98.02c.05-.04.03-1.6.03-1.8.33.06.51-.09.76.4v.03c0,.89.02,1.79-.02,2.68-1.58.01-3.16,0-4.74,0v-1.28s-5.97-.02-5.97-.02v-1.78s2.5-.08,2.5-.08V6.03l-1.48-.05v.85s.42-.04.49,0c.04.02.16.35.24.37,0,.16,0,.33,0,.49-1.59.07-3.17.02-4.76,0,0-.56,0-1.12,0-1.68,0-.59.03-1.19.02-1.78.03-.08.85.05.96-.02.07-.05.05-.7.03-.85,2.5-.02,5,0,7.5,0Z"/>
          <path d="M32.8,7.66v-1.6c.03-.13.47.05.51-.12v-2.53c-.5-.09-1.01-.04-1.51-.05-1.17,0-2.33,0-3.5,0-2.5,0-5-.02-7.5,0-.5,0-1-.04-1.49.05v2.56l.49.05c0,.56,0,1.12,0,1.68-.12,0-.95.1-.98-.02V2.5h14.98v5.14s-.99.02-.99.02Z"/>
          <path class="cls-1" d="M32.8,7.66s-.05.05-.06.06c-.23.11-1.61,0-1.96,0v-1.74c.67,0,1.35.04,2.02-.05v-1.68l-.98-.05-.03-.85c.5,0,1.01-.04,1.51.05v2.53c-.04.18-.48,0-.51.12v1.6Z"/>
          <path class="cls-1" d="M33.55,25.42v-.03c-.24-.49-.42-.33-.76-.4,0-.11.01-.8,0-.82h-3.97l-.04-.92,5.01.06c-.03.37.07,1.46,0,1.75,0,.03-.21.32-.25.35Z"/>
          <polygon class="cls-7" points="19.82 25.02 21.28 25.02 21.29 26.77 19.82 26.82 19.82 25.02"/>
          <path class="cls-5" d="M30.78,5.98v1.74c-.66,0-1.33-.03-1.99.03l.03-.88c.14,0,.9.04.96,0,.07-.05.05-.73.03-.88.33,0,.66,0,.98,0Z"/>
          <path class="cls-9" d="M31.8,3.36l.03.85.98.05v1.68c-.67.09-1.35.04-2.02.05-.33,0-.66,0-.98,0-.5,0-1,.02-1.49-.02v-2.61c1.17,0,2.33,0,3.5,0Z"/>
          <path class="cls-9" d="M20.8,3.36c.02.15.05.8-.03.85-.1.07-.92-.07-.96.02.02.6-.01,1.19-.02,1.78l-.49-.05v-2.56c.49-.09,1-.04,1.49-.05Z"/>
        </g>
        <path class="cls-3" d="M28.56,23.19l-.02-15.35-3.99-.79v.15c0,.16,0,.33,0,.49v10.24c-.05.57-.19,1.05-.23,1.65-.06.96.06,2.06-.02,3.03l-.56,1.13h-4.11c-.1.04-.55-.07-.58.06l.03,4.3c3.23,0,6.47.01,9.7,0,1.58,0,3.16,0,4.74,0,.04-.89.02-1.79.02-2.68v-.18l-4.99-2.04Z"/>
      </g>
    </g>
  </g>
</svg>