<?xml version="1.0" encoding="UTF-8"?>
<svg id="Layer_2" data-name="Layer 2" xmlns="http://www.w3.org/2000/svg" xmlns:xlink="http://www.w3.org/1999/xlink" viewBox="0 0 34.1 31.53">
  <defs>
    <style>
      .cls-1 {
        fill: #aad1e2;
      }

      .cls-1, .cls-2, .cls-3, .cls-4, .cls-5, .cls-6, .cls-7, .cls-8, .cls-9, .cls-10, .cls-11, .cls-12, .cls-13, .cls-14, .cls-15, .cls-16, .cls-17, .cls-18, .cls-19, .cls-20, .cls-21, .cls-22, .cls-23, .cls-24, .cls-25, .cls-26, .cls-27, .cls-28, .cls-29, .cls-30, .cls-31, .cls-32, .cls-33, .cls-34, .cls-35, .cls-36, .cls-37, .cls-38, .cls-39, .cls-40, .cls-41 {
        stroke-width: 0px;
      }

      .cls-2 {
        fill: #242613;
      }

      .cls-3 {
        fill: #dedccc;
      }

      .cls-4 {
        fill: url(#linear-gradient);
      }

      .cls-5 {
        fill: #2d1916;
      }

      .cls-6 {
        fill: #1b171b;
      }

      .cls-7 {
        fill: #e6beda;
      }

      .cls-8 {
        fill: #f0e418;
      }

      .cls-9 {
        fill: #142439;
      }

      .cls-10 {
        fill: #1c1f29;
      }

      .cls-11 {
        fill: #82c343;
      }

      .cls-12 {
        fill: #df4a85;
      }

      .cls-13 {
        fill: #c75ea3;
      }

      .cls-14 {
        fill: #0c1f21;
      }

      .cls-15 {
        fill: #b32f48;
      }

      .cls-16 {
        fill: #f0d118;
      }

      .cls-17 {
        fill: #78ced5;
      }

      .cls-18 {
        fill: #efc184;
      }

      .cls-19 {
        fill: #4d2736;
      }

      .cls-20 {
        fill: #f78f32;
      }

      .cls-21 {
        fill: #f3775d;
      }

      .cls-22 {
        fill: #14191c;
      }

      .cls-23 {
        fill: #1a1d15;
      }

      .cls-24 {
        fill: #4dadc2;
      }

      .cls-25 {
        fill: #bb4e9d;
      }

      .cls-26 {
        fill: #f16868;
      }

      .cls-27 {
        fill: #221f10;
      }

      .cls-28 {
        fill: #4cc2bd;
      }

      .cls-29 {
        fill: #be76b1;
      }

      .cls-30 {
        fill: #2a211c;
      }

      .cls-31 {
        fill: #d22c8e;
      }

      .cls-32 {
        fill: #12192f;
      }

      .cls-33 {
        fill: #0b231b;
      }

      .cls-34 {
        fill: #f7c514;
      }

      .cls-35 {
        fill: #39b6bc;
      }

      .cls-36 {
        fill: #f7f7fa;
      }

      .cls-37 {
        fill: #ed877a;
      }

      .cls-38 {
        fill: #1f5d81;
      }

      .cls-39 {
        fill: #382013;
      }

      .cls-40 {
        fill: #e75c83;
      }

      .cls-41 {
        fill: #53c4c7;
      }
    </style>
    <linearGradient id="linear-gradient" x1="4.02" y1="16.36" x2="9.88" y2="21.42" gradientUnits="userSpaceOnUse">
      <stop offset="0" stop-color="#f36f4c"/>
      <stop offset="1" stop-color="#ee5e5e"/>
    </linearGradient>
  </defs>
  <g id="Layer_1-2" data-name="Layer 1">
    <g>
      <path class="cls-36" d="M7.61.01c1.62.07,3.25-.4,4.22,1.23,3.41,0,6.82.07,10.24.04.39-.65.96-1.02,1.68-1.23,3.06-.06,4.93-.28,4.61,3.5.96.69,1.76,1.65,2.13,2.78.19.14,3.31-.44,3.6,1.56.02.13.02,2.56,0,2.7-.18,1.29-1.48,1.57-2.58,1.47v10.65c1.96,1.26,1.74,4.36-.14,5.38-.93.5-1.82.28-2.83.33-.17.08.4,2.79-1.47,3.07-.12.02-2.28.02-2.42,0-1.47-.21-1.63-1.81-1.56-2.99h-12.16c-.19.13.59,2.45-1.51,2.99-2.73.07-4.05.2-3.89-3.03-1.14,0-2.23.13-3.19-.61-1.52-1.18-1.56-4.2.23-5.14v-11.96c-1.11.14-2.36-.41-2.54-1.64C0,8.98,0,6.45.02,6.3c.29-2.13,3.12-1.67,4.61-1.7l1.04-1c.21-.56-.79-2.91,1.94-3.58Z"/>
      <g>
        <path class="cls-29" d="M4.07,18.93c.02.14.02,1.28,0,1.51-.01.21.05.42-.06.49h-.88c0-.26-.11-1.89-.04-1.99l.98-.02Z"/>
        <g>
          <path class="cls-29" d="M30.89,18.97c.12.62.04,1.37.04,2.01-.19-.05-.8-.07-.94-.04-.03,0-.07.01-.08-.02-.03-.09-.02-1.77,0-1.94h.98Z"/>
          <path class="cls-7" d="M30.72,18.73c-.03.14.14.04.2.1.04.03-.04.12-.04.14h-.98c.01-.09-.04-.18.06-.25.23-.02.55.03.76,0Z"/>
        </g>
        <path class="cls-1" d="M3.5,24.62c-.1.17-.14.29-.16.49-.04.4.07.59.47.7h26.41c.15-.06.32-.08.39-.25.18.03.09.22.2.33-.06.13-.3.43-.41.53-.24.22-.54.36-.84.49H4.48c-.39-.38-1.17-.56-1.35-1.21-.15-.55-.01-.75.37-1.09Z"/>
        <g>
          <path class="cls-32" d="M5.13,16.68c-.08-.49.02-.86-.1-1.06l-1.04.06c.04.46-.05,2.61,0,2.74.02.06.14.05.25.18,0,.75,0,1.5-.04,2.25,0,.12.02.6,0,.63-.03.05-.12-.02-.2.08-.06.07.05,1.68.04,1.9,0,.08,0,.13,0,.16,0,.05-.03.23-.04.29-.01.06-.04.04-.04.04-2.11.17-1.48,3.18.53,2.95h25.08c.3-.13.6-.27.84-.49.16.13-.46.35-.43.41,1.49-.09,2.06-2.36.47-2.87-.16-.05-.3-.02-.45-.08-.05-.32.06-2.37,0-2.48-.02-.04-.12,0-.2-.06,0-.04-.04-.04-.04-.08.09-.23-.03-.27.25-.33.14-.03.75,0,.94.04,0,.65.02,1.3-.04,1.94l.06.14c1.48.72,1.84,2.7.8,3.95-.94,1.12-2.45.85-3.75.88-.11.74.13,2.03-.35,2.6-.56.67-3,.52-3.5.18-.87-.58-.44-1.94-.57-2.83h-13.18c-.14.86.29,2.19-.49,2.78-.55.42-2.86.43-3.4,0-.76-.6-.25-1.92-.49-2.74-1.31-.04-2.88.26-3.79-.92-.98-1.29-.6-3.26.86-4.01-.04-.68.03-1.35.04-2.03h.88c.11-.08.05-.29.06-.49.03,0,.07.01.08-.02.03-.08.03-1.68,0-1.76-.04-.12-.21-.12-.25-.25-.04-.13-.04-2.61,0-2.74.07-.23,1.17-.19,1.23-.04v1.04Z"/>
          <path class="cls-41" d="M7,27.86h2.5c.06,1.82.47,2.16-1.11,2.21-1.95.06-1.45-.32-1.39-2.21Z"/>
          <path class="cls-41" d="M25.3,27.86c.58-.04,1.16.04,1.74.06-.08.43.19,1.88-.23,2.07-.11.05-1.92.07-2.05.04-.48-.12-.19-1.69-.27-2.11.27,0,.53-.05.8-.06Z"/>
        </g>
        <path class="cls-35" d="M3.95,23.97c-.02.08-.05.17-.08.25l-.2.29c-.05.04-.12.08-.16.12-.38.34-.52.53-.37,1.09.18.64.96.83,1.35,1.21-2.01.23-2.64-2.78-.53-2.95Z"/>
        <g>
          <path class="cls-17" d="M30.81,25.89c-.11-.11-.03-.3-.2-.33.08-.19,0-.28,0-.45,0-.07.06-.12.04-.23-.02-.12-.09-.23-.12-.35.29.02.25.36.66.39-.38.11-.04.29-.37.96Z"/>
          <path class="cls-24" d="M30.4,26.42c.11-.1.35-.4.41-.53.33-.67-.01-.86.37-.96-.41-.03-.36-.37-.66-.39,0-.03-.17.02-.08-.57,1.59.51,1.02,2.77-.47,2.87-.03-.06.59-.28.43-.41Z"/>
        </g>
        <g>
          <path class="cls-32" d="M30.72,18.73c-.21.03-.53-.02-.76,0-.1.06-.05.16-.06.25-.02.18-.03,1.85,0,1.94.01.03.05.02.08.02-.28.06-.16.09-.25.33-.03-.32-.09-2.6-.04-2.72.03-.07.29,0,.33-.08.07-.13,0-2.5-.06-2.85l-1.04.02c-.06,4.39-3.18,3.33-6.37,3.46-.04.53-.01,1.06-.02,1.6,0,.16,0,.33,0,.49,0,.78,0,1.56,0,2.33,0,.18,0,.36,0,.53,0,.14-.02,1.03.02,1.06h8.05c0,.18.08.26,0,.45-.07.17-.24.18-.39.25H3.8c-.4-.11-.51-.3-.47-.7h8.13c.11-.05.06-2.21.06-2.5.01-.72.05-1.45.04-2.17,0-.45.02-.9-.02-1.35-1.06-.06-3.12.09-3.93,0-1.23-.13-2.29-1.2-2.48-2.42v-1.04c-.06-.15-1.16-.19-1.23.04-.04.13-.04,2.61,0,2.74.04.12.21.12.25.25.03.08.03,1.68,0,1.76-.01.03-.05.02-.08.02.02-.24.02-1.37,0-1.51-.01-.08.03-.15-.06-.2l-.88-.02v-8.48c-.11-.24-2.32.45-2.58-1.15-.02-.14-.02-2.61,0-2.74.28-1.73,3.14-.95,4.32-1.13.37-.56.82-1.06,1.33-1.49.17-.6-.61-2.85,1.41-3.09.29-.04,2.5-.01,2.74.04.58.13.98.67,1.19,1.19h10.81C23.17,0,24.89.86,26.65.67c1.51.54,1.12,1.73,1.17,3.05,1.05.76,2,1.95,2.37,3.19.3.33,3.09-.58,3.36,1.11.02.12.02,2.34,0,2.46-.24,1.47-2.53.9-2.62,1.11v7.12s-.15.01-.2.02Z"/>
          <g>
            <g>
              <path class="cls-3" d="M25.93,9.92c.58.18.96.74,1.06,1.33.07.39.06,5.05,0,5.45-.08.51-.56.97-1,1.21-.25.13-.61.16-.63.33-.52.03-1.23.01-1.76,0v-8.54c.58.03,1.87.08,2.33.23Z"/>
              <path class="cls-41" d="M25.32,9.68c-.01.16.56.03.61.25-.47-.15-1.75-.2-2.33-.23v8.54c-.13,0-.87.02-.9-.02v-9.34c.08-.21,1.41.49,1.58.55.32.11.7.23,1.04.25Z"/>
              <path class="cls-41" d="M25.36,18.23c.02-.17.39-.2.63-.33.44-.23.92-.7,1-1.21.06-.4.07-5.06,0-5.45-.11-.59-.48-1.15-1.06-1.33-.05-.22-.62-.08-.61-.25.49.02.72-.09.8-.08,1.21.74,1.75.71,1.9,2.31.03.27.02,4.01,0,4.22-.18,1.58-1.25,2.04-2.66,2.11Z"/>
            </g>
            <g>
              <path class="cls-3" d="M9.76,9.51v8.68c-.47,0-1.15.03-1.6,0-.6-.47-1.28-.92-1.39-1.74-.11-.76-.04-4.72.16-5.45.31-1.13,1.33-.95,2.09-1.49.24-.01.49,0,.74,0Z"/>
              <path class="cls-41" d="M9.76,18.19v-8.68c.16,0,1.16-.05,1.19.02v8.6c-.05.11-1.01.06-1.19.06Z"/>
              <path class="cls-41" d="M9.02,9.51c-.76.55-1.77.36-2.09,1.49-.2.73-.27,4.68-.16,5.45.12.82.79,1.27,1.39,1.74-.57-.04-.75-.02-1.25-.37-.58-.41-.93-1.17-1-1.86-.03-.25-.03-3.92,0-4.22.19-2.09,1.32-2.13,3.11-2.23Z"/>
            </g>
            <path class="cls-20" d="M5.62,8.57c.3.53.58.52.57.59-1.69,1.25-.94,3.82-1.11,5.69-.07.13-.91.04-1.06.02,0-1.16-.19-3.71.08-4.69.15-.52.87-1.72,1.45-1.82.09.03.05.18.06.2Z"/>
            <path class="cls-12" d="M28.62,10.54c.46.04,1.31.26,1.41.8.07.34-.02,2.92-.02,3.58l-1.13-.02c-.09-1.45.24-2.97-.27-4.36Z"/>
            <path class="cls-28" d="M23.87,1.53c2.16.14,3.29-.66,3.09,1.62l-.06.06c-1.08-.64-2.38-.75-3.6-.9-.06-.05.23-.65.57-.78Z"/>
            <g>
              <path class="cls-3" d="M20.94,8.74q-.04,4.75-.08,9.5c-.11,0-.22,0-.33,0,.23.04.42-.23.27-.41-.03-.03-.71-.08-.82-.08-.5-.02-5.9-.02-6.76,0-.18,0-.41.07-.59.08.06-2.77-.05-5.56,0-8.33.9-.22,1.84-.33,2.76-.31l-.14-.12c1.05.06,1.59.23,2.68-.33,1,.02,2.01-.03,3.01,0Z"/>
              <path class="cls-41" d="M15.25,9.06l.14.12c-.93-.02-1.86.09-2.76.31-.05,2.78.06,5.56,0,8.33,0,.14.01.27-.04.41-.13,0-.87.02-.9-.02l.04-8.97c.19-.63,2.94-.22,3.52-.18Z"/>
              <path class="cls-17" d="M20.86,18.23q.04-4.75.08-9.5c.2,0,.85-.04.9.06v9.42s-.85.02-.98.02Z"/>
              <path class="cls-3" d="M20.53,18.23c-2.5.03-5.46.06-7.94,0,.05-.14.04-.27.04-.41.19-.01.41-.08.59-.08.86-.02,6.25-.02,6.76,0,.1,0,.79.05.82.08.15.18-.03.45-.27.41Z"/>
            </g>
            <path class="cls-16" d="M19.26,7.63s-.04,0-.04,0c.05-.87.03-.57-1.09-.61-.22.09.2.35.23.49.13.64-.74.69-1.17.66-.26.37-1.19.49-1.47.08-.21-.03-.17.07-.23.08-.44-.06-1.62.14-1.64-.14-.02-.34,1.16-.12,1.82-.18.12-.07-.3-.38-.23-.72.1-.45,1.73-.53,1.88-.06,0,.02,0,.36,0,.39-.15.55-.25-.11-.29-.18-.13-.29-1.25-.19-1.31-.02-.13.36.34.3.37.37-.4.47.5.87.61.06-.09-.23,1.16.27,1.35-.16.16-.37-.55-.27-.29-.8.15-.3,1.51-.2,1.66-.1.29.2.11.9-.18.86Z"/>
            <path class="cls-34" d="M25.18,7.38c.8.07,2.18.23,1.54,1.33.56.58,1.11.34,1.11.08,0-.16-.66-.35-.66-.45,0-.25.69-.08,1,.23.38.38-.41.08-.31,1-.07.12-1.4-.54-1.56-.86-.19-.39.43,0,.33-.53-.05-.28-.87-.56-.94-.45-.02.03.02.24,0,.29-.03.07-.12-.22-.18.68-.25.09-1.58-.17-1.54-.51.04-.31.57.43,1.39.12l-.25-.86.06-.06Z"/>
            <path class="cls-14" d="M28.59,5.91c-.66-.85-1.48-1.59-2.46-2.05-1.55-.73-3.02-.64-4.61-1.11-1.77,0-3.53,0-5.3,0-.27,0-.55,0-.82,0-.6,0-3.99-.05-4.2,0-.03,0-.02.05-.02.08-.01,0-.1.03-.08-.06.04-.03.08-.1.1-.1.51-.17,9.38.1,10.73.04l.29.2c2.47.17,4.97.76,6.37,2.99Z"/>
            <path class="cls-34" d="M13.2,7.79c.19-.05.26-.12.16.06-.15.28-2.7,1.03-2.13-.1.19-.18.52-.24.49.08-.08.08-.27-.01-.33.1-.12.26.29.37.68.1.54-.39.3-1.05-.59-.7-.17.07-.59.5-.53.02.06-.49,2.51-.76,1.49.63.27,0,.51-.13.76-.2Z"/>
            <g>
              <path class="cls-8" d="M17.83,6.44c-.02.09-.05.02-.08.04-.27.1-.5-.02-.78-.04-1.17-.1-1.33.23-1.58.2-.47-.36-2.46-.58-2.66,0-.41-.32-1.93-.34-2.17.08-.6-.14-1.57-.06-2.05.33-.4-.28-1.71-.17-1.97.2-.12.02-.16-.11-.27-.16-.38-.18-.55-.12-.98-.18.59-2.3,2.35-3.23,4.59-3.48-.01,1.36,1.81,1.33,3.09,1.99,1.63.19,3.36.26,4.85,1.02Z"/>
              <path class="cls-14" d="M17.83,6.44c-1.49-.76-3.22-.83-4.85-1.02-1.28-.65-3.1-.63-3.09-1.99-2.23.25-3.99,1.18-4.59,3.48.43.06.6,0,.98.18-.96-.25-1.39.32-.74-1.13.56-1.25,1.84-2.09,3.13-2.44,1.87-.51.94-.04,1.54.63.41.46,2.1.8,2.76,1.17,1.55.15,3.49.29,4.87,1.02.04.02-.01.03-.02.08Z"/>
            </g>
            <path class="cls-8" d="M11.23,7.75c-.57,1.13,1.98.39,2.13.1.1-.18.02-.12-.16-.06.38-.19-.39-.68.1-.98.27-.17,1.36-.15,1.58.18.08.12.22.73.06.8-.59.28.41-.94-1.39-.66.2.93-.82,1.24-1.56,1.31-.43.04-1.35-.15-.76-.7Z"/>
            <g>
              <path class="cls-34" d="M10.62,7.26c0,.11.05.18.04.31-.05.47-.64.44-.57.2.02-.09.73-.47-.82-.33l.02.84c.11.08.92-.08,1.11-.08.67.01.55.16-.23.33-.36.08-.72.11-1.09.16-.2-.06-.04-.64-.12-.7-.41-.05-1.41.56-1.37.04.05-.05,1.08-.45-.63-.2-.18.12.12.69-.27.61-.02-.06-.26-.31-.16-.63.07-.25,1.83-.65,1.64,0,1.29.02.53-.55,1.09-.68.21-.05,1.25-.03,1.37.12Z"/>
              <path class="cls-10" d="M10.17,8.53c.77-.17.9-.32.23-.33-.18,0-1,.16-1.11.08l-.02-.84c1.55-.14.84.24.82.33-.06.23.53.26.57-.2.01-.12-.04-.19-.04-.31.4.49-.3.72-.33.76-.16.25.68-.13.53.37-.03.1-.57.25-.66.14Z"/>
            </g>
            <path class="cls-16" d="M22.92,6.85c2.78-.07,1.53,1.69,1.13,1.09-.21-.31.31-.11.29-.45-.02-.42-.78-.36-1.04-.35-.01.94-.55.31-.37-.29Z"/>
            <path class="cls-10" d="M19.22,7.63s.02,0,.04,0c.12.34.73-.19.61.39-.02.12-.11.11-.16.14.06-.04.17-.28.1-.33-.27.04-1.34-.06-1.37.18-.05.32,1.21.18,1.27.14-.29.18-.9.04-1.29.08-.09-.04-.02-.55-.06-.74-.1-.45-.3-.34-.18-.45h.98c.07.05-.04.49.06.57Z"/>
            <path class="cls-16" d="M29.02,9.06c.07-.05,1.57.52,1.02.98-.17-.02-1.87-.46-1.68-.57,1,.11.5-.29.66-.41Z"/>
            <path class="cls-32" d="M7.59,8.04c-.3.3.28.23.31.25.04.02-.08.14-.04.16.07.03.29-.05.39.04-.14-.02-.12.04-.12.04-.31.05-1.08-.05-1.43,0,0-.03,0-.06,0-.08.39.08.08-.49.27-.61,1.71-.25.69.15.63.2Z"/>
            <path class="cls-10" d="M11.73,7.83c.38-.37-.78-.22-.25-.49.89-.36,1.14.31.59.7-.38.27-.8.15-.68-.1.05-.11.24-.02.33-.1Z"/>
            <path class="cls-6" d="M5.62,8.57s.03-.17-.06-.2c-.58.1-1.31,1.3-1.45,1.82-.27.98-.08,3.53-.08,4.69,0,0,0,.03-.06.08l-.06-.06c.11-1.52-.28-3.95.33-5.24.34-.73,1.52-1.95,1.39-1.09Z"/>
            <g>
              <path class="cls-34" d="M21.43,6.44c-1.05-.63-.59-.22-.98.33,0,0-.08.04-.12.06l.06.06c.23.07,1.75.37,1.19.57-.06.02-1.02-.23-1.15-.29-1.27-.54.23-.27-.1-1.25.13-.35,1.59.36,1.8.57-.58.68-.95.69-.49,0-.01-.03-.17-.04-.2-.06Z"/>
              <path class="cls-10" d="M21.43,6.44c.19.16-.23.28-.02.61-.28-.09-.89-.08-.96-.29.4-.55-.07-.96.98-.33Z"/>
            </g>
            <path class="cls-23" d="M17.33,7.22c-.15-.47-1.79-.39-1.88.06-.07.33.34.65.23.72-.66.06-1.84-.16-1.82.18.01.28,1.2.08,1.64.14,0,0,.01.07-.02.08-.12.03-1.64.06-1.7-.14-.17-.62,1.48-.25,1.82-.35-.95-1.11,1.43-1.51,1.74-.7Z"/>
            <path class="cls-16" d="M6.69,8.53c.35-.05,1.12.05,1.43,0,.47.48-1.22.28-1.6.33-.19-.19-.02-.3.16-.33Z"/>
            <path class="cls-16" d="M22.35,7.43c.07-.02,1.28.44,1.17.68-.08.17-1.63-.51-1.17-.68Z"/>
            <path class="cls-16" d="M30.62,9.14c.44-.07.48.67-.04.53-.28-.07-.21-.49.04-.53Z"/>
            <g>
              <path class="cls-16" d="M4.4,6.89c-1.7-.2-1.97,1.17-1.33,1.56.46.28,1.08-.19.55.66-.06.24-1.76.19-1.86.16-.04,0-.24-.14-.27-.18-.06-.12-.08-2.49-.04-2.66.14-.55,1.9-.21,2.35-.31.32.16.52.43.59.78Z"/>
              <path class="cls-34" d="M4.5,7.34c.3.05,1.84-.18,1.66.39-.11.33-1.01-.1-1.33-.02-.07.02-.46.57-.7.53-.33-.05.35-.12.37-.9Z"/>
              <path class="cls-22" d="M4.4,6.89c-.07-.35-.27-.62-.59-.78-.45.09-2.21-.24-2.35.31-.04.17-.02,2.54.04,2.66.02.05.23.18.27.18.1.02,1.8.08,1.86-.16,0,.01.02.07-.14.2-.51-.1-2,.28-2.15-.39-.03-.16,0-2.41.04-2.54.04-.12.3-.32.43-.35.1-.02,1.95-.02,2.05,0,.29.06.72.77.55.86Z"/>
              <path class="cls-34" d="M3.52,7.47c.44-.05.23.69-.16.53-.22-.09-.03-.51.16-.53Z"/>
            </g>
            <path class="cls-27" d="M18.07,7.67c-.19.43-1.44-.07-1.35.16,0,0-.11-.12.02-.16.19-.06.35.33.31-.25.03.07.14.73.29.18,0-.03,0-.37,0-.39.19.5-.39.81.74.45Z"/>
            <path class="cls-33" d="M13.65,3.54c-.5.05-1.59-.3-2.09-.53.69.23,1.39.36,2.09.53Z"/>
            <path class="cls-23" d="M8.25,8.49c.57.55-1.64.45-1.72.37.38-.04,2.07.15,1.6-.33,0,0-.02-.06.12-.04Z"/>
            <path class="cls-2" d="M17.74,6.48s.02.07-.02.08c-.24.07-.53-.01-.76-.12.27.02.51.14.78.04Z"/>
            <g>
              <path class="cls-16" d="M32.28,7.83c.17.05.3.19.37.35-.1,2.39.65,2.6-2.11,2.4,1.39-.46,1.29-2.13-.35-1.88v-.82l2.09-.04Z"/>
              <path class="cls-27" d="M32.28,7.83l-2.09.04.02-.08c.1-.04,1.92,0,2.07.04Z"/>
            </g>
            <g>
              <path class="cls-8" d="M12.46,19.14c1.39-.03,2.79,0,4.18,0,1.43,0,2.87-.03,4.3,0,.16,0,.82-.04.9.04v5.83c-1.18.12-2.38.06-3.56.06-.35,0-.71,0-1.06,0-1.66,0-3.33.05-5-.06.09-.74-.12-5.55,0-5.81.04-.09.17-.06.25-.06Z"/>
              <g>
                <path class="cls-2" d="M12.46,19.14c-.07,0-.21-.03-.25.06-.12.27.09,5.07,0,5.81,1.66.11,3.33.07,5,.06l-5.04-.02v-5.9c.14-.15.27-.02.29-.02Z"/>
                <path class="cls-2" d="M18.28,25.07c1.18,0,2.38.05,3.56-.06v-5.83l.04,5.88-3.6.02Z"/>
                <path class="cls-23" d="M20.94,19.14c-1.43-.03-2.87,0-4.3,0,0-.03,0-.07.02-.08.21-.05,4.06-.07,4.26,0,.03.01.02.05.02.08Z"/>
                <path class="cls-39" d="M13.06,21.8c1.01.13,7.7-.16,8.07,0,.1.04.05.22.06.31l-8.13.02v-.33Z"/>
                <path class="cls-30" d="M13.1,20.24c.36-.16,6.99.12,7.98,0l.02.31c-.99-.09-7.64.18-8,.02-.09-.04-.09-.29,0-.33Z"/>
                <path class="cls-5" d="M13.06,23.39h8.11l.02.23-8.13.06v-.29Z"/>
                <path class="cls-5" d="M13.06,21.06h8.07l.02.27-8.09.02v-.29Z"/>
                <path class="cls-6" d="M20.41,22.94s0-.07-.02-.08c-.35-.08-6.18.06-7.29,0v-.16l7.96-.04c.15.05.09.26.02.29-.04.02-.53,0-.68,0Z"/>
                <path class="cls-27" d="M21.06,22.66l-7.96.04v.16c1.11.06,6.93-.08,7.29,0,.03,0,.02.05.02.08-2.44.09-4.91-.17-7.35,0v-.29c1.01.07,7.63-.13,8,0Z"/>
              </g>
            </g>
            <g>
              <path class="cls-33" d="M20.2,5.46s-.07.1-.18.08c-.33-.37-.71-.64-1.13-.9.78.27.91.74,1.31.82Z"/>
              <g>
                <path class="cls-8" d="M28.59,5.91c.5.79.89,1.72.96,2.66-2.18-.48-2.42-2.02-4.46-1.72-.19-.53-.93-.78-1.39-.45-.58-.24-2.85-1.07-3.28-1.02-.02,0-.2.08-.23.08-.4-.08-.53-.54-1.31-.82-.96-.33-1.08.02-1.43-.16.09-1.05,2.71-.36,3.13.25.84.05,1.13-.27,1.39-.33.4-.08,1.19,0,1.27-.04.12-.05-.14-.54,1.6-.41.9.07,1.39.51,1.29-.08.98.46,1.8,1.19,2.46,2.05Z"/>
                <path class="cls-11" d="M15.41,2.76c.09.46,1.22,1.2,1.11.43-.03-.19-.3-.23-.29-.43,1.77,0,3.53,0,5.3,0,1.59.47,3.06.37,4.61,1.11.1.59-.39.15-1.29.08-1.74-.13-1.48.36-1.6.41-.08.03-.87-.04-1.27.04-.26.05-.56.38-1.39.33-.42-.61-3.04-1.3-3.13-.25-.06.02-.08-.03-.12-.04-.81-.25-1.64-.69-2.52-.57-.29-.23-.77-.25-1.13-.29,0,0,.02-.03-.04-.04-.7-.17-1.4-.31-2.09-.53-.11-.05-.28-.09-.37-.16,0-.03,0-.07.02-.08.2-.05,3.6,0,4.2,0Z"/>
                <path class="cls-33" d="M17.33,4.44c-.23.01-.68-.25-1.17-.37-.46-.11-.92-.18-1.39-.16-.32-.2-.72-.24-1.09-.33.36.04.84.06,1.13.29.88-.12,1.71.32,2.52.57Z"/>
                <path class="cls-8" d="M16.23,2.76c0,.2.26.24.29.43.12.77-1.01.03-1.11-.43.27,0,.55,0,.82,0Z"/>
              </g>
            </g>
            <g>
              <path class="cls-41" d="M7.73,1.53c.34-.06,1.82.05,2.42,0,.31.13.69.94.63,1-1.24.13-2.56.15-3.71.72-.11-.04-.25-1.55.66-1.72Z"/>
              <path class="cls-38" d="M7.65,2.06c.45-.13.34.61-.04.49-.2-.06-.14-.44.04-.49Z"/>
            </g>
            <path class="cls-10" d="M17.05,7.43c.04.58-.12.18-.31.25-.13.04-.02.16-.02.16-.11.81-1.01.4-.61-.06-.03-.07-.5-.01-.37-.37.06-.17,1.18-.27,1.31.02Z"/>
            <path class="cls-27" d="M19.22,7.63c-.1-.08.01-.52-.06-.57h-.98c-.12.11.09,0,.18.45-.03-.14-.44-.4-.23-.49,1.12.05,1.14-.25,1.09.61Z"/>
            <g>
              <path class="cls-16" d="M18.77,6.03s.02-.03-.04-.04c-.18-.04-1.41-.26-1.43-.35-.04-.17.32-.04.41-.16.19-.27-.37-.73.84-.55.93.14.75.32.76,1.17l-.53-.06Z"/>
              <path class="cls-23" d="M18.77,6.03l.53.06c0-.85.17-1.03-.76-1.17-1.21-.18-.65.29-.84.55-.09.13-.45,0-.41.16.02.08,1.25.3,1.43.35-.88-.04-2.24-.36-1.11-.59-.2-1.1,1.67-.42,1.72-.25v.98c-.05.13-.47-.08-.57-.1Z"/>
              <path class="cls-10" d="M18.05,5.09c.7.25,1.13.06,1,.68-.87-.24-1.39-.06-1-.68Z"/>
            </g>
            <g>
              <path class="cls-16" d="M15.35,4.23l1.39.25c.35,1.37-.36,1.03-1.56.78-.18-.12.09-.31.1-.39.07-.39-.06-.55.06-.63Z"/>
              <path class="cls-9" d="M15.55,4.6s.82.06.86.08c.05.02.36.62-.45.53-.61-.07-.45-.59-.41-.61Z"/>
            </g>
            <g>
              <path class="cls-16" d="M10.64,3.13c.08-.04,1.5.26,1.58.76.16,1.12-1.69.26-1.72-.04-.02-.2.37-.31.37-.37,0-.03-.48-.2-.23-.35Z"/>
              <path class="cls-10" d="M11.05,3.49c.06-.02,1.08.19.92.59-.11.27-1.01-.1-1.04-.14-.08-.13.07-.43.12-.45Z"/>
            </g>
            <path class="cls-16" d="M19.71,8.16c-.06.04-1.32.18-1.27-.14.04-.25,1.1-.15,1.37-.18.07.05-.04.29-.1.33Z"/>
            <g>
              <path class="cls-23" d="M14.22,5.13c.25-.08.41-.98-.23-1.15-.05-.01-.98-.11-1.02-.08-.06.04,0,.55-.02.59-.04.05-.22,0-.27.02-.65.31,1.07.76,1.54.61-.58.26-1.87-.23-1.8-.51.07-.3.59.1.45-.74.06-.16,1.2,0,1.37.1.27.17.4.96-.02,1.15Z"/>
              <path class="cls-16" d="M14.22,5.13c-.47.14-2.19-.3-1.54-.61.05-.02.23.03.27-.02.03-.04-.04-.55.02-.59.04-.03.97.07,1.02.08.63.17.48,1.07.23,1.15Z"/>
              <path class="cls-32" d="M13.3,4.19c.34-.03,1.11.08.8.59-.15.24-1.28.22-.8-.59Z"/>
            </g>
          </g>
        </g>
        <g>
          <path class="cls-12" d="M29.74,21.26s.04.05.04.08c-.2-.15-.09-.31-.14-.53-2.37.03-4.74-.02-7.1-.12,0-.53-.02-1.07.02-1.6,3.19-.13,6.31.93,6.37-3.46l1.04-.02c.05.35.13,2.72.06,2.85-.04.08-.3,0-.33.08-.05.13,0,2.4.04,2.72Z"/>
          <g>
            <path class="cls-13" d="M25.89,22.66c-.02,1.97,2.58,1.95,3.07.66.17.13.85.06.92.12.11.1-.12.35.1.45.15.07.29.03.45.08-.09.6.07.54.08.57.03.11.1.23.12.35.02.11-.04.15-.04.23h-8.05s-.02-.92-.02-1.06c1.92.59,3.2-.36,1.6-.45v-.08c.35-.1.7-.55.74-.9l1.02.04Z"/>
            <path class="cls-31" d="M29.78,21.35c.08.06.18.02.2.06.06.11-.05,2.15,0,2.48-.22-.1,0-.35-.1-.45-.07-.06-.75.01-.92-.12.97-2.54-3.04-3.24-3.07-.66l-1.02-.04c.12-1.02-.9-1.79-1.8-1.23.03-.25-.34-.2-.53-.2,0-.16,0-.33,0-.49,2.37.1,4.73.16,7.1.12.06.23-.06.38.14.53Z"/>
            <path class="cls-25" d="M24.13,23.6c1.6.09.32,1.04-1.6.45,0-.18,0-.35,0-.53.19-.16.53.1.76.12.38.03.69-.05.84-.04Z"/>
            <path class="cls-13" d="M23.07,21.39c-.9.56-.44,2.54,1.06,2.13v.08c-.15,0-.46.07-.84.04-.23-.02-.57-.28-.76-.12,0-.78,0-1.56,0-2.33.19,0,.56-.04.53.2Z"/>
          </g>
          <g>
            <path class="cls-32" d="M24.87,22.62c-.04.36-.38.81-.74.9-1.5.41-1.97-1.57-1.06-2.13.9-.56,1.92.2,1.8,1.23Z"/>
            <path class="cls-8" d="M23.54,21.88c.87-.19.81,1.32-.08.94-.4-.17-.31-.86.08-.94Z"/>
          </g>
          <g>
            <path class="cls-32" d="M28.96,23.31c-.49,1.29-3.09,1.32-3.07-.66.03-2.58,4.04-1.88,3.07.66Z"/>
            <g>
              <path class="cls-15" d="M27.43,21.96c.8-.05,1.06,1.27.2,1.39-1.02.14-1.08-1.33-.2-1.39Z"/>
              <path class="cls-18" d="M27.43,22.17c.67-.08.85.88.25.98-.74.13-.85-.91-.25-.98Z"/>
            </g>
          </g>
        </g>
        <g>
          <path class="cls-31" d="M11.56,20.45c0,.72-.03,1.45-.04,2.17h-.12c.35-1.82-2.21-1.97-2.17-.2h-.9c-.32-2.29-4.12-1.59-3.15,1.02l-1.15.04c.01-.22-.1-1.83-.04-1.9.08-.11.18-.04.2-.08.02-.03,0-.52,0-.63h2.31c.98.24,2,.17,3.01.16.26,0,1.87.1,1.94.04.03-.03.05-.33-.04-.37-.05-.02-.59,0-.76,0,.18-.1.73,0,.8-.04.09-.06-.11-.25.1-.2Z"/>
          <path class="cls-31" d="M5.26,23.64s.19.24.2.25l-1.47.04c.01-.05.04-.24.04-.29h1.23Z"/>
          <path class="cls-13" d="M5.26,23.64h-1.23s0-.08,0-.16l1.15-.04s.08.2.08.2Z"/>
          <g>
            <path class="cls-4" d="M5.13,16.68c.19,1.22,1.24,2.28,2.48,2.42.81.09,2.88-.06,3.93,0,.04.45.02.9.02,1.35-.22-.05-.01.15-.1.2-.07.04-.62-.06-.8.04-.37-.02-.74-.03-1.11-.04-1.14-.03-2.26.04-3.4-.04,0,0-.06-.1-.14-.12-2.04-.08-1.74.42-1.74-1.41.15-.08,1.12.05,1.17.02.6-.36-1.09-.2-1.15-.25-.05-.04.02-.14-.06-.25-.11-.13-.22-.13-.25-.18-.05-.13.04-2.28,0-2.74l1.04-.06c.12.2.03.57.1,1.06Z"/>
            <path class="cls-21" d="M6.16,20.61s.09.17.02.2c-.08.04-1.62-.1-1.86.04h-.12c.04-.75.05-1.5.04-2.25.08.1,0,.21.06.25.06.04,1.75-.11,1.15.25-.05.03-1.02-.1-1.17-.02,0,1.83-.3,1.33,1.74,1.41.08.03.13.12.14.12Z"/>
            <path class="cls-26" d="M9.56,20.65c.02.19-.43.24-.04.37-1.01,0-2.03.07-3.01-.16h-2.19c.25-.14,1.78,0,1.86-.04.07-.03-.03-.16-.02-.2,1.14.08,2.26.02,3.4.04Z"/>
            <path class="cls-40" d="M10.66,20.69c.16,0,.71-.02.76,0,.09.04.08.34.04.37-.07.06-1.68-.04-1.94-.04-.39-.12.06-.18.04-.37.37,0,.74.02,1.11.04Z"/>
          </g>
          <g>
            <path class="cls-25" d="M9.23,22.41c.03,1.38,1.93,1.48,2.17.2h.12c0,.29.05,2.45-.06,2.5H3.33c.02-.2.06-.32.16-.49.05-.04.11-.08.16-.12.01,0,.1.03.16-.06.06-.11.03-.21.04-.23.03-.07.06-.17.08-.25,0,0,.03.02.04-.04l1.47-.04c.84.71,3.14.53,2.87-1.47h.9Z"/>
            <path class="cls-13" d="M9.74,24.13l1.68.04.02.88-1.9.02c-.06-.04.06-.89.2-.94Z"/>
            <path class="cls-19" d="M3.66,24.5l.2-.29s.02.12-.04.23c-.06.09-.15.05-.16.06Z"/>
          </g>
          <g>
            <path class="cls-32" d="M11.4,22.62c-.24,1.27-2.14,1.18-2.17-.2-.04-1.77,2.52-1.61,2.17.2Z"/>
            <path class="cls-8" d="M10.23,21.88c.88-.21.8,1.17,0,.98-.44-.1-.42-.88,0-.98Z"/>
          </g>
          <g>
            <path class="cls-32" d="M8.33,22.41c.28,2-2.03,2.18-2.87,1.47-.01-.01-.2-.23-.2-.25,0,0-.07-.17-.08-.2-.96-2.61,2.83-3.31,3.15-1.02Z"/>
            <g>
              <path class="cls-15" d="M6.55,21.96c.68-.11,1.17.89.53,1.27-1.04.61-1.45-1.12-.53-1.27Z"/>
              <path class="cls-37" d="M6.55,22.12c.78-.15.88.93.25,1.02-.75.1-.83-.91-.25-1.02Z"/>
            </g>
          </g>
        </g>
      </g>
    </g>
  </g>
</svg>