<?xml version="1.0" encoding="UTF-8"?>
<svg id="Layer_2" data-name="Layer 2" xmlns="http://www.w3.org/2000/svg" xmlns:xlink="http://www.w3.org/1999/xlink" viewBox="0 0 40.41 41.87">
  <defs>
    <style>
      .cls-1 {
        fill: #101729;
      }

      .cls-1, .cls-2, .cls-3, .cls-4, .cls-5, .cls-6, .cls-7, .cls-8 {
        stroke-width: 0px;
      }

      .cls-9 {
        letter-spacing: -.01em;
      }

      .cls-10 {
        letter-spacing: 0em;
      }

      .cls-2 {
        fill: url(#linear-gradient);
      }

      .cls-3 {
        fill: #c5a2bb;
      }

      .cls-4 {
        fill: #07314e;
      }

      .cls-5 {
        fill: #d4becb;
      }

      .cls-11 {
        fill: #231f20;
        font-family: MyriadPro-Regular, 'Myriad Pro';
        font-size: 1.23px;
      }

      .cls-6 {
        fill: #242854;
      }

      .cls-7 {
        fill: #025376;
      }

      .cls-8 {
        fill: #ae93b4;
      }
    </style>
    <linearGradient id="linear-gradient" x1="21.08" y1="35.59" x2="21.21" y2="41.5" gradientUnits="userSpaceOnUse">
      <stop offset="0" stop-color="#0b2232"/>
      <stop offset="1" stop-color="#131935"/>
    </linearGradient>
  </defs>
  <g id="Layer_1-2" data-name="Layer 1">
    <g>
      <g>
        <path class="cls-1" d="M33.45,12.71c.63,0,1.27.1,1.9.05.04,1.93-.05,3.88,0,5.81.03.21-.56.03-1.03.13v1c-.37.02-.73.09-1.11.05l-.03,1.82-.98.1-.03,1.05c-.46-.03-.9.08-.85-.1.01-.72-.01-1.44,0-2.16,0-.59,0-1.18,0-1.77l1.85-.1.05-5.76c-.55-.05-1.1-.02-1.64-.03-1.52-.02-3.05,0-4.58,0-.21,0-.41,0-.62,0-.55,0-1.1,0-1.64,0-.66,0-1.32,0-1.98,0l-.03,1.36-.98.05c.06,3.61.05,7.21.05,10.82,0,3.39,0,6.79,0,10.18-.97,0-1.96.11-2.93.05,0-.03,0-.07,0-.1,0-.02,0-.03,0-.05l2.83-.03q-.03-10.44-.05-20.87c.89-.6,1.12.61,1.03-1.44l.39-.13c3.45.1,6.91.03,10.36.05Z"/>
        <path class="cls-1" d="M36.23,18.67s.04,0,.1.13v1.85l1.13.1v3.7l1.23.05v2.24c.02.23-.75.11-1.18.1-.11,0-.11-.05-.15-.05-.13-2.43.62-2.19-1.08-2.34v-3.7l-.87-.05c0-.37.01-.74,0-1.11-.01-.31,0-.62,0-.93h.82Z"/>
        <path class="cls-3" d="M38.85,26.9c-.26.04.03,1.09-.18,1.18h-1.23c-.02-.41-.11-1.07.08-1.23.44,0,1.2.13,1.18-.1l.15.15Z"/>
        <g>
          <path class="cls-1" d="M30.52,22.73h.77c-.01,1.37,0,2.74,0,4.11-.22,0-1.59-.05-1.64.08l.08,1.21h1.52c.03,1.32-.04.98,1.67,1.03.1-.05.19-.98-.13-1.03h3.26l.08-1.21c.03-.07,1.08-.13,1.23-.13.04,0,.04.05.15.05-.19.16-.09.82-.08,1.23h1.23c.21-.09-.08-1.14.18-1.18l1.54.03c-.05.28.06,2.02,0,2.11-.07.09-.75-.07-.82.1,0,.57,0,1.15,0,1.72l-2.13.05-.05,1.54h-6.07l-.1-1.54-2.18-.08v-1.7l-.95-.03c-.2-.11.03-1.9-.03-2.21l.72-.13c-.04-.54.03-1.08.05-1.62.13-.02.78.04.82-.03.07-.1-.05-2.03,0-2.34.28,0,.58-.1.87-.05Z"/>
          <path class="cls-1" d="M31.4,26.9c.44.02.88-.01,1.31,0l.08,1.23c.32.05.23.98.13,1.03-1.72-.05-1.64.29-1.67-1.03,0-.19.05-1.3.15-1.23Z"/>
        </g>
      </g>
      <g>
        <path class="cls-5" d="M36.59,8.29l-.05,3.93c-.06.08-1-.01-1.05.03-.07.05,0,.32-.03.41-.03.08-.1.02-.1.1-.63.05-1.27-.05-1.9-.05l.08-1.75,1.93.03v-1.64l-.1-.03c-.34,0-.69,0-1.03,0-.31,0-.79.05-.82-.03v-1.72c.08,0,.04-.1.08-.1.62,0,1.23,0,1.85,0l.15.82c.3-.03.72.02,1,0Z"/>
        <path class="cls-5" d="M22.81,3.04c0,1.11-.09,2.17,0,3.29l-.98-.08V.11c.13-.18.65-.1.98-.08,0,1,0,2,0,3.01Z"/>
        <path class="cls-3" d="M32.17,39.85c-1.62-.03-3.24.02-4.86,0-.05-.04-.02-.83-.03-.98,1.61-.19,3.24-.07,4.86-.1l.03,1.08Z"/>
        <path class="cls-5" d="M16.39,35.28v1.72l-1.98.03-.03,1.77s-.75.03-.87.03c0,0-.1-.1-.1-.1.05-.3-.05-.63-.05-.93,0-.43.09-.9.08-1.34,1.36.12.73-.3.98-.41.1-.04.97.04,1.03,0,.09-.07-.07-.75.1-.82.28-.05.58.05.85.05Z"/>
        <path class="cls-5" d="M27.34,37.8c0,.33-.06.68-.05,1.03-1.46.09-.83,0-1-1.8l-1.82-.08v-1.62c.05,0,.03-.19.95-.05-.13,1.4.62.61.93.82.15.11-.4.47.93.36.06.03.07,1.18.08,1.34Z"/>
        <path class="cls-3" d="M13.51,38.82c-.21-.03-.03.56-.13,1.03-.9,0-1.8-.01-2.7,0l.03-1.08c.9.06,1.81-.06,2.7-.05,0,0,.1.1.1.1Z"/>
        <g>
          <path class="cls-6" d="M21.73.01c-.03.48.16,3.37,0,3.52-.1.09-.85.08-1.05.08.05,1.4-.13.67-1.82.93.02-1.49-.01-2.98,0-4.47.96-.03,1.92-.09,2.88-.05Z"/>
          <path class="cls-4" d="M35.36,9.32l.03,1.54c-.72.04-1.47-.1-2.16.1l-.03-1.52c.49-.1,1.15.09,1.13-.13.34,0,.69,0,1.03,0Z"/>
          <g>
            <path class="cls-1" d="M21.84.11v6.14l.98.08c.03.4.06.79.08,1.18.83,0,1.66,0,2.49,0,2.7.02,5.42.06,8.12.05v1.72c.03.08.51.02.82.03.02.22-.64.03-1.13.13l.03,1.52c.69-.21,1.44-.06,2.16-.1l-.03-1.54.1.03v1.64l-1.93-.03-.08,1.75c-3.45-.02-6.91.05-10.36-.05l-.39.13c.1,2.05-.14.84-1.03,1.44q.03,10.44.05,20.87l-2.83.03c.02-6.95-.02-13.9,0-20.85l-.98-.15c-.02-.4.02-.81,0-1.21,0-.01.12-.06-.03-.26q-5.27.03-10.54.05l-.03-1.62s-.09-.02-.1-.03c0,0,.02-.09-.03-.1-.25,0-.5.01-.75,0,0-.05.05-.05.05-.1,1.19.16.85.1.93-1.41-.11-.14-.16-.12-.21-.13v-1.8c2.67.01,5.35.02,8.02,0,.34,0,.69,0,1.03,0,.54,0,1.08,0,1.62,0l.03-1.18c.14,0,.89.02.93-.03,0-.59,0-1.18,0-1.77,1.69-.25,1.87.47,1.82-.93.2,0,.96.02,1.05-.08.16-.15-.03-3.04,0-3.52l.1.1Z"/>
            <text class="cls-11" transform="translate(7.57 10.3)"><tspan class="cls-9" x="0" y="0">L</tspan><tspan x=".56" y="0">o</tspan><tspan class="cls-10" x="1.24" y="0">r</tspan><tspan x="1.63" y="0">em ipsum </tspan></text>
            <path class="cls-5" d="M24.38,9.42h8.69l.08,1.47-8.82.03.05-1.49Z"/>
            <path class="cls-8" d="M19.47,11.89c-.05-.33.04-.66.05-.98h1.67l.08-1.67.95-.03.03,2.6c-.06.13-2.46.09-2.78.08Z"/>
            <path class="cls-5" d="M19.52,10.91c-.01.32-.1.65-.05.98-.29,0-.92.06-.98-.08v-2.57h1.03c-.01.56.02,1.12,0,1.67Z"/>
          </g>
        </g>
        <g>
          <path class="cls-5" d="M5.49,7.47c.57-.07,1.18.05,1.75.05v1.8c-.1-.03-.5,0-.72,0-.17,0-1.35-.03-1.39.03v1.59c.04.06,1.15.02,1.34.03.25.01.5,0,.75,0,.05.02.02.09.03.1l-.03,1.7c-.48-.04-1.54.06-1.82,0-.64-.14.39-.61-1.29-.54v-4.04c1.62,0,.9-.24,1.08-.64.05-.12.22-.07.31-.08Z"/>
          <g>
            <path class="cls-7" d="M6.52,9.32c-.04.48.05,1.09,0,1.54,0,.05-.05.06-.05.1-.18,0-1.3.03-1.34-.03v-1.59c.04-.06,1.21-.03,1.39-.03Z"/>
            <path class="cls-4" d="M7.24,9.32s.09-.02.21.13c-.08,1.52.27,1.57-.93,1.41.05-.46-.04-1.06,0-1.54.22,0,.62-.03.72,0Z"/>
          </g>
        </g>
        <g>
          <path class="cls-5" d="M21.94,35.28c-.23.24-.02,1.16-.13,1.75h-2.88c-.19-.08-.03-1.51-.03-1.75.97.06,1.96-.05,2.93-.05.14,0,.1.05.1.05Z"/>
          <g>
            <path class="cls-6" d="M9.91,39.85v1.88l-1.18.08-.05-1.88c.06-.13,1.02-.07,1.23-.08Z"/>
            <path class="cls-6" d="M33.56,39.85l-.03,1.9-1.05-.03c.05-.6-.11-1.39.1-1.88.33,0,.65,0,.98,0Z"/>
            <g>
              <path class="cls-2" d="M18.91,35.28c0,.24-.16,1.66.03,1.75h2.88c.11-.59-.11-1.51.13-1.75.26,0,.51,0,.77,0,.58,0,1.17.05,1.75.05v1.62l1.82.08c.17,1.8-.46,1.89,1,1.8,0,.02,0,.03,0,.05,0,.14-.03.94.03.98,1.62.02,3.24-.03,4.86,0,.14,0,.27,0,.41,0-.22.48-.05,1.28-.1,1.88l1.05.03.03-1.9.1.08-.03,1.88c-2.54-.04-5.09.03-7.63.05-2.64.02-5.28,0-7.92,0-3.12-.01-6.24-.1-9.36-.05l1.18-.08v-1.88c.26,0,.51,0,.77,0,.9-.01,1.8,0,2.7,0,.09-.47-.08-1.06.13-1.03.13,0,.84.02.87-.03l.03-1.77,1.98-.03v-1.72c.53,0,1.06,0,1.59,0,.35,0,.74.06.93-.1,0,.03,0,.07,0,.1Z"/>
              <path class="cls-5" d="M22.68,38l1.57.08-.08,1.77-1.57-.08.08-1.77Z"/>
              <path class="cls-5" d="M16.57,38l1.52.08-.03,1.77-1.57-.03.08-1.82Z"/>
            </g>
          </g>
        </g>
        <path class="cls-5" d="M8.27,13.79v.26c.03,1.2-.04,2.4,0,3.6,0,.14-.03.89.03.93.43-.04.95.1,1.11-.1-.03.2,0,.1-.15.21l-1.85.03v2.88c1.63-.11.74.49.98,1.03l.98.15v4.09c-.21,0-1.17-.06-1.23.08l-.03,1.21H3.97c-.13-1.2.31-1.32-.69-1.31l.05-4.27,1.95-.05.05-3.14c1.6.13.75-.62,1-.8.08-.06.93.09,1-.08.04-1.72-.05-3.45.05-5.17.04.72.26.4.87.46Z"/>
        <g>
          <path class="cls-5" d="M1.69,22.53v3.62s-.68.04-.77.03c0,0-.14-.1-.1-.15.08-.8-.07-1.66-.05-2.47,0-.33.09-.67.05-1,.04-.06.74-.02.87-.03Z"/>
          <path class="cls-1" d="M9.24,18.67l.1.1c0,.36,0,.72,0,1.08l-.93.03c.02.17-.03.83,0,.87.05.07.74,0,.87.03,0,.62.1,1.25.05,1.88.04.05.78.02.93.03.91.04.63.1.67.1v4.04c-.04.06-1.29.02-1.49.03-.03,0-.07,0-.1,0v-4.09l-.98-.15c-.24-.54.65-1.13-.98-1.03v-2.88l1.85-.03Z"/>
          <path class="cls-5" d="M11.86,25.92c0,.34-.15.69.05.98-.13-.01-.95-.01-.98.03l-.08,1.21h-1.44c-.11-.05-.14-1.12.03-1.29.2,0,1.45.04,1.49-.03v-4.04s.28-.23.93-.08c-.01,1.07.02,2.14,0,3.21Z"/>
          <g>
            <path class="cls-1" d="M17.93,12.91c-.19-.18-1.33-.1-2-.1-.26,0-.51,0-.77,0-2.29,0-4.6-.06-6.89,0-.28,0-.57,0-.85,0-.05.04-.02.42-.03.51-.1,1.71-.01,3.45-.05,5.17-.08.17-.92.02-1,.08-.26.18.6.93-1,.8l-.05,3.14-1.95.05-.05,4.27c1-.01.56.11.69,1.31h4.11l.03-1.21c.06-.13,1.02-.07,1.23-.08.03,0,.07,0,.1,0-.17.17-.14,1.23-.03,1.29h1.44l.08-1.21s.85-.04.98-.03c.08,0,.37-.03.41.03v2.26l-.72.05-.05,1.62c-.7.03-1.38.08-2.08.05l-.1,1.54H3.36l-.03-1.52-2.18-.08-.03-1.77c-1.46.07-1.12-.09-1-2.24,1.12.1.47-.28.8-.67.09.02.75,0,.77-.03v-3.62c.28-.02.71.06.77-.08.01-.5-.02-1,0-1.49,0-.04.1-.02.1-.03.13-.02.72.04.77-.03.07-.1-.05-2.17,0-2.49.14-.01.76-.03.8-.05.08-.05-.03-.56.05-.62.08-.06,1.03.1,1.11-.08.07-.94-.09-4.52,0-4.88,0-.04.07-.03.1-.03.28.06,1.35-.04,1.82,0l.03-1.7s.09-.02.1.03l.03,1.62q5.27-.03,10.54-.05c.15.19.02.24.03.26Z"/>
            <path class="cls-5" d="M1.81,26.85h1.39l.08,1.21-1.47.08v-1.29Z"/>
          </g>
        </g>
        <path class="cls-3" d="M36.23,18.67h-.82c0-.14-.05-.1-.05-.1-.05-1.93.04-3.87,0-5.81,0-.08.08-.02.1-.1l.72.13c.08,1.95-.04,3.93.05,5.89Z"/>
        <path class="cls-5" d="M10.27,22.68c-.14,0-.89.03-.93-.03.05-.62-.04-1.26-.05-1.88,0-.3.06-.62.05-.93,0-.36,0-.72,0-1.08.05-.16.87-.15.93-.03v3.93Z"/>
        <path class="cls-8" d="M9.35,19.85c0,.31-.05.63-.05.93-.14-.02-.83.04-.87-.03-.03-.04.02-.7,0-.87l.93-.03Z"/>
      </g>
      <path class="cls-5" d="M3.33,18.42c-.05.32.07,2.39,0,2.49-.05.07-.64,0-.77.03.03-.81-.13-1.65-.05-2.47.26,0,.56-.03.82-.05Z"/>
    </g>
  </g>
</svg>