<?xml version="1.0" encoding="UTF-8"?>
<svg id="Layer_2" data-name="Layer 2" xmlns="http://www.w3.org/2000/svg" xmlns:xlink="http://www.w3.org/1999/xlink" viewBox="0 0 39.38 23.19">
  <defs>
    <style>
      .cls-1 {
        fill: #12121a;
      }

      .cls-1, .cls-2, .cls-3, .cls-4, .cls-5, .cls-6, .cls-7, .cls-8, .cls-9, .cls-10, .cls-11, .cls-12, .cls-13, .cls-14, .cls-15, .cls-16, .cls-17, .cls-18, .cls-19, .cls-20, .cls-21, .cls-22, .cls-23, .cls-24, .cls-25, .cls-26, .cls-27, .cls-28, .cls-29, .cls-30, .cls-31, .cls-32, .cls-33, .cls-34, .cls-35, .cls-36, .cls-37, .cls-38, .cls-39, .cls-40, .cls-41, .cls-42, .cls-43, .cls-44, .cls-45, .cls-46, .cls-47, .cls-48, .cls-49, .cls-50, .cls-51, .cls-52, .cls-53, .cls-54, .cls-55, .cls-56, .cls-57, .cls-58, .cls-59, .cls-60, .cls-61, .cls-62, .cls-63, .cls-64, .cls-65, .cls-66, .cls-67, .cls-68, .cls-69, .cls-70, .cls-71, .cls-72, .cls-73, .cls-74, .cls-75 {
        stroke-width: 0px;
      }

      .cls-2 {
        fill: #e533b8;
      }

      .cls-3 {
        fill: #00b58d;
      }

      .cls-4 {
        fill: #009400;
      }

      .cls-5 {
        fill: #33a65f;
      }

      .cls-6 {
        fill: #698400;
      }

      .cls-7 {
        fill: #00d8b2;
      }

      .cls-8 {
        fill: url(#linear-gradient);
      }

      .cls-9 {
        fill: #d800bd;
      }

      .cls-10 {
        fill: #387b44;
      }

      .cls-11 {
        fill: #009000;
      }

      .cls-12 {
        fill: #005e00;
      }

      .cls-13 {
        fill: #e529ff;
      }

      .cls-14 {
        fill: #007100;
      }

      .cls-15 {
        fill: #48bb9f;
      }

      .cls-16 {
        fill: #fe6a54;
      }

      .cls-17 {
        fill: #ff61db;
      }

      .cls-18 {
        fill: #5c7da2;
      }

      .cls-19 {
        fill: #ffa454;
      }

      .cls-20 {
        fill: #ffcd61;
      }

      .cls-21 {
        fill: #9d0062;
      }

      .cls-22 {
        fill: #00287c;
      }

      .cls-23 {
        fill: #171e33;
      }

      .cls-24 {
        fill: #f17645;
      }

      .cls-25 {
        fill: #c4003c;
      }

      .cls-26 {
        fill: #0034ba;
      }

      .cls-27 {
        fill: #ff9992;
      }

      .cls-28 {
        fill: #fff380;
      }

      .cls-29 {
        fill: #ffe8bb;
      }

      .cls-30 {
        fill: #290080;
      }

      .cls-31 {
        fill: #0055e1;
      }

      .cls-32 {
        fill: #0000be;
      }

      .cls-33 {
        fill: #880052;
      }

      .cls-34 {
        fill: #3800af;
      }

      .cls-35 {
        fill: #f9b96b;
      }

      .cls-36 {
        fill: #212123;
      }

      .cls-37 {
        fill: #f246d7;
      }

      .cls-38 {
        fill: #f405b6;
      }

      .cls-39 {
        fill: #60c8cf;
      }

      .cls-40 {
        fill: #008ee0;
      }

      .cls-41 {
        fill: #6300c8;
      }

      .cls-42 {
        fill: #1eba3e;
      }

      .cls-43 {
        fill: #004f00;
      }

      .cls-44 {
        fill: #9100a4;
      }

      .cls-45 {
        fill: #006ed7;
      }

      .cls-46 {
        fill: #ff99f0;
      }

      .cls-47 {
        fill: #003800;
      }

      .cls-48 {
        fill: #00c8c5;
      }

      .cls-49 {
        fill: #8cc275;
      }

      .cls-50 {
        fill: #006b00;
      }

      .cls-51 {
        fill: #ff5bff;
      }

      .cls-52 {
        fill: #b2006e;
      }

      .cls-53 {
        fill: #006ea3;
      }

      .cls-54 {
        fill: #31ad3e;
      }

      .cls-55 {
        fill: #ff518a;
      }

      .cls-56 {
        fill: #00a300;
      }

      .cls-57 {
        fill: #0f6f34;
      }

      .cls-58 {
        fill: #003d00;
      }

      .cls-59 {
        fill: #8a0017;
      }

      .cls-60 {
        fill: #006100;
      }

      .cls-61 {
        fill: #008100;
      }

      .cls-62 {
        fill: #006200;
      }

      .cls-63 {
        fill: #f20b41;
      }

      .cls-64 {
        fill: #ff7b4e;
      }

      .cls-65 {
        fill: #007000;
      }

      .cls-66 {
        fill: #007f00;
      }

      .cls-67 {
        fill: #00d582;
      }

      .cls-68 {
        fill: #009d00;
      }

      .cls-69 {
        fill: #300a25;
      }

      .cls-70 {
        fill: #b400a0;
      }

      .cls-71 {
        fill: #6c915a;
      }

      .cls-72 {
        fill: #5f0032;
      }

      .cls-73 {
        fill: #ff82ff;
      }

      .cls-74 {
        fill: #ff8870;
      }

      .cls-75 {
        fill: #fff455;
      }
    </style>
    <linearGradient id="linear-gradient" x1="-50.59" y1="24.47" x2="-46.84" y2="25.27" gradientTransform="translate(72.14 -4.55) rotate(7.95)" gradientUnits="userSpaceOnUse">
      <stop offset="0" stop-color="#00a66c"/>
      <stop offset="1" stop-color="#009500"/>
    </linearGradient>
  </defs>
  <g id="Layer_1-2" data-name="Layer 1">
    <g>
      <path class="cls-62" d="M26.44,15.03c.17.02.34.05.51.07.15.12-.07.96-.12,1.5-.03.34-.06.69-.08,1.03.35.1.74.05,1.09.11.19.03,1.2.27,1.29.22l.15-.94s.05-.04.09-.03c.25.05.51.06.77.11-.05.3-.08.61-.13.92l-.82-.03c-.05.31-.08.61-.13.92-.46-.05-.91-.1-1.37-.15-.36-.03-.72-.11-1.09-.15q-.06.51-.12,1.03c-.94-.13-1.88-.23-2.82-.35-.26-.03-.53-.12-.8-.16l.1-.75c-.03-.12-.56-.13-.8-.18l.1-.72.12-.85s.06,0,.09.01c.24.02.63.14.69.03.08-.24.03-.51.06-.75,0-.03.13-.34.13-.59.31-.03.59.09.9.12.08,0,.39.08.43.04l.12-.7c.3.08.62.05.92.09.23.03.48.12.72.14Z"/>
      <path class="cls-72" d="M6.28,20.91c2.76.41,5.54.82,8.31,1.16l-.18.97c-1.81-.22-7.16-.92-8.63-1.21-.03,0,0-.09,0-.09q.06-.43.12-.85s0-.05.39.01Z"/>
      <path class="cls-1" d="M28.93,19.94c.77.11,1.56.3,2.33.41-.05.24-.05.49-.1.72-.02.07-.02.31-.07.34q-3.77-.53-7.55-1.05l.13-1.07c.94.12,1.88.22,2.82.35.35.05.72.06,1.07.11.45.06.91.13,1.36.19Z"/>
      <path class="cls-66" d="M4.03,3.69l-.05.82,2.82.35-.15,1.26c.03.05,1.04.17,1.19.19l-.12.85-.05.04c-.36-.04-.71-.11-1.07-.15-.27-.03-.54-.07-.81-.11-.04,0-.09-.01-.13-.02.03-.27.09-.54.11-.81.02-.18.07-.37.06-.56-.07-.07-.63-.04-.75-.06-.42-.07-.84-.2-1.27-.22.12-.8.32-.86-.88-.86-.14,0-.3-.09-.39.01.02.28-.03.56-.07.84l-1.15-.16c.04-.28.07-.53.11-.81l1.05.1c.05-.03.12-.76.15-.89.47.06.94.14,1.41.2Z"/>
      <path class="cls-47" d="M2.46,5.25c-.06.37-.06.75-.11,1.11-.09.62-.17,1.26-.26,1.88-.05.3-.12.63-.17.93-.04.25-.15.5-.15.76l-1.11-.15c.22-1.56.43-3.13.65-4.69l1.15.16Z"/>
      <path class="cls-66" d="M7.09,1.38c.15.14-.02.52-.03.84l-.88-.06-.13.79-.82-.07-.12.9-1.03-.12c.05-.3.08-.6.12-.9.04-.22.06-.44.09-.66,0-.03.09,0,.09,0l.94.11.13-.96c.25.02.53,0,.78.02.28.02.57.09.85.12Z"/>
      <path class="cls-1" d="M20.68,16.44l-.09.81.96.13c-.01.11-.12.69-.08.73.23.04.47.06.7.1.24.04.77.06.8.18l-.1.75s-.03,0-.04,0c-.24-.03-.48-.07-.72-.1-.64-.08-1.28-.15-1.92-.23-.01,0-.03,0-.04,0,.08-.26.04-.56.07-.82,0-.05.13-.34.14-.7-.07-.13-.33-.1-.59-.15-.17-.03-.34-.04-.51-.07l-.07-.1c.9.26.67.19.87-.62.11.02.09-.03.09-.03.4.06.52.12.55.12Z"/>
      <path class="cls-72" d="M1.48,11.68h.04c-.08.68-.19,1.34-.28,2.01l-1.07-.15s-.08-.04-.08-.08c.07-.64.22-1.26.31-1.89l1.07.11Z"/>
      <path class="cls-23" d="M38.44,14.36c-.1.68-.18,1.37-.29,2.05l-1.11-.15c.06-.31.12-.61.17-.93.06-.37.1-.74.15-1.11.35.05.71.1,1.07.15Z"/>
      <path class="cls-29" d="M19.39,4.18q-.03.39-.06.77c-.23-.04-.46-.06-.68-.1-.03,0-.06,0-.09-.01l.12-.83c-.13-.1-.49-.05-.51-.05-.14-.03-.27-.08-.42-.1-.23-.03-.45-.06-.68-.1,0-.06-.04-.05-.04-.05.03-.31.09-.62.13-.94.34.07.7.08,1.04.15q0,.48,0,.96c.42,0,.79.24,1.2.3Z"/>
      <path class="cls-72" d="M20.13,18.8s.03,0,.04,0l-.22,1.14-1.09-.15c.04-.19.02-.96.11-1.09.22-.09.74.05,1.16.1Z"/>
      <path class="cls-29" d="M4.2,2.75c-.05.3-.08.6-.12.9l-.05.04c-.47-.06-.94-.14-1.41-.2.07-.31.14-.62.19-.93l1.39.19Z"/>
      <path class="cls-29" d="M38.29,7.03c-.34-.06-.68-.08-1.02-.14-.21-.04-.24-.08-.25-.08l.14-.98c.4.07.81.1,1.22.17.11.07-.05.7-.08,1.03Z"/>
      <g>
        <path class="cls-60" d="M15.17,1.42l-.14.98c-2.59-.41-5.24-.8-7.85-1.05q.07-.47.13-.94s0-.09.03-.08c1.62.15,5.98.8,7.82,1.09Z"/>
        <path class="cls-1" d="M16.14,2.55c-.17-.03-.34-.04-.51-.07-.2-.03-.4-.05-.6-.08l.14-.98c.38.06.75.1,1.13.16l-.16.98Z"/>
      </g>
      <path class="cls-29" d="M36.45,19.64c-.02.13,0,.72-.07.79-.05.06-.42-.08-.47-.02-.12.13.2.78-.62.41.08-.43.11-.87.22-1.29l.94.11Z"/>
      <path class="cls-72" d="M38.16,16.4c-.05.3-.07.62-.13.92,0,.03-.09,0-.09,0-.28,0-.78-.15-.98-.14-.14-.28.03-.65.09-.94l1.11.15Z"/>
      <path class="cls-29" d="M3.3,18.23c-.04.28-.07.57-.12.85-.38-.06-.75-.1-1.13-.16l.1-.9c.11.05.95.17,1.15.2Z"/>
      <path class="cls-30" d="M38.58,13.38c-.05.33-.09.65-.14.98-.35-.05-.71-.1-1.07-.15.05-.31.09-.63.13-.94l1.07.11Z"/>
      <path class="cls-1" d="M15.61,22.25l-.15.94c-.35-.04-.7-.1-1.04-.15l.18-.97c.34.04.69.15,1.02.19Z"/>
      <path class="cls-26" d="M1.77,9.93s.03,0,.04,0c-.16.28-.08.61-.12.9-.04.28-.13.56-.16.85h-.04q.05-.43.1-.86l-1.04-.15c.04-.3.08-.6.12-.9l1.11.15Z"/>
      <path class="cls-62" d="M34.71,4.67l.6.08s0,.03,0,.04c-.04.23-.06.46-.1.68-.2-.03-.44-.02-.65-.05-.24-.03-.47-.11-.72-.14.04-.24.05-.68.17-.72l.7.1Z"/>
      <path class="cls-29" d="M1.24,13.69c-.04.27,0,.58-.08.86-.01,0-.03,0-.04,0-.36-.06-.73-.1-1.09-.15-.14-.45.14-.81.14-.85l1.07.15Z"/>
      <path class="cls-29" d="M5.46,1.23l-.13.96-.94-.11s-.13-.19.04-.93c.07-.12.7.06,1.03.08Z"/>
      <path class="cls-29" d="M39.23,8.12l-.98-.14-.04-.05c.03-.27.09-.54.11-.81.16-.15.63.03,1.01.05.13.23-.1.82-.11.94Z"/>
      <path class="cls-29" d="M1.34,16.44c.29.06.59.07.87.12.04.04-.08.65-.09.77l-1.22-.17.09-.77c.06.02.23.03.34.05Z"/>
      <path class="cls-29" d="M2.62,3.49c-.03.13-.09.86-.15.89l-1.05-.1c.02-.14.06-.89.15-.94.35.04.7.1,1.04.15Z"/>
      <path class="cls-29" d="M7.31.41q-.07.47-.13.94s-.05.03-.09.03c-.28-.03-.57-.1-.85-.12l.14-1c.38-.03.89.15.94.15Z"/>
      <path class="cls-14" d="M17.15,2.78c-.04.31-.1.62-.13.94-.31-.04-.63-.07-.94-.13l.18-.97c.3.05.59.11.89.17Z"/>
      <path class="cls-34" d="M1.48,11.68l-1.07-.11c.04-.3.08-.6.12-.9l1.04.15-.1.86Z"/>
      <path class="cls-29" d="M36.96,17.19c.21-.01.7.13.98.14,0,.04.13.04-.08.73l-1.17-.16c.04-.22.06-.44.09-.66.07-.08.12-.04.18-.04Z"/>
      <path class="cls-28" d="M21.23,3.48l-.12.87-.9-.1c.03-.15.03-.32.07-.47.02-.08.03-.4.08-.42.29.03.58.09.87.12Z"/>
      <path class="cls-74" d="M5.89,20.9q-.06.43-.12.85c-.14-.03-.8.03-.85-.14l.12-.87c.28.05.57.12.85.16Z"/>
      <path class="cls-20" d="M20.27,3.78c-.03.15-.04.31-.07.47-.04.26-.12.55-.16.8l-.69-.05-.04-.05q.03-.39.06-.77c.09.01.68.07.71.06.09-.05,0-.51.17-.45Z"/>
      <path class="cls-29" d="M22.19,2.83l.04.05q-.08.36-.17.72c-.25-.03-.5-.08-.75-.1-.13-.13-.01-.52.04-.78l.83.12Z"/>
      <path class="cls-1" d="M17.15,21.47c-.06.29-.07.59-.12.87-.04.04-.65-.08-.77-.09.14-.27.12-.82.16-.87.05-.05.61.08.73.08Z"/>
      <path class="cls-29" d="M35.27,20.87c-.04.25-.06.5-.1.75-.96.08-.78-.05-.66-.85l.77.11Z"/>
      <path class="cls-29" d="M22.83,19.13l-.11.79c-.97.11-.7-.13-.61-.89.24.03.48.07.72.1Z"/>
      <path class="cls-1" d="M18.7,20.38c-.06.29-.07.59-.12.87-.04.04-.62-.07-.73-.08.14-.27.12-.82.16-.87.05-.05.57.08.69.07Z"/>
      <path class="cls-67" d="M16.14,2.55s-.05.03.12.06l-.18.97c-.09-.02-.57-.06-.59-.1q.07-.5.14-1c.17.03.34.04.51.07Z"/>
      <path class="cls-46" d="M3.87,19.18s.03,0,.04,0l-.1.75c-1-.03-.74-.1-.62-.85.23.04.46.05.68.1Z"/>
      <path class="cls-29" d="M36.61,5.71c-.24-.03-.48-.07-.72-.1l.1-.75c1.21-.04.51.46.62.85Z"/>
      <path class="cls-28" d="M35.95,4.19l-.51-.07h-.09q.05-.4.11-.78l.67.16c-.05.7-.18.65-.18.69Z"/>
      <path class="cls-35" d="M35.46,3.34l-.11.77-.51-.07c.04-.25.08-.51.11-.77l.51.07Z"/>
      <path class="cls-43" d="M35.95,4.19s.15-.13,0,.63l-.65-.03s0-.03,0-.04c.03-.17.14-.41.13-.63l.51.07Z"/>
      <path class="cls-20" d="M16.42,14.24q-.08.4-.16.8c-.29-.03-.58-.09-.87-.12-.12.03-.14.6-.18.84l-.73-.04q-.06.44-.12.87c-.08,0-.44-.08-.47-.04l-.14.87-.92-.11-.2.99-1.19-.17q.06-.5.12-1l-.96-.16v-.09q.54.11,1.09.22c-.16.02-.17.6-.2.99l1.11.11q.07-.46.15-.91c-.47-.15.07,0,.15-.15.04-.07.05-.53.1-.72,1.08.15.8.06,1.01-.88l1.14.09.37-1.58c.09-.05.77.15.91.17Z"/>
      <path class="cls-29" d="M9.75,15.96l-.11.77v.04s0,.04-.08.08l-.95-.18s-.03.03-.03-.09c0-.29.11-.57.16-.85.73.03.96.22,1.01.23Z"/>
      <path class="cls-52" d="M9.64,16.77v-.04q.09-.38.18-.76l.77.11c-.03,1.14-.13.73-.94.69Z"/>
      <path class="cls-27" d="M15.21,15.77c-.05.28-.09.57-.12.85,0,.03,0,.06-.01.09-.24-.02-.48-.08-.72-.1q.06-.44.12-.87l.73.04Z"/>
      <path class="cls-32" d="M20.04,16.35c-.2.81.03.88-.87.62.03-.26.08-.51.11-.77.25.04.52.11.76.15Z"/>
      <path class="cls-29" d="M17.1,14.38l-.11.77c-.24-.03-.48-.08-.72-.1q.08-.4.16-.8c.1.01.56-.07.68.14Z"/>
      <path class="cls-27" d="M19.38,15.48c-.02.24-.07.48-.1.72-.2-.04-.41-.05-.62-.09-.04-.04.03-.35.04-.43.02-.27.09-.32.09-.34l.59.13Z"/>
      <path class="cls-2" d="M20.2,17.98c-.18-.03-.37-.05-.55-.08l.11-.77c.25.05.52.02.59.15-.01.35-.13.64-.14.7Z"/>
      <path class="cls-55" d="M19.76,17.14l-.11.77c-.23-.03-.49-.03-.55-.14l.14-.7c.17.03.34.04.51.07Z"/>
      <path class="cls-65" d="M33.75,5.92c-.04.22-.05.44-.09.66-.08.14-.63-.08-.71-.03-.19.1.25,1.04-.8.58.04-.22.01-.48.05-.69.04-.24.15-.49.15-.74.22.03.47,0,.69.03.08,0,.56.14.71.19Z"/>
      <path class="cls-29" d="M33.66,10.95l.08.05c-.04.19-.05.37-.08.55,0,.01,0,.03,0,.04l-1.39-.15c-.06-.03.04-.42.07-.69.31.08.49.03.52.03.27.04.53.13.8.16Z"/>
      <g>
        <path class="cls-13" d="M32.2,6.45c-.04.21-.02.46-.05.69-.04.26-.16.53-.16.8l-.68-.1s-.03,0-.04,0c.1-.19.11-.46.14-.68.04-.26.07-.51.11-.77.2.02.47-.02.69.05Z"/>
        <path class="cls-18" d="M31.99,7.94q-.05.38-.11.77c-.1-.02-.65-.07-.68-.12-.02-.04.1-.6.1-.75l.68.1Z"/>
      </g>
      <path class="cls-13" d="M33.84,5.28c-.04.2-.05.4-.08.6,0,.01,0,.03,0,.04-.15-.05-.63-.18-.71-.19.03-.1.04-.52.1-.55.03-.02.59.08.7.1Z"/>
      <path class="cls-66" d="M34.56,5.43c-.03.1-.04.52-.1.55-.04.02-.56-.1-.7-.1.03-.2.05-.4.08-.6.25.03.48.11.72.14Z"/>
      <path class="cls-12" d="M32.86,10.8s-.2.05-.52-.03c.03-.26.08-.51.11-.77.68.05.49.09.41.8Z"/>
      <g>
        <path class="cls-66" d="M39.23,8.12s.09,0,.08.03c-.11,1.22-.4,2.8-.57,4.07l-1.07-.15q.29-2.05.57-4.09l.98.14Z"/>
        <path class="cls-47" d="M38.74,12.23c-.05.38-.11.77-.16,1.15l-1.07-.11s0-.06.01-.09c.05-.35.1-.71.15-1.07v-.04q.54.07,1.07.15Z"/>
        <path class="cls-65" d="M38.29,7.03s.04-.03.03.09c-.02.27-.09.54-.11.81l-1.04-.15.1-.9c.34.06.68.09,1.02.14Z"/>
        <path class="cls-65" d="M37.16,5.83l-.14.98s-.42.08-.51-.09l.13-.96c.17.03.34.04.51.07Z"/>
        <path class="cls-66" d="M37.67,12.12c-.05.36-.1.71-.15,1.07-.3-.04-.6-.09-.9-.12-1.05-.14-2.11-.27-3.16-.4.05-.35.13-.71.19-1.06,0-.01,0-.03,0-.04l4.01.56Z"/>
        <path class="cls-49" d="M33.75,10.92c.05-.22.05-.44.09-.66l.67.03c.09.99-.11.67-.76.63Z"/>
        <g>
          <path class="cls-54" d="M35.88,5.61c.24.03.48.07.72.1l.04.05-.13.96c.09.17.48.09.51.09.01,0,.04.04.25.08l-.1.9,1.04.15.04.05q-.29,2.05-.57,4.09v.04q-2.01-.28-4.01-.56c.03-.18.04-.36.08-.55,0-.03,0-.06.01-.09.65.04.86.36.76-.63l-.67-.03c-.04.22-.04.45-.09.66-.12,0-.09.03-.09.03-.28-.02-.54-.12-.8-.16.08-.71.27-.75-.41-.8.04-.37,0-.77.16-1.13-.02-.12-.47-.12-.72-.17q.05-.38.11-.77c0-.27.11-.54.16-.8,1.05.46.61-.49.8-.58.08-.04.63.17.71.03.04-.22.05-.44.09-.66,0-.01,0-.03,0-.04.14,0,.67.12.7.1.06-.03.07-.46.1-.55.21.03.45.02.65.05.22.03.45.1.68.14Z"/>
          <path class="cls-49" d="M35.1,10.41s.56.07.57.1c.01.03-.05.58-.15.61-.7.2-.5-.67-.42-.71Z"/>
          <path class="cls-49" d="M33.75,10.92s0,.06-.01.09l-.08-.05s-.03-.04.09-.03Z"/>
        </g>
      </g>
      <path class="cls-29" d="M21.48,7.6l-.1.7c.69.35.7,0,.7-.62.04,0,.09.01.13.02-.15.4-.09.67-.11.77-.04.26-.16.53-.16.8-.01,0-.03,0-.04,0-.37-.05-.74-.1-1.11-.15,0-.03-.15.13,0-.61,0,.1-.04.51-.03.54,0,.02.39.04.41.04.05-.03.36-.93-.39-.79.01-.24.08-.48.1-.72.2.02.4.02.6.04Z"/>
      <path class="cls-29" d="M20.94,6.79c-.03.26-.08.51-.11.77-.33-.03-.65-.1-.98-.14,0,0-.08,0-.08-.03.01-.26.11-.5.15-.74l1.02.14Z"/>
      <path class="cls-50" d="M20.83,7.55s.03,0,.04,0c-.02.24-.09.48-.1.72,0,.01,0,.03,0,.04l-.96-.13c-.12-.07.04-.51.04-.78.33.04.65.1.98.14Z"/>
      <path class="cls-39" d="M20.94,6.79l-1.02-.14s-.03-.38.05-.69c.01,0,.03,0,.04,0,.33.06.67.08,1,.14.04.04-.06.58-.07.69Z"/>
      <path class="cls-61" d="M20.05,5.05c-.04.28-.03.62-.04.91-.01,0-.03,0-.04,0-.23-.04-.47-.15-.72-.14.06-.26.06-.54.11-.81l.69.05Z"/>
      <path class="cls-35" d="M22.08,7.68c0,.63,0,.97-.7.62l.1-.7c.2.02.4.06.6.08Z"/>
      <path class="cls-53" d="M29.07,18.92c.05-.31.08-.61.13-.92l.82.03c.05-.3.07-.61.13-.92.05-.26.16-.53.16-.8.18.03.4-.02.58.08.04-.02.09-.46.1-.55.14,0,.63.11.66.09.05-.02.08-.42.09-.51.45.05.89.13,1.34.19l-.15,1.26-1.26-.15c-.15.04-.09.63-.18.67-.32.17-.75-.62-.78.74-.08.13-.63-.08-.69,0-.03.03-.08.74-.12.9-.04.04-.69-.08-.81-.09Z"/>
      <path class="cls-53" d="M29.07,18.92c-.05.34-.09.68-.14,1.02-.45-.06-.91-.13-1.36-.19q.07-.49.14-.98c.46.04.91.1,1.37.15Z"/>
      <path class="cls-29" d="M29.29,17.04l-.15.94c-.1.05-1.11-.2-1.29-.22l.12-.9c.06,0,.04-.08.08-.08.41.06.83.1,1.24.17.03,0,0,.09,0,.09Z"/>
      <path class="cls-58" d="M24.85,13.94c.32.04.66.14.97.18l-.11.77c-.3-.03-.62,0-.92-.09l-.12.7s-.35-.03-.43-.04v-.04c.57.16.27-.2.48-.61-.02-.05-.31-.06-.38-.07.02-.27.1-.55.11-.81.1.02.28,0,.39.01Z"/>
      <path class="cls-1" d="M27.97,16.85l-.12.9c-.35-.05-.74,0-1.09-.11.02-.34.04-.69.08-1.03.38.05.75.1,1.13.16.03,0,0,.09,0,.09Z"/>
      <path class="cls-39" d="M27.7,18.77q-.07.49-.14.98c-.35-.05-.72-.06-1.07-.11q.06-.51.12-1.03c.36.04.72.12,1.09.15Z"/>
      <path class="cls-29" d="M30.3,16.31c0,.28-.11.54-.16.8-.25-.04-.51-.06-.77-.11l.1-.9c.74.04.78.19.82.2Z"/>
      <path class="cls-31" d="M24.35,14.74l-.1.68v.04c-.31-.03-.59-.16-.9-.12l-.04-.05.16-.67c.29.05.59.07.87.12Z"/>
      <path class="cls-40" d="M22.39,16.64l-.12.85c-.28-.07-.63-.01-.71-.19.02-.18.07-.66.1-.72,0,0,.01.02.05-.04l.68.1Z"/>
      <path class="cls-57" d="M22.54,15.88l-.06.77s-.06,0-.09-.01l-.68-.1c.05-.07.09,0,.14-.05-.25.08-.1-.68-.08-.71.05-.05.65.09.77.09Z"/>
      <path class="cls-45" d="M23.23,15.93c-.03.24.01.51-.06.75-.06.1-.45,0-.69-.03l.06-.77v-.04q.35.05.69.1Z"/>
      <path class="cls-40" d="M22.27,17.49l-.1.72c-.23-.04-.47-.06-.7-.1-.04-.04.07-.62.08-.73,0-.03,0-.06.01-.09.09.18.43.12.71.19Z"/>
      <path class="cls-47" d="M23.32,15.29l.04.05c0,.25-.12.56-.13.59l-.68-.1-.04-.05c-.02-.2.1-.41.13-.59l.68.1Z"/>
      <g>
        <path class="cls-29" d="M28.74,6.01l-.13.76c-.29-.03-.58-.09-.87-.12.16-.14.14-.44.19-.71,0-.01,0-.03,0-.04l.81.11Z"/>
        <path class="cls-75" d="M27.93,5.94c-.05.27-.02.58-.19.71-.25-.03-.48-.06-.72-.1.02-.11.07-.7.12-.72l.79.11Z"/>
      </g>
      <path class="cls-35" d="M31.51,6.39c-.04.26-.07.51-.11.77-.23,0-.67-.19-.78-.02-.11-.05-.11-.1-.12-.1.15.06.11-.37.19-.76.27.03.54.09.81.11Z"/>
      <path class="cls-29" d="M30.7,6.28c-.08.39-.04.82-.19.76-.58-.21-.74.27-.54-.81.23.03.49.03.73.06Z"/>
      <path class="cls-18" d="M35.35,4.1h.09c0,.24-.1.48-.13.65l-.6-.08c.1-.17.1-.43.13-.63l.51.07Z"/>
      <path class="cls-62" d="M35.26,15.09l-.12.83c.03.12.6.14.84.18.03,0,.06,0,.09.01-.06.53-.14,1.05-.22,1.58l-.95-.07q-.04.44-.08.88s-.06,0-.09-.01c-.13-.01-.86-.14-.9-.1l-.08.75c.4.08.88.05.82.2-.16,0-.79-.14-.83-.12-.06.03-.07.46-.1.55-.42-.05-.85-.04-1.26-.13-.04.02-.1.58-.12.68,0,.04-.01.09-.02.13-.33-.05-.67-.05-.99-.09-.77-.11-1.56-.3-2.33-.41.05-.34.09-.68.14-1.02.12.01.78.13.81.09.04-.15.09-.86.12-.9.07-.07.61.14.69,0,.02-1.36.46-.57.78-.74.09-.04.03-.63.18-.67l1.26.15.15-1.26c-.45-.06-.89-.13-1.34-.19.05-.26.06-.53.11-.79.04-.04.16,0,.22,0,.23,0,.74.12,1.07.15.72.07,1.42.21,2.13.3Z"/>
      <path class="cls-54" d="M15.03,2.4c.2.03.4.05.6.08q-.07.5-.14,1s.5.09.59.1c.31.06.63.09.94.13,0,0,.04,0,.04.05-.02.28-.12.55-.12.83.02.05.58.1.68.12.36.06.41.01.43.02.16.03.34.08.51.11.03,0,.06,0,.09.01-.17,1.4-.48,1.57.45,1.58.03-.21.11-.42.15-.63.25,0,.49.1.72.14-.08.31-.05.65-.05.69-.03.24-.14.48-.15.74,0,.04.08.03.08.03,0,.26-.16.7-.04.78l.96.13s.02-.04.02.18c-.15.74,0,.58,0,.61,0,.05-.16.53-.17.89,0,0,0,.09-.03.08-.33-.04-.65-.1-.98-.14l-.18.84c-.3-.04-.65,0-.95-.05-.29-.04-.58-.08-.87-.12q.09-.74.18-1.47l-1.04-.21.08-.9-1.45-.2.06-.77q-1.52-.21-3.05-.43c.04-.22.07-.46.1-.68.02-.17.06-.34.07-.51,0-.08.08-.39.04-.43l-1.1-.2-.16.54c-.3-.1-.6-.13-.91-.17-.93-.12-1.31-.38-1.19.4,0,0,0,.04-.05.04-1.29-.1-1.33-.39-1.31.64,0,0,0,.04-.05.04-.15-.02-1.16-.13-1.19-.19l.15-1.26-2.82-.35.05-.82.05-.04,1.03.12.12-.9.82.07.13-.79.88.06c.01-.33.18-.7.03-.84.04,0,.05-.03.09-.03,2.61.25,5.26.64,7.85,1.05Z"/>
      <path class="cls-1" d="M7.67,7.19l-.1.86c-.35-.05-.7-.09-1.04-.15-.01,0-.03,0-.04,0l.12-.85c.36.04.71.1,1.07.15Z"/>
      <path class="cls-62" d="M3.81,5.26c-.17-.02-.82-.04-.88-.08-.14-.09.09-.63,0-.78,1.19,0,1,.06.88.86Z"/>
      <path class="cls-65" d="M5.78,6.1c-.03.27-.08.54-.11.81-.25-.04-.52-.05-.76-.13-.05-.09.13-.66.15-.78l.72.1Z"/>
      <path class="cls-29" d="M8.44,6.34c-.15.7.1,1.15-.72.81l.12-.85c.06,0,.05-.04.05-.04.18.02.37.05.55.08Z"/>
      <path class="cls-5" d="M5.78,6.1l-.72-.1s-.05-.2.03-.52c.12.02.68,0,.75.06.02.19-.04.37-.06.56Z"/>
      <path class="cls-21" d="M4.09,9.48c.23.03.46.06.68.1-.02.19-.58-.06-.65.02-.02.02-.1.61-.09.64.04.08.58.03.72.17-.25-.06-.7-.18-.75.11,0-.07.05-.16,0-.22-.08-.08-.9-.07-1.05-.1,0,0,.03-.08,0-.09-.37-.07-.76-.1-1.13-.16-.01,0-.03,0-.04,0,0-.26.1-.51.15-.76.72.1,1.45.2,2.17.3Z"/>
      <path class="cls-66" d="M22.51,15.78l.04.05v.04c-.13,0-.73-.14-.78-.09-.03.03-.18.78.08.71-.05.04-.09-.03-.14.05-.04.06-.05.03-.05.04-.3-.17-.66-.09-.98-.14-.03,0-.14-.06-.55-.12-.18,0,.08-.46.06-.77.05,0,.13-.03.13-.02.74.06,1.45.2,2.18.26Z"/>
      <path class="cls-62" d="M21.66,16.58c-.03.07-.08.54-.1.72,0,.03,0,.06-.01.09l-.96-.13.09-.81c.32.04.68-.03.98.14Z"/>
      <path class="cls-47" d="M20.2,15.55c.02.31-.24.77-.06.77,0,0,.02.05-.09.03-.25-.04-.51-.11-.76-.15.03-.24.08-.48.1-.72,0-.03,0-.06.01-.09.24.09.55.13.8.16Z"/>
      <path class="cls-36" d="M34.82,18.5c.16.02.31.05.47.07.56-.01.4.72.09.95q-.1.63-.2,1.25l-2.91-.45c.01-.1.07-.66.12-.68.41.1.85.09,1.26.13.14.02.77.21.87.16.07-.19.07-.4.1-.59.05-.28.07-.57.12-.85.03,0,.06,0,.09.01Z"/>
      <path class="cls-40" d="M35.85,17.69c-.03.18,0,.74-.08.88-.09.1-.28.01-.48,0-.16-.01-.31-.05-.47-.07q.04-.44.08-.88l.95.07Z"/>
      <path class="cls-48" d="M37.22,15.32c-.05.32-.11.62-.17.93-.24-.04-.48-.06-.72-.1l.14-.98c.24.03.55.05.76.15Z"/>
      <g>
        <path class="cls-23" d="M36.33,16.15c.24.04.48.06.72.1-.06.3-.23.66-.09.94-.06,0-.11-.04-.18.04-.04.22-.05.44-.09.66-.1.58-.17,1.17-.24,1.75l-.94-.11c-.12.43-.15.86-.22,1.29,0,.01,0,.03,0,.04l-.77-.11c-.75-.11-1.51-.21-2.26-.32,0-.04.01-.09.02-.13l2.91.45q.1-.63.2-1.25c.31-.22.47-.96-.09-.95.2.02.39.1.48,0,.08-.14.05-.7.08-.88.08-.53.17-1.05.22-1.58.08.01.17.02.26.04Z"/>
        <path class="cls-1" d="M35.78,18.64s.68.09.7.12l-.13.74c-1.13.1-.64-.84-.58-.86Z"/>
      </g>
      <path class="cls-73" d="M36.46,15.17l-.14.98c-.09-.01-.17-.02-.26-.04-.03,0-.06,0-.09-.01l.14-.98c.11.01.23.03.34.05Z"/>
      <path class="cls-62" d="M36.53,14.05c.28.04.57.12.85.16-.06.37-.1.74-.15,1.11-.21-.1-.52-.12-.76-.15-.11-.01-.23-.03-.34-.05-.26-.03-.51-.03-.77-.06q.06-.57.12-1.14s.93.11,1.07.13Z"/>
      <path class="cls-67" d="M19.33,4.95l.04.05c-.05.27-.06.55-.11.81-.04.21-.12.42-.15.63-.94-.02-.63-.19-.45-1.58.23.04.46.06.68.1Z"/>
      <path class="cls-67" d="M17.74,3.86q-.06.43-.12.85c-.1-.02-.65-.07-.68-.12,0-.28.09-.55.12-.83.23.03.45.06.68.1Z"/>
      <path class="cls-60" d="M18.56,4.85c-.17-.03-.35-.09-.51-.11l.11-.77s.38-.05.51.05l-.12.83Z"/>
      <path class="cls-42" d="M18.16,3.96l-.11.77s-.08.04-.43-.02q.06-.43.12-.85c.15.02.28.08.42.1Z"/>
      <path class="cls-62" d="M37.52,13.19s0,.06-.01.09c-.05.31-.08.63-.13.94-.28-.04-.57-.12-.85-.16l.09-.99c.3.04.6.08.9.12Z"/>
      <path class="cls-38" d="M2.95,10.19l-.11.77s0,.09-.03.08c-.37-.05-.76-.07-1.12-.2.04-.29-.04-.62.12-.9.37.05.76.09,1.13.16.03,0,0,.09,0,.09Z"/>
      <path class="cls-66" d="M18.48,10.74c-.08.64-.19,1.28-.27,1.92,0,.04-.01.09-.02.13-.16-.25-.58-.2-.88-.25-.85-.14-.59-.17-.63-.17.03-.25.07-.5.1-.75,0-.03-.08-.03-.08-.03,0-.05.2-.21.19-.89l-1.09-.15c.03-.27.04-.55.07-.82.02-.15.25-.81.1-.9-.4-.1-.82-.07-1.22-.13-.04,0-.04-.05-.08-.05-.2-.03-.4-.06-.6-.08l-.51-.07c.02-.13.15-.8.06-.86l-.79-.11-.55-.08c.06-.26.07-.54.11-.81q1.52.21,3.05.43l-.06.77,1.45.2-.08.9,1.04.21q-.09.74-.18,1.47c.29.04.58.09.87.12Z"/>
      <path class="cls-33" d="M6.18,9.81c-.09.58-.18,1.17-.24,1.75-.33-.06-.68-.17-1.01-.23l.12-.83c-.06-.12-.18-.08-.29-.11-.14-.13-.67-.08-.72-.17-.01-.03.07-.62.09-.64.08-.08.64.17.65-.02.47.07.93.16,1.4.24Z"/>
      <path class="cls-29" d="M10.34,5.78l-.03.69c.3.02.62.12.92.13-.02.1-.06.61-.11.64-.83-.16-1.09.09-.86-.69-.4,0-.79-.11-1.17-.16l.11-.77c.06,0,.05-.04.05-.04.37.03.74.16,1.1.2Z"/>
      <path class="cls-60" d="M15.88,9.73h-.04q-.32-.05-.64-.1l-.51-.07c.05-.27-.01-.59.08-.86.4.06.83.02,1.22.13.15.09-.09.75-.1.9Z"/>
      <path class="cls-29" d="M6.18,9.81c.05-.33.12-.65.18-.97l1,.14-.07.97c-.09.14-.94-.11-1.11-.13Z"/>
      <path class="cls-29" d="M15.81,10.55c-.03.27-.17.84-.06.9l.96.13s.09,0,.08.03c-.03.25-.07.5-.1.75-.06,0-.04.08-.08.08-.36-.06-.73-.08-1.08-.17q.16-1.27.31-2.54h.04c-.03.27-.04.55-.07.82Z"/>
      <path class="cls-29" d="M12.57,5.44c-.01.17-.05.34-.07.51-.21.07-.61-.08-.67-.05-.07.04-.08.66-.12.7-.02.02-.41,0-.48,0,.05-.27.06-.55.11-.81.04-.21.01-.44.14-.5l1.09.15Z"/>
      <path class="cls-66" d="M9.19,5.62l-.11.77c-.2-.03-.43-.02-.65-.05-.19-.02-.37-.05-.55-.08-.03-1.03.02-.74,1.31-.64Z"/>
      <path class="cls-20" d="M8.75,15.65c.02-.14.15-.8.06-.86l-.92-.13s0-.03,0-.04l.11-.77c.14.02.89-.02.94.15-.15.57.05,1.09-.19,1.65Z"/>
      <path class="cls-10" d="M18.19,12.79c-.03.26-.04.52-.06.77l-.81-.11s-.09,0-.08-.03c.04-.28.12-.6.08-.88.29.05.72,0,.88.25Z"/>
      <path class="cls-29" d="M18.13,13.56c-.03.28-.09.57-.12.85l-.9-.12c.13-.86.2-.8.2-.84l.81.11Z"/>
      <path class="cls-29" d="M6.52,11.68c-.03.16-.04.31-.07.47-.03.16-.06.31-.11.46-.11-.02-.25-.02-.34-.05-.08-.02-.16.01-.2-.09.04-.31.09-.61.13-.92.2.04.39.09.59.13Z"/>
      <path class="cls-29" d="M12.84,7.52c-.13.71.07,1.07-.79.69.05-.68.23-.73.24-.77l.55.08Z"/>
      <path class="cls-35" d="M14.68,8.65l-.12.87c-.07.08-.5-.09-.59-.1l.12-.85c.2.03.4.06.6.08Z"/>
      <path class="cls-29" d="M14.09,8.57l-.12.85s-.33.05-.6-.06c.04-.74.2-.82.21-.86l.51.07Z"/>
      <path class="cls-29" d="M15.2,9.63l-.07.79c-1.05.19-.5-.53-.44-.87l.51.07Z"/>
      <path class="cls-29" d="M7.33,12.75c.05.15,0,.32-.02.47-.02.14-.04.28-.06.43-.03,0-.43.08-.55-.1l.11-.79s-.04-.1.52-.01Z"/>
      <path class="cls-20" d="M7.31,13.23c.02-.15.08-.33.02-.47.19.03.64.05.67.16.15.52-.37.38-.7.32Z"/>
      <path class="cls-20" d="M6.46,12.15c.03-.16.04-.31.07-.47.02,0,.3-.05.41.01.08.05.17.71-.48.46Z"/>
      <g>
        <path class="cls-33" d="M5.25,19.85c.07.09.57.12.72.14,0,.15-.12.71-.1.75.05.09.47,0,.41.17-.4-.06-.37,0-.39-.01-.27-.04-.57-.11-.85-.16-.27-.05-.56-.03-.63-.15l.17-1.24c-.03-.12-.44-.12-.67-.16-.01,0-.03,0-.04,0,0-.3.13-.6.17-.89.23.04.47.06.7.1-.19,1.47.25.74.51.98.07.06-.09.36,0,.48Z"/>
        <g>
          <path class="cls-33" d="M3.5,16.83c0,.15-.13.75-.11.79.03.06.53.08.64.11,0,.03.07.11,0,.57-.24-.04-.5-.02-.73-.06-.2-.03-1.04-.15-1.15-.2-.18-.08-.06-.4-.03-.7,0-.12.13-.73.09-.77-.29-.05-.59-.07-.87-.12.08-.87.33-.93-.34-.96.04-.31.09-.63.13-.94.01,0,.03,0,.04,0,.43.07.87.11,1.3.18q-.11.89-.23,1.77c.04.13.85.16,1.21.23.03,0-.01.08.05.09Z"/>
          <path class="cls-69" d="M1.34,16.44c-.11-.02-.28-.02-.34-.05-.03-.01-.07,0-.12-.08.04-.28.08-.55.12-.83.68.03.43.09.34.96Z"/>
        </g>
        <path class="cls-44" d="M3.94,11.19c.33.05.69.09.98.14.33.06.68.16,1.01.23-.04.31-.09.61-.13.92.05.11.13.07.2.09l-.11.94,1.22.26.02.79.75.06s0,.03,0,.04c-.04.29-.08.58-.12.87l.87.19c-.01.3-.06.56-.06.86,0,.12.03.09.03.09,0,.14.07.08.07.12,0,.24-.12.64-.13.92-.33-.04-.66-.06-.99-.09-.36-.03-.72-.11-1.09-.15l-.18.82s.09.02.12.04c-.27.18-.25,1.49-.39,1.58-.11.07-.61-.13-.78-.04-.09-.12.07-.42,0-.48-.27-.25-.7.49-.51-.98-.23-.04-.47-.06-.7-.1.07-.46-.01-.54,0-.57.01-.13.21-.73.16-.83-.18-.11-.65-.07-.69-.07-.07-.01-.02-.09-.05-.09-.35-.07-1.17-.1-1.21-.23q.11-.89.23-1.77c-.43-.07-.87-.11-1.3-.18.08-.27.04-.58.08-.86.09-.67.19-1.33.28-2,.04-.29.12-.57.16-.85.36.13.75.15,1.12.2.03,0,.03-.08.03-.08.07,0,.02.09.05.09.35.05.7.09,1.04.15Z"/>
        <path class="cls-70" d="M9.71,17.82l-.32,1.82-2-.28-.2.8c-.4-.08-.82-.1-1.22-.17-.15-.02-.65-.05-.72-.14.17-.09.66.11.78.04.15-.09.12-1.39.39-1.58.15.06.73.07,1,.14l.14-.85c.33.03.66.06.99.09.33.04.67.11,1,.14.03,0,0-.08.08-.08,0,0-.03.05.08.05Z"/>
        <path class="cls-9" d="M15.08,16.7s0-.06.01-.09c.81.44,1.13-.26.85,1.05l-.93-.06c-.1-.06.04-.67.06-.9Z"/>
        <path class="cls-33" d="M18.01,14.42c.25.05.52.05.77.11.07.26-.05.55-.07.79,0,.04.08.03.08.03,0,.02-.07.06-.09.34-.21-.04-.01-.28-.1-.36-.03-.02-.65.03-.7-.12-.12-.42.62-.76-.73-.82l-.17.76.11-.77s0-.06.01-.09l.9.12Z"/>
        <path class="cls-17" d="M9.71,17.82c-.11,0-.07-.05-.08-.05q.06-.44.12-.87l.75.08-.11.92s-.58-.07-.69-.07Z"/>
        <g>
          <path class="cls-21" d="M18.7,15.69c0,.08-.08.39-.04.43.2.03.41.05.62.09-.03.26-.08.51-.11.77l.07.1-.14.7c.06.11.31.11.55.14.18.03.37.05.55.08-.03.26.01.55-.07.82-.42-.05-.94-.19-1.16-.1-.09.14-.07.9-.11,1.09,0,0-.08-.03-.09,0-.03.19-.04.39-.08.58-.11,0-.64-.12-.69-.07-.04.05-.03.6-.16.87-.21-.02-.41-.06-.62-.09-.05.02-.06.31-.07.38-.12,0-.68-.13-.73-.08-.04.05-.03.6-.16.87-.64-.05-.62,0-.65,0-.33-.04-.68-.14-1.02-.19-2.77-.34-5.55-.75-8.31-1.16.05-.17-.37-.08-.41-.17-.02-.04.1-.6.1-.75.4.07.82.09,1.22.17l.2-.8,2,.28.32-1.82c.11,0,.64.12.69.07l.11-.92-.75-.08q-.06.44-.12.87c-.07,0-.04.08-.08.08-.33-.03-.67-.1-1-.14.01-.28.13-.67.13-.92,0-.04-.07.02-.07-.12l.95.18c.07-.04.07-.08.08-.08.82.04.91.45.94-.69l-.77-.11-.17.76.11-.77c.14.03.84,0,.92.09l-.1.86v.09q.49.08.97.16-.06.5-.12,1l1.19.17.2-.99.92.11.14-.87s.39.04.47.04c.24.02.48.08.72.1-.03.24-.16.84-.06.9l.93.06c.27-1.31-.04-.62-.85-1.05.03-.28.07-.57.12-.85.04-.24.07-.81.18-.84.29.03.58.09.87.12.24.02.48.07.72.1l.17-.76c1.36.06.61.4.73.82.05.15.67.09.7.12.09.08-.11.32.1.36Z"/>
          <g>
            <path class="cls-9" d="M13.91,17.45l.94.13-.06.88c-1.03.02-1.28.04-.88-1.01Z"/>
            <path class="cls-9" d="M12.7,18.33l.94.13-.09.79-.96-.11.11-.81Z"/>
            <path class="cls-9" d="M16.21,15.95s.56.07.57.1c.02.04-.1.81-.14.83-.03.01-.56-.07-.57-.1-.02-.04.1-.81.14-.83Z"/>
            <path class="cls-37" d="M10.37,18.83s1.11.06.79.39c-.03.03-.8-.07-.83-.09-.03-.03,0-.28.04-.3Z"/>
            <path class="cls-51" d="M12.12,19.07c.18-.05.59.08.4.38-.05.09-.48.01-.5,0-.03-.03,0-.35.1-.38Z"/>
          </g>
        </g>
        <path class="cls-72" d="M4.03,18.29c-.04.29-.17.59-.17.89-.23-.04-.46-.06-.68-.1.05-.28.07-.57.12-.85.23.04.49.02.73.06Z"/>
        <path class="cls-9" d="M4.03,17.73c-.1-.03-.61-.05-.64-.11-.02-.04.11-.63.11-.79.03,0,.5-.04.69.07.05.09-.15.7-.16.83Z"/>
        <path class="cls-41" d="M6.35,12.62c.65.14.43.15.46.15l-.11.79c.13.17.52.09.55.1.24.05.51.15.76.19l-.11.77-.75-.06-.02-.79-1.22-.26.11-.94c.09.03.23.02.34.05Z"/>
        <path class="cls-33" d="M8.75,15.65s0,.06-.01.09c-.05.28-.16.56-.16.85,0-.3.04-.57.06-.86l-.87-.19c.04-.29.08-.58.12-.87l.92.13c.1.06-.04.72-.06.86Z"/>
        <path class="cls-34" d="M7.56,17.61l-.14.85c-.27-.07-.85-.08-1-.14-.04-.01-.11,0-.12-.04l.18-.82c.36.04.72.12,1.09.15Z"/>
      </g>
      <path class="cls-22" d="M3.99,10.5c.01.22-.09.46-.05.69-.35-.06-.7-.09-1.04-.15-.03,0,.01-.08-.05-.09l.11-.77c.16.03.97.03,1.05.1.04.06-.01.15,0,.22Z"/>
      <path class="cls-70" d="M4.75,10.39c.11.03.23,0,.29.11l-.12.83c-.29-.05-.66-.08-.98-.14-.04-.23.06-.47.05-.69.05-.29.5-.17.75-.11Z"/>
      <path class="cls-66" d="M18.98,13.68c-.23,1.05-.08.79,1.27,1.05.17.1-.19.71.08.79,0,0-.08.03-.13.02-.26-.02-.56-.06-.8-.16.02-.24.09-.47.06-.71-.23-.04-.45-.11-.67-.16-.25-.05-.52-.06-.77-.11.03-.28.09-.57.12-.85l.85.12Z"/>
      <path class="cls-59" d="M19.39,15.39s0,.06-.01.09l-.59-.13s-.08,0-.08-.03c.02-.25.13-.54.07-.79.22.05.45.12.67.16.04.24-.03.47-.06.71Z"/>
      <path class="cls-53" d="M36.63,13.06l-.09.99c-.14-.02-1.03-.17-1.07-.13q-.06.57-.12,1.14s-.05.04-.09.03c-.72-.09-1.41-.22-2.13-.3.13-.37.15-.76.2-1.15.05-.33.09-.65.14-.98,1.05.13,2.11.26,3.16.4Z"/>
      <path class="cls-66" d="M23.53,12.54c.24.04.48.06.72.1.17.03.58.17.67.18-.07.22-.03.47-.05.69,0,.05-.21.42-.02.43-.11-.01-.29,0-.39-.01,0-.07.02-.46,0-.48-.04-.04-.49-.05-.55.03-.28.42.26.4.55.45-.01.26-.09.54-.11.81-.29-.05-.58-.07-.87-.12l-.16.67-.68-.1c.04-.27,0-.78.1-1.03.17-.41.75.53.76-.78-.02-.05-.93-.16-1.06-.17l.11-.81c.33.05.65.09.98.14Z"/>
      <path class="cls-27" d="M27.13,15.08c.11.01.25,0,.35,0,.12.01.69.06.72.17l-.27,1.46-1-.16q.1-.74.21-1.47Z"/>
      <path class="cls-29" d="M24.25,12.64c-.24-.04-.48-.06-.72-.1.05-.4.12-.79.17-1.19.15-.1,1.35.03,1.37.13.01.04-.07.56-.1.57-.22.11-.62-.51-.71.6Z"/>
      <path class="cls-29" d="M33.33,13.64c-.06.38-.07.78-.2,1.15-.33-.03-.84-.15-1.07-.15l.15-1.09,1.12.09Z"/>
      <path class="cls-60" d="M23.7,11.3s0,.03,0,.04c-.04.4-.12.8-.17,1.19-.33-.05-.65-.09-.98-.14q.09-.62.17-1.24c.33.04.65.1.98.14Z"/>
      <path class="cls-29" d="M23.7,11.3c-.33-.04-.65-.1-.98-.14-.03,0-.06,0-.09-.01.13-.28.08-.53.11-.81.35.06.7.09,1.04.15.04.04-.08.69-.09.81Z"/>
      <path class="cls-29" d="M24.87,13.51c.03-.22-.02-.47.05-.69.04,0,.3-.18.81.09l-.16.69-.7-.1Z"/>
      <path class="cls-29" d="M31.14,15.34c-.13-.01-.07.07-.14.07-.07,0-.49-.05-.51-.09.17-.92-.09-1.03.76-.81l-.12.83Z"/>
      <path class="cls-29" d="M31.41,7.16c-.03.22-.04.49-.14.68-.23-.03-.47-.06-.7-.1-.07-.04.02-.53.06-.6.11-.16.55.03.78.02Z"/>
      <g>
        <g>
          <path class="cls-29" d="M26.61,14.14c-.14.25-.21.6-.17.89-.24-.02-.49-.12-.72-.14l.11-.77s-.05-.12.78.02Z"/>
          <path class="cls-20" d="M27.06,14.33l-.06.73c-.06,0-.05.04-.05.04-.17-.02-.34-.05-.51-.07-.05-.29.03-.64.17-.89.37.06.33-.05.45.19Z"/>
        </g>
        <path class="cls-25" d="M27.48,15.09c-.1-.01-.23,0-.35,0-.04,0-.09-.01-.13-.02l.06-.73c.02-.2.54-.08.56.01l-.15.74Z"/>
      </g>
      <path class="cls-29" d="M31.14,15.34c.2.02.4.06.6.08-.02.09-.05.48-.09.51-.04.02-.52-.09-.66-.09.02-.14.07-.3.02-.43.07,0,0-.08.14-.07Z"/>
      <g>
        <path class="cls-6" d="M34.9,2.39c.06.02.12,0,.16.09-.03.26-.08.53-.11.79-.03.26-.07.51-.11.77-.03.21-.03.46-.13.63l-.7-.1c-.12.03-.12.47-.17.72-.11-.01-.67-.11-.7-.1-.06.03-.07.46-.1.55-.22-.02-.47,0-.69-.03,0,.25-.1.5-.15.74-.22-.07-.49-.03-.69-.05-.27-.03-.54-.08-.81-.11-.24-.03-.5-.03-.73-.06-.4-.05-.82-.21-1.23-.22l-.81-.11c.05-.23.03-.6.15-.63l1.66.27c.12-.07.11-.36.15-.63,0-.04.01-.09.02-.13.12.22.48.07.83.16.05-.02.09-.5.1-.59.04-.24.06-.48.1-.72l.88.08c.04-.28.13-.57.18-.84.3.04.6.09.9.12.32.04.64.09.96.13.05-.02.12-.73.14-.85.25.06.71.06.9.12Z"/>
        <path class="cls-25" d="M34.12,1.41l-.11.81c-.32.03-.67-.05-.99-.09-.3-.04-.6-.08-.9-.12-.61-.08-1.22-.18-1.83-.26-.3-.04-.6-.09-.9-.12.04-.3.08-.6.12-.9,1.53.21,3.06.36,4.59.6.03,0,0,.09,0,.09Z"/>
        <path class="cls-29" d="M25.3.18l-.13.94c-.1.07-.61-.06-.77-.06-.22-.09-.02-.54.01-1.02.58-.12.85.14.89.15Z"/>
        <path class="cls-23" d="M28,.47l-.13.94c-.31-.03-.62-.1-.94-.13.05-.31.08-.63.13-.94.31.04.63.09.94.13Z"/>
        <path class="cls-28" d="M34.9,2.39c-.18-.06-.64-.06-.9-.12,0-.01,0-.03,0-.04l.11-.81s.1-.13.84.03q-.03.47-.07.95Z"/>
        <path class="cls-29" d="M23.9,1.77c-.06.24-.1.48-.17.72-.25-.03-.5-.08-.75-.1l.13-.76c.33,0,.74.15.78.15Z"/>
        <path class="cls-25" d="M28.59.55l-.13.92s-.51-.05-.6-.06l.13-.94c.2.03.4.06.6.08Z"/>
        <path class="cls-63" d="M32.13,2c-.05.28-.07.57-.12.85-.31-.04-.62-.09-.94-.13-.3-.04-.6-.09-.9-.12l.12-.85c.61.08,1.22.17,1.83.26Z"/>
        <path class="cls-25" d="M30.18,2.6c.3.03.6.09.9.12.06.3-.07.57-.12.85l-1.73-.24.09-.79c.06-.1.62.03.86.06Z"/>
        <path class="cls-25" d="M29.4,1.62c-.02.15-.08.85-.19.89l-.87-.19.18-.82c.29.03.58.09.87.12Z"/>
        <path class="cls-22" d="M32.01,2.85c-.05.28-.14.56-.18.84l-.88-.08s0-.03,0-.04c.05-.28.18-.55.12-.85.31.04.62.09.94.13Z"/>
        <path class="cls-71" d="M30.84,4.34c-.02.09-.06.57-.1.59-.34-.09-.71.06-.83-.16l.07-.51c.27.04.58,0,.86.08Z"/>
        <g>
          <path class="cls-19" d="M29.52.72c-.04.3-.08.6-.12.9-.29-.03-.58-.09-.87-.12l-.18.82.87.19c.11-.03.17-.74.19-.89.3.03.6.09.9.12l-.12.85c-.24-.03-.8-.16-.86-.06l-.09.79,1.73.24s0,.03,0,.04c-.04.24-.06.49-.1.72-.27-.08-.58-.04-.86-.08-.31-.04-.58-.09-.9-.12-.67-.08-.99-.52-.96.47.29.04.58.08.87.12.29.04.62.05.89.17-.05.27-.03.57-.15.63l-1.66-.27c-.12.03-.11.4-.15.63,0,.01,0,.03,0,.04l-.79-.11s-.1.61-.12.72c-.28-.05-.56-.07-.83-.12l.14-1.18c-.07-.12-.44-.13-.76-.17-.64-.09-1.34-.07-1.97-.23-.06,0-.04-.04-.03-.09,2.31.43,1.89.45,2.03-.5.04-.28.06-.57.12-.85.15,0,.75.13.79.11.04-.02.08-.38.13-.46.13.01.82.14.86.1l.12-.85-.84-.2c.06-.28.11-.55.16-.83.31.04.62.1.94.13.09,0,.56.1.6.06l.13-.92c.26.03.53.03.79.07,0,0,.1.1.14.11Z"/>
          <path class="cls-25" d="M29.09,4.14l-.08.6c-.29-.04-.58-.08-.87-.12-.03-.99.29-.55.96-.47Z"/>
          <path class="cls-63" d="M29.99,4.27l-.07.51s-.01.09-.02.13c-.27-.12-.6-.12-.89-.17l.08-.6c.31.03.59.08.9.12Z"/>
          <path class="cls-24" d="M26.63,3.06c-.05.08-.09.44-.13.46-.04.02-.63-.11-.79-.11.04-.2.01-.4.13-.46.26.03.53.08.79.11Z"/>
        </g>
        <path class="cls-19" d="M34,2.26c-.02.12-.09.83-.14.85-.32-.04-.64-.1-.96-.13l.12-.85c.32.04.66.13.99.09,0,.01,0,.03,0,.04Z"/>
        <path class="cls-22" d="M33.02,2.13l-.12.85c-.3-.03-.6-.09-.9-.12.05-.28.07-.57.12-.85.3.04.6.08.9.12Z"/>
        <g>
          <path class="cls-25" d="M23.6,4.85c.63.16,1.33.14,1.97.23-.14,1.67-.35,1.05-.47,1.17-.03.03-.01.29-.05.34-.08.13-.55-.06-.67-.03-.29.08.43.68-1.17.31-.07.02-.21.83-.24.97-.2-.11-.52-.12-.76-.15-.04,0-.09-.01-.13-.02-.2-.03-.4-.06-.6-.08-.2-.02-.41-.02-.6-.04-.01,0-.03,0-.04,0,.03-.26.08-.51.11-.77.01-.1.11-.65.07-.69-.33-.06-.67-.08-1-.14,0-.29,0-.62.04-.91.03-.26.11-.54.16-.8l.9.1.12-.87s.06,0,.09.01c.25.03.5.08.75.1q.08-.36.17-.72c.13,0,.54.1.58.08.07-.03.03-.38.15-.59.01,0,.03,0,.04,0,.25.02.5.08.75.1.06-.24.11-.48.17-.72.11.01.22.07.31-.02l.09-.66s-.03-.04.09-.03c.16,0,.68.14.77.06l.2-.97,1.53.21c.07,1.46-.66.63-.83.82-.11.77-.17,1.52-.44,2.24l-.65-.05c.05,1.02-.35.61-1.27.54l-.23.86.05.12c.07.02.07-.03.07-.03Z"/>
          <path class="cls-25" d="M27.06.34c-.05.31-.08.63-.13.94-.04.28-.1.55-.16.83l.84.2-.12.85s-.73-.09-.86-.1c-.26-.03-.53-.08-.79-.11-.12.06-.09.27-.13.46-.05.28-.08.57-.12.85l-1.9-.26s-.12.66-.13.76c0,.05-.03.09.03.09,0,0,0,.06-.07.03l-.05-.12.23-.86c.92.07,1.32.48,1.27-.54l.65.05c.28-.72.34-1.48.44-2.24.17-.19.9.64.83-.82l-1.53-.21-.2.97.13-.94s0-.09.03-.08c.58.07,1.15.17,1.73.24Z"/>
          <path class="cls-16" d="M22.95,2.37c-.12.21-.08.55-.15.59-.03.02-.44-.08-.58-.08l-.04-.05c.1-.73.12-.53.76-.46Z"/>
          <path class="cls-16" d="M24.3,1.08l-.09.66c-.08.09-.2.03-.31.02.05-.23.05-.47.1-.7.14-.13.28.02.3.02Z"/>
          <path class="cls-64" d="M22.97,7.85c-.02.11-.07.65-.12.68l-.75-.06c.02-.1-.05-.37.11-.77.24.03.56.04.76.15Z"/>
          <path class="cls-74" d="M25.6,4.26c-.14.95.29.93-2.03.5.01-.11.09-.74.13-.76l1.9.26Z"/>
          <g>
            <path class="cls-25" d="M27.02,6.55c-.02.12-.09.78-.13.81l-1.41-.2-.26.96-1.09-.13q-.12.78-.24,1.55c-.33-.09-.68-.06-1.01-.1-.3-.03-.63-.13-.93-.17,0-.27.12-.54.16-.8l.75.06c.05-.03.09-.57.12-.68.03-.14.17-.95.24-.97,1.61.36.88-.23,1.17-.31.12-.03.59.16.67.03.03-.05.02-.31.05-.34.12-.13.33.49.47-1.17.32.05.68.05.76.17l-.14,1.18c.28.05.56.07.83.12Z"/>
            <path class="cls-25" d="M24.4,7.05l.9.12-.09.79-.93-.06.12-.85Z"/>
          </g>
        </g>
      </g>
      <g>
        <path class="cls-60" d="M22.87,9.45c-.04.3-.09.6-.12.9-.3-.05-.6-.09-.9-.12-.01,0-.03,0-.04,0,.02-.38.19-.82.09-.94.01,0,.03,0,.04,0,.31.04.63.14.93.17Z"/>
        <path class="cls-65" d="M21.9,9.27c.1.12-.07.57-.09.94-.37-.05-.76-.08-1.14-.12-.03,0,.01-.09-.05-.09,0-.36.16-.84.17-.89.37.05.74.1,1.11.15Z"/>
      </g>
      <path class="cls-35" d="M20.79,8.5c0-.22-.02-.17-.02-.18,0-.01,0-.03,0-.04.75-.14.44.77.39.79-.02,0-.4-.02-.41-.04,0-.03.03-.43.03-.54Z"/>
      <path class="cls-1" d="M24.26,15.42l.1-.68c.07.01.36.03.38.07-.22.41.09.77-.48.61Z"/>
      <path class="cls-11" d="M22.74,14.16c-.1.25-.06.76-.1,1.03-.03.18-.14.39-.13.59-.73-.06-1.44-.2-2.18-.26-.27-.08.08-.69-.08-.79-1.35-.26-1.49,0-1.27-1.05l3.76.48Z"/>
      <path class="cls-7" d="M36.12,15.12l-.14.98c-.24-.04-.81-.07-.84-.18l.12-.83s.05-.04.09-.03c.26.03.52.04.77.06Z"/>
      <g>
        <path class="cls-62" d="M34.74,18.49c-.05.28-.07.57-.12.85h-.04c.06-.16-.42-.13-.82-.21l.08-.75s.77.09.9.1Z"/>
        <path class="cls-40" d="M34.58,19.34h.04c-.03.2-.03.41-.1.6-.1.05-.73-.15-.87-.16.03-.1.04-.52.1-.55.04-.02.68.11.83.12Z"/>
      </g>
      <path class="cls-15" d="M19.47,10.8q-.14,1.02-.29,2.05c-.32-.06-.67-.05-.97-.18.08-.64.18-1.28.27-1.92.3.04.65.01.95.05.01,0,.03,0,.04,0Z"/>
      <path class="cls-66" d="M21.81,10.21s.03,0,.04,0l-.16.85c-.74-.08-1.48-.18-2.22-.27-.01,0-.03,0-.04,0l.18-.84c.33.04.65.1.98.14.04,0,.03-.08.03-.08.06,0,.02.09.05.09.38.04.76.07,1.14.12Z"/>
      <g>
        <path class="cls-4" d="M12.57,5.44l-1.09-.15c-.12.06-.09.29-.14.5-.16.06-.35-.01-.52-.03-.47-.17-.51.01-.4-.58.31.04.62.07.91.17l.16-.54,1.1.2s-.03.35-.04.43Z"/>
        <path class="cls-66" d="M10.43,5.19c-.11.59-.07.4.4.58-.55-.05-.46.02-.48.02-.36-.04-.73-.17-1.1-.2-.12-.78.25-.52,1.19-.4Z"/>
      </g>
      <g>
        <path class="cls-14" d="M2.93,4.4c.09.15-.14.7,0,.78.06.04.71.06.88.08.43.02.85.15,1.27.22-.08.31-.03.49-.03.52-.02.13-.2.69-.15.78.25.08.51.09.76.13.04,0,.09.01.13.02l-.16.83s.73.12.85.14c.01,0,.03,0,.04,0-.07.07-.05.15-.07.16,0,0-.08-.03-.09,0-.05.14-.06.71-.13.74l-1.96-.27-.19.93c-.72-.1-1.45-.2-2.17-.3.05-.31.13-.63.17-.93.34.05.68.1,1.02.14.15.02,1.07.17,1.11.13l.18-1.32-.97-.2c.02-.2.1-.39,0-.48l-1.09-.15c.05-.36.06-.75.11-1.11.04-.28.1-.56.07-.84.1-.1.25-.01.39-.01Z"/>
        <path class="cls-62" d="M6.6,7.04l-.12.85c-.12-.02-.82-.09-.85-.14l.16-.83c.27.04.54.08.81.11Z"/>
        <path class="cls-39" d="M3.44,6.99c-.04.44-.16,1.48-.32,1.39-.34-.05-.68-.1-1.02-.14.09-.62.17-1.25.26-1.88l1.09.15c.1.09.02.28,0,.48Z"/>
        <path class="cls-62" d="M6.46,8.07c-.04.25-.06.51-.11.77-.06.33-.13.64-.18.97-.47-.08-.93-.17-1.4-.24-.23-.03-.45-.06-.68-.1l.19-.93,1.96.27c.07-.03.08-.6.13-.74.01-.04.09,0,.09,0Z"/>
        <path class="cls-53" d="M3.11,8.38c.16.09.29-.95.32-1.39l.97.2-.18,1.32s-.96-.11-1.11-.13Z"/>
      </g>
      <path class="cls-8" d="M22.74,14.16l-3.76-.48-.85-.12c.03-.26.03-.51.06-.77,0-.04.01-.09.02-.13.31.13.65.12.97.18,1.12.19,2.14.25,3.25.37.14.01,1.04.12,1.06.17,0,1.32-.59.38-.76.78Z"/>
      <path class="cls-60" d="M16.71,11.58l-.96-.13c-.11-.07.03-.63.06-.9l1.09.15c.01.68-.18.84-.19.89Z"/>
      <path class="cls-60" d="M11.23,6.6c-.3-.01-.62-.11-.92-.13l.03-.69s-.07-.07.48-.02c.17.02.36.08.52.03-.05.27-.07.54-.11.81Z"/>
      <path class="cls-56" d="M22.64,11.15s.06,0,.09.01q-.09.62-.17,1.24l-.11.81c-1.11-.12-2.14-.17-3.25-.37q.14-1.02.29-2.05c.74.09,1.48.18,2.22.27.31.04.63.05.94.09Z"/>
      <path class="cls-68" d="M24.46,13.93c-.29-.04-.83-.02-.55-.45.05-.08.51-.07.55-.03.02.02,0,.41,0,.48Z"/>
      <path class="cls-3" d="M22.75,10.34c-.03.28.02.53-.11.81-.31-.03-.63-.05-.94-.09l.16-.85c.3.04.6.08.9.12Z"/>
    </g>
  </g>
</svg>