<?xml version="1.0" encoding="UTF-8"?>
<svg id="Layer_2" data-name="Layer 2" xmlns="http://www.w3.org/2000/svg" xmlns:xlink="http://www.w3.org/1999/xlink" viewBox="0 0 31.2 30.59">
  <defs>
    <style>
      .cls-1 {
        fill: #ecd391;
      }

      .cls-1, .cls-2, .cls-3, .cls-4, .cls-5, .cls-6, .cls-7, .cls-8, .cls-9, .cls-10, .cls-11, .cls-12, .cls-13, .cls-14, .cls-15, .cls-16, .cls-17, .cls-18, .cls-19, .cls-20, .cls-21, .cls-22, .cls-23, .cls-24, .cls-25, .cls-26, .cls-27, .cls-28, .cls-29, .cls-30, .cls-31, .cls-32, .cls-33, .cls-34, .cls-35, .cls-36, .cls-37, .cls-38, .cls-39, .cls-40, .cls-41, .cls-42, .cls-43, .cls-44, .cls-45, .cls-46, .cls-47, .cls-48, .cls-49, .cls-50, .cls-51, .cls-52, .cls-53, .cls-54, .cls-55, .cls-56, .cls-57, .cls-58, .cls-59, .cls-60, .cls-61, .cls-62, .cls-63, .cls-64, .cls-65, .cls-66, .cls-67, .cls-68, .cls-69, .cls-70, .cls-71, .cls-72, .cls-73, .cls-74, .cls-75, .cls-76, .cls-77, .cls-78, .cls-79, .cls-80, .cls-81, .cls-82 {
        stroke-width: 0px;
      }

      .cls-2 {
        fill: #d5a6cc;
      }

      .cls-3 {
        fill: #032728;
      }

      .cls-4 {
        fill: #809575;
      }

      .cls-5 {
        fill: #d5ddcb;
      }

      .cls-6 {
        fill: #818a79;
      }

      .cls-7 {
        fill: #027083;
      }

      .cls-8 {
        fill: #11365a;
      }

      .cls-9 {
        fill: url(#linear-gradient);
      }

      .cls-10 {
        fill: #eff2bb;
      }

      .cls-11 {
        fill: #f8f2d9;
      }

      .cls-12 {
        fill: #1d1413;
      }

      .cls-13 {
        fill: #c8c5c0;
      }

      .cls-14 {
        fill: #e7d9eb;
      }

      .cls-15 {
        fill: #121523;
      }

      .cls-16 {
        fill: #0e1a25;
      }

      .cls-17 {
        fill: #e9e0d1;
      }

      .cls-18 {
        fill: #4e3b16;
      }

      .cls-19 {
        fill: #eccde2;
      }

      .cls-20 {
        fill: #00273d;
      }

      .cls-21 {
        fill: #f4cd97;
      }

      .cls-22 {
        fill: #adb1a4;
      }

      .cls-23 {
        fill: #1b393c;
      }

      .cls-24 {
        fill: #a379af;
      }

      .cls-25 {
        fill: #221a11;
      }

      .cls-26 {
        fill: #ac9764;
      }

      .cls-27 {
        fill: #abb07d;
      }

      .cls-28 {
        fill: #938a89;
      }

      .cls-29 {
        fill: #9e4592;
      }

      .cls-30 {
        fill: #5f6045;
      }

      .cls-31 {
        fill: #b1a686;
      }

      .cls-32 {
        fill: #222556;
      }

      .cls-33 {
        fill: #18c1e3;
      }

      .cls-34 {
        fill: #b55da4;
      }

      .cls-35 {
        fill: #057dba;
      }

      .cls-36 {
        fill: #4a2c69;
      }

      .cls-37 {
        fill: #f9f2f7;
      }

      .cls-38 {
        fill: #0091b8;
      }

      .cls-39 {
        fill: #004a6e;
      }

      .cls-40 {
        fill: #dfbd9b;
      }

      .cls-41 {
        fill: #26351b;
      }

      .cls-42 {
        fill: url(#linear-gradient-2);
      }

      .cls-43 {
        fill: #c2a2cc;
      }

      .cls-44 {
        fill: #a8caeb;
      }

      .cls-45 {
        fill: #b17948;
      }

      .cls-46 {
        fill: #15191a;
      }

      .cls-47 {
        fill: #d76b51;
      }

      .cls-48 {
        fill: #24172c;
      }

      .cls-49 {
        fill: #5bc9e3;
      }

      .cls-50 {
        fill: #c2e7f1;
      }

      .cls-51 {
        fill: #281225;
      }

      .cls-52 {
        fill: #90d6e9;
      }

      .cls-53 {
        fill: #c5b372;
      }

      .cls-54 {
        fill: #060508;
      }

      .cls-55 {
        fill: #eeeeef;
      }

      .cls-56 {
        fill: #866e47;
      }

      .cls-57 {
        fill: #dbe794;
      }

      .cls-58 {
        fill: #d4ccaa;
      }

      .cls-59 {
        fill: #f2dfb4;
      }

      .cls-60 {
        fill: #362e1b;
      }

      .cls-61 {
        fill: #ad884a;
      }

      .cls-62 {
        fill: #772f7d;
      }

      .cls-63 {
        fill: #0b495f;
      }

      .cls-64 {
        fill: #f7f5ea;
      }

      .cls-65 {
        fill: #5e2567;
      }

      .cls-66 {
        fill: #312c30;
      }

      .cls-67 {
        fill: #383532;
      }

      .cls-68 {
        fill: #716228;
      }

      .cls-69 {
        fill: #a1509f;
      }

      .cls-70 {
        fill: #899059;
      }

      .cls-71 {
        fill: #00666b;
      }

      .cls-72 {
        fill: #7f7f8c;
      }

      .cls-73 {
        fill: #989c9c;
      }

      .cls-74 {
        fill: #181633;
      }

      .cls-75 {
        fill: #2d3035;
      }

      .cls-76 {
        fill: #ddbb73;
      }

      .cls-77 {
        fill: #ede2a1;
      }

      .cls-78 {
        fill: #9f93c7;
      }

      .cls-79 {
        fill: #342822;
      }

      .cls-80 {
        fill: #263b82;
      }

      .cls-81 {
        fill: #084a4e;
      }

      .cls-82 {
        fill: #aee0ea;
      }
    </style>
    <linearGradient id="linear-gradient" x1="15.52" y1=".32" x2="15.52" y2="1.25" gradientUnits="userSpaceOnUse">
      <stop offset="0" stop-color="#f0f2f1"/>
      <stop offset="1" stop-color="#f3edd8"/>
    </linearGradient>
    <linearGradient id="linear-gradient-2" x1="8.1" y1="14.94" x2="22.81" y2="15.52" gradientUnits="userSpaceOnUse">
      <stop offset="0" stop-color="#583e2f"/>
      <stop offset=".52" stop-color="#35302c"/>
      <stop offset="1" stop-color="#573d30"/>
    </linearGradient>
  </defs>
  <g id="Layer_1-2" data-name="Layer 1">
    <g>
      <path class="cls-9" d="M27.13.8l.04.84c-7.75.04-15.5.08-23.25.04-.01,0-.03,0-.04,0,.03-.25-.03-.63,0-.84,0-.04.02-.16.06-.17h6.13s.09.01.11.21c.4-.04.81.01,1.21,0,.24,0,.71.05.76-.06l.02-.82h8.06l.08.67c1.87.09,5.21-.12,6.79,0,.04,0,.01.13.02.13Z"/>
      <path class="cls-17" d="M24.63,29.02l-.04.76c-.35,0-.7.04-1.06.04-.65,0-1.36.03-1.99,0-.18,0-.52,0-.55,0,0,0,0-.04-.17-.06l.04-.78c1.26,0,2.52.04,3.78.04Z"/>
      <path class="cls-55" d="M1.76,18.49c0,.59,0,1.18,0,1.77H.64c.1-1.36-.47-.65-.62-.86-.02-.03.02-.69,0-.84l1.74-.06Z"/>
      <path class="cls-13" d="M9.69,28.98l.04.8c-.84-.07-1.71.04-2.55.04-.23,0-.46-.04-.68-.04.02-.14-.02-.66,0-.7.05-.08.41.07.38-.11.93-.02,1.87,0,2.8,0Z"/>
      <path class="cls-55" d="M29.46,20.3c0-.6,0-1.21,0-1.81h1.72l.02.99c-1.1.08-.78-.39-.95.82h-.78Z"/>
      <path class="cls-17" d="M2.86,1.68c-.08.54.23.24.3.4.03.07-.04.35.02.4.24.19.15-.42.25-.46.05-.02.55-.04.49.13,0,.14.04.8-.06.84H1.8c0-.06-.08-.12-.08-.13-.01-.28,0-.56,0-.84.75-.13.27-.29.49-.38.16-.07.49.05.66.04Z"/>
      <path class="cls-55" d="M1.76,10.36c0,.38,0,.76,0,1.14-.17-.02-1.08.03-1.12,0-.05-.04.01-.17-.04-.21-.23-.16-.7.48-.57-.86l1.74-.06Z"/>
      <path class="cls-55" d="M29.42,11.42c0-.34,0-.67,0-1.01l1.72.04c.17,1.4-.27.52-.59,1.01l-1.12-.04Z"/>
      <path class="cls-55" d="M11.39.88c-.4.01-.81-.04-1.21,0-.01-.2-.1-.16-.11-.21,0-.03.05-.65.11-.67h1.15l.06.88Z"/>
      <path class="cls-22" d="M28.28,1.6c-.26,0-.52.04-.76.04-.11,0-.23,0-.34,0l-.04-.84c1.17.11,1.2-.39,1.15.8Z"/>
      <path class="cls-55" d="M25.73,29.02v.74c-.07.11-.21.05-.34.06-.23.02-.49,0-.72,0-.04,0-.04-.04-.08-.04l.04-.76c.37,0,.74,0,1.1,0Z"/>
      <path class="cls-73" d="M3.88.84c-.03.21.03.59,0,.84-.31,0-.62-.05-.93-.04l.06-.8h.87Z"/>
      <path class="cls-11" d="M26.83,29.02v.76c-.21,0-.46.09-.68.04,0,0-.07.02-.13-.06v-.74c.27,0,.54,0,.81,0Z"/>
      <path class="cls-28" d="M4.65,29.02v.76c-.24,0-.51.05-.76.04l-.04-.8c.27,0,.54,0,.81,0Z"/>
      <path class="cls-55" d="M5.33,29.74s.2.09-.59.08c-.11,0-.08-.04-.08-.04v-.76c.17,0,.41-.09.68-.02v.74Z"/>
      <path class="cls-75" d="M3.88,1.68s.03,0,.04,0c.03.16,0,.31,0,.46.06-.17-.44-.15-.49-.13-.1.04-.02.66-.25.46-.06-.05,0-.33-.02-.4-.07-.16-.38.14-.3-.4.04,0,.04-.04.08-.04.31,0,.63.04.93.04Z"/>
      <path class="cls-6" d="M1.72,2.02c0,.28-.01.56,0,.84-.57.39-.34-.41-.38-.82.04-.05.3,0,.38-.02Z"/>
      <path class="cls-22" d="M20.34,30.46s.06.04-.3.04c-.12-.97.4-1.03.3-.04Z"/>
      <path class="cls-66" d="M1.97,29.02s.02.2-.25.02l.04-.7c.06,0,.18-.02.21.02.02.03-.02.52,0,.65Z"/>
      <g>
        <path class="cls-55" d="M29.34,27.51c0,.27.05.56.04.84h-1.02c.01-.28,0-.56,0-.84h.98Z"/>
        <path class="cls-17" d="M29.38,28.35c0,.23.05.67-.06.72-.33,0-.65,0-.98,0-.03,0-.02-.08-.02-.08,0-.18-.01-.37,0-.55,0-.11.04-.08.04-.08h1.02Z"/>
        <path class="cls-58" d="M28.36,27.51c0,.28.01.56,0,.84,0,0-.04-.03-.04.08l-1.17-.04c-.28-1.23.16-.82,1.21-.88Z"/>
      </g>
      <path class="cls-17" d="M6.89,28.98c.03.17-.33.03-.38.11-.02.03.02.56,0,.7-.34,0-.68,0-1.02,0l.06-.8c.45,0,.89,0,1.34,0Z"/>
      <path class="cls-27" d="M13.09,29.02c-.01.65.17.93-.64.7v-.7c.21,0,.42,0,.64,0Z"/>
      <g>
        <path class="cls-17" d="M29.42,2.99h-1.06c.03-.31-.03-.62-.04-.93,0-.13-.02-.3.04-.42.15,0,1.04-.11,1.1-.02.04.45-.04.92-.04,1.37Z"/>
        <path class="cls-67" d="M28.28,1.6s.04.04.08.04c-.06.12-.05.29-.04.42-.25.12-.52,0-.76,0l-.04-.42c.25,0,.51-.04.76-.04Z"/>
        <path class="cls-40" d="M27.56,2.06c.24,0,.52.12.76,0,.02.31.07.62.04.93h-1.15c.43,0,.2-.44.25-.93.03,0,.06,0,.08,0Z"/>
        <path class="cls-37" d="M27.47,2.06c-.06.49.18.92-.25.93-.14-.08,0-.5-.04-.91.03-.04.24-.02.3-.02Z"/>
      </g>
      <g>
        <path class="cls-55" d="M12.45,29.02v.7c.81.23.62-.05.64-.7,1.34,0,2.69,0,4.03,0v.65c.56.07.34-.13.38-.7,1.12,0,2.23,0,3.35,0l-.04.78c.18.02.16.06.17.06l-.06.72c-.72.04-.54-.09-.57-.08.1-.99-.41-.93-.3.04-3.3.06-6.6.11-9.91.08l-.06-.78s-.27-.02-.34-.02l-.04-.8c.92,0,1.84.04,2.76.04Z"/>
        <path class="cls-73" d="M17.5,28.98c-.04.56.18.77-.38.7v-.65c.11,0,.26-.04.38-.04Z"/>
      </g>
      <g>
        <path class="cls-55" d="M1.68,27.51c.46-.02.91.04,1.36.04-.15.61.56.61.42,0,.02,0,.1-.07.38-.04.07,0,.1-.01.08.08v.78c-.71.12-1.16-.29-.93.65-.31,0-.62.05-.93.04-.04,0-.04-.04-.08-.04-.02-.13.02-.62,0-.65-.03-.04-.16-.01-.21-.02-.06-.01-.14,0-.21,0v-.84s.09,0,.13,0Z"/>
        <path class="cls-72" d="M3.46,27.55c.13.61-.58.61-.42,0,.14,0,.28,0,.42,0Z"/>
      </g>
      <g>
        <path class="cls-32" d="M5.49,21.69v.88c-.19.02-.4.06-.59.06.07.45-.26.7.3.74-.1.01-.21-.02-.3.02-.02.03,0,.5,0,.61-.02.3,0,.55,0,.84,0,.03,0,.06,0,.08,0,.35,0,.66,0,1.01.01.5.04.32.04.34,0,.04-.08.14-.08.15,0,.49.79.38.59-.15.04.01.06.03.08.06-.06.07-.06.3-.04.4-.2,0-.4-.01-.59,0-.29.02-.58.08-.87.04-.07.04-.13.71.02.67l-.13.13c.01-.1-.01-.08-.08-.08.38-1.06-.31-.52-1.02-.72h1.08c.15-.07.02-.75.02-.88,0-.17,0-.33,0-.51,0-.93,0-1.85,0-2.78l1.46-.08.02-.88s.04.04.08.04Z"/>
        <path class="cls-29" d="M6.56,25.53c-.02.77,0,.53.21.59.23.07.33-.02.55.02.03.49-.08,1.22.08,1.07.28,0,.18.93.11.97h-2.46c-.09-.6.12-.66-.19-.72l.04-.72c.2-.01.4,0,.59,0,.01.09-.04.19.06.25h.93l.02-.82c-.07-.15-.89-.01-1-.06-.04-.02-.02-.08-.02-.08l.95.04c.08-.18-.02-.48-.02-.51,0-.01,0-.03,0-.04h.13Z"/>
        <path class="cls-29" d="M3.93,21.61c0,.34,0,.67,0,1.01,0,.93,0,1.85,0,2.78-.8,0-.91-.16-.85.46-.04,0-.07.09-.13.02.09-.76-.05-.64-.04-.67,0-.03.19-.04.17-.13l-.47-.02.04-.04c.13-.02.54.02.57,0,.03-.02.04-.55.02-.57-.04-.05-.49,0-.59-.02.01-.27,0-.53,0-.8.1-.02.51.03.55-.02.06-.08.02-1.9,0-2,.24,0,.48,0,.72,0Z"/>
        <path class="cls-29" d="M6.05,23.38c0,.51.09,1.04.04,1.56,0,0,.01.08-.02.08-.08.02-.57-.11-.36.46.06.17.52.05.72.08,0,.03.1.33.02.51l-.95-.04s.02-.07-.02-.08c-.05-.02-.42.02-.57,0,0-.35,0-.66,0-1.01l.42-.02-.42-.06c0-.29-.02-.54,0-.84.62.06.56-.07.47-.63.23-.01.45,0,.68,0Z"/>
        <path class="cls-65" d="M6.05,21.69c-.18,0-.37.01-.55,0-.04,0-.04-.04-.08-.04-.25-.01-.51,0-.76,0l.06-1.05h1.32c.16.07.02.94.02,1.1Z"/>
        <path class="cls-29" d="M3.08,25.86c.29.07.56.03.85.04,0,.14.13.82-.02.88h-1.08c-.07-.02-.16.04-.21-.06v-1.66l.47.02c.02.09-.16.09-.17.13,0,.04.13-.09.04.67.05.07.09-.03.13-.02Z"/>
        <path class="cls-74" d="M4.65,21.65c.25,0,.51-.01.76,0l-.02.88-1.46.08c0-.34,0-.67,0-1.01.24,0,.48.03.72.04Z"/>
        <path class="cls-2" d="M3.2,21.61c.02.1.06,1.92,0,2-.04.05-.45,0-.55.02,0-.72.02-1.43.04-2.15.14.01.45-.02.49,0,.04.02.01.09.02.13Z"/>
        <path class="cls-65" d="M3.93,21.61c-.24,0-.48,0-.72,0,0-.04.02-.1-.02-.13-.04-.02-.34.01-.49,0,0-.12-.11-.78-.02-.84h1.23s.02.83.02.97Z"/>
        <path class="cls-62" d="M6.05,23.38c-.23,0-.45-.01-.68,0-.06,0-.11,0-.17,0-.55-.03-.22-.29-.3-.74.2,0,.4-.05.59-.06.48-.04.54.18.59-.21,0,.34-.04.68-.04,1.01Z"/>
        <path class="cls-62" d="M7.4,27.21c-.16.14-.06-.59-.08-1.07-.22-.04-.32.04-.55-.02.48.09.47-.81-.21-.59h-.13c0-.26-.04-.56.06-.63l.91.06v2.25Z"/>
        <path class="cls-62" d="M4.86,27.47c-.19-.03-.57.03-.81,0-.15.03-.09-.64-.02-.67.29.03.58-.03.87-.04l-.04.72Z"/>
        <path class="cls-62" d="M6.05,21.69c0,.22.04.45.04.67-.05.39-.11.17-.59.21v-.88c.18.01.37,0,.55,0Z"/>
        <path class="cls-37" d="M2.65,25.02c-.11-.19,0-.4,0-.59.1.02.56-.03.59.02.02.02,0,.55-.02.57-.03.02-.45-.02-.57,0Z"/>
        <path class="cls-15" d="M5.71,25.49c-.2-.58.28-.45.36-.46.04,0,.02-.08.02-.08.4-.05.27.53.25.57-.02.03-.56.02-.64-.02Z"/>
        <path class="cls-14" d="M5.49,26.03s-.02.07.02.08c.11.05.93-.08,1,.06l-.02.82h-.93c-.1-.07-.05-.16-.06-.25-.01-.1-.02-.33.04-.4-.03-.03-.05-.05-.08-.06-.08-.03-.36.02-.51,0,0-.02-.03.16-.04-.34.15.02.52-.02.57,0,.04.02.02.08.02.08Z"/>
        <path class="cls-55" d="M3.93,25.4c0,.17,0,.33,0,.51-.29,0-.56.03-.85-.04-.07-.62.04-.47.85-.46Z"/>
        <path class="cls-55" d="M5.2,23.38c.06,0,.11,0,.17,0,.1.56.15.69-.47.63,0-.11-.02-.59,0-.61.09-.04.2-.01.3-.02Z"/>
        <path class="cls-46" d="M5.45,26.29c.19.53-.59.64-.59.15,0,0,.09-.11.08-.15.15.02.43-.03.51,0Z"/>
        <path class="cls-65" d="M4.9,24.94s0-.06,0-.08l.42.06-.42.02Z"/>
        <path class="cls-80" d="M6.77,26.12c-.22-.06-.23.18-.21-.59.68-.22.7.68.21.59Z"/>
      </g>
      <g>
        <path class="cls-15" d="M27.17,1.64c.11,0,.23,0,.34,0l.04.42s-.06,0-.08,0c-.06,0-.27-.02-.3.02.04.4-.1.82.04.91h2.21c-.02,2.47,0,4.94,0,7.41,0,.34,0,.67,0,1.01,0,2.36.05,4.72.04,7.08,0,.6,0,1.21,0,1.81,0,2.38.03,4.8-.04,7.18,0,.03-.08.02-.08.02h-.98c-1.05.06-1.49-.35-1.21.88l1.17.04c-.01.18,0,.37,0,.55-.49,0-.99.04-1.48.04-.27,0-.54,0-.81,0-.1,0-.2,0-.3,0-.37,0-.74,0-1.1,0-1.26,0-2.52-.04-3.78-.04-1.12,0-2.23,0-3.35,0-.13,0-.27.04-.38.04-1.34,0-2.69,0-4.03,0-.21,0-.42,0-.64,0-.92,0-1.84-.05-2.76-.04-.93,0-1.87-.02-2.8,0-.45,0-.89,0-1.34,0l-.06.8c-.13,0-.14-.04-.17-.04v-.74c-.27-.07-.51.02-.68.02-.27,0-.54,0-.81,0-.28,0-.57,0-.85,0-.23-.94.22-.54.93-.65v-.78l.13-.13c.23.03.62-.03.81,0,.31.06.1.11.19.72h2.46c.08-.03.17-.97-.11-.97v-2.25l-.91-.06c-.1.08-.06.37-.06.63,0,.01,0,.03,0,.04-.2-.04-.66.09-.72-.08.08.04.62.05.64.02.02-.04.14-.61-.25-.57.05-.52-.04-1.04-.04-1.56,0-.33.05-.67.04-1.01,0-.23-.04-.45-.04-.67,0-.16.14-1.03-.02-1.1h-1.32l-.06,1.05c-.24,0-.48-.03-.72-.04,0-.13.02-.94-.02-.97h-1.23c-.09.06.02.72.02.84-.02.72-.03,1.43-.04,2.15,0,.27.01.53,0,.8,0,.19-.11.4,0,.59l-.04.04v1.66c.06.1.14.04.21.06.71.2,1.4-.34,1.02.72-.28-.03-.36.04-.38.04-.14,0-.28,0-.42,0-.45,0-.9-.07-1.36-.04.13-2.41.08-4.83.08-7.25,0-.59,0-1.18,0-1.77,0-2.33,0-4.66,0-6.99,0-.38,0-.76,0-1.14,0-2.24.1-5.32.04-7.37h2.06c.11-.05.06-.7.06-.84,0-.15.03-.31,0-.46,7.75.04,15.5,0,23.25-.04Z"/>
        <g>
          <path class="cls-29" d="M24.9,16.18h3.44l.06,3.35-3.46.06v-1.43h2.76l.06-.74-2.91-.02.04-1.22Z"/>
          <path class="cls-29" d="M2.67,16.22h3.48v1.18l-2.57.06.02.74,2.46-.04.06,1.37-3.5.02.04-3.33Z"/>
          <path class="cls-65" d="M8.83,4.72h2.55l.02,1.07-2.52.06-.11-.11.06-1.03Z"/>
          <path class="cls-65" d="M20.19,4.72h2.12l.02,1.12-2.14.06v-1.18Z"/>
          <path class="cls-65" d="M21.64,25.02c.24,0,.5.07.74.06l-.02,1.07-2.14-.02.02-1.07c.46.05.95-.05,1.4-.04Z"/>
          <path class="cls-17" d="M12.09,26.88l1.4.04.02,1.2-1.46.06.04-1.31Z"/>
          <path class="cls-65" d="M14.51,4.72h1.53l.06,1.12-1.59.06v-1.18Z"/>
          <path class="cls-65" d="M14.51,25.06h1.53l.06,1.07-1.59.06v-1.14Z"/>
          <path class="cls-65" d="M14.51,27.09h1.57l.06,1.07-1.63.02v-1.1Z"/>
          <path class="cls-29" d="M4.67,10.78h1.44l.02,1.16-1.46.02v-1.18Z"/>
          <path class="cls-29" d="M14.98,2.65c.09,0,1.09.02,1.12.06l-.02,1.12-1.55-.02v-1.1c.19,0,.42-.06.45-.06Z"/>
          <path class="cls-65" d="M12.18,4.68h1.4l.06,1.16-1.46.02v-1.18Z"/>
          <path class="cls-29" d="M25.12,10.78c.23-.05.89.03,1.23,0l.02,1.16-1.46.02-.02-1.12c.17-.01.22-.06.23-.06Z"/>
          <path class="cls-11" d="M12.05,2.65h1.48l.02,1.07-1.55.02.04-1.1Z"/>
          <g>
            <path class="cls-29" d="M18.24,2.65h1.23l.02,1.16-1.29.02.04-1.18Z"/>
            <path class="cls-65" d="M18.2,4.72h1.27l.06,1.12-1.34.02v-1.14Z"/>
          </g>
          <g>
            <path class="cls-65" d="M18.14,26.16v-1.1c.46,0,.92,0,1.38,0l.02,1.07c-.07.16-1.21.02-1.4.02Z"/>
            <path class="cls-65" d="M18.16,27.09h1.32l.02,1.03-1.29.06-.04-1.1Z"/>
          </g>
          <path class="cls-15" d="M27.22,27.42c.04-.22-.03-.45-.04-.63.39,0,.8-.05,1.19-.04.31,0,.64.05.95.04.04.06.04.59,0,.63-.07.08-1.88,0-2.1,0Z"/>
          <path class="cls-65" d="M16.67,2.65l.95.06-.06,1.16-.95-.06.06-1.16Z"/>
          <path class="cls-65" d="M17.59,25.06l.04,1.1c-.15,0-.99.14-1.06-.02v-1.01c.05-.11.84-.06,1.02-.06Z"/>
          <path class="cls-65" d="M16.67,4.72l1,.06-.06,1.07-1-.02.06-1.12Z"/>
          <path class="cls-65" d="M16.59,27.09l1.04.02-.02,1.07-1.04-.02.02-1.07Z"/>
          <g>
            <path class="cls-65" d="M11.09,25.06v1.1c-.7,0-1.4,0-2.1,0l-.06-1.07c.72-.04,1.44-.01,2.16-.02Z"/>
            <path class="cls-65" d="M11.99,26.12l.04-1.05c.5,0,1,0,1.51,0l.02,1.07c-.06.09-1.37-.02-1.57-.02Z"/>
            <path class="cls-32" d="M12.03,25.06l-.04,1.05c-.29,0-.59.04-.89.04v-1.1c.31,0,.62,0,.93,0Z"/>
          </g>
          <path class="cls-74" d="M18.14,25.06v1.1c-.18,0-.33,0-.51,0l-.04-1.1c.18,0,.37,0,.55,0Z"/>
          <path class="cls-82" d="M20.6,7.41s-.12.04-.13.04c-.07.01-.17,0-.25,0-.07,0-.14,0-.21,0,.03-.61-.2-.99.59-.74v.7Z"/>
          <path class="cls-36" d="M14.36,7.92c-.19,0-.38,0-.57,0-.04-.03-.02-.46-.02-.55h.21l.34-.04c0,.17.08.39.04.59Z"/>
          <path class="cls-55" d="M14.28,6.66c.08.2.03.45.04.67l-.34.04v-.65c.07-.1.19-.06.3-.06Z"/>
          <g>
            <path class="cls-17" d="M9.74,28.14c-.01-.55.13-.58-.38-.55v-.67c.2-.02,1.51-.12,1.57.02v1.18s-1.03.02-1.19.02Z"/>
            <path class="cls-26" d="M9.36,26.92v1.26c-.15,0-.3,0-.45,0l-.11-.11v-1.14s.46-.01.55-.02Z"/>
            <path class="cls-4" d="M9.74,28.14c-.21,0-.3.04-.38.04v-.59c.51-.04.37,0,.38.55Z"/>
          </g>
          <g>
            <path class="cls-53" d="M9.31,2.65c0,.2.01.39,0,.59,0,.16-.08.34-.04.51-.09,0-.48.02-.51-.02v-1.05s.46-.02.55-.02Z"/>
            <path class="cls-56" d="M9.65,3.75c-.13,0-.26,0-.38,0-.04-.17.03-.34.04-.51.44-.05.33.09.34.51Z"/>
            <g>
              <path class="cls-17" d="M9.78,2.65c-.16.68.59.56.34,0,.12,0,.78-.02.81.02v1.05c-.42.03-.85.03-1.27.02,0-.42.1-.55-.34-.51.01-.2,0-.39,0-.59.15,0,.31,0,.47,0Z"/>
              <path class="cls-31" d="M10.12,2.65c.25.56-.5.68-.34,0,.11,0,.23,0,.34,0Z"/>
            </g>
          </g>
          <g>
            <g>
              <path class="cls-27" d="M21.62,3.79c-.03-.23,0-.45,0-.67.46-.04.59.18.64-.34.04.16-.03.69,0,.95-.08.11-.36.05-.64.06Z"/>
              <path class="cls-70" d="M22.25,2.78c-.04.52-.18.3-.64.34,0-.15,0-.31,0-.46.2,0,.41,0,.62,0,.04.02.01.09.02.13Z"/>
            </g>
            <g>
              <path class="cls-55" d="M21.19,2.65c-.16.64.47.69.34,0,.03,0,.06,0,.08,0,0,.15,0,.31,0,.46,0,.23-.03.45,0,.67-.18,0-1.36.04-1.4-.06v-1.01c.05-.11.77-.06.98-.06Z"/>
              <path class="cls-55" d="M21.53,2.65c.13.69-.5.64-.34,0,.11,0,.23,0,.34,0Z"/>
            </g>
          </g>
          <g>
            <path class="cls-29" d="M28.36,21.65c.02,1,.01,2-.04,2.99-.77-.2-.8.72-.04.55-.15.1-.33-.02-.47.08-.19,0-.46-.02-.64.04,0-.04,0-.08,0-.13,0-.27,0-.53,0-.8.74.33.58-.56.55-.61-.04-.05-.42,0-.51-.02,0-.68-.07-1.38-.08-2.06l1.23-.04Z"/>
            <path class="cls-32" d="M27.17,25.19s0,.08,0,.13c0,.17.04.35.04.51,0,.32-.06.64-.04.97-.38,0-.44.04-.47.04-.12,0-.28-.04-.42-.04-.03,0-.06,0-.08,0,.08-.14.03-.31.04-.46,0-.01.03-.04.04-.25.03-.82-.04-1.63-.04-2.44,0-.28.09-.59.04-.88.04,0,.48-.1.81-.02l.08,2.46Z"/>
            <path class="cls-62" d="M25.56,21.69v.99c.24,0,.49.06.72.06.05.29-.04.6-.04.88l-.85-.04c.05-.44-.03-.44-.47-.34-.07-.51-.05-1.05-.04-1.56h.68Z"/>
            <path class="cls-65" d="M25.56,21.69h-.68c0-.16-.04-1.02.06-1.05l1.46.06v.93l-.85.06Z"/>
            <path class="cls-65" d="M28.36,21.65l-1.23.04c0-.15-.13-.99.02-1.05h1.15c.11.05.06.84.06,1.01Z"/>
            <path class="cls-34" d="M28.36,25.82c.02.31-.01.62,0,.93-.38,0-.8.04-1.19.04-.01-.33.05-.65.04-.97h1.15Z"/>
            <path class="cls-55" d="M27.81,25.27c.24,0,.47-.04.55.06,0,.16,0,.32,0,.48h-1.15c0-.16-.04-.34-.04-.51.17-.07.44-.05.64-.04Z"/>
            <path class="cls-37" d="M27.17,24.39c0-.21.04-.43.04-.63.09.02.47-.03.51.02.03.05.18.94-.55.61Z"/>
            <path class="cls-29" d="M27.17,26.79c0,.19.08.41.04.63-.03,0-.07.05-.51.08v-.67s.08-.04.47-.04Z"/>
            <path class="cls-37" d="M28.32,24.64s.15.42-.04.55c-.76.18-.73-.75.04-.55Z"/>
            <path class="cls-65" d="M26.71,26.83v.67c-.14,0-.3-.02-.42,0v-.72c.14,0,.3.04.42.04Z"/>
            <path class="cls-15" d="M24.93,25.02c.09.01.38-.03.42.02.01.02,0,.43-.02.44-.27.13-.81,0-.62-.42.02,0,.06-.06.21-.04Z"/>
            <path class="cls-2" d="M25.39,23.59s-.1.03-.13.08c-.5-.08-.29-.05-.34-.42.43-.11.51-.11.47.34Z"/>
            <path class="cls-14" d="M25.6,26.07v.25c-.03.32.05.44.04.46,0,.01-.05,0-.06.21l-.87-.02v-.84c.05-.11.65-.06.89-.06Z"/>
            <path class="cls-15" d="M26.24,26.33c-.01.15.04.32-.04.46-.18,0-.37,0-.55,0,0-.02-.08-.14-.04-.46h.64Z"/>
            <g>
              <path class="cls-29" d="M26.24,23.63c0,.81.07,1.63.04,2.44-.22-.1-.45,0-.68,0-.24,0-.84-.05-.89.06v.84l.87.02c.02-.21.06-.2.06-.21.18,0,.37,0,.55,0,.03,0,.06,0,.08,0v.72c-.06,0-.18-.02-.21.02-.02.11.03.61-.02.65-.1.07-2.25-.04-2.57-.02l.08-3.16s.99-.03,1.12-.02c.03,0,.02.08.02.08-.2.42.35.55.62.42.02,0,.04-.43.02-.44-.04-.05-.34-.01-.42-.02-.21-1.5.18-1,.32-1.1.05-.04,0-.21.02-.25.03-.05.08-.06.13-.08l.85.04Z"/>
              <path class="cls-16" d="M23.84,25.57c.41-.18.35.47.3.51-.36.25-.48-.42-.3-.51Z"/>
            </g>
            <path class="cls-43" d="M26.28,26.07c0,.21-.04.24-.04.25h-.64v-.25c.23,0,.45-.1.68,0Z"/>
          </g>
          <g>
            <path class="cls-29" d="M2.67,12.93h3.44l.02,2.42-3.46.02v-2.44Z"/>
            <path class="cls-14" d="M5.11,13.77v.76c-.44.05-.86.05-1.29.04l-.06-.74c.04-.09,1.2-.08,1.36-.06Z"/>
            <path class="cls-51" d="M5.11,14.53v-.76c.07,0,.41.05.42.06.02.03-.02.54,0,.67-.03.05-.34.01-.42.02Z"/>
          </g>
          <g>
            <path class="cls-29" d="M24.9,12.93h3.48l.02,2.42-3.46.06-.04-2.49Z"/>
            <path class="cls-14" d="M27.47,13.77v.76c-.54.08-1.03.02-1.57,0l.04-.72s.03-.08.06-.08c.32,0,1.22.02,1.46.04Z"/>
            <path class="cls-62" d="M25.94,13.82l-.04.72s-.22.1-.51.02v-.8c.36-.09.52.06.55.06Z"/>
            <path class="cls-15" d="M27.47,14.53v-.76c.07,0,.41.05.42.06.02.03-.02.5,0,.63-.05.11-.29.04-.42.06Z"/>
          </g>
          <g>
            <g>
              <path class="cls-32" d="M27.17,4.21c0,.11.04.08.04.08.03.63,0,1.27,0,1.9,0,.13,0,.25,0,.38,0,.35-.04.71-.04,1.05,0,.31.04.63.04.93,0,.42,0,.84,0,1.26,0,.71-.09,1.43-.04,2.15l-.08-.02.04-2.11s-.72-.06-.81-.06c.04-.24-.03-.49-.04-.72-.02-.39,0-.79,0-1.18,0-.97,0-1.94,0-2.91,0-.24.02-.48,0-.72.29,0,.6-.09.89-.04Z"/>
              <path class="cls-36" d="M26.66,3.62c.18,0,.34.04.51.04,0,.18-.01.37,0,.55-.29-.04-.6.04-.89.04-.26,0-.2-.04-.21-.04.09-.09,0-.53.11-.59.07-.04.36,0,.49,0Z"/>
            </g>
            <path class="cls-48" d="M26.66,3.62c-.12,0-.42-.04-.49,0-.1.06-.01.5-.11.59-.14,0-.44.04-.47.04-.04,0-.05-.04-.08-.04.04-.09,0-.54,0-.57.02-.06.55-.1.64-.11.3-.01.56-.03.51.08Z"/>
            <g>
              <path class="cls-29" d="M28.32,6.99c0,1.65.08,3.3.04,4.95l-1.19.02c-.05-.71.04-1.44.04-2.15.1-.02.41.06.47-.06.02-.05.02-1.09,0-1.14-.05-.12-.37-.04-.47-.06,0-.3-.04-.62-.04-.93,1.17.3-.09-.84,1.15-.63Z"/>
              <path class="cls-34" d="M28.36,6.28c-1.12-.12-.2.4-1.15.29,0-.13,0-.25,0-.38.09-.02.47.03.51-.02.06-.08.04-1.81,0-1.9-.04-.09-.55-.11-.51.02,0,0-.04.03-.04-.08-.01-.18,0-.37,0-.55.16,0,1.15-.03,1.19.02,0,.86,0,1.73,0,2.59Z"/>
              <path class="cls-14" d="M28.36,6.28c0,.24-.04.49-.04.72-1.24-.21.02.93-1.15.63,0-.35.04-.7.04-1.05.95.11.02-.42,1.15-.29Z"/>
              <path class="cls-14" d="M27.22,6.19c0-.63.03-1.27,0-1.9-.04-.14.47-.11.51-.02.04.09.06,1.82,0,1.9-.04.05-.42,0-.51.02Z"/>
              <path class="cls-19" d="M27.22,9.81c0-.42,0-.84,0-1.26.1.02.41-.06.47.06.02.05.02,1.09,0,1.14-.05.12-.37.04-.47.06Z"/>
            </g>
            <g>
              <path class="cls-29" d="M25.09,2.74c-.11,1.28.27.7.38.86.07.1-.09.51.04.61.04,0,.04.04.08.04.02.13-.02.58,0,.61.06.09.69-.08.68.11,0,.97,0,1.94,0,2.91h-1.32s0-.06,0-.08c.49.16.49-.82,0-.67,0-.69.05-2.1,0-2.57,0-.07.02-.26-.02-.29-.02-.01-.45-.01-.47,0-.05.03-.01.27-.02.34-.01.12-.04.27-.04.38h-.89c0-.18-.1-1.16-.04-1.24.05-.06.85.14.59-.42-.06-.14-.5-.01-.55-.08-.01-.02-.01-.44,0-.46.05-.06,1.38-.02,1.57-.02Z"/>
              <path class="cls-14" d="M26.28,7.88c0,.39-.02.79,0,1.18-.74.04-.56-.08-.59-.08.19-.37-.42-.42-.57-.34-.02,0,.02.32-.02.38-.04,0-.09,0-.13,0,0-.38,0-.76,0-1.14h1.32Z"/>
              <path class="cls-29" d="M26.28,9.06c0,.22.08.48.04.72-.19,0-1.29.1-1.38.04-.08-.25.02-.59.02-.8.04,0,.09,0,.13,0,.47.1.56-.04.59-.04.03,0-.15.13.59.08Z"/>
              <path class="cls-29" d="M26.16,3.54c-.09,0-.62.05-.64.11,0,.03.04.48,0,.57-.13-.1.03-.51-.04-.61-.11-.16-.49.42-.38-.86.35,0,.69,0,1.04,0l.02.8Z"/>
              <path class="cls-65" d="M24.42,4.97s.1.48.02.76h-.93c-.08-.31.02-.72.02-.76h.89Z"/>
              <path class="cls-34" d="M24.97,7.79c0-.22,0-.45,0-.67.49-.14.49.84,0,.67Z"/>
              <path class="cls-63" d="M24.97,4.55l-.51.04c0-.07-.02-.31.02-.34.02-.01.45-.01.47,0,.04.03.01.23.02.29Z"/>
              <path class="cls-29" d="M26.07,4.21s-.05.04.21.04c.02.24,0,.48,0,.72,0-.19-.61-.02-.68-.11-.02-.03.02-.48,0-.61.02,0,.32-.05.47-.04Z"/>
              <path class="cls-46" d="M25.69,8.97s-.13.14-.59.04c.04-.06,0-.37.02-.38.16-.08.76-.03.57.34Z"/>
            </g>
          </g>
          <g>
            <path class="cls-32" d="M4.9,4.34c-.07.17-.04.4-.04.59,0,.11,0,.22,0,.34,0,.41.04.82.04,1.22,0,.35,0,.7,0,1.05,0,.14,0,.28,0,.42,0,.35-.04.7-.04,1.05,0,.27,0,.53,0,.8h-.93c.01-.77-.04-1.55-.04-2.32,0-.28,0-.56,0-.84,0-.15,0-.31,0-.46,0-.31,0-.62,0-.93,0-.33.08-.68.04-1.01.72-.06.92.08.98.08Z"/>
            <path class="cls-29" d="M7.23,5.81c-.02-.15.03-.6,0-.65-.05-.08-.56-.06-.68-.06-.01-.27.04-.58-.04-.84.14-.11-.48-.18-.55.06-.12.39.33.88-.51.74,0-.02,0-.06,0-.08.02-.21-.01-.4,0-.61,0-.04.08.03.08-.11,0-.23,0-.47,0-.7-.03-.04-.38-.02-.47-.02l-.02-.8,2.52.06v.59c-.05.12-1.07.05-.13.17v2.23s-.16.01-.21.02Z"/>
            <path class="cls-29" d="M6.51,4.25c-.09.02-.43-.03-.47.02-.16.22.12,4.81,0,5.48l-1.19.06c0-.27,0-.53,0-.8.89.29.56-.47.55-1.05,0-.48-.08-.4-.08-.42,0,0,.09.01.08-.02-.03-.79.2-1.39-.51-1.03,0-.4-.04-.81-.04-1.22.77.02.53,0,.59-.21.84.14.39-.34.51-.74.07-.24.7-.17.55-.06Z"/>
            <path class="cls-15" d="M5.07,3.54c.08,0,.44-.02.47.02,0,.23,0,.47,0,.7-.15.07-.38.05-.55.04l-.06-.72c-.33-.04-.67.04-1,.04-.42,0-.83,0-1.25,0-.04.03-.02.5-.02.59,0,.14,0,.28,0,.42,0,.13,0,.25,0,.38,0,.18,0,.37,0,.55,0,.2,0,.39,0,.59,0,.25,0,.51,0,.76,0,.55,0,1.1,0,1.64v3.33s-.07.02-.08-.02V3.64c.05-.11,2.24-.12,2.5-.11Z"/>
            <path class="cls-80" d="M7.23,5.81c-.1.01-.64.03-.68-.06,0-.22,0-.44,0-.65.12,0,.63-.02.68.06.03.05-.02.5,0,.65Z"/>
            <path class="cls-65" d="M4.99,4.3c-.11,0-.08.04-.08.04-.05,0-.25-.15-.98-.08v-.63c.32,0,.67-.09,1-.04l.06.72Z"/>
            <path class="cls-37" d="M5.41,7.96c0,.59.34,1.34-.55,1.05,0-.35.04-.71.04-1.05h.51Z"/>
            <path class="cls-37" d="M5.33,7.54h-.42c0-.35,0-.7,0-1.05.71-.36.48.24.51,1.03,0,.03-.09.02-.08.02Z"/>
            <path class="cls-34" d="M5.45,4.97l-.59-.04c0-.19-.03-.42.04-.59,0,0-.02-.05.08-.04.17,0,.4.02.55-.04,0,.13-.08.07-.08.11-.01.21.02.4,0,.61Z"/>
            <path class="cls-78" d="M5.45,4.97s0,.06,0,.08c-.06.22.18.23-.59.21,0-.11,0-.22,0-.34l.59.04Z"/>
            <path class="cls-24" d="M4.99,7.54l-.04.42h-.04c0-.14,0-.28,0-.42h.08Z"/>
            <path class="cls-54" d="M5.33,7.54s.08-.06.08.42h-.47l.04-.42h.34Z"/>
            <g>
              <path class="cls-29" d="M3.88,7.5c0,.77.06,1.54.04,2.32-.01.71-.03,1.42-.04,2.13-.35-.01-1.05.18-1.23-.06v-.88c.1-.02.51.03.55-.02.07-.1.07-2.3,0-2.4-.02-.02-.45-.05-.55-.02,0-.55,0-1.1,0-1.64,1.48-.18.17.73,1.23.59Z"/>
              <path class="cls-37" d="M3.88,5.27c0,.3,0,.62,0,.93-.89-.16-.92.63,0,.46,0,.28,0,.56,0,.84-1.06.14.25-.77-1.23-.59,0-.25,0-.51,0-.76.64.2.5-.53.47-.57-.04-.05-.38,0-.47-.02,0-.18,0-.37,0-.55,1-.11.18.37,1.23.25Z"/>
              <path class="cls-29" d="M3.93,3.62v.63c.04.34-.04.68-.04,1.01-1.05.11-.23-.36-1.23-.25,0-.13,0-.25,0-.38.74.15.73-.56,0-.42,0-.09-.02-.56.02-.59.42,0,.83,0,1.25,0Z"/>
              <path class="cls-69" d="M3.88,6.19c0,.15,0,.31,0,.46-.92.17-.89-.63,0-.46Z"/>
              <path class="cls-2" d="M2.65,10.99v-2.44c.1-.03.54,0,.55.02.07.1.07,2.3,0,2.4-.04.05-.45,0-.55.02Z"/>
              <path class="cls-62" d="M2.65,6.15c0-.2,0-.39,0-.59.09.02.43-.03.47.02.03.04.17.77-.47.57Z"/>
              <path class="cls-55" d="M2.65,4.63c0-.14,0-.28,0-.42.73-.14.74.58,0,.42Z"/>
            </g>
          </g>
          <g>
            <path class="cls-5" d="M20.89,27.42c.12,0,.22.02.34.04.21.04.2.08.21.08-.19.13-.13.43.21.34,0,.02.12-.1.04.25-.46.02-.92.07-1.38.04-.1-.04-.07-.64-.06-.76.21.01.43-.01.64,0Z"/>
            <path class="cls-56" d="M21.7,28.14c.08-.35-.04-.24-.04-.25,0-.03.08-.22.08-.23,0-.1-.08-.1-.08-.11,0-.03.08-.33.04-.59.03,0,.57-.13.64.02v1.14c-.07.15-.6.02-.64.02Z"/>
            <path class="cls-55" d="M21.7,26.96c.04.26-.04.56-.04.59-.07,0-.15.01-.21,0-.01,0,0-.05-.21-.08.11-.61-.45-.69-.34-.04-.21-.01-.43.01-.64,0,.01-.21-.05-.43.06-.51.46-.03.92.02,1.38.04Z"/>
            <path class="cls-55" d="M21.23,27.47c-.12-.02-.22-.03-.34-.04-.11-.65.45-.57.34.04Z"/>
            <path class="cls-23" d="M21.45,27.55c.06.01.15,0,.21,0,0,0,.08,0,.08.11,0,.01-.08.2-.08.23-.34.09-.41-.21-.21-.34Z"/>
          </g>
          <g>
            <path class="cls-11" d="M23.27,24.1h-8.51c-.09-.06-.05-.11-.06-.17l7.32.04.06-1.26c.13,0,.9.02.93-.02,0-1.72,0-3.44,0-5.16l.08-.02c-.06-1.1.08-6.44,0-6.78,0-.03-.06-.02-.08-.02,0-.93,0-1.87,0-2.8-.83,0-1.67-.06-2.5-.06l-.04-.38s.1-.03.13-.04c.04-.01.14.03.17-.02l.06-.74,3.12.06v17.02c-.35.21-.65-.18-.68.36Z"/>
            <path class="cls-11" d="M8,9.94c-.06,4.27.04,8.54,0,12.81-.04.58-.32.97-.11,1.26h1.74c.09-.17.02-.23.02-.34.05,0,.12,0,.17,0,.75.12.31-.16.62-.25.17-.05.27-.03.28.13-.4-.1-.29,0-.34.21-.01.06-.04.04-.04.04-.29-.1-.43-.07-.38.25-.36,0-2.03.13-2.23.04-.18-.08.22-.35-.57-.32,0-2.46,0-4.93,0-7.39.03,0,.08.01.08-.02.08-.32-.06-4.3,0-5.22.6.12.14-.71.47-.7.01.41-.08.84.13,1.2h.08c.05-.56-.1-1.48.08-1.71Z"/>
            <path class="cls-59" d="M20,7.46c.07,0,.14,0,.21,0v.42c-1.84,0-3.68.04-5.52,0l.06-1.26h4.84l.02.78c.07.11.23.05.38.06Z"/>
            <path class="cls-17" d="M7.66,6.61c-.08.42,0,.84,0,1.26.01.86.01,1.71.04,2.57-.33-.02.13.81-.47.7-.06.92.08,4.9,0,5.22,0,.03-.06.02-.08.02,0-3.24,0-6.47,0-9.71.08-.11.3-.05.51-.06Z"/>
            <path class="cls-15" d="M14.74,22.79c0,.31-.09.87-.04,1.14.01.06-.02.11.06.17h8.51l-8.55.04s-.1-.12-.11-.13c-.01-.04.03-.78.04-.88.01-.1,0-.21,0-.32l.08-.02Z"/>
            <path class="cls-75" d="M14.7,7.88s-.21.05-.34.04c.04-.2-.03-.42-.04-.59-.01-.22.04-.47-.04-.67.66-.05.25.34.42,1.22Z"/>
            <path class="cls-79" d="M14.66,23.13c-.01.1-.06.84-.04.88-.17.21-.19-.11-.17-.4-.09-.08-.16.02-.17.02-.03,0-.06,0-.08,0,0-.04-.01-.04-.04-.04,0-.38.08-.41-.3-.38.07-.15.64-.06.81-.08Z"/>
            <path class="cls-49" d="M14.19,23.63s.06,0,.08,0c.16-.06.15.37.13.4-.03.04-.86.25-.64-.4.14,0,.28,0,.42,0Z"/>
            <path class="cls-30" d="M10.33,23.8c-.01.08,0,.17,0,.25-.13,0-.25,0-.38,0-.05-.32.09-.36.38-.25Z"/>
            <path class="cls-77" d="M8,9.81s0,.08,0,.13c-.18.23-.04,1.14-.08,1.71h-.08c-.21-.36-.11-.79-.13-1.2-.03-.85-.03-1.71-.04-2.57.1-.05.27-.04.3.02.04.09-.09,1.66.04,1.92Z"/>
            <path class="cls-41" d="M20.47,7.46l.04.38s-.04.04-.3.04v-.42c.08,0,.18.01.25,0Z"/>
            <path class="cls-77" d="M14.15,23.59c-.21-.02-.45-.04-.3-.38.38-.03.29,0,.3.38Z"/>
            <g>
              <path class="cls-59" d="M12.92,6.66l-.02,1.22h-4.84c-.08.64-.05,1.29-.06,1.94-.13-.25,0-1.83-.04-1.92-.02-.06-.19-.07-.3-.02,0-.42-.08-.84,0-1.26.32-.02,2.7-.07,2.82,0,.08.05-.09.36,0,.42.3.21.22-.4.25-.42.09-.06,1.93.03,2.18.04Z"/>
              <path class="cls-46" d="M9.93,7.03c.37-.16.3.39.25.42-.27.2-.45-.34-.25-.42Z"/>
            </g>
            <g>
              <path class="cls-59" d="M12.92,23.63c-.01.19.04.39-.06.46-.84.05-1.69-.05-2.52-.04,0-.08-.01-.17,0-.25,0,0,.03.02.04-.04.31.1.36.09.34-.21,0-.16-.11-.18-.28-.13-.3.1.14.38-.62.25.12-.17.04-.38-.15-.29-.14.07-.02.28-.02.29,0,.11.07.17-.02.34h-1.74c-.22-.29.07-.68.11-1.26h4.86c.1.04.07.75.06.88Z"/>
              <path class="cls-12" d="M10.71,23.55c.02.3-.03.31-.34.21.05-.21-.06-.31.34-.21Z"/>
              <path class="cls-60" d="M9.82,23.67c-.05,0-.11,0-.17,0,0-.01-.12-.23.02-.29.19-.09.27.12.15.29Z"/>
              <path class="cls-60" d="M10.01,23.13c.45-.2.41.48,0,.29-.09-.04-.09-.25,0-.29Z"/>
            </g>
            <g>
              <path class="cls-59" d="M22.08,22.71l-.06,1.26-7.32-.04c-.05-.27.04-.83.04-1.14.66.05,5.31-.2,5.54-.04.05.03.02,1.22.25-.04.52,0,1.03.01,1.55,0Z"/>
              <path class="cls-12" d="M19.77,23.29c.41-.18.43.32.34.38-.27.19-.59-.27-.34-.38Z"/>
            </g>
            <g>
              <path class="cls-42" d="M13.77,7.37c0,.09-.02.52.02.55.19,0,.38,0,.57,0,.13,0,.32-.04.34-.04,1.84.04,3.68,0,5.52,0,.25,0,.28-.04.3-.04.83,0,1.67.07,2.5.06,0,.93,0,1.87,0,2.8.01,2.27,0,4.55,0,6.82,0,1.72,0,3.44,0,5.16-.03.04-.8.02-.93.02-.52.01-1.03,0-1.55,0-.23,1.26-.21.08-.25.04-.23-.16-4.88.09-5.54.04l-.08.02c0,.1.01.21,0,.32-.17.03-.74-.07-.81.08-.15.34.08.35.3.38.03,0,.05,0,.04.04-.14,0-.28,0-.42,0-.28,0-.57,0-.85,0,0-.13.04-.84-.06-.88h-4.86c.04-4.27-.06-8.54,0-12.81,0-.04,0-.08,0-.13.01-.65-.02-1.29.06-1.94h4.84l.02-1.22c.26.02.53-.01.78,0,.11.05.05.48.06.72Z"/>
              <g>
                <path class="cls-17" d="M15,9.73v.51c-1.19.16-2.93,0-4.2.04l.02-1.26h4.12l.06.72Z"/>
                <path class="cls-11" d="M14.96,21.57s.02.07-.02.08h-4.2s-.02-1.05-.02-1.2c0-.03.08-.02.08-.02l4.14-.04.02,1.18Z"/>
                <path class="cls-11" d="M20.13,10.24c-.07-.03-.3.04-.34-.02-.03-.04.04-.57-.02-.61-.02-.01-.47,0-.49.02-.03.04.04.57-.02.61-.13.09-2.75-.07-3.14,0-.04-.03-.02-.46-.02-.55,0-.11-.04-.63.06-.67h3.99c.09.04.12,1.15-.02,1.22Z"/>
                <path class="cls-11" d="M20.17,20.39c0,.18.13,1.18-.02,1.26-.63.32-.2-1.02-.47-.84-.07.05.03.79-.04.84-1.16.09-2.32-.01-3.48,0l.02-1.26c.86-.02,1.71.01,2.57,0,.09.59-.22,1,.62.74.18-.4-.51-.87.81-.74Z"/>
                <path class="cls-61" d="M21.57,13.35c0,1.22,0,2.44-.04,3.66l-.72-.04c-.03-.55,0-1.09-.04-1.64-.01-.15-.02-.27-.04-.42,0-.01.11-.16-.02-.21-.16-.06-.43.3-.32-.88.1-.01.38.02.4,0,.04-.03.02-.19.02-.25,0-.08,0-.17,0-.25.25.01.53-.04.76.04Z"/>
                <path class="cls-59" d="M9.57,17.65c.17-.02.41.02.59,0,0,0,.04-.03.04.08,0,.53-.01,1.07,0,1.6,0,.13-.02.94.02.97.02.01.43,0,.45-.02.03-.04-.02-.8,0-.95.14.05.09.78.08.97l-1.4-.02v-2.61s.16-.01.21-.02Z"/>
                <path class="cls-59" d="M21.57,13.35c-.23-.08-.52-.03-.76-.04-.07,0-.69.02-.4-.17.31-.2.37.47.4-.67.03,0,.07.01.08-.02.14-.39-.27-1.66,0-2.13.24,0,.48-.02.72.06.04.99-.04,1.98-.04,2.97Z"/>
                <path class="cls-59" d="M21.53,17.78s.1-.02.13.02v2.49l-1.42.06-.02-.08.59-.06c.06-.74-.08-.82-.08-.86,0-.33,0-1.73.04-1.94,0,0,.06.02.04-.08.02.11.08.23.04.36l.11.11c.16.02.44-.04.57,0Z"/>
                <path class="cls-26" d="M10.16,14.53c0,.76,0,1.52,0,2.27,0,.28,0,.56,0,.84-.18.02-.42-.02-.59,0,.07-.39-.09-2.97,0-3.1.04-.05.49,0,.59-.02Z"/>
                <path class="cls-46" d="M10.37,14.49c.02.2-.03.75,0,.82.04.1.51.12.47-.06,0,.23.04.47-.04.7.15.09.2.36.04.44.02-.91-1.12.14-.13,0,.03.17-.34.04-.4.08-.05.04,0,.16-.02.21-.04.11.09.2-.13.13,0-.76,0-1.52,0-2.27v-.04c.16,0,.12-.04.13-.04.04,0,.04.04.08.04Z"/>
                <path class="cls-17" d="M20.89,10.32c-.27.46.14,1.74,0,2.13-.01.03-.06.02-.08.02,0-.13.03-.95,0-.99-.05-.07-.53.05-.59-.08-.03-.28.04-.86,0-1.03.19-.07.47-.04.68-.04Z"/>
                <path class="cls-1" d="M23.02,17.52c0-2.27.01-4.55,0-6.82.03,0,.08-.01.08.02.08.34-.06,5.68,0,6.78l-.08.02Z"/>
                <path class="cls-76" d="M21.53,17.02c-.01.25,0,.51,0,.76-.13-.04-.42.02-.57,0l-.11-.11c.03-.13-.03-.24-.04-.36-.01-.09,0-.2,0-.29,0-.01,0-.03,0-.04l.72.04Z"/>
                <path class="cls-66" d="M15.38,9.73c.02.7.01.45-.38.51v-.51c.34-.11.36,0,.38,0Z"/>
                <path class="cls-64" d="M20.73,19.34s.15.13.08.86l-.59.06c.03-.96-.19-.97.51-.93Z"/>
                <path class="cls-11" d="M10.67,19.34c-.02.15.03.91,0,.95-.02.03-.43.03-.45.02-.04-.03-.02-.83-.02-.97.13.02.4-.02.47,0Z"/>
                <path class="cls-68" d="M10.8,14.45c.01.27.04.53.04.8.04.18-.42.16-.47.06-.03-.07.02-.62,0-.82.12,0,.3,0,.42-.04Z"/>
                <path class="cls-76" d="M10.8,14.45c-.12.04-.3.05-.42.04-.04,0-.04-.04-.08-.04v-.63s.08-.08.08-.08c.07-.02.43-.02.47.06.05.2-.05.47-.04.65Z"/>
                <path class="cls-25" d="M10.88,16.68c-.7-.13-.76.41,0,.29,0,.05,0,.11,0,.17-.55-.14-.65-.04-.51.51-.12.01-.09-.01-.17.08,0-.11-.04-.08-.04-.08,0-.28,0-.56,0-.84.21.07.09-.02.13-.13.12-.18.54-.21.59,0Z"/>
                <path class="cls-10" d="M10.84,16.39s-.08,0-.13,0c-.99.14.15-.91.13,0Z"/>
                <g>
                  <path class="cls-11" d="M10.29,10.32c.02.16-.03,1.03,0,1.07.02.03.39.03.4.02.06-.04,0-.95.02-1.1.01,0,.03,0,.04,0,.14,1.8-.36.98-.51,1.2-.03.04-.04.93-.04,1.07h-.81c0-.73-.08-1.47-.04-2.21.05-.12.63-.05.93-.06Z"/>
                  <path class="cls-21" d="M10.29,13.23c0,.13-.17.55.08.51,0,0-.08.08-.08.08-.1.12-.05.45,0,.59v.04s.04.05-.13.04c-.15,0-.78-.03-.81-.11.03-.48.05-.98.04-1.45l.89-.04c0,.11,0,.22,0,.34Z"/>
                  <path class="cls-11" d="M10.71,10.32c-.02.15.04,1.06-.02,1.1-.02.01-.38,0-.4-.02-.03-.04.02-.91,0-1.07.14,0,.28,0,.42,0Z"/>
                  <path class="cls-47" d="M10.2,12.6s.08.24.08.25c0,.01,0,.03,0,.04l-.89.04c0-.12,0-.22,0-.34h.81Z"/>
                  <path class="cls-18" d="M10.29,13.82v.59c-.05-.14-.1-.47,0-.59Z"/>
                </g>
                <g>
                  <path class="cls-45" d="M10.88,17.14c0,.09.02.47-.02.51-.02.02-.39,0-.49,0-.14-.54-.05-.64.51-.51Z"/>
                  <path class="cls-55" d="M10.29,13.23c0-.11,0-.22,0-.34,0-.01,0-.03,0-.04.72-.13.74.52,0,.38Z"/>
                  <path class="cls-57" d="M10.88,16.68c.01.06,0,.19,0,.29-.76.12-.7-.43,0-.29Z"/>
                  <g>
                    <path class="cls-15" d="M20.13,10.24c.08.03.08.09.08.13.04.17-.03.75,0,1.03.06.14.54,0,.59.08.03.04,0,.86,0,.99-.03,1.14-.1.47-.4.67-.29.19.34.16.4.17,0,.08,0,.17,0,.25-.53-.11-.39-.05-.42.25-.11,1.19.16.82.32.88.13.05.02.2.02.21-.39-.11-.38.56.04.42.05.56.01,1.09.04,1.64,0,.01,0,.03,0,.04-.58-.08-.61.32-.04.38-.03.2-.04,1.61-.04,1.94-.7-.05-.48-.03-.51.93,0,0-.04-.04-.04.13-1.31-.13-.63.34-.81.74-.83.26-.53-.15-.62-.74-.86.01-1.71-.02-2.57,0-.37,0-.75,0-1.12,0l-.02,1.16s-.08.01-.08.02l-.02-1.18-4.14.04s-.04-.04-.04-.13c0-.19.05-.92-.08-.97-.07-.02-.33.02-.47,0-.01-.53,0-1.07,0-1.6.08-.1.05-.07.17-.08.1,0,.46.02.49,0,.04-.03.02-.42.02-.51,0-.05,0-.11,0-.17,0-.1.01-.24,0-.29-.06-.21-.47-.18-.59,0,.02-.05-.03-.18.02-.21.06-.04.44.08.4-.08.05,0,.11,0,.13,0,.16-.08.1-.36-.04-.44.08-.22.05-.47.04-.7,0-.27-.03-.53-.04-.8,0-.18.09-.45.04-.65-.04-.09-.39-.08-.47-.06-.25.05-.08-.38-.08-.51.74.14.72-.51,0-.38,0-.01-.09-.24-.08-.25,0-.14.01-1.03.04-1.07.15-.22.65.6.51-1.2,0,0-.01-.04.04-.04,1.27-.04,3.01.12,4.2-.04.4-.05.4.19.38-.51.22,0,.52.02.72-.04,0,.09-.02.52.02.55.39-.07,3.01.09,3.14,0,.06-.04,0-.57.02-.61.02-.03.47-.04.49-.02.06.04,0,.57.02.61.04.06.27,0,.34.02Z"/>
                    <g>
                      <path class="cls-55" d="M20.81,17.02c0,.1-.01.2,0,.29.02.1-.04.08-.04.08-.56-.06-.54-.46.04-.38Z"/>
                      <path class="cls-40" d="M20.73,14.91c.02.15.03.27.04.42-.42.14-.43-.53-.04-.42Z"/>
                      <path class="cls-55" d="M20.81,13.56c0,.06.02.22-.02.25-.03.02-.3-.01-.4,0,.03-.31-.1-.37.42-.25Z"/>
                      <g>
                        <path class="cls-33" d="M14.19,13.9c0,.21-.14,1.49.02,1.56.97-.02,1.94.02,2.91,0v.42c.02.29-.06.54.08.51,0,0,.04.04-.13.04-.96.03-1.96-.11-2.93-.04,0-.02-.08-.27-.08-.29-.01-.11.02-.54,0-.57-.02-.03-.55-.04-.57-.02-.09.06.02.53.02.63,0,0-.04-.04-.04.13h-.78s-.02.34-.02.42c-.03.45.02.91,0,1.37.03.04.65.02.76.02.2,0,.47-.02.64,0,.03,0,.05,0,.04.04-.06.01-.22-.03-.25.02-.04.14.04.5.04.53,0,.03-.16.04-.06.63.15-.02.85.03.89,0,.02-.02.04-.49.02-.53-.05-.12-.3.01-.34-.32.02-.15.02-.39-.08-.34,1.63-.1,1.17,0,1.34.67.22-.04.45.03.66.04.04.73,0,.52-.76.55-.04-.15.04-.52,0-.61-.03-.06-.96-.39-.72.61-.32,0-2.83.07-2.88-.06.02-1.03-.03-2.07,0-3.1l.76-.02c-.14-.29.08-.6-.08-.82.05,0,.09.01.08-.04,0,0,.09.1.11.13.94.07.59-.17.62-.76.01-.26.04-.51.04-.78,0-.03.08-.02.08-.02.23-.02.51.06.55-.08,0,0,.08.08.08.08Z"/>
                        <path class="cls-52" d="M17.08,16.43c-.03.43-.03.87-.04,1.31,0,.1,0,.2,0,.29,0,.25,0,.49,0,.74-.06.09-.11.05-.17.06-.09.02-.41,0-.55,0-.21,0-.44-.08-.66-.04-.17-.68.29-.77-1.34-.67-.07,0-.16-.01-.21,0,0-.04-.01-.04-.04-.04.07-.17.04-.4.04-.59,0-.32.05-.85.04-1.1.97-.07,1.96.08,2.93.04Z"/>
                        <path class="cls-33" d="M18.43,15.38c.02.13-.02.62,0,.65.04.05.53,0,.64.02,0,1.1,0,2.2,0,3.31-.27-.01-2.05.08-2.14.02-.04-.03-.01-.45-.06-.55.06-.01.11.03.17-.06,0-.25,0-.49,0-.74.4.06.78.19.68-.34,0,0-.01-.05.04-.04,0,.08-.02.43.02.46.03.02.61.02.64,0,.05-.03,0-.16.02-.21.22-.82-.13-1.71-.08-2.53.03,0,.06,0,.08,0Z"/>
                        <path class="cls-33" d="M19.07,15.38h-.55v-2.72s-.65-.02-.76-.02c-.27,0-.54,0-.81,0-.24,0-.48,0-.72,0-.19-1.01.93.08.76-.93.25,0,2.03-.04,2.08.06,0,1.2,0,2.4,0,3.6Z"/>
                        <path class="cls-33" d="M14.87,11.75v.84s.03.04-.08.04c-.23,0-.45,0-.68,0-.06,0-.11,0-.17,0,.28.06.15-.81.11-.84-.01-.01-.34,0-.36.02-.04.06.02.68,0,.82-.03,0-.06,0-.08,0-.19,0-.97-.05-1.02.06l-.04,1.98s.16.01.21.02c.03.32-.04.28-.04.29l-.76-.06.08-3.16c.95-.05,1.9,0,2.84-.02Z"/>
                        <path class="cls-82" d="M16.99,11.71c.17,1.01-.95-.09-.76.93-.45,0-.91-.05-1.36-.04v-.84c.71,0,1.42-.04,2.12-.04Z"/>
                        <path class="cls-52" d="M12.62,15.38c.16.22-.05.53.08.82l-.76.02c0-.26,0-.52,0-.78.05-.11.46-.06.68-.06Z"/>
                        <path class="cls-49" d="M13.43,14.7c-.03.59.32.83-.62.76-.02-.03-.1-.12-.11-.13-.01-.03,0-.27,0-.34,0-.01.07.02.04-.29.18.03.2-.04.21-.04.02,0,.16.07.47.04Z"/>
                        <path class="cls-50" d="M15.55,19.38c-.24,0-.48,0-.72,0-.24-1,.69-.67.72-.61.04.09-.04.46,0,.61Z"/>
                        <path class="cls-14" d="M18.52,15.38h.55c0,.22,0,.45,0,.67-.11-.02-.6.03-.64-.02-.02-.03.02-.52,0-.65h.08Z"/>
                        <path class="cls-49" d="M14.23,13.35c.18,0,.37,0,.55,0,.72,0,1.44,0,2.16,0h.08c.1.17,0,.5.06.55.03.02.52-.02.66,0,0,.3.08.62.04.93-.16-.02.03-.21-.42-.17-.26-.13-.14-.69-.36-.76h-2.82s-.08-.08-.08-.08c0-.23-.04-.49.13-.46Z"/>
                        <path class="cls-49" d="M17.8,15.38c.18,0,.37,0,.55,0-.05.82.31,1.7.08,2.53-.08-1.28.33-1.68-.68-1.5.02.41-.02.83,0,1.24-.05,0-.04.04-.04.04-.21.03-.47-.06-.68.04.02-.43.02-.87.04-1.31.17,0,.12-.04.13-.04.08,0,.39.02.42-.02,0-.16,0-.32,0-.48,0-.22.02-.42-.04-.42.01,0,.08-.08.21-.08Z"/>
                        <path class="cls-49" d="M14.15,16.39c.01.24-.04.78-.04,1.1h-.64c.01-.24,0-.48,0-.72,0-.17,0-.34,0-.51,0-.17.04-.12.04-.13l.55-.04s.08.28.08.29Z"/>
                        <path class="cls-49" d="M13.89,18.66c.13-.01.46.02.49,0,.04-.03.01-.16.02-.21.04.33.29.2.34.32.02.04,0,.51-.02.53-.04.03-.74-.02-.89,0-.1-.59.06-.6.06-.63Z"/>
                        <path class="cls-35" d="M13.56,13.9s-.08-.01-.08.02c0,.27-.03.52-.04.78-.31.03-.44-.04-.47-.04-.13-1.4.44-.21.47-1.26.04.49.13.48.13.51Z"/>
                        <path class="cls-20" d="M14.11,17.48c0,.19.03.42-.04.59-.17-.02-.44,0-.64,0-.03-.29.04-.51.04-.59h.64Z"/>
                        <path class="cls-16" d="M14.06,16.09l-.55.04c0-.1-.11-.57-.02-.63.02-.02.55,0,.57.02.02.03-.01.46,0,.57Z"/>
                        <path class="cls-63" d="M13.6,13.31s.34,0,.47,0c.16,0,.16.04.17.04-.17-.02-.13.23-.13.46-.04.15-.33.06-.55.08,0-.03-.09-.02-.13-.51,0-.04.14-.08.17-.08Z"/>
                        <g>
                          <path class="cls-8" d="M13.47,16.77c0,.24.01.48,0,.72,0,.08-.08.3-.04.59-.11,0-.73.02-.76-.02.02-.45-.03-.92,0-1.37.27.04.58-.06.81.08Z"/>
                          <path class="cls-20" d="M13.47,16.26c0,.17,0,.34,0,.51-.23-.15-.53-.05-.81-.08,0-.08-.02-.39.02-.42h.78Z"/>
                        </g>
                        <path class="cls-16" d="M14.11,18.11c.06-.01.14,0,.21,0,.1-.05.11.19.08.34,0,.06.02.18-.02.21-.03.02-.36-.01-.49,0,0-.03-.09-.39-.04-.53.03-.05.19,0,.25-.02Z"/>
                        <path class="cls-20" d="M17.63,15.88c0,.16,0,.32,0,.48-.03.04-.34.01-.42.02-.14.04-.07-.21-.08-.51h.51Z"/>
                        <path class="cls-35" d="M17.2,15.46c.13,0,.25,0,.38,0,.07,0,.04.2.04.42h-.51v-.42s.06,0,.08,0Z"/>
                        <path class="cls-46" d="M17.71,17.69c.1.52-.28.4-.68.34,0-.1,0-.2,0-.29.21-.1.47,0,.68-.04Z"/>
                        <path class="cls-39" d="M18.52,15.38h-.08s-.06,0-.08,0c-.18,0-.37,0-.55,0v-.55c.04-.31-.03-.62-.04-.93,0-.18-.04-.38-.04-.55,0-.04.08-.4.04-.72.11,0,.73-.02.76.02v2.72Z"/>
                        <path class="cls-81" d="M18.43,17.9c-.01.05.03.18-.02.21-.03.02-.61.02-.64,0-.04-.03-.02-.38-.02-.46-.02-.41.02-.83,0-1.24,1.01-.19.6.22.68,1.5Z"/>
                        <path class="cls-63" d="M16.23,12.64c.24,0,.48,0,.72,0v.72c-.72,0-1.44,0-2.16,0v-.72c.11,0,.08-.04.08-.04.44,0,.91.04,1.36.04Z"/>
                        <path class="cls-71" d="M17.76,12.64c.04.31-.04.68-.04.72h-.76v-.72c.27,0,.54,0,.81,0Z"/>
                        <path class="cls-8" d="M13.6,12.64v.67s-.17.04-.17.08c-.02,1.06-.6-.13-.47,1.26-.01,0-.04.07-.21.04-.06,0-.18.02-.21-.02l.04-1.98c.05-.11.83-.06,1.02-.06Z"/>
                        <path class="cls-3" d="M14.79,12.64v.72c-.18,0-.37,0-.55,0,0,0,0-.05-.17-.04l.04-.67c.23,0,.45,0,.68,0Z"/>
                        <path class="cls-33" d="M13.94,12.64c-.08,0-.17,0-.25,0,.02-.14-.04-.76,0-.82.02-.03.35-.03.36-.02.04.03.18.9-.11.84Z"/>
                        <path class="cls-38" d="M13.68,12.64c.08,0,.17,0,.25,0,.06,0,.11,0,.17,0l-.04.67c-.13,0-.44,0-.47,0v-.67s.06,0,.08,0Z"/>
                        <path class="cls-44" d="M17.8,14.83v.55c-.14,0-.2.08-.21.08-.13,0-.25,0-.38,0-.18-.29-.29-.76.17-.8.46-.04.27.15.42.17Z"/>
                        <g>
                          <path class="cls-52" d="M17.37,14.66c-.46.04-.35.51-.17.8-.03,0-.06,0-.08,0-.97.02-1.94-.02-2.91,0-.16-.07-.02-1.35-.02-1.56h2.82c.22.07.1.63.36.76Z"/>
                          <path class="cls-8" d="M15.78,13.99c.56-.25.42.6.38.63-.02.01-.43,0-.45-.02-.02-.03-.03-.57.06-.61Z"/>
                        </g>
                        <path class="cls-7" d="M17.71,13.35c0,.17.04.37.04.55-.13-.02-.63.02-.66,0-.07-.05.04-.38-.06-.55h.68Z"/>
                      </g>
                    </g>
                  </g>
                </g>
              </g>
            </g>
          </g>
        </g>
      </g>
    </g>
  </g>
</svg>