<?xml version="1.0" encoding="UTF-8"?>
<svg id="Layer_2" data-name="Layer 2" xmlns="http://www.w3.org/2000/svg" viewBox="0 0 26.58 31.03">
  <defs>
    <style>
      .cls-1 {
        fill: #fd8f2d;
      }

      .cls-1, .cls-2, .cls-3, .cls-4, .cls-5, .cls-6, .cls-7, .cls-8, .cls-9, .cls-10, .cls-11, .cls-12, .cls-13, .cls-14, .cls-15, .cls-16, .cls-17, .cls-18, .cls-19, .cls-20, .cls-21, .cls-22, .cls-23, .cls-24, .cls-25, .cls-26, .cls-27, .cls-28, .cls-29, .cls-30, .cls-31, .cls-32, .cls-33, .cls-34, .cls-35, .cls-36, .cls-37, .cls-38, .cls-39, .cls-40, .cls-41, .cls-42, .cls-43, .cls-44, .cls-45, .cls-46 {
        stroke-width: 0px;
      }

      .cls-2 {
        fill: #d1d4db;
      }

      .cls-3 {
        fill: #121325;
      }

      .cls-4 {
        fill: #8a1450;
      }

      .cls-5 {
        fill: #700e3e;
      }

      .cls-6 {
        fill: #c24a57;
      }

      .cls-7 {
        fill: #0ca7b9;
      }

      .cls-8 {
        fill: #df756f;
      }

      .cls-9 {
        fill: #aa2c4a;
      }

      .cls-10 {
        fill: #f0b241;
      }

      .cls-11 {
        fill: #dad2ea;
      }

      .cls-12 {
        fill: #f0e6e7;
      }

      .cls-13 {
        fill: #eec2ca;
      }

      .cls-14 {
        fill: #5c0a3c;
      }

      .cls-15 {
        fill: #97183b;
      }

      .cls-16 {
        fill: #f3cb5c;
      }

      .cls-17 {
        fill: #024078;
      }

      .cls-18 {
        fill: #056cac;
      }

      .cls-19 {
        fill: #024f8c;
      }

      .cls-20 {
        fill: #217dd4;
      }

      .cls-21 {
        fill: #aca6a9;
      }

      .cls-22 {
        fill: #f17351;
      }

      .cls-23 {
        fill: #092d57;
      }

      .cls-24 {
        fill: #518d84;
      }

      .cls-25 {
        fill: #21a2a4;
      }

      .cls-26 {
        fill: #e45f3e;
      }

      .cls-27 {
        fill: #be856f;
      }

      .cls-28 {
        fill: #16184c;
      }

      .cls-29 {
        fill: #098fc3;
      }

      .cls-30 {
        fill: #d74f52;
      }

      .cls-31 {
        fill: #ada3c7;
      }

      .cls-32 {
        fill: #e9999e;
      }

      .cls-33 {
        fill: #e08287;
      }

      .cls-34 {
        fill: #131333;
      }

      .cls-35 {
        fill: #013d5c;
      }

      .cls-36 {
        fill: #e5806d;
      }

      .cls-37 {
        fill: #c0b1c2;
      }

      .cls-38 {
        fill: #3c1034;
      }

      .cls-39 {
        fill: #35bbf1;
      }

      .cls-40 {
        fill: #f8f7fb;
      }

      .cls-41 {
        fill: #0daad0;
      }

      .cls-42 {
        fill: #9e1c52;
      }

      .cls-43 {
        fill: #6496df;
      }

      .cls-44 {
        fill: #2e2844;
      }

      .cls-45 {
        fill: #d2606c;
      }

      .cls-46 {
        fill: #babab8;
      }
    </style>
  </defs>
  <g id="Layer_1-2" data-name="Layer 1">
    <g>
      <path class="cls-46" d="M25.81,18.51v-.45c.06,0,.26.02.29-.02V2.28c.15,0,.39-.12.49.02v16.14l-.77.06Z"/>
      <path class="cls-46" d="M.41,2.28q.04,7.87.08,15.74c.17.17.31-.17.37.24-.28.1-.56.04-.86.02V2.3s.34-.02.41-.02Z"/>
      <g>
        <path class="cls-46" d="M26.09,28.5c.09-1.65-.07-3.54,0-5.22.03,0,.04-.15.49-.06v5.34s-.43.07-.49-.06Z"/>
        <path class="cls-2" d="M26.05,28.58c0,.06-.08.03-.08.06-.08,1.24.3,1.84-.57,1.57.02-.24-.05-1.54,0-1.61.04-.05.55,0,.65-.02Z"/>
      </g>
      <path class="cls-3" d="M25.24,18.22c0,.31,0,.63,0,.94.01.11-.04.07-.08.08-.37.11-.55-.34-.49.73h-2.16s0-.03,0-.04h2.1c.08-.06-.02-.63-.02-.73,0-.21-.03-.41-.04-.61,0-.02.05-.05.04-.37h.65Z"/>
      <path class="cls-40" d="M25.81,18.06v.45c-.01.62.16.94-.57.65,0-.31,0-.63,0-.94,0-.13.04-.14.04-.16.17-.01.36.02.53,0Z"/>
      <path class="cls-40" d="M1.22,17.98s.05-.07.04.45c0,.27,0,.54,0,.82-.08-.01-.38.03-.41-.02-.03-.04.02-.8,0-.96-.06-.42-.2-.08-.37-.24l.73-.04Z"/>
      <path class="cls-40" d="M25.15,19.24c.11.3,0,.71,0,.77h-.45s0-.04-.04-.04c-.06-1.08.12-.63.49-.73Z"/>
      <path class="cls-44" d="M25.15,20.02s.09.18.04.69c-.02,0-.43.1-.49.02-.03-.05.03-.63,0-.71h.45Z"/>
      <path class="cls-46" d="M1.06,29.48c-.78.04-.46-.03-.53-.57l.53.02v.55Z"/>
      <path class="cls-40" d="M1.14,29.48h-.08v-.55l-.53-.02c-.02-.13-.03-.24-.04-.37.11.02.62-.03.65.02.03.04,0,.78,0,.92Z"/>
      <g>
        <path class="cls-46" d="M.41,23.28s0,.04.04.04c-.07,1.41-.06,2.83,0,4.24.01.31-.02.63,0,.94l-.45.02v-5.26c.28-.07.39.02.41.02Z"/>
        <path class="cls-34" d="M.45,27.56c-.06-1.41-.07-2.83,0-4.24.12,0,.74-.03.77.02-.06,1.23.08,2.88,0,4.04,0,.03-.08,0-.08.04-.04.46.22.4-.31,1.04-.6.1-.07-.67-.39-.9Z"/>
      </g>
      <path class="cls-14" d="M24.54,18.59c0,.2.04.4.04.61-.41.06-.26-.09-.29-.61h.24Z"/>
      <g>
        <path class="cls-3" d="M25.97,23.24c.15,0,.12.04.12.04-.07,1.68.09,3.57,0,5.22,0,.04-.04.04-.04.08-.11.02-.62-.03-.65.02-.05.07.02,1.37,0,1.61,0,.05-.04.04-.04.04-.24-.02-.46,0-.69.04-.03,0-.06,0-.08,0,.03-.97.01-.62-.61-.65-.47-.02-.89,0-1.35,0-6.29-.03-12.59-.07-18.88,0-.42,0-.8-.02-1.22,0-.03,0-.36-.08-.51-.04l-.14.65h-.73c-.02-.22,0-.53,0-.77,0-.14.03-.88,0-.92-.04-.05-.55,0-.65-.02,0,0-.04.01-.04-.04-.02-.31.01-.63,0-.94.32.23-.22.99.39.9.52-.64.27-.57.31-1.04,0-.03.08,0,.08-.04.08-1.15-.06-2.81,0-4.04-.03-.05-.66-.01-.77-.02-.03,0-.04,0-.04-.04.01,0,.03,0,.04,0,.41,0,.87-.05.82.08-.07.29.05,3.87,0,4.71.22,0,.44.04.65.06v.84l.77.02h21.87c-.03-1.41.13-.69.65-.9.06-.02.02-.44.02-.61.03-1.09-.07-3.01,0-3.75,0-.07.04-.48.06-.49.03-.02.56,0,.67,0Z"/>
        <path class="cls-34" d="M1.79,18.43c.05.25.25.15.49.16.18,0,.35,0,.53,0,.3,0,.61-.04.9-.04,1.09,0,2.18.11,3.26,0,1.13.12,2.26,0,3.38,0,.21,0,.41,0,.61,0,.19,0,.38,0,.57,0,1.07,0,2.15.04,3.22.04.2,0,.42-.04.61-.04,1.49,0,2.99.04,4.48.04.16,0,.33,0,.49,0,.19,0,.38,0,.57,0,.35,0,.39-.04.41-.04.24,0,.49.04.73.04.22,0,.43,0,.65,0,.2,0,.41,0,.61,0,.22,0,.44-.04.65-.04.02,0,.02.07.33.04.02.52-.13.67.29.61,0,.11.1.67.02.73h-2.1c-.02-.51.16-.67-.43-.65l-.1.73c-.23,0-.46,0-.69,0-.15-.62.23-.78-.57-.67v.63c-.74-.03-.77.35-.73-.73-.36,0-2.92-.13-3.04-.04-.23.17-.04.95-.06,1.24,0,0-.12.05-.12.12-.02.41.02.83,0,1.24l-.65-.04c.04-.8-.03-1.62,0-2.43-.05-.11-1.01-.06-1.18-.06-1.1-.02-2.21-.02-3.3,0-.04-.12-1.14-.1-1.2-.08-.26.08-.1.95-.14,1.2-.22.02-.64.09-.69-.14l-.06-1.02c-.43.05-3-.06-3.14,0-.14.06,0,.72-.08.77-.09.06-1.43-.04-1.65-.04v-.73c-.69-.14-1.31.07-2,.08-.19,0-.57,0-.73,0-.16,0-.37-.03-.53-.04-.09,0-.09-.04-.12-.04,0-.27,0-.54,0-.82.16-.02.39.03.53,0Z"/>
        <path class="cls-40" d="M25.97,21.69c.03.51-.02,1.03,0,1.55-.11,0-.65-.02-.67,0-.02.01-.05.42-.06.49-.09.02-.49-.03-.53.02-.11.15.01,3.27-.04,3.71l.57.02c0,.17.04.59-.02.61-.52.2-.68-.51-.65.9H2.69v-.08l.96.04-.06-.53h20.24c.15-.11-.04-3.22-.02-3.67,0-.01,0-.03,0-.04,0-.03.02.12.08-.53,0,0,.08.01.08-.02.03-.35-.07-1.1.06-1.16.1-.04,1.23.05,1.28-.02.03-.05-.03-1.03,0-1.2.1-.15.4-.06.65-.08Z"/>
        <path class="cls-12" d="M9.58,20.26c.05.32-1.6.1-2.26.16-.33.92.33.54,1.47.61.31.91-.16.7-1.65.69-.45,0-.9,0-1.35,0-.28,0-.57-.04-.86-.04-.94,0-1.88,0-2.81,0h-.86c0-.11.02-.65.04-.67.04-.06.53.02.57-.04.03-.04-.03-.82,0-.86.06-.08.67.08.82-.1.3,0,.6,0,.9,0,.36,0,.71-.04,1.06-.04.22,0,1.56.1,1.65.04.08-.05-.06-.71.08-.77.14-.06,2.71.05,3.14,0l.06,1.02Z"/>
        <path class="cls-34" d="M24.67,30.29c0,.21.03.4-.04.61-.01.03.09.05-.02.12H1.98s-.1-.24-.1-.29c0-.02.05-.05.04-.37.16.07.39.04.57.04.43,0,.87,0,1.3,0,6.28,0,12.56.05,18.84-.04.45,0,.89-.02,1.35-.04.03,0,.23.08.59.04.03,0,.02-.08.02-.08.03,0,.06,0,.08,0Z"/>
        <path class="cls-40" d="M1.26,21.77c0,.15-.03,1.19.02,1.22,1.42.26.58-.8.9-.94.06-.03,1.44-.08,1.2.2,0,.09.04.32-.06.37-.5.22-.95-.61-.71,1.14-.23-.07-.06-.33-.12-.47-.05-.11-.25-.03-.31-.06-.03-.02-.12-.25-.69-.16-.16.34-.22.26-.22.29.05-.13-.4-.08-.82-.08.27-.18.05-.48.12-.63.06-.13.28.22.2-.94.04-.08.45-.14.49.06Z"/>
        <path class="cls-3" d="M2.12,21.69c-.15.51.37.21,1.24.29.14.24.02.27.02.29.24-.29-1.14-.23-1.2-.2-.32.14.52,1.19-.9.94-.05-.04-.03-1.08-.02-1.22,0-.03,0-.05,0-.08h.86Z"/>
        <path class="cls-28" d="M4.65,19.24c-.29.1-.99,0-1.04.04-.05.04,0,.62-.02.73-.3,0-.6,0-.9,0-.01,0-.03,0-.04,0v-.69c.69,0,1.3-.22,2-.08Z"/>
        <path class="cls-20" d="M2.65,19.32v.69c-.24,0-.49.01-.73,0v-.69c.16,0,.55,0,.73,0Z"/>
        <path class="cls-40" d="M25.36,30.25c-.06.72.26.78-.73.65.07-.21.03-.4.04-.61.24-.03.45-.06.69-.04Z"/>
        <path class="cls-40" d="M1.92,19.32v.69c-.24-.01-.49.05-.57-.06l.04-.67c.16.02.37.04.53.04Z"/>
        <path class="cls-40" d="M1.88,30.25c.06,0,.04.06.04.12,0,.32-.04.35-.04.37-.12,0-.63.02-.67-.04-.01-.02-.05-.38-.06-.45h.73Z"/>
        <path class="cls-12" d="M2.61,23.77c.1.03.57.02.59.04.13.09-.27.47.51.37-.03.16.23.04.31.08.21.1.06,1.14.1,1.37-.94-.05-.48.33-.57.98.66.18.59.07.57-.51.09.03.37.81-.55.61-.22,1.05.82-.11.63,1.04-.7.09-.8-.21-.69.59,0,.04-.12.09.08.08l.06.53-.96-.04c-.03-.13.06-.72-.06-.77-.05-.02-.55.01-.71,0-.21-.02-.44-.06-.65-.06.05-.84-.07-4.42,0-4.71,0-.02.06.05.22-.29.58-.09.66.15.69.16.06.03.26-.05.31.06.06.14-.11.4.12.47Z"/>
        <path class="cls-37" d="M25.24,23.73c-.07.74.03,2.66,0,3.75l-.57-.02c.06-.44-.07-3.56.04-3.71.04-.05.44,0,.53-.02Z"/>
        <path class="cls-31" d="M2.69,28.91v.08l-.77-.02v-.84c.16.01.66-.02.71,0,.12.05.03.64.06.77Z"/>
        <g>
          <path class="cls-14" d="M3.75,29.64c-.06.21-.1.67.04.77-.43,0-.87,0-1.3,0,.11-.22.12-.54.04-.77.42-.02.81,0,1.22,0Z"/>
          <path class="cls-42" d="M2.53,29.64c.08.24.07.56-.04.77-.18,0-.41.03-.57-.04,0-.06.02-.12-.04-.12l.14-.65c.15-.04.48.04.51.04Z"/>
        </g>
        <g>
          <path class="cls-9" d="M22.63,29.64v.73c-6.28.09-12.56.05-18.84.04-.14-.1-.1-.56-.04-.77,6.29-.07,12.59-.03,18.88,0Z"/>
          <g>
            <path class="cls-14" d="M23.97,29.64v.69c-.45.02-.89.03-1.35.04v-.73c.46,0,.88-.02,1.35,0Z"/>
            <path class="cls-4" d="M24.58,30.29s.01.08-.02.08c-.36.04-.56-.04-.59-.04v-.69c.63.03.64-.32.61.65Z"/>
          </g>
        </g>
        <g>
          <path class="cls-21" d="M24.67,19.98s.04.03.04.04c.03.08-.03.67,0,.71.06.08.46-.02.49-.02.11,0,.71.03.73.06.03.04.03.78.04.92-.26.03-.55-.07-.65.08l-.04-.08c-.43,0-.87,0-1.3,0-.26,0-.52,0-.77,0,.18-1.52-.53-.73-.69-.96-.02-.03,0-.53,0-.63,0-.04,0-.08,0-.12h2.16Z"/>
          <path class="cls-40" d="M19.98,19.24c-.04,1.09-.01.71.73.73.19,0,.38.04.57.04.23,0,.46,0,.69,0,.25,0,.45-.05.53.08,0,.1-.02.61,0,.63.16.23.87-.56.69.96-.68,0-1.36.04-2.04.04-.42,0-.84,0-1.26,0-.74,0-1.48,0-2.22,0-.21-1.05.28-.6,1.63-.69l.02-.55-2.34-.06-.06-1.12,3.06-.06Z"/>
        </g>
        <path class="cls-3" d="M14.92,19.28c.04.36-.04.74-.04,1.1-.4-.07-3.11.09-3.24,0-.07-.05.02-.97-.02-1.1,1.1-.02,2.21-.02,3.3,0Z"/>
        <path class="cls-20" d="M4.65,19.24v.73c-.35,0-.7.04-1.06.04.02-.11-.03-.7.02-.73.05-.04.75.06,1.04-.04Z"/>
        <path class="cls-39" d="M21.28,20.02c-.19,0-.38-.03-.57-.04v-.63c.8-.11.42.05.57.67Z"/>
        <path class="cls-40" d="M16.76,21.81c0,.1.04.44-.06.49-.15.07-.47-.04-.63-.04-.04-.16.03-.33.04-.49l.65.04Z"/>
        <path class="cls-39" d="M22.5,19.94s0,.03,0,.04c0,.04,0,.08,0,.12-.08-.13-.28-.08-.53-.08l.1-.73c.59-.01.41.14.43.65Z"/>
        <path class="cls-40" d="M23.89,24.18c-.06.65-.08.5-.08.53h-9.66c-.19,0-.38,0-.57,0-.3,0-.6,0-.9,0-.24,0-.49,0-.73,0-.34,0-.68,0-1.02,0-.31,0-.63,0-.94,0-.22,0-.43,0-.65,0-.38,0-.76,0-1.14,0-.22,0-.43,0-.65,0-.33,0-.65,0-.98,0-.26,0-.52,0-.77,0-.33,0-.65-.01-.98,0-.1,0-.57-.02-.59,0-.22.15.45,1.22-.63,1.04-.09.59.28.25.53.35.02.58.08.69-.57.51.09-.65-.37-1.02.57-.98-.04-.23.11-1.27-.1-1.37-.08-.04-.33.07-.31-.08h20.18Z"/>
        <path class="cls-3" d="M20.47,24.71c-.03.28.04.39.04.41,0,.31-.13,2.62.02,2.69h2.53l.06-.2c.31,0,.19.49.61.18l.08-3.04c-.02.45.17,3.56.02,3.67H3.59c-.2,0-.08-.04-.08-.08h4.71s-.06-.28-.06-.57l1.18.04s.11.16.14.53c.63.15.28-.45.55-.53.47-.14,8.49.1,9.76,0l.06-.12c.17,0,.47.34.57.02.08-.24-.08-2.37,0-2.94l-.29-.06h.33Z"/>
        <path class="cls-34" d="M23.81,24.71s0,.03,0,.04l-.08,3.04c-.42.31-.3-.18-.61-.18.27-.7-1.1-.31-2.1-.41l-.02-.51,2.1-.02s.02-.42.02-.49c0-.01.1-.05-.02-.2-1.44.03-.99,0-1-.29h1c.19-.55-.02-.54-.02-.57,0-.1.16-.13.04-.41h.69Z"/>
        <path class="cls-20" d="M7.13,21.73v.59c-.02.05-.58.11-.61.1,0,0,.01-.07-.02-.08-.06-.02-.22.02-.24,0-.09-.06.16-.25-.47-.29v-.33c.45,0,.9,0,1.35,0Z"/>
        <path class="cls-35" d="M5.79,21.73v.33s-.53.08-.86.04v-.41c.28,0,.58.04.86.04Z"/>
        <path class="cls-34" d="M23.2,21.69c.26,0,.52,0,.77,0,.73.59-.78.23-.94.43-.15.18.09.69-.02.75-.1.06-2.06-.04-2.36,0,.03-.25.36-.07.47-.24.08-.12.04-.31.04-.45,0-.15.03-.3,0-.45.68,0,1.36-.04,2.04-.04Z"/>
        <path class="cls-40" d="M19.04,22.99s.05,0,.08,0c1.35.01,2.7-.01,4.06,0v.65c-.36,0-.72,0-1.08,0-5.23.09-10.47-.04-15.7,0l.02-.65c4.21-.04,8.41-.04,12.62,0Z"/>
        <g>
          <path class="cls-15" d="M11.54,19.28l.02,2.28h3.3c.14-.06.02-1,.02-1.18,0-.36.08-.74.04-1.1.17,0,1.14-.04,1.18.06-.03.81.04,1.62,0,2.43,0,.16-.08.33-.04.49-.16,0-.12.04-.12.04-1.71,0-3.42-.07-5.14-.04.06-.56.03-.57-.45-.53v-2.38c.05-.1,1.01-.06,1.18-.06Z"/>
          <path class="cls-9" d="M11.62,19.28c.05.13-.05,1.05.02,1.1.13.09,2.84-.07,3.24,0,0,.18.12,1.12-.02,1.18h-3.3l-.02-2.28s.05,0,.08,0Z"/>
        </g>
        <path class="cls-34" d="M15.94,22.3c.2.11-.08.07-.08.1.37.02.19.15.22.47h-5.14c-.1-.35.4-.44-.18-.53,0-.04.04-.04.04-.08,1.71-.03,3.43.04,5.14.04Z"/>
        <path class="cls-40" d="M6.52,22.42c.19.27-.6.24-1.18.2-.07,0-.38.02-.41-.02v-.51c.33.04.81-.04.86-.04.63.03.37.22.47.29.03.02.18-.02.24,0,.04,0,.02.08.02.08Z"/>
        <path class="cls-40" d="M5.75,23.12c0,.1.03.53-.06.57-.18,0-.37,0-.55,0-.24,0-.5.04-.57-.06l.02-.59c.44.03,1.14-.08,1.16.08Z"/>
        <path class="cls-40" d="M10.36,21.73c.47-.04.51-.03.45.53,0,.04-.04.05-.04.08-.58-.09-.81.28-.73-.55.07-.1.2-.05.33-.06Z"/>
        <g>
          <path class="cls-40" d="M19.98,22.06c.25.08,1.19-.14,1.18.12,0,.14.03.33-.04.45h-1.24s-.09-.63.1-.57Z"/>
          <path class="cls-17" d="M21.16,21.73c.03.15,0,.3,0,.45.01-.26-.93-.05-1.18-.12-.14-.04-.13-.21-.08-.33.42,0,.84,0,1.26,0Z"/>
        </g>
        <g>
          <path class="cls-3" d="M19.98,19.24l-3.06.06.06,1.12,2.34.06-.02.55c-1.35.09-1.84-.36-1.63.69.74,0,1.48,0,2.22,0-.05.11-.05.29.08.33-.19-.06-.13.55-.1.57h1.24c-.11.17-.44,0-.47.24.31-.04,2.26.06,2.36,0,.11-.06-.13-.57.02-.75.16-.2,1.67.16.94-.43.43,0,.87,0,1.3,0-.03.17.04,1.19,0,1.24-.05.07-1.19-.02-1.28.02-.16.07.04,1.07-.12,1.14-.08.04-1.67.03-1.75,0-.02,0,.1-.15-.02-.45.36,0,.72,0,1.08,0v-.65c-1.35-.01-2.7.01-4.06,0,.57-.53-.55-.7-.08,0-4.21-.04-8.41-.04-12.62,0l-.02.65c-.33-.08.21-.67-.59-.98-.34.29-.05.15-.02.26,0,.01-.04.17-.04.18-.02-.16-.72-.05-1.16-.08l-.02.59c.07.1.33.06.57.06l-.61-.02c-.1-1.05.16-.7,1.04-.75.12-.26-.26-.03-.22-.29.58.03,1.37.06,1.18-.2.03,0,.59-.05.61-.1v-.59c1.49,0,1.96.22,1.65-.69-1.14-.07-1.8.31-1.47-.61.66-.07,2.31.16,2.26-.16.06.23.47.16.69.14.04-.25-.12-1.12.14-1.2.06-.02,1.16-.04,1.2.08-.03,0-.05,0-.08,0-.17,0-1.13-.04-1.18.06v2.38c-.12.01-.26-.04-.33.06-.07.83.15.46.73.55.58.09.09.18.18.53h5.14c-.03-.32.15-.45-.22-.47,0-.04.28,0,.08-.1,0,0-.04-.04.12-.04.16,0,.48.11.63.04.1-.05.06-.39.06-.49.02-.41-.02-.84,0-1.24,0-.07.12-.11.12-.12.02-.29-.16-1.07.06-1.24.12-.09,2.68.04,3.04.04Z"/>
          <path class="cls-40" d="M23.93,22.14c0,.09,0,.19,0,.29-.02.37-.08.21-.79.24-.31-.8.31-.55.79-.53Z"/>
          <path class="cls-43" d="M23.93,22.42c0-.09,0-.19,0-.29.23.01.46-.2.49.18l-.49.1Z"/>
          <path class="cls-20" d="M19.12,22.99s-.05,0-.08,0c-.47-.7.65-.53.08,0Z"/>
        </g>
        <g>
          <path class="cls-34" d="M4.93,21.69v.92s.33.02.41.02c-.03.26.35.02.22.29-.88.05-1.14-.29-1.04.75l.61.02c.18,0,.37,0,.55,0,.1-.04.07-.47.06-.57,0,0,.04-.17.04-.18-.03-.11-.32.02.02-.26.8.31.26.9.59.98,5.23-.04,10.47.09,15.7,0,.12.3,0,.44.02.45.08.03,1.67.04,1.75,0,.16-.07-.04-1.07.12-1.14.1-.04,1.23.05,1.28-.02.04-.05-.03-1.07,0-1.24l.04.08c-.03.17.03,1.15,0,1.2-.05.07-1.19-.02-1.28.02-.13.06-.03.81-.06,1.16,0,.03-.08.02-.08.02H3.71c-.78.1-.38-.28-.51-.37-.02-.02-.49-.01-.59-.04-.23-1.75.22-.92.71-1.14.1-.04.06-.28.06-.37,0-.01.12-.04-.02-.29-.87-.07-1.39.23-1.24-.29.94,0,1.88,0,2.81,0Z"/>
          <path class="cls-40" d="M3.28,23.03h.73l.02.63-.75.02v-.65Z"/>
        </g>
        <path class="cls-19" d="M19.85,24.71c.04.32-.08.39-.08.41h-1.18c0-.13,0-.27,0-.41h1.26Z"/>
        <path class="cls-19" d="M9.34,24.71c.03.29-.04.43-.04.45h-1.06c0-.13-.08-.3-.04-.45.38,0,.76,0,1.14,0Z"/>
        <path class="cls-29" d="M7.54,24.71c.04.14-.04.32-.04.45h-.9s-.07-.15-.04-.45c.33,0,.65,0,.98,0Z"/>
        <path class="cls-18" d="M16.14,24.71c.03.29-.04.43-.04.45h-.9s-.07-.15-.04-.45h.98Z"/>
        <path class="cls-19" d="M23.12,24.71c.11.28-.04.31-.04.41h-.98c0-.12-.09-.2,0-.41h1.02Z"/>
        <path class="cls-29" d="M10.93,24.71c.03.33-.04.39-.04.41h-.9v-.41c.31,0,.63,0,.94,0Z"/>
        <path class="cls-23" d="M14.15,24.71l.33.06c.08.48-.54.15-1.12.31-.18-.33-.04-.31.22-.37.19,0,.38,0,.57,0Z"/>
        <path class="cls-23" d="M5.79,24.71c.09.56-.16.32-.96.37l-.02-.37c.33-.01.65,0,.98,0Z"/>
        <path class="cls-23" d="M17.94,24.71l-.02.29c-.69,0-1.53.06-.88-.29h.9Z"/>
        <path class="cls-23" d="M12.68,24.71c.15.46-.58.27-.86.26l.12-.26c.24,0,.49,0,.73,0Z"/>
        <path class="cls-40" d="M19.85,27.68l-.06.12c-1.28.1-9.3-.14-9.76,0l-.02-1.71,4.3.06-.06.51h-3.71v.53c.75-.14,6.02.18,6.28,0,.07-.05-.03-1.05.04-1.1.12-.08,2.57.06,2.94,0v.57h-2.41l-.02.51,2.43.02.06.49Z"/>
        <path class="cls-40" d="M9.34,27.8l-1.18-.04c0-.09-.02-.54.02-.57.25.03,1.05-.04,1.14,0,.09.03-.02.39.02.61Z"/>
        <g>
          <path class="cls-3" d="M22.1,24.71c-.09.21,0,.29,0,.41,0,.21,0,.36,0,.57,0,.28-.44.32,1,.29.12.15.02.19.02.2,0-.03.01-.07-.02-.08-.44-.15-2.5.32-2.18-.35.69-.12.41-.08.41-.63,0-.02.07-.08.04-.41h.73Z"/>
          <path class="cls-29" d="M21.36,24.71c.03.33-.04.39-.04.41h-.82s-.07-.13-.04-.41h.9Z"/>
          <path class="cls-40" d="M21.32,25.11c0,.55.28.51-.41.63-.32.67,1.74.19,2.18.35.03.01.02.05.02.08,0,.07.01.46-.02.49l-2.1.02.02.51c1,.1,2.37-.3,2.1.41l-.06.2h-2.53c-.15-.07-.02-2.38-.02-2.69h.82Z"/>
          <path class="cls-40" d="M23.08,25.11s.21.02.02.57h-1c0-.21,0-.36,0-.57h.98Z"/>
        </g>
        <path class="cls-40" d="M19.77,25.11c0,.53.58.62-1.16.57-.14-.06-.03-.47-.02-.57h1.18Z"/>
        <path class="cls-40" d="M9.3,25.15s.13.42-.02.57h-1.02c-.15-.16-.02-.53-.02-.57h1.06Z"/>
        <path class="cls-40" d="M10.89,25.11c0,.06.13.45-.02.61h-.86l-.02-.61h.9Z"/>
        <path class="cls-40" d="M16.1,25.15s.13.42-.02.57h-.86c-.15-.15-.02-.54-.02-.57h.9Z"/>
        <path class="cls-40" d="M7.5,25.15s.13.41-.02.57h-.86c-.15-.16-.02-.53-.02-.57h.9Z"/>
        <g>
          <path class="cls-34" d="M4.81,24.71l.02.37c.8-.04,1.05.19.96-.37.26,0,.52,0,.77,0-.03.29.04.43.04.45,0,.04-.13.41.02.57h.86c.15-.16.02-.53.02-.57,0-.13.08-.3.04-.45.22,0,.43,0,.65,0-.04.14.04.32.04.45,0,.04-.13.41.02.57h1.02c.15-.15.02-.54.02-.57,0-.02.07-.15.04-.45.22,0,.43,0,.65,0v.41l.02.61h.86c.15-.17.02-.56.02-.61,0-.02.07-.08.04-.41.34,0,.68,0,1.02,0l-.12.26c.28,0,1.01.19.86-.26.3,0,.6,0,.9,0-.26.06-.4.04-.22.37.58-.16,1.2.17,1.12-.31l-.33-.06h1.02c-.03.29.04.43.04.45,0,.03-.13.42.02.57h.86c.15-.15.02-.54.02-.57,0-.02.07-.15.04-.45h.9c-.66.34.19.29.88.29l.02-.29h.65c0,.13,0,.27,0,.41,0,.11-.12.51.02.57,1.74.04,1.16-.04,1.16-.57,0-.02.12-.09.08-.41h.29l.29.06c-.08.57.08,2.7,0,2.94-.1.32-.4-.02-.57-.02l-.06-.49-2.43-.02.02-.51h2.41v-.57c-.37.06-2.82-.08-2.94,0-.07.05.03,1.05-.04,1.1-.26.18-5.53-.14-6.28,0v-.53h3.71l.06-.51-4.3-.06.02,1.71c-.27.08.08.68-.55.53-.04-.37-.14-.5-.14-.53-.04-.22.07-.58-.02-.61-.09-.04-.89.03-1.14,0-.04.03-.02.49-.02.57,0,.29.1.55.06.57H3.51c-.1-.8-.01-.5.69-.59.19-1.15-.85.02-.63-1.04.92.2.64-.58.55-.61-.25-.09-.62.24-.53-.35,1.08.18.41-.89.63-1.04.02-.02.5,0,.59,0Z"/>
          <g>
            <path class="cls-40" d="M14.78,26.09c1.06.07,1.5-.28,1.37.51-.67.06-1.78.33-1.37-.51Z"/>
            <path class="cls-40" d="M13.35,25.11c1.02.05,1.2-.24,1.12.55-.56.07-1.5.33-1.12-.55Z"/>
            <path class="cls-40" d="M16.86,25.07c1.07.04,1.09-.24,1.04.59-.67-.02-1.36.3-1.04-.59Z"/>
            <path class="cls-40" d="M8.26,26.09c1.05.05,1.15-.24,1.08.55-.73-.01-1.4.28-1.08-.55Z"/>
            <path class="cls-40" d="M11.76,25.07c.12-.04.63.03.86,0,.26.87-.11.56-.98.61-.02-.35-.1-.55.12-.61Z"/>
            <path class="cls-40" d="M4.87,27.15c.96.03,1.01-.22.96.59-.92.02-1.2.22-.96-.59Z"/>
            <path class="cls-40" d="M4.87,26.13c.9.04,1.07-.22,1,.51-.52.08-1.35.29-1-.51Z"/>
            <path class="cls-40" d="M6.54,27.19c1.01.04,1.05-.23,1,.55-1.01.02-1.11.21-1-.55Z"/>
            <path class="cls-40" d="M4.87,25.15c.99.04,1.01-.22.96.55-.6-.01-1.27.28-.96-.55Z"/>
            <path class="cls-40" d="M6.58,26.13c.95.04,1.02-.22.96.51-.95.02-1.08.2-.96-.51Z"/>
          </g>
        </g>
      </g>
      <g>
        <path class="cls-34" d="M24.62.37c0,.06.02.3-.02.33-.2,0-.39,0-.59,0-.65,0-1.3-.04-1.96-.04-.15,0-.3,0-.45,0-5.39,0-10.79-.04-16.19.04-.98-.04-1.96.04-2.94.04-.16,0-.36-.08-.53-.04,0-.02-.13.1-.08-.41,0-.06-.02-.26.02-.29h22.71s.02.3.02.37Z"/>
        <path class="cls-3" d="M25.24.82c.2-.01.15.04.16.04.03.26-.04,1.24,0,1.32.05.1.46.05.57.06.16,0,.12.04.12.04v15.76s-.22.01-.29.02c-.17.02-.36-.01-.53,0,0,0-.08.01-.08-.02,0-.25-.04-.51-.04-.75,0-.51-.07-1.07.12-1.12V2.3l-.61-.02c0-.14-.05-.56-.04-.82,0-.14-.02-.55,0-.59.05-.1.5-.06.61-.06Z"/>
        <path class="cls-3" d="M1.88.86c0,.2.05.44.04.61,0,.27-.02.57-.04.84,0,.03-.08.02-.08.02h-.47c-.1.07-.05.24-.06.41,0,.12,0,.25,0,.37,0,.16,0,.33,0,.49,0,.29,0,.57,0,.86-.02,2.32,0,4.65,0,6.97,0,1.48.04,2.96.04,4.44,0,.02-.04.1-.04.49,0,.16,0,.33,0,.49,0,.36.04.54.04.57,0,.59-.08.54-.08.57l-.73.04q-.04-7.87-.08-15.74s.08,0,.12,0c.22-.01.56.05.61-.06.02-.04,0-.45,0-.59.01-.29,0-.52.04-.82l.69.04Z"/>
        <path class="cls-2" d="M25.97,2.24c-.11,0-.52.04-.57-.06-.04-.08.03-1.06,0-1.32.03,0,.3-.1.57-.02v1.41Z"/>
        <path class="cls-40" d="M25.24.82c-.11,0-.57-.04-.61.06-.02.04,0,.45,0,.59-.84.19-.57-.11-.61-.77.2,0,.39,0,.59,0,.04-.03.02-.26.02-.33h.59l.02.45Z"/>
        <path class="cls-40" d="M1.14,1.63c0,.14.02.55,0,.59-.05.11-.39.05-.61.06.02-.15-.03-.53,0-.59.05-.12.49-.04.61-.06Z"/>
        <path class="cls-40" d="M1.88.29c-.05.51.08.38.08.41,0,.03-.08.05-.08.16l-.69-.04c.1-.69-.06-.51.69-.53Z"/>
        <path class="cls-6" d="M2.57,3.14v12.37c.11.22.69.01,1.14.14,0,.98.66-.08.71.9,5.88-.22,11.78.18,17.65,0,.03,0,.02-.08.02-.08.08,0,.57.08.65.08v1.22h-.65c0-.17.03-.34-.06-.41h-.37c.07,1.22-.45.24-.35,1.18-.02,0-.06.04-.41.04l-.06-.49h-.45l-.06.49c-.16,0-.33,0-.49,0l-.02-.49c-.58.07-4.2-.09-4.4,0-.12.05-.04.36-.06.45-.19,0-.41.04-.61.04-.03-.13.06-.76-.06-.82-.12-.05-2.41-.05-2.53,0-.23.1.3.62-.59.49-.06-.32-.16-.18-.59-.2l-.02.49c-.2,0-.41,0-.61,0l-.02-.45c-.37.06-2.82-.08-2.94,0-.1.07.2.37-.41.29.06-.47-.42-.25-.71-.24-.93,0-.29-.22-.55-.33-.27-.1-.52.29-.49-.45-1.25-.11-.71.25-.88.39-.06.05-.24,0-.33.02-1.06.17-.06-.35-1.24-.24.07-1.01-.37-.47-.57-.61-.17-.12.29-.56-.35-.57-.06-.14-.08-.34-.08-.49.01-.87.05-1.74.04-2.61-.02-2.93-.08-5.87-.08-8.81,0-.28.08-.57.04-.86v-.45c.26,0,.52,0,.77,0Z"/>
        <path class="cls-9" d="M14.76,18.59c-1.07,0-2.15-.04-3.22-.04-.03-.28.04-.27.04-.29.89.13.37-.39.59-.49.12-.05,2.41-.05,2.53,0,.12.06.03.68.06.82Z"/>
        <path class="cls-14" d="M1.88,16.35c.63.01.18.45.35.57.2.14.64-.4.57.61,1.18-.11.19.41,1.24.24.06.54-.44-.16-.33.77-.29,0-.6.05-.9.04.04-.84-.02-.48-.53-.57,0,0,.02-.06-.12-.04.12-.65-.12-.55-.29-.57-.35-.24.23-.75-.61-.57,0-.16,0-.33,0-.49.2.12.42,0,.61,0Z"/>
        <path class="cls-9" d="M6.28,18.14c-.13.49.36.37.69.41-1.09.11-2.18,0-3.26,0-.12-.94.38-.23.33-.77.09-.01.27.03.33-.02.17-.14-.37-.49.88-.39-.03.74.22.34.49.45.26.1-.38.33.55.33Z"/>
        <path class="cls-42" d="M19.85,18.59c-1.49,0-2.99-.04-4.48-.04.02-.09-.05-.4.06-.45.2-.09,3.83.07,4.4,0l.02.49Z"/>
        <path class="cls-42" d="M10.36,18.55c-1.12,0-2.26.12-3.38,0-.33-.04-.82.08-.69-.41.29,0,.78-.23.71.24.6.08.31-.22.41-.29.12-.08,2.57.06,2.94,0l.02.45Z"/>
        <path class="cls-4" d="M24.01,17.33c.03.23-.03.47-.04.69,0,.18,0,.35,0,.53-.21,0-.44.04-.65.04-.02-.25-.09-.57-.08-.82,0-.02.07.09.12-.41l.65-.04Z"/>
        <path class="cls-6" d="M1.88,17.41c.16.02.41-.08.29.57,0,0-.11-.02-.12.02-.08.28.17.35-.24.43-.14.03-.37-.02-.53,0,0-.52-.04-.42-.04-.45,0-.03.08.02.08-.57.19.01.39-.02.57,0Z"/>
        <path class="cls-9" d="M22.1,17.78c0,.26-.09.55-.04.82-.24,0-.5-.04-.73-.04-.11-.94.42.04.35-1.18h.37c.1.06.06.24.06.41Z"/>
        <path class="cls-5" d="M22.75,17.78h.08l-.12.82c-.22,0-.43,0-.65,0-.04-.27.04-.56.04-.82h.65Z"/>
        <path class="cls-14" d="M23.24,17.78c0,.25.06.56.08.82-.2,0-.41,0-.61,0l.12-.82h.41Z"/>
        <path class="cls-42" d="M24.5,18.02c0,.25.08.19.08.2,0,.31-.04.35-.04.37h-.24c-.3.03-.31-.04-.33-.04,0-.18,0-.35,0-.53h.53Z"/>
        <path class="cls-9" d="M11.58,18.26s-.07,0-.04.29c-.19,0-.38,0-.57,0l.02-.49c.43.03.53-.12.59.2Z"/>
        <path class="cls-30" d="M2.81,18.59c-.18,0-.35,0-.53,0v-.57c.51.09.57-.27.53.57Z"/>
        <path class="cls-15" d="M20.91,18.59c-.19,0-.38,0-.57,0l.06-.49h.45l.06.49Z"/>
        <path class="cls-42" d="M2.16,17.98c.14-.02.12.04.12.04v.57c-.24-.01-.44.09-.49-.16.42-.08.16-.15.24-.43.01-.04.12-.01.12-.02Z"/>
        <path class="cls-6" d="M21.61.65l.02.53c.68.09.22-.29.47-.45.02.18.05.49-.12.53-.08,0-.38-.02-.41.02v.71c-5.74,0-11.5.14-17.25.04,0-.07,0-.14,0-.2.25-.12-.1-.64.04-1.08l1.06-.06c5.39-.08,10.79-.04,16.19-.04Z"/>
        <path class="cls-45" d="M5.42.69l-1.06.06c-.14.44.21.96-.04,1.08.02-.17.09-.34,0-.51-.7-.14-.6.11-.53.71-.03,0-.05,0-.08,0-.06,0-.76-.41-.61.41-.24.35-.63-.26-.53.69-.26,0-.52,0-.77,0-.18,0-.35-.03-.53-.04,0-.12,0-.25,0-.37.88.07.5-.15.53-.41,0,0,.08.01.08-.02.02-.26.03-.57.04-.84l.57-.02v-.71c.98,0,1.96-.08,2.94-.04Z"/>
        <path class="cls-9" d="M24.01.69c.04.67-.23.96.61.77-.01.25.05.67.04.82,0,.03-.11,0-.1.65l-1.2.04c0-.55,0-1.1,0-1.65-.04-.1-1.09-.07-1.26-.06-.04,0-.08,0-.12,0,.17-.04.14-.35.12-.53,0-.04-.04-.05-.04-.08.65,0,1.31.04,1.96.04Z"/>
        <path class="cls-40" d="M2.49.73v.71l-.57.02c0-.18-.04-.41-.04-.61,0-.12.08-.14.08-.16.17-.04.37.04.53.04Z"/>
        <path class="cls-45" d="M22.06.65s.04.04.04.08c-.25.16.21.54-.47.45l-.02-.53c.15,0,.3,0,.45,0Z"/>
        <path class="cls-9" d="M25.15,17.29h-.65c0-.55.26-1.31-.33-1-.03.63.11.66-.16.71-.15.03-.56-.03-.63,0-.14.06-.02.35-.02.37-.05.5-.12.38-.12.41h-.49v-1.22c.19,0,.41-.06.61-.06,0-.31,0-.61,0-.92l.77-.06V3.49l-.73-.06c-.07,0-.04-.23-.04-.45l1.2-.04c0-.65.1-.62.1-.65l.61.02v13.86c-.19.06-.12.61-.12,1.12Z"/>
        <path class="cls-8" d="M25.15,17.29c0,.24.03.51.04.75,0,.03.08.02.08.02,0,.02-.04.04-.04.16h-.65s-.07.04-.08-.2c0-.24,0-.49,0-.73h.65Z"/>
        <g>
          <path class="cls-33" d="M1.75,4.44c0,2.93.06,5.87.08,8.81-.28-.36.19-2.1-.31-2.12-.18.13-.09.33-.26.29,0-2.32-.02-4.65,0-6.97h.49Z"/>
          <path class="cls-36" d="M1.83,13.25c0,.87-.03,1.74-.04,2.61h-.49c0-1.48-.04-2.96-.04-4.44.17.04.09-.15.26-.29.5.02.03,1.76.31,2.12Z"/>
        </g>
        <path class="cls-42" d="M1.79,15.86c0,.15.02.35.08.49-.19,0-.41.12-.61,0,0-.39.04-.46.04-.49h.49Z"/>
        <path class="cls-14" d="M1.88,17.41c-.18-.02-.38.01-.57,0,0-.03-.04-.22-.04-.57.84-.18.27.33.61.57Z"/>
        <g>
          <path class="cls-32" d="M1.79,3.59c.04.28-.04.58-.04.86h-.49c0-.29,0-.57,0-.86h.53Z"/>
          <path class="cls-13" d="M1.79,3.14v.45h-.53c0-.16,0-.33,0-.49.18,0,.35.03.53.04Z"/>
        </g>
        <path class="cls-11" d="M1.79,2.32c-.03.26.35.47-.53.41.01-.17-.04-.34.06-.41h.47Z"/>
        <path class="cls-9" d="M3.67,2.57c0,4.36.13,8.72.04,13.09-.45-.13-1.04.08-1.14-.14V3.14c-.1-.96.29-.34.53-.69-.01.2.31.1.57.12Z"/>
        <path class="cls-8" d="M23.36,11.66c0,1.3.03,2.61,0,3.91,0,.31,0,.61,0,.92-.2,0-.42.06-.61.06-.09,0-.57-.08-.65-.08-.02-.61.16-.34.69-.43,0-1.75,0-3.49,0-5.24l.53-.22.04,1.08Z"/>
        <path class="cls-38" d="M24.5,17.29c0,.24,0,.49,0,.73h-.53c.01-.23.07-.46.04-.69v-.33c.27-.05.13-.08.16-.71.58-.31.32.45.33,1Z"/>
        <path class="cls-14" d="M24.01,17v.33l-.65.04s-.12-.3.02-.37c.07-.03.48.03.63,0Z"/>
        <path class="cls-40" d="M4.32,1.83c0,.07,0,.14,0,.2-.18,0-.35,0-.53,0-.07-.6-.17-.85.53-.71.09.17.02.34,0,.51Z"/>
        <path class="cls-40" d="M21.97,1.26s.08,0,.12,0c.04.24-.04.5-.04.73h-.49v-.71s.33-.02.41-.02Z"/>
        <path class="cls-40" d="M3.71,2.04c.03.3-.04.5-.04.53-.26-.02-.58.08-.57-.12-.15-.82.55-.41.61-.41Z"/>
        <path class="cls-30" d="M23.36,2.98c0,.22-.02.45.04.45l-.04.04-.57-.29c0-.07.02-.34-.02-.37-.29-.21-.71.56-.71-.82,0-.23.08-.49.04-.73.17,0,1.22-.04,1.26.06,0,.55,0,1.1,0,1.65Z"/>
        <path class="cls-6" d="M23.36,15.57c.03-1.3,0-2.61,0-3.91,0-2.73,0-5.46,0-8.19l.04-.04.73.06v12.03l-.77.06Z"/>
        <path class="cls-45" d="M23.36,3.47c0,2.73,0,5.46,0,8.19l-.04-1.08-.53.22c0-1.79.09-6.34,0-7.62l.57.29Z"/>
        <g>
          <path class="cls-3" d="M22.06,2c0,1.38.42.61.71.82.04.03.02.3.02.37.09,1.28,0,5.83,0,7.62,0,1.75,0,3.49,0,5.24-.53.09-.71-.18-.69.43,0,0,.01.08-.02.08-5.88.18-11.77-.22-17.65,0-.05-.98-.72.08-.71-.9.09-4.36-.04-8.73-.04-13.09,0-.03.07-.23.04-.53.03,0,.05,0,.08,0,.18,0,.35,0,.53,0,5.74.1,11.5-.04,17.25-.04h.49Z"/>
          <path class="cls-25" d="M11.46,2.77l.02.61c.35-.1,2.78.07,2.83-.06v-.55c1.75,0,3.51-.01,5.26,0,.02.11-.06.52.06.57.1.05,2.18,0,2.28-.04.12-.05.04-.42.06-.53.05,4.35.16,8.7.02,13.05H4.55c.09-3.69-.19-9.08-.02-12.52.27-.02,1.82.05,1.9,0,.05-.04,0-.44.02-.53,1.67-.02,3.34,0,5.01,0Z"/>
          <g>
            <path class="cls-7" d="M14.31,2.77v.55c-.05.13-2.48-.04-2.83.06l-.02-.61c.95,0,1.9,0,2.85,0Z"/>
            <path class="cls-7" d="M21.97,2.77c-.02.11.05.48-.06.53-.1.05-2.18.09-2.28.04-.12-.05-.04-.46-.06-.57.8,0,1.6,0,2.41,0Z"/>
            <path class="cls-41" d="M6.44,2.77c-.02.09.03.49-.02.53-.08.05-1.62-.02-1.9,0,0-.1-.02-.44.02-.49.06-.07,1.66-.04,1.9-.04Z"/>
            <path class="cls-41" d="M10.13,13.45h1.18l.06.79c-1.27,0-1.48.3-1.24-.79Z"/>
            <path class="cls-41" d="M8.6,13.45v.73c-.05-.01-.03.09-.06.08-.07-.01-.05-.15-.08-.16-.2-.08-.84.46-.67-.61.26,0,.55-.08.82-.04Z"/>
            <g>
              <path class="cls-16" d="M16.84,5.46c.47,0,.92.03,1.39.04l-.06,6.69c-1.52-.14-.68.36-.98.49-.35.15-6.66-.13-7.64.04,0-.01-.1.02-.12-.02-.1-.21.31-.37-.65-.37.11-.76-.32-.36-.41-.49-.01-.02,0-.38,0-.47-.08-1.79,0-3.59-.08-5.38v-.45c2.85-.09,5.71-.07,8.56-.08Z"/>
              <path class="cls-10" d="M18.84,5.46c.12,2.17-.15,5.48-.08,7.34-.2.02-.8-.03-.88,0-.05.02-.19.65-.67.61-.23,0-.46,0-.69,0-1.68.04-3.37,0-5.06,0-.07-.25-1.41-.07-1.69-.08.01-.66-.18-.45-.2-.49-.04-.05-.01-.11-.02-.12.98-.17,7.29.11,7.64-.04.29-.13-.54-.63.98-.49l.06-6.69c.19,0,.41-.05.61-.04Z"/>
              <path class="cls-22" d="M16.84,5.46c-2.85.01-5.71,0-8.56.08-.09,0-.52-.09-.59-.04-.05.03-.01.37-.02.45,0,.03,0,.05-.04.04v-1.14c3.06-.12,6.13,0,9.19-.04l.02.65Z"/>
              <path class="cls-22" d="M16.51,13.41l-.06.86c-.63-.08-4.71.1-4.93,0-.14-.06-.02-.69-.06-.86,1.68,0,3.38.04,5.06,0Z"/>
              <path class="cls-10" d="M8.28,5.99c.09,1.79,0,3.59.08,5.38-.11.09-.6.01-.65.1-.03.05.04.84-.02.84-.07,0,.04-1-.06-1.06,0-.63.06-1.2,0-1.83,0-.01,0-.03,0-.04.11-.15,0-.47,0-.61,0,0,.04.04.04-.16,0-.48-.03-.95-.04-1.43,0-.39,0-.79,0-1.18.04,0,.04-.01.04-.04l.61.04Z"/>
              <path class="cls-10" d="M8.36,11.37c0,.08-.01.45,0,.47.09.13.52-.27.41.49.96,0,.55.15.65.37.02.04.11,0,.12.02,0,0-.02.07.02.12.03.04.22-.18.2.49.29,0,1.62-.17,1.69.08-.49,0-.98,0-1.47,0-.46,0-.92,0-1.39,0-.31,0-.62-.05-.94-.04-.03-.34-.08-.73-.08-1.06,0-.3.04-.63.04-.94,0-.04,0-.08,0-.12.1.06,0,1.06.06,1.06.06,0,0-.78.02-.84.05-.09.54-.02.65-.1Z"/>
              <path class="cls-22" d="M7.62,11.25c-.08-.05-.67.07-.73-.06-.04-.08,0-1.5,0-1.73l.73-.04c.06.63,0,1.21,0,1.83Z"/>
              <path class="cls-26" d="M9.99,13.41c-.04.72.35,1.05-1.32.86-.03,0-.06-.08-.06-.08v-.77c.46,0,.92,0,1.39,0Z"/>
              <path class="cls-7" d="M7.62,5.99c0,.39,0,.79,0,1.18h-.73c0-.06.08-.03.08-.06,0,0-.08-.11-.08-.12,0-.47.02-.94.04-1.41.26-.04.65.13.69-.16v.57Z"/>
              <path class="cls-22" d="M7.62,7.18c0,.47.04.95.04,1.43l-.77.04c-.04-.06,0-1.27,0-1.47h.73Z"/>
              <g>
                <path class="cls-22" d="M19.61,12.56l-.06.82c-.76-.03-.77.21-.79-.57-.07-1.86.2-5.17.08-7.34.23,0,.73-.04.77.06-.04,2.34.06,4.69,0,7.03Z"/>
                <path class="cls-22" d="M17.2,13.41c.48.04.63-.59.67-.61.07-.03.67.02.88,0,.03.78.03.54.79.57l.06-.82c0,.13.02.87-.02.9l-2.38-.04Z"/>
              </g>
              <path class="cls-22" d="M6.97,12.31h.61c0,.33.05.72.08,1.06-.24,0-.49.08-.73.04-.07-.08-.04-.9-.04-1.08,0-.03.08-.02.08-.02Z"/>
              <path class="cls-41" d="M7.62,11.37c0,.31-.04.63-.04.94h-.61c0-.06-.08-.03-.08-.06.01-.85-.22-1.17.73-.88Z"/>
              <path class="cls-7" d="M7.62,4.85v.57c-.05.29-.43.12-.69.16,0-.16-.02-.67,0-.71.07-.15.62-.02.69-.02Z"/>
              <path class="cls-24" d="M8.6,13.41v.04c-.27-.04-.55.04-.82.04-.1,0-.83-.05-.86-.08.25.04.49-.03.73-.04.32-.01.63.04.94.04Z"/>
              <g>
                <path class="cls-29" d="M7.62,9.38s0,.03,0,.04l-.73.04c0-.13.08-.07.08-.1,0-.03-.15.05-.06-.63h.65s.05.56.06.65Z"/>
                <path class="cls-27" d="M7.62,8.77c0-.19-.66,0-.73-.12l.77-.04c0,.21-.04.15-.04.16Z"/>
              </g>
              <path class="cls-1" d="M8.28,5.54v.45l-.61-.04c0-.08-.03-.42.02-.45.07-.05.5.04.59.04Z"/>
            </g>
          </g>
        </g>
      </g>
    </g>
  </g>
</svg>