<?xml version="1.0" encoding="UTF-8"?>
<svg id="Layer_2" data-name="Layer 2" xmlns="http://www.w3.org/2000/svg" viewBox="0 0 30.33 34.72">
  <defs>
    <style>
      .cls-1 {
        fill: #242649;
      }

      .cls-2 {
        fill: #f8c67b;
      }

      .cls-3 {
        fill: #212f59;
      }

      .cls-4, .cls-5, .cls-6, .cls-7, .cls-8, .cls-9 {
        fill: none;
      }

      .cls-10 {
        fill: #1255a2;
      }

      .cls-11 {
        fill: #fdeb4d;
      }

      .cls-11, .cls-5, .cls-6, .cls-7, .cls-8, .cls-12, .cls-9 {
        stroke-linejoin: round;
      }

      .cls-11, .cls-5, .cls-7, .cls-9 {
        stroke-width: 1.02px;
      }

      .cls-11, .cls-6, .cls-7, .cls-8, .cls-12, .cls-9 {
        stroke-linecap: round;
      }

      .cls-11, .cls-9 {
        stroke: #242448;
      }

      .cls-13 {
        fill: #222548;
      }

      .cls-14 {
        fill: #952339;
      }

      .cls-15 {
        fill: #bc2a2d;
      }

      .cls-5 {
        stroke-linecap: square;
      }

      .cls-5, .cls-7 {
        stroke: #222447;
      }

      .cls-16 {
        fill: #b4a0d7;
      }

      .cls-17 {
        fill: #cccbcf;
      }

      .cls-18 {
        fill: #e68f8f;
      }

      .cls-6 {
        stroke: #212f59;
      }

      .cls-6, .cls-8 {
        stroke-width: .86px;
      }

      .cls-19 {
        fill: #d65056;
      }

      .cls-8 {
        stroke: #222446;
      }

      .cls-20 {
        fill: #8066ba;
      }

      .cls-12 {
        fill: #f6f7f9;
        stroke: #232548;
        stroke-width: .94px;
      }
    </style>
  </defs>
  <g id="Layer_1-2" data-name="Layer 1">
    <g>
      <g id="Generative_Object" data-name="Generative Object">
        <g>
          <path class="cls-20" d="M27.7,6.94c.06,1.49-.05,3.01,0,4.51-8.65.01-17.29.04-25.94.05h-.99s-.23,0-.23,0c0-.68-.09-3.6.03-4.01.06-.19.33-.36.49-.39.09-.01.62-.05.74-.06.38-.03,1.15-.01,1.56,0,.03,0,.12.19.24.2l-.05,1.74h4.04s0-.05,0-.05c.08-.34-.1-1.43-.03-1.66.01-.05.34-.38.4-.4l19.69-.06s.04-.03.05.11Z"/>
          <path class="cls-16" d="M27.7,6.16c-.08.17-.06.48-.05.67l-19.69.06c-.06.02-.39.34-.4.4-1.32-.07-2.64,0-3.96-.03-.12,0-.21-.2-.24-.2-.41-.01-1.18-.03-1.56,0l.05-.89c.12-.05.4-.4.44-.56h24.9c0,.16.42.53.49.56Z"/>
          <path class="cls-17" d="M1.76,11.5l-.05,17.54c-.27-.13-.52-.05-.89-.28-.09-.06-.13-.17-.25-.17.03-5.7-.08-11.4-.03-17.09h.23s.99,0,.99,0Z"/>
          <polygon class="cls-10" points="9.69 13.73 18.09 13.73 18.11 14.76 9.74 14.9 9.69 13.73"/>
          <path class="cls-10" d="M9.64,16.57h6.87s.04.98.02,1.03c-.14.35-6.03-.13-6.79.14-.2-.06-.12-.94-.1-1.17Z"/>
          <path class="cls-19" d="M25.23,27.15c.06.27-.09,1.3,0,1.47.06.12,1.6,1.45,1.85,1.7.37.36.85,1.03,1.21,1.34-.21,0-.71.72-.82.72-.2.01-2.67-2.74-3.01-3.12-.08-.09-.46-.33-.47-.36-.01-.02.17-.26,0-.46.29-.37.66-.74.92-1.12.06-.08.14-.13.11-.25.06.04.15.04.21.08Z"/>
          <path class="cls-10" d="M9.69,19.35l4.92.03-.52,1.14c-.68-.17-4.02.22-4.4,0-.1-.06-.12-1.11,0-1.17Z"/>
          <path class="cls-15" d="M28.29,31.66c.31.26.35.24.78.24-.44.51-.9,1.05-1.36,1.53-.09.09-.19.16-.27.26-1.34-1.36-2.56-3.14-3.92-4.51-.07-.2.31-.53.44-.7.01-.02.02-.03.04-.04.17.2-.01.44,0,.46.01.03.39.27.47.36.35.38,2.81,3.13,3.01,3.12.1,0,.6-.72.82-.72Z"/>
          <path class="cls-18" d="M29.36,31.54c-.08.06-.13.16-.19.24-.03.04-.07.08-.1.12-.42,0-.47.02-.78-.24-.36-.3-.84-.97-1.21-1.34-.25-.24-1.79-1.58-1.85-1.7-.09-.17.06-1.2,0-1.47.97.67,3.33,3.34,4.13,4.39Z"/>
          <path class="cls-16" d="M28.44,7.05s.43.41.44.45c.09.28,0,3.36,0,3.95h-.25c-.31,0-.63,0-.94,0-.04-1.5.06-3.02,0-4.51.13.12.68.08.74.11Z"/>
          <path class="cls-10" d="M9.69,22.19h3.85s.04,1.04.02,1.09c-.08.2-3.71.18-3.88.08-.1-.06-.12-1.11,0-1.17Z"/>
          <path class="cls-2" d="M27.44,33.69c.08-.1.18-.17.27-.26.46-.48.92-1.02,1.36-1.53.03-.04.07-.08.1-.12.06-.08.11-.18.19-.24,1.49,1.95-.4,3.7-1.92,2.15Z"/>
          <path class="cls-14" d="M5.34,19.35h1.98c.1.05.1,1.01.07,1.09-.04.11-2,.22-2.08.06-.02-.05-.02-1.11.02-1.14Z"/>
          <path class="cls-14" d="M5.34,22.19h1.98c.1.05.1,1.01.07,1.09-.07.18-1.74.04-2,.08l-.05-1.17Z"/>
          <path class="cls-14" d="M5.34,16.57h2.03c.4,1.84-.95.98-1.98,1.17l-.05-1.17Z"/>
          <path class="cls-14" d="M5.34,25.03h2.03c.4,1.84-.95.98-1.98,1.17l-.05-1.17Z"/>
          <path class="cls-14" d="M5.34,13.73h1.98c.54,1.82-.96.99-1.93,1.17l-.05-1.17Z"/>
          <path class="cls-14" d="M3.66,19.35l1.06.08c.1,1.18-.04,1.33-1.09,1.06l.02-1.14Z"/>
          <path class="cls-14" d="M3.66,25.03h1.04c.13,1.3.06,1.22-1.04,1.17v-1.17Z"/>
          <path class="cls-14" d="M3.66,13.73h.99c.27,1.28.04,1.23-.99,1.17v-1.17Z"/>
          <path class="cls-14" d="M3.66,22.19h.99c.27,1.28.04,1.23-.99,1.17v-1.17Z"/>
          <path class="cls-14" d="M3.66,16.57h1.04c.14,1.27.03,1.23-1.04,1.17v-1.17Z"/>
          <path class="cls-14" d="M24.91,13.73l.96.03c.05,1.1.09,1.36-.99,1.06l.02-1.09Z"/>
          <path class="cls-10" d="M8.06,22.19l.96.08c.07,1.13.02,1.19-.99,1.06l.02-1.14Z"/>
          <path class="cls-10" d="M8.06,25.03l.96.03c.06,1.06.06,1.37-.99,1.06l.02-1.09Z"/>
          <path class="cls-10" d="M8.06,16.57l.96.03c-.04.26.1,1.04-.12,1.14-.08.03-.82.01-.86-.08-.02-.05-.01-1.05.02-1.09Z"/>
          <path class="cls-10" d="M8.06,13.73l.96.08c-.02,1.05.12,1.29-.99,1l.02-1.09Z"/>
          <path class="cls-10" d="M23.32,13.73l.96.08c-.18.27.16.96-.12,1.09-.03.02-.71.02-.74,0-.21-.09-.11-.92-.1-1.17Z"/>
          <path class="cls-10" d="M8.06,19.35l.96.08c-.1,1.09.14,1.21-.99,1.06l.02-1.14Z"/>
          <path class="cls-10" d="M18.73,13.73l.91.03c.04,1.01.1,1.38-.94,1.06l.02-1.09Z"/>
          <path class="cls-10" d="M21.79,13.73l.91.03c.04,1.01.1,1.38-.94,1.06l.02-1.09Z"/>
          <path class="cls-10" d="M20.26,13.73l.91.03c.04,1.06.1,1.34-.94,1.06l.02-1.09Z"/>
          <path class="cls-1" d="M1.71,29.04c.3.14.09.54.15.92-1.29.27-.58-.47-.79-.95-.02-.04-.26-.02-.25-.25.37.23.61.15.89.28Z"/>
          <path class="cls-1" d="M1.85,6.16l-.05.89c-.12,0-.65.04-.74.06-.1-1.37.15-.67.79-.95Z"/>
          <path class="cls-1" d="M28.44,7.05c-.06-.03-.61,0-.74-.11,0-.14-.05-.11-.05-.11-.01-.19-.03-.5.05-.67.62.24.83-.33.74.89Z"/>
          <g>
            <path class="cls-2" d="M25.02,27.07c.04.12-.05.17-.11.25-.26.38-.63.74-.92,1.12-.01.02-.02.03-.04.04-.06-.09-.15-.13-.23-.18-.83-.55-.89,0-1.71.32-5.49,2.16-9.94-5.54-5.58-10.04s11.05.86,8.56,7.07c-.36.9-.93.83.03,1.42Z"/>
            <path class="cls-12" d="M19.64,18.8c4.9-.69,6,7.75.84,8.34-4.91.56-5.71-7.65-.84-8.34Z"/>
          </g>
          <path class="cls-11" d="M7.56,7.28c-.07.23.11,1.32.03,1.66v.06H3.54s.05-1.75.05-1.75c1.32.03,2.64-.04,3.96.03Z"/>
        </g>
        <g>
          <path class="cls-5" d="M.57,7.49c-.12.4-.03,3.33-.03,4.01-.05,5.7.06,11.4.03,17.09v.06"/>
          <path class="cls-5" d="M28.88,7.49c.09.28,0,3.36,0,3.95.04,5.68-.03,11.36,0,17.03"/>
          <path class="cls-7" d="M.77,11.5h.99c8.65-.02,17.29-.04,25.94-.05.31,0,.63,0,.94,0"/>
          <path class="cls-8" d="M2.05,5.6h25.4"/>
          <path class="cls-6" d="M23.73,28.3c-.83-.55-.89,0-1.71.32-5.49,2.16-9.94-5.54-5.58-10.04s11.05.86,8.56,7.07c-.36.9-.93.83.03,1.42.06.04.15.04.21.08.97.67,3.33,3.34,4.13,4.39,1.49,1.95-.4,3.7-1.92,2.15-1.34-1.36-2.56-3.14-3.92-4.51-.07-.2.31-.53.44-.7.01-.02.02-.03.04-.04.29-.37.66-.74.92-1.12"/>
          <path class="cls-3" d="M14.85,26.39c-.48,0-5.32,0-5.64,0,0,0,0-1.49,0-1.49h.74c.48,0,5.32,0,5.64,0,0,0,0,1.49,0,1.49h-.74Z"/>
          <path class="cls-3" d="M24.24,31l-21.84.06c-.18,0-.52,0-.67,0-.31-.04-.26-.84-.08-1.02,0,0,.27,0,.74,0l21.84-.06c.66,0,.68,1.01,0,1.02h0Z"/>
          <path class="cls-6" d="M29.17,31.78s-.07.08-.1.12c-.44.51-.9,1.05-1.36,1.53"/>
          <path class="cls-13" d="M20.2,20.56c-.77-.01-1.49.61-2.05,1.21,0,0-.6-.61-.6-.61.72-.77,1.78-1.65,3-1.41.02.04.07.79-.03.82-.1,0-.21,0-.31,0h0Z"/>
          <line class="cls-9" x1="5.45" y1="7.55" x2="5.52" y2="8.72"/>
        </g>
      </g>
      <line class="cls-4" x1=".58" y1=".71" x2="27.82"/>
    </g>
  </g>
</svg>