<?xml version="1.0" encoding="UTF-8"?>
<svg id="Layer_2" data-name="Layer 2" xmlns="http://www.w3.org/2000/svg" xmlns:xlink="http://www.w3.org/1999/xlink" viewBox="0 0 36.63 37.8">
  <defs>
    <style>
      .cls-1 {
        fill: #4a7f96;
      }

      .cls-1, .cls-2, .cls-3, .cls-4, .cls-5, .cls-6, .cls-7, .cls-8, .cls-9, .cls-10, .cls-11, .cls-12, .cls-13, .cls-14, .cls-15, .cls-16, .cls-17, .cls-18, .cls-19, .cls-20, .cls-21, .cls-22, .cls-23, .cls-24, .cls-25, .cls-26, .cls-27, .cls-28, .cls-29, .cls-30, .cls-31, .cls-32, .cls-33, .cls-34, .cls-35, .cls-36, .cls-37, .cls-38, .cls-39, .cls-40, .cls-41, .cls-42, .cls-43, .cls-44, .cls-45, .cls-46, .cls-47, .cls-48, .cls-49, .cls-50, .cls-51, .cls-52, .cls-53, .cls-54, .cls-55, .cls-56, .cls-57, .cls-58, .cls-59, .cls-60, .cls-61, .cls-62, .cls-63, .cls-64, .cls-65, .cls-66, .cls-67, .cls-68, .cls-69, .cls-70, .cls-71, .cls-72, .cls-73, .cls-74, .cls-75, .cls-76, .cls-77, .cls-78, .cls-79, .cls-80, .cls-81, .cls-82, .cls-83, .cls-84, .cls-85, .cls-86, .cls-87, .cls-88, .cls-89, .cls-90, .cls-91, .cls-92, .cls-93, .cls-94, .cls-95, .cls-96, .cls-97, .cls-98, .cls-99, .cls-100, .cls-101, .cls-102, .cls-103, .cls-104, .cls-105, .cls-106, .cls-107, .cls-108, .cls-109, .cls-110, .cls-111, .cls-112, .cls-113, .cls-114, .cls-115, .cls-116, .cls-117 {
        stroke-width: 0px;
      }

      .cls-2 {
        fill: #c7c5ca;
      }

      .cls-3 {
        fill: #151f2e;
      }

      .cls-4 {
        fill: #848a9e;
      }

      .cls-5 {
        fill: #83184a;
      }

      .cls-6 {
        fill: #112c4e;
      }

      .cls-7 {
        fill: #565c65;
      }

      .cls-8 {
        fill: #284687;
      }

      .cls-9 {
        fill: #9b6783;
      }

      .cls-10 {
        fill: url(#linear-gradient);
      }

      .cls-11 {
        fill: #2d6ca3;
      }

      .cls-12 {
        fill: #a47891;
      }

      .cls-13 {
        fill: #836288;
      }

      .cls-14 {
        fill: #281425;
      }

      .cls-15 {
        fill: #5b90bb;
      }

      .cls-16 {
        fill: #d2cadc;
      }

      .cls-17 {
        fill: #d8dce7;
      }

      .cls-18 {
        fill: #0379a4;
      }

      .cls-19 {
        fill: #a13b6f;
      }

      .cls-20 {
        fill: #1c4f38;
      }

      .cls-21 {
        fill: #4d2465;
      }

      .cls-22 {
        fill: #c4dde4;
      }

      .cls-23 {
        fill: #151521;
      }

      .cls-24 {
        fill: #0d4a5a;
      }

      .cls-25 {
        fill: #5c6970;
      }

      .cls-26 {
        fill: #68518f;
      }

      .cls-27 {
        fill: #0a1a32;
      }

      .cls-28 {
        fill: #679ebe;
      }

      .cls-29 {
        fill: #027690;
      }

      .cls-30 {
        fill: #a9d5e4;
      }

      .cls-31 {
        fill: #6b2a7f;
      }

      .cls-32 {
        fill: #574f78;
      }

      .cls-33 {
        fill: #3380b2;
      }

      .cls-34 {
        fill: #904a9c;
      }

      .cls-35 {
        fill: #061b21;
      }

      .cls-36 {
        fill: #8e859a;
      }

      .cls-37 {
        fill: #41112a;
      }

      .cls-38 {
        fill: #0596ba;
      }

      .cls-39 {
        fill: #64c9d5;
      }

      .cls-40 {
        fill: #1e1029;
      }

      .cls-41 {
        fill: #c5aec8;
      }

      .cls-42 {
        fill: #295b98;
      }

      .cls-43 {
        fill: #a594b7;
      }

      .cls-44 {
        fill: #f9bbbe;
      }

      .cls-45 {
        fill: #4bafce;
      }

      .cls-46 {
        fill: #5576ab;
      }

      .cls-47 {
        fill: #c4a1c9;
      }

      .cls-48 {
        fill: #abb3cb;
      }

      .cls-49 {
        fill: #7792a1;
      }

      .cls-50 {
        fill: #b3b4b6;
      }

      .cls-51 {
        fill: #b4c7db;
      }

      .cls-52 {
        fill: #311d55;
      }

      .cls-53 {
        fill: #621227;
      }

      .cls-54 {
        fill: #90659c;
      }

      .cls-55 {
        fill: #77c9e9;
      }

      .cls-56 {
        fill: #3f131e;
      }

      .cls-57 {
        fill: #cdecfb;
      }

      .cls-58 {
        fill: #4a3060;
      }

      .cls-59 {
        fill: #0b4b78;
      }

      .cls-60 {
        fill: #bce4eb;
      }

      .cls-61 {
        fill: #371744;
      }

      .cls-62 {
        fill: #6a82b0;
      }

      .cls-63 {
        fill: #9f9bad;
      }

      .cls-64 {
        fill: #f6a0a4;
      }

      .cls-65 {
        fill: #7a8084;
      }

      .cls-66 {
        fill: #d14e6f;
      }

      .cls-67 {
        fill: #1d161b;
      }

      .cls-68 {
        fill: #795085;
      }

      .cls-69 {
        fill: url(#linear-gradient-2);
      }

      .cls-70 {
        fill: #9e85a8;
      }

      .cls-71 {
        fill: #967098;
      }

      .cls-72 {
        fill: #646f61;
      }

      .cls-73 {
        fill: #eddfe0;
      }

      .cls-74 {
        fill: #211726;
      }

      .cls-75 {
        fill: #7b132c;
      }

      .cls-76 {
        fill: #ae78b4;
      }

      .cls-77 {
        fill: #a82451;
      }

      .cls-78 {
        fill: #66696d;
      }

      .cls-79 {
        fill: #536f74;
      }

      .cls-80 {
        fill: #832c5d;
      }

      .cls-81 {
        fill: #8b8c94;
      }

      .cls-82 {
        fill: #4a5f7d;
      }

      .cls-83 {
        fill: #bb446d;
      }

      .cls-84 {
        fill: #0c5c85;
      }

      .cls-85 {
        fill: #def1f2;
      }

      .cls-86 {
        fill: #6c6798;
      }

      .cls-87 {
        fill: #971e3c;
      }

      .cls-88 {
        fill: #100f0f;
      }

      .cls-89 {
        fill: #7f6e6b;
      }

      .cls-90 {
        fill: #a5ddea;
      }

      .cls-91 {
        fill: #2d1314;
      }

      .cls-92 {
        fill: #3e466a;
      }

      .cls-93 {
        fill: #e67c8f;
      }

      .cls-94 {
        fill: #022a3c;
      }

      .cls-95 {
        fill: #719bd1;
      }

      .cls-96 {
        fill: #b4aabf;
      }

      .cls-97 {
        fill: #53bed4;
      }

      .cls-98 {
        fill: #2c2320;
      }

      .cls-99 {
        fill: #67606e;
      }

      .cls-100 {
        fill: #eaeaeb;
      }

      .cls-101 {
        fill: #0a3858;
      }

      .cls-102 {
        fill: #14172f;
      }

      .cls-103 {
        fill: #22376e;
      }

      .cls-104 {
        fill: #241311;
      }

      .cls-105 {
        fill: #ba3154;
      }

      .cls-106 {
        fill: #5d798e;
      }

      .cls-107 {
        fill: #2e4156;
      }

      .cls-108 {
        fill: #a0dadb;
      }

      .cls-109 {
        fill: #cd6181;
      }

      .cls-110 {
        fill: #ca9cc7;
      }

      .cls-111 {
        fill: #014d6d;
      }

      .cls-112 {
        fill: #181338;
      }

      .cls-113 {
        fill: #425d6f;
      }

      .cls-114 {
        fill: #e4f1f3;
      }

      .cls-115 {
        fill: #623b6e;
      }

      .cls-116 {
        fill: #442b73;
      }

      .cls-117 {
        fill: #7a8168;
      }
    </style>
    <linearGradient id="linear-gradient" x1="11.41" y1="20.3" x2="14.53" y2="20.39" gradientUnits="userSpaceOnUse">
      <stop offset="0" stop-color="#c5bbc8"/>
      <stop offset="1" stop-color="#ddbfce"/>
    </linearGradient>
    <linearGradient id="linear-gradient-2" x1="17.14" y1="19.24" x2="19.11" y2="19.45" gradientUnits="userSpaceOnUse">
      <stop offset="0" stop-color="#656296"/>
      <stop offset="1" stop-color="#527792"/>
    </linearGradient>
  </defs>
  <g id="Layer_1-2" data-name="Layer 1">
    <g>
      <path class="cls-2" d="M11.41,25.54c.02.53-.02,1.06,0,1.59.21,0,.44.06.64.07-.16,1.15.9-.23.69,1.24-.11,0-.77-.02-.8,0-.16.11.22.61-.25.69-.64.1-.33-.17-.44-.83l-.85-.07-.02-.9h-1.93c-.21-.49.02-.74.02-.78.03-.22-.07-.63.07-.69.55-.24.54.35.64.32.13-.03,0-.44.07-.53.07-.09.37,0,.41-.09.06-.12-.11-.67.09-.8,1.68.13.92-.31,1.13-.46.02-.01.44-.01.46,0,.05.04.06,1.07.07,1.24Z"/>
      <path class="cls-88" d="M34.94,22.27c0-.29-.13-1.27-.05-1.49.09-.25.65,0,.74-.18-.08-.44.1-3.35,0-3.49-.06-.08-.67.06-.74-.09.01-.51-.02-1.03,0-1.54,1.19-.3-.35.94,1.38.76v5.29l-.8.02c-.25.11.28,1.06-.53.74Z"/>
      <path class="cls-88" d="M1.19,15.43s.51,0,.53.02c.04.07,0,1.54-.05,1.61-.05.07-.64-.03-.69.05-.1.14.08,3.06,0,3.49.07.15.63,0,.69.09.05.07.04,1.58-.02,1.63-.02.01-.44.03-.48-.07-.17-.39.5-.79-.83-.74v-5.29l.8-.07c.05-.04.01-.72.05-.74Z"/>
      <path class="cls-88" d="M9.34,4.07c.17.05.07.43.09.74-.55.02-1.1-.01-1.65,0-.23.07.02.47-.16.55-.41.18-.57-.41-.62.46-.04.62.07,1.26-.05,1.88-.44-.16-.13-.25-.3-.32-.12-.05-.37.05-.39.05-.02,0,.01-.08-.37-.05.03-.58-.04-1.17,0-1.75h.9l.07-.78c.12,0,.73.02.76,0,.07-.05-.03-.68.05-.74.07-.05,1.47-.02,1.68-.05Z"/>
      <path class="cls-2" d="M9.8,23.28c0,.28-.04.49.37.37.25.83-.71-.21-.51,1.01,0,.02,0,.04,0,.05-.81.14-.38.33-.57.41-.46.2-.65-.5-.74.74h-1.4s-.04-.04-.05-.23c0-.08,0-.15,0-.23.07,0,.15-.04.23-.05.09-.01.36.02.39,0,.06-.04,0-.21.02-.25.11-.2.25.16.28-.34-.02-.25.41-.09.48-.14.06-.04-.03-.22.09-.28.07-.03.3.04.34-.02.02-.03.04-.64-.09-.57.01,0,.24-.08.28-.09.33-.07.41.2.37-.41.17,0,.36-.03.51.05Z"/>
      <path class="cls-88" d="M30.71,29.54c-.03.85.04,1.7,0,2.55,0,.04-.09.02-.09.02h-.85l-.07.69s.06.2-.74.05c.01-.13,0-.26,0-.39.5-.24.6.22.64-.39.05-.67-.06-1.35.05-2.02.37.14.07.33.25.41.71.31.36-.79.48-.9.09-.05.22-.01.32-.02Z"/>
      <path class="cls-88" d="M29.7,4.95c-.05.92-.03.66,1.01.69.05.82-.07,1.66.05,2.48-.02,0-.1.1-.41.02-.03-.85.2-.96-.55-.9h-.14c0-.46-.02-.96-.05-1.42,0-.1.01-.42,0-.44-.05-.07-.57,0-.62-.02-.06-.04,0-.32-.02-.41-.06-.14.29-.09.71-.09.04,0,.02.09.02.09Z"/>
      <path class="cls-88" d="M6.95,30.04c.1.61.02,1.23.05,1.84,0,.09-.02.52.02.55.05.04.46-.06.67.05-.03.09.05.31-.07.37-.26.05-.55-.05-.8-.05l-.07-.69h-.76s-.09.01-.09-.02c-.04-.54.03-1.09,0-1.63.14,0,.28,0,.41,0,.12,0,.4.01.44,0,.11-.05.05-.3.11-.41.03,0,.06,0,.09,0Z"/>
      <path class="cls-100" d="M30.67,28.48s.03,0,.05,0c.02.14-.02.54,0,.57.03.05.37.02.46.02.15,0,.32-.04.46.05.06.66.29.06.32.51-.3-.01-.67-.14-1.24-.09-.1,0-.23-.02-.32.02-.12.1.22,1.21-.48.9-.19-.08.12-.28-.25-.41-.06-.02-.19.03-.23-.02-.03-.04-.03-.97,0-1.01.15-.21.74.39.74-.53.17,0,.34,0,.51,0Z"/>
      <path class="cls-88" d="M9.76,24.76c-.2.13-.03.69-.09.8-.04.09-.34,0-.41.09-.07.09.06.5-.07.53-.1.02-.1-.56-.64-.32-.14.06-.04.47-.07.69-.33-.05-.68.05-1.01.05-.03,0-.21-.08-.55-.05,0-.21-.06-.44-.05-.67,0-.04.09-.02.09-.02h1.4c.08-1.23.28-.53.74-.74.19-.08-.24-.27.57-.41.03.05.02.06.09.05Z"/>
      <path class="cls-23" d="M8.42,15.52s-.09,0-.14,0c-.02,0-.03,0-.05,0-.19,0-1.21.04-1.26,0-.08-.05.05-.44-.09-.51-.41-.18-.56.43-.57-.55,0-.14.03-.29-.05-.41,1.05-.15.49.43.67.55.06.04,1.27-.03,1.47,0l.02.92Z"/>
      <path class="cls-100" d="M6.4,28.39c0,.07.09.03.09.07,0,.11-.05.48.07.53.4.18.72-.55.62.99-.06.1-.15.05-.23.07-.03,0-.06,0-.09,0-.17.02-.34-.01-.51,0,0-.57-.02-.48-.46-.51-.44-.03-.89.02-1.33,0,.3-.1.42-.08.44-.09.15-.11-.39-.47.83-.37.22-.49-.22-.77.57-.69Z"/>
      <path class="cls-88" d="M24.46,3.06h-2.67c0-.23,0-.47,0-.69h2.73c.1.82-.07.65-.07.69Z"/>
      <path class="cls-88" d="M14.77,2.37c0,.09,0,.49,0,.69h-2.71c0-.1-.12-.62-.02-.69h2.73Z"/>
      <path class="cls-88" d="M12.1,34.68h2.67c0,.82-.05.65-.05.69h-2.69c-.1-.82.07-.65.07-.69Z"/>
      <path class="cls-88" d="M23.36,34.68h1.15s.17-.14.07.69h-2.64s-.07.12-.09-.69h1.52Z"/>
      <path class="cls-88" d="M27.08,3.98h-.6c-.63-.02-1.27.03-1.91,0-.04,0-.02-.09-.02-.09,0-.17.01-.34,0-.51,0-.03-.01-.08.02-.09.16-.05,2.1.04,2.57,0,.1.83-.07.65-.07.69Z"/>
      <path class="cls-88" d="M26.49,33.76c.2,0,.4,0,.6,0,.15-.05.1.67.07.69-.1.07-2.22-.06-2.55,0,0-.19-.09-.4-.05-.6,0,0-.01-.09.02-.09.63,0,1.27.02,1.91,0Z"/>
      <path class="cls-88" d="M11.96,3.25c0,.2.09.43.05.64,0,0,.01.09-.02.09-.62.02-1.24,0-1.86,0-.28,0-.61.03-.69-.05.04-.12-.05-.59.02-.64l2.5-.05Z"/>
      <path class="cls-88" d="M10.08,33.76c.65-.01,1.28,0,1.93.05,0,.2,0,.4,0,.6l-2.55.05c-.09-.27.02-.65.02-.69h.6Z"/>
      <path class="cls-100" d="M8.33,16.44c0,.4,0,.8,0,1.19,0,.23,0,.46,0,.69,0,.4,0,.8,0,1.19,0,.29,0,.58,0,.87,0,.44.04,1.37,0,1.61-.01.09.03.16-.07.23h-1.08s-.02-.08.02-.09c.19-.04.94.08,1.03-.07v-2.76l-1.03-.02-.02-.85,1.06-.09v-2.83s.03,0,.05,0c.08.28.04.62.05.92Z"/>
      <path class="cls-100" d="M14.77,3.06s.04.09.05.51c-1.05-.21-.58.17-.83.41-1.24.22-.54-.67-.76-.83-.03-.02-.62-.02-.64,0-.06.04,0,.64-.02.76-.4.21-.52-.02-.55-.02.05-.21-.05-.45-.05-.64,0-.04.09-.14.09-.18h2.71Z"/>
      <path class="cls-50" d="M12.74,28.43s.04.04.18.05c-.06.45-.08,1.02-.05,1.47-.39-.06-.8-.06-1.19-.05v-.78c.48-.08.1-.58.25-.69.03-.02.69,0,.8,0Z"/>
      <path class="cls-61" d="M9.44,21.35c-.13,1.36.33.71.46.9.02.03.05.68.05.71,0,.05-.14.02-.14.32-.15-.08-.34-.04-.51-.05-.12,0-.24,0-.37,0v-.94l-.46-.07.55-.07c.05-.07,0-.72,0-.85l.41.05Z"/>
      <path class="cls-88" d="M28.88,32.94h.05s.11.44.02.69h-1.77l-.05-.64c.58-.03,1.16-.07,1.75-.05Z"/>
      <path class="cls-88" d="M28.88,4.81s-.17,0-.28,0c-.47-.04-.99-.03-1.47-.05-.04-.23.04-.44.05-.6.22-.04,1.7-.1,1.77-.05.03.02.08.74-.07.69Z"/>
      <path class="cls-115" d="M7.64,24.43c.18.03.19.14.18.32-.02.5-.16.15-.28.34-.02.04.03.21-.02.25-.03.02-.3-.01-.39,0-.47-.45,0-.44-1.17-.41-.05-.03-.02-.42-.02-.51.47.04,1.36-.06,1.7,0Z"/>
      <path class="cls-88" d="M9.44,32.94c0,.23,0,.46,0,.69-.23-.04-1.65.05-1.72,0-.03-.02-.04-.64-.02-.67.05-.07,1.54-.03,1.75-.02Z"/>
      <path class="cls-100" d="M24.46,3.06s.07.01.09.32c.01.17,0,.34,0,.51-.03,0-.22.22-.51.02-.19-.43.45-.9-.71-.76-.09.85.23.87-.71.83.04-.31-.05-.44-.05-.46s.08-.08.05-.46h1.84Z"/>
      <path class="cls-68" d="M8.65,23.74c.13-.06.11.55.09.57-.04.06-.28,0-.34.02-.12.05-.03.24-.09.28-.07.05-.5-.11-.48.14,0-.18,0-.29-.18-.32-.07-1.04.05-.59,1.01-.69Z"/>
      <path class="cls-100" d="M30.71,5.64c-1.04-.03-1.06.23-1.01-.69.05,0,.14-.16.94-.09,0,.26.05.52.07.78Z"/>
      <path class="cls-100" d="M30.62,32.11c0,.07.09.04.09.07-.02.23-.06.48-.07.71-.8.07-.89-.09-.94-.09l.07-.69h.85Z"/>
      <path class="cls-100" d="M6.86,4.86l-.07.78h-.9c0-.11.05-.75.11-.78.28,0,.57,0,.85,0Z"/>
      <path class="cls-100" d="M6.82,32.8s-.43.09-.8.05c-.17-.07-.02-.7-.02-.74h.76l.07.69Z"/>
      <path class="cls-100" d="M28.88,4.81s.09.13.09.14c.03.09-.04.37.02.41.05.03.57-.04.62.02.01.02,0,.34,0,.44l-1.01-.11v-.9c.1,0,.25-.01.28,0Z"/>
      <g>
        <path class="cls-23" d="M8.47,22.23c.02.09.01.85-.02.87h-1.42c-.16.07.03.62-.14.69-.03.01-.53.01-.55,0-.11-.05-.06-.31-.07-.41.18-.04.04.27.11.32.02.01.44.01.46,0,.09-.06-.1-.52.16-.67-.03-.03-.09-.24-.09-.25.02-.17.08-.35.05-.53.04-.06.18,0,.23-.02h1.08c.1-.06.06-.14.07-.23.07.24.14.22.14.23Z"/>
        <path class="cls-88" d="M6.91,22.78s.06.22.09.25c-.26.14-.07.6-.16.67-.02.01-.44.01-.46,0-.08-.05.06-.36-.11-.32-.05-.74-.04-.6.64-.6Z"/>
      </g>
      <path class="cls-100" d="M10.12,3.98l-.05.8s-.54.02-.64.02c-.03-.31.07-.68-.09-.74.04-.12.09-.13.09-.14.08.08.41.05.69.05Z"/>
      <path class="cls-100" d="M27.08,3.98s.1.06.09.18c0,.16-.08.37-.05.6-.1,0-.58.12-.64.02-.03-.04.02-.65,0-.8h.6Z"/>
      <path class="cls-100" d="M10.08,33.76h-.6s-.05.04-.05-.14c0-.23,0-.46,0-.69.1,0,.61-.02.64.02.03.04-.02.65,0,.8Z"/>
      <path class="cls-100" d="M27.13,32.98l.05.64-.09.14c-.2,0-.4,0-.6,0v-.76c.15-.17.61-.02.64-.02Z"/>
      <path class="cls-100" d="M12.61,34.68h-.51s-.08-.06-.09-.28c0-.2,0-.4,0-.6.03,0,.35-.14.51.02.03.29-.07.61.09.85Z"/>
      <path class="cls-2" d="M24.56,33.86c-.04.2.04.41.05.6,0,.18-.09.2-.09.23h-.64c.34-.22.21-.53.23-.92.51,0,.43.09.46.09Z"/>
      <path class="cls-100" d="M7.69,32.48c-.21-.11-.61,0-.67-.05-.05-.03-.02-.46-.02-.55.74.03.85-.2.78.53,0,.04-.09.06-.09.07Z"/>
      <path class="cls-81" d="M6.36,30.04s-.08.13-.05.41c-.14,0-.28,0-.41,0v-.92c.44.03.46-.06.46.51Z"/>
      <path class="cls-100" d="M7.46,26.59c-.02.1.03.51-.02.55-.03.02-.44-.02-.57,0,0-.2.04-.41.05-.6.34-.04.52.05.55.05Z"/>
      <path class="cls-100" d="M29.61,32.06c-.05.61-.14.15-.64.39,0,.13.01.26,0,.39,0,.04-.04.05-.05.09h-.05c.02-.87-.41-.92.74-.87Z"/>
      <path class="cls-115" d="M9.3,23.24c.04.61-.04.34-.37.41v-.41c.12,0,.24,0,.37,0Z"/>
      <path class="cls-92" d="M6.26,14.05c.08.13.04.28.05.41-.11-.07-.24-.05-.37-.05,0-.12,0-.25,0-.37h.32Z"/>
      <path class="cls-2" d="M30.21,13.4c.16,0,.34.09.51.05,0,.2,0,.4,0,.6-.14,0-.29.04-.41.05-.03,0-.54-.1-.62-.05-.08.05.05.49-.09.55-.06.03-1.07-.02-1.33.05-.17.07-.02.74-.02.87,0,.09,0,.18,0,.28h-.64s-.11.15-.11-.51c-.27.03-.54-.03-.8-.05v-.37c1.49.17.71-.53.94-.69.04-.03.71.02.87,0l.09-.78c.54.02,1.09-.03,1.63,0Z"/>
      <path class="cls-23" d="M30.3,23.33v.37s-.33.2-.57.09c-.16-.07.03-.62-.14-.69h-1.38l-.11-.92c.1,0,.1-.05.14-.05.07,0,.68.17,1.4.09-.09,1.16.83-.06.67,1.1Z"/>
      <path class="cls-100" d="M28.23,19.24c.02-.06,0-.63,0-.83h1.08l.07.8-1.15.02Z"/>
      <path class="cls-3" d="M28.23,15.79c0,.31,0,.61,0,.92-.03-.41-.3-.15-.51-.18-.47-.07-.14-.69-.14-.74h.64Z"/>
      <path class="cls-50" d="M30.76,23.33c-.06,0-.06.21-.05.37-.09.15-.38,0-.41,0v-.37c.15-.03.31,0,.46,0Z"/>
      <g>
        <path class="cls-23" d="M29.35,14.11v.42c.08,1.27-.24.62-.34.79-.04.06.01.6-.03.66-.03.05-.67-.04-.77,0,0-.18-.08-1.05.01-1.15.15-.09.7-.02.74-.06.08-.08,0-.65.05-.73.04-.08.33.06.34.06Z"/>
        <path class="cls-82" d="M29.58,14.05v.48h-.23v-.42c.07,0,.15-.06.23-.06Z"/>
      </g>
      <path class="cls-50" d="M13.8,29.26c0,.21-.03.46.05.64-.99-.02-.36.31-.57.46-.02.01-.37,0-.39-.02-.01-.02,0-.3,0-.39-.03-.45-.01-1.03.05-1.47.28.02.57-.01.85,0,.04.03.02.66.02.78Z"/>
      <path class="cls-88" d="M15.36,30.59c-.13.08-.28.04-.41.05-1.09.01-.39-.42-.6-.71-.03-.04-.42-.02-.51-.02-.08-.18-.04-.44-.05-.64.26.03.22-.04.23-.05,1.27-.15.69.35.83.67.06.14.45.02.51.09.02.03-.01.5,0,.62Z"/>
      <path class="cls-88" d="M16.33,31.42c.02.74-.28.35-.37.48-.03.04.03.38,0,.41-.11.16-.41-.27-.51.39-.09-.41-.04-.83-.05-1.24,0-.38.05-.61.05-.69.95-.19-.15.75.87.64Z"/>
      <path class="cls-100" d="M15.46,30.78c0,.08-.05.31-.05.69-.65.2-.43-.08-.46-.83.14,0,.29.03.41-.05,0,.05.09.14.09.18Z"/>
      <path class="cls-23" d="M12.65,27.1c-.21,0-.4.1-.6.09-.2,0-.44-.07-.64-.07-.02-.53.02-1.06,0-1.59h.05c.15,0,.31,0,.46,0,.31,0,.6-.04.64.02.04.53-.1,1.44.09,1.54Z"/>
      <path class="cls-74" d="M13.3,23.33v.37s.02.08-.02.09c-.09.02-.4-.03-.44.02-.04.05.07.47-.07.53-.04.02-.6-.02-.94,0-.02,0-.07-.1-.37-.02v1.22h-.05c0-.17-.02-1.2-.07-1.24-.02-.01-.44-.01-.46,0-.2.14.56.59-1.13.46-.07.01-.06,0-.09-.05,0,0,0-.03,0-.05,1.46.22.88-.2,1.29-.44-.03-.15,0-.5,0-.53,2.38.26,1.53-.28,1.72-.41.08-.06.59.05.62.05Z"/>
      <path class="cls-88" d="M12.65,27.1c.24,0,.52-.04.6.07-.18,1.26.54.57.69.78.05.07,0,1.04.09,1.26-.01,0,.03.07-.23.05,0-.12.02-.75-.02-.78-.28-.01-.57.02-.85,0-.14,0-.17-.05-.18-.05.21-1.47-.85-.09-.69-1.24.2,0,.39-.09.6-.09Z"/>
      <path class="cls-88" d="M20.79,5.68s.12.1.46,0c0,.02,0,.03,0,.05,0,.47,0,.93,0,1.4.03.04.46.02.55.02.14,0,.28,0,.41,0,.05.68-.22.73.51.69,0,0,.09-.01.09.02.01.22-.01.45,0,.67.02.24-.01.48,0,.71.09.13.33.05.55.07.09,0,.47-.03.51.02.03.05-.04.66.02.71.23.16.73-.43.71.6-.03,0-.44-.26-.55.09-1.18.06-.49-.72-.71-.87-.07-.05-.64.08-.71-.07v-1.19l-.85-.02c.14-1.62-.94,0-.76-1.45-.9.13-.34-.71-.53-.85-.01-.01-.35-.01-.37,0-.15.1.37.53-.8.41,0-.06-.13-.1-.09-.23.93-.13.4-.25.57-.37.2-.14.4.33.44-.41.18.03.37,0,.55,0Z"/>
      <path class="cls-88" d="M16.33,5.87c-.03.25.05.35.05.37,0,.27-.09.57-.05.85-1.47-.11.01.91-1.45.71l-.09.74c-.53.24-.93-.72-.8,1.26-.07.15-.68,0-.74.09-.03.05.05.71-.02.76-.37.26-.82-.82-.67,1.49-.07.15-.68,0-.74.09-.03.04.03.78,0,.83-.03.04-.43.04-.46,0-.06-.09.04-.75.05-.9.04,0,.04.01.05.05,0,.13-.03.79.02.83.31.22.31-.48.21-.83.15-.02.72-.03.78-.11l.05-1.47c-.44-.18-.4-.04-.51-.02.04-.88.11-.39.74-.62,0-.19,0-.38,0-.57-.02-.26.58-.07,1.06-.16-.06-.41.07-1.04.05-1.4.55.02.56.09.51-.64.11-.07.24-.04.37-.05.1,0,.6.02.62,0,.07-.05-.02-.59.05-.64.04-.03.96.11.57-.3-.08-.09-.29.17-.23-.44.17,0,.36.02.53,0l.07.09Z"/>
      <path class="cls-88" d="M22.86,28.48c-.02.41.03.83,0,1.24-.01.18-.05.13-.05.14-.14.01-.5-.02-.53,0-.05.03-.02.46-.02.55,0,.05,0,.09,0,.14-.15.08-.34.04-.51.05-.09,0-.47-.02-.51.02.01.44-.01.87,0,1.31,0,.02,0,.03,0,.05-.15-.04-.44.05-.46.05s-.07-.04-.46-.05c.01-.26-.01-.53,0-.78.01-.23-.05-.47.07-.55,1.35.17-.16-.84,1.36-.71-.23-1.22.71-.51.87-.74,0-.24-.01-.48,0-.71h.23Z"/>
      <path class="cls-100" d="M23.36,33.81v.87h-1.52c0-.3-.04-.61-.05-.92.33.05.69-.05,1.01-.05.08,0,.48.09.55.09Z"/>
      <path class="cls-2" d="M22.58,3.52s.08.15.05.46c0,0-.09-.02-.09.02-.03.25.07.7-.07.76-.22.02-.5-.03-.71,0,0-.4,0-.8,0-1.19.23-.12.55-.01.83-.05Z"/>
      <path class="cls-100" d="M22.63,3.06c.03.38-.05.44-.05.46-.28.03-.6-.07-.83.05,0-.42.05-.48.05-.51h.83Z"/>
      <g>
        <path class="cls-2" d="M5.9,7.48v.74c-.54.04-1.04-.11-1.1.14-.05-.18-.32-.16-.51-.18.11-.13,0-.68.07-.74.06-.04,1.35,0,1.54.05Z"/>
        <path class="cls-65" d="M6.26,7.43l.05.71c-.08.12-.25.06-.41.07v-.83c.38-.03.35.05.37.05Z"/>
        <path class="cls-100" d="M6.95,7.7s.15-.03.18.02c.02.04.03.93,0,.97-.16.23-.76-.5-.74.76-.78.06-.48-.06-.57-.78-.03-.02-.62.02-.76,0-.07,0-.24.02-.28-.02-.02-.03.02-.23,0-.3.06-.25.56-.1,1.1-.14.16-.01.33.05.41-.07l-.05-.71s.27-.1.39-.05c.17.08-.14.16.3.32Z"/>
      </g>
      <path class="cls-100" d="M7,5.82c.05-.87.21-.28.62-.46.18-.08-.07-.48.16-.55-.14.79.67,1.19-.78,1.01Z"/>
      <path class="cls-23" d="M10.95,23.7s-.03.38,0,.53c-.41.24.17.66-1.29.44-.2-1.22.76-.18.51-1.01.07-.02.16-.24.32-.28.52-.13.44.14.46.32Z"/>
      <path class="cls-40" d="M10.49,23.38c-.16.04-.25.25-.32.28-.41.13-.37-.09-.37-.37,0-.3.13-.27.14-.32.12.01.45-.02.48,0,.07.05-.04.35.07.41Z"/>
      <g>
        <path class="cls-100" d="M30.76,8.12c.54,0,1.12-.16,1.61,0-.12,0-.35-.02-.39,0-.17.08.1.71-.37.46-.04.02-.01.14-.02.14-.05.01-.18.04-.23.05-.31.05-.7-.39-.6.51-.03,0,.03.14-.51.09,0-.03-.07.03-.07-.55l-.8-.02c.05-.83-.16-.92.23-1.08.17-.07.32.16.18-.46.75-.06.52.05.55.9.31.08.39-.02.41-.02Z"/>
        <path class="cls-81" d="M29.8,7.25c.14.62-.02.39-.18.46,0-.13.05-.4.05-.46h.14Z"/>
      </g>
      <path class="cls-2" d="M15.36,5.73s-.02.03.32.05c.02,0,.03,0,.05,0-.06.61.14.35.23.44.39.41-.54.27-.57.3-.07.05.02.59-.05.64-.03.02-.52,0-.62,0l.05-.71c-.03-.05-.41-.01-.51-.02-.2-.03-.22-.09-.23-.09-.1-.62,0-.6,1.33-.6Z"/>
      <path class="cls-50" d="M14.81,3.57c0,.44,0,.89,0,1.33-.11-.07,0-.3-.05-.39-.01-.03-.6,0-.62-.02-.1-.07.11-.43-.16-.51.25-.25-.23-.62.83-.41Z"/>
      <path class="cls-50" d="M6.86,30.04c-.06.11,0,.37-.11.41-.03.01-.32,0-.44,0-.03-.28.05-.39.05-.41.17-.01.34.02.51,0Z"/>
      <path class="cls-2" d="M8.33,11.93c.15.09-.03.59.05.76.09.21.34-.17.51.3.1.28,0,.31,0,.32.03-.16-.66-.09-1.1-.07.17.03.07.38.09.74l1.03.07s.01.29.02.37c.01.1.05.38.05.41,0,.06,0,.44,0,.46,0,.02-.05.12-.07.32-.52.05-.46-.09-.48-.09l-.02-.92c-.2-.03-1.41.04-1.47,0-.18-.13.39-.7-.67-.55h-.32c0-.09.01-.15-.05-.23.06-.4.18-.26.18-.28.25-.01.63.13.6-.23,1.02-.04,1.16.26,1.03-.74h-.85c.02-.19.04-.45.05-.64h1.42Z"/>
      <path class="cls-40" d="M9.34,15.29c.08,0,.15,0,.23,0,.17,1.12-.64.15-.51,1.1-.04,0-.4.09-.74.05,0-.3.04-.64-.05-.92.05,0,.09,0,.14,0,.03,0-.04.14.48.09.01-.2.07-.31.07-.32h.37Z"/>
      <path class="cls-52" d="M8.98,20.48s.05.36.05.83c0,.13.05.78,0,.85l-.55.07s-.07.01-.14-.23c.04-.24,0-1.16,0-1.61l.64.09Z"/>
      <path class="cls-34" d="M9.02,18.32c.05.27.08.97.05,1.19-.08.5-.73.47-.74,0,0-.4,0-.8,0-1.19.21-.02.5.03.69,0Z"/>
      <path class="cls-61" d="M9.25,16.48c.1,1.1-.22.6-.32.92,0,0-.04-.05-.05.18l-.55.05c0-.4,0-.8,0-1.19.33.04.7-.05.74-.05.01,0,.14.09.18.09Z"/>
      <path class="cls-31" d="M9.07,19.52h.55s0,.06,0,.09c-.78-.21-.5.17-.55.74,0,.07-.09.13-.09.14l-.64-.09c0-.29,0-.58,0-.87,0,.47.65.5.74,0Z"/>
      <path class="cls-31" d="M9.62,18.23c-.33-.15-.57.09-.6.09-.19.03-.48-.02-.69,0,0-.23,0-.46,0-.69l.55-.05s.07.42.07.6c.3-.06.71-.1.67.05Z"/>
      <path class="cls-68" d="M29.66,12.58c.04.72.67-.13.55.83-.54-.03-1.09.02-1.63,0l-.09.78c-.17.02-.84-.03-.87,0-.23.16.55.86-.94.69-.07,0-.24.02-.28-.02-.02-.03.01-.28,0-.39,1.31-.06.58-.25.78-.67.05-.11.2-.04.23-.09.02-.04-.02-.24,0-.28.05-.07.58.02.67-.02.13-.06.03-.32.09-.37.04-.03.35.04.39-.02.15-.21-.51-.54,1.1-.44Z"/>
      <path class="cls-2" d="M28.09,22.18l.11.92h1.38c.16.07-.03.62.14.69.25.11.54-.09.57-.09.04,0,.32.15.41,0,0,.06.05.04.05.05,0,.11.04.55-.07.6-.19,0-.38,0-.57,0-.42.02-.91,0-1.33,0l-.11-.64h-.99c.03-.49-.02-.98,0-1.47.14-.01.26-.05.41-.05Z"/>
      <path class="cls-88" d="M27.59,22.18s-.02.06.09.05c-.02.49.03.98,0,1.47,0,.08,0,.11-.05.18-.3-.08-.04-.42-.16-.51-.02-.01-.44-.01-.46,0-.06.04.01.23-.05.28-.11.08-.9-.1-.71.3.14.31.93-.46.74.83.88.09.44.29.57.39.04.03.51-.03.55,0,.04.03.04.62,0,.64-.03.02-.41-.01-.55,0-.42-.62-.59.44-.69-1.01-.33.05-.67-.05-.99-.05-.02-.16.03-.51,0-.57-.05-.11-.19-.06-.28-.07-.17-.95.89.02.74-.94.84-.09.33-.45.62-.57.05-.02.22.02.28,0,.22-.1-.19-.33.34-.41Z"/>
      <path class="cls-58" d="M11.83,24.34c-.03.22.03.43.05.64.01.18-.04.39.05.55-.15,0-.31,0-.46,0v-1.22c.3-.08.35.02.37.02Z"/>
      <path class="cls-68" d="M16.93,21.86c.06.41.14.36.6.32v.69c-.48,0-.97,0-1.45,0l-.09.83c-.21.03-1.45-.04-1.52,0-.07.05.02.59-.05.64-.06.04-1.23-.03-1.42,0-.15.07-.01.59-.09.64-.04.03-.87-.02-1.03,0-.01-.21-.08-.42-.05-.64.34-.02.9.02.94,0,.14-.06.03-.47.07-.53.04-.06.35,0,.44-.02.04,0,.02-.09.02-.09.41-.09.62.26.55-.46.24-.02.47-.08.71-.05.02-.29.07-.26.07-.28.48-.02.71.15.64-.37.29-.04.15-.2.18-.41.33.09.63.14.55-.28.15,0,.32-.05.46-.05.02,0,.15.08.46.05Z"/>
      <path class="cls-90" d="M13.85,23.24c.07.72-.14.37-.55.46v-.37s-.08-.07.23-.14c0,.06.19.06.32.05Z"/>
      <path class="cls-68" d="M24.74,12.81c.06,0-.03.06.23.09.08,0,.15,0,.23,0,0,.09.02.47-.02.51-1.85-.13-1.03.3-1.22.57-.1.14-.64-.29-.51.57-.54.03-.42.08-.46.09-.53.1-.52-.26-.55.55-.17.01-.39.08-.55.09-.03,0-.18-.08-.53-.05.01.11-.07.52-.07.55-.14-.01-.32.02-.46,0,0,0-.03-.09-.07-.09-.15-.02-1.27-.03-1.33,0-.1.04-.06.15-.07.23l-1.93.05c-.02-.32-.76-.26-1.52-.23.08-.48-.28-.25-.18-.87.74.02,1.51-.05,2.25-.05.22,0,.43,0,.64,0,.86,0,1.73.08,2.6,0l.05-.78c1.26-.08,1.64.32,1.56-.6,1.35.14-.48-1.02,1.91-.64Z"/>
      <path class="cls-88" d="M18.67,6.97q-.02,3.93-.05,7.86c-.22,0-.43,0-.64,0v-7.81c.17,0,.49-.04.69-.05Z"/>
      <path class="cls-54" d="M14.17,14.05c.71.93.2.73,1.15.78.13,0,.29.04.41.05-.1.62.27.39.18.87-.02,0-.35.13-.41.14-.02,0-.05-.04-.37-.05.07-.94-.16-.58-.46-.6-.21-.01-.43-.03-.64-.05-.02-.14.02-.63,0-.67-.03-.05-.42-.02-.51-.02-.21-.01-.43,0-.64,0,.03-.67-.04-.45-.37-.51.02-.1-.03-.47.02-.51.05-.04,1.23-.03,1.29,0,.14.06.03.47.07.53.03.05.21.02.28.02Z"/>
      <path class="cls-23" d="M9.62,13.73c-.02-.15.02-.68,0-.71-.04-.06-.62,0-.74-.02-.17-.46-.41-.09-.51-.3-.07-.17.11-.66-.05-.76,0-.07.07-.02.09-.09,1.32.03.71.23.94.37.25.14.25-.31.37.78,1.13.06,1.48-.32,1.19.78-.38-.04-.97.07-1.31-.05Z"/>
      <path class="cls-23" d="M11.69,12.21c-.07.01-.15,0-.23,0,0-.04,0-.05-.05-.05,0-.5,0-1,0-1.49.2,0,.4-.05.6-.07.11-.01.07-.16.51.02l-.05,1.47c-.06.08-.63.09-.78.11Z"/>
      <path class="cls-68" d="M8.88,13.31c.06.31.11.08.51.28l-.05.78s-.04.08-.41.05c0-.08.03-.33-.02-.37l-1.03-.07c-.03-.36.07-.71-.09-.74.44-.02,1.13-.09,1.1.07Z"/>
      <path class="cls-88" d="M7.46,11.2c.23.03.59-.03.78,0,.05,0,.16-.02.18.02-.02.18.03.53,0,.62-.02.08-.09.02-.09.09h-1.42c0-.05-.09-.1-.09-.11,0-.21.05-.41.05-.62h.6Z"/>
      <path class="cls-61" d="M10.31,15.29c-.21.05-.35-.05-.37-.05.03-.54.01-.4-.55-.41.04-.14.09-.28,0-.41.31.06,1.49-.06,1.56-.05,0,0-.02.08.02.09.05.02.26-.01.3.07.26.51-.55.29-.67.34-.19.08.13.31-.3.41Z"/>
      <path class="cls-88" d="M12.42,14v.51c-.17,0-1.04.01-1.08.05-.13.09.31.5-.69.37-.11.58-.24.39-.25.41l-.09-.05c.43-.11.11-.33.3-.41.11-.05.93.17.67-.34-.04-.08-.25-.05-.3-.07-.04-.01-.02-.09-.02-.09.01-.08-.03-.33.02-.37.06-.04,1.27-.01,1.45,0Z"/>
      <path class="cls-68" d="M15.32,14.83c-.95-.05-.44.15-1.15-.78.23.03,1-.04,1.08,0l.07.78Z"/>
      <path class="cls-100" d="M9.62,13.73s.01.06-.07.05c-.02-.26-.07-.14-.16-.18-.4-.19-.44.03-.51-.28,0-.02.1-.05,0-.32.12.02.69-.04.74.02.02.03-.02.57,0,.71Z"/>
      <path class="cls-100" d="M12.51,14c.33.05.4-.16.37.51-.03,0-.04.04-.18.05-.3,0-.26-.05-.28-.05v-.51s.06,0,.09,0Z"/>
      <path class="cls-21" d="M9.39,14.41c.09.14.04.27,0,.41h-.41s-.03-.31-.05-.41c.38.03.39-.05.41-.05.06.01.04.03.05.05Z"/>
      <path class="cls-23" d="M24.6,10.65c.1.01.56-.03.6.02-.03.74.04,1.49,0,2.23-.08,0-.15,0-.23,0,.41-.56.21-.66-.23-.69-.11,0-.65.03-.69-.02.03-.34-.05-1.3,0-1.45.11-.35.52-.1.55-.09Z"/>
      <path class="cls-100" d="M22.53,6.33s-.09.09-.11.09c-.14.01-.33-.02-.44,0-.29.05-.16.03-.18.74-.09,0-.52.02-.55-.02,0-.47,0-.93,0-1.4,1.14.06,1.39-.28,1.29.6Z"/>
      <path class="cls-50" d="M24,8.58c.07.96-.51.48-.64.74-.22-.02-.46.06-.55-.07-.01-.24.02-.48,0-.71.4-.04.8.04,1.19.05Z"/>
      <path class="cls-50" d="M14.72,7.15c-.12,0-.25-.03-.37.05,0-.04-.15-.11-.09-.78.09.01.47-.03.51.02l-.05.71Z"/>
      <path class="cls-61" d="M11.69,12.21c.1.35.11,1.05-.21.83-.05-.04-.01-.7-.02-.83.07,0,.16.01.23,0Z"/>
      <path class="cls-88" d="M29.61,25.81c0,.07.09.03.09.07.02.23-.05.46-.05.67h-.51c-.25-.03-.67.04-.87,0-.05,0-.16.02-.18-.02-.23-1.15.82-.57,1.52-.71Z"/>
      <path class="cls-23" d="M25.2,24.8c.02.27.07,2.23,0,2.32-.05.07-.57,0-.62.02-.07.05.02.5-.05.55-.28.2-.74-.53-.78.78h-1.13s0-.06,0-.09c.17-.02,1.04.03,1.08,0,.18-.13-.38-.92.64-.74.32-.17-.13-.57-.3-.6v-1.45c.07-.11.18-.06.28-.07.15-.02.41.05.46-.07.03-.06-.02-.35,0-.48.08-.51.36.1.41-.6.02.05,0,.28,0,.41Z"/>
      <path class="cls-88" d="M28.23,11.2h1.42c0,.23,0,.45,0,.69-.51-.02-1.01,0-1.52.05.01-.24-.01-.48,0-.71,0-.04.09-.02.09-.02Z"/>
      <path class="cls-100" d="M29.7,10.46c0,.17,0,.34,0,.51,0,.19-.05.22-.05.23h-.55c.02-.17-.03-.6,0-.67.07-.15.46-.01.6-.07Z"/>
      <g>
        <path class="cls-87" d="M19.09,1.22s-.07.03-.37.05c-.21,0-.43-.01-.64,0-.5.03-.65-.15-.6.41-.54.05-.09.41-.21.46-.19.02-.43-.06-.48.09.03-.2.7-.19.34-.41-.09-.05-.04.14-.14.18-.31.13-.7-.2-.57.51-.62,0-.2,1.52-.32,2l.74.02c.02.18.06.37.07.55.66.01.53-.14.76.09,0,0-.04,0,.14.18.01.01.12-.02.14.02.15.31-.42.57.8.48.06-.04,0-.25.02-.32.66.19.93.25.83-.51.24,0,.46.03.46-.05,0,0,.09.03.09.07.03.2-.08.37.14.51-.3.09-.05.1-.05.11-.03.74-.24.28-.44.41-.17.12.36.24-.57.37-1.3.18-1.64-.29-1.52.51-.7-.08-.21-.2-.39-.32-.04-.03-.48.03-.55,0-.19-.09.16-.52-.39-.41,0-.02-.08-.11-.05-.37-.05.28.58.33.6.3.28-.5-.37-.35-.41-.46-.15-.33.45-.62-.83-.53.08-1.05-.16-.7-.23-.85-.03-.06,0-1.16,0-1.33,0-.05.14-.08.14-.09.02-.3-.05-.6-.05-.9.02-.97.2-.14.48-.74.31.06.19-.14.21-.55.65-.07.43-.09.46-.09.12,0,2.27-.02,2.37.05.06.04,0,.45.02.55Z"/>
        <path class="cls-56" d="M21.8,2.37c0,.22,0,.46,0,.69,0,.03-.05.09-.05.51,0,.4,0,.8,0,1.19-.03,0,.13.14-.46.09,0,0-.04.03-.05-.09,0-.2.01-.4,0-.6-.01-.15-.07-.31-.09-.46.05,0,.09,0,.14,0,.16-.01.33.05.41-.07-.05-.46.09-.62-.37-.71-.03-.65-.79.54-.51-1.45-.03-.05-.25-.02-.32-.02-.04,0-.1,0-.14,0-.02-.52-.58-.2-1.06-.18-.15.03-.2-.05-.23-.05-.02-.1.03-.51-.02-.55-.1-.07-2.25-.05-2.37-.05-.09-.41.35-.15.53-.23.13-.06,0-.31.14-.37.09-.04,1.89-.04,1.98,0,.12.05.05.27.07.3.05.06.44,0,.48.02.06.04-.03.27.09.32.09.04.73-.04.78,0,.14.1-.28.44.48.53-.15,1.5.53.28.55,1.17Z"/>
        <path class="cls-56" d="M15.69,5.18v.6c-.34-.02-.31-.05-.32-.05.09-1.19-.21-.62-.55-.83,0-.44,0-.89,0-1.33,0-.42-.05-.48-.05-.51,0-.2,0-.6,0-.69.02-.45.11-.3.6-.32.08,0,.11,0,.18-.05,0,.3.06.59.05.9,0,.02-.14.05-.14.09,0,.17-.03,1.27,0,1.33.07.15.31-.2.23.85Z"/>
        <path class="cls-67" d="M16.24.72c-.02.41.1.61-.21.55-.28.59-.46-.24-.48.74-.07.05-.11.04-.18.05-.07-1.23.13-.69.44-.83.14-.06.03-.43.07-.48.03-.05.29-.02.37-.02Z"/>
        <path class="cls-54" d="M18.08,1.73s.06,0,.09,0c-.06.44.15.21.3.28.09.04.06.14.07.14-.18.87.61.35.74.53.02.03,0,.56,0,.67h-.37l-.55.07c.14,1.6-.34.83-.46,1.1-.06.13.05.42.05.44,0,.02-.2.24-.28.23-.23-.23-.1-.08-.76-.09,0-.18-.05-.37-.07-.55,0-.06,0-.12,0-.18.69.3.66-1.03,0-.78,0-.33-.04-.68-.05-1.01,0-.1-.01-.23,0-.32.05-.16.29-.07.48-.09.11-.05-.33-.41.21-.46.03,0,.4.05.6.05Z"/>
        <path class="cls-8" d="M16.42,2.51s.02.08.37.05c0,.33.04.68.05,1.01,0,.26-.01.52,0,.78,0,.06,0,.12,0,.18l-.74-.02c.12-.48-.3-1.99.32-2Z"/>
        <path class="cls-46" d="M19.27,4.12s.09.39.09.41c0,.07-.09.03-.09.07-.02.19,0,.28-.05.48-.01.07.02.23,0,.25-.08.11-.35-.14-.46.21-.02.07.03.28-.02.32-1.22.09-.65-.17-.8-.48-.02-.05-.13-.01-.14-.02-.01-.2.58-.03.67-.09.05-.04,0-.25.02-.32.08-.37.37-.07.46-.21.02-.03,0-.52,0-.62h.32Z"/>
        <path class="cls-105" d="M20.47,4.12c.05,0,.11.04.28.05.03.17.09.43.09.6,0,.29-.1.62-.05.92-.18,0-.37.03-.55,0,0-.01-.26-.03.05-.11-.21-.14-.11-.3-.14-.51,0-.04-.09-.06-.09-.07-.03-.29-.01-.61.09-.87.05-.01.21,0,.32,0Z"/>
        <path class="cls-56" d="M19.22,6.46c-.04.13.09.17.09.23,0,.41-.34.26-.64.28-.2,0-.52.05-.69.05-.01,0-.11-.03-.28-.05-.12-.8.22-.32,1.52-.51Z"/>
        <path class="cls-77" d="M16.33,5.87l-.07-.09c-.17.02-.36,0-.53,0-.02,0-.03,0-.05,0v-.6c1.28-.09.68.2.83.53.05.11.69-.04.41.46-.02.03-.65-.02-.6-.3Z"/>
        <path class="cls-86" d="M20.14,4.12c-.11.27-.13.58-.09.87,0,.08-.22.04-.46.05-.13,0-.24,0-.37.05.04-.21.03-.3.05-.48,0-.04.09,0,.09-.07.58.02.41-.02.46-.14.37.19.02-.19.32-.28Z"/>
        <path class="cls-80" d="M19.32,1.27l.09.57-.64.02s-.09-.15-.09-.18c0-.02.08-.04.05-.41.3-.01.35-.05.37-.05.03,0,.08.07.23.05Z"/>
        <path class="cls-105" d="M19.59,5.04c.11.76-.16.69-.83.51.11-.34.38-.1.46-.21.02-.03-.01-.19,0-.25.13-.05.24-.04.37-.05Z"/>
        <path class="cls-26" d="M18.08,1.27v.46c-.2,0-.57-.05-.6-.05-.05-.57.09-.38.6-.41Z"/>
        <path class="cls-86" d="M18.72,1.27c.03.37-.05.39-.05.41-.17-.04-.35.04-.51.05-.03,0-.06,0-.09,0v-.46c.21-.01.43,0,.64,0Z"/>
        <path class="cls-77" d="M16.79,2.24c-.01.09,0,.22,0,.32-.34.03-.35-.05-.37-.05-.12-.71.26-.38.57-.51.09-.04.05-.24.14-.18.35.22-.32.21-.34.41Z"/>
        <path class="cls-28" d="M17.94,4.95h.55c-.02.07.03.28-.02.32-.08.06-.68-.11-.67.09-.17-.19-.13-.17-.14-.18.08,0,.27-.21.28-.23Z"/>
        <path class="cls-105" d="M21.34,2.93c0,.16-.09.47-.05.78-.05,0-.09,0-.14,0-.02,0-.03,0-.05,0-.23,0-.46,0-.69,0-.02-.31,0-.78,0-1.1.01-.37.05-.77.09-1.15.07,0,.29-.02.32.02-.29,1.99.48.8.51,1.45Z"/>
        <path class="cls-87" d="M20.37,1.45c-.54.07-.14.18-.37.51-.27-.04-.72.02-.87,0-.09-.01-.29-.05-.37-.09l.64-.02-.09-.57c.48-.02,1.04-.33,1.06.18Z"/>
        <path class="cls-75" d="M21.25,4.76c0,.12.05.09.05.09,0,.26-.05.55-.05.83-.34.1-.44,0-.46,0-.05-.3.05-.63.05-.92h.41Z"/>
        <path class="cls-105" d="M20.37,1.45s.1,0,.14,0c-.04.37-.08.77-.09,1.15.03-.2-.36-.1-.55-.14v-.05c.08,0,.15.02.18-.02-.03-.31.09-.49-.05-.44.23-.32-.17-.43.37-.51Z"/>
        <path class="cls-87" d="M21.25,4.17c.01.2,0,.4,0,.6h-.41c0-.16-.06-.43-.09-.6.28,0,.22-.05.23-.05.1,0,.19-.01.28.05Z"/>
        <path class="cls-75" d="M21.29,3.71c-.04-.31.05-.62.05-.78.46.1.31.25.37.71-.08.12-.25.06-.41.07Z"/>
        <path class="cls-98" d="M21.25,4.17c-.09-.06-.18-.05-.28-.05.02-.21-.08-.34.14-.41.02,0,.03,0,.05,0,.02.15.08.31.09.46Z"/>
        <path class="cls-2" d="M18.9,3.34c.07.22.05.54.05.78,0,.1.02.6,0,.62-.09.13-.38-.17-.46.21h-.55s-.1-.31-.05-.44c.12-.28.6.49.46-1.1l.55-.07Z"/>
        <path class="cls-100" d="M19.87,2.42v.05c.04.35-.04.71-.05,1.06h-.51s-.04.05-.05-.18c0-.11.02-.64,0-.67-.13-.18-.92.35-.74-.53.18.04.54.03.6-.18-.05.41.14.47.74.46Z"/>
        <path class="cls-100" d="M16.83,4.35c-.01-.26,0-.52,0-.78.66-.25.69,1.08,0,.78Z"/>
        <path class="cls-51" d="M18.67,1.68s.06.16.09.18c.08.04.27.08.37.09-.05.22-.42.22-.6.18,0,0,.02-.1-.07-.14-.15-.07-.36.17-.3-.28.16,0,.34-.09.51-.05Z"/>
        <path class="cls-43" d="M19.27,3.34c0,.24.05.17.05.18,0,.03-.04.41-.05.6h-.32c0-.24.03-.56-.05-.78h.37Z"/>
        <path class="cls-51" d="M19.82,3.52s.13.57,0,.87c-.05.11.12.16-.46.14,0-.02-.09-.38-.09-.41,0-.19.05-.57.05-.6h.51Z"/>
        <path class="cls-106" d="M20.42,2.6c0,.33-.02.79,0,1.1,0,.02.08.13.05.41-.11,0-.27-.01-.32,0-.3.09.05.46-.32.28.13-.3,0-.83,0-.87,0-.35.09-.71.05-1.06.19.03.58-.07.55.14Z"/>
        <path class="cls-20" d="M21.11,3.71c-.22.08-.12.2-.14.41-.01,0,.05.05-.23.05-.17,0-.22-.05-.28-.05.03-.28-.04-.39-.05-.41.23,0,.46,0,.69,0Z"/>
        <path class="cls-109" d="M20.01,1.96c.14-.05.01.13.05.44-.03.04-.11.02-.18.02-.59.01-.79-.05-.74-.46.16.02.61-.04.87,0Z"/>
      </g>
      <path class="cls-100" d="M7.46,11.2h-.6c0-.24,0-.49,0-.74,0-.02,0-.03,0-.05.83-.05.44.03.6.78Z"/>
      <path class="cls-68" d="M6.68,13.31s-.07-.07-.05-.18c.02,0,.13-.04.14-.05.15-.08.15.14.23-.51h.71c.12,1-.01.69-1.03.74Z"/>
      <path class="cls-40" d="M6.86,12.58h.14c-.08.64-.08.43-.23.51.01-.13-.02-.29,0-.41.03-.15.09-.08.09-.09Z"/>
      <path class="cls-58" d="M10.31,15.29l.09.05c-.03.07.02.33,0,.46,0,0-.08.05-.09.14-.11.01-.41-.02-.44,0-.05.04,0,.33-.02.41,0,0-.06.08-.14.09-.14.01-.33.04-.46.05-.05,0-.17-.09-.18-.09-.13-.96.68.02.51-1.1.31,0,.35-.04.37-.05s.16.1.37.05Z"/>
      <g>
        <path class="cls-76" d="M9.34,14.83v.46h-.37s0-.4,0-.46h.37Z"/>
        <path class="cls-110" d="M9.94,15.24s-.06.04-.37.05c-.08,0-.15,0-.23,0v-.46h.05c.56.01.59-.13.55.41Z"/>
      </g>
      <g>
        <path class="cls-101" d="M6.91,25.63c0,.19.05.22.05.23,0,0-.09-.01-.09.02-.01.22.05.46.05.67,0,.19-.04.4-.05.6-.04,1.33-.05.62-.34.83-.05.03-.01.31-.02.39,0,.04-.09.02-.09.02-.8-.08-.35.2-.57.69-1.22-.11-.67.26-.83.37-.02.01-.14,0-.44.09,0,0,.02.08-.02.09-.1.02-1.88.08-1.98.05-.12-.04-.04-.26-.07-.3-.12-.2-.6.13-.51-.3.02,0,.14-.06.23-.07,0-.19,0-.38,0-.57,0-.02.05-.24.05-.28.31.28.45.32.92.32.02.09-.03.38.02.41.05.04,1.19.04,1.24,0,.07-.05-.03-.26.07-.28.67.18.54-.25.57-.28.23-.16.76.47.62-.76.06-.14.56-.03.62-.07.05-.03.02-.42.02-.51.01-.2,0-.4,0-.6,0-.2-.02-.4,0-.6.01-.14.04-.16.05-.18h.51Z"/>
        <path class="cls-6" d="M1.67,23.24c-.07.63-.3.11-.37.6-.82-.2-.44.66-.46,1.56,0,.06-.17.64-.09,1.19,0,.06-.02.2.02.23.26.18.24-.47.34.92.02.22-.01.45,0,.67,0,.04.09.02.09.02,0,.06-.09.13-.09.14.03-.19-.35-.03-.41-.11-.17-.24.45-.89-.64-.78.07-.4-.09-3.09,0-3.22.05-.07.5.02.55-.05.03-.05-.04-.61,0-.69.06-.13.31,0,.37-.14.14-.32-.34-.31.69-.34Z"/>
        <path class="cls-101" d="M2.82,23.19c-.23.95.24.41.46.69-.07.03-1.15,1.06-1.19,1.13-.13.2.34.24-.55.34-.24.03-.46-.04-.69.05.02-.9-.36-1.77.46-1.56-.07.46.32.44.48.37.13-.06.04-.35.07-.39.05-.06.32.02.37-.05.02-.02.02-.53,0-.55-.03-.04-.38-.02-.46-.02.01-.09-.02-.24,0-.28.82-.1.83.23,1.06.28Z"/>
        <path class="cls-6" d="M5.57,23.38c.03.1-.05.09-.05.09-.16.02-.51-.03-.57,0-.11.05-.06.19-.07.28-.35.18-.25-.17-.62-.09-.13-.79-.18-.44-.76-.46-.22,0-.58.02-.69,0-.23-.05-.24-.38-1.06-.28.1-.2.72-.03.8-.09.07-.05-.04-.31.09-.37.08-.04,1.76-.05,1.84,0,.1.07-.21.47.51.37,0,.65.42.02.57.55Z"/>
        <path class="cls-58" d="M5.53,23.47c.07.43-.07.56.41.51,0,.15,0,.31,0,.46,0,.09-.02.47.02.51,1.17-.03.7-.04,1.17.41-.08.01-.16.04-.23.05-.15.02-.33-.01-.48,0-.16.13-.02.22-.02.23,0,.03-.03.04-.05.18h-.6c0-.25-.09-.51-.05-.76-.31-.07-.39-.16-.41-.16v-.14c.04-.27-.09-.26-.09-.28-.06-.32.16-.46-.32-.41,0-.1-.01-.22,0-.32.01-.08-.04-.23.07-.28.06-.03.41.02.57,0Z"/>
        <path class="cls-32" d="M1.3,23.84c.07-.48.29.03.37-.6.12,0,.09-.05.09-.05.08,0,.43-.02.46.02.02.02.02.53,0,.55-.05.06-.32-.02-.37.05-.03.04.06.33-.07.39-.16.07-.55.1-.48-.37Z"/>
        <path class="cls-32" d="M1.71,28.43c.17,0,.34,0,.51,0,0,.19,0,.38,0,.57-.09,0-.21.07-.23.07-.03,0,.13-.03-.46-.09v-.46c.07,0-.02-.08.18-.09Z"/>
        <path class="cls-102" d="M5.94,23.97c-.49.06-.34-.07-.41-.51,0,0,.07,0,.05-.09.51-.04.34.03.37.6Z"/>
        <path class="cls-3" d="M1.53,28.52v.46c-.08,0-.38.03-.41-.02,0-.13,0-.26,0-.39,0,0,.09-.08.09-.14.33-.04.3.09.32.09Z"/>
        <path class="cls-78" d="M6.36,27.01c0,.09.02.47-.02.51-.06.04-.56-.08-.62.07.14,1.23-.39.6-.62.76-.03.02.09.45-.57.28-.02,0-.21-.23-.23-.23l-.05-.37c.06-.2.21-.08.28-.09.2-.04.31.11.28-.37.02,0-.08-.01.37-.09.23-.04.69.09.37-.32.08-.03.13-.14.14-.14,0,0-.02-.04.05-.05.03,0,.51.1.64.05Z"/>
        <path class="cls-111" d="M1.53,26.46c0,.12-.03.64.02.69.73.08,1.03.67,1.1.69.2.03.28-.05.3-.05-.19.11.19.53.25.55.05.02.97.03,1.01,0,.06-.04,0-.25.02-.32l.05.37c-.09-.02-.78,0-1.03,0-.03,0-.06.09-.07.09-.47,0-.61-.04-.92-.32,0-.02-.11-.08-.11-.37-.15-.02-.35.02-.48,0-.03,0,.06-.2-.55-.05-.1-1.39-.09-.74-.34-.92-.05-.03-.01-.17-.02-.23.31-.03.57.1.78-.14Z"/>
        <path class="cls-7" d="M4.29,28.39s.21.22.23.23c-.1.02,0,.23-.07.28-.05.04-1.19.04-1.24,0-.05-.04,0-.33-.02-.41,0,0,.04-.09.07-.09.25,0,.94-.02,1.03,0Z"/>
        <path class="cls-92" d="M6.36,26.41c0,.2.01.4,0,.6-.14.05-.61-.05-.64-.05,0-.18,0-.37,0-.55h.64Z"/>
        <path class="cls-117" d="M6.36,25.81c-.02.2,0,.4,0,.6h-.64c0-.36.05-.57.05-.6h.6Z"/>
        <path class="cls-24" d="M2.27,28.16s-.04.25-.05.28c-.17,0-.34,0-.51,0l-.05-.64c.13.02.33-.02.48,0,0,.29.11.35.11.37Z"/>
        <path class="cls-27" d="M6.91,25.4c0,.08,0,.15,0,.23h-.51s-.13-.1.02-.23c.15-.01.33.02.48,0Z"/>
        <path class="cls-99" d="M1.53,25.35c0,.37-.02.74,0,1.1-.21.24-.47.11-.78.14-.08-.55.09-1.13.09-1.19.23-.08.45-.02.69-.05Z"/>
        <path class="cls-82" d="M1.67,27.79l.05.64c-.21.01-.12.09-.18.09-.02,0,.01-.13-.32-.09,0,0-.09.01-.09-.02-.01-.22.02-.45,0-.67.61-.15.52.04.55.05Z"/>
        <path class="cls-92" d="M3.51,23.19l-.05.64c-.08.01-.09,0-.18.05-.22-.28-.69.26-.46-.69.11.02.47,0,.69,0Z"/>
        <path class="cls-8" d="M4.89,23.74c-.01.1,0,.22,0,.32v.41c-.14,0-.28,0-.41,0-.06,0-.44-.1-.46-.09.03-.52.07-.65-.55-.55l.05-.64c.58.02.63-.33.76.46.37-.08.27.28.62.09Z"/>
        <path class="cls-49" d="M4.89,24.48h.32s.13,0,.09.28h-.78s-.07.03-.05-.28c.14,0,.28,0,.41,0Z"/>
        <path class="cls-27" d="M5.21,24.48h-.32v-.41c.49-.05.26.09.32.41Z"/>
        <path class="cls-101" d="M5.53,27.15c.32.41-.14.28-.37.32-.2-.51.17-.25.37-.32Z"/>
        <g>
          <path class="cls-85" d="M5.3,24.76v.14s.08.1-.23.11c.05.68-.09.59-.09.62-.62.06-.35-.09-.41-.55-.02-.12-.02-.2-.05-.32h.78Z"/>
          <path class="cls-11" d="M4.56,27.56l-.05.37c-.07.01-.22-.1-.28.09-.02.07.03.28-.02.32-.04.03-.96.02-1.01,0-.07-.02-.44-.44-.25-.55.47,0,.52-.09.55-.09.28-.03.54.24.6-.18.15-.04.44.05.46.05Z"/>
          <path class="cls-59" d="M4.79,27.56c.04.48-.08.33-.28.37l.05-.37c.06,0,.2,0,.23,0Z"/>
          <path class="cls-60" d="M4.47,24.48c-.03.3.04.26.05.28.03.12.03.21.05.32-.14-.03-.72.07-.78-.07-.08-.19-.03-.58.23-.62.02,0,.4.09.46.09Z"/>
          <path class="cls-85" d="M4.1,27.51c-.06.42-.32.15-.6.18-.32-.67.53-.54.57-.51.04.03.03.26.02.32Z"/>
          <g>
            <path class="cls-33" d="M3.46,23.84c.62-.1.58.03.55.55-.26.04-.31.43-.23.62.06.14.64.04.78.07.06.47-.21.61.41.55,0,.03.09-.14.05.55-.4-.24-.59.18-.46.48.05.11.36.07.46.07.35,0,.6-.26.64.28,0,0-.06.11-.14.14-.2.07-.56-.19-.37.32-.44.08-.35.09-.37.09-.03,0-.17,0-.23,0-.02,0-.31-.09-.46-.05,0-.06.01-.3-.02-.32-.04-.03-.9-.16-.57.51-.03,0-.08.1-.55.09-.02,0-.1.07-.3.05-.07-.02-.37-.61-1.1-.69-.05-.05-.02-.57-.02-.69-.02-.37,0-.74,0-1.1.89-.1.42-.14.55-.34.04-.07,1.12-1.09,1.19-1.13.09-.04.1-.03.18-.05Z"/>
            <path class="cls-85" d="M3.67,25.77c.57-.25.41.79.32.83-.59.26-.4-.79-.32-.83Z"/>
            <path class="cls-30" d="M1.88,25.81c.54-.24.43.69.32.74-.54.24-.43-.69-.32-.74Z"/>
          </g>
          <path class="cls-85" d="M5.02,26.18c-.01.18,0,.37,0,.55-.1,0-.41.04-.46-.07-.13-.3.06-.73.46-.48Z"/>
          <g>
            <path class="cls-11" d="M5.76,25.81s-.04.24-.05.6c0,.18,0,.37,0,.55-.06.01-.04.05-.05.05-.04-.54-.29-.27-.64-.28,0-.18-.01-.37,0-.55.04-.69-.05-.52-.05-.55,0-.03.14.06.09-.62.31-.01.21-.11.23-.11.02,0,.11.09.41.16-.04.25.04.51.05.76Z"/>
            <path class="cls-57" d="M5.41,25.95s.12.24.05.28c-.1.05-.09-.26-.05-.28Z"/>
          </g>
        </g>
      </g>
      <path class="cls-88" d="M15.96,21.45c.78.06.47.13.51.14v.23c-.14,0-.31.05-.46.05-.5,0-.47-.26-.55.28-.03.22.11.38-.18.41-.03,0-.33-.09-.64-.05,0-.01,0-.03,0-.05.02-.06-.02-.18,0-.21.12-.19.29.09.37-.21.03-.12-.07-.54.07-.6.3.02.6-.02.9,0Z"/>
      <path class="cls-23" d="M14.63,22.46s0,.03,0,.05c-.06.34,0,.39,0,.41,0,.01-.05-.02-.07.28-.24-.03-.47.02-.71.05-.14.01-.33.01-.32-.05-.08-.59.21-.29.39-.37.21-.09-.28-.48.71-.37Z"/>
      <path class="cls-100" d="M16.01,20.94s.15.32-.05.51c-.3-.02-.6.02-.9,0-.13.06-.04.48-.07.6-.58-.05-1.16-.05-1.75-.05l1.68-.05.16-1.01h.92Z"/>
      <g>
        <path class="cls-87" d="M1.62,9.41c.26-.02.52.01.78,0,0,.09.07-.04.05.14-.01.12.02.28,0,.37,0,0-.07-.03-.14.07,0,.51.03.25-.14.25-.11,0-.46-.04-.51.07-.14.32.1.39.23.44-.11.02-.51-.06-.55.07-.03.07.04,1.35.05,1.56,0,.02.09.06.09.11,0,.23-.1.54-.05.78-.05,0-.49.09-.55.09-.35,0-.31.05-.32.05-.07,0-.53-.06-.55-.11-.05-.28.05-.58.05-.85,1.09.11.55-.21.64-1.63,0-.05.14-.08.14-.09.02-.2-.02-.42,0-.62.02-.25-.06-.51.07-.6.27.02.38-.07.71-.09Z"/>
        <path class="cls-14" d="M4.29,8.16c.19.02.46,0,.51.18.02.07-.02.27,0,.3.03.05.21.02.28.02-.09.7.27.25.37.51h-.09c-.17,0-.34,0-.51,0-.18,0-.39-.03-.55.05,0-.1.03-.41-.07-.46-.38,0-.75,0-1.13,0-.22,0-.43.04-.64.05-.03,0-.12-.07-.51-.05.04-.56.31-.23.53-.32.12-.05.03-.24.09-.28.07-.05,1.54-.02,1.72,0Z"/>
        <path class="cls-56" d="M.84,10.09c-.02.2.02.42,0,.62,0,.02-.13.04-.14.09-.09,1.42.45,1.74-.64,1.63,0-.76,0-1.52,0-2.27.22-.03.42-.02.64-.07.04,0,.09,0,.14,0Z"/>
        <path class="cls-87" d="M2.36,13.04c.05.26,0,.23,0,.37,0,.42.1.13.18.25.06.09-.2.37.46.3,0,0,.02-.06.05.18.02.24-.05.36-.05.44,0,.02.09.06.09.11,0,.51-.07.38-.55.32-.34-.04-.51.13-.46-.23.06.03.04.16.23.07v-.64c-.39,0-.26-.15-.28-.16v-.28c-.03-.15.02-.27.05-.41.04-.17-.09-.5.28-.32Z"/>
        <path class="cls-56" d="M4.79,14.74v.18c-.14.06-.25-.1-.32.09-.02.06.03.24-.02.28-.08.05-1.81.05-1.88,0-.05-.04-.01-.21-.02-.28.48.06.55.18.55-.32l1.7.05Z"/>
        <path class="cls-77" d="M2.45,8.81c.04.34-.05.57-.05.6-.26.01-.52-.02-.78,0v-.6c.1-.01.23-.04.32-.05.39-.03.48.05.51.05Z"/>
        <path class="cls-77" d="M2.04,14.05s-.11.16.28.16v.64c-.19.09-.17-.04-.23-.07-.02,0,.11-.13-.39-.09-.02,0-.06-.14-.07-.14.09-.27-.29-.2-.37-.55.17.03.7.01.78.05Z"/>
        <path class="cls-91" d="M.89,13.36c0,.11-.04.51,0,.57.04.06.3.06.37.07.08.35.45.28.37.55-.12-.03-.64.04-.69-.02-.03-.04.03-.42,0-.46-.1-.14-.47.33-.37-.67.02,0-.03-.05.32-.05Z"/>
        <path class="cls-67" d="M1.62,8.81v.6c-.33.02-.44.11-.71.09-.13.09-.05.35-.07.6-.04,0-.1,0-.14,0-.12-1.27.3-.68.41-.85.03-.04-.04-.39.02-.44.03-.02.38.01.48,0Z"/>
        <path class="cls-112" d="M5.9,13.82c.06.08.04.14.05.23,0,.12,0,.25,0,.37-.85.03-.46.21-.55.34-.04.06-.28,0-.34.02-.14.07.14.3-.57.23.07-.19.19-.04.32-.09.02,0,.08,0,.11,0,.24-.49.42.2.39-.55.12-.1-.04-.48.11-.55.05-.02.33.02.48,0Z"/>
        <path class="cls-54" d="M2.45,9.91c.24.02.49-.02.74,0,.02,0-.03.07.32.05-.04.59.09.43.09.46.03.16-.35.45.51.37h.18c0,.23.05.39.05.41,0,.01-.13.24-.18.23-.86-.09-.54.11-.6,1.19-.32-.07-.25.2-.28.32l-1.01-.05s-.04-.15-.05-.18c.05,0,.25.01.28-.02.03-.05.15-1.02-.46-.67-.01-.39-.02-.86,0-1.24.01-.24-.02-.36.14-.55.17,0,.13.26.14-.25.06-.1.14-.06.14-.07Z"/>
        <path class="cls-8" d="M1.9,10.74s.08.06.14.05c-.02.39-.01.85,0,1.24,0,.13-.02.29,0,.41l-.55.05c0-.06-.09-.1-.09-.11,0-.21-.07-1.49-.05-1.56.04-.12.44-.05.55-.07Z"/>
        <path class="cls-109" d="M2.04,12.44c.01.08-.02.23,0,.25.03.04.13.02.18.02,0,.04.04.18.05.18.06.08.12.03.14.07.03.07-.05.06-.05.07-.37-.17-.24.15-.28.32-.15,0-.31.01-.46,0-.28-.02-.17-.09-.18-.09-.06-.24.06-.56.05-.78l.55-.05Z"/>
        <path class="cls-105" d="M1.62,13.36c.01.11-.02.36,0,.39.04.05.33,0,.41.02v.28c-.08-.03-.61-.02-.78-.05-.07-.01-.33,0-.37-.07-.04-.06,0-.47,0-.57.06,0,.5-.09.55-.09.01,0-.1.07.18.09Z"/>
        <path class="cls-5" d="M3.09,8.76l-.05.78c-.2,0-.4,0-.6,0,.02-.17-.05-.05-.05-.14,0-.03.08-.26.05-.6.21,0,.42-.05.64-.05Z"/>
        <path class="cls-68" d="M3.05,9.54c.18,0,.13.05.14.05v.32c-.24-.02-.49.02-.74,0,.02-.08-.01-.25,0-.37.2,0,.4,0,.6,0Z"/>
        <path class="cls-83" d="M2.17,10.23c-.16.19-.13.32-.14.55-.06.02-.09-.03-.14-.05-.13-.05-.37-.11-.23-.44.05-.11.4-.07.51-.07Z"/>
        <path class="cls-87" d="M5.44,9.18c.03.08-.05.27.07.32.28.12.34-.18.37.51h.48c-.12.51.08.49.51.46,0,.24,0,.49,0,.74,0,.21-.04.41-.05.62,0,.02.09.06.09.11,0,.2-.02.45-.05.64,0,0-.07-.06-.09.09-.1-.17-.29-.05-.39-.09-.07-.03-.37-.31-.48-.41-.06-.05-.09-.13-.18-.14.01-.11.02-.22-.05-.32.06.01.55.02.57,0,.03-.02.04-.46.02-.48-.05-.08-.49.05-.55-.09-.03-.06.03-.31,0-.37-.13-.25-.36.34-.37-.62,0-.31.1-.65,0-.97h.09Z"/>
        <path class="cls-77" d="M4.29,9.22s-.07-.03-.05.32c-.07,0-.25.09-.28.09-.02,0,.02-.04-.37-.05-.14,0-.28,0-.41,0,0,0,.04-.05-.14-.05l.05-.78c.38,0,.75,0,1.13,0,.1.04.08.36.07.46Z"/>
        <path class="cls-67" d="M6.4,9.45s.07.3.09.37c-.09.03-.12.1-.14.18h-.48c-.03-.69-.09-.38-.37-.51-.12-.05-.04-.24-.07-.32-.09-.26-.46.19-.37-.51.14.02.72-.02.76,0,.09.72-.2.84.57.78Z"/>
        <path class="cls-77" d="M5.35,9.18c.1.31,0,.66,0,.97-.1-.11-.28-.12-.41-.14-.06-.14-.04-.27-.05-.41,0-.14.03-.28-.05-.41.17,0,.34,0,.51,0Z"/>
        <path class="cls-5" d="M4.84,9.18c.08.13.04.27.05.41-.32-.09-.39,0-.41,0-.02,0-.05-.05-.23-.05-.03-.35.04-.31.05-.32.16-.08.37-.04.55-.05Z"/>
        <path class="cls-42" d="M5.07,12.48c-.03.18.16.1-.23.39.34,1.45-.84.06-.78,1.17-.28.18-.66.01-1.01.09-.02-.24-.04-.17-.05-.18-.02-.17-.06-.33-.05-.51-.04.36.69.41.8.32.06-.05-.02-.32.05-.37.12-.08.74.17.21-.55.05,0,.09,0,.14,0,.02,0,.31.1.39.05.02-.01.06-.35.07-.41h.46Z"/>
        <path class="cls-87" d="M5.3,14.32c-.39.14-.57-.16-.51.41l-1.7-.05c0-.05-.09-.09-.09-.11,0-.08.07-.19.05-.44.35-.08.73.09,1.01-.09,0,.02-.12.17.02.23.65.26-.04-.66,1.22-.25-.06.11-.02.18,0,.3Z"/>
        <path class="cls-62" d="M3.28,12.94c-.01.06.01.13,0,.18-.05.17-.16.24-.32.28-.15.03-.42-.02-.6,0,0-.14.05-.11,0-.37,0,0,.07,0,.05-.07-.02-.04-.08.01-.14-.07l1.01.05Z"/>
        <path class="cls-77" d="M2.96,13.4v.05c-.02.17.03.34.05.51-.66.07-.4-.21-.46-.3-.08-.12-.19.17-.18-.25.18-.02.45.03.6,0Z"/>
        <path class="cls-87" d="M2.08,13.36c-.03.14-.07.26-.05.41-.09-.02-.38.03-.41-.02-.02-.03.01-.28,0-.39.15.01.31,0,.46,0Z"/>
        <path class="cls-104" d="M5.3,14.37c.03.75-.15.06-.39.55-.04,0-.09,0-.11,0v-.18c-.06-.57.12-.27.51-.41,0,.01,0,.03,0,.05Z"/>
        <path class="cls-77" d="M5.48,12.21s.26.22.28.23c.26.24.31.23.32.25.01.03,0,.38,0,.48,0,.12.01.25,0,.37,0,.02-.13-.12-.18.28-.15.02-.43-.02-.48,0-.15.07,0,.45-.11.55,0-.02,0-.03,0-.05-.02-.12-.06-.19,0-.3-1.26-.4-.57.51-1.22.25-.14-.06-.02-.21-.02-.23-.06-1.11,1.12.28.78-1.17.39-.29.2-.21.23-.39.03-.17.04-.29.05-.46.22.15.35.17.37.18Z"/>
        <path class="cls-16" d="M4.15,11.43v1.42s-.09,0-.14,0c-.08,0-.15,0-.23,0,0-.02-.21-.23-.23-.23.05-1.08-.26-1.28.6-1.19Z"/>
        <path class="cls-43" d="M4.56,11.2c.05.25.07,1.11.05,1.29,0,.06-.05.4-.07.41-.08.05-.37-.04-.39-.05v-1.42s.18-.22.18-.23c.08,0,.15,0,.23,0Z"/>
        <path class="cls-8" d="M3.97,9.64c.01.12-.02.32,0,.37.1.25.3-.23.37.64,0,.03-.05.04-.05.14h-.18c.04-.47-.08-.36-.51-.37,0-.03-.13.13-.09-.46,0-.02.06-.28.09-.37.38,0,.35.05.37.05Z"/>
        <path class="cls-73" d="M2.22,12.71c-.05,0-.16.02-.18-.02-.02-.02.01-.18,0-.25-.02-.12,0-.28,0-.41.61-.35.49.62.46.67-.03.04-.22.03-.28.02Z"/>
        <path class="cls-55" d="M4.79,10.65c-.01.14.02.5,0,.53-.03.04-.17.02-.23.02-.08,0-.15,0-.23,0,0-.02-.04-.19-.05-.41,0-.1.05-.1.05-.14.15,0,.31,0,.46,0Z"/>
        <path class="cls-17" d="M3.78,12.85c.1.38-.18.26-.51.28.01-.05-.01-.13,0-.18.02-.13-.04-.39.28-.32.02,0,.23.21.23.23Z"/>
        <path class="cls-100" d="M4.1,10.78c-.86.08-.48-.21-.51-.37.43,0,.55-.1.51.37Z"/>
        <path class="cls-100" d="M3.6,9.59c-.03.09-.09.35-.09.37-.35.03-.31-.04-.32-.05v-.32c.13,0,.27,0,.41,0Z"/>
        <path class="cls-23" d="M6.86,10.42s0,.03,0,.05c-.43.03-.63.05-.51-.46.02-.09.04-.16.14-.18.49-.14.35.2.37.6Z"/>
        <path class="cls-61" d="M6.68,13.31c.03.36-.35.22-.6.23.01-.11,0-.25,0-.37.2.01.36,0,.55-.05-.02.11.04.15.05.18Z"/>
        <path class="cls-93" d="M4.47,9.96c.17,0,.29.02.46.05.13.02.32.03.41.14,0,.96.24.37.37.62.03.05-.03.31,0,.37.06.15.5.01.55.09.01.02,0,.46-.02.48-.02.02-.51.01-.57,0-.46-.08-.19-.46-.55-.41-.02-.2-.08-.41-.05-.62-.1-.14-.17-.02-.28-.02-.15,0-.31,0-.46,0-.07-.88-.27-.4-.37-.64.17-.04.33-.04.51-.05Z"/>
        <path class="cls-116" d="M6.77,12.67c-.02.12.01.28,0,.41,0,0-.12.04-.14.05-.19.05-.35.06-.55.05,0-.1.01-.45,0-.48,0-.02-.06-.01-.32-.25.19-.08.2-.08.14-.28.11.1.41.38.48.41.1.04.29-.08.39.09Z"/>
        <path class="cls-103" d="M5.67,11.7c.06.1.06.21.05.32,0,.06.02.2-.02.23-.03.02-.1-.07-.21-.05-.02-.01-.15-.04-.37-.18,0-.22.02-.52,0-.74.36-.05.1.33.55.41Z"/>
        <path class="cls-116" d="M5.9,12.16c.07.19.05.19-.14.28-.02-.01-.26-.22-.28-.23.11-.03.18.07.21.05.05-.03.02-.17.02-.23.09.01.13.09.18.14Z"/>
        <path class="cls-83" d="M4.24,9.54c.18,0,.21.05.23.05v.37c-.17,0-.34,0-.51.05-.02-.05.01-.25,0-.37.03,0,.21-.09.28-.09Z"/>
        <path class="cls-5" d="M4.89,9.59c0,.14-.01.27.05.41-.17-.03-.29-.05-.46-.05v-.37s.1-.09.41,0Z"/>
        <path class="cls-16" d="M5.12,11.29c.02.21,0,.51,0,.74,0,.17-.01.29-.05.46h-.46c.02-.17,0-1.04-.05-1.29.06,0,.2.02.23-.02.02-.03-.01-.39,0-.53.1,0,.18-.12.28.02-.04.21.03.42.05.62Z"/>
        <path class="cls-15" d="M4.01,12.85c.53.72-.09.47-.21.55-.06.05.02.32-.05.37-.12.08-.84.04-.8-.32v-.05c.16-.03.28-.1.32-.28.33-.01.61.1.51-.28.08,0,.15,0,.23,0Z"/>
      </g>
      <path class="cls-3" d="M25.57,14.46v.14c-.25-.1-.41,0-.64,0-.72-.03-.74-.09-.78-.09.02-.1-.03-.47.02-.51.06-.04,1.32-.04,1.38,0,.06.04,0,.37.02.46Z"/>
      <g>
        <path class="cls-56" d="M35.95,10.05s-.13.08-.41.05c-.05-.87-.18-.16-.34-.64-.55,0,.2-.4-.92-.28,0,.46-.16.35-.16.37-.64.08.03-.37-.74-.32.05-.56-.16-.32-.41-.32-.15,0-.31,0-.46,0l.09-.78c2.44-.11,1.42.28,1.68.46.04.03.51-.03.55,0,.06.04-.01.19.05.23.05.03.52-.03.6,0,.14.06.02.36.09.41.18.13.48-.42.39.83Z"/>
        <path class="cls-75" d="M36.6,11.29c0,.25.06,1.87,0,1.95-.05.07-.41-.01-.48.02-.12.05-.05.33-.07.51-.17.02-.41-.03-.55,0v-.18c.03-.31-.04-.78,0-1.06.09-.62.65.43.51-1.29.03,0,.31-.15.6.05Z"/>
        <path class="cls-53" d="M36.6,11.29c-.29-.2-.57-.05-.6-.05-.13,0-.26,0-.39,0,0-.12-.05-.25-.07-.37-.03-.21.01-.54,0-.78.28.03.39-.05.41-.05.08,0,.62.06.64.11,0,.38,0,.75,0,1.13Z"/>
        <path class="cls-88" d="M35.49,13.77c.14-.03.38.02.55,0-.07.62-.29.17-.41.34-.11.15.36.49-.69.46.04.41-.09.37-.09.39-.18.02-.64-.03-.71,0-.15.07.05.26-.21.32.17-.6.21-.28.48-.37.1-.03-.03-.09-.02-.09.12-.19.03-.21.07-.23.18-.08.45.24.39-.46.78.08.21-.29.64-.37Z"/>
        <path class="cls-40" d="M32.37,8.12c.08,0,.15,0,.23,0l-.09.78s-.06,0-.09,0c-.17,0-.34-.01-.51-.05-.12-.02-.34-.03-.32-.14,0,0-.02-.12.02-.14.46.25.2-.38.37-.46.04-.02.27,0,.39,0Z"/>
        <path class="cls-87" d="M31.63,13.36c.1-.02.47,0,.64,0,0,0-.01.04.05.05,0,.15,0,.31,0,.46,0,.01-.08.05-.05.21.1.14.14.02.18.02-.02.16.04.13.05.14.14.96-.03.79-.41.74,0,0,.02-.09-.02-.09-.24-.05-.73.13-.8-.14.52.17.34-.05.37-.67-.03-.05-.13,0-.18-.02.03-.51-.12-.63.18-.69Z"/>
        <path class="cls-87" d="M33.56,15.01s-.02.07-.07.09c-.07.03-1.16-.11-1.4-.05v-.09c.38.06.55.22.41-.74l1.03-.05.02.83Z"/>
        <path class="cls-56" d="M34.39,14.83s.12.06.02.09c-.28.09-.32-.23-.48.37-.09.02-1.74,0-1.82-.05-.05-.03-.02-.13-.02-.18.24-.06,1.34.07,1.4.05.05-.02.06-.09.07-.09,0,0-.02-.08.02-.09.04-.01.35,0,.8-.09Z"/>
        <path class="cls-87" d="M31.45,14.05s.15-.03.18.02c-.03.61.15.84-.37.67-.02-.07.02-.27,0-.3-.03-.05-.21-.01-.28-.02v-.28s.12-.18.46-.09Z"/>
        <path class="cls-67" d="M30.99,14.14v.28c-.09-.01-.19,0-.28,0v-.37c.4,0,.26.09.28.09Z"/>
        <path class="cls-87" d="M35.54,10.09c.01.25-.03.58,0,.78h-.28c-.11-.84-.31-.3-.53-.46-.23-.16.44-.37-.62-.41.02-.14-.03-.36,0-.46,0-.02.16.09.16-.37,1.12-.13.37.27.92.28.17.48.29-.23.34.64Z"/>
        <path class="cls-80" d="M34.12,9.54c-.03.1.02.32,0,.46-.37-.02-.31.05-.32.05-.04,0-.11-.05-.32-.05-.04-.31-.08-.47-.46-.41v-.23s0-.06,0-.09c.37.03.35-.04.37-.05.77-.05.1.4.74.32Z"/>
        <path class="cls-66" d="M32.51,8.9c.15,0,.31,0,.46,0,.07.11.04.24.05.37,0,.03,0,.06,0,.09-.2.01-.4-.01-.6,0v-.46s.06,0,.09,0Z"/>
        <path class="cls-87" d="M33.38,9.22s0,.08-.37.05c0-.12.03-.25-.05-.37.25,0,.46-.24.41.32Z"/>
        <path class="cls-14" d="M30.99,9.18v.05c-.28.13-.15.38-.18.44-.02.03-.17-.06-.25-.02-.13.06-.04.28-.07.34-.06.13-.31,0-.37.14-.1.24.26,1.12-.41.85,0-.17,0-.34,0-.51,0-.11-.02-.6,0-.62.05-.06.32,0,.39-.02.12-.05.05-.33.07-.44,0-.04.09-.02.09-.02.54.04.48-.08.51-.09.08-.02.16-.06.23-.09Z"/>
        <path class="cls-77" d="M31.59,8.72c-.02.11.21.11.32.14.01.1-.02.23,0,.32.05.28-.99.26-.92.05v-.05c.25-.12.46.04.37-.41.05,0,.18-.03.23-.05Z"/>
        <path class="cls-88" d="M31.36,8.76c.09.46-.12.3-.37.41-.07.03-.15.07-.23.09-.11-.89.28-.46.6-.51Z"/>
        <path class="cls-66" d="M35.54,10.88c.02.11.06.25.07.37.13,0,.26,0,.39,0,.14,1.72-.42.67-.51,1.29h-.83s0-.03,0-.05l.78-.02c-.38-.27-.4-.16-.37-.71.35-.08.13-.27.14-.51,0-.04.06-.26.05-.37h.28Z"/>
        <path class="cls-105" d="M35.49,12.53c-.04.28.03.74,0,1.06l-.74.05c-.02-.23-.08-.5-.09-.74,0-.12,0-.25,0-.37h.83Z"/>
        <path class="cls-105" d="M35.49,13.59v.18c-.44.08.14.44-.64.37,0-.03-.04.2-.09-.51l.74-.05Z"/>
        <path class="cls-87" d="M34.67,12.9c.01.23.07.5.09.74.06.7.09.48.09.51.06.7-.21.38-.39.46-.04.02.06.04-.07.23-.45.1-.76.08-.8.09-.04.01-.02.09-.02.09l-.02-.83-1.03.05s-.07.02-.05-.14c1.57.12.96-.27,1.17-.37.06-.03.32.03.37,0,.04-.02-.02-.34.02-.83h.64Z"/>
        <path class="cls-80" d="M32.41,8.9v.46s-.05.08-.41.05c0-.11-.07-.1-.09-.23-.02-.1.01-.22,0-.32.17.03.34.04.51.05Z"/>
        <path class="cls-87" d="M32,9.41s-.04-.16-.09.6c-.34.1-.73.21-1.15.25.16,1.26-.47.54-.6.83-.32.94,1.1.95.74.09.01-.04.07-.01.09-.02v1.54c.08.11.32.07.55.07.03,0,.06,0,.09,0v.6c-.3.06-.15.18-.18.69-.34-.09-.43.09-.46.09-.02,0,.12-.1-.28-.09,0-.2,0-.4,0-.6,0-.1.12-.58.02-.64-.04-.03-.42.03-.46,0-.11-.08.24-.36-.57-.28.04-.27-.05-.61-.05-.64,0-.24,0-.46,0-.69,0-.01.04-.04.05-.23.67.27.31-.61.41-.85.06-.13.31,0,.37-.14.03-.07-.06-.28.07-.34.08-.04.24.05.25.02.03-.06-.1-.3.18-.44-.08.21.97.23.92-.05.02.13.09.12.09.23Z"/>
        <path class="cls-37" d="M30.71,13.45c-.17.04-.35-.04-.51-.05.12-.96-.51-.11-.55-.83l.05-.05c.82-.08.47.2.57.28.04.03.42-.03.46,0,.09.07-.02.54-.02.64Z"/>
        <path class="cls-106" d="M33.98,12.76s.05.04.05.14c-.04.49.01.81-.02.83-.05.03-.3-.03-.37,0-.21.09.4.49-1.17.37-.05,0-.08.12-.18-.02-.03-.15.05-.2.05-.21.43.06.19-.13.32-.41,0,0-.03-.07.11,0l.07-.14c1.21.32,0-.74,1.15-.55Z"/>
        <path class="cls-19" d="M32,12.76c.12.52.32.05.28.6-.18,0-.54-.02-.64,0v-.6h.37Z"/>
        <path class="cls-41" d="M32.64,13.45c-.13.28.11.47-.32.41,0-.15,0-.31,0-.46.28.01.31.05.32.05Z"/>
        <path class="cls-109" d="M34.12,10c1.06.04.39.26.62.41.22.16.42-.38.53.46.01.1-.04.33-.05.37l-.46-.05c-.05-.79-.25-.25-.48-.41-.07-.05.04-.31-.09-.37-.16-.07-.59.18-.39-.37.02,0-.05-.06.32-.05Z"/>
        <path class="cls-100" d="M33.79,10.05c-.2.55.23.3.39.37.13.06.03.32.09.37.24.17.44-.37.48.41.01.17,0,.38,0,.55,0,.01-.09.13-.09.18-1.12.21-.1-.99-.85-.87,0-.7-.83.29-.67-.92.15,0,.3-.14.32-.14.21,0,.28.05.32.05Z"/>
        <path class="cls-68" d="M33.01,9.36v.23c-.25.04-.18.06-.18.41-.31,0-.61,0-.92,0,.05-.76.09-.57.09-.6.37.03.39-.04.41-.05.2-.01.4.01.6,0Z"/>
        <path class="cls-48" d="M33.01,9.59c.38-.06.42.11.46.41-.02,0-.17.14-.32.14-.34-.06-.3-.14-.32-.14,0-.35-.06-.38.18-.41Z"/>
        <path class="cls-55" d="M34.12,12.3h.55c0,.06,0,.12,0,.18,0,.02,0,.03,0,.05,0,.12,0,.25,0,.37h-.64c0-.09-.05-.1-.05-.14.03-.5.14-.43.14-.46Z"/>
        <path class="cls-109" d="M35.08,11.75c-.03.56,0,.44.37.71l-.78.02c0-.06,0-.12,0-.18,0-.12,0-.25,0-.37,0-.05.09-.17.09-.18.1-.01.24.02.32,0Z"/>
        <path class="cls-44" d="M35.22,11.24c-.01.24.21.43-.14.51-.08.02-.22-.01-.32,0,0-.18.01-.38,0-.55l.46.05Z"/>
        <path class="cls-109" d="M31.91,10c0,.11.02.51,0,.53-.13.19-.73-.38-.69.57-.11,0-.13,0-.23.05-.02,0-.08-.02-.09.02.36.86-1.05.85-.74-.09.13-.28.76.43.6-.83.42-.04.81-.16,1.15-.25Z"/>
        <path class="cls-8" d="M31.22,11.11c.06,0,.24-.02.28.02-.04.26.03.51.05.76.01.18,0,.37,0,.55v.32c-.23,0-.48.04-.55-.07v-1.54c.1-.05.12-.05.23-.05Z"/>
        <path class="cls-68" d="M32,12.44c0,.11-.02.22,0,.32h-.37s-.06,0-.09,0v-.32h.46Z"/>
        <path class="cls-16" d="M34.12,12.3s-.11-.04-.14.46c-1.16-.19.06.87-1.15.55-.13-1.33.32-.73.53-.87.12-.09-.3-.17.69-.32,0,.05.07.17.07.18Z"/>
        <path class="cls-100" d="M32,12.44h-.46c0-.18.01-.37,0-.55.65-.04.41.02.46.55Z"/>
        <g>
          <path class="cls-54" d="M32.83,10s-.01.08.32.14c-.17,1.21.66.22.67.92.75-.12-.27,1.08.85.87,0,.12,0,.25,0,.37h-.55s-.06-.13-.07-.18c-.99.16-.57.24-.69.32-.21.15-.66-.45-.53.87l-.07.14c-.15-.07-.11,0-.11,0-.02,0-.04-.04-.32-.05-.06,0-.04-.05-.05-.05.05-.55-.16-.07-.28-.6-.02-.1,0-.22,0-.32-.05-.54.19-.59-.46-.55-.01-.25-.08-.5-.05-.76-.03-.04-.21-.02-.28-.02-.04-.95.56-.39.69-.57.02-.02,0-.42,0-.53.31,0,.61,0,.92,0Z"/>
          <path class="cls-100" d="M33.13,11.43c.4-.29.6.45.37.55-.49.22-.43-.51-.37-.55Z"/>
        </g>
      </g>
      <path class="cls-94" d="M25.11,23.74c.16.03.3-.06.09.37-.35.02-.21.09-.23.09-1.58.05-1.02-.06-1.15-.34,0-.02-.39-.16-.41-.16-.01-.08.02-.19,0-.23.74-.22.5.22.57.28.05.04.93-.04,1.13,0Z"/>
      <g>
        <path class="cls-101" d="M36.05,24.48c.09,0,.52-.02.55.02-.07.39.09,3,0,3.13-.06.08-.58-.06-.64.09.1,1.36-.23.75-.44.9-.07.05.02.37-.05.41-.05.03-.73-.03-.78,0-.03.02-.05.3-.09.32-.06.03-.39-.04-.44.02-.02.03.05.25-.07.3-.17.08-1.82-.03-2.14-.05-.03-.45-.26.16-.32-.51-.01-.14.02-.77,0-.8-.1-.14-.45.28-.46-.48.14.03.04.04.28.14.34.14.28.23.3.23.12.03.49-.01.71,0,.27.02.31.05.32.05.02.11-.04.6.02.64.05.03,1.1.03,1.15,0,.25-.18-.54-.54.8-.6.03,0,.34.11.64.02v-.78s-.25-.01-.32-.02v-.55c.1.01.85.01.87-.02v-1.56c-.15,0-.31-.05-.46-.07,0-.26,0-.52,0-.78.18-.07.36-.05.55-.05Z"/>
        <path class="cls-6" d="M34.76,22.83c-.02.73.67.29.85.41.06.04,0,.28.02.34.11.24.4-.4.41.9-.19,0-.37-.02-.55.05-.01-.3.05-.6-.07-.69-1.26-.13-.66.37-.8.57-.07.09-.39-.02-.41-.02-.01-.14.02-.5,0-.53-.02-.02-.48-.07-.55-.07-.02-.1.03-.56-.02-.6-.05-.03-1.15-.03-1.19,0-.06.04,0,.53-.02.64-.15,0-.24.05-.39.05-.01,0-.24-.09-.25-.09-.02-.15.03-.45,0-.53-.04-.1-.38-.02-.46-.07.03-.09-.06-.24.07-.32,1.06.07.61-.15.71-.34.05-.09,1.86-.11,1.95-.07.21.09-.28.48.71.37Z"/>
        <path class="cls-115" d="M31.77,23.79c-.14-.02-.31.01-.46,0,0-.01-.09-.26-.09-.28,0-.07.04-.11.05-.18,0-.02.03-.09.05-.14.08.05.42-.03.46.07.03.08-.02.37,0,.53Z"/>
        <path class="cls-112" d="M31.27,23.33c-.01.08-.04.11-.05.18-.37-.14-.08.29-.46.23,0,0-.04.02-.05-.05-.01-.16-.02-.38.05-.37.17,0,.34,0,.51,0Z"/>
        <path class="cls-101" d="M31.36,25.31c0,.35.02.71,0,1.06,0,.05-.41.71.32.6.02.15.09.36.09.51,0,.42,0,.52-.32.51-.23-.09-.14-.11-.28-.14-.1-.02-.25.01-.37,0,.11-.48-.19-.46-.6-.41-.04-.31.04-.62.05-.92.86.21.54-.14.6-.74.05-.48,0-.54.51-.46Z"/>
        <path class="cls-113" d="M34.8,26.78c-.03.12.18.17.28.18v.55s-.31.02-.32.07v.71c-1.35.06-.56.42-.8.6-.05.03-1.1.03-1.15,0-.06-.04,0-.53-.02-.64,0,0,.07-.09.14-.09.03,0,.41.09.57.05.06-.03.11-.33.11-.37.46,0,.59-.05.64-.51.48.03.36,0,.37-.51.08,0,.11-.04.18-.05Z"/>
        <path class="cls-7" d="M35.49,24.53c0,.26,0,.52,0,.78-.08-.01-.17.06-.37.05-.03,0-.03-.2-.46-.09.04-1.17-.77-.19-.92-.83.16,0,.3-.03.46-.05.02,0,.35.12.41.02.15-.21-.45-.71.8-.57.12.09.06.39.07.69Z"/>
        <path class="cls-79" d="M35.49,25.31c.15.02.31.06.46.07v1.56s-.77.04-.87.02c-.1-.01-.31-.06-.28-.18.08,0,.18.01.23,0,.04-.01.11.02.14-.02.03-.33-.03-.66-.05-.99,0,0,0-.08,0-.14,0-.09,0-.18,0-.28.2,0,.28-.06.37-.05Z"/>
        <path class="cls-89" d="M30.81,27.83c.11.01.26-.02.37,0,.01.76.36.34.46.48.02.03-.01.66,0,.8-.14-.08-.31-.04-.46-.05-.02-.14.02-.54,0-.57-.05-.06-.37-.02-.46-.02-.02,0-.03,0-.05,0-.06-.85.13-.61.14-.64Z"/>
        <path class="cls-25" d="M35.08,27.51c.07,0,.29-.03.32.02v.78c-.31.08-.61-.02-.64-.02v-.71s.29-.07.32-.07Z"/>
        <path class="cls-101" d="M32.46,28.2c-.22-.01-.59.03-.71,0-.02,0,.04-.09-.3-.23.33.01.33-.09.32-.51.44-.13.2.25.3.32.13.09.35-.26.39.41Z"/>
        <path class="cls-101" d="M31.77,23.79s.24.09.25.09c.15,0,.24-.05.39-.05.03,0,.06,0,.09,0,0,.02.09.09.09.09l-1.24,1.1s-.11-.13-.14-.67c0-.03.09-.45.09-.57.15.01.32-.02.46,0Z"/>
        <path class="cls-32" d="M33.66,23.79c-.36-.02-.78.05-1.15.05-.03,0-.06,0-.09,0,.02-.11-.04-.6.02-.64.05-.03,1.15-.03,1.19,0,.06.04,0,.49.02.6Z"/>
        <path class="cls-8" d="M34.21,24.39c-.15.01-.3.04-.46.05-.11,0-.22,0-.32,0-.09-.39,0-.42,0-.44-.04-.11-.32-.06-.41-.07-.13-.01-.3.02-.41,0,0,0-.09-.07-.09-.09.37,0,.79-.06,1.15-.05.07,0,.54.05.55.07.02.03-.01.39,0,.53Z"/>
        <path class="cls-6" d="M30.81,27.83s-.2-.21-.14.64c-.17,0-.34,0-.51,0,0-.95-.43-.02-.51-.97.69.05.52-.09.55-.09.4-.04.71-.07.6.41Z"/>
        <path class="cls-3" d="M31.17,29.08c-.08,0-.43.02-.46-.02-.02-.03.02-.44,0-.57.09,0,.41-.04.46.02.02.03-.02.44,0,.57Z"/>
        <path class="cls-58" d="M31.22,23.51s.09.26.09.28c0,.12-.09.55-.09.57.03.54.14.63.14.67,0,.09,0,.18,0,.28-.51-.08-.46-.02-.51.46l-.6.05s-.03.04-.05-.09c-.04-.29.23-.48-.55-.32-.1-.35-.78.15-.6-.51.13-.49,1.24.1,1.06-.55.19,0,.38,0,.57,0,.11-.05.07-.49.07-.6.37.06.09-.37.46-.23Z"/>
        <path class="cls-6" d="M30.21,25.72c.02.13.05.09.05.09.01.21,0,.47,0,.69,0,.3-.09.61-.05.92-.03,0,.14.14-.55.09,0-.09,0-.36,0-.51,0-.15,0-.3,0-.46,0-.21.06-.44.05-.67,0-.04-.08,0-.09-.07,0,0,.07.02.05-.14l.55.05Z"/>
        <path class="cls-72" d="M30.85,25.77c-.06.59.26.95-.6.74,0-.22.01-.48,0-.69l.6-.05Z"/>
        <g>
          <path class="cls-60" d="M33.43,24.43c.11,0,.22,0,.32,0,.15.64.96-.34.92.83-.28.07-.03.14-.21.37h.67c0,.06,0,.13,0,.14-.61-.09-.1.46-.46.55-.78.2.09-.84-.78-.85.09-.83-.7.27-.64-.99.01,0,.16-.05.18-.05Z"/>
          <path class="cls-38" d="M35.13,25.77c.02.33.08.66.05.99-.02.05-.1.01-.14.02-.07-.11-.35,0-.41-.07-.02-.03.08-.22.05-.39.36-.09-.15-.64.46-.55Z"/>
          <path class="cls-60" d="M33.52,27.7h-.55s-.09-.31-.05-.62c.78-.25.57.08.6.62Z"/>
          <g>
            <path class="cls-33" d="M33.01,23.93c.03.34-.14.46.23.55-.06,1.26.73.16.64.99.87,0,0,1.05.78.85.04.17-.07.36-.05.39.06.07.34-.04.41.07-.05.01-.15,0-.23,0-.08,0-.11.04-.18.05-.02,0-.26-.14-.41.02-.04.33.05.46.05.48-.05.46-.18.51-.64.51,0,0-.09-.07-.09-.14-.03-.54.18-.87-.6-.62-.04.31.05.59.05.62,0,.02-.08.09-.05.46-.07,0-.13.09-.14.09-.02,0-.06-.03-.32-.05-.04-.68-.26-.32-.39-.41-.1-.07.14-.45-.3-.32,0-.15-.07-.36-.09-.51-.05-.47.19-.6-.32-.6.02-.35,0-.71,0-1.06,0-.09,0-.18,0-.28l1.24-1.1c.12.02.28-.01.41,0Z"/>
            <path class="cls-90" d="M33.17,25.67c.72-.17.58,1.11-.11.67.03-.18-.09-.62.11-.67Z"/>
          </g>
          <path class="cls-45" d="M33.52,27.7c0,.07.09.13.09.14,0,.03-.06.33-.11.37-.16.05-.55-.05-.57-.05-.03-.37.05-.44.05-.46h.55Z"/>
          <path class="cls-85" d="M31.68,26.96c-.73.11-.32-.55-.32-.6.51,0,.27.13.32.6Z"/>
          <path class="cls-39" d="M34.62,26.82c0,.5.12.54-.37.51,0-.02-.08-.15-.05-.48.15-.17.39-.02.41-.02Z"/>
          <path class="cls-45" d="M33.43,24.43s-.17.05-.18.05c-.37-.09-.2-.22-.23-.55.09.01.38-.04.41.07,0,.02-.09.04,0,.44Z"/>
          <path class="cls-114" d="M34.67,25.26c.43-.11.43.09.46.09,0,.09,0,.18,0,.28h-.67c.18-.23-.07-.3.21-.37Z"/>
        </g>
        <path class="cls-68" d="M28.78,24.34c.43,0,.91.02,1.33,0,.18.65-.92.06-1.06.55-.12-.27-.61.2-.51-.51.01,0,.14-.05.23-.05Z"/>
        <path class="cls-54" d="M28.78,24.34c-.09,0-.22.05-.23.05-.82-.05-.36-.16-.51-.44-.05-.1-.33-.05-.41-.07.05-.07.04-.11.05-.18h.99l.11.64Z"/>
        <path class="cls-112" d="M30.21,25.72l-.55-.05c-.01-.09.02-.22,0-.28.78-.16.52.03.55.32Z"/>
      </g>
      <path class="cls-88" d="M18.63,22.92c-.02.11.04.09.05.09.1.47-.07,6.35,0,7.68-.07,0-.03.09-.07.09-.19,0-.46-.05-.62-.05v-7.81c.21,0,.44.02.64,0Z"/>
      <path class="cls-58" d="M19.13,22.69s.12.05-.07.18c-.15-.04-.3.03-.44.05-.2.02-.43,0-.64,0-.02,0-.07-.05-.46-.05v-.28l1.61.09Z"/>
      <g>
        <path class="cls-101" d="M21.25,31.97c0,.24,0,.48,0,.71.03.06.49.12.55.11,0,.32,0,.64,0,.97,0,.31.04.62.05.92.02.81.09.65.09.69,0,0-.09-.02-.09.02-.01.1.05.34-.07.39-.08.04-.48-.05-.53.02-.03.04.03.74,0,.78-.05.07-.4-.05-.46.09-.03.07.04.35-.02.39-.04.03-.58-.03-.64,0-.06.03-.06.34-.09.37-.05.03-.48-.03-.55,0-.13.06-.03.28-.09.32-.09.06-2.02.04-2.11,0-.13-.06-.03-.32-.09-.37-.03-.02-.22.02-.3,0,.43-1.15-.23-.64-.32-.85-.03-.06.02-.32,0-.44.91-.05.29.49,1.33.37-.13.78.25.44,1.36.51.04,0,.02-.14.02-.14.58-.07.88.31.78-.46.02,0,.03,0,.05,0,.09,0,.53.12.6.02-.03-.8.15-.83-.32-.8,0-.15-.01-.31,0-.46l.78-.07c-.03-.31.04-1.51,0-1.61-.11-.24-.62.51-.37-1.45.02,0,.31-.09.46-.05Z"/>
        <path class="cls-101" d="M15.46,32.75c0,.1.05.69.05.97,0,.05-.14-.05-.09.97,0,.1-.02.51,0,.53.15.21.51-.56.51,1.08.03.72.49-.1.41.78-.48-.06-.51.2-.53-.41-.93.16.23-1.08-.97-.87-.01-.06-.11-.39-.11-.41,0-.04.05.13.05-.69,0-.24,0-1.78.05-1.86.06-.13.52-.04.64-.07Z"/>
        <path class="cls-7" d="M16.56,36.11c.02.12-.03.38,0,.44.09.21.76-.3.32.85-.07-.01-.23.02-.25,0-.12-.09.2-.26-.3-.32.07-.88-.39-.06-.41-.78-.02-.6.59-.44.64-.18Z"/>
        <path class="cls-107" d="M17.25,32.75s-.15-.02-.16,0c-.15.16.19.36-.3.46-.2.04-.46-.09-.6.11.07.53-.04.37-.05.39h-.64c0-.28-.06-.87-.05-.97,0-.02,0-.03,0-.05.09-.66.39-.23.51-.39.03-.04-.03-.38,0-.41.09-.13.39.26.37-.48.47-.05.18-.06.28-.18,1.15-.22-.04,1.35.64,1.52Z"/>
        <path class="cls-7" d="M20.33,31.97c.39,0,.44.05.46.05-.25,1.96.26,1.21.37,1.45.04.09-.03,1.3,0,1.61l-.78.07s0-.03,0-.05c.02-.37.02-.73,0-1.1,0-.19,0-.38,0-.57-.14,0-.28-.05-.41-.07.04-.32-.04-.57-.05-.6-.01-.23-.03-.57.05-.78.12,0,.25,0,.37,0Z"/>
        <path class="cls-111" d="M16.19,34.68c.05.56-.05.69.6.64.5.63.76.53.78.57.11.29-.25.38.32.44v.14c-1.04.12-.42-.42-1.33-.37-.05-.25-.67-.41-.64.18,0-1.64-.36-.87-.51-1.08-.02-.02,0-.43,0-.53h.78Z"/>
        <path class="cls-113" d="M20.37,35.1s0,.03,0,.05c-.01.15,0,.31,0,.46-.06,0-.24-.02-.28.02-.03.04.02.61,0,.76-.02,0-.03,0-.05,0-.21,0-.74.05-.78.05-.1,0-.22-.09-.28-.18l.92-.99v-.16h.46Z"/>
        <path class="cls-113" d="M19.27,36.43v.41s.02.13-.02.14c-1.1-.07-1.49.27-1.36-.51v-.14c.33.03.74-.02,1.08,0l.02-.09c.06.09.18.17.28.18Z"/>
        <path class="cls-25" d="M20.37,35.6c.47-.02.29,0,.32.8-.07.09-.5-.02-.6-.02.02-.15-.03-.72,0-.76.03-.04.21-.02.28-.02Z"/>
        <path class="cls-101" d="M20.05,36.38c.1.77-.2.38-.78.46v-.41s.57-.05.78-.05Z"/>
        <path class="cls-78" d="M16.15,33.72s.04.85.05.97h-.78c-.04-1.01.09-.91.09-.97h.64Z"/>
        <path class="cls-101" d="M17.62,30.78c.79.14-.37.69,1.26.55.06.02-.04.06-.02.09h-1.08c-.05.04-.01.62-.02.74,0,.1,0,.2,0,.3-.02.06-.41.24-.51.3-.68-.16.51-1.74-.64-1.52.15-.2.45-.03.53-.09.06-.05-.02-.32.05-.37.02-.02.34,0,.44,0Z"/>
        <path class="cls-6" d="M20.33,31.19c-.01.26.01.52,0,.78-.12,0-.25,0-.37,0-.17,0-.43,0-.55,0-.18-.01-.45.05-.51-.07-.03-.07.02-.29-.05-.48-.01-.04.08-.07.02-.09-1.63.14-.47-.41-1.26-.55.18-.01.35-.05.37-.05.16,0,.43.05.62.05.04,0,0-.09.07-.09,1.14,0,.61.31.76.41.1.07.52,0,.55,0,.04,0,.06.49.34.09Z"/>
        <path class="cls-1" d="M20.37,33.99c.02.37.02.73,0,1.1h-.46c.09-.13-.1-.19-.09-.32.02-.48-.07-.92.55-.78Z"/>
        <path class="cls-101" d="M19.96,31.97c-.07.21-.06.55-.05.78-.18,0-.37,0-.55,0l.05-.78c.12,0,.38,0,.55,0Z"/>
        <path class="cls-82" d="M18.86,31.42c.07.19.02.42.05.48.05.11.32.06.51.07l-.05.78s-.06,0-.09,0c-.18,0-.34-.04-.51-.05.06-.77-.06-.51-.6-.51-.02,0-.13-.08-.41-.05.01-.12-.03-.7.02-.74h1.08Z"/>
        <g>
          <path class="cls-8" d="M16.79,33.21v2.11c-.65.04-.55-.08-.6-.64-.01-.12-.05-.92-.05-.97,0-.02.12.14.05-.39.13-.21.39-.08.6-.11Z"/>
          <path class="cls-60" d="M19.27,32.75l.02.55c.09.05.53.03.67.05.14.02.27.06.41.07,0,.19,0,.38,0,.57-.62-.14-.54.3-.55.78-.84.13-.48-.23-.55-1.4-.63-.09-.74.19-.69-.57.01,0,.17-.09.18-.09.17,0,.33.04.51.05Z"/>
          <path class="cls-22" d="M19.36,32.75c.18,0,.37,0,.55,0,0,.03.08.27.05.6-.13-.02-.57,0-.67-.05l-.02-.55s.06,0,.09,0Z"/>
          <path class="cls-28" d="M18.77,32.71s-.17.09-.18.09c-.47-.03-.56-.1-.41-.6.53,0,.66-.27.6.51Z"/>
          <g>
            <path class="cls-33" d="M18.17,32.2c-.14.5-.06.56.41.6-.05.77.06.49.69.57.07,1.18-.29,1.53.55,1.4,0,.13.19.19.09.32v.16l-.92.99-.02.09c-.34-.02-.75.03-1.08,0-.57-.06-.21-.15-.32-.44-.02-.05-.28.05-.78-.57v-2.11c.49-.1.15-.3.3-.46.02-.02.13.02.16,0,.09-.06.48-.24.51-.3,0-.1,0-.2,0-.3.29-.03.39.05.41.05Z"/>
            <path class="cls-60" d="M18.19,35.23c.53-.24.94.26.71.57-.02.03-.73.04-.76.02-.03-.02-.07-.55.05-.6Z"/>
            <path class="cls-108" d="M18.47,33.95c.54-.24.43.69.32.74-.57.25-.41-.69-.32-.74Z"/>
          </g>
        </g>
      </g>
      <path class="cls-56" d="M19.13,22.09c.03.06.04.07.05.14.01.18,0,.29-.05.46l-1.61-.09v-.41s-.01-.09.02-.09c.49-.03,1.24.05,1.59,0Z"/>
      <path class="cls-100" d="M15.27,22.55c.07.52-.17.34-.64.37,0-.02-.06-.07,0-.41.32-.04.61.05.64.05Z"/>
      <path class="cls-100" d="M16.01,21.86c.08.41-.22.37-.55.28.08-.53.05-.27.55-.28Z"/>
      <path class="cls-23" d="M21.29,15.79c.05.33.3.21.55.23,0,.05-.04-.04-.05.18,0,.12,0,.25,0,.37-.52,0-.25.42-.32.74-.01.06-.4.28-.09.64,0,0-.06.11-.14-.02.06-.77-.13-.54-.14-.57-.02-.1.04-.46-.02-.51-.13-.09-.5-.16-.39.51,0,.01.08.21.09.23-.52-.14-.16-.68-.3-.78-.04-.03-.58.03-.71,0-.31-.06-.2-.36-.09-.6.74.07,1.34.07,1.15-.41.14.02.32-.01.46,0Z"/>
      <path class="cls-47" d="M17.43,15.98c.02.29-.09.25-.28.28-.1.01-1.56.05-1.63,0-.05-.04,0-.29-.02-.37.06,0,.39-.14.41-.14.75-.03,1.5-.09,1.52.23Z"/>
      <path class="cls-96" d="M20.83,15.79c.19.49-.4.49-1.15.41-.25-.02-.35.08-.32-.28,0-.08-.03-.19.07-.23.06-.03,1.19-.02,1.33,0,.04,0,.06.09.07.09Z"/>
      <path class="cls-100" d="M21.89,15.29c.03.25-.02.49-.05.74-.26-.02-.5.1-.55-.23,0-.03.08-.44.07-.55.35-.04.5.05.53.05Z"/>
      <path class="cls-100" d="M22.99,14.64c.06.1.06.26.05.37-.01.08.03.18-.07.23-.03.02-.21,0-.3,0-.17.02-.21-.05-.23-.05.03-.81.02-.45.55-.55Z"/>
      <path class="cls-40" d="M24.97,12.9c-.26-.03-.17-.08-.23-.09v-.6c.44.03.64.13.23.69Z"/>
      <path class="cls-3" d="M13.53,14.51v.6c-.26-.03-.56.02-.83,0v-.55c.15,0,.16-.05.18-.05.21,0,.43-.01.64,0Z"/>
      <path class="cls-100" d="M14.03,15.2c-.09,0-.1.05-.14.05-.46-.05-.35-.14-.37-.14v-.6c.09,0,.47-.02.51.02.02.03-.02.52,0,.67Z"/>
      <path class="cls-100" d="M15.13,15.84s-.39.14-.46-.02c-.03-.06.02-.41,0-.57.3.02.53-.35.46.6Z"/>
      <path class="cls-88" d="M28.14,11.93c0,.12.02.73,0,.76-.05.07-.49-.01-.57.02-.12.05-.03.23-.09.28-.07.05-.52-.35-.51.74l-1.49-.02c.71-.28-.57-.92,1.45-.76.09-1.05.3-.5.51-.64.07-.05-.04-.31.09-.37.06-.02.46.01.62,0Z"/>
      <path class="cls-68" d="M20.56,22.18s.29.12.55,0c.08.6.19-.09.28.41.01.08-.03.33.02.37h.8c.04.11.03.21.11.28.02.01.25.02.39.05-.08.67.2.33.69.41.02,0,.4.14.41.16.12.29-.43.4,1.15.34-.02.17.17.01.23.18-.05.7-.33.09-.41.6-.19-.08-.43-.04-.64-.05-.1,0-.6.02-.62,0-.07-.05.02-.55-.05-.6-.05-.04-1.28.04-1.33,0-.08-.06.06-.62-.09-.69-.19-.03-1.32.04-1.38,0-.09-.06.06-.66-.09-.74-.43.11-1.63-.09-1.88,0-.04.01-.02.06-.02.09,0,0-.06.02-.05-.09.13-.01.29-.09.44-.05.19-.14.07-.17.07-.18.05-.17.06-.28.05-.46.46,0,.93-.04,1.38-.05Z"/>
      <path class="cls-88" d="M22.63,28.39c0-.08-.02-.43.02-.46,1.19.21.52-.68.74-.83.13.05.63-.05.67-.05.17.03.61.43.3.6-1.03-.19-.46.61-.64.74-.04.03-.91-.02-1.08,0Z"/>
      <path class="cls-2" d="M24.79,24.99c-.02.14.03.42,0,.48-.05.12-.31.05-.46.07-.34-.09-.23-.32-.18-.6.21,0,.46-.04.64.05Z"/>
      <g>
        <path class="cls-12" d="M10.54,21.4c.04.22.14.26.14.28,0,.02-.1.35-.05.44.05.07.31-.04.37.09.11.24-.25.54.51.34.02.14-.07.41.39.28.23-.07.14-.13.16-.32.65.15.55.02.55-.51.2,0,.4,0,.6,0,.02,0,.03,0,.05,0,.58,0,1.16,0,1.75.05-.07.3-.25.02-.37.21-.02.03.02.15,0,.21-1-.11-.5.27-.71.37-.18.08-.47-.22-.39.37-.31.06-.22.14-.23.14-.03,0-.54-.1-.62-.05-.19.13.66.67-1.72.41-.02-.19.06-.45-.46-.32-.11-.07,0-.36-.07-.41-.03-.02-.36.01-.48,0,0-.04-.03-.68-.05-.71-.13-.19-.59.47-.46-.9.05-.59.13-.32.14-.41.17.1.48.01.53.05.07.05-.15.6.44.41Z"/>
        <path class="cls-9" d="M9.62,20.34c-.01.2-.03.4-.05.6,0,.09-.08-.17-.14.41l-.41-.05c0-.46-.05-.79-.05-.83,0,0,.09-.07.09-.14h.55Z"/>
        <path class="cls-71" d="M9.62,18.23c0,.43,0,.86,0,1.29h-.55c.04-.23,0-.92-.05-1.19.03,0,.27-.24.6-.09Z"/>
        <path class="cls-68" d="M12.7,15.43s-.08.13.25.09c.23.44.73.58.8,1.06.01.07.01.35,0,.41-.76-.02-.54,0-.6.18-.06.19-.03.34-.07.37-.03.02-.26-.02-.34,0,0-.06,0-.13,0-.18-.01-.08-.05-.45-.07-.46-.04-.03-.71.02-.87,0-.12.08-.06.27-.07.46-.01.23-.01.59,0,.83h-.41l-.6.02c-.03.27.03.54.05.8-.31-.12-.19.74-.18,1.54,0,.02-.14.28-.09.46,0,.02.38.29.05.39-.59.18-.36-.36-.44-.41-.05-.03-.36.06-.53-.05.02-.2.03-.4.05-.6.02-.24,0-.49,0-.74,0-.03,0-.06,0-.09,0-.43,0-.86,0-1.29.04-.15-.37-.11-.67-.05,0-.18-.07-.57-.07-.6,0-.23.04-.17.05-.18l.83-.07-.05-.9c.07,0,.13-.09.14-.09.02,0,.13.08.44.05.17-.15.02-.44.02-.46.01-.08.09-.13.09-.14,0,.22.4-.01.71.09.02-.48.68-.07.78-.46.04-.01.75-.01.8,0Z"/>
        <path class="cls-100" d="M9.71,16.44l.05.9-.83.07c.1-.32.42.18.32-.92.13,0,.32-.03.46-.05Z"/>
        <path class="cls-100" d="M9.62,19.61c0,.24.02.5,0,.74h-.55c.05-.56-.23-.95.55-.74Z"/>
        <path class="cls-10" d="M11.32,18.69c.13-.02.31,0,.46,0,.24,0,.55-.02.78,0,.27.02.55.06.83.07l.02,2.27c1.17.16.51-.46.78-.55.02,0,.31,0,.32,0,.07.04-.04.31.09.37.04.02.42.06.39,0l.09.09-.16,1.01-1.68.05s-.03,0-.05,0c.13-.86-.54-.41-.6-.41-.03,0,.06-.11-.46-.14-.09-1.07.68.44.51-1.72l-1.59-.07-.02-.9c.07-.11.18-.06.28-.07Z"/>
        <path class="cls-13" d="M10.77,19.01c.03.67.15,1.33.09,2,.66-.03.32.35.44.44.09.06.81,0,.85,0,.52.03.43.14.46.14v.41c-.1,0-.51-.02-.53,0-.05.04-.01.41-.02.51-.02.2.07.25-.16.32-.46.14-.37-.14-.39-.28-.02-.13.02-.39,0-.44-.06-.14-.47-.03-.53-.07-.1-.07.16-.47-.3-.37,0-.02-.1-.06-.14-.28.34-.1-.04-.37-.05-.39-.04-.18.09-.44.09-.46,0-.8-.13-1.66.18-1.54Z"/>
        <path class="cls-73" d="M11.5,22.55c-.75.19-.4-.1-.51-.34-.06-.13-.32-.03-.37-.09-.06-.08.05-.41.05-.44.45-.1.2.29.3.37.05.04.47-.07.53.07.02.05-.02.3,0,.44Z"/>
        <path class="cls-100" d="M12.61,22c0,.52.09.66-.55.51.01-.09-.03-.47.02-.51.02-.02.43,0,.53,0Z"/>
        <path class="cls-73" d="M13.2,22c-.2,0-.4,0-.6,0v-.41c.05,0,.73-.45.6.41Z"/>
        <path class="cls-70" d="M12.42,14.51s-.03.05.28.05v.87c-.05-.01-.76-.01-.8,0-.1.39-.76-.02-.78.46-.31-.1-.71.13-.71-.09.02-.13-.03-.39,0-.46,0-.03.14.16.25-.41,1,.13.56-.28.69-.37.04-.03.91-.04,1.08-.05Z"/>
        <path class="cls-100" d="M10.31,15.93s.14.31-.02.46c-.31.03-.41-.05-.44-.05.02-.09-.03-.38.02-.41.03-.02.33.01.44,0Z"/>
        <path class="cls-70" d="M11.32,18.18v.51c-.1.01-.2-.04-.28.07l.02.9,1.59.07c.18,2.16-.59.66-.51,1.72-.04,0-.76.06-.85,0-.12-.08.22-.47-.44-.44.05-.67-.06-1.33-.09-2-.01-.27-.08-.53-.05-.8l.6-.02Z"/>
        <path class="cls-42" d="M13.53,15.1s-.09.08.37.14c-.18.91.63.47.74.62.02.03-.02.52,0,.67-.27,0-.59.1-.87.05-.07-.48-.57-.62-.8-1.06-.33.04-.24-.09-.25-.09v-.32c.27.02.57-.03.83,0Z"/>
        <path class="cls-36" d="M12.74,17.36c0,.06,0,.12,0,.18-.37.08-.11.83-.18,1.15-.24-.02-.54,0-.78,0,.04-.17-.04-.35-.05-.51-.01-.23-.01-.59,0-.83h1.01Z"/>
        <path class="cls-63" d="M12.74,17.36h-1.01c.01-.19-.05-.38.07-.46.17.02.84-.03.87,0,.02.01.06.38.07.46Z"/>
        <path class="cls-41" d="M11.73,18.18c0,.16.09.34.05.51-.15,0-.32-.02-.46,0v-.51h.41Z"/>
        <g>
          <path class="cls-73" d="M15,18.28c.01.86,0,1.72,0,2.57.03.06-.35.02-.39,0-.13-.06-.03-.32-.09-.37-.01,0-.31,0-.32,0-.27.1.39.71-.78.55l-.02-2.27c-.28,0-.55-.05-.83-.07.08-.32-.18-1.07.18-1.15.08-.02.31.02.34,0,.03-.02,0-.18.07-.37.15-.02.53.02.57,0,.05-.03.01-.13.02-.18.01-.07.01-.34,0-.41.28.05.6-.05.87-.05.14,0,.29-.04.37.07,0,.56,0,1.12,0,1.68Z"/>
          <path class="cls-96" d="M13.76,16.99c0,.05.02.16-.02.18-.04.02-.42-.02-.57,0,.06-.18-.16-.2.6-.18Z"/>
        </g>
      </g>
      <path class="cls-23" d="M21.52,21.31c.04,1.33.23.72.44.87.14.1-.35.52.83.41-.09.76.58.14.39.69-.12-.03-.33.02-.46,0-.14-.02-.38-.03-.39-.05-.08-.07-.07-.16-.11-.28-.03-.07.06-.24-.07-.32l-.76-.05c-.09-.5-.19.19-.28-.41-.02-.12.02-.31,0-.37-.08-.23-.55.09-.28-.32.31.01.25-.03.28-.18h.41Z"/>
      <g>
        <path class="cls-39" d="M28.23,18.41c0,.2.02.76,0,.83,0,0-.04.04-.05.05-.01,0-.03,0-.05,0-.19.1-.3-.31-.3.69-.14,0-.29,0-.44,0l.05-1.52c.21,0,.52-.06.74-.09l.05.05Z"/>
        <path class="cls-94" d="M28.23,21.17v.97s-.04.05-.14.05c-.15,0-.27.03-.41.05-.11.01-.09-.05-.09-.05.12-.14.04-.32.05-.51.01-.18.04-.37.05-.55l.55.05Z"/>
        <path class="cls-101" d="M28.23,16.71c0,.57.02,1.14,0,1.7l-.05-.05c.13-1.37-.34-.68-.46-.94-.01-.03-.05-.61-.05-.67,0-.01.07.03.05-.23.21.03.48-.23.51.18Z"/>
        <path class="cls-29" d="M28.23,20.67l-.55.05c0-.07-.03-.35,0-.39.13-.18.59.49.46-1.03.01,0,.04,0,.05,0,.08.45.05.92.05,1.38Z"/>
        <path class="cls-111" d="M28.23,20.67c0,.17,0,.34,0,.51l-.55-.05c0-.14,0-.28,0-.41l.55-.05Z"/>
        <path class="cls-101" d="M26.67,15.24c.27.02.53.08.8.05,0,.65.11.48.11.51,0,.05-.33.67.14.74.03.26-.04.22-.05.23-.93-.05-.44-.11-.6-.48-.07-.16-.57.13-.51-.55-.68.02-.39-.37-.48-.44-.08-.05-.31.1-.39-.09.32.06.65.02.97.05Z"/>
        <path class="cls-6" d="M26.39,14.46c.01.11-.02.36,0,.39.03.05.21.02.28.02v.37c-.31-.02-.65.01-.97-.05-.01-.02,0-.09,0-.14-.03-.17.06-.38-.14-.46v-.14c.28,0,.55.01.83,0Z"/>
        <path class="cls-38" d="M25.7,15.06s-.01.11,0,.14c.09.2.31.04.39.09.1.07-.19.46.48.44-.06.68.44.39.51.55.16.37-.33.43.6.48,0,.05.03.64.05.67.12.26.59-.43.46.94-.22.03-.52.09-.74.09-.02,0-.11-.08-.37-.05,0-.18.04-1.26,0-1.31-.05-.06-.32,0-.39-.02-.14-.06-.02-.41-.09-.46-.03-.02-.27.03-.32,0-.28-.13.12-.22-.76-.23.05-.3-.05-.62-.05-.92,0-.02.08-.13.05-.41h.18Z"/>
        <path class="cls-38" d="M28.14,19.29c.13,1.52-.33.85-.46,1.03-.03.04,0,.32,0,.39,0,.14,0,.28,0,.41-.01.18-.04.37-.05.55-.19.02-.48-.03-.64,0-.18.03-.04-.37-.09-.44-.04-.06-.67.12-.55-.41.05-.23.58-.1.69-.21.09-.09.04-.45.05-.6.11-.01.21-.04.32-.05.14,0,.29,0,.44,0,0-1,.11-.59.3-.69Z"/>
        <path class="cls-38" d="M27.45,18.46l-.05,1.52c-.11,0-.21.03-.32.05.03-.51,0-1.09,0-1.61.25-.03.35.05.37.05Z"/>
        <path class="cls-84" d="M27.64,21.68c-.01.18.07.37-.05.51-.54.08-.12.32-.34.41-.05.02-.22-.02-.28,0-.29.13.22.49-.62.57.16.96-.91,0-.74.94-.11-.01-.3,0-.41,0,.21-.43.06-.34-.09-.37-.13-.86.58,0,.71-.74.7-.04.5-.71.53-.76.06-.09.4.15.32-.39.02,0,.07-.14.32-.18.17-.03.45.02.64,0Z"/>
        <path class="cls-111" d="M25.57,14.6c.2.08.11.29.14.46h-.18c-.14-.01-.5.02-.53,0-.08-.05.04-.39-.07-.46.23,0,.39-.1.64,0Z"/>
        <path class="cls-60" d="M25.52,16.39c.88.01.48.09.76.23.05.03.29-.02.32,0,.07.05-.05.4.09.46.07.03.35-.04.39.02.04.05,0,1.13,0,1.31,0,.52.03,1.09,0,1.61,0,.14.04.51-.05.6-.2,0-.4,0-.6,0-.21-1.29.38-1.41-.8-1.33-.11.05-.07.65-.07.78-.88-.19-.67.52-.62.55.02.02.46,0,.57,0l.05.64c-.06,0-.76.12-1.29-.02-.04-.06.03-1.18,0-1.4.39.07.81,0,.6-.48-.07-.15-.56-.02-.67-.07-.12-.05-.06-.32-.07-.51-.04-.48.03-.97,0-1.45.07-.15.63,0,.69-.09.06-.08-.09-.78.07-.85.21,0,.41,0,.62,0Z"/>
        <path class="cls-38" d="M25.48,15.47c0,.3.09.62.05.92-.21,0-.41,0-.62,0-.16.07-.01.77-.07.85-.06.08-.62-.06-.69.09.03.48-.04.97,0,1.45l-.74-.05s-.11-.03-.09-.14c.22-.06.16-.46.14-.48-.07-.09-.44.02-.46.02-.05,0-.05-.05-.09-.05-.03-.53.11-.63-.14-.69-.17-2.06.46-1.17.76-1.38.07-.05-.02-.5.05-.55.08-.06,1.66.04,1.91,0Z"/>
        <path class="cls-45" d="M24.92,14.6c.11.07,0,.41.07.46.03.02.39-.01.53,0,.03.29-.05.39-.05.41-.25.04-1.83-.06-1.91,0-.07.05.02.5-.05.55-.3.21-.93-.68-.76,1.38-.7-.17-.51.27-.62.32-.22.11-.3-.15-.25-.32.48-.05.29-.2.32-.76-.39.1-.39-.07-.41-.07,0-.12,0-.25,0-.37,0-.23.29,0,.37-.16.03-.06-.04-.3.02-.34.13-.09.59.27.48-.46.09,0,.26.02.3,0,.1-.05.06-.15.07-.23.09-.02.42.03.46-.02.02-.03-.01-.33,0-.44.21,0,.44-.04.64-.05.04,0,.06.06.78.09Z"/>
        <path class="cls-18" d="M26.44,20.62c.2,0,.4,0,.6,0-.11.11-.64-.03-.69.21-.12.54.51.35.55.41.05.07-.09.47.09.44-.25.05-.3.18-.32.18-.21.04-.35-.05-.37-.05.07-.67-.14-.4-.71-.46-.04,0-.02-.09-.02-.09l-.05-.64s.03,0,.05,0c.3.02.58,0,.87,0Z"/>
        <path class="cls-38" d="M22.35,20.07s-.12.02-.18.16c.11.63-.21.93.6.74v-.8c.11,0,.65-.03.69.02-.08,1.33.13,1.11.14,1.17.1.71-.32.86.74.78,0,.07-.03.29.02.32,1.28-.07,1.45.3,1.36-.64.16,0,.42,0,.6,0,.02,0,.15.09.37.05.08.54-.26.31-.32.39-.03.05.17.72-.53.76-.13.73-.84-.12-.71.74-.19-.04-1.07.04-1.13,0-.07-.05.17-.49-.57-.28-.04-.12-.11-.16-.23-.18.19-.55-.48.07-.39-.69-1.18.11-.69-.32-.83-.41-.21-.15-.39.46-.44-.87,0-.03.05-.3.05-.51,0-.47.01-.95,0-1.42.51.23.07.51.94.41-.17.08-.09.14-.16.28Z"/>
        <path class="cls-94" d="M22.67,15.24c.11.73-.36.37-.48.46-.06.04,0,.28-.02.34-.08.16-.37-.07-.37.16,0-.23.04-.13.05-.18.03-.25.07-.48.05-.74.17-.01.38-.08.55-.09.02,0,.06.06.23.05Z"/>
        <path class="cls-35" d="M23.45,14.55s.03,0,.05,0c-.01.11.02.41,0,.44-.04.06-.37,0-.46.02.02-.11.01-.27-.05-.37.04,0-.08-.06.46-.09Z"/>
        <path class="cls-97" d="M22.9,18.09s.05.05.09.05c0,.32-.09.57.32.46-.02.11.09.13.09.14.23.26.38.62.78.62-.04.52.09.46.09.48.03.22-.04,1.34,0,1.4.53.14,1.22.02,1.29.02,0,0-.02.09.02.09.57.06.78-.21.71.46-.18,0-.43,0-.6,0-.46-.01-.92-.08-1.38-.05,0,0-.08-.02-.09-.07-.1-.31.26-.38-.64-.34,0-.06-.21.16-.14-1.17-.03-.05-.58-.02-.69-.02-.21-.01-.11-.08-.18-.09v-1.91c.08-.12.21-.05.32-.07Z"/>
        <path class="cls-38" d="M26.44,20.62c-.3,0-.58.02-.87,0,.11-.28,0-.45,0-.55,0-.13-.04-.73.07-.78,1.18-.08.6.05.8,1.33Z"/>
        <path class="cls-18" d="M24.14,18.78c.01.18-.05.45.07.51.11.05.6-.08.67.07.21.48-.21.55-.6.48,0-.03-.14.04-.09-.48-.4,0-.55-.36-.78-.62l.74.05Z"/>
        <path class="cls-38" d="M25.57,20.07c0,.1.11.27,0,.55-.02,0-.03,0-.05,0-.11,0-.55.02-.57,0-.05-.03-.26-.75.62-.55Z"/>
        <path class="cls-18" d="M21.89,17.4c-.05.17.03.43.25.32.11-.05-.08-.5.62-.32.24.06.11.16.14.69-.11.01-.24-.05-.32.07v1.91s-.07.11-.23,0c.08-.13,0-.19.16-.28-.88.09-.44-.18-.94-.41-.01-.35-.03-.71-.05-1.06-.01-.3.05-.28.05-.3-.02-.09-.16-.06-.18-.07-.3-.36.08-.58.09-.64.08.13.26.11.41.09Z"/>
        <path class="cls-84" d="M23.32,18.6c-.41.11-.32-.14-.32-.46.02,0,.39-.12.46-.02.02.02.09.42-.14.48Z"/>
        <path class="cls-38" d="M21.89,17.4c-.15.02-.33.04-.41-.09.07-.31-.2-.74.32-.74.02,0,.02.17.41.07-.03.55.16.71-.32.76Z"/>
        <path class="cls-18" d="M25.7,21.81c.09.95-.08.58-1.36.64-.05-.03-.01-.25-.02-.32-.01-.11.02-.26,0-.37.46-.04.92.03,1.38.05Z"/>
        <path class="cls-38" d="M24.33,21.77c.02.11-.01.25,0,.37-1.05.08-.63-.08-.74-.78.91-.04.55.03.64.34.01.04.09.06.09.07Z"/>
        <path class="cls-45" d="M22.58,20.07c.08.02-.02.08.18.09v.8c-.81.19-.49-.11-.6-.74.06-.14.18-.15.18-.16.16.11.22,0,.23,0Z"/>
      </g>
      <path class="cls-39" d="M23.18,23.28c.12.03.19.06.23.18.02.04-.01.15,0,.23-.49-.09-.77.25-.69-.41.13.02.34-.03.46,0Z"/>
      <path class="cls-42" d="M21.57,20.8c0,.21-.05.48-.05.51h-.41c.03-.15.03-.38-.09-.46.13-.01.09-.05.09-.05.07,0,.29.02.46,0Z"/>
      <path class="cls-23" d="M20.7,21.4s-.08.08.14.09c-.27.41.19.09.28.32-.46.01-.6-.11-.55.37-.45,0-.92.05-1.38.05,0-.07-.02-.08-.05-.14.19-.03.22.08.25-.18.66.1.36-.18.74-.14.16-.07-.29-.33.57-.37Z"/>
      <path class="cls-100" d="M21.02,20.85c.12.08.12.31.09.46-.03.15.03.2-.28.18-.21,0-.13-.09-.14-.09-.02-.19.01-.36.05-.55.09,0,.19,0,.28,0Z"/>
      <path class="cls-67" d="M21.11,17.36s.2-.19.14.57c.07.13.13.02.14.02.03.01.16-.02.18.07,0,.01-.06,0-.05.3-.73.08-.36-.2-.46-.44-.04-.09-.11.05-.28-.3,0-.02-.09-.22-.09-.23h.41Z"/>
      <path class="cls-4" d="M21.11,17.36h-.41c-.11-.67.26-.6.39-.51.06.04,0,.41.02.51Z"/>
      <g>
        <path class="cls-102" d="M14.03,15.2c.21.02.43.03.64.05.02.16-.03.51,0,.57.07.16.44.02.46.02.32,0,.35.05.37.05.01.08-.03.33.02.37.07.05,1.53.01,1.63,0-.05.39.19.18.21.18.04.01.02.09.02.09-.16-.02-.13.04-.14.05-.56.08-.9-.27-.69.55-.03,0-.24.08-.57.05-.11.11-.1.59-.11.62-.08.11-.21-.16-.28.21l-.6.28c0-.56,0-1.12,0-1.68-.07-.11-.22-.07-.37-.07-.02-.14.02-.63,0-.67-.11-.15-.92.29-.74-.62.04,0,.04-.05.14-.05Z"/>
        <path class="cls-95" d="M15.48,16.71s.41,0,.44.02c.02.02,0,.55-.02.57-.02.01-.41,0-.44-.02-.02-.02,0-.55.02-.57Z"/>
      </g>
      <path class="cls-114" d="M22.21,22.96h-.8c-.05-.04,0-.29-.02-.37l.76.05c.13.08.04.25.07.32Z"/>
      <path class="cls-100" d="M21.11,21.81c.02.06-.02.25,0,.37-.26.12-.52,0-.55,0-.05-.48.1-.36.55-.37Z"/>
      <g>
        <path class="cls-87" d="M20.79,20.53c.03.21-.04.29-.05.32-.03.19-.07.36-.05.55-.87.03-.41.3-.57.37-.38-.05-.08.24-.74.14-.03.27-.06.16-.25.18-.34.05-1.1-.03-1.59,0-.04,0-.02.09-.02.09-.46.04-.54.09-.6-.32-.01-.07,0-.15,0-.23.51-.03.43-.14.46-.14.21,0,1.32.11,1.38,0,.05-.09-.1-.48.09-.55-.05.61,0,.67.64.62.02-.03-.01-.5,0-.62,0-.07.09-.38.09-.41.4-.1.8-.05,1.19,0Z"/>
        <path class="cls-64" d="M16.93,21.63c0,.07-.01.16,0,.23-.31.03-.44-.05-.46-.05v-.23c.15.02.3.06.46.05Z"/>
        <path class="cls-56" d="M19.68,16.21c-.11.24-.22.54.09.6-.12.16,0,.22,0,.23-.09.26-.24.22-.55.18-.03-.18.08-.26-.37-.23,0-.17.02-.34-.02-.51-.09-.07-.87.05-1.03.05-.13,0-.33.02-.41,0,0,0,.02-.08-.02-.09-.02,0-.25.21-.21-.18.18-.03.29.01.28-.28l1.93-.05c-.03.35.07.25.32.28Z"/>
        <path class="cls-37" d="M15.59,18c-.03.14,0,.74,0,1.01,0,.28.03.59.05.87.03.74-.16.95.32.87,0,.14.05.16.05.18h-.92l-.09-.09c0-.86.01-1.72,0-2.57l.6-.28Z"/>
        <path class="cls-77" d="M17.48,21.03s-.14-.13-.09.46c-.03,0,.05.11-.46.14-.15,0-.31-.03-.46-.05-.03,0,.28-.08-.51-.14.2-.18.05-.48.05-.51,0-.02-.04-.04-.05-.18,0,0,.09.01.09-.02,0-.17-.18-.35-.05-.85.23-.01.26-.05.28-.05.92.01.32.5.53.64.23.16.77-.41.67.55Z"/>
        <path class="cls-87" d="M20.79,17.59c.16.35.24.21.28.3.09.23-.27.52.46.44.02.35.04.71.05,1.06.01.47,0,.95,0,1.42-.17.02-.39,0-.46,0-.06-.4-.18-.26-.18-.28-.06-.21.05-1.56,0-1.63-.05-.07-.37.02-.41-.05-.03-.04.03-.42,0-.46-.04-.06-.27.03-.32-.09-.18-.42.26-1.34-.41-1.26,0-.01-.12-.07,0-.23.14.03.67-.03.71,0,.14.1-.22.64.3.78Z"/>
        <path class="cls-77" d="M20.93,20.53c-.1-.08-.09,0-.14,0-.4-.05-.8-.1-1.19,0,0-.08,0-.15,0-.23h.23c.63.09.34-.43.41-.53.04-.06.23.01.28-.05.04-.06.09-1.11-.32-.85.1-.67-.21-.07-.32-.87-.04-.29.36-.39-.64-.46,0-.03,0-.31,0-.32.32.03.46.07.55-.18.67-.07.23.85.41,1.26.06.13.28.03.32.09.03.04-.03.42,0,.46.05.07.37-.02.41.05.05.07-.06,1.42,0,1.63Z"/>
        <path class="cls-87" d="M19.5,20.94c-.01.12.02.59,0,.62-.64.05-.69-.01-.64-.62.08-.03.46.02.64,0Z"/>
        <path class="cls-5" d="M17.48,21.03c1.06-.13-.15.62,1.29.46-.06.11-1.17,0-1.38,0-.04-.59.09-.43.09-.46Z"/>
        <path class="cls-67" d="M20.93,20.53s.13-.12.18.28c0,0,.03.03-.09.05-.09,0-.18,0-.28,0,0-.03.07-.11.05-.32.04,0,.04-.08.14,0Z"/>
        <path class="cls-77" d="M18.86,16.99c0,.2-.09.09-.09.23-.14,0-.28.01-.41,0-.17-.01-.33-.04-.51-.05-.02,0-.03,0-.05,0v-.64c.16,0,.94-.11,1.03-.05.04.16.02.34.02.51Z"/>
        <path class="cls-5" d="M17.39,16.53c.08.02.28,0,.41,0v.64c-.31,0-.35.05-.37.05-.14,0-.07-.09-.14-.09l-.05-.55s-.02-.07.14-.05Z"/>
        <path class="cls-80" d="M19.22,17.22s0,.29,0,.32c0,.1-.04.33-.09.37.02-.23-.11-.17-.28-.18.05-.64-.09-.48-.09-.51,0-.14.09-.03.09-.23.45-.03.33.05.37.23Z"/>
        <path class="cls-87" d="M17.29,17.13c.07,0,0,.09.14.09-.1.14-.01.32-.05.46-.08.36-.63.6-.92.92-.03.03-.14.04-.18.11,0,.08,0,.17,0,.25-.06,0-.04.05-.05.05-.17.03-.45-.02-.64,0,0-.27-.03-.87,0-1.01.07-.36.19-.09.28-.21.02-.03,0-.51.11-.62.33.04.55-.04.57-.05.08,0,.53,0,.74,0Z"/>
        <path class="cls-77" d="M17.25,16.57l.05.55c-.2,0-.65,0-.74,0-.21-.82.13-.47.69-.55Z"/>
        <path class="cls-109" d="M16.24,19.01l.05.83s-.04.04-.28.05c-.12,0-.25,0-.37,0-.01-.28-.04-.6-.05-.87.2-.02.47.03.64,0Z"/>
        <path class="cls-5" d="M16.01,19.88c-.14.5.04.68.05.85,0,.04-.09.02-.09.02-.48.08-.29-.14-.32-.87.12,0,.25,0,.37,0Z"/>
        <path class="cls-73" d="M18.86,17.72c.16.01.29-.05.28.18-.05.16.33.07.74.09.11.8.42.2.32.87,0,.06.02.2-.02.23-.17.12-.56-.48-.34,1.19h-.23c0-.13-.01-1.04-.05-1.08-.05-.07-.37.02-.41-.05-.03-.05.05-.71-.02-.76-.18-.13-.65.37-.53-.6.02,0-.11-.12.28-.09Z"/>
        <g>
          <path class="cls-8" d="M16.83,19.29v.55s-.28-.07-.51-.07c.06-.25-.06-.57-.05-.8,0-.08,0-.17,0-.25.04-.07.15-.08.18-.11.48,0,.37.04.37.69Z"/>
          <path class="cls-100" d="M16.83,19.84v-.55c.66-.31.53.49.51.53-.03.04-.43.03-.51.02Z"/>
          <g>
            <path class="cls-69" d="M18.35,17.22v.53c.24-.02.18.07.23.07-.12.97.35.47.53.6.07.05-.01.71.02.76.05.07.37-.02.41.05.03.04.05.95.05,1.08,0,.08,0,.15,0,.23,0,.04-.08.34-.09.41-.18.02-.56-.03-.64,0-.19.07-.04.46-.09.55-1.43.16-.23-.59-1.29-.46.11-.96-.44-.39-.67-.55-.21-.15.39-.63-.53-.64l-.05-.83s-.01-.05.05-.05c-.01.23.1.55.05.8.23,0,.48.07.51.07.08,0,.48.02.51-.02.03-.04.16-.83-.51-.53,0-.65.11-.68-.37-.69.29-.32.84-.56.92-.92.13-.1.32.02.41-.11.01-.02-.06-.15.05-.39.18,0,.33.03.51.05Z"/>
            <path class="cls-100" d="M18.47,19.1c.57-.26.57.53.41.6-.57.26-.57-.53-.41-.6Z"/>
            <path class="cls-100" d="M18.1,19.93c.52-.23.44.54.32.6-.52.23-.44-.54-.32-.6Z"/>
          </g>
          <path class="cls-62" d="M18.77,17.22s.14-.14.09.51c-.38-.03-.26.09-.28.09-.05,0,.01-.09-.23-.07v-.53c.14.01.28,0,.41,0Z"/>
          <path class="cls-58" d="M17.8,17.17s.03,0,.05,0c-.11.25-.03.37-.05.39-.1.14-.28.01-.41.11.03-.14-.05-.32.05-.46.02,0,.06-.05.37-.05Z"/>
        </g>
        <path class="cls-93" d="M19.82,20.3c-.22-1.68.18-1.08.34-1.19.05-.03.01-.17.02-.23.41-.26.36.79.32.85-.04.06-.23-.01-.28.05-.07.1.22.62-.41.53Z"/>
        <path class="cls-83" d="M19.87,18c-.4-.02-.78.07-.74-.09.05-.04.08-.27.09-.37,1,.07.6.17.64.46Z"/>
      </g>
    </g>
  </g>
</svg>