<?xml version="1.0" encoding="UTF-8"?>
<svg id="Layer_2" data-name="Layer 2" xmlns="http://www.w3.org/2000/svg" viewBox="0 0 36.74 26.2">
  <defs>
    <style>
      .cls-1 {
        fill: #7c7672;
      }

      .cls-1, .cls-2, .cls-3, .cls-4, .cls-5, .cls-6, .cls-7, .cls-8, .cls-9, .cls-10, .cls-11, .cls-12, .cls-13, .cls-14, .cls-15, .cls-16, .cls-17, .cls-18, .cls-19, .cls-20, .cls-21, .cls-22, .cls-23, .cls-24, .cls-25, .cls-26, .cls-27, .cls-28, .cls-29, .cls-30, .cls-31, .cls-32, .cls-33, .cls-34, .cls-35, .cls-36, .cls-37, .cls-38, .cls-39, .cls-40, .cls-41, .cls-42, .cls-43, .cls-44, .cls-45, .cls-46, .cls-47, .cls-48, .cls-49, .cls-50, .cls-51, .cls-52, .cls-53, .cls-54, .cls-55, .cls-56, .cls-57, .cls-58, .cls-59 {
        stroke-width: 0px;
      }

      .cls-2 {
        fill: #e3bb8e;
      }

      .cls-3 {
        fill: #dbb8b3;
      }

      .cls-4 {
        fill: #dbae9b;
      }

      .cls-5 {
        fill: #8f6055;
      }

      .cls-6 {
        fill: #0a2925;
      }

      .cls-7 {
        fill: #7b7f98;
      }

      .cls-8 {
        fill: #064450;
      }

      .cls-9 {
        fill: #e7d0c5;
      }

      .cls-10 {
        fill: #f3f1f1;
      }

      .cls-11 {
        fill: #b27774;
      }

      .cls-12 {
        fill: #6bc0c8;
      }

      .cls-13 {
        fill: #a17086;
      }

      .cls-14 {
        fill: #191413;
      }

      .cls-15 {
        fill: #cd6b68;
      }

      .cls-16 {
        fill: #27150d;
      }

      .cls-17 {
        fill: #4f2a11;
      }

      .cls-18 {
        fill: #8c4c4c;
      }

      .cls-19 {
        fill: #b5e1e3;
      }

      .cls-20 {
        fill: #1f626c;
      }

      .cls-21 {
        fill: #ebcd9c;
      }

      .cls-22 {
        fill: #87d2dd;
      }

      .cls-23 {
        fill: #078b97;
      }

      .cls-24 {
        fill: #7b3f33;
      }

      .cls-25 {
        fill: #1d202a;
      }

      .cls-26 {
        fill: #08717d;
      }

      .cls-27 {
        fill: #85d4ec;
      }

      .cls-28 {
        fill: #378499;
      }

      .cls-29 {
        fill: #0e2223;
      }

      .cls-30 {
        fill: #ab7c69;
      }

      .cls-31 {
        fill: #aa7e8e;
      }

      .cls-32 {
        fill: #069ba8;
      }

      .cls-33 {
        fill: #bd8f83;
      }

      .cls-34 {
        fill: #461f18;
      }

      .cls-35 {
        fill: #a3314f;
      }

      .cls-36 {
        fill: #576282;
      }

      .cls-37 {
        fill: #713c41;
      }

      .cls-38 {
        fill: #9b96a6;
      }

      .cls-39 {
        fill: #052d36;
      }

      .cls-40 {
        fill: #ead2bb;
      }

      .cls-41 {
        fill: #6c7959;
      }

      .cls-42 {
        fill: #563f3d;
      }

      .cls-43 {
        fill: #eaded7;
      }

      .cls-44 {
        fill: #adb7c9;
      }

      .cls-45 {
        fill: #e7c4b1;
      }

      .cls-46 {
        fill: #7686a4;
      }

      .cls-47 {
        fill: #131819;
      }

      .cls-48 {
        fill: #e9f6f9;
      }

      .cls-49 {
        fill: #0e5456;
      }

      .cls-50 {
        fill: #0f8e85;
      }

      .cls-51 {
        fill: #065367;
      }

      .cls-52 {
        fill: #037e85;
      }

      .cls-53 {
        fill: #722013;
      }

      .cls-54 {
        fill: #a15758;
      }

      .cls-55 {
        fill: #5d2827;
      }

      .cls-56 {
        fill: #a16868;
      }

      .cls-57 {
        fill: #401f10;
      }

      .cls-58 {
        fill: #c29660;
      }

      .cls-59 {
        fill: #a38039;
      }
    </style>
  </defs>
  <g id="Layer_1-2" data-name="Layer 1">
    <g>
      <path class="cls-16" d="M.59,17.2s.05.08.05.5c0,.11,0,.21,0,.32,0,.48.06,1.23.05,1.58-.04.84-.07.94-.68.86,0-.03,0-.06,0-.09,0-.41,0-.81,0-1.22,0-.38,0-.75,0-1.13,0-.27,0-.54,0-.81h.59Z"/>
      <g>
        <path class="cls-14" d="M2.94,24.12c.15-.02.48.03.54,0-.08,1.73.91.12.84,1.4,1.38.11.77-.26,1-.36.23-.1.53.27.5-.41-.02.48.5.46.38-.05.07.05.06.16.05.23-.08.5-.36-.29-.41.68-.65-.07-.4.22-.45.29-.07.1-.44-.14-.36.25-.02,0,.06.05-.36.05-.17,0-.33-.04-.5-.05-.03-.13.06-.58-.07-.63-.06-.03-.45.02-.61,0-.02-.18.05-.45-.07-.5-.35.04-.54-.05-.57-.05,0-.28,0-.56,0-.84,0-.04.09-.02.09-.02Z"/>
        <path class="cls-25" d="M5.93,24.44c-.01.15-.14.2.05.27.05.02.2-.02.23,0,.12.5-.4.53-.38.05.03.68-.27.31-.5.41-.23.1.39.47-1,.36.07-1.28-.91.33-.84-1.4,0,0,.04-.04.05-.05l.75-.05c0-.27.1-.41.11-.45,1.09-.13.51.35.75.45.07.03.46-.03.5,0,.11.08-.17.5.29.41Z"/>
      </g>
      <g>
        <path class="cls-16" d="M36.24,5.8c.18.06.32.05.5.05,0,.22,0,.41,0,.63,0,.38,0,.75,0,1.13,0,.26,0,.51,0,.77-.14.02-.63-.04-.7.05-.04.05,0,.21-.02.41-.05.38-.05.75-.05,1.13-.03,0-.06,0-.09,0-.18,0-.36,0-.54,0l-.05-1.02c-1.19.09-.56-.48-.72-.72-.04-.06-.26.03-.32-.09-.03-.07.04-.34-.02-.38-.09-.06-.42.2-.34-.41.04,0,.09,0,.14,0,.1.01.59.03.63-.07,0-.25,0-.5,0-.75l.68-.09s0,.03,0,.05c-.05.58-.06,1.16-.05,1.74,1,.37.82-.28.72-1.74-.03-.4.34-.6-.54-.54-.22-.03-.14-.61-.11-.63.03-.02.74-.02.77,0,.07.05-.01.43.02.52.02.06.06-.04.09-.02Z"/>
        <path class="cls-14" d="M1.67,19.33c.06,0,.12,0,.18,0-.12.95.34.46.45.61.12.17-.24.58-.14.84-.04-.01-.07.08-.09.02-.17-.49.4-.25-.9-.48.11-.41-.27-.43-.43-.36-.12.05-.05.33-.07.5-.05.4-.03.76-.05,1.15,0,.04-.09,0-.09.07H.05s-.05-.04-.05-.14c0-.36,0-.72,0-1.09.61.08.64-.02.68-.86.88.08.57-.21.66-.27.02-.02.26,0,.34,0Z"/>
        <path class="cls-18" d="M33.66,5.93v1.33c.11.01.18.06.23.07-.08.61.25.35.34.41.06.05,0,.32.02.38.05.12.27.03.32.09.17.24-.47.81.72.72l.05,1.02c.01.05-.09.08-.09.09-1.01-.27-.47.39-.7.5-.11.05-1.29-.05-1.4,0-.13.06-.03.32-.09.36-.09.06-2.17-.07-2.26,0-.06.04,0,.35-.02.38-.08.11-2.34.09-2.65.02l-.09.72h-3.17c-.02.2-.03.39-.07.59h-1c-.02-.17,0-.48-.23-.41h-.14c.02-.47-.07-.97,0-1.45.03,0,.06,0,.09,0,.49.02,3.76.07,3.96.05.3-.03.22-.41.2-.43-.1-.14-.46.23-.41-.34l1.04-.05s.05.08.07.09c.12.04,2.33.05,2.44,0,.13-.06.02-.36.09-.41.03-.02.69-.02.72,0,.06.04-.03.22.09.27.04.02.59,0,.61-.02.19-.27-.28-.24-.32-.32-.03-.06.04-.3-.02-.34-.04-.03-.52.04-.57-.02-.13-.19.38-.95-.59-.72.03-.21-.04-1.43,0-1.49.03-.04.47-.04.5,0,.05.07-.09,1.08.07,1.15,1.09-.07.65.16.75.29.04.06.23-.01.27.05.1.14-.36.37.79.29.17-2.2-.23-1.39-.36-1.49-.07-.05.01-.44-.02-.52-.11-.24-.53.39-.41-.93.33.02.39-.05.41-.05.04,0-.07.15.81.09Z"/>
        <path class="cls-10" d="M34.65,5.44c.03.17,0,.83,0,1.09,0,.25,0,.5,0,.75-.04.1-.53.08-.63.07-.02-1.34-.37-2.26.63-1.9Z"/>
        <path class="cls-16" d="M34.65,5.44c-1-.36-.65.56-.63,1.9-.04,0-.1,0-.14,0-.04-.01-.12-.05-.23-.07v-1.33c-.11-.32-.49.3-.5-.52,0-.04.09-.02.09-.02.69.05.6-.09.63-.09.07,0,.03.09.07.09.16,0,.57-.1.72-.05.07.08-.02.09-.02.09Z"/>
        <g>
          <path class="cls-18" d="M36.01,6.48c.1,1.47.28,2.11-.72,1.74-.01-.58,0-1.16.05-1.74h.68Z"/>
          <path class="cls-31" d="M35.47,5.93c.88-.06.52.14.54.54h-.68s0-.03,0-.05c.02-.25-.08-.51.14-.5Z"/>
        </g>
        <g>
          <path class="cls-25" d="M35.38,4.13c.19.03.54-.03.68,0,.03,0,.13.05.14.09-.04.38.04.76.05,1.13,0,.02-.12.21,0,.45-.04-.01-.07.08-.09.02-.03-.09.04-.47-.02-.52-.03-.02-.74-.02-.77,0-.03.02-.1.61.11.63-.21,0-.11.25-.14.5l-.68.09c0-.26.03-.92,0-1.09,0,0,.09,0,.02-.09-.15-.06-.56.04-.72.05-.03,0,0-.09-.07-.09,0-.6,0-1.21,0-1.81,2.06-.22,1.21.15,1.4.66.08.07.09-.02.09-.02Z"/>
          <path class="cls-14" d="M34.74,2.81c.19.01.38,0,.57,0,.05.03.01.13.02.18.06.34-.08.78.05,1.13,0,0,0,.09-.09.02-.19-.5.66-.88-1.4-.66,0-.42,0-.84,0-1.27.56.12.21.5.34.59.02.02.42,0,.52,0Z"/>
        </g>
        <g>
          <path class="cls-14" d="M2.17,20.77c.19.07.4.08.59,0-.01.2.1.91.05,1.33.08.18.73-.05.72.16-.9-.28-.68.2-.68,1.72-.01.06-.33.06-.5.05-.6-.06-.34-.13-.36-.14.05-.3-.05-.62-.05-.9,0-.04.23-.28.02-.72H.59c0-.19-.05-.41-.05-.59,0-.07.09-.03.09-.07.01-.39,0-.76.05-1.15.21-.03.43.11.5-.14,1.31.22.73-.02.9.48.02.06.06-.04.09-.02Z"/>
          <path class="cls-14" d="M1.95,22.99c-.21.03-.42.04-.63.05-.23,0-.47,0-.7,0-.05-.03-.02-.29-.02-.36-.01-.13,0-.27,0-.41h1.38c.2.45-.02.69-.02.72Z"/>
        </g>
        <path class="cls-4" d="M30.49,4.13c.03.39.07.77.05,1.15.64.23.65-.25.75.57.23.05.67-.05.7-.05.08,0,.37.09.45.09-.12,1.32.3.69.41.93.03.08-.04.47.02.52.13.1.53-.71.36,1.49-1.15.07-.69-.15-.79-.29-.04-.06-.23.01-.27-.05-.1-.14.34-.37-.75-.29-.15-.07-.01-1.08-.07-1.15-.03-.04-.47-.04-.5,0-.04.06.03,1.29,0,1.49.97-.23.45.53.59.72.05.06.52,0,.57.02.06.04,0,.28.02.34.04.08.51.05.32.32-.02.03-.57.04-.61.02-.12-.05-.03-.23-.09-.27-.03-.02-.69-.02-.72,0-.07.05.04.35-.09.41-.11.05-2.33.04-2.44,0-.02,0-.07-.06-.07-.09.22-.25-.97-.21-1.02-.18-.04.03-.02.17-.02.23-.06.57.31.2.41.34.02.02.1.4-.2.43-.2.02-3.47-.03-3.96-.05-.02-1.27-.28-.66-.41-.84-.03-.04.03-.55,0-.59-.05-.07-.44.01-.52-.02-.14-.06-.03-.47-.07-.52-.04-.05-.37-.01-.45-.02v-.41l.02-.5c2.43.09,1.49-.18,1.7-.48.05-.06.43,0,.48-.02.12-.08-.37-.54,1.04-.32-.03-1.15.59.23.5-1.54.97-.1.56.28.68.36.03.02.61.02.63,0,.07-.05-.02-.49.05-.54.02-.02.47-.04.57-.05.08,0,.16.03.45,0,.09,0,.42.03.45-.02.04-.06-.07-.6.07-.66l.81.05c.06-.03.1-.45.11-.54h.86Z"/>
        <path class="cls-16" d="M35.24,10.05c-.03.08.03.43,0,.48-.05.07-.44-.05-.5.09-.03.07.03.36,0,.43,0,0-.05-.01-.05.05-.97.07-1.51-.24-1.36.41-.2,0-.65.09-.86.09-.38,0-.75-.07-1.13-.05-.19,0-.38,0-.57,0-.12.09-.05.31-.07.52,0,.04-.09.02-.09.02h-.45c-.39,0-.78-.01-1.18,0-1.43.04-.66.09-.9.43-.07.09-.28-.12-.32.2-1.32.06-1.38-.3-1.31.7.75,0,.56.11.59.11l.07.68c.23,0,.47,0,.7,0,.39.02.78-.01,1.18,0h1.22s.03.26.05.41c0,.1-.03.55.02.59h1.02s.03-.18.09.45c.02.25-.06.53.07.63,1.48.09.78-.16.97-.59,0,0,.05.01.05-.05.37.05.76-.05,1.13-.05.28,0,1.03.05.95.14-.17,1.45.75.12.77,1.13,0,.19-.03.37.05.36,0,0,.04.05-.18.05-.09,0-.65-.05-.68-.11l.02-.7h-1.81s-.03.51-.02.59c-.36,0-.72,0-1.09,0-.21,0-.42,0-.63,0l-.02-1.13c-.43.02-.86.04-1.29.05-.26,0-.52-.05-.77-.05-.04-.33.05-.69.05-.72,1.03.02,1.14-.17-.05-.23-.23,0-.45,0-.68,0-.02,0-.03,0-.05,0-.54,0-1.09,0-1.63,0,0-.11.02-.74-.02-.77-.2-.03-1.39.04-1.45,0-.07-.05.02-.54-.05-.59-.06-.04-1.27.03-1.47,0,0-.03-.1-.02.09-.34l-.09-1.06c.22-.07.21.24.23.41,0,.03-.14.39.02.54h.9s.03-.32.07-.54c.04-.2.05-.39.07-.59h3.17l.09-.72c.3.07,2.57.09,2.65-.02.03-.04-.04-.34.02-.38.09-.07,2.17.06,2.26,0,.07-.05-.04-.3.09-.36.11-.05,1.29.05,1.4,0,.24-.1-.31-.77.7-.5Z"/>
        <path class="cls-18" d="M21.62,8.33c.09.12.02.31.05.38.03.08.33.06.41.07.09.01.42-.03.45.02.04.05-.07.46.07.52.08.03.47-.04.52.02.03.04-.03.55,0,.59.12.17.39-.43.41.84-.03,0-.06,0-.09,0-.24-.01-.48-.09-.72-.05.09-.77-.24-.38-.32-.57-.02-.05.02-.24,0-.27-.04-.05-.18,0-.2-.02-.52-.43-.42-.66-.45-.68-.05-.03-.38.04-.43-.02-.03-.05.04-.48-.07-.52-.07-.03-.3.04-.34-.02-.02-.02-.01-.56,0-.59,0,0,.17-.11.18-.11.02,0,.37.03.38.05.12.08-.14.27.16.36Z"/>
        <path class="cls-34" d="M30.94,1.95c.28,0,.56,0,.84,0l.02,1.2s.53.02.63.02c.08.16.04.36.05.54,0,.02-.14.3.02.45.53.23.75-.66.75,1.22,0,0-.09-.01-.09.02,0,.82.39.2.5.52-.89.06-.77-.09-.81-.09l-.05-1.11c-.59,0-.56-.11-.59-.11-.01-.15.01-.3,0-.45,0-.08.02-.33-.02-.36-.18.03-.35-.03-.52-.05.1-.7-.29-.46-.14-1.11-.66.01-.37-.18-.52-.25-.13-.06-.43.2-.25-.45.06,0,.12,0,.18,0Z"/>
        <path class="cls-31" d="M32.21,4.62s0,.11.59.11l.05,1.11s-.07.06-.41.05c-.08,0-.37-.08-.45-.09.08-.76-.4.06-.27-1.18.14.03.36-.03.5,0Z"/>
        <path class="cls-55" d="M24.79,12.63c-.04.22-.05.53-.07.54h-.9c-.16-.16-.02-.52-.02-.54h1Z"/>
        <path class="cls-14" d="M23.57,12.22l.09,1.06c-.19.32-.09.3-.09.34-.01.11.02.41,0,.45-.17.02-.25,0-.27-.18-.01-.08.04-1.33.05-1.56,0-.02.09-.06.09-.11h.14Z"/>
        <path class="cls-15" d="M28.32,10.01l-1.04.05c0-.06-.02-.19.02-.23.05-.03,1.24-.07,1.02.18Z"/>
        <path class="cls-16" d="M31.08.55c0,.26,0,.51,0,.77-.12.02-.49-.06-.54.07-.02.06.02.36,0,.52-.03,0-.04.04-.14.05-.26,0-.53,0-.79,0l-.02.75c-.08.12-.29.06-.5.07.68.01.33-.39.36-.81,0-.03.2-.21.05-.57.19-.01.36-.04.54-.07.08-.01.33.03.36-.02.02-.03-.02-.52,0-.66.04,0-.1-.09.68-.09Z"/>
        <path class="cls-16" d="M33.07,1.41c.16,0,.44-.02.59,0,.06,0,.24-.02.27.02,0,.13,0,.26,0,.38.02.29-.05.34-.05.36-.32-.01-.64.02-.95,0-.07,0-.24-.08-.5-.05-.02-.25.02-.52,0-.77.07.02.12-.07.2.18.11-.04.34-.13.43-.14Z"/>
        <path class="cls-34" d="M32.53.55c.15,0,.32.04.45.05.03.42-.07.86.09.81-.09,0-.32.1-.43.14-.09-.25-.14-.16-.2-.18-.6-.2-.63.25-.59-.81.23,0,.45,0,.68,0Z"/>
        <path class="cls-14" d="M31.21.05c.14.02.53-.02.57,0,.06.04,0,.4.02.5-.21,0-.42,0-.63,0-.15-.56.04-.47.05-.5Z"/>
        <g>
          <path class="cls-10" d="M31.17.55c.21,0,.42,0,.63,0,.02,0,.03,0,.05,0-.04,1.06-.02.61.59.81.02.25-.02.52,0,.77,0,.07.05.48.07.5.08.05.58.12.43-.45.31.02.63-.01.95,0,0,.02,0,.03,0,.05,0,.42,0,.84,0,1.27,0,.6,0,1.21,0,1.81-.03,0,.06.14-.63.09,0-1.89-.22-.99-.75-1.22-.16-.15-.02-.43-.02-.45.61.22.48-.48.45-.52-.03-.05-.41-.02-.5-.02-.1,0-.6.02-.63-.02l-.02-1.2c-.28,0-.56,0-.84,0,.23-.15.14-.3.14-.63,0-.26,0-.51,0-.77.03,0,.06,0,.09,0Z"/>
          <path class="cls-43" d="M31.08,1.32c0,.33.09.48-.14.63-.06,0-.12,0-.18,0-.26,0-.21-.05-.23-.05.02-.16-.02-.46,0-.52.06-.13.43-.05.54-.07Z"/>
          <path class="cls-12" d="M32.48,3.72c0-.18.03-.39-.05-.54.09,0,.46-.02.5.02.03.04.16.74-.45.52Z"/>
          <path class="cls-50" d="M32.93,2.18c.15.58-.35.51-.43.45-.02-.01-.06-.42-.07-.5.26-.03.42.04.5.05Z"/>
        </g>
        <path class="cls-43" d="M31.8,21.13h.05s.09.13.09.18c0,.28.03.77,0,1,0,.07,0,.14,0,.2-.03.05-.21.1-.27.11-.09.02-.41,0-.54,0-.15-1.35.67.05.5-1.49.04,0,.06-.09.18,0Z"/>
        <path class="cls-56" d="M35.2,17.29c.14.71.07.65-.59.63.01-.78-.11-.55-.63-.54-.23,0-1.06.02-1.13,0-.22-.07-.13-.3-.14-.32,0-.08-.02-.56.02-.59h1.81l-.02.7c.03.06.59.11.68.11Z"/>
        <path class="cls-18" d="M34.61,17.92c0,.39.07.44-.54.41-.03,0-.09-.18-.5-.09-.1-.67.54.12.41-.86.52,0,.64-.24.63.54Z"/>
        <path class="cls-43" d="M34.06,18.33v.27c0,.56,0,.37-.59.41-.04,0-.05-.06-.14-.05.03-.59-.12-.65.23-.72.41-.09.47.09.5.09Z"/>
        <path class="cls-16" d="M26.51,22.49c.25.01.95-.05,1-.05.04,0,.12.06.18.07-.31,1.22,1.07.29,1.13.84,0,.03-.14.51.02.63.31-.05.63.04.93.05-.12.25,0,.47,0,.5,0,.03,0,.06,0,.09,0,.01-.09.17-.09.18.04-.15-.23-.07-.54-.09-.17.04-.04-.22-.11-.27-.04-.03-.3.04-.34-.02-.03-.04.04-.39-.02-.43-.03-.02-.7.01-.84,0-.02,0-.26-.09-.27-.09l-.07-.68h-.79c-.58.04-.43-.09-.45-.09l-.05-.68c.2,0,.27.04.32.05Z"/>
        <path class="cls-47" d="M13.57,14.35s-.04.04-.05.23c-.18-.12-.33,0-.41,0-.05,0-.16.02-.18-.02-.02-.03.01-.33,0-.48.06,0,.08-.09.14-.09.16-.01.32,0,.48,0,.04.03.02.29.02.36Z"/>
        <path class="cls-43" d="M30.4,1.95c.15.07-.02.48.05.79,0,.04.12,0,.14.05.02.07-.02.25,0,.32.13.33.54-.26.54.61-.03,0-.09.14-.59.09-.09-.41-.61-.32-.66.05-.45-.18-.25.24-.25.27,0,.09-.05.51-.11.54l-.81-.05c-.14.05-.03.6-.07.66-.04.05-.37.01-.45.02.14-.65-.6-.65-.45,0-.09,0-.54.03-.57.05-.07.05.02.49-.05.54-.03.02-.61.02-.63,0-.12-.08.29-.46-.68-.36.09,1.76-.52.39-.5,1.54-1.41-.22-.92.23-1.04.32-.04.03-.43-.04-.48.02-.21.29.73.57-1.7.48l-.02.5c-.12,0-.35-.01-.45-.05-.29-.09-.04-.28-.16-.36-.02-.01-.37-.05-.38-.05.02-.41,0-.28-.18-.32-.09-.18-.08-.24.09-.32.18.05,1-.03,1.33,0,.05-.04,0-.68.02-.81,0-.05.05-.05.05-.09.19.05,1.02-.04,1.38,0l.02-.79,1.38-.02c0-.3.07-.66.07-.72,0-.02,0-.03,0-.05h.68l.77-.02c0-.26,0-.53,0-.79,0,0,.04.04.05-.14h1.43l.02-1.02c.04-.12.59-.05.9-.07.21-.01.42.05.5-.07l.02-.75c.26,0,.53,0,.79,0Z"/>
        <path class="cls-43" d="M31.67,3.76c.17.02.34.08.52.05.05.03.02.29.02.36-.98-.14-.97.36-.5.45-.12,1.24.36.42.27,1.18-.04,0-.47.09-.7.05-.1-.82-.11-.33-.75-.57.03-.39-.02-.77-.05-1.15,0-.02.09-.1.05-.32.5.05.56-.09.59-.09.03,0,.46.04.54.05Z"/>
        <path class="cls-21" d="M30.54,3.81c.05.22-.05.3-.05.32h-.86s-.2-.45.25-.27c.05-.36.57-.45.66-.05Z"/>
        <path class="cls-2" d="M28.18,5.3c-.29.03-.37,0-.45,0-.15-.65.6-.65.45,0Z"/>
        <path class="cls-43" d="M22.08,8.38v.41c-.08-.01-.38.01-.41-.07-.03-.07.05-.26-.05-.38.1.03.33.04.45.05Z"/>
        <path class="cls-4" d="M26.56,15.03c0,.11.02.59,0,.61-.02.04-.71-.08-.45.5.06.13.34.04.38.07.06.04-.03.26.09.32.1.05.3-.05.32-.05.13.08-.23.19.43.23-.21,1,.59.53,1.92.63.11-.07.05-.18.07-.27.56,0,1.12,0,1.67,0,.21,0,.42,0,.63,0-.05.82.07.4.29.5.13.06,0,.31.14.36.23.1,1.04.1.79-.54.07.02.9,0,1.13,0,.13.98-.5.19-.41.86-.35.08-.2.13-.23.72-.07.01-.12.03-.18.07-.03.11.05.17.05.25-.8-.18-.45.07-.54.45,0,.03-.08-.18-.14.5-.14.01-.51-.03-.59.02.02.37-.15.53-.14.88-.12-.09-.14,0-.18,0-.64-.04-1.28-.08-1.92-.14-.02-.77-.29-.32-.59-.45-.15-.07.01-.43-.14-.5-.22-.1-2.11.06-2.51.05.11-.28,0-.39,0-.41,0-.1.13-.39.09-.48-.11-.23-.44.29-.45-.61,0,0,.14-.09.16-.09.13-.01.69.02.72,0,.07-.05-.01-.4.02-.48.06-.13.36-.02.41-.09.01-.02,0-.5-.02-.52-.04-.03-1.04-.03-1.09,0-.07.05.02.54-.05.59-.03.02-.53,0-.63,0-.04,0,0,.09-.07.09-.47,0-.39-.25-.38-.63-1.33.2-.59-.61-.81-.77h-.7l-.05-.93s-.45-.02-.54-.02c-.02,0-.03,0-.05,0,0-.18.01-.36,0-.54,1.08.09.62-.22.75-.32.02-.02.56-.02.59,0,.07.05-.03.63.05.68.05.03,1.08.03,1.13,0,.22-.15-.55-.69,1.02-.54Z"/>
        <path class="cls-54" d="M26.56,14.98s0,.03,0,.05c-1.57-.15-.8.39-1.02.54-.05.03-1.08.03-1.13,0-.07-.05.03-.63-.05-.68-.02-.02-.56-.02-.59,0-.13.09.33.41-.75.32-.01-.2-.07-.38-.05-.59.09-.91.46-.3.59-.54.02-.04-.01-.34,0-.45.2.03,1.41-.04,1.47,0,.07.05-.02.54.05.59.06.04,1.25-.03,1.45,0,.04.03.02.66.02.77Z"/>
        <path class="cls-18" d="M28.18,14.98c.11,1.72-.2.89-.36,1.11-.02.03.01.26,0,.34-.04.26.15.31-.5.27-.66-.04-.3-.15-.43-.23-.01,0-.21.09-.32.05-.12-.06-.03-.27-.09-.32-.04-.03-.33.06-.38-.07-.26-.58.43-.46.45-.5.02-.02,0-.51,0-.61,0-.02,0-.03,0-.05.54,0,1.09,0,1.63,0Z"/>
        <path class="cls-10" d="M29.68,15.98c.1,1.06-.27.62-.36.75-.02.03.01.26,0,.34-.02.09.04.2-.07.27-1.33-.1-2.13.37-1.92-.63.65.04.46,0,.5-.27.45,0,.63.09.54-.45.18.05.38-.05.54-.05.25,0,.51.05.77.05Z"/>
        <path class="cls-11" d="M30.99,17.06c-.56,0-1.12,0-1.67,0,.01-.08-.02-.31,0-.34.09-.13.47.32.36-.75.43,0,.86-.03,1.29-.05l.02,1.13Z"/>
        <path class="cls-11" d="M32.71,17.06s-.08.25.14.32c.25.65-.56.64-.79.54-.13-.06,0-.3-.14-.36-.22-.1-.34.32-.29-.5.36,0,.72,0,1.09,0Z"/>
        <path class="cls-11" d="M28.91,14.98c-.03.18.05.21.05.23,0,.04-.09.39-.05.72-.16,0-.37.09-.54.05,0-.05-.2.15-.14-1,.23,0,.45,0,.68,0Z"/>
        <path class="cls-30" d="M28.36,15.98c.09.54-.1.46-.54.45.01-.08-.02-.31,0-.34.16-.22.48.61.36-1.11.02,0,.03,0,.05,0-.07,1.14.13.94.14,1Z"/>
        <path class="cls-24" d="M28.95,15.21s-.08-.04-.05-.23c1.18.05,1.08.24.05.23Z"/>
        <path class="cls-18" d="M21.22,17.06c.07.27.42.07.52.14.09.06-.25.47.66.41.02.17-.03.4,0,.54.05.31.36.07.41.2.05.14-.1.43.02.48h1l.09.77c.99-.07.69.06.66.9-1.26-.21-1.39.37-1.31-.79l-.93-.07c-.07-.05.03-.63-.05-.68-.06-.04-1.29-.05-1.47-.05.04-.73-.19-.33-.48-.45-.12-.05-.03-.27-.09-.32-.14-.09-.42.31-.34-.59.12-.02.43.02.48,0,.02-.01-.1-.38.07-.5h.77Z"/>
        <path class="cls-34" d="M23.03,15.75s.03,0,.05,0c-.11.31-.02.64,0,.95,0,.04-.09.3-.05.38.08.16.34-.05.41.16-.18,0-.36,0-.54,0-.21,0-.42.04-.5-.07-.01-.15.02-.33,0-.48-.02-.16-.04-.29-.05-.45,0-.15,0-.3,0-.45,0-.02,0-.03,0-.05.23,0,.45,0,.68,0Z"/>
        <path class="cls-55" d="M22.98,14.62c-.02.21.03.39.05.59.01.18,0,.36,0,.54-.23,0-.45,0-.68,0,0-.39.01-.75.05-1.13h.59Z"/>
        <path class="cls-14" d="M19.91,17.56c-.08.9.2.49.34.59.06.04-.03.26.09.32.28.12.52-.28.48.45-.02,0-.17.04-.32.05-.18,0-.21-.05-.23-.05.03-.41-.03-.37-.41-.36,0-.32-.06-.48-.41-.41,0-.02-.02-.36,0-.45.03,0-.16-.04.45-.14Z"/>
        <path class="cls-14" d="M21.62,15.8c-.03.24.05.39.05.45,0,.02-.08.13-.05.41-.31.02-.51.03-.41.41h-.77l-.05-.05c.62.04.63.03.5-.68-.07-.35.49-.17.61-.23.13-.06,0-.25.11-.32Z"/>
        <path class="cls-55" d="M22.35,15.8c0,.15,0,.3,0,.45h-.68c0-.06-.08-.21-.05-.45.07-.04.59-.04.72,0Z"/>
        <path class="cls-29" d="M20.9,16.34c.13.71.13.72-.5.68.2-.41-.21-.77.5-.68Z"/>
        <path class="cls-25" d="M14.39,15.43c0,.09.07.19.09.27-.11.02-.29-.02-.36,0-.01-.08.02-.2,0-.27h.27Z"/>
        <path class="cls-4" d="M30.76,1.95c-.18.66.12.39.25.45.15.07-.14.26.52.25-.16.65.23.41.14,1.11-.08,0-.52-.05-.54-.05,0-.87-.42-.28-.54-.61-.02-.06.02-.24,0-.32-.01-.05-.13,0-.14-.05-.06-.31.1-.72-.05-.79.1,0,.1-.04.14-.05.01,0-.03.04.23.05Z"/>
        <path class="cls-3" d="M32.21,4.17c.01.15-.01.3,0,.45-.14-.03-.36.03-.5,0-.47-.09-.48-.59.5-.45Z"/>
        <path class="cls-34" d="M29,1.91c.14,0,.3.09.45.05-.03.42.31.83-.36.81-.31.02-.86-.05-.9.07l-.02,1.02h-1.43c0-.1-.15-.66.02-.86h1.27l-.02-1.02c.05-.11.85-.08,1-.07Z"/>
        <path class="cls-10" d="M32.53,20.77s0,.03,0,.05c0,.09.02.46-.02.5-.03.02-.43-.02-.57,0,0-.05-.09-.17-.09-.18,0-.53.27-.33.68-.36Z"/>
        <path class="cls-10" d="M33.21,19.78c0,.14,0,.29,0,.43-.03.05-.17.01-.23.02-.13.02-.31-.01-.45,0,.06-.68.13-.47.14-.5l.54.05Z"/>
        <path class="cls-5" d="M33.21,19.28c0,.15,0,.3,0,.45,0,.02,0,.03,0,.05l-.54-.05c.09-.38-.26-.63.54-.45Z"/>
        <path class="cls-38" d="M33.34,18.96c.09-.01.1.05.14.05-.03.57.14.8-.27.72,0-.15,0-.3,0-.45,0-.08-.07-.14-.05-.25.06-.04.11-.06.18-.07Z"/>
        <path class="cls-43" d="M31.08,23.4c-.07,1.08-.22.38-.52.59-.07.05.01.4-.02.48-.05.11-.18.05-.23.07v-.09c.04-.58-.09-.43-.09-.45-.03-.19-.08-.4-.05-.59h.9Z"/>
        <path class="cls-30" d="M31.08,23.08c0,.09,0,.18,0,.27,0,.02,0,.03,0,.05h-.9s-.01-.11,0-.14c0-.01.19-.22.2-.23.1-.05.49.09.7.05Z"/>
        <g>
          <path class="cls-14" d="M33.02,23.03s-.21-.1-.5-.02c.02.15-.04,1.02.02,1.06.02.01.45,0,.48-.02.03-.04-.02-.86,0-1.02.06,0,.17-.07.45-.05.2.01.31-.05.41.18-.03.16.03.48,0,.68,0,.07,0,.14,0,.2-.03.05-.13.01-.18.02-.12.02-.53-.06-.59.07v.84s-.22.08-.57.05c0,.5-.11.47-.11.5-.14.02-.54-.02-.57,0-.06.04,0,.44-.02.54-.03,0,.17.1-.45.09-.15,0-.3,0-.45,0,.07-.42-.3-.21-.36-.29-.06-.08.19-.31-.36-.25-.02-.16-.08-.31-.05-.48-.04-.1-.27.02-.45-.02,0-.04-.04-.05-.05-.09.8-.12.5.2.66.27.1.05.31-.09.41-.05.19.09-.3.45.93.29.02-.87,0-1.73-.05-2.6,0-.12.01-.2.05-.32.06-.01.24-.06.27-.11,0-.07,0-.14,0-.2.91-.14.41.43.54.61.06.09.57-.08.54.11Z"/>
          <g>
            <path class="cls-14" d="M36.01,17.24s.09.37.05.66c.19,0,.46.07.63.07-.06.4.06.83.05,1.22-.04.87-.26.43-.36.57-.02.02,0,.47,0,.57-.02.41.01.82,0,1.22-.02,0,.25.06-.36.14-.25.03-.57-.07-.68.07-.07.15.06.73.05.88,0,.02-.06.13-.07.36-.19,0-.38,0-.57,0-.26.01-.53,0-.79,0-.1.06-.06.12-.07.18-.1-.23-.21-.17-.41-.18.02-.11-.03-.64.02-.68.13-.1,1.74,0,1.79-.07.19-.27-.4-.81-.16-1.29l1.2-.07c.12-1.78-.27-1.03-.41-1.22-.07-.1.11-1.63.05-1.72-.02-.03-.45-.06-.5.05-.21.47.69.69-1.4.61v-.27c.62.03.54-.02.54-.41.65.02.73.08.59-.63.22,0,.17-.05.18-.05.21,0,.42,0,.63,0Z"/>
            <path class="cls-25" d="M33.48,22.99c-.28-.02-.39.04-.45.05.02-.19-.48-.02-.54-.11-.13-.19.36-.75-.54-.61.03-.22,0-.71,0-1,.14-.02.53.02.57,0,.05-.03.02-.41.02-.5.13-.1.41,0,.45-.07.02-.03-.01-.38,0-.52.06,0,.19.02.23-.02,0-.14,0-.29,0-.43,0-.01,0-.03,0-.05.41.08.24-.16.27-.72.59-.04.59.15.59-.41,2.09.08,1.19-.14,1.4-.61.05-.11.47-.08.5-.05.06.09-.12,1.62-.05,1.72.14.2.52-.56.41,1.22l-1.2.07c-.24.48.35,1.02.16,1.29-.05.07-1.65-.03-1.79.07-.06.04,0,.57-.02.68Z"/>
          </g>
          <path class="cls-25" d="M29.68,25.03c0-.06,0-.17,0-.23,0-.01.09-.17.09-.18.15-.02.42.03.52,0,.04-.01.02-.09.02-.09.05-.02.18.04.23-.07.03-.07-.04-.43.02-.48.3-.21.45.49.52-.59,0-.01,0-.03,0-.05.64.08,0-.35.54-.41.04.87.06,1.73.05,2.6-1.22.16-.74-.2-.93-.29-.09-.05-.31.09-.41.05-.15-.07.14-.39-.66-.27Z"/>
          <path class="cls-7" d="M33.02,23.03c-.02.16.03.98,0,1.02-.02.03-.46.04-.48.02-.06-.04,0-.91-.02-1.06.29-.08.47.02.5.02Z"/>
          <path class="cls-46" d="M31.67,22.63c-.03.11-.05.2-.05.32-.54.06.09.48-.54.41,0-.09,0-.18,0-.27v-.45s.03,0,.05,0c.13,0,.45.02.54,0Z"/>
          <path class="cls-36" d="M32.98,20.23c-.01.14.02.49,0,.52-.05.07-.32-.03-.45.07,0-.02,0-.03,0-.05,0-.18-.01-.36,0-.54.14-.01.32.02.45,0Z"/>
          <path class="cls-13" d="M30.31,24.53s.02.08-.02.09c-.1.03-.37-.02-.52,0,0-.03,0-.06,0-.09.21-.02.44.07.54-.09v.09Z"/>
        </g>
        <path class="cls-18" d="M31.62,21.13c.17,1.54-.65.14-.5,1.49-.02,0-.03,0-.05,0-1.03-.09-.21-.37-1.09-.32,0-.02-.06-.43-.11-.45-.39-.04-.75.05-.79.05-1.25-.05-.6-.04-.9-.77-.24,0-.48.01-.72,0-.97-.04-.36-.11-.54-.52-.11-.25-.85.28-.68-.52.07,0,.15,0,.23,0,.4.02,2.29-.14,2.51-.05.15.07-.01.43.14.5.3.13.57-.32.59.45.64.06,1.28.09,1.92.14Z"/>
        <path class="cls-4" d="M32.53,20.23c-.01.18,0,.36,0,.54-.41.03-.68-.17-.68.36h-.05c-.01-.35.15-.51.14-.88.08-.05.45-.01.59-.02Z"/>
        <path class="cls-4" d="M22.85,18.06c.73-.04.5.15.57.18.94.03-.32.54,1.11.54-.1.58.37.27.45.38.03.04-.04.34.02.38.04.03.43-.04.48.02.03.04-.04.39.02.43.03.02.51-.01.63,0,.02,0,.06.09.11.09-.17.8.57.27.68.52.18.41-.43.48.54.52-.16.45.89.41.72,0,.3.72-.35.72.9.77-.04.93-.01.58.84.63.1-.06.06-.14.07-.23.87-.06.05.23,1.09.32v.45c-.21.05-.6-.09-.7-.05-.01,0-.2.21-.2.23l-1.36.09c-.06-.55-1.44.38-1.13-.84-.06,0-.14-.06-.18-.07.11-1.06-.38-.23-.52-.72-.33-.04-.49.05-.52.05,0,0,.05-.05-.18-.05,0-.15,0-.3,0-.45,0-.89-.11-.25-.29-.68-.73-.04-.44.03-.52.29-.01.04-.09.02-.09.02h-.77c0-.12-.05-.27-.05-.41.03-.85.33-.97-.66-.9l-.09-.77h-1c-.12-.04.03-.34-.02-.48-.05-.14-.35.1-.41-.2.17-.06.27-.08.45-.09Z"/>
        <path class="cls-16" d="M20.81,18.92c.18,0,1.41,0,1.47.05.07.05-.03.63.05.68l.93.07c-.08,1.16.05.59,1.31.79,0,.14.04.29.05.41,0,.02-.12.26,0,.36,0,0-.13.13-.14.14l-1.29-.05-.09-.9h-1.06l-.09-.09-.07-.72c-.32-.02-.65.02-.97,0-.08,0-.37.02-.41-.02-.02-.03.02-.52,0-.66.15,0,.3-.05.32-.05Z"/>
        <path class="cls-14" d="M26.28,21.72c.23,0,.17.05.18.05l.05.72s-.12-.04-.32-.05c-.21,0-.42,0-.63,0-.35-.01-.71,0-1.06,0-.04-.03-.04-.98-.02-1.04,0,0,.13-.13.14-.14.5-.14.22.42.38.5.17.08,1.04-.05,1.29-.05Z"/>
        <path class="cls-54" d="M30.17,23.26s0,.09,0,.14c-.03.19.01.4.05.59-.37-.03-.43.05-.45.05-.3,0-.62-.09-.93-.05-.16-.13-.02-.6-.02-.63l1.36-.09Z"/>
        <path class="cls-54" d="M27.51,22.45s-.74.06-1,.05l-.05-.72s.19-.08.52-.05c.14.49.63-.34.52.72Z"/>
        <path class="cls-35" d="M30.22,23.98s.13-.12.09.45c-.1.16-.33.07-.54.09,0-.02-.12-.25,0-.5.02,0,.09-.08.45-.05Z"/>
        <path class="cls-14" d="M15.79,18.38l.05.5c-.58-.02-.38.33-.41.75-.03.05-.25.02-.32.02-.2.02-1.02-.03-1.06,0l-.02.72-.09.09h-1.06l-.09.9-1.24.02-.07,1.11c-.34,0-.68,0-1.02,0-.02,0-.03,0-.05,0-.1,0-.65-.02-.68.02-.02.03.02.56,0,.7-.14,0-.27,0-.41,0-.26,0-.53,0-.79,0l-.07.72c-.07,0-.11.04-.23.05-.34.02-.68-.02-1.02,0-.13.17-.04.4-.07.52-.01.04-.07,0-.09.07-.21-.03-.52-.09-.72-.09v-.5c.15-.02.76.03.79,0,.06-.04,0-.65.02-.77.19,0,.4-.03.59-.05.11,0,.63.02.66,0,.25-.18-.65-.86,1.18-.68l.02-.77s.03,0,.05,0c.65-.02,1.27.07,1.33.05.12-.05.04-.24.07-.32,0-.02-.02-.07.07-.14.44.04.32-.09.34-.09.07,0,.03.09.07.09.41,0,.81,0,1.22,0,.02-.29.09-.74-.07-.86l.05-.05c1.3-.06,1.33.29,1.27-.7-.03-.05-.13-.01-.18-.02v-.09l1.56-.05c.09-.07-.02-.57-.02-.68,0-.16,0-.32,0-.48.03-.05.37-.02.45-.02Z"/>
        <path class="cls-57" d="M25.24,4.85c0,.07-.07.42-.07.72l-1.38.02-.02.79c-.36-.04-1.19.05-1.38,0-.04,0-.11.02-.14-.02l.02-.84,1.4.05c.05-.04.01-.37.02-.45.01-.1-.04-.2.07-.27.2.04.41-.04.61-.05.04,0,.53.09.86.05Z"/>
        <path class="cls-16" d="M22.35,6.48c-.01.14.03.78-.02.81-.34-.03-1.16.05-1.33,0-.28-.08-.07-.54-.09-.77l.05-.05h1.4Z"/>
        <g>
          <path class="cls-34" d="M25.56,3.94c.14,0,.27,0,.41,0l-.05.86h-.68s-.14.13-.09-.77c.02,0-.12-.13.41-.09Z"/>
          <path class="cls-53" d="M26.69,3.99c0,.26,0,.53,0,.79l-.77.02.05-.86c.22,0,.55-.04.72.05Z"/>
        </g>
        <path class="cls-34" d="M23.66,16.7h.7c.23.16-.51.97.81.77,0,.39-.08.64.38.63.02.1-.06.44.07.5.03.01.38,0,.48,0,.01.9.34.38.45.61.04.09-.08.38-.09.48-.95.15-.45-.43-.66-.54-.05-.03-.46.03-.5,0-.18-.13.33-.4-.43-.41,0-1.03-.84.22-.68-1.15-1.08-.03-.66-.03-.77-.34-.07-.2-.33,0-.41-.16-.04-.09.05-.35.05-.38h.59Z"/>
        <path class="cls-10" d="M26.1,18.6c-.1,0-.45.01-.48,0-.13-.06-.04-.39-.07-.5.07,0,.03-.09.07-.09.1,0,.61.02.63,0,.07-.05-.02-.54.05-.59.04-.03,1.04-.03,1.09,0,.03.02.04.5.02.52-.05.07-.35-.04-.41.09-.03.08.04.43-.02.48-.03.02-.59-.01-.72,0-.02,0-.15.09-.16.09Z"/>
        <path class="cls-11" d="M26.46,19.69s.11.13,0,.41c-.08,0-.15,0-.23,0-.06,0-.09-.09-.11-.09-.12-.01-.6.02-.63,0-.06-.04,0-.39-.02-.43-.04-.06-.43,0-.48-.02-.06-.04,0-.35-.02-.38-.08-.11-.55.2-.45-.38.31,0,.34-.05.36-.05.76.01.25.28.43.41.04.03.44-.03.5,0,.21.11-.29.69.66.54Z"/>
        <path class="cls-55" d="M23.66,16.7h-.59c-.02-.31-.11-.64,0-.95.09,0,.51-.02.54.02l.05.93Z"/>
        <path class="cls-58" d="M18.23,5.3c-.02.18.05.55,0,.68,0,.02-.04.09-.05.09h-.81c.03-.16-.02-.51,0-.72.12-.04.13-.09.14-.09.17-.05.51.05.72.05Z"/>
        <path class="cls-16" d="M11.45,21.23c-.07-1.12.03-.57,1.22-.77.16.12.09.57.07.86-.41,0-.81,0-1.22,0-.03,0,0-.09-.07-.09Z"/>
        <path class="cls-16" d="M13.8,19.6c-.18-1.13.52-.37,1.54-.72,0,.1.12.61.02.68l-1.56.05Z"/>
        <path class="cls-16" d="M13.8,19.69s.15-.02.18.02c.06,1,.03.64-1.27.7l.02-.72c.3.03.84-.04,1.06,0Z"/>
        <path class="cls-14" d="M16.47,17.79v.59c-.21,0-.43-.01-.63,0-.06-.85.09-.51.63-.59Z"/>
        <path class="cls-11" d="M22.39,16.7c.02.15-.01.32,0,.48.07.11.29.06.5.07-.03.09-.04.17-.05.27-.58-.04-.43.09-.45.09-.9.06-.57-.34-.66-.41-.1-.07-.45.14-.52-.14-.1-.37.1-.38.41-.41.08,0,.41.08.77.05Z"/>
        <path class="cls-33" d="M22.85,17.52c0,.18,0,.36,0,.54-.18.01-.29.03-.45.09-.03-.15.02-.38,0-.54.03,0-.13-.13.45-.09Z"/>
        <path class="cls-56" d="M23.43,17.24c.11.31-.32.31.77.34-.16,1.37.68.12.68,1.15-.02,0-.05.05-.36.05-1.43,0-.17-.52-1.11-.54-.07-.03.16-.22-.57-.18,0-.18,0-.36,0-.54,0-.1.01-.18.05-.27.18,0,.36,0,.54,0Z"/>
        <path class="cls-54" d="M22.35,16.25c0,.16.03.29.05.45-.36.04-.69-.05-.77-.05-.03-.28.05-.39.05-.41h.68Z"/>
        <path class="cls-11" d="M29.99,22.31c0,.09.03.16-.07.23-.85-.05-.88.3-.84-.63.04,0,.4-.08.79-.05.05.02.11.43.11.45Z"/>
        <path class="cls-33" d="M28.18,21.13c.17.41-.88.45-.72,0,.24.01.48,0,.72,0Z"/>
        <path class="cls-56" d="M25.38,20.91c-.03.47.61.24.9.36,0,.15,0,.3,0,.45-.24,0-1.11.12-1.29.05-.17-.07.11-.64-.38-.5-.12-.1,0-.34,0-.36h.77Z"/>
        <path class="cls-5" d="M26.28,21.27c-.3-.12-.94.11-.9-.36,0,0,.08.02.09-.02.08-.26-.21-.33.52-.29.18.43.29-.21.29.68Z"/>
        <g>
          <path class="cls-43" d="M3.53,16.48c-.3.92.53.58,1.38.63.11-.08.06-.22.07-.36h.59c-.07.7-.34.12-.5.34-.1.14.26.59-.41.54.31.7-1.12.56-1.15.29h-1.74c.03-.61-.47-.62-.5-.23h-.63c0-.42-.05-.47-.05-.5,0-.18.04-.13.05-.14-.03.17.49.06.93.09.3-.21-.91-1,1.97-.68Z"/>
          <path class="cls-16" d="M2.4,15.66c.35,0,.69,0,1.04,0h.09c.02.4-.07.77.09.72,0,.07-.07.02-.09.09-2.88-.32-1.67.47-1.97.68-.44-.03-.96.08-.93-.09,0-.07-.01-.16,0-.23.01-.08-.03-.33.02-.36.14-.01.29.02.43,0,.41-.05.53.19.5-.72,0,0-.01-.09.02-.09.26,0,.53,0,.79,0Z"/>
          <path class="cls-4" d="M9.91,18.65c0,1.02-.5.11-.41,1.04,0,0,.01.09-.02.09-.22,0-1.08-.02-1.13,0-.12.05-.03.27-.09.32-.06.04-1.48-.04-1.54,0-.06.04,0,.35-.02.38-.03.04-.46.05-.48.07-.03.03.06.6-.5.36-.12-.05-.03-.27-.09-.32-.02-.01-.43-.01-.45,0-.07.05.05.44-.09.5-.64.28-.25-.73-.45-.81-.03-.01-.56-.02-.59,0-.05.03-.02.45-.02.54-.19-.29-.38-.14-.72-.23,0-.04-.04-.05-.05-.09-.02-.1.05-.36-.07-.41-.2-.08-.69.5-.57-.75-.14,0-.3-.06-.41-.07-.02-.16.03-.85,0-.88-.07-.1-.71.17-.54-.38.01-.05-.03-.11.09-.09h1.74c.03.27,1.47.41,1.15-.29.67.04.31-.41.41-.54.16-.22.42.36.5-.34,0-.09-.03-.46.02-.5.03-.02.5.02.63,0,.11,1.13.55-.07.63,1.13,2.35-.06,1.45.06,1.65.52,1.16.11-.17.7,1.29.57l.11.18Z"/>
          <path class="cls-10" d="M7.15,16.02c.74.06.26.1.41.43.06.14.42.03.48.07.06.05-.02.36.05.41.04.03.42-.03.45,0,.06.04,0,.3.02.38.12.35,1.5-.31,1.18.68.75,0,.56.11.59.11-.01.12.02.45,0,.48-.04.06-.28-.03-.41.07l-.11-.18c-1.46.14-.13-.46-1.29-.57-.2-.46.7-.58-1.65-.52-.08-1.2-.52,0-.63-1.13-.14.02-.6-.02-.63,0-.05.04-.01.41-.02.5h-.59c.03-.32-.06-.89.07-.95.28.03,1.41-.04,1.49,0,.24.11-.3.16.61.23Z"/>
          <path class="cls-16" d="M6.56,14.94c-.36.41.25.34.59.27v.81c-.91-.07-.37-.11-.61-.23-.08-.04-1.21.03-1.49,0-.13.06-.04.63-.07.95-.01.14.05.28-.07.36-.85-.06-1.68.29-1.38-.63.02-.07.09-.02.09-.09h1.02c.16-.07.02-.61.02-.72,0-.02.05-.07.05-.45.26-.03.95.07,1.13-.05.18-.11.03-.33.25-.5.22.06.22.22.48.27Z"/>
          <path class="cls-9" d="M1.27,17.7c-.03.43.06.19.41.32-.17.56.47.29.54.38.03.04-.02.72,0,.88-.02,0-.29.04-.36.05-.06,0-.12,0-.18,0-.17-.23-.05-.52-.09-.61-.06-.13-.31,0-.36-.14-.11-.27.34-.67-.59-.57,0-.11,0-.21,0-.32h.63Z"/>
          <path class="cls-4" d="M1.76,17.92c-.12-.02-.08.04-.09.09-.34-.13-.43.11-.41-.32.02-.4.52-.38.5.23Z"/>
          <path class="cls-16" d="M1.54,10.01c0,.08-.02.47.02.5l1.24.05c.06.15.04.34.07.36.1.07,2.26-.07,2.35,0,.07.05-.05.39.09.45.16.07,2.47-.07,2.58,0,.07.05-.03.63.05.68.13.09,2.77-.07,3.17,0,.11.05.07.56.07.68,0,.08-.1.21-.02.36h1.29s.09.03.09.07c.02.31-.05.44-.05.48-1.21.09-1.67-.42-1.54.54-.09,0-.18,0-.27,0-.2-.01-1.35,0-1.43.05-.08.06.06.66-.09.72-.67-.02-1.35.03-2.01,0-.19,0-.47.02-.59,0-.26-.05-.25-.21-.48-.27-.22.16-.07.39-.25.5.04-.33-.05-.56-.05-.59,0-.1.04-.25.05-.36h1.18c.36,0,.72.01,1.09,0,.29,0,.59,0,.88,0,.1-.07.08-.59.07-.63-.01-.1.01-.08.09-.09.47-.05,1.11.03,1.61,0,.17-.97-.01-.71-1.65-.72-.46,0-.96.05-.9-.09.03-.36-.26-.17-.32-.25-.03-.04.04-.3-.02-.34-.09-.06-.74.05-.88.05-.39-.01-.74,0-1.13,0-.02,0-.14-.08-.45-.05,0,0-.09.01-.09-.02,0-.22.04-.45-.07-.52-.2,0-.41,0-.61,0-.37-.02-.73.05-1.09.05-.24,0-.5-.05-.75-.05-.04,0-.02-.09-.02-.09.18-.58-.53-.31-1.49-.36,0-.02,0-.03,0-.05,0-.08.02-.42-.02-.45-.03-.02-.32.01-.43,0,0-.19-.04-.39-.05-.59.31.03.43-.05.45-.05.02,0,.02.07.32.05Z"/>
          <path class="cls-10" d="M1.67,19.33c-.08,0-.32-.02-.34,0-.09.06.22.35-.66.27.02-.36-.05-1.11-.05-1.58.93-.1.47.3.59.57.06.13.31,0,.36.14.04.09-.08.38.09.61Z"/>
          <path class="cls-18" d="M9.73,19.78c.14,1.18-.39.57-.61.72-.26.19.72.8-1.36.63l-.09.72c-.17.02-1.08-.03-1.13,0-.08.06.06.57-.09.63-.45-.03-.94.12-1.38.05-.55-.09-.21-.17-.32-.38-.05-.11-.2-.04-.23-.09-.03-.05.04-.38-.02-.43-.25-.18-.49.47-.48-.72,0-.03,0-.06,0-.09,0-.09-.02-.51.02-.54.02-.02.56-.01.59,0,.2.09-.18,1.1.45.81.14-.06.02-.45.09-.5.02-.01.43-.01.45,0,.06.04-.03.26.09.32.55.24.47-.33.5-.36.02-.02.45-.03.48-.07.03-.04-.04-.34.02-.38.06-.04,1.47.04,1.54,0,.06-.04-.03-.26.09-.32.05-.02.91,0,1.13,0,.04,0,.02-.09.02-.09.05,0,.05.1.23.09Z"/>
          <path class="cls-34" d="M12.49,16.7h.54c.02.29.18.62.48.41.07-.05-.05-.31.11-.27,0,.1,0,.21,0,.32l-.97.05s-.02.21-.02.27c-1.37-.04-.61.55-.81.84-.09.13-.78-.22-.63.38-.73.07-.27.34-.43.45-.05.04-.46-.07-.52.07-.17.38.39.52-.5.57-.17,0-.17-.09-.23-.09-.09-.93.41-.02.41-1.04.13-.1.36,0,.41-.07.02-.03-.01-.35,0-.48,1.3.11-.21-.73,1.36-.75-.04-.22.03-.44.05-.66h.77Z"/>
          <path class="cls-14" d="M3.26,20.5s.04.05.05.09c.01.1,0,.21,0,.32.02.25-.01.5,0,.75,1.17.1.26.26.72.88,0,0-.03.07-.16.05-.03,0,.07-.19-.34-.14,0-.06,0-.12,0-.18,0-.21-.65.02-.72-.16.05-.42-.06-1.13-.05-1.33,0-.08-.03-.23.07-.27.05-.02.29.01.43,0Z"/>
          <path class="cls-43" d="M2.22,19.28c.11.01.27.06.41.07-.13,1.25.37.67.57.75.12.05.05.31.07.41-.14.01-.38-.02-.43,0-.1.04-.06.19-.07.27-.19.08-.4.07-.59,0-.1-.26.26-.67.14-.84-.11-.15-.58.33-.45-.61.07,0,.34-.05.36-.05Z"/>
          <path class="cls-45" d="M4.03,20.82s0,.06,0,.09h-.72c0-.1.01-.21,0-.32.35.09.54-.07.72.23Z"/>
          <g>
            <path class="cls-4" d="M10.95,14.17c.92.09.4.22.54.43.04.06.21,0,.25.02.12.07.03.23.09.27.04.03.37-.03.41,0,.18.12-.42.47.79.41-.01.1.02.45,0,.48-.1.14-.67-.29-.54.52-1.14-.05-.75.08-.77.41-.02.22-.08.43-.05.66-1.57.02-.06.85-1.36.75-.03,0,.16-.11-.59-.11.32-.99-1.06-.33-1.18-.68-.03-.08.04-.34-.02-.38-.04-.03-.42.03-.45,0-.06-.05.02-.36-.05-.41-.05-.04-.41.07-.48-.07-.15-.33.34-.37-.41-.43v-.36l2.74.05c-.15-1.7.99.11.79-1.54.09,0,.18,0,.27,0Z"/>
            <path class="cls-43" d="M10.68,14.17c.2,1.65-.94-.16-.79,1.54l-2.74-.05v-.72c.67.03,1.34-.02,2.01,0,.15-.07,0-.67.09-.72.07-.05,1.22-.06,1.43-.05Z"/>
          </g>
          <path class="cls-5" d="M6.56,14.94c.11.02.4,0,.59,0v.27c-.34.07-.95.14-.59-.27Z"/>
          <path class="cls-18" d="M8.69,10.37c-.51-.12-.54.26-.45.41.1.18,3.75.05,4.21.05,0,.18,0,.36,0,.54,0,.44,0,.87,0,1.31l-1.27.05c0-.12.04-.63-.07-.68-.4-.07-3.04.09-3.17,0-.07-.05.03-.63-.05-.68-.11-.07-2.41.07-2.58,0-.14-.06-.02-.4-.09-.45-.1-.07-2.26.07-2.35,0-.03-.02-.01-.21-.07-.36-.01-.03.08-.07.02-.09-.45-.16-.58.44-.52-.93.64-.24.67.1.63-.75,1.04.17.62-.18.75-.27.03-.02.25.04.29-.02.16-.22-.44-.47.68-.54.02-.16-.03-.82,0-.86.02-.03.5-.04.52-.02.06.04,0,1.16.02,1.33-1.44.01.02.99-1.24.84-.1.58-.27.28-.34.38-.01.02-.03.34.07.38.18.08,3.44,0,3.94.05-.04-.31.46-.14,1.04-.18.08.03.03.41.02.5Z"/>
          <path class="cls-54" d="M1.76,8.11s-.02.1.07.14c.06.02.28-.02.32,0,.06.04-.01.23.05.27.01,0,.15-.1.27-.05.12.06.01.26.14.32.04.02.24-.02.34,0,.04.85,0,.51-.63.75-.06,1.37.07.77.52.93.06.02-.04.06-.02.09l-1.24-.05s-.03-.42-.02-.5c0-.08.29-.96-.09-1.09.29-.15-.08-.19-.09-.2-.12-.21.22-.39-.14-.43,0-.05.04-.04.05-.05.05-.05.03-.22.5-.14Z"/>
          <path class="cls-18" d="M12.49,13.63c0,.46-.11.5.45.45.01.14-.02.44,0,.48.02.04.13.02.18.02,0,.24-.06.48-.09.72-1.21.06-.61-.28-.79-.41-.04-.03-.37.03-.41,0-.06-.04.03-.2-.09-.27-.04-.02-.21.03-.25-.02-.15-.21.38-.34-.54-.43-.14-.97.33-.45,1.54-.54Z"/>
          <path class="cls-18" d="M1.22,8.92v1.04s-.15.08-.45.05c0-.02,0-.03,0-.05,0-.34-.05-.68,0-1.02.03-.04.38-.03.45-.02Z"/>
          <path class="cls-34" d="M12.44,13.08h-1.29c-.08-.15.02-.28.02-.36l1.27-.05c.07,0-.01.19,0,.41Z"/>
          <path class="cls-11" d="M1.45,8.92c.38.13.1,1.01.09,1.09-.3.03-.3-.05-.32-.05v-1.04c.09,0,.19-.01.23,0Z"/>
          <path class="cls-10" d="M1.45,5.26c-.03.17.02.46,0,.66.08.12.31.05.54.07-.02.16.03,1.02,0,1.06-.05.07-.67-.03-.72.05-.03.05.03.98,0,1.15,0,0-.05,0-.05.05-.22-.03-.49.06-.59-.07v-2.99c.04-.1.85-.13.81.02Z"/>
          <g>
            <path class="cls-25" d="M1.49,5.12c-.27,0-.58-.07-.86-.07l-.05-.88s0-.03,0-.05c0-.03.04.15.09-.63l1.4-.02v1.58c-.08.11-.35.07-.59.07Z"/>
            <path class="cls-14" d="M2.13,2.36c0,1.21-.04,2.41.05,3.62-.02,0-.16,0-.18,0-.23-.01-.46.05-.54-.07.02-.2-.03-.48,0-.66,0,0,.07.02.05-.14.24,0,.51.04.59-.07v-1.58l-1.4.02c.01-.16-.02-.38,0-.5,0-.05-.02-.15.02-.18.19-.01.38.02.57,0,.14-.01.47.02.52,0,.18-.08-.12-.53.34-.45Z"/>
          </g>
          <path class="cls-10" d="M1.18,20.32c-.07.24-.29.1-.5.14.02-.17-.05-.44.07-.5.16-.07.54-.04.43.36Z"/>
          <path class="cls-10" d="M3.53,22.27c0,.06,0,.12,0,.18.02.17.03,1.55,0,1.63,0,0-.04.04-.05.05-.06.03-.4-.02-.54,0,0-.06-.09-.13-.09-.14,0-1.52-.22-2,.68-1.72Z"/>
          <path class="cls-4" d="M13.57,18.01c-.01.23,0,.47,0,.7-.04.05-.28.01-.36.02-.15-.15-.01-.61-.48-.41-.12.05-.04.27-.07.36-.08.28-.42.05-.5.16-.03.04.03.3,0,.36-.06.13-.32.03-.36.09-.03.05.06.37-.07.43-.07.03-.41-.03-.45,0-.1.07.2.46-.5.36-.05.8-.53.31-.72.45-.06.04.02.27-.05.32-.23.16-.26-.35-.34.41-.02.15.02.3-.05.45-.02,0-.03,0-.05,0-.18,0-.35,0-.52-.05-.11.23-.37.11-.63.14.12,1.41-.88-.05-.7,1.36-.19.01-.4.04-.59.05-.39.01-.79.01-1.18,0-.3,0-.6-.12-.9,0-.02-.22.02-.46,0-.68.44.07.93-.08,1.38-.05.15-.07.01-.58.09-.63.05-.03.96.02,1.13,0l.09-.72c2.07.17,1.09-.45,1.36-.63.22-.16.75.45.61-.72.89-.04.33-.19.5-.57.06-.14.47-.03.52-.07.16-.11-.3-.38.43-.45.05,0,.66.04.93,0-.05-.86.53-.13.57-.68h.9Z"/>
          <path class="cls-43" d="M4.03,20.91c-.02,1.2.22.54.48.72.06.04,0,.38.02.43.03.05.18-.02.23.09.1.22-.23.3.32.38.02.22-.02.46,0,.68,0,.07-.02.28.02.32h.84s.06.08.05.45c0,.16-.03.3-.05.45-.46.1-.19-.33-.29-.41-.04-.03-.43.03-.5,0-.24-.11.34-.58-.75-.45.23-1.28-.1-1-.36-1.04-.46-.63.44-.78-.72-.88-.01-.25.02-.5,0-.75h.72Z"/>
          <path class="cls-16" d="M14.11,15.43c.02.07-.01.19,0,.27-.03,0,.13.1-.45.2-.01.2.02.41,0,.61,0,.1-.04.2-.05.32-.17-.04-.04.22-.11.27-.3.21-.46-.12-.48-.41,0-.07.02-.89.05-.93.2-.28.6.57.5-.79.07-.05.29-.07.34-.05.02.01.19.45.2.5Z"/>
          <path class="cls-55" d="M13.53,14.58c0,.59.04.38.05.41.1,1.37-.3.51-.5.79-.03.04-.05.86-.05.93h-.54v-.41c-.13-.81.44-.38.54-.52.02-.03-.01-.37,0-.48.03-.24.09-.48.09-.72.08,0,.23-.12.41,0Z"/>
          <path class="cls-56" d="M12.67,18.01c-.04.55-.61-.18-.57.68-.27.04-.88,0-.93,0-.15-.61.54-.25.63-.38.2-.28-.55-.88.81-.84-.04.35.05.52.05.54Z"/>
          <path class="cls-4" d="M14.61,16.75c.11.75-.31.46-.43.54-.09.07.2.41-.52.32,0-.02-.08.1-.05-.45,0-.1,0-.21,0-.32,0-.11.04-.21.05-.32.88-.24.33.35.95.23Z"/>
          <path class="cls-11" d="M13.66,17.61s-.06-.17-.09.41h-.9s-.09-.19-.05-.54c0-.06-.02-.24.02-.27l.97-.05c-.03.55.05.43.05.45Z"/>
          <path class="cls-54" d="M12.49,16.29v.41h-.77c.02-.32-.37-.46.77-.41Z"/>
          <path class="cls-14" d="M4.03,22.54c.26.04.59-.24.36,1.04,0,.05-.11.18-.11.45l-.75.05c.03-.07.02-1.46,0-1.63.41-.06.31.13.34.14.13.02.15-.05.16-.05Z"/>
          <path class="cls-4" d="M5.88,3.85c.04.3.3.15.54.18.01.17.06.36.07.54,1.45-.19.65.58.95.68.32-.15.65.03.95.09.11.02.46-.03.5,0,.07.05-.02.45.05.5.02.02.56.02.59,0,.11-.08-.28-.36.68-.27-.03,1.61.23.92.45,1.09.15.1-.42.41,1,.32.01.74.24.34.5.45.35.15-.67.52,1.33.45.09,0,.15.01.23-.05,0,.29.04.47,0,.77,0,.04-.34.44.18.5-.5.05-.25.11-.32.59-1.02-.13-.47.35-.7.45-.4.18-.39-.42-.43.68-.46,0-4.11.14-4.21-.05.74.06.44-.18.45-.41,0-.09.06-.47-.02-.5-.59.04-1.08-.13-1.04.18-.5-.04-3.76.03-3.94-.05-.1-.04-.08-.37-.07-.38.07-.1.24.2.34-.38,1.27.16-.19-.83,1.24-.84-.02-.17.04-1.29-.02-1.33-.02-.02-.5,0-.52.02-.03.04.02.7,0,.86-1.12.08-.52.32-.68.54-.04.06-.26,0-.29.02-.13.09.29.44-.75.27-.1-.02-.3.02-.34,0-.12-.06-.01-.26-.14-.32-.13-.06-.26.05-.27.05-.06-.04.01-.23-.05-.27-.03-.02-.26.02-.32,0-.08-.03-.06-.13-.07-.14.02-.09-.03-.46.02-.5.04-.03.52.04.57-.02.03-.05-.03-.9,0-.95.05-.07.54.02.59-.05.03-.05,0-.97.05-1.13.16,0,.47-.07.5-.07.02,0-.07.06.41.09.17.01.3-.05.27.09-.02.06-.01.28.07.32,1.23.16-.02-.66,1.27-.5.25-.74-.23-1.72.38-1.54Z"/>
          <path class="cls-4" d="M8.69,10.37c-.01.23.29.47-.45.41-.08-.15-.05-.52.45-.41Z"/>
          <path class="cls-34" d="M3.39,4.67s.14.01.09.54v.18s-.34.07-.5.07c-.04.16-.01,1.08-.05,1.13-.05.07-.54-.02-.59.05-.03.05.03.9,0,.95-.05.06-.52,0-.57.02-.06.04,0,.4-.02.5-.46-.08-.45.09-.5.14.03-.17-.03-1.11,0-1.15.05-.07.67.03.72-.05.03-.04-.02-.9,0-1.06.02,0,.16,0,.18,0,.1,0,.56.02.59-.02.06-1.18-.28-1.38.63-1.29Z"/>
          <path class="cls-10" d="M4.84.6s0,.06,0,.09v1.27c-.29.02-.59-.05-.68.07-.03.17.03,1.13,0,1.18-.05.07-.61-.01-.66.02-.05.03-.02.53-.02.63-.03.91-.09.77-.09.81-.92-.09-.57.11-.63,1.29-.03.05-.49.02-.59.02-.08-1.2-.04-2.41-.05-3.62,0-.06,0-.12,0-.18.32-.01.63.01.95,0-.19.62.47.42.5.38.01-.02,0-.29,0-.38.02-.28-.03-1.44,0-1.52l1.27-.07Z"/>
          <path class="cls-18" d="M16.51,17.74c-.06,0-.04.04-.05.05-.54.08-.69-.27-.63.59-.02,0-.03,0-.05,0-.08,0-.42-.02-.45.02,0,.16,0,.32,0,.48-1.01.36-1.72-.41-1.54.72v.09c-.23-.04-.76.03-1.06,0l-.02.72-.05.05c-1.19.2-1.29-.35-1.22.77-.02,0,.1.13-.34.09-.09.06-.06.11-.07.14-.12-.22-.88-.13-1.36-.18.08-.76.11-.25.34-.41.06-.04-.02-.27.05-.32.2-.14.67.35.72-.45.7.1.4-.29.5-.36.04-.03.38.03.45,0,.13-.06.03-.38.07-.43.05-.07.3.04.36-.09.03-.06-.03-.33,0-.36.07-.1.42.12.5-.16.17.15.35.08.54.05.08-.01.33.03.36-.02,0-.23-.01-.47,0-.7.03-.58.09-.38.09-.41.72.09.43-.25.52-.32.12-.08.54.21.43-.54.05-.01.2-.17.23-.18.87-.19.42.53.57.63.05.03.99-.03,1.04,0,.07.05-.04.37.07.54Z"/>
          <path class="cls-37" d="M14.48,15.71c.02.08-.02.31,0,.34.07.1.46-.22.36.52-.03,0-.17.17-.23.18-.62.12-.07-.47-.95-.23.02-.2-.01-.41,0-.61.59-.11.43-.2.45-.2.07-.02.25.02.36,0Z"/>
          <path class="cls-16" d="M4.75,0s.07-.2.09.59l-1.27.07c-.03.07.02,1.24,0,1.52-.24-.12-.47,0-.5,0-.32.01-.63-.01-.95,0,0-.02-.07-.09-.05-.36.01-.11,0-.23,0-.34.03-.05.25-.02.32-.02.11-.01.6.03.63-.02.03-.04-.02-.64,0-.79.03,0,.33-.07.54-.07-.04-.19.03-.38.05-.57h1.13Z"/>
          <path class="cls-54" d="M9.59,21.72l-.02.77c-1.83-.18-.92.5-1.18.68-.03.02-.54,0-.66,0-.18-1.41.82.06.7-1.36.26-.03.52.1.63-.14.17.05.34.05.52.05Z"/>
          <path class="cls-18" d="M7.15,23.22c-.02.12.04.73-.02.77-.04.03-.64-.02-.79,0h-.36c.02-.37-.05-.43-.05-.45,0-.02.07-.02.05-.32.39.01.79.01,1.18,0Z"/>
          <path class="cls-11" d="M11.04,21.45c-.02.08.05.26-.07.32-.06.03-.68-.06-1.33-.05.07-.15.03-.3.05-.45.47.05,1.24-.04,1.36.18Z"/>
          <path class="cls-33" d="M5.97,23.22c.03.3-.05.3-.05.32h-.84s-.02-.25-.02-.32c.3-.12.61,0,.9,0Z"/>
          <path class="cls-5" d="M13.21,18.74c-.2.03-.37.1-.54-.05.03-.09-.05-.31.07-.36.46-.21.32.26.48.41Z"/>
          <path class="cls-55" d="M6.33,23.98v.5c-.2,0-.48-.06-.36.23-.18-.07-.06-.12-.05-.27.01-.15.04-.29.05-.45h.36Z"/>
          <path class="cls-43" d="M5.52,1.95c.29,0,.59,0,.88,0l.14.81h1.43c0,.06-.01.15,0,.18-.29.05-.17.5-.16.86h1.47s0,.09,0,.14c0,.14-.04.81.07.86.46.01.92-.04,1.38.05v.68l.07.09,1.38-.05.07.81,1.56-.05s0,.06,0,.09c0,.05-.14-.28-.18.81-.24.08-.1.39-.14.63-2,.07-.99-.3-1.33-.45-.26-.11-.49.29-.5-.45-1.41.1-.85-.21-1-.32-.23-.16-.49.53-.45-1.09-.96-.08-.57.19-.68.27-.02.02-.56.02-.59,0-.07-.05.02-.45-.05-.5-.04-.03-.39.02-.5,0-.3-.06-.63-.24-.95-.09-.3-.1.5-.87-.95-.68,0-.18-.05-.37-.07-.54,0-.11.07-.7-.02-.77-.02-.01-.43-.03-.48.07-.01.02-.05.49-.05.52-.62-.18-.14.8-.38,1.54-1.29-.16-.03.65-1.27.5-.08-.04-.09-.26-.07-.32.09-.24.36-.05.41-.16.05-.53-.04-1.08-.05-1.61,0-.11,0-.21,0-.32.57.09.28-.24.38-.32.26-.19.46.49.52-.72,0-.17,0-.33,0-.5.03,0,.06,0,.09,0Z"/>
          <path class="cls-43" d="M14.79,7.29c.12,1.04-.5-.02-.36,1.29l-.72.02c.04-.3,0-.48,0-.77,0-.03.12-.35,0-.54.25.03.79,0,1.09,0Z"/>
          <path class="cls-58" d="M15.11,7.61c0,.15-.02.93-.05.97-.05.06-.36-.02-.41.05-.04.05.07.41-.07.48-.06.03-.53-.02-.7,0-.53-.06-.19-.46-.18-.5l.72-.02c-.14-1.31.49-.25.36-1.29.11,0,.22.02.32-.05,0,.12,0,.24,0,.36Z"/>
          <path class="cls-9" d="M4.52,3.81c0,.53.09,1.07.05,1.61-.04.11-.32-.08-.41.16.03-.14-.1-.08-.27-.09v-1.63s.31-.08.63-.05Z"/>
          <path class="cls-54" d="M13.57,9.69c-.07.46-.27.09-.36.29-.02.05.01.26,0,.36,0,.04-.09.02-.09.02-.08.01-.32-.03-.36.02-.01.02,0,.3,0,.38-.1.07-.21.04-.32.05.04-1.1.03-.5.43-.68.24-.1-.32-.58.7-.45Z"/>
          <path class="cls-9" d="M6.42,4.03c-.24-.03-.5.11-.54-.18,0-.03.03-.5.05-.52.04-.1.46-.08.48-.07.09.07.01.66.02.77Z"/>
          <path class="cls-40" d="M13.71,7.29c.12.19,0,.52,0,.54-.08.06-.14.04-.23.05.04-.24-.11-.55.14-.63.04,0,.05.04.09.05Z"/>
          <path class="cls-44" d="M3.89,5.17v.32c-.48-.03-.38-.09-.41-.09v-.18l.41-.05Z"/>
          <path class="cls-42" d="M3.89,3.85v1.31l-.41.05c.05-.53-.09-.51-.09-.54,0-.04.06.1.09-.81.24-.1.33,0,.41,0Z"/>
          <path class="cls-16" d="M5.56.64c.02.17-.03.59,0,.66.05.12.47.06.59.07.07,0,.33-.02.36.02.03.04-.04.52.02.57.02.01.38,0,.48,0,.32.02.65-.01.97,0,.04.03.02.69.02.81h-1.47l-.14-.81c-.29,0-.59,0-.88,0-.03-.13.06-.58-.07-.63-.06-.03-.45.02-.61,0v-.63c.15-.2.62-.04.72-.05Z"/>
          <path class="cls-34" d="M4.84,1.95c.19-.01.39,0,.59,0,0,.17,0,.33,0,.5-.62-.07-.41.16-.48.18-.08.04-.41.04-.43.07-.02.03,0,.68,0,.79,0,.11,0,.21,0,.32-.32-.04-.6.04-.63.05-.08,0-.17-.1-.41,0,0-.1-.02-.6.02-.63.05-.03.61.04.66-.02.03-.05-.03-1,0-1.18.09-.12.39-.05.68-.07Z"/>
          <path class="cls-43" d="M5.52,1.95s-.06,0-.09,0c-.19,0-.4-.01-.59,0v-.63c.17.02.55-.03.61,0,.13.06.04.51.07.63Z"/>
          <path class="cls-50" d="M3.57,2.18c0,.09.01.36,0,.38-.03.04-.69.24-.5-.38.02,0,.26-.12.5,0Z"/>
          <path class="cls-34" d="M13.8,6.34l-1.56.05-.07-.81.05-.05,1.56.05s.03.67.02.77Z"/>
          <path class="cls-16" d="M8.01,2.99c.09.04.98-.03,1.24,0,.16.07.02.69.02.81h-1.47c-.02-.35-.13-.81.16-.86.02.04,0,.03.05.05Z"/>
          <path class="cls-16" d="M13.8,6.43c.44,0,.87,0,1.31,0,0,.27,0,.54,0,.81-.1.07-.21.04-.32.05-.3,0-.84.03-1.09,0-.05,0-.05-.05-.09-.05.04-1.1.18-.77.18-.81Z"/>
          <path class="cls-17" d="M10.95,4.8c.21.02.46-.02.68,0l.05.05-.02.68h-.93v-.68s.09.01.09-.05c.16.02.13,0,.14,0Z"/>
          <path class="cls-4" d="M5.43,2.45c-.06,1.21-.26.54-.52.72-.1.07.19.4-.38.32,0-.11-.02-.76,0-.79.02-.03.35-.03.43-.07.06-.03-.15-.25.48-.18Z"/>
          <path class="cls-16" d="M12.21,5.3c0,.07,0,.15,0,.23l-.05.05-1.38.05-.07-.09h.93l.02-.68c.55,0,.59-.13.54.45Z"/>
          <path class="cls-1" d="M8.01,2.99s-.03,0-.05-.05c-.01-.03,0-.12,0-.18h.05c0,.08,0,.15,0,.23Z"/>
          <g>
            <path class="cls-53" d="M10.04,3.94c.02.15-.02.71,0,.75.02.03.66.1.77.11,0,.06-.05.05-.09.05-.46-.08-.92-.03-1.38-.05-.11-.05-.07-.72-.07-.86.26-.01.51,0,.77,0Z"/>
            <path class="cls-16" d="M10.45,3.94c.37,0,.47.05.5.05v.81s.03.02-.14,0c-.11-.01-.75-.08-.77-.11-.02-.04.02-.6,0-.75.14,0,.27,0,.41,0Z"/>
          </g>
        </g>
        <g>
          <path class="cls-47" d="M12.8,11.73c.14.03.27-.06.41.09-.01.28.02.58,0,.86,0,.02-.07,0-.05.36-.13-.94-.4.25-.32.48.03.09.19-.07.23.48-.06,0-.08.09-.14.09-.56.05-.44.01-.45-.45,0-.04.06-.17.05-.48,0-.03-.09-.06-.09-.07-.01-.22.07-.4,0-.41,0-.44,0-.87,0-1.31.23-.06.02.22.09.34.04.07.26.02.27.02Z"/>
          <path class="cls-39" d="M21.58,10.68s.04.05.05.09c.05.87-.04,1.75,0,2.62,0,.18,0,.36,0,.54.5.17.46.1.5-.32.09,0,.32,0,.36-.07.07-.12.05-2.01.14-2.8,0-.04.09-.02.09-.02.24-.04.49.03.72.05-.07.47.02.98,0,1.45,0,.05-.09.09-.09.11,0,.23-.06,1.48-.05,1.56-.33-.08-.24.11-.34.18-.5-.03-.13.35-.66.43.06.11.09.11.09.11-.03.39-.05.74-.05,1.13,0,.02,0,.03,0,.05-.13-.04-.66-.04-.72,0-.11.06.02.26-.11.32-.12.05-.68-.12-.61.23-.71-.1-.29.26-.5.68l.05.05c-.17.12-.04.48-.07.5-.04.02-.36-.02-.48,0-.61.1-.43.13-.45.14-.96.09-1.96-.07-2.94.05-.1-.17,0-.49-.07-.54-.05-.03-.99.03-1.04,0-.14-.1.3-.82-.57-.63.1-.74-.29-.42-.36-.52-.02-.03.02-.26,0-.34-.02-.08-.09-.18-.09-.27.02-.47.35-.22.18-.54h.09c.02.4-.12.54.36.5,0,0,.07-.03.14.07-.17.86.77.03.63.9.72.19.36.39.48.48.06.04,1.27,0,1.47,0,.16,0,.31-.04.45-.05.17,0,1.06.11,1.15.05.06-.04,0-.21.02-.25.08-.13.65-.03.7-.07.06-.04-.02-.32.05-.36.05-.03.37.07.43-.07.04-.1-.05-.27-.05-.34,0-.23.05-.26.05-.27.66.23.54-.57.5-.66-.14.03-.27.03-.41.02.07-.07.16-.04.27-.09.26-.12.04-.09.2-.32.27.13.67-.11.48-.38-.04-.06-.3,0-.36-.02-.02-.01-.15-.2-.14-.45,0,0,.09.01.09-.02,0-.22-.05-.45-.05-.66,0-.58.08-1.16.05-1.74,0-.04-.09-.02-.09-.02,0-.03.29-.38-.32-.41,0-.04.01-.04.05-.05.24-.03.52.02.77,0Z"/>
          <path class="cls-29" d="M12.8,11.73s-.23.05-.27-.02c-.07-.11.14-.4-.09-.34,0-.18,0-.36,0-.54.11,0,.22.02.32-.05,0,.3.1.64.05.95Z"/>
          <path class="cls-39" d="M13.16,13.04s.39.09.41.09c-.05.57.1.33.5.45,0,.12,0,.24,0,.36,0,.02-.03.09-.05.41h-.45c0-.07.02-.33-.02-.36-.16,0-.32-.01-.48,0-.04-.55-.19-.38-.23-.48-.08-.22.18-1.42.32-.48Z"/>
          <path class="cls-32" d="M14.11,11.32c0,.49-.03.96-.05,1.45-.21-.17-.57-.06-.86-.09.02-.28-.01-.58,0-.86,0-.12.05-.09.05-.09.3.03.43-.04.45-.05.01,0,.24.09.29.05.07-.05-.05-.34.11-.45,0,.02,0,.03,0,.05Z"/>
          <path class="cls-39" d="M13.12,10.37s.14.4.16.41c.05.02.33-.02.48,0,0,.04-.04.05-.05.09-.79-.14-.44.37-.45.86,0,0-.04-.03-.05.09-.14-.15-.26-.06-.41-.09.05-.31-.05-.65-.05-.95,0-.08-.01-.37,0-.38.04-.05.28,0,.36-.02Z"/>
          <path class="cls-26" d="M14.07,12.77c0,.08,0,.15,0,.23-.08.14-.16.03-.43.05-.04,0,0,.09-.07.09-.02,0-.37-.07-.41-.09-.03-.37.04-.34.05-.36.29.03.65-.08.86.09Z"/>
          <path class="cls-8" d="M18.77,6.43c.01.22-.01.44,0,.66.32.01.34.07.36.07-.11.59.54.23.59.23.65-.04.39.17.48.23.05.03.56-.03.7,0,.17.03.2-.1.18.32-.01,0-.18.1-.18.11-.01.03-.02.56,0,.59.04.06.27,0,.34.02.11.04.03.47.07.52.04.06.38,0,.43.02.04.02-.06.24.45.68.02.02.17-.03.2.02.02.03-.02.22,0,.27.08.18.41-.2.32.57,0,0-.09-.02-.09.02-.09.8-.07,2.68-.14,2.8-.04.07-.28.08-.36.07.03-.32.08-2.76,0-2.87-.03-.04-.42-.04-.5.02,0-.04-.04-.05-.05-.09,0-.02.1-.26.05-.38-.08-.18-.46.11-.43-.29-.36.09-.14-.38-.2-.48-.05-.06-.36,0-.43-.02-.14-.06,0-.39-.14-.45-.07-.03-.38.04-.43-.02-.27-.38.68-.53-1.04-.48-.3.01-.39.08-.72,0-.04-.01.24-.2-.79-.14-.1.06-.05.14-.07.23-2.01-.09-1.23.19-1.43.36-.02.02-.16-.02-.18,0-.21.18-.49.63-.77.59-.1.67-.61-.05-.52.72,0,0,.03.07-.07.14-.05-.06-.17-.06-.25-.05-.11.01-.23-.01-.34,0-.12.05-.05.27-.07.36-.15-.02-.42.02-.48,0-.02,0-.16-.39-.16-.41,0,0,.09.02.09-.02.01-.11-.02-.32,0-.36.09-.21.3.16.36-.29.07-.48-.18-.54.32-.59.17-.02.64.03.7,0,.14-.06.03-.42.07-.48.05-.06.36.02.41-.05.03-.04.04-.82.05-.97,1.39.19.55-.3,1.31-.23,0,0,.08-.02.09.02.01.03-.01.55.36.27.03-.02-.06-.65-.05-.68.05-.07.3.04.36-.09.05-.11-.06-.35-.05-.43,0-.02.02-.03.09-.38,0-.04.13-.02.14-.02h.81c-.07.06-.39.05-.41.16-.03.21.84.28.88.25.06-.04,0-.4.02-.5.15.08.08.3.09.45Z"/>
          <path class="cls-23" d="M21.58,10.68c-.24.02-.53-.03-.77,0,0-.25-.2-.37-.43-.27-.12.05-.03.27-.09.32-.26.18-.61-.44-.48.63,0,.07.06.03.09.07,0,.11,0,.23,0,.34l-.63.05c0-.35,0-.69,0-1.04.57-.05.44-.49.18-.54,0-.09.06-.12.05-.23.54.25.5-.31.45-.38-.04-.06-.32,0-.38-.02-.2-.09.21-.57-.57-.45.02-.1.01-.47-.05-.59,1.72-.06.77.09,1.04.48.05.06.36,0,.43.02.14.06,0,.39.14.45.07.03.38-.04.43.02.07.1-.16.57.2.48-.03.4.35.12.43.29.05.12-.05.37-.05.38Z"/>
          <path class="cls-32" d="M16.11,15.43l.07.95c.52,0,1.04,0,1.56,0v.45c-.2,0-1.41.04-1.47,0-.11-.08.25-.29-.48-.48.14-.88-.8-.04-.63-.9-.06-.09-.13-.06-.14-.07-.11-.65.53-.48.57-.45.04.03-.1.77.52.5Z"/>
          <path class="cls-32" d="M22.12,13.63c-.03.42,0,.49-.5.32.6.18.6-.73,0-.54-.04-.87.05-1.75,0-2.62.08-.06.47-.07.5-.02.08.12.03,2.56,0,2.87Z"/>
          <path class="cls-22" d="M21.08,11.14s.09-.01.09.02c.04.58-.04,1.16-.05,1.74h-.59c0-.06-.02-1.02-.05-1.06-.06-.1-.25.19-.23-.48,0-.05.08-.21.09-.27l.72.05Z"/>
          <path class="cls-32" d="M19.91,15.8c.18,0,.41-.03.59-.05,0,.07.09.24.05.34-.06.13-.38.03-.43.07-.06.05.02.32-.05.36-.05.03-.62-.06-.7.07-.02.04.03.21-.02.25-.09.06-.98-.05-1.15-.05l.05-.41c1.14-.02,1.19.21,1.13-.63.04,0,.05-.05.09-.05.03,0-.17.08.45.09Z"/>
          <path class="cls-48" d="M15.02,14.08s.07.07.18.05c0,.02,0,.03,0,.05.02.65.24.24.48.36.1.05.05.41.07.43.04.06.21,0,.27.02.01,0,.13.09.14.09-.01.11.02.28,0,.32,0,0-.04.04-.05.05-.62.27-.48-.47-.52-.5-.04-.03-.67-.2-.57.45-.49.05-.34-.09-.36-.5,0-.15,0-.3,0-.45,0-.1,0-.21,0-.32.12-.04.23-.06.36-.05Z"/>
          <path class="cls-19" d="M19.95,14.85c.18,0,.37-.01.54,0-.04.21.04.43.05.63,0,.01-.04.04-.05.27-.18.02-.41.05-.59.05-.03-.21.1-.42-.14-.5.21,0-.03-.46.18-.45Z"/>
          <path class="cls-47" d="M14.02,14.35s0,.03,0,.05c0,.02-.14.43.02.5.03.01.39,0,.52,0,.16.32-.16.07-.18.54h-.27s-.18-.49-.2-.5c-.05-.02-.27,0-.34.05,0-.02-.05.19-.05-.41,0-.18.05-.21.05-.23h.45Z"/>
          <path class="cls-47" d="M20.54,14.08s.35.12.45.14c-.07.03-.26-.05-.32.07-.05.11-.04.59.23.48-.12.05-.2.02-.27.09-.05,0-.09,0-.14,0-.18-.01-.37,0-.54,0,0,0-.08-.09-.14-.09-.09-.53.28-.2.36-.38.07-.17-.21-.34.36-.29Z"/>
          <path class="cls-48" d="M20.81,10.68s-.05,0-.05.05c-.55-.02-.35.15-.41.36-.02.06-.09.22-.09.27h-.45c-.13-1.07.22-.45.48-.63.06-.04-.03-.26.09-.32.23-.1.43.02.43.27Z"/>
          <path class="cls-32" d="M21.13,12.9c0,.21.05.43.05.66,0,.04-.09.02-.09.02-.15-.04-.31.04-.45.05-.22.01-.21-.05-.23-.05l-.05-.32c.16-.04.16-.08.18-.36h.59Z"/>
          <path class="cls-19" d="M21.22,14.03c.06.03.32-.04.36.02.2.28-.2.51-.48.38-.17.23.06.2-.2.32-.26.12-.27-.36-.23-.48.05-.12.24-.04.32-.07.22-.09.07-.17.23-.18Z"/>
          <path class="cls-47" d="M23.3,13.9c.02.18.1.21.27.18-.13.24-.5-.37-.59.54h-.59s-.03,0-.09-.11c.52-.08.16-.46.66-.43.1-.07.01-.27.34-.18Z"/>
          <path class="cls-32" d="M20.54,15.48c0-.2-.09-.42-.05-.63.04,0,.09,0,.14,0,.14,0,.27,0,.41-.02.05.08.17.88-.5.66Z"/>
          <path class="cls-8" d="M14.66,14.44c0,.15,0,.3,0,.45h-.09c-.13,0-.49.01-.52,0-.16-.07-.02-.47-.02-.5l.63.05Z"/>
          <path class="cls-6" d="M21.08,13.58c-.01.26.11.44.14.45-.16.01,0,.09-.23.18-.1-.02-.43-.13-.45-.14.15.04.08-.19.09-.45.14,0,.3-.09.45-.05Z"/>
          <path class="cls-29" d="M21.08,11.14l-.72-.05c.06-.21-.14-.38.41-.36.61.02.31.37.32.41Z"/>
          <path class="cls-23" d="M21.62,13.94c0-.18,0-.36,0-.54.6-.18.6.73,0,.54Z"/>
          <path class="cls-22" d="M18.23,16.38l-.05.41c-.14,0-.3.05-.45.05v-.45c.17,0,.33,0,.5,0Z"/>
          <path class="cls-19" d="M14.61,11.36c-.03.63-.02,1.87,0,2.53l-.54.05c0-.12,0-.24,0-.36,0-.2,0-.39,0-.59,0-.08,0-.15,0-.23.01-.48.04-.96.05-1.45l.5.05Z"/>
          <path class="cls-23" d="M14.66,14.12c0,.11,0,.21,0,.32l-.63-.05s0-.03,0-.05c.01-.32.04-.39.05-.41l.54-.05c0,.12.04.16.05.23Z"/>
          <path class="cls-23" d="M14.07,13.58c-.4-.12-.55.12-.5-.45.07,0,.03-.09.07-.09.27-.02.35.1.43-.05,0,.2,0,.39,0,.59Z"/>
          <path class="cls-52" d="M14.16,10.41c-.02.12-.04.24-.05.36,0,.17,0,.33,0,.5-.16.11-.04.4-.11.45-.06.04-.28-.05-.29-.05.02-.26-.03-.56,0-.81,0-.04.04-.05.05-.09.02-.09-.05-.31.07-.36.11-.01.23.01.34,0Z"/>
          <path class="cls-10" d="M13.71,10.87c-.03.26.02.55,0,.81-.02,0-.15.08-.45.05.02-.49-.34-1,.45-.86Z"/>
          <path class="cls-27" d="M14.66,10.82c.04.18-.04.37-.05.54l-.5-.05s0-.03,0-.05c0-.17,0-.33,0-.5.56-.05.51.05.54.05Z"/>
          <path class="cls-23" d="M17.37,8.65c-.03.2.04.3.05.32,0,.02-.12.08,0,.32-.22,0-.44,0-.66,0-.03,0-.11.17-.11.18-.48,0-.59-.11-.54.41-.33.05-.13.37-.14.59,0,.09.01.23,0,.27h-.45c.1-.72-.5-.31-.54-.32-.03,0-.24-.12-.5-.09-.09-.78.42-.05.52-.72.28.05.56-.41.77-.59.02-.02.16.02.18,0,.2-.17-.58-.46,1.43-.36Z"/>
          <path class="cls-48" d="M18.23,8.56v.41c-.21-.03-.57.03-.81,0,0-.02-.08-.11-.05-.32.01-.08-.03-.16.07-.23,1.03-.06.75.13.79.14Z"/>
          <path class="cls-19" d="M18.96,8.56c.06.12.07.49.05.59-.03.12-.03.06-.09.14-.17,0-.33,0-.5,0,.17-.27.12-.27-.18-.32v-.41c.33.08.43.01.72,0Z"/>
          <path class="cls-51" d="M18.59,5.98s.08,0,.09,0c-.02.09.03.46-.02.5-.04.03-.91-.04-.88-.25.01-.11.33-.1.41-.16,0,0,.04-.07.05-.09.11.01.26-.02.36,0Z"/>
          <path class="cls-32" d="M14.97,10.41v.32c-.46.02-.3.09-.32.09-.03,0,.02-.1-.54-.05,0-.13.02-.24.05-.36.07-.01.2-.02.25.05.09-.06.06-.13.07-.14.26-.03.47.09.5.09Z"/>
          <path class="cls-30" d="M19.72,7.11v.27s-.7.37-.59-.23c.03,0,.24-.08.59-.05Z"/>
          <path class="cls-59" d="M18.37,19.78c.02.2-.02.43,0,.63-.19,0-.41.02-.59,0l-.09-.86c.22-.02.43-.08.66-.05.05.03.02.21.02.27Z"/>
          <g>
            <path class="cls-8" d="M19.45,17.7c-.02.1,0,.43,0,.45-.01.05.03.12-.07.18-.84-.05-.57.02-.61.86-.03.48.11.58-.23.59-.06,0-.12,0-.18,0,0-.06.02-.24-.02-.27-.22-.03-.44.02-.66.05-.01,0-.2.09-.23.09-.42-.06.06-.37-.36-.45-.02-.15.03-.76,0-.79-.03-.05-.45-.02-.54-.02-.03,0-.06,0-.09,0v-.59s-.02-.04.05-.05c.98-.12,1.98.05,2.94-.05Z"/>
            <path class="cls-26" d="M17.1,19.19c-.1-.02-.5.03-.54-.02-.03-.04.02-.64,0-.79.09,0,.51-.02.54.02.03.04-.02.64,0,.79Z"/>
          </g>
          <path class="cls-41" d="M17.78,20.41c-.11-.01-.24.04-.32-.07v-.7s.21-.09.23-.09l.09.86Z"/>
          <path class="cls-28" d="M18.55,19.78l.09.63s-.03,0-.05,0c-.08,0-.15,0-.23,0-.02-.2.02-.44,0-.63.06,0,.12,0,.18,0Z"/>
          <path class="cls-12" d="M19.14,10.68s.13.09.14.09c0,.35,0,.69,0,1.04,0,.19.04.41.05.59,0,.92-.17.46-.27.61-.03.04.06.28-.07.34-.31.13-.29-.31-.34.45,0,.06-.07.17,0,.36-.49-.01-1.28-.03-1.74,0-.04,0-.02.09-.02.09-.03,0-.09-.16-.2-.09-.04.02.17.18-.25.14-.02-.11-.03-.21-.05-.32-.01-.08.03-.33-.02-.36-.14-.01-.29.02-.43,0-.13-.02-.28.05-.36-.07.03-.26-.04-.37-.05-.38-.02-.2,0-.5,0-.72,1.25.1.73-.23.93-.32.53-.23.55.34.59.36.51.22.47-.3.5-.32.19-.14.51.55.43-1.43.24,0,.49-.06.72-.07.15,0,.29,0,.45,0Z"/>
          <path class="cls-51" d="M20.27,11.36c-.02.67.17.38.23.48.03.05.05,1,.05,1.06-.02.29-.03.32-.18.36-.1.02-.44-.03-.48,0-.13.09.2.33-.29.36-.02,0-.02-.08-.34-.05-.07.03.02.29-.61.23.04-.76.03-.32.34-.45.12-.06.04-.3.07-.34.1-.15.27.31.27-.61.1-.02.55.03.59-.02.02-.02,0-.52,0-.61,0-.11,0-.23,0-.34-.03-.04-.08,0-.09-.07h.45Z"/>
          <path class="cls-22" d="M19.5,10.01c-.03-.35-.14-.12-.36-.14-.39-.02-.17-.14-.23-.18.13-.03.14-.44,0-.41.06-.08.06-.02.09-.14.78-.12.37.37.57.45.07.03.34-.04.38.02.05.07.09.63-.45.38Z"/>
          <path class="cls-6" d="M19.5,10.01c.01.11-.04.14-.05.23-.42-.08-.31.11-.32.45-.16,0-.31,0-.45,0,.01-.27-.06-.49.09-.45.06,0,.29.02.32-.02,0-.01-.02-.19.05-.34.22.01.33-.21.36.14Z"/>
          <path class="cls-32" d="M19.91,11.77c0,.09.02.59,0,.61-.04.06-.48,0-.59.02,0-.18-.04-.4-.05-.59l.63-.05Z"/>
          <path class="cls-48" d="M19.45,10.23c.26.05.39.49-.18.54,0,0-.13-.09-.14-.09,0-.34-.1-.54.32-.45Z"/>
          <path class="cls-19" d="M16.47,15.43c.17-.04.04.26.11.32.09.06.5-.04.61-.05.64,0,1.26.03,1.9.05.09,0,.18,0,.27,0,.06.85.01.61-1.13.63-.17,0-.33,0-.5,0-.52,0-1.04,0-1.56,0l-.07-.95s.04-.04.05-.05c.1.06.21.05.32.05Z"/>
          <path class="cls-29" d="M19.95,14.85c-.21,0,.03.46-.18.45-.36-.12-.34.13-.32.41-.04,0-.05.05-.09.05-.09,0-.18,0-.27,0,0-.13,0-.27,0-.41,0-.21-.04-.42.07-.5.82.05.62-.09.66-.09.06,0,.13.09.14.09Z"/>
          <path class="cls-48" d="M19.77,15.3c.23.08.11.29.14.5-.63,0-.43-.09-.45-.09-.02-.28-.04-.53.32-.41Z"/>
          <path class="cls-47" d="M14.97,10.73c.18,0,.36,0,.54,0h.45c-.11.39-.49-.29-.57.68-.55-.23-.39.69-.38,1.76,0,.42.05.52.05.54,0,.02-.08.11-.05.36-.13-.01-.24,0-.36.05,0-.07-.04-.1-.05-.23-.02-.66-.03-1.9,0-2.53,0-.17.09-.36.05-.54.02,0-.14-.08.32-.09Z"/>
          <path class="cls-22" d="M15.52,13.17s.08.13.05.38c.08.12.23.05.36.07-.04.42.04.49.45.36.02.11.03.21.05.32.05.33,0,.45,0,.48,0,.01.11.1.14.23,0,.03-.1,0-.09.07-.1-.01-.23.02-.32,0,0,0-.12-.09-.14-.09.13.07.1-.41.09-.43-.04-.06-.3,0-.34-.02-.12-.09.27-.47-.57-.36,0-.02,0-.03,0-.05,0-.15.2-.46-.14-.41,0-.03-.04-.12-.05-.54h.5Z"/>
          <path class="cls-49" d="M16.01,14.98c-.06-.02-.23.03-.27-.02-.02-.02.03-.38-.07-.43-.23-.12-.45.29-.48-.36.84-.11.44.27.57.36.04.03.3-.04.34.02.01.02.04.5-.09.43Z"/>
          <path class="cls-39" d="M16.47,15.07s.13-.1.09.32c-.12,0-.09.04-.09.05-.11,0-.22.02-.32-.05.02-.04-.01-.21,0-.32.09.02.22-.01.32,0Z"/>
          <path class="cls-20" d="M15.2,14.12c-.11.02-.14-.04-.18-.05-.03-.25.05-.34.05-.36.33-.05.13.25.14.41Z"/>
          <path class="cls-19" d="M20.63,13.63c-.01.27.06.49-.09.45-.57-.04-.29.13-.36.29-.08.18-.45-.14-.36.38-.04,0,.16.14-.66.09-.11.07-.07.29-.07.5-.12.2-.62.05-.81.05v-.72c1.27-.02.68-.07.88-.27.04-.04.31-.03.34-.05.14-.06.09-.11.09-.41v-.05c.84.08.29-.21.81-.32.01,0,0,.06.23.05Z"/>
          <path class="cls-12" d="M20.36,13.26l.05.32c-.53.1.02.39-.81.32v-.27c.49-.03.17-.27.29-.36.04-.03.38.02.48,0Z"/>
          <path class="cls-10" d="M16.51,10.46s.09.14.09.18c-.02.85-.17.37-.48.5-.15.06.01.32-.14.41-.04.02-.2-.02-.23,0-.09.06.01.14-.29.25-.04.34.04.6.05.66,0,.22-.02.52,0,.72h-.5c0-1.07-.16-2,.38-1.76.08-.97.46-.29.57-.68.01-.05,0-.18,0-.27h.54Z"/>
          <path class="cls-48" d="M16.65,9.46s.05.48.07.5c.31.22.37-.3.41-.32.08-.04,1.71,0,1.79.05.06.04-.16.16.23.18-.06.15-.04.33-.05.34-.03.04-.25.02-.32.02-.3,0-1.44-.14-1.65-.05-.22.1.23.57-.52.45,0-.05-.09-.17-.09-.18-.01-.18.28-.68-.41-.59-.04-.52.06-.4.54-.41Z"/>
          <path class="cls-29" d="M17.42,9.28c.33-.01.67.02,1,0,.17,0,.33,0,.5,0,.14-.04.13.38,0,.41-.07-.05-1.71-.08-1.79-.05-.04.02-.09.54-.41.32-.02-.01-.07-.47-.07-.5,0-.01.09-.17.11-.18.22,0,.44,0,.66,0Z"/>
          <path class="cls-47" d="M16.51,10.46h-.54c0-.22-.2-.54.14-.59.69-.09.4.41.41.59Z"/>
          <path class="cls-22" d="M18.23,8.97c.3.05.35.05.18.32-.33.02-.66-.01-1,0-.12-.23,0-.3,0-.32.24.03.61-.03.81,0Z"/>
          <path class="cls-10" d="M15.52,10.73c-.18,0-.36,0-.54,0v-.32s.64-.4.54.32Z"/>
          <path class="cls-26" d="M18.64,14.17c.15,0,.3-.01.45,0,.1,0,.51.07.41.18-.03.01-.3,0-.34.05-.2.2.39.25-.88.27-.21,0-.42,0-.63,0-.73-.03-.84.12-.77-.41,0,0-.01-.09.02-.09.47-.03,1.25-.01,1.74,0Z"/>
          <path class="cls-22" d="M16.87,14.26c-.07.53.04.37.77.41v.72c-.15,0-.32.05-.45.05-.2,0-.42-.06-.63-.05.04-.41-.09-.3-.09-.32-.01-.06.1-.04.09-.07-.02-.13-.13-.21-.14-.23,0-.02.05-.15,0-.48.42.04.21-.11.25-.14.12-.07.17.09.2.09Z"/>
          <path class="cls-12" d="M19.59,13.63v.32c-.22-.09-.58-.07-.5.23-.15-.01-.3,0-.45,0-.07-.19,0-.3,0-.36.63.06.54-.2.61-.23.32-.03.32.05.34.05Z"/>
          <path class="cls-8" d="M16.38,13.99c-.42.13-.49.06-.45-.36.14.02.29-.01.43,0,.05.04,0,.28.02.36Z"/>
          <path class="cls-39" d="M19.09,15.75c-.64-.02-1.26-.05-1.9-.05v-.27c.13,0,.3-.05.45-.05.21,0,.43,0,.63,0,.2,0,.69.16.81-.05,0,.13,0,.27,0,.41Z"/>
          <path class="cls-32" d="M16.56,15.39c.22-.01.43.04.63.05v.27c-.11,0-.52.11-.61.05-.08-.05.06-.35-.11-.32,0,0-.03-.04.09-.05Z"/>
          <path class="cls-32" d="M18.28,14.67v.72c-.21,0-.42,0-.63,0v-.72c.21,0,.42,0,.63,0Z"/>
          <path class="cls-26" d="M19.59,13.94c0,.29.05.35-.09.41.1-.11-.3-.17-.41-.18-.09-.3.28-.31.5-.23Z"/>
          <g>
            <path class="cls-22" d="M18.77,10.23c-.15-.04-.08.19-.09.45-.23,0-.49.07-.72.07.08,1.97-.23,1.29-.43,1.43-.03.02.01.54-.5.32-.04-.02-.06-.6-.59-.36-.2.09.33.42-.93.32,0-.06-.08-.31-.05-.66.31-.11.2-.19.29-.25.03-.02.19.02.23,0,.15-.08-.01-.34.14-.41.3-.13.45.35.48-.5.76.12.3-.36.52-.45.21-.09,1.35.05,1.65.05Z"/>
            <path class="cls-12" d="M16.85,11c.63-.24.46.91.41.95-.38.27-.27-.47-.52-.43.15-.26.01-.48.11-.52Z"/>
          </g>
        </g>
      </g>
    </g>
  </g>
</svg>