<?xml version="1.0" encoding="UTF-8"?>
<svg id="Layer_2" data-name="Layer 2" xmlns="http://www.w3.org/2000/svg" viewBox="0 0 28.72 30.85">
  <defs>
    <style>
      .cls-1 {
        fill: #f2f2f2;
      }

      .cls-2 {
        fill: #1f201e;
      }
    </style>
  </defs>
  <g id="Layer_1-2" data-name="Layer 1">
    <g id="Generative_Object" data-name="Generative Object">
      <g>
        <path class="cls-2" d="M23.05,4.36s.01.03.06.06c.35.19,2.02-.04,2.16.06.11.08-.08.97.12,1.06.28.13,1.85-.13,2.13,0,.2.09,0,.98.12,1.06s1-.12,1.09.09v17.49c-.07.1-1.01-.03-1.09.03-.11.08.08,1.03-.12,1.12-.28.12-1.72-.09-2.13,0-.07,1.81-.44.74-1.18,1.06-.22.1.04,1.03-.18,1.12-.37.16-2.45-.14-3.04,0-.03,0,.01-.01-.06,0-.07.01-.21-.03-.24.03-.04.19.09.96-.09,1.03-.24.11-2.06-.09-2.19,0-.09.07.03,1-.06,1.06-.1.07-2.14-.07-2.25,0-.09.07.04,1.06-.06,1.12-.13.1-3.17.1-3.31,0-.11-.08.08-1.03-.12-1.12-.24-.11-2.06.09-2.19,0-.09-.07.03-1-.06-1.06-.1-.07-2.14.07-2.25,0s.07-.85-.09-1-2.93,0-3.37-.06c.01-.07-.06-.06-.06-.06-.08-.18.1-.84-.06-1-.15-.15-1.07,0-1.12-.06-.04-.04.06-1-.03-1.06-.1-.07-2.08.07-2.19,0-.27-.19.61-1.52-1.21-1.12V6.67c.07.01.06-.06.06-.06.14-.06,1.01.06,1.09,0,.09-.07-.03-1,.06-1.06.14-.1,1.85.12,2.16-.06.07,0,.05-.04.06-.06.06-.1,0-.03,0-.06.04-.16-.05-.75,0-.83.11-.18,1.99.05,2.28-.06.05-.02.02-.1.03-.12.14-.23-.01-.93.09-1,.13-.09,1.95.11,2.19,0,.2-.09,0-.98.12-1.06.13-.09,1.95.11,2.19,0,.2-.09,0-1.04.12-1.12.13-.09,1.95.11,2.19,0,.22-.1-.04-1.03.18-1.12.15-.06,3.05-.06,3.19,0,.22.1-.04,1.03.18,1.12.24.11,2.06-.09,2.19,0,.11.08-.08,1.03.12,1.12.24.11,2.06-.09,2.19,0,.09.07-.03,1,.06,1.06.1.07,2.14-.07,2.25,0,.09.06-.04.76.09,1Z"/>
        <g>
          <path class="cls-1" d="M18.38,3.36s.06.06.06.06c.06.14-.07.99.03,1.06s2.08-.07,2.19,0c.11.08-.07.85.09,1,.2.2,3.25-.06,3.37.06.06.06-.09.86.06,1,.15.15,1.91,0,2.25.06l-.03,1c-.13.09-1.9-.11-2.19,0-.05.02-.02.1-.03.12-.14.23.01.93-.09,1s-2.08-.07-2.19,0c-.11.08.08,1.03-.12,1.12-.34.15-3.13-.13-3.31,0-.11.08.08.97-.12,1.06-.29.13-1.9-.13-2.19,0-.22.1.04,1.03-.18,1.12-.15.06-3.05.06-3.19,0-.2-.09,0-1.04-.12-1.12-.13-.09-2,.11-2.25,0-.2-.09,0-.98-.12-1.06-.13-.09-1.95.11-2.19,0-.2-.09,0-1.04-.12-1.12-.14-.1-3.23.1-3.37,0-.11-.08.08-1.03-.12-1.12-.24-.11-2.06.09-2.19,0-.03-.17-.1-.93.06-1,.24-.11,2.06.09,2.19,0,.11-.08-.08-.97.12-1.06.34-.15,3.13.13,3.31,0,.11-.08-.08-.97.12-1.06.28-.13,1.84.13,2.13,0,.22-.1-.04-1.03.18-1.12.15-.06,1.02.07,1.09-.03.06-.08-.07-.97.03-1.03.13-.09,1.95.11,2.19,0,.2-.09,0-1.04.12-1.12,1.37-.09.97-.01,1.18,1.12.29.05,2.09-.07,2.19,0s-.03,1,.06,1.06c.08.06.95-.06,1.09,0Z"/>
          <path class="cls-2" d="M15.9,8.79c-.94-.06-1.97.08-2.9,0,0,0-.05-.16-.12,0h-.12v-3.19l3.25.03-.12,3.16Z"/>
        </g>
        <g>
          <path class="cls-1" d="M3.43,9.8s-.03.1.03.12c.33.13,2.04-.12,2.28,0v.06c-.09.22-.11.75,0,.95,0,.02,0,.07.06.06h2.13s.04,0,.06,0c0,0,0,.07.06.06.03.16-.05,1.01.03,1.06.1.07,2.14-.07,2.25,0,.09.07-.03,1,.06,1.06.13.09,1.95-.11,2.19,0,.22.1-.04,1.03.18,1.12.14.06.96-.07,1.03.03v14.18c-.28,0-2.13.09-2.22.03s.03-1-.06-1.06c-.1-.07-2.14.07-2.25,0-.09-.07.03-1-.06-1.06-.14-.1-2.2.11-2.33-.06,0,0,0-.04,0-.06.16-.08.02-.28,0-.35-.02-.19.04-.4-.03-.59-.13-.09-1.89.1-2.13,0-.22-.1.04-1.03-.18-1.12-.24-.11-2.06.09-2.19,0-.27-.19.6-1.47-1.15-1.15v-14.18c.04-.1,2.07-.15,2.16-.09.1.07-.05.78.09,1Z"/>
          <polygon class="cls-2" points="8.98 17.78 8.98 20.91 5.67 20.88 5.76 17.72 8.98 17.78"/>
        </g>
        <g>
          <path class="cls-1" d="M26.53,23.15s-.03.01-.06.06c-.13.24,0,.94-.09,1-.14.1-1.81-.13-2.16.06-.05.02-.03.01-.06.06-.13.23-.02.96-.06,1-.08.08-2.1-.08-2.22,0s.08.97-.12,1.06c-.24.11-2.06-.09-2.19,0-.11.08.08.97-.12,1.06-.24.11-2.06-.09-2.19,0-.09.07.03,1-.06,1.06-.1.07-1.98-.05-2.28,0v-14.15c.09-.2.92-.01,1.09-.09.22-.1-.04-1.03.18-1.12.24-.11,2.06.09,2.19,0,.09-.07-.03-1,.06-1.06.1-.07,2.14.07,2.25,0,.09-.07-.03-1,.06-1.06.14-.1,2.04.12,2.22-.06.15-.15,0-1.01.06-1.06.08-.08,1.99.1,2.22,0s-.04-1.03.18-1.12c.1-.04,2.11-.02,2.16.09v14.18c-.07.09-.82-.04-1.06.09Z"/>
          <polygon class="cls-2" points="26.36 12.16 26.36 15.24 23.05 15.29 22.99 15.24 23.08 12.1 26.36 12.16"/>
          <path class="cls-2" d="M19.68,15.53c.08,0,.17,0,.24,0,.23,0,.47,0,.71,0l.06,3.13-3.28.06.03-3.19c.75.02,1.5-.03,2.25,0Z"/>
          <polygon class="cls-2" points="23.08 18.84 26.27 18.84 26.3 21.94 23.02 21.97 23.08 18.84"/>
          <polygon class="cls-2" points="17.4 22.15 20.65 22.15 20.68 25.25 17.4 25.28 17.4 22.15"/>
        </g>
      </g>
    </g>
  </g>
</svg>