<?xml version="1.0" encoding="UTF-8"?>
<svg id="Layer_2" data-name="Layer 2" xmlns="http://www.w3.org/2000/svg" viewBox="0 0 31.94 41.14">
  <defs>
    <style>
      .cls-1 {
        fill: #a6aaad;
      }

      .cls-2 {
        fill: #a6b6ca;
      }

      .cls-3 {
        fill: #d3d9e0;
      }

      .cls-4 {
        fill: #47769b;
      }

      .cls-5 {
        fill: #a2a6a8;
      }

      .cls-6 {
        stroke: #32607d;
      }

      .cls-6, .cls-7, .cls-8, .cls-9, .cls-10, .cls-11 {
        fill: none;
        stroke-linejoin: round;
      }

      .cls-6, .cls-7, .cls-9, .cls-10, .cls-11 {
        stroke-linecap: square;
      }

      .cls-6, .cls-8, .cls-9 {
        stroke-width: .47px;
      }

      .cls-12 {
        fill: #e1ecf7;
      }

      .cls-13 {
        fill: #47718b;
      }

      .cls-14 {
        fill: #396380;
      }

      .cls-15 {
        fill: #e3ecf4;
      }

      .cls-16 {
        fill: #c4c8cb;
      }

      .cls-17 {
        fill: #527b93;
      }

      .cls-18 {
        fill: #6fa8b7;
      }

      .cls-19 {
        fill: #2b5976;
      }

      .cls-20 {
        fill: #4c738c;
      }

      .cls-21 {
        fill: #2e5b78;
      }

      .cls-22 {
        fill: #939596;
      }

      .cls-23 {
        fill: #295b78;
      }

      .cls-24 {
        fill: #a6b0bb;
      }

      .cls-25 {
        fill: #8ed0db;
      }

      .cls-26 {
        fill: #325e7a;
      }

      .cls-27 {
        fill: #45779d;
      }

      .cls-28 {
        fill: #4f7d98;
      }

      .cls-29 {
        fill: #a8b0ba;
      }

      .cls-30 {
        fill: #bfc2c3;
      }

      .cls-31 {
        fill: #3f6a83;
      }

      .cls-32 {
        fill: #a7aeb4;
      }

      .cls-33 {
        fill: #35617d;
      }

      .cls-34 {
        fill: #5797a7;
      }

      .cls-35 {
        fill: #39647f;
      }

      .cls-7, .cls-9 {
        stroke: #a4afbd;
      }

      .cls-7, .cls-10, .cls-11 {
        stroke-width: .42px;
      }

      .cls-36 {
        fill: #32617f;
      }

      .cls-37 {
        fill: #2d5d7b;
      }

      .cls-38 {
        fill: #cdd1d4;
      }

      .cls-39 {
        fill: #a4acb3;
      }

      .cls-40 {
        fill: #b6b9ba;
      }

      .cls-41 {
        fill: #537c94;
      }

      .cls-42 {
        fill: #8fd3dd;
      }

      .cls-8 {
        stroke: #35627f;
        stroke-linecap: round;
      }

      .cls-43 {
        fill: #b0eef2;
      }

      .cls-44 {
        fill: #b0ffff;
      }

      .cls-45 {
        fill: #2a5c79;
      }

      .cls-46 {
        fill: #b5ffff;
      }

      .cls-47 {
        fill: #2c5d7a;
      }

      .cls-48 {
        fill: #ced0d3;
      }

      .cls-49 {
        fill: #cbcfd2;
      }

      .cls-50 {
        fill: #2a5b79;
      }

      .cls-51 {
        fill: #c9cbcd;
      }

      .cls-52 {
        fill: #bcbec0;
      }

      .cls-53 {
        fill: #cfd3d7;
      }

      .cls-54 {
        fill: #5886a0;
      }

      .cls-55 {
        fill: #5c8aa7;
      }

      .cls-56 {
        fill: #b7babb;
      }

      .cls-57 {
        fill: #a4afbc;
      }

      .cls-58 {
        fill: #32607d;
      }

      .cls-59 {
        fill: #929495;
      }

      .cls-60 {
        fill: #b6ccdc;
      }

      .cls-61 {
        fill: #8dcdd9;
      }

      .cls-62 {
        fill: #979b9d;
      }

      .cls-63 {
        fill: #34627e;
      }

      .cls-64 {
        fill: #31617d;
      }

      .cls-65 {
        fill: #2995b7;
      }

      .cls-66 {
        fill: #eaecee;
      }

      .cls-10 {
        stroke: #babcbe;
      }

      .cls-67 {
        fill: #baccd9;
      }

      .cls-68 {
        fill: #8dcfda;
      }

      .cls-69 {
        fill: #2c5a77;
      }

      .cls-70 {
        fill: #31607e;
      }

      .cls-71 {
        fill: #2f5c79;
      }

      .cls-72 {
        fill: #c2c4c6;
      }

      .cls-73 {
        fill: #c1c3c5;
      }

      .cls-74 {
        fill: #5a8aa8;
      }

      .cls-75 {
        fill: #2f5b79;
      }

      .cls-76 {
        fill: #46769b;
      }

      .cls-77 {
        fill: #567f97;
      }

      .cls-78 {
        fill: #46718b;
      }

      .cls-79 {
        fill: #285a77;
      }

      .cls-80 {
        fill: #35627f;
      }

      .cls-81 {
        fill: #8ed1db;
      }

      .cls-82 {
        fill: #517993;
      }

      .cls-83 {
        fill: #c7cfd7;
      }

      .cls-84 {
        fill: #969899;
      }

      .cls-85 {
        fill: #abffff;
      }

      .cls-86 {
        fill: #295a78;
      }

      .cls-87 {
        fill: #bdbfc0;
      }

      .cls-88 {
        fill: #fefefe;
      }

      .cls-89 {
        fill: #366480;
      }

      .cls-90 {
        fill: #e8ecf0;
      }

      .cls-91 {
        fill: #949697;
      }

      .cls-92 {
        fill: #86dfe5;
      }

      .cls-93 {
        fill: #e0eef8;
      }

      .cls-94 {
        fill: #335f7b;
      }

      .cls-95 {
        fill: #5393a3;
      }

      .cls-96 {
        fill: #305d7a;
      }

      .cls-11 {
        stroke: #2d5c79;
      }

      .cls-97 {
        fill: #619cac;
      }

      .cls-98 {
        fill: #abb6c7;
      }

      .cls-99 {
        fill: #e7edf2;
      }
    </style>
  </defs>
  <g id="Layer_1-2" data-name="Layer 1">
    <g id="Generative_Object" data-name="Generative Object">
      <g>
        <rect class="cls-88" width="31.94" height="41.14"/>
        <path class="cls-97" d="M3.4,21.64v1.41s.95.03.95.03c0,.23.04.46.02.69l-.64.02c-.02.23-.01.44,0,.67.24.01.45,0,.66-.01.02,0,.06.01.05.04-.02,0-.04,0-.04.04v1.36s.67,0,.67,0v-.63s.04-.04.05-.04c.2-.04.4-.01.63-.02l.02.7s-.02,0-.02,0h-.64c-.03.24-.01.45,0,.68.24,0,.45.03.65-.02.14.11.24.26.38.43-.11.15-.21.23-.35.32v.7s.74,0,.74,0c.13-.15.25-.27.38-.38,0,.01.03.04.06.04h3.94c.06.07.01.17.02.25,0,.04.02.08.02.13l.02.84c0,.17-.03.23-.18.34-.06.05-.08.2-.19.2-.22-.05-.45,0-.67,0s-.45-.03-.69,0l-.02.69-.67.02v.69s-.67.02-.67.02c-.05.22-.02.45-.01.69l.67.02.03.7h.66s.02.69.02.69h-.68c-.44,0-.89-.02-1.36,0l-.02.69-.68.02v.69s.67.02.67.02v.69s-.68,0-.68,0v.71c.23-.03.47.02.7.01-.02.47,0,.94,0,1.4-.22.02-.44-.05-.69,0v.68s.06.03.05.04c-.02,0-.04.02-.05.02-.21.01-.43-.03-.68,0-.02.22-.01.42,0,.62.05,0,.07.03.05.04l-.08.03h-2.01s-.03-.02-.03-.04c.02-.22.01-.44,0-.68-.24.02-.47-.05-.67.03-.02,0-.03-.04-.06-.04-.05-.23,0-.46-.03-.71-.22-.02-.43-.04-.63,0h-.05s.02-.69.02-.69l.77-.03v-11.98c-.25-.04-.5-.02-.78,0v2.88c-.22-.03-.45-.02-.67,0v-5.73s.74-.03.74-.03c.35-.01.7.06,1.05.03Z"/>
        <path class="cls-46" d="M18.05,15.05h2.31s.04,0,.04,0c0,.09-.01.18,0,.28l.05.76s0,.03,0,.04c0,.09.05.21-.06.24-.18.05-.38.06-.56.13-.08.19-.07.39-.17.56-.04.06-.18.03-.24.03h-5.82c-.03-.14-.18-.23-.28-.35l-.74-.03v-.65s-1,0-1,0l-.03-.59c0-.14.01-.27,0-.41h2.42s4.08,0,4.08,0Z"/>
        <path class="cls-91" d="M15.99,11.96l.68-.02h.68s.02.68.02.68c.22.04.44,0,.67.01v2.41s-4.09,0-4.09,0c0-.33-.07-.67-.01-1l.72-.02,2.67.02v-.7s-2.03,0-2.03,0v-.69s-.72-.02-.72-.02c.05-.21,0-.42.03-.67h.69s.67,0,.67,0Z"/>
        <path class="cls-81" d="M11.76,26.97h-.04c0,.2-.29.45-.33.68h-4.46s-.06-.03-.06-.04c-.05-.15-.11-.46-.15-.63l.42-.4h2.71s0-.68,0-.68h.66s.02.66.02.66l.72.03.4.36h.07s.04,0,.04,0Z"/>
        <path class="cls-61" d="M24.92,26.6c-.07.21-.02.43-.03.65-.04,0-.05.06,0,.04-.11.16-.26.14-.32.37h-3.99c-.02-.32-.25-.33-.29-.65h-.04s.04,0,.04,0h.07c.13-.15.25-.28.43-.42h4.13Z"/>
        <path class="cls-74" d="M11.54,15.05c0,.14-.02.27,0,.41l.03.59h-4.41s0-.02-.02-.05l-.05-.63c.2-.07.21-.16.39-.35l4.06.02Z"/>
        <path class="cls-74" d="M24.89,15.39l-.03.68h-4.1c-.12-.01-.22,0-.32.01,0,.01,0,.03,0,.04,0-.01,0-.03,0-.04l-.05-.76c0-.09,0-.18,0-.28h-.04s.04,0,.04,0l4.2.02.29.32Z"/>
        <path class="cls-64" d="M28.98,19.52l-.02,3.54h.69c.02.25,0,.47,0,.72l-.66.02c-.16,0-.34-.04-.5,0l-.21-.03v-4.21s0-1.36,0-1.36c0-.03.06-.03.06-.04.2-.03.34-.01.62-.01-.07.47.02.94.02,1.38Z"/>
        <path class="cls-55" d="M6.44,16.75c-.06.21,0,.44-.03.67l-.66.02v.68s-.69.02-.69.02v.68s-.69.02-.69.02v.72c-.33-.04-.64.01-.96.02v-.07s0-1.09,0-1.09c.09-.1.3-.17.3-.32.21.03.42,0,.65.01-.01-.24.04-.46-.02-.67.02-.02.02-.09.06-.07.19.09.42.04.64.04-.01-.26.03-.47-.02-.69,0-.02.03-.02.05-.03.03-.01.03,0,.05.03.45,0,.89,0,1.31.04Z"/>
        <path class="cls-77" d="M26.94,16.58s0,.07,0,.09c-.03.05.01.03.04.08-.01.02-.06.01-.06.04v.61c.07.02.69.05.66-.02.02.03.07.02.08.06,0,.01-.06.01-.06.04v.65c.25.04.48,0,.71,0,.02,0,.05,0,.04.02,0,.02-.06,0-.06.04v1.36c-.21-.04-.42-.03-.62,0,0-.02,0-.03-.06-.04.03-.23-.01-.47-.02-.68s.07-.46,0-.69c-.23-.04-.45.02-.63.01-.21,0-.43-.04-.67-.03l-.03-.7h-.67c0-.25-.02-.46,0-.67.41.02.86-.03,1.29-.03.02-.03,0-.1,0-.13,0-.02.04-.03.07-.02Z"/>
        <path class="cls-4" d="M2.28,30.21v4.2c-.22.07-.45-.01-.67.03v-4.24c.22-.03.45-.02.67,0Z"/>
        <path class="cls-82" d="M9.89,29.41v1.36s.05.02.04.04c-.01,0-.03.01-.04.01-.21-.02-.42-.02-.67,0l-.02,1.42h-.66s-.03-.71-.03-.71l-.67-.02c0-.24-.03-.47.01-.69l.66-.02v-.69s.68-.02.68-.02l.02-.69c.24-.04.47,0,.69,0Z"/>
        <polygon class="cls-27" points="30.35 27.98 30.35 31.57 29.68 31.54 29.68 28 30.35 27.98"/>
        <path class="cls-78" d="M3.41,19.5v.07s-.01,2.07-.01,2.07c-.35.03-.71-.04-1.05-.03v-2.05c.26-.05.47-.04.68-.04h.38Z"/>
        <path class="cls-49" d="M22.87,4.06c-.02-.09-.61.03-.71-.04V1.86c.24,0,.48-.02.72,0,.03,0,.21.32.29.26v1.65c-.1.04-.28.16-.3.29Z"/>
        <path class="cls-14" d="M7.09,15.38l.05.63s.05.02.02.05l-.07.66c-.21,0-.44.04-.65.03-.42-.03-.86-.03-1.31-.04-.02-.02-.03-.04-.05-.03v-.65s1.34,0,1.34,0l.02-.64c.22-.01.45-.02.65,0Z"/>
        <path class="cls-63" d="M26.94,16.58s-.07,0-.07.02c0,.03.02.1,0,.13-.43,0-.88.05-1.29.03l-.69-.03c.01-.22-.03-.45-.02-.66l.03-.68h.67s.02.65.02.65h1.31s.05.54.05.54Z"/>
        <path class="cls-38" d="M16.04,9.64s-.04.03-.05.07v2.25s-.67-.02-.67-.02v-2.31s.66-.02.66-.02c.01,0,.03,0,.04.01,0,0,.03,0,.03.02Z"/>
        <path class="cls-87" d="M16.66,9.63l.02,2.31-.68.02v-2.25s.04-.05.05-.07h.62Z"/>
        <path class="cls-40" d="M22.87,4.06c-.06.44,0,.89-.03,1.37l-.68.02c-.22,0-.46-.05-.69.01-.01,0-.02,0-.03-.01.07-.22,0-.46.03-.72l.67-.02v-.7c.11.06.7-.05.72.04Z"/>
        <path class="cls-65" d="M2.28,28.01v2.2c-.22-.02-.45-.03-.66,0,0-.73-.06-1.47,0-2.2.22-.02.45,0,.67,0Z"/>
        <path class="cls-79" d="M22.77,32.9l-.66-.02v-2.06s.71.01.71.01v1.99s-.03.06-.05.08Z"/>
        <path class="cls-40" d="M18.82,6.79s0,.04,0,.05-.07,0-.09.02v.66c-.22,0-.44,0-.68.02v.68s-.65,0-.65,0c0-.02-.02-.03-.06-.06.03-.22-.01-.43,0-.62l.02-.72h1.31s.1-.08.15-.04Z"/>
        <polygon class="cls-75" points="28.25 38.62 28.25 39.31 26.22 39.32 26.22 38.6 28.25 38.62"/>
        <path class="cls-23" d="M24.13,35.74h-.64s0-2.12,0-2.12c.22.01.44-.02.68,0v2.04s-.04.04-.03.07Z"/>
        <path class="cls-86" d="M8.52,33.62l-.02,2.09c-.24.02-.45,0-.66.02v-2.12c.24-.04.47.02.69,0Z"/>
        <path class="cls-75" d="M5.75,38.62v.69s-2.02,0-2.02,0c-.01-.25-.02-.48,0-.7h2.01Z"/>
        <path class="cls-21" d="M9.88,30.83l-.02,2.09-.66.02-.02-.68.02-1.42c.25-.02.46-.02.67,0Z"/>
        <path class="cls-65" d="M2.28,34.42v2.05c-.21.02-.44.01-.67,0-.05-.67,0-1.35,0-2.02.22-.04.45.04.67-.03Z"/>
        <path class="cls-23" d="M24.82,37.18c-.2-.05-.42,0-.67-.03v-1.37s.02-.04.05-.04h.63s0,1.44,0,1.44Z"/>
        <path class="cls-3" d="M14.67,14.03l-.72.02s0-.03-.02-.06v-1.35s.67-.02.67-.02c0,.02,0,.03.03.05v1.31s.08.03.05.05Z"/>
        <path class="cls-32" d="M17.36,8.26v.67s-.69.01-.69.01c-.01.24-.01.46,0,.68h-.62s-.02,0-.03-.01c-.01-.01-.02-.01-.04-.01l.02-.66.67-.02.02-.69c.21-.01.42-.01.65,0,.01.03.02.05.03.03Z"/>
        <path class="cls-75" d="M22.08,30.81l-.65-.02v-1.38c.21-.05.42,0,.68-.02l-.03,1.41Z"/>
        <path class="cls-94" d="M7.83,35.74v1.42c-.27,0-.47,0-.68.02,0-.46-.03-.93,0-1.4.23-.01.46,0,.68-.03Z"/>
        <path class="cls-75" d="M10.56,29.42v1.37s-.64.02-.64.02c0-.02,0-.03-.04-.04v-1.36c.23,0,.46-.04.68,0Z"/>
        <path class="cls-83" d="M18.73,7.53v-.66s.07,0,.08-.02.02-.04,0-.05c.04-.12.2-.15.21-.28h.37v1.01c-.24.02-.45,0-.66,0Z"/>
        <path class="cls-21" d="M25.49,37.9h-.66c0-.27-.02-.49.01-.71.21-.02.42-.01.67,0-.01.26.03.49-.02.72Z"/>
        <path class="cls-86" d="M7.16,37.18c0,.23-.04.47-.02.72-.24.01-.42-.02-.62,0,.01-.02,0-.03-.05-.04v-.68c.25-.06.48.01.69,0Z"/>
        <path class="cls-45" d="M28.3,18.13c-.23,0-.46.03-.71,0v-.65s.05-.03.06-.04c.19-.03.4-.01.61,0,.03.26-.03.48.03.71Z"/>
        <path class="cls-48" d="M17.34,7.54c0,.2.04.4,0,.62.03.03.06.04.06.06,0,.02-.03.02-.04.04-.01.02-.02,0-.03-.03-.22-.01-.44-.01-.65,0,0-.22-.03-.44,0-.7.23,0,.45-.02.66,0Z"/>
        <path class="cls-51" d="M22.16,5.45v.69c-.26.02-.48,0-.69,0-.01-.22-.02-.45,0-.67.23-.06.47,0,.69-.01Z"/>
        <path class="cls-70" d="M2.28,36.47s0,.02.01.03l-.02.68-.67-.02c-.06-.23.01-.47,0-.69.23.01.45.02.68,0Z"/>
        <path class="cls-39" d="M21.44,5.46s.01.02.03.01c-.01.22,0,.45,0,.67h-.6c-.03.06-.06.03-.07-.02-.03-.22-.02-.44,0-.68l.65.02Z"/>
        <path class="cls-19" d="M26.18,38.59h-.66c-.01-.23-.02-.44,0-.65,0,0,0-.05.04-.05h.63c0,.24.02.47,0,.7Z"/>
        <path class="cls-89" d="M2.98,37.9c-.21,0-.42.01-.67,0,0-.26-.02-.48,0-.7.2-.04.41-.02.63,0,.02.26-.02.48.03.71Z"/>
        <path class="cls-86" d="M3.7,38.59h-.67s0-.65,0-.65c.2-.08.43,0,.67-.03,0,.25.02.46,0,.68Z"/>
        <path class="cls-37" d="M9.2,32.93c0,.21-.03.42-.02.67-.25,0-.45,0-.66.02,0-.23-.04-.46,0-.69h.68Z"/>
        <path class="cls-69" d="M29.63,37.18c0,.23.02.46-.01.71h-.6c-.09-.03-.06-.54-.04-.72.23-.01.45-.03.65.01Z"/>
        <path class="cls-50" d="M23.48,33.62c-.22-.01-.42-.02-.67-.02,0-.24-.02-.45.02-.66.2-.06.42-.02.65-.01-.02.25,0,.46,0,.69Z"/>
        <path class="cls-70" d="M5.04,16.72c.05.22,0,.43.02.69-.23,0-.45.05-.64-.04-.03-.21-.02-.42,0-.65h.63Z"/>
        <path class="cls-36" d="M30.34,36.47c0,.21.02.43,0,.66h-.64c-.08-.04-.04-.47-.04-.64l.68-.02Z"/>
        <path class="cls-71" d="M6.46,37.92l-.02.66h-.61s0-.03-.05-.04c0-.2-.01-.4,0-.62.26-.03.47,0,.68,0Z"/>
        <path class="cls-76" d="M2.28,27.37v.64c-.22,0-.45-.02-.67,0,.01-.2,0-.44,0-.65.22-.01.45-.02.67,0Z"/>
        <path class="cls-69" d="M4.35,17.43c.07.21.01.44.02.67-.24,0-.44.02-.65-.01v-.67c.23-.01.44-.02.63,0Z"/>
        <path class="cls-69" d="M28.95,37.94v.64s-.65,0-.65,0c-.06-.21-.04-.43-.03-.66.27,0,.47-.02.67.02Z"/>
        <path class="cls-21" d="M27.58,17.37c.03.07-.59.05-.67.02v-.61s.05-.03.06-.04c.18-.04.37,0,.6-.01v.64Z"/>
        <path class="cls-42" d="M4.36,19.56v3.52s-.96-.03-.96-.03v-1.41s.02-2.07.02-2.07c.32,0,.63-.06.95-.02Z"/>
        <path class="cls-68" d="M28.27,19.56v4.21s-.04,0-.04.03h-.57s-.03-.02-.06-.06v-4.09c0-.05.02-.08.05-.08.2-.02.41-.04.61,0Z"/>
        <path class="cls-25" d="M24.86,16.07c0,.22.04.44.02.66h-4.09c-.19-.05-.29-.26-.41-.37.11-.03.06-.15.06-.24,0-.01,0-.03,0-.04.1,0,.2-.02.32-.02h4.1Z"/>
        <path class="cls-25" d="M11.57,16.06c0,.13-.03.25.01.38.08-.12-.36.27-.35.29h-4.14s.07-.67.07-.67h4.41Z"/>
        <path class="cls-81" d="M17.34,20.25c0,.22.04.45,0,.72h-2.72c-.03-.28,0-.49,0-.71h2.71Z"/>
        <path class="cls-71" d="M17.36,19.57l-.02.68h-2.71c0-.21-.03-.43,0-.65,0,0,.02-.05.05-.05l2.69.02Z"/>
        <path class="cls-54" d="M6.72,26.99c.04.17.11.47.15.63-.13.1-.25.23-.38.38h-.73s0-.7,0-.7c.13-.09.24-.17.35-.32-.14-.17-.25-.32-.38-.43.02-.22.02-.44,0-.66,0,0,.02,0,.02,0h.66s.03.71.03.71c0,.11-.05.24.05.32.05,0,.09-.03.16-.02.04,0,.07.04.08.1Z"/>
        <path class="cls-21" d="M27.55,24.49s.05,0,.05.03l.02,1.38-.69-.03c.02-.24-.02-.47-.02-.69s.04-.45.02-.69c.23-.01.42-.02.62,0Z"/>
        <path class="cls-28" d="M26.9,25.18c0,.21.04.45.02.69l.69.03-.02.67c-.24.04-.45,0-.66,0l-.03-.67c-.23-.01-.44,0-.65,0h-.03s.03-.68.03-.68c.21-.05.44-.02.65-.03Z"/>
        <path class="cls-96" d="M5.1,25.2s-.04.01-.04.04v.63s-.66,0-.66,0v-1.36s0-.04.03-.04c.2-.02.4-.01.62,0l.02.7s.03.01.03.02Z"/>
        <path class="cls-33" d="M25.54,26.6c-.01.2.07.44.02.67l-.67.03s-.03-.03,0-.04c0-.22-.04-.45.03-.65.21,0,.42-.03.62,0Z"/>
        <path class="cls-26" d="M28.23,23.8s.05.01.05.03v.66c-.24-.02-.47.03-.69-.03v-.61s.05-.04.06-.04h.57Z"/>
        <path class="cls-35" d="M27.58,18.83l-.65-.02c0-.23-.02-.45,0-.66.19,0,.41-.05.63-.01.08.22,0,.47,0,.69Z"/>
        <path class="cls-47" d="M4.37,23.77c-.02.22.02.45.01.68-.21.02-.42.02-.66.01,0-.22-.01-.43,0-.67l.64-.02Z"/>
        <path class="cls-96" d="M26.93,26.56c-.22,0-.44.02-.68,0-.01-.23-.01-.46,0-.68.21,0,.42,0,.65,0l.03.67Z"/>
        <g>
          <path class="cls-34" d="M30.35,27.98l-.67.03v3.54s.66.03.66.03v4.9s-.68.02-.68.02c0,.18-.04.6.04.66-.03,0-.05.02-.07.03-.2-.04-.42-.02-.65-.01-.01.18-.05.69.04.73-.01,0-.04,0-.05,0-.01,0,0,.02-.02.03-.21-.04-.41-.02-.67-.02-.01.24-.03.46.03.66,0,.02-.04.02-.05.04l-2.03-.02h-.03c.03-.24,0-.46,0-.7h-.63s-.03.04-.04.05c-.02.01-.04-.03-.04-.05.05-.23.01-.47.02-.72-.25,0-.46,0-.67,0h-.03s0-1.43,0-1.43h-.63s-.03.02-.04.04c-.03.01-.02-.03-.03-.05-.01-.02.02-.03.02-.07v-2.04c-.24-.03-.46,0-.67,0,0-.22-.02-.44,0-.69-.22,0-.44-.05-.65.01-.02,0-.03.02-.04-.02,0-.01,0,0-.02-.02.02-.02.05-.04.05-.08v-1.99s-.7-.01-.7-.01c-.02,0-.02-.01-.04-.01l.03-1.41c-.26,0-.47-.03-.67.02l-.36-.39.04-1.11v-.25s3.45,0,3.45,0c.06-.23.21-.2.32-.37l.67-.03c.05-.23-.03-.46-.02-.67l.04-.7c.24-.03.44-.01.65-.01h.03c-.01.22-.02.45,0,.68.24.02.46,0,.68,0s.42.04.66,0l.02-.67-.02-1.38s-.04-.02-.05-.03c-.01-.03.03-.04.05-.03.22.05.45,0,.69.03v-.66s-.05-.01-.06-.03c0-.03.03-.03.04-.03l.21.03v.67c.17,0,.32.02.48,0l.02-.68.66-.02c0-.24.02-.47,0-.71h-.69s.02-3.56.02-3.56c.21.04.42,0,.66,0v2.11c.24.05.45,0,.71.03v6.31Z"/>
          <path class="cls-20" d="M29.66,35.05h-2.06s.01-.71.01-.71h2.04c.03.24.01.46.01.71Z"/>
          <polygon class="cls-31" points="26.92 30.83 26.23 30.82 26.23 30.12 26.91 30.12 26.92 30.83"/>
          <path class="cls-13" d="M24.17,32.91h-.66c-.02-.23-.02-.43,0-.67.23-.01.43-.02.66,0,.02.23,0,.43,0,.66Z"/>
        </g>
        <path class="cls-17" d="M28.98,23.8l-.02.68c-.16.02-.31,0-.49,0v-.67c.17-.04.34,0,.51,0Z"/>
        <path class="cls-43" d="M2.3,36.5s-.01-.02-.01-.03v-2.05s0-4.2,0-4.2v-2.2s0-.64,0-.64v-2.88c.28-.02.53-.03.78,0v11.98s-.76.03-.76.03Z"/>
        <path class="cls-41" d="M8.52,32.94c-.04.23,0,.46,0,.69-.21.02-.44-.04-.69,0v2.12c-.22.03-.45.02-.68.03s-.47-.04-.71-.01v-.71s.69,0,.69,0v-.69s-.68-.02-.68-.02v-.69s.69-.02.69-.02l.02-.69c.47-.03.91,0,1.36,0Z"/>
        <path class="cls-96" d="M5.73,25.88c.02.22.02.44,0,.66-.2.05-.41.02-.65.02,0-.23-.02-.44,0-.68h.64Z"/>
        <path class="cls-98" d="M14.67,14.03s-.04-.03-.04-.05v-1.31s-.04-.02-.03-.05l.71.02v.69s2.04,0,2.04,0v.7s-2.67-.02-2.67-.02Z"/>
        <g>
          <path class="cls-95" d="M19.41,17.08l-.02,1.04-.66.03-.02.67-.66.02v.71s-.69.01-.69.01l-2.69-.02s-.04.05-.05.05c-.02,0-.02-.01-.03-.04h-.66s-.01-.71-.01-.71l-.66-.02v-.68s-.68-.01-.68-.01l-.02-.69h-.64c-.1-.42.15-.72-.33-.97,0-.01,0-.03,0-.04-.04-.12,0-.25-.01-.38h.99s.01.65.01.65l.74.03c.1.12.25.21.28.35h5.82Z"/>
          <path class="cls-18" d="M17.35,18.85c-.23.02-.44.02-.67,0v-.71c.24,0,.45-.03.69.01v.69Z"/>
        </g>
        <g>
          <path class="cls-85" d="M20.38,16.36c.12.11.22.32.41.36h4.09s.69.04.69.04c-.03.21-.01.42,0,.66h.67s.03.71.03.71c.24,0,.46.02.67.03-.02.21,0,.43,0,.66l.65.02c0,.22.05.45.02.68.05,0,.07.02.06.04-.03,0-.05.03-.05.08v4.09s.07.04.06.07c0,0-.05.01-.05.04v.61s-.07,0-.06.03c-.2-.02-.39-.01-.62,0,.02.24-.02.47-.02.69-.21,0-.43-.02-.65.03l-.03.68c-.21,0-.41-.01-.65.01l-.04.7c-.21-.03-.42,0-.62,0h-4.13c-.18.13-.3.26-.43.41h-.07s-.04,0-.04,0l-8.49-.04h-.04s-.07,0-.07,0l-.4-.36-.72-.03-.02-.68h-.66s0,.69,0,.69h-2.71s-.42.4-.42.4c0-.05-.04-.09-.08-.1-.06,0-.11.02-.16.02-.1-.08-.05-.2-.05-.32l-.03-.71h-.66s-.02-.71-.02-.71c-.23,0-.44-.02-.63.02,0-.01-.03,0-.03-.02l-.02-.7c-.22,0-.42-.02-.62,0,0-.03-.03-.04-.05-.04,0-.22-.03-.45-.01-.68s-.02-.47-.02-.69v-3.52s.02-.72.02-.72l.67-.02v-.68s.69-.02.69-.02v-.68s.68-.02.68-.02c.03-.23-.03-.46.03-.67.21.01.44-.03.65-.03h4.14s.43-.41.35-.28c0,.01,0,.02,0,.04.48.25.24.54.33.95h.64s.02.71.02.71h.66s.01.69.01.69l.66.02v.7s.67,0,.67,0c.01.03.02.05.03.04-.03.22,0,.44,0,.65s-.03.44,0,.71h2.72c.03-.26-.01-.49,0-.71l.02-.68h.67s.01-.73.01-.73l.66-.02.02-.67.66-.03.02-1.04c.06,0,.2.02.24-.03.09-.17.09-.37.17-.56.18-.07.38-.09.56-.13Z"/>
          <path class="cls-66" d="M9.55,19.59v.11c.37,0,.18-.21.67-.11,0,.34-.01.67.01,1.03h2.03s0,1.09,0,1.09c-.05-.01-.13.01-.2-.04h-2.15s-.36-.37-.36-.37c-.25.05-.51,0-.76.03-.06.14-.19.24-.29.34l-.17.17c-.05.05-.13.11-.08.17h-1.13s-.04.02-.04.02c-.32,0-.64.02-.98,0l.03-1.39h2.02s.01-1.06.01-1.06c.47,0,.94-.07,1.4.02Z"/>
          <path class="cls-56" d="M12.24,21.71l-.03,1.01h-1.99s-.01,2.12-.01,2.12c-.34.02-.67.02-.99.01l-.02-2.46s.05-.04.11-.04h.56c.01-.24-.02-.46.02-.69h2.15c.07.05.14.03.2.04Z"/>
          <path class="cls-62" d="M13.95,24.49c-.04.21,0,.43,0,.65-.23,0-.47-.03-.72.05.45.07.86,0,1.3.04.06,0,.09-.05.09-.08v-.66s.69,0,.69,0v1.38s-2.74,0-2.74,0v-1.39s1.38,0,1.38,0Z"/>
          <path class="cls-90" d="M9.2,22.41l.02,2.46h-1.07s-.01-2.12-.01-2.12c-.36-.02-.69-.01-1.03-.01-.01-.11.02-.25.02-.36h2.01s.04.05.07.04Z"/>
          <path class="cls-91" d="M22.15,19.55l.68-.02c.21,0,.43.05.66,0l.02-1.38h.67s0,2.07,0,2.07h-2.03c0-.25-.02-.46,0-.68Z"/>
          <path class="cls-91" d="M16.68,25.2c.23-.01.46-.02.69,0,.16.01,1.27.03,1.34,0,.02,0,.02-.04.02-.07.01-.22,0-.43,0-.65.23,0,.44-.02.67.01v1.38s-2.73,0-2.73,0c0-.25-.02-.46,0-.68Z"/>
          <path class="cls-59" d="M20.08,23.07c.03-.23.01-.47.02-.7h.67s0-.67,0-.67c0-.24,0-.48.02-.72.21,0,.42-.02.66,0v2.09s-1.36,0-1.36,0Z"/>
          <path class="cls-22" d="M22.84,25.23c0-.24,0-.47,0-.71h.67c.01-.25,0-.47,0-.68v-.63c.13-.01.05-.02.05-.08.2.01.42-.05.64,0v2.09s-1.35,0-1.35,0Z"/>
          <path class="cls-22" d="M25.58,23.07v-.7s.66,0,.66,0c.03-.25,0-.46,0-.68l.02-.71c.23,0,.44-.02.67.01v2.08s-1.34,0-1.34,0Z"/>
          <path class="cls-53" d="M9.89,21.68c-.05.22,0,.45-.02.68h-.56c-.05,0-.07.05-.11.05-.03.01-.03-.04-.07-.04h-2.01s-.02-.34-.02-.34h-.04s.04,0,.04,0h1.13c-.05-.08.02-.13.08-.19l.17-.17c.1-.1.23-.2.29-.34.25-.02.51.03.76-.03l.36.37Z"/>
          <path class="cls-44" d="M9.55,19.59c-.46-.09-.93-.03-1.4-.02v-1.06s1.38,0,1.38,0l.02,1.08Z"/>
          <path class="cls-30" d="M23.51,18.16l-.02,1.38c-.23.05-.45-.01-.66,0v-.68c-.25-.01-.47-.02-.68,0v-.7s1.36,0,1.36,0Z"/>
          <path class="cls-32" d="M18.73,24.49c0,.22.01.43,0,.65h-1.33s-.06.04-.04.06c-.23-.02-.46-.02-.69,0v-.71s2.06,0,2.06,0Z"/>
          <path class="cls-92" d="M22.14,24.49s0,.02,0,.03c0,.23,0,.45,0,.68h-.7s0-.7,0-.7c.25-.05.47-.02.7-.02Z"/>
          <path class="cls-57" d="M25.58,22.36v.7c-.25,0-.47.02-.7,0-.02-.25,0-.48,0-.7.23,0,.46,0,.69,0Z"/>
          <path class="cls-16" d="M25.57,20.97c.03.24,0,.47,0,.71l-.69-.02c0-.24-.04-.45.01-.68.25-.03.47-.01.68,0Z"/>
          <path class="cls-29" d="M20.79,20.97c-.02.24-.02.48-.02.72-.22-.03-.45-.04-.67,0-.02,0-.03.01-.04,0-.02-.02.03-.03.03-.06v-.65s.69,0,.69,0Z"/>
          <path class="cls-40" d="M22.83,24.52c0,.24,0,.47,0,.71-.23,0-.46-.02-.69-.03,0-.22,0-.45,0-.68h.69Z"/>
          <path class="cls-93" d="M22.8,23.81s.03.02.03.03v.67s-.68,0-.68,0c0-.01,0-.02,0-.03-.01-.22,0-.45,0-.67h.65Z"/>
          <path class="cls-99" d="M25.57,21.68c0,.23,0,.45,0,.68-.23,0-.46-.01-.69,0,0-.24-.03-.47,0-.7l.69.02Z"/>
          <path class="cls-16" d="M20.1,20.97v.65s-.05.04-.04.06c-.22-.01-.44-.02-.65,0v-.7c.24-.03.46,0,.69,0Z"/>
          <path class="cls-1" d="M20.1,22.36c0,.23,0,.47-.02.7-.21,0-.44.02-.67,0-.04-.25,0-.48.01-.7h.68Z"/>
          <path class="cls-15" d="M22.83,19.53l-.68.02c-.02-.23-.01-.47,0-.7.21-.02.43,0,.67,0v.68Z"/>
          <path class="cls-5" d="M23.55,23.13c0,.05.07.07-.04.08v.63c-.13-.08-.27.03-.41-.01-.1-.03-.19-.02-.27.03,0-.01-.02-.03-.03-.03.07-.22,0-.46.03-.7.24-.01.48-.01.72,0Z"/>
          <path class="cls-24" d="M26.25,20.97l-.02.71c-.22-.03-.44,0-.66,0,0-.24.03-.48,0-.71h.68Z"/>
          <path class="cls-12" d="M20.06,21.68s.02.01.04,0c-.02.22,0,.45,0,.67h-.68c0-.22-.06-.46,0-.68.22-.02.44-.01.65,0Z"/>
          <path class="cls-52" d="M22.83,23.12c-.03.23.04.47-.03.7h-.65c0-.22-.03-.46,0-.69.24-.03.47,0,.69,0Z"/>
          <path class="cls-2" d="M14.63,24.49v.66s-.68,0-.68,0c0-.22-.04-.44,0-.65.24,0,.46-.01.68,0Z"/>
          <path class="cls-60" d="M13.95,25.14h.67s-.03.09-.09.09c-.43-.03-.84.03-1.3-.04.25-.08.49-.05.72-.05Z"/>
          <path class="cls-67" d="M18.73,25.14s0,.06-.02.07c-.07.03-1.18,0-1.34,0-.02-.02,0-.05.04-.06h1.33Z"/>
          <path class="cls-72" d="M20.77,21.69v.67s-.67,0-.67,0c0-.22-.02-.45,0-.67.22-.03.45-.02.67,0Z"/>
          <path class="cls-48" d="M23.5,23.83c0,.22.01.44,0,.68h-.67s0-.66,0-.66c.08-.05.17-.06.27-.03.14.04.28-.07.4.01Z"/>
          <path class="cls-73" d="M26.23,21.68c0,.22.03.43,0,.68h-.66c0-.23,0-.45,0-.68.22,0,.44-.03.66,0Z"/>
        </g>
      </g>
      <g>
        <path class="cls-11" d="M3.42,18.41v1.09s0,.07,0,.07v2.07s-.02,1.41-.02,1.41c0,.1,0,.21-.01.35l-.79.02"/>
        <polygon class="cls-80" points="20.46 27.42 24.67 27.42 24.9 27.42 24.9 27.89 24.67 27.89 20.46 27.89 20.23 27.89 20.23 27.42 20.46 27.42 20.46 27.42"/>
        <path class="cls-80" d="M6.25,26.74s.01,0,.07-.03c.05-.03.2-.04.15-.03.02,0,.09-.04.23-.02.18.06.23.19.25.31v-.04c.02.11.09.39.11.49,0,.02.02.1.03.11-.03-.07-.04-.06-.06-.08-.03-.03-.14-.03-.04-.03,1.21,0,3.51,0,4.74,0,.3,0,.3.47,0,.47-1.11,0-3.39,0-4.48,0-.15-.01-.33.04-.47-.05-.08-.04-.14-.18-.15-.28-.03-.13-.1-.42-.14-.56.02.03,0,.09.12.12.05,0,.04,0-.01.02-.13.02-.07,0-.09.01-.11.08-.42.06-.55.06-.02,0,.23.03.23.03-.12.01-.27.05-.28-.08.05.08-.02-.38,0-.47.06.09.24.04.36.05h0Z"/>
        <polyline class="cls-8" points="20.36 27.01 20.28 27.01 20.25 27.01 11.76 26.97 11.72 26.97 11.65 26.97"/>
        <path class="cls-80" d="M11.12,27.89c.04.45.05.91.04,1.34-.09,0-.41,0-.46,0,0-.07,0-.18,0-.36-.02-.32,0-.66-.04-.96-.02-.13.07-.24.2-.26.14-.02.26.09.26.23h0Z"/>
        <path class="cls-80" d="M21.35,27.92l-.05,1.33v.23s-.47-.02-.47-.02v-.23c.02-.16.07-1.44.07-1.56,0,0,.46.02.46.02v.23h0Z"/>
        <path class="cls-80" d="M23.73,28.11l.03.77-.18-.22c.35.12,1.14.17,1.14.4,0,0,.16.65.16.65l-.22-.18c.27-.01.66,0,.97.13,0,0-.14.44-.14.44l-.22-.07c-.19-.12-.73.11-.84-.22,0,0-.16-.65-.16-.65l.17.17c-.48-.15-1.17-.16-1.15-.45,0,0-.03-.77-.03-.77v-.23s.45-.02.45-.02v.23h.01Z"/>
        <path class="cls-10" d="M8.78,21.33c.25-.02.51.03.76-.03.05-.53.02-1.07.01-1.61v-.11s-.02-1.08-.02-1.08h-1.37s-.01,1.06-.01,1.06v1.06s-2.03,0-2.03,0l-.03,1.39c.34.02.66,0,.98,0h.04s1.13-.02,1.13-.02h.04"/>
        <path class="cls-84" d="M10.42,18.67v1.94s-.2-.2-.2-.2h2.02c.11,0,.21.1.21.22,0,.7-.01,1.4-.04,2.11,0,.11-.1.2-.21.2h-1.99s.21-.2.21-.2v2.12c0,.11-.1.2-.21.21-.7.01-1.39.02-2.07,0-.11,0-.21-.09-.21-.21v-2.12s.18.21.18.21c-.06,0-2.34-.01-2.29-.01,0,0,0-.42,0-.42.04,0,2.2.01,2.32.01.11,0,.2.1.2.21,0,0,.01,2.12.01,2.12l-.21-.21c.69,0,1.37,0,2.05,0l-.2.21v-2.12c.01-.11.1-.21.22-.21h1.99s-.21.2-.21.2c.03-.7.04-1.4.04-2.1l.21.21h-2.03c-.11,0-.21-.09-.21-.2,0-.2-.01-2.16-.01-2.3.43.02.43-.14.42.34h0Z"/>
        <path class="cls-58" d="M20.62,15.31l.06.82s.1.16-.11.4c-.24.14-.44.08-.66.18,0,0,.13-.13.13-.13-.06.12-.05.35-.18.6-.21.21-.33.12-.39.14-.11,0-.44,0-.56,0-1.39,0-3.96,0-5.37,0,0,0-.23,0-.23,0v-.47c1.15,0,3.72,0,4.84,0,.37,0,1,0,1.36,0,.05.03.12-.05-.02.06l-.02.03c.06-.1.06-.3.16-.54.1-.2.42-.19.57-.24,0,0,.09-.02.09-.02.03,0,.07-.03,0,.01-.1.14-.03.1-.06,0-.01-.17-.06-.91-.07-1.06,0,0,.46-.03.46-.03l.02.23h0Z"/>
        <path class="cls-58" d="M11.77,15.45c.01.16.04.77.03.89.03.12.03.42.04.57,0,0-.46.02-.46.02,0-.09-.01-.29-.02-.39-.01-.1.02.01-.01-.12-.03-.17,0-.28,0-.34,0-.16-.04-.68-.05-.84,0,0,.46-.03.46-.03v.23h.01Z"/>
        <polyline class="cls-6" points="7.41 15.03 7.48 15.03 11.54 15.05 13.96 15.05 18.05 15.05 20.36 15.05 20.39 15.05 24.6 15.07 24.71 15.07"/>
        <polyline class="cls-9" points="18.85 6.51 19.03 6.51 19.39 6.51 20.72 6.51"/>
        <polyline class="cls-7" points="23.16 1.98 23.16 2.12 23.16 3.78 23.16 3.96"/>
      </g>
    </g>
  </g>
</svg>