<?xml version="1.0" encoding="UTF-8"?>
<svg id="Layer_2" data-name="Layer 2" xmlns="http://www.w3.org/2000/svg" xmlns:xlink="http://www.w3.org/1999/xlink" viewBox="0 0 36.27 32.63">
  <defs>
    <style>
      .cls-1 {
        fill: #5a177f;
      }

      .cls-1, .cls-2, .cls-3, .cls-4, .cls-5, .cls-6, .cls-7, .cls-8, .cls-9, .cls-10, .cls-11, .cls-12, .cls-13, .cls-14, .cls-15, .cls-16, .cls-17, .cls-18, .cls-19, .cls-20, .cls-21, .cls-22, .cls-23, .cls-24, .cls-25, .cls-26, .cls-27, .cls-28, .cls-29, .cls-30, .cls-31, .cls-32, .cls-33, .cls-34, .cls-35, .cls-36, .cls-37, .cls-38, .cls-39, .cls-40, .cls-41, .cls-42, .cls-43, .cls-44, .cls-45, .cls-46, .cls-47, .cls-48, .cls-49, .cls-50, .cls-51, .cls-52, .cls-53, .cls-54, .cls-55, .cls-56, .cls-57, .cls-58, .cls-59, .cls-60, .cls-61, .cls-62, .cls-63, .cls-64, .cls-65, .cls-66, .cls-67, .cls-68, .cls-69, .cls-70, .cls-71, .cls-72, .cls-73, .cls-74, .cls-75, .cls-76, .cls-77, .cls-78, .cls-79, .cls-80, .cls-81, .cls-82, .cls-83, .cls-84, .cls-85, .cls-86, .cls-87, .cls-88, .cls-89, .cls-90, .cls-91, .cls-92, .cls-93, .cls-94, .cls-95, .cls-96, .cls-97, .cls-98, .cls-99, .cls-100, .cls-101, .cls-102, .cls-103, .cls-104, .cls-105, .cls-106, .cls-107, .cls-108, .cls-109, .cls-110, .cls-111, .cls-112, .cls-113, .cls-114, .cls-115, .cls-116, .cls-117, .cls-118, .cls-119, .cls-120, .cls-121, .cls-122, .cls-123, .cls-124, .cls-125, .cls-126, .cls-127, .cls-128, .cls-129, .cls-130, .cls-131, .cls-132, .cls-133, .cls-134 {
        stroke-width: 0px;
      }

      .cls-2 {
        fill: #9441a8;
      }

      .cls-3 {
        fill: #9de048;
      }

      .cls-4 {
        fill: #c253b9;
      }

      .cls-5 {
        fill: #0d2543;
      }

      .cls-6 {
        fill: #c19acc;
      }

      .cls-7 {
        fill: #aff5e4;
      }

      .cls-8 {
        fill: #e6fe9f;
      }

      .cls-9 {
        fill: #44352a;
      }

      .cls-10 {
        fill: #4ca83e;
      }

      .cls-11 {
        fill: #030206;
      }

      .cls-12 {
        fill: #f4fcf8;
      }

      .cls-13 {
        fill: #d7dcf1;
      }

      .cls-14 {
        fill: #6a4ba9;
      }

      .cls-15 {
        fill: url(#linear-gradient);
      }

      .cls-16 {
        fill: #c59ce7;
      }

      .cls-17 {
        fill: #cc89e7;
      }

      .cls-18 {
        fill: #b3cf6d;
      }

      .cls-19 {
        fill: #d6ed66;
      }

      .cls-20 {
        fill: #222a9d;
      }

      .cls-21 {
        fill: #5a993f;
      }

      .cls-22 {
        fill: #121523;
      }

      .cls-23 {
        fill: #53352a;
      }

      .cls-24 {
        fill: #42c6a0;
      }

      .cls-25 {
        fill: #eeee82;
      }

      .cls-26 {
        fill: #112d6a;
      }

      .cls-27 {
        fill: #e8f3b3;
      }

      .cls-28 {
        fill: #21d4cf;
      }

      .cls-29 {
        fill: #024d69;
      }

      .cls-30 {
        fill: #2d8a46;
      }

      .cls-31 {
        fill: #5b8720;
      }

      .cls-32 {
        fill: #1774a5;
      }

      .cls-33 {
        fill: #c1c43a;
      }

      .cls-34 {
        fill: #431256;
      }

      .cls-35 {
        fill: #c8ccd3;
      }

      .cls-36 {
        fill: #ded0d9;
      }

      .cls-37 {
        fill: #ecf8e7;
      }

      .cls-38 {
        fill: #98c29a;
      }

      .cls-39 {
        fill: #271765;
      }

      .cls-40 {
        fill: #8e27b7;
      }

      .cls-41 {
        fill: #b6b7bc;
      }

      .cls-42 {
        fill: #b9a8e6;
      }

      .cls-43 {
        fill: #d0e7f6;
      }

      .cls-44 {
        fill: #57121e;
      }

      .cls-45 {
        fill: #c0268e;
      }

      .cls-46 {
        fill: #a3d5c6;
      }

      .cls-47 {
        fill: #14132e;
      }

      .cls-48 {
        fill: url(#linear-gradient-5);
      }

      .cls-49 {
        fill: #592cbf;
      }

      .cls-50 {
        fill: #8feabb;
      }

      .cls-51 {
        fill: #89c2ba;
      }

      .cls-52 {
        fill: #8db6cb;
      }

      .cls-53 {
        fill: #cc5421;
      }

      .cls-54 {
        fill: #093c45;
      }

      .cls-55 {
        fill: #73a2ec;
      }

      .cls-56 {
        fill: #e5ddf7;
      }

      .cls-57 {
        fill: #15d3df;
      }

      .cls-58 {
        fill: #8f0a58;
      }

      .cls-59 {
        fill: #cac467;
      }

      .cls-60 {
        fill: #b71671;
      }

      .cls-61 {
        fill: #136d62;
      }

      .cls-62 {
        fill: #cde1d6;
      }

      .cls-63 {
        fill: #9087c6;
      }

      .cls-64 {
        fill: #df8f6c;
      }

      .cls-65 {
        fill: #74d5d2;
      }

      .cls-66 {
        fill: #751aa8;
      }

      .cls-67 {
        fill: #270c37;
      }

      .cls-68 {
        fill: #e1faf7;
      }

      .cls-69 {
        fill: #400e40;
      }

      .cls-70 {
        fill: #650b48;
      }

      .cls-71 {
        fill: url(#linear-gradient-2);
      }

      .cls-72 {
        fill: #e4dc90;
      }

      .cls-73 {
        fill: #766997;
      }

      .cls-74 {
        fill: #8eb55a;
      }

      .cls-75 {
        fill: #5055c4;
      }

      .cls-76 {
        fill: #434243;
      }

      .cls-77 {
        fill: #891587;
      }

      .cls-78 {
        fill: #84e3cb;
      }

      .cls-79 {
        fill: #9088ec;
      }

      .cls-80 {
        fill: #0b51a4;
      }

      .cls-81 {
        fill: url(#linear-gradient-3);
      }

      .cls-82 {
        fill: #f3f5f8;
      }

      .cls-83 {
        fill: #77ad36;
      }

      .cls-84 {
        fill: #a481c4;
      }

      .cls-85 {
        fill: #dae2eb;
      }

      .cls-86 {
        fill: #094b38;
      }

      .cls-87 {
        fill: #41bbc6;
      }

      .cls-88 {
        fill: #cb84b7;
      }

      .cls-89 {
        fill: #6463d8;
      }

      .cls-90 {
        fill: #75093d;
      }

      .cls-91 {
        fill: #c8caf4;
      }

      .cls-92 {
        fill: #b7efb9;
      }

      .cls-93 {
        fill: #c1d1e1;
      }

      .cls-94 {
        fill: #b1cdf4;
      }

      .cls-95 {
        fill: #5a6caf;
      }

      .cls-96 {
        fill: #dc7b7d;
      }

      .cls-97 {
        fill: #b85ed8;
      }

      .cls-98 {
        fill: #7c58ac;
      }

      .cls-99 {
        fill: #a7d0cf;
      }

      .cls-100 {
        fill: #bb63a7;
      }

      .cls-101 {
        fill: #ddcf57;
      }

      .cls-102 {
        fill: #483e97;
      }

      .cls-103 {
        fill: #2d9f48;
      }

      .cls-104 {
        fill: #26c3fd;
      }

      .cls-105 {
        fill: #3d0828;
      }

      .cls-106 {
        fill: #eec872;
      }

      .cls-107 {
        fill: #c139a9;
      }

      .cls-108 {
        fill: #0f7556;
      }

      .cls-109 {
        fill: #a0b346;
      }

      .cls-110 {
        fill: #b025d5;
      }

      .cls-111 {
        fill: #e7e4ed;
      }

      .cls-112 {
        fill: #161544;
      }

      .cls-113 {
        fill: #250b4c;
      }

      .cls-114 {
        fill: #353941;
      }

      .cls-115 {
        fill: #468533;
      }

      .cls-116 {
        fill: #0dc58a;
      }

      .cls-117 {
        fill: #40995e;
      }

      .cls-118 {
        fill: #6c9ab0;
      }

      .cls-119 {
        fill: #91e0e5;
      }

      .cls-120 {
        fill: #94bf3b;
      }

      .cls-121 {
        fill: #62789d;
      }

      .cls-122 {
        fill: url(#linear-gradient-4);
      }

      .cls-123 {
        fill: #dcc9ff;
      }

      .cls-124 {
        fill: #bdb2dc;
      }

      .cls-125 {
        fill: #de86d4;
      }

      .cls-126 {
        fill: #51c84d;
      }

      .cls-127 {
        fill: #c7ecf6;
      }

      .cls-128 {
        fill: #5e0f5f;
      }

      .cls-129 {
        fill: #b421a9;
      }

      .cls-130 {
        fill: #d56ecb;
      }

      .cls-131 {
        fill: #3d117b;
      }

      .cls-132 {
        fill: #1e40b9;
      }

      .cls-133 {
        fill: #703997;
      }

      .cls-134 {
        fill: #989ea5;
      }
    </style>
    <linearGradient id="linear-gradient" x1="30.33" y1="11.51" x2="28.32" y2="20.56" gradientUnits="userSpaceOnUse">
      <stop offset="0" stop-color="#14112e"/>
      <stop offset="1" stop-color="#280f4a"/>
    </linearGradient>
    <linearGradient id="linear-gradient-2" x1="9.17" y1="7.9" x2="10.77" y2="7.92" gradientUnits="userSpaceOnUse">
      <stop offset="0" stop-color="#0e0f19"/>
      <stop offset="1" stop-color="#141238"/>
    </linearGradient>
    <linearGradient id="linear-gradient-3" x1="19.97" y1="4.19" x2="19.61" y2="7.81" gradientUnits="userSpaceOnUse">
      <stop offset="0" stop-color="#081a2b"/>
      <stop offset="1" stop-color="#161135"/>
    </linearGradient>
    <linearGradient id="linear-gradient-4" x1="6.39" y1="12.35" x2="5.07" y2="12.36" gradientUnits="userSpaceOnUse">
      <stop offset="0" stop-color="#1c1133"/>
      <stop offset="1" stop-color="#14101d"/>
    </linearGradient>
    <linearGradient id="linear-gradient-5" x1="15.27" y1="6.62" x2="16.31" y2="6.89" gradientUnits="userSpaceOnUse">
      <stop offset="0" stop-color="#1f114e"/>
      <stop offset="1" stop-color="#101333"/>
    </linearGradient>
  </defs>
  <g id="Layer_1-2" data-name="Layer 1">
    <g>
      <path class="cls-112" d="M12.46,10.51c.21.03,0,.06.16.08.14,1.17-.39.56-.52.74-.14.19.4.62-.64.56.08,1-.21.62-.28.72-.03.04.02.89,0,1.04l-1.1.02c-.08.04-.08.63-.06.66.13.18,3.44-.06,4.4-.06,0,.2-.08.51-.04.76v.04c-.23-.07-.52-.04-.76-.04-.27,0-2.18-.08-2.24.02-.17.28.49.48-.84.5-.93-.01-1.85-.06-2.78-.04q-.03.63-.06,1.26l-.78.02c-.11.08-.05.34-.06.6-.03,0-.07,0-.08.02-.05.23.04,1.53,0,2l-.76.04v1.92c-.63.34-1-.3-1,.58,0-.29,0-.57,0-.86-.23-.14-.5-.02-.56-.02-.28-.02-.49,0-.76,0-.2,0-.4,0-.6,0-.17,0-.35,0-.52,0-.58,0-1.18.03-1.76,0-.41-.02-.26-.08-.28-.08v-.36c.04-.14-.04-.31-.04-.44,0-1.16.08-2.32.04-3.48.03,0-.18-.04.48-.08.21-.01.41,0,.62,0,.04-.02.01-.08.02-.12.38.22.09,2.05.24,2.3.03.06.48.09.52,0,.02-.24-.02-.5,0-.74.16-.05.27,0,.36,0v1.3l.08.02c.98.12.44-.34.66-.44.03-.01.56-.03.66-.04.04,0,.22.11.72.02.04-.24-.04-.55-.04-.74,0-.13,0-.27,0-.4,0-.13,0-.27,0-.4h.94l.06-.92c.14,0,.28,0,.42,0,.04-.03.02-.29.02-.36.72.17.68-.66-.04-.48,0-.09-.01-.48,0-.5.04-.06.46.01.52-.02.22-.12-.43-.61.82-.48.04,0,.01-.12.02-.12.21-.02.91.03.98,0,.09-.06.06-.21.06-.36.8-.05.44-.18.48-.4,0-.03.03-.04.04-.12.02-.17.05-.34.06-.52.24-.17.92.44.86-.6.08,0,.49.02.52-.02v-.7c.12,0,.54.12.6-.02.05-.69-.08-.62-.08-.66,0-.2.04-.43.04-.64.39.11.9-.02,1.28.04Z"/>
      <path class="cls-15" d="M23.17,9.75c.13,0,.21.04.32.04.32,0,.64.03.96.04-.05.3.12.36.12.38,0,.04-.13.04-.08.72.09.13.15.02.16.02.26.02.51-.04.76-.04.03,0,.33.34.36-.28.12-.04.01.12.04.4-.07,0-.37-.02-.4.02l.02.66c.39,0,.79,0,1.18,0-.17.12-.04.37-.04.4,0,.1-.09.55-.04.62.04.05.54,0,.64.02.06.03.12.23.12.24,0,.23-.04.48-.04.72,0,.22-.08.47-.04.7.05.12.44.03.64.06.06.01.03.08.06.08.68.09.66-.04.7-.04,0,0,.03.08.06.08.24.02.5.03.74.04,0,.09,0,.19,0,.28-.04.39-.16.48.32.52.02.12-.02.31,0,.4.05.2.37.11.56.12-.04.22.04.46.04.68,0,.16-.1.6-.04.74.57.33.99-.33.88.72.87-.04-.24,1.08,1.12.8.06-.08-.04-.61-.04-.74.06,0,.09-.02.08.08-.03.23.03.46.04.68,0,.03-.11.36.02.52.28.02.54-.01.82-.04.08,0,.45.02.48-.02-.01-.42.01-.84,0-1.26,0-.15-.03-.32-.04-.48-.01-.18,0-.36,0-.54-.09,0-.19-.05-.28-.06v-1.38c-.36-.06-.72-.05-1.08-.06-.2,0-.4,0-.6,0-.11,0-.21,0-.32,0-.05-.62.1-1.48-.08-2,.08,0,.09-.04.12-.04.02,0-.1.12.36.08.28-.03.56.03.84.04v1.02s.51.02.6.02c.2,0,.4-.01.6,0q-.02.45-.04.9s.36.01.44.02c.16.02.23,0,.24,0,.03.16-.33.03-.64.1-.07.94-.18.94.66.9l.02-1,.08.08v.9s.25.01.32.02c-.03.6.02,1.2.04,1.8,0,.22-.09.47-.04.7.94.25.64-.14.64-.74,0-.33,0-.65,0-.98l.08.84v-1.62c.09,0,.09.04.12.04v.8c.02.94-.03,1.88-.04,2.82,0,.03.08.05.08.06,0,.03-.04.03-.04.12-.46-.49-.89-.19-.62.52.55,0,.54.08.62-.36h.44s-.04.04-.04.08c-.24,0-.45-.08-.4.24,0,.03,0,.07-.02.08-.12.03-1.56,0-1.94,0-.16,0-.32,0-.48,0-.13,0-.27,0-.4,0-.54,0-1.08,0-1.62,0-.1.05-.06,1.28-.06,1.48,0,.01,0,.03,0,.04h-.04q-.02-.51-.04-1.02c-.28-.07-.66.06-.72-.1v-1.82s-.12-.01-.16-.02c-.11-.46.02-1.86-.04-1.94-.03-.04-.56-.04-.64.02-.03-1.57.28-1.59-.92-1.56,0-.22.04-.63-.06-.68-.7,0-1.4.04-2.1.04-.05-.16-.3,0-.48-.1v-1.02c.06,0,.25.02.28-.02v-.68l-.8-.02c0-.1-.02-.78-.04-.82-.11-.24-.66.35-.52-.68-1.24.14.09-.88-1.1-.74l-.02-.78s-.33-.02-.4-.02c-.02-.18.03-.68,0-.74-.04-.09-.56-.12-.52.06,0,0-.11-.07.02-.16.09,0,.17,0,.26,0Z"/>
      <path class="cls-47" d="M29.53,11.15c.23,0,.45,0,.68,0,.11,0,.08.04.08.04v.94c1.32-.14.27.7,1.08.54q.02.44.04.88s-.04.04-.12.04c-.31,0-.34.04-.36.04,0,0,.03-.04-.08-.04-.25,0-.51,0-.76,0h-.68c.04-.41-.04-.83-.04-1.24,0-.15.04-.32.04-.48,0-.24.02-.48.04-.72.03,0,.05,0,.08,0Z"/>
      <path class="cls-47" d="M19.77.12c.02.14-.02.71,0,.74.04.05.54,0,.64.02,0,.03.12-.12.08.44-.25-.07.09-.56-.54-.32-.23.09-.35.42-.34.64h-.6c.11-.2,0-.38,0-.4,0-.12,0-.23,0-.36,0-.04.09-.43.02-.76h-1.88s-.02.61-.02.72c0,.18-.02.63,0,.72-.68.03-.69-.19-.72.52.05.13-.32.07-.72.08-.2,0-.4,0-.6,0-.03,0-.05,0-.08,0v-.44c-.12-1.04.34-.4.64-.6.28.76-.35,1.1.7,1-.02-.28.21-.97-.1-1.12l.04-.96c.8-.09,2.6.02,3.48.08Z"/>
      <path class="cls-112" d="M26.29,6.63s.1-.02.12.02c0,.22,0,.44,0,.66,0,.27-.04.58.04.84-.11,0-.25.02-.3-.04l-.1.1.06.98h1.16l-.02-1.04.08.08v.98s.43.02.52.02c.09,0,.19,0,.28,0-.13.22-.87,0-.92,0-.01,0-.03,0-.04,0-.13,0-.27,0-.4,0-.13,0-.27,0-.4,0-.16,0-.32-.01-.48,0-.2.01-.4-.05-.48.06,0,.3,0,.6,0,.9,0,.01,0,.03,0,.04l-.82.04c-.03.34-.07.73.06.68,0,0-.07.11-.16-.02-.05-.67.08-.68.08-.72,0-.02-.17-.08-.12-.38,0,0-.02-.06.12-.04.02.19-.06.28.02.32.95.04.63-.03.66-.52.01-.22,0-.28,0-.4,0-.24.04-.48.04-.72,0-.2-.04-.41-.04-.6,0-.16,0-.32,0-.48,0-.21,0-.43,0-.64.05-.07.23-.16.24-.16.04,0,.76.03.8.04Z"/>
      <path class="cls-112" d="M4.3,13.67c.23,0,.49-.03.52.04,0,0-.08-.01-.08.02q0,.91.02,1.82c-.66.02-1.32-.03-1.98,0v-.4c.01-.26-.05-.48.08-.44.03.01.68.03.72-.06v-.9s-.01-.08.02-.08c.23,0,.47,0,.7,0Z"/>
      <path class="cls-47" d="M23.85,4.71c.07.01.16,0,.24,0,.33.04.8-.04.6.28-.42-.11-.25.32-.28.74.07.1.24.05.4.06.18.01.37-.04.52-.04.04,0,.08,0,.12,0l.04.84s-.19.09-.24.16c.05-.13-.36-.08-.76-.08-.35,0-.69,0-1.04,0-.02-.29-.05-.55-.04-.84,0-.18,0-.53,0-.56,0,0,.02.05.04-.16.08-.72.06-.11.4-.4Z"/>
      <path class="cls-71" d="M10.5,6.67c.2,0,.4,0,.6,0,0,.28.05.59.04.88-.15.02-.56-.02-.6,0-.13.07.06,1.45-.1,1.56l-1.56.04-.02-.96c.17,0,.35.01.52,0,.22-.01.55.05.6-.06,0-.26-.01-.52,0-.78,0-.21,0-.41,0-.62.07-.1.3-.05.52-.06Z"/>
      <path class="cls-68" d="M31.73,25.3c0,1.44.04,2.88,0,4.32h-.48c-.04-1.47,0-2.92,0-4.4.28.02.52-.05.48.08Z"/>
      <path class="cls-93" d="M16.3.04l-.04.96c-.09-.04-.73-.12-.6.12-.3.2-.75-.44-.64.6-.6.04-.59-.2-.64.48-.05,0-.11,0-.16,0-.12,0-.24.03-.36.04-.12,0-.81-.02-.84.02-.01.02,0,.48.02.5.03.02.67-.02.82,0,.04.24-.03.49-.04.72-.29-.04-.6.04-.88.04-.15,0-.36-.03-.52-.04-.09,0-.48.01-.5,0-.03-.02-.03-.34,0-.36.04-.03.92.02,1.08,0l-.06-.86c.07-.18,1.16-.07,1.38-.14-.02-.92.39-.47.52-.56.11-.08.09-.4.1-.42.1-.18.27.28.2-.8,1.12.03.71-.22.82-.3.03-.02.28,0,.34,0Z"/>
      <path class="cls-82" d="M.54,16.71c.04,1.16-.04,2.32-.04,3.48-.1-.04-.29-.02-.36-.04-.03,0-.1.02-.12-.02-.08-.15.06-2.98,0-3.44.28-.07.49.02.52.02Z"/>
      <path class="cls-82" d="M36.24,17.39c.02.6.04,2.49,0,2.94,0,.03-.08.02-.08.02h-.4s-.08-.03-.08-.06c.01-.94.06-1.88.04-2.82l.52-.08Z"/>
      <path class="cls-112" d="M28.65,9.31l.06.6h.7c.02.14.03.25.04.4.02.39-.06.75.08.84-.03,0-.05,0-.08,0-.74,0-1.46-.02-2.2-.04v-.04h1.34l.06-.82c-.1.09-.24.06-.36.06-.04-.35.07-.78-.04-1.08.55.01.38.08.4.08Z"/>
      <path class="cls-46" d="M5.02,22.54c.02,1.8,0,3.6,0,5.4-.09.02-.39-.05-.44.06-.02.05-.02.99,0,1.04.05.11.35.04.44.06,0,.66-.01,1.3-.04,1.96,0,.07,0,.13,0,.2,0,.19,0,.37,0,.56h-.64l.6-.1c.11-1.1-.29-.57-.4-.72-.09-.13-.07-3.05.04-3.16.01-.01.29.14.36.04.16-.22-.16-4.95.04-5.38,0-.01,0-.04.04-.04,0,.03,0,.05,0,.08Z"/>
      <path class="cls-92" d="M31.73,22.5c-.04.93,0,1.87,0,2.8.04-.13-.2-.06-.48-.08,0-.89-.05-1.78-.04-2.68,0-.01,0-.03,0-.04h.52Z"/>
      <path class="cls-47" d="M26.45,8.15c.14,0,.3,0,.44,0,.12,0,.24,0,.36,0l.02,1.04h-1.16l-.06-.98.1-.1c.05.06.19.05.3.04Z"/>
      <path class="cls-69" d="M35.33,16.63c.09,0,.19,0,.28,0v1.62l-.08-.84c0,.33,0,.65,0,.98l-.6.04c-.02-.6-.07-1.2-.04-1.8.14.01.29,0,.44,0Z"/>
      <path class="cls-93" d="M31.57,12.55c-.19-.03-.05.09-.2.12-.81.16.24-.68-1.08-.54v-.94c.1,0,.81-.17.88-.02-.15,1.62.48.44.4,1.38Z"/>
      <path class="cls-82" d="M22.69,2.51c0,.11-.01.41-.12.44h-.56v-.78l-.72-.08v-.74c.11,0,.63-.02.66,0,.07.78-.19.79.68.76.1.07.05.23.06.4Z"/>
      <path class="cls-39" d="M28.13,9.23s.08,0,.12,0c.11.3,0,.73.04,1.08-.35,0-.69,0-1.04,0l-.04-1.08c.05,0,.79.22.92,0Z"/>
      <path class="cls-5" d="M7.54,9.87c0,.4.08.8.04,1.2-.28,0-.56-.09-.84,0,0-.24-.05-.53-.04-.76.03-.65.1-.4.84-.44Z"/>
      <path class="cls-12" d="M32.89,21.02c0,.16-.64.05-1.06.08-.04.03-.01.22-.02.28-.03.28-.07.84-.08,1.12h-.52c0-.2-.04-1.43.06-1.48.54,0,1.08,0,1.62,0Z"/>
      <path class="cls-93" d="M23.25,3.35c0,.12-.06.22-.04.34.55.04.27.04.28.1h-.82l-.1-.84c.11-.03.13-.33.12-.44.27,0,1-.13.76.38-.09.19-.16-.22-.2.46Z"/>
      <path class="cls-85" d="M3.58,13.75v.9c-.04.09-.69.07-.72.06,0,0-.04-.04-.04-.04-.07-.16.22-.43-.44-.36.06-.47.34-.12.44-.26.19-.27-.45-.35.7-.38.03,0,0,.08.06.08Z"/>
      <path class="cls-82" d="M5.3,11.15v.96c-.22.02-.44-.05-.52.06,0,.22,0,.44,0,.66h-.48c0-.14-.02-.62,0-.66.06-.13.43-.01.48-.08.03-.04-.02-.78,0-.92.03-.04.43-.01.52-.02Z"/>
      <path class="cls-82" d="M26.29,6.63s-.76-.05-.8-.04l-.04-.84c.12,0,.14-.04.16-.04,0,0-.01.08.02.08.12,0,.75-.02.78.02-.03.36.1.76-.12.82Z"/>
      <path class="cls-47" d="M21.29,1.35v.74l.72.08v.78c-.34-.25-.64-.08-.76-.08,0-.23,0-.47,0-.7-.05-.1-.49-.05-.72-.06-.29-.01-.59,0-.88,0v-.4c.02.12.05.24.06.36l1.52-.04c-.01-.24-.04-.48-.02-.72.11,0,.08.04.08.04Z"/>
      <path class="cls-85" d="M33.21,14.71c-.09,0-.57.02-.6-.02v-1.02s.46-.13.64.02q-.02.51-.04,1.02Z"/>
      <path class="cls-112" d="M34.45,15.63s.03,0,.04,0l-.02,1c-.84.04-.73.04-.66-.9.31-.07.67.06.64-.1Z"/>
      <path class="cls-93" d="M21.21,1.31c-.22-.01-.62.03-.72,0,.04-.56-.08-.41-.08-.44,0-.02.07.06.08-.4.25.03.34-.04.36-.04.05,0,.42.05.44.1.05.68-.08.74-.08.78Z"/>
      <path class="cls-13" d="M12.94,3.51l.04,1.08s.14.04-.56.08v-1.2c.16,0,.36.04.52.04Z"/>
      <path class="cls-124" d="M6.18,11.15c-.06,0-.21-.02-.24.02v.92s-.54.01-.64.02v-.96c.29-.03.6-.03.88-.12v.12Z"/>
      <path class="cls-82" d="M30.21,11.15c-.23,0-.45,0-.68,0-.14-.09-.06-.45-.08-.84l.76.02v.82Z"/>
      <path class="cls-82" d="M8.82,8.23v.94c-.05.11-.38.05-.6.06.04-.98-.24-1.18.6-1Z"/>
      <path class="cls-85" d="M1.66,15.67c-.03.23.04.7,0,.84,0,.04.02.1-.02.12-.21,0-.41-.01-.62,0v-.94s.54-.01.64-.02Z"/>
      <path class="cls-35" d="M24.09,3.83s-.17-.09-.56,0c0-.05-.04-.04-.04-.04-.01-.06.27-.06-.28-.1-.02-.12.03-.22.04-.34.16-.04,1.13-.07,1.18-.04.03.02.03.44.02.46-.01.01-.31.06-.36.06Z"/>
      <path class="cls-85" d="M27.85,9.23c-.09,0-.49.02-.52-.02v-.98c.79-.39.45.4.52,1Z"/>
      <path class="cls-82" d="M20.49.12c0,.12,0,.24,0,.36-.01.46-.08.38-.08.4-.1-.02-.6.03-.64-.02-.02-.03.02-.6,0-.74.24.02.48-.02.72,0Z"/>
      <path class="cls-82" d="M11.14,5.87c0,.27-.03.54-.04.8-.2,0-.4,0-.6,0,.02-.14-.02-.75,0-.78.04-.05.54,0,.64-.02Z"/>
      <path class="cls-93" d="M24.09,3.83v.88c-.08,0-.17.01-.24,0-.08-.02-.27.04-.32-.06-.02-.27.02-.55,0-.82.39-.09.53,0,.56,0Z"/>
      <path class="cls-93" d="M9.98,7.35c-.01.26,0,.52,0,.78-.05.11-.38.05-.6.06.02-.14-.02-.79,0-.82.04-.05.5,0,.6-.02Z"/>
      <path class="cls-82" d="M12.02,4.67c.03,1.01,0,.63-.68.72.02-.13-.02-.67,0-.7.03-.04.58-.02.68-.02Z"/>
      <path class="cls-82" d="M6.7,10.31c-.01.23.04.52.04.76,0,.04-.04.04-.04.08-.17.01-.36-.02-.52,0v-.12c.02-.13-.02-.67,0-.7.04-.05.43,0,.52-.02Z"/>
      <path class="cls-82" d="M29.41,9.91h-.7l-.06-.6c.06,0,.03-.08.06-.08.71.04.32.02.46.22.03.05.19-.02.24.08.02.05-.02.27,0,.38Z"/>
      <g>
        <path class="cls-93" d="M35.8,21.06c-.25.07-.05.58-.14.8-.63-.03-1.27.04-1.9,0v-.84c.37,0,1.82.03,1.94,0,.03,0,.02-.05.02-.08,0,0,.08.08.08.12Z"/>
        <path class="cls-82" d="M33.77,21.02v.84c-.22-.01-.44.05-.52-.06-.01-.23,0-.44.04-.66,0-.04,0-.08,0-.12.16,0,.32,0,.48,0Z"/>
      </g>
      <path class="cls-82" d="M36.24,17.39l-.52.08v-.8s.4-.12.52.02c0,.23,0,.47,0,.7Z"/>
      <path class="cls-124" d="M4.78,12.83c0,.23,0,.47,0,.7,0,.03.08.02.08.02,0,.21-.04.15-.04.16-.03-.07-.29-.03-.52-.04,0-.28,0-.56,0-.84h.48Z"/>
      <path class="cls-85" d="M26.89,8.15c-.14,0-.3,0-.44,0-.08-.26-.03-.57-.04-.84.67-.05.45,0,.48.84Z"/>
      <g>
        <path class="cls-93" d="M4.98,31.82c7.36.03,14.71-.04,22.07,0,.1.2.01.47.04.72-7.57-.04-15.15.05-22.73,0l-.02-.72h.64Z"/>
        <path class="cls-93" d="M30.05,31.86v.72c-.75,0-1.49-.03-2.24-.04v-.72c.75,0,1.49.03,2.24.04Z"/>
        <path class="cls-93" d="M30.57,32.58c-.14-1.14.39-.48.68-.72,0,0,.03-.06.04-.08.64.18.63-.3.6.82-.13.09-1.1-.02-1.32-.02Z"/>
        <path class="cls-85" d="M27.81,31.82v.72c-.24,0-.48,0-.72,0-.03-.25.06-.52-.04-.72.25,0,.51,0,.76,0Z"/>
        <path class="cls-82" d="M31.25,31.86c-.29.24-.82-.42-.68.72-.17,0-.35,0-.52,0v-.72c.4,0,.8,0,1.2,0Z"/>
      </g>
      <path class="cls-82" d="M34.21,15.63c-.08,0-.41.02-.44-.02q.02-.45.04-.9c.16.01.33-.04.4.06v.86Z"/>
      <path class="cls-41" d="M31.57,12.55c-.04.23.19.11.24.22.02.04.05.78-.04.86-.46.04-.34-.08-.36-.08q-.02-.44-.04-.88c.15-.03.01-.15.2-.12Z"/>
      <path class="cls-51" d="M31.73,29.62c0,.27.02.51,0,.8l-.48-.04c-.01-.25,0-.51,0-.76h.48Z"/>
      <path class="cls-68" d="M31.73,30.42c-.02.28.12.88-.44.64-.01,0-.04,0-.04-.04,0-.21,0-.43,0-.64l.48.04Z"/>
      <path class="cls-82" d="M24.69,4.99c.25.07.07.55.12.8-.16-.01-.33.04-.4-.06.03-.42-.14-.85.28-.74Z"/>
      <g>
        <path class="cls-82" d="M5.02,21.94c0,.17,0,.35,0,.52-.05,0-.04.03-.04.04-.77.08-.47-.08-.52-1.12v-.32c.06,0,.33-.12.56.02,0,.29,0,.57,0,.86Z"/>
        <g>
          <path class="cls-93" d="M3.1,21.06v.8c-.54.03-1.06.06-1.6.04l.02-.8,1.06-.04c.17,0,.35,0,.52,0Z"/>
          <path class="cls-93" d="M2.58,21.06l-1.06.04-.02.8c-.22,0-.63.04-.68-.06v-.78c.57.03,1.18,0,1.76,0Z"/>
          <path class="cls-82" d="M3.7,21.06c-.05.09,0,.19,0,.32,0,.1.03.48-.06.52-.29.03-.51-.04-.54-.04v-.8c.2,0,.4,0,.6,0Z"/>
        </g>
        <path class="cls-93" d="M4.46,21.06v.32h-.76c0-.13-.05-.23,0-.32.27,0,.48-.02.76,0Z"/>
      </g>
      <g>
        <path class="cls-85" d="M35.33,15.67v.96c-.15,0-.3.01-.44,0-.07,0-.29.02-.32-.02v-.9c.19-.05.57-.06.76-.04Z"/>
        <path class="cls-41" d="M35.33,16.59v-.92c.06,0,.2-.02.24.02-.07.55.16,1.01-.24.9Z"/>
      </g>
      <path class="cls-82" d="M2.78,15.15v.4s.12.12-.44.08c0-.5-.08-.5.44-.48Z"/>
      <path class="cls-82" d="M25.61,5.71s-.04.04-.16.04c-.04,0-.08,0-.12,0,0-1.13.34-1.15.28-.04Z"/>
      <path class="cls-134" d="M.5,20.18c0,.13.08.3.04.44H.14s-.1.03,0-.48c.07.02.26,0,.36.04Z"/>
      <path class="cls-82" d="M.54,20.62v.36s-.13.07-.42.04c-.07-.28.02-.38.02-.4h.4Z"/>
      <path class="cls-93" d="M2.82,14.67c-.4.09-.5.08-.44-.36.66-.07.37.2.44.36Z"/>
      <path class="cls-82" d="M36.12,20.7s.09.19.04.3c-.05.11-.27.04-.36.06,0-.04-.08-.11-.08-.12-.05-.32.16-.23.4-.24Z"/>
      <path class="cls-41" d="M20.85.44s-.11.07-.36.04c0-.12,0-.24,0-.36.3.02.39-.09.36.32Z"/>
      <path class="cls-114" d="M36.16,20.34c0,.09.01.2,0,.28h-.44s0-.11,0-.16c0-.09.04-.09.04-.12h.4Z"/>
      <path class="cls-82" d="M11.98,6.63c-.05.2-.04.4-.04.6,0,.22,0,.44,0,.66.17.03.34.05.52.06v1.16c-.09.17-.71.02-.82.12-.08.07.02.23.02.24-.01.1-.09.19,0,.32-.17.01-.35.06-.52.06-.05.07.04.52.04.62,0,.21-.05.44-.04.64-.16.02-.5-.02-.56,0-.01-.27.02-.53,0-.8,0-.13,0-.25,0-.38-.03-.05-.18,0-.24-.02v-.72c.28,0,.56-.02.84-.04.22-.01.43.08.64-.02v-1.16c-.06-.09-.15-.05-.24-.06-.02-.08.04-.27-.04-.32-.03-.02-.21.01-.32,0-.03-.3-.06-.59-.04-.9.05-.1.57-.05.8-.06Z"/>
      <path class="cls-47" d="M15.98,8.03c-.38.24-.76-.22-.74.52-.78-.08-.49.1-.54,1.1l-.7-.02c-.11.04.08.73-.08.8-.41.19-.17-.53-.32-.6-.53-.24-.28.57-.34.66-.06.08-.59-.07-.64.1-.16-.02.05-.05-.16-.08.1-.24.02-.48,0-.72,0-.01.07-.01.04-.28.66.03.45-.03.48-.28.03-.24.03-.44.04-.68,0-.01,0-.03,0-.04.51,0,1.01.01,1.52,0,.1,0,.62.03.66,0,.14-.1-.36-.61.78-.48Z"/>
      <path class="cls-34" d="M13.62,15.03c.02.09-.03.44.02.48.03.02.63,0,.74,0,.32.01.64,0,.96,0v.04c-.32,0-.65-.03-.96.04-1.28.02-2.56-.02-3.84-.04,1.33-.02.67-.22.84-.5.06-.1,1.97-.02,2.24-.02Z"/>
      <path class="cls-82" d="M6.78,13.55s.07.15.08.2c.01.08-.03.37.02.4h.74c0,.12,0,.24,0,.36,0,0,.02.12-.02.12-1.25-.13-.6.36-.82.48-.48-.13-.56.15-.6-.4-.03-.38.02-.78,0-1.16h.6Z"/>
      <path class="cls-66" d="M9.7,11.79c-.02.36.06.72-.08.68-.07,0-.41-.02-.44.02v1.14c-.01.08-.04.09-.04.12h-.44c-.08-.67.04-.74.04-.78,0-.41-.12-.61.04-.82l.06-.36c.29,0,.57,0,.86,0Z"/>
      <path class="cls-82" d="M6.18,14.71c.04.55.12.27.6.4-.06.03-.48-.04-.52.02-.01.02,0,.41,0,.5,0,.11-.04.08-.04.08-.91.01-.81-.16-.8.76-.17,0-.44-.02-.56,0,.03-.39-.07-.87.08-.84.24,0,.48.04.56-.06v-.74s.09-.11.12-.12c.09-.03.4.02.56,0Z"/>
      <path class="cls-39" d="M5.42,16.47c.15,0,.29,0,.44,0l-.06.92h-.94s-.04.01-.04-.04c0-.28,0-.56,0-.84.05,0,.04-.04.04-.04.12-.02.39,0,.56,0Z"/>
      <path class="cls-129" d="M12.46,9.79c.02.24.1.48,0,.72-.38-.06-.89.07-1.28-.04,0-.1-.09-.55-.04-.62.17,0,.35-.05.52-.06.26-.02.54.02.8,0Z"/>
      <path class="cls-129" d="M8.62,13.75c0,.12.04.29.04.4,0,.15.03.3-.06.36-.07.03-.77-.02-.98,0,0-.12,0-.24,0-.36,0-.13-.03-.28.04-.4.32,0,.64,0,.96,0Z"/>
      <path class="cls-40" d="M6.22,15.71s.08.35.08.4c0,.07.02.33-.02.36-.14,0-.28,0-.42,0-.15,0-.29,0-.44,0-.01-.92-.11-.75.8-.76Z"/>
      <path class="cls-131" d="M10.54,11.79s.05,0,.08,0v.7s-.44.02-.52.02c-.16,0-.33-.04-.48-.04.14.04.06-.32.08-.68.28,0,.56,0,.84,0Z"/>
      <path class="cls-112" d="M9.62,12.47c.15,0,.32.04.48.04.06,1.04-.62.43-.86.6-.01.18-.04.35-.06.52v-1.14s.37-.02.44-.02Z"/>
      <path class="cls-66" d="M11.14,11.11s.13-.03.08.66c-.06.14-.48.02-.6.02-.03,0-.05,0-.08,0v-.64s.04-.04.04-.04c.05-.02.4.02.56,0Z"/>
      <path class="cls-128" d="M15.34,15.51c-.32,0-.64.01-.96,0v-.48c.69.11,1.06-.3.96.48Z"/>
      <g>
        <path class="cls-112" d="M4.82,13.71c-.04.34.04.7.04,1.04,0,.21-.08.57-.04.84-.11,0-.08.04-.08.04-.17,0-.35,0-.52,0-.25,0-.51-.01-.76,0-.18,0-.36,0-.54,0-.02.2-.06,1.55-.02,1.62.04.08.4.05.42.06.04.03.02.3.02.36,0,.13,0,.27,0,.4-.06,0-.5.05-.52.1l.04,1.22-.08-.02v-1.3c.15,0,.36-.06.52-.06,0-.07,0-.62-.04-.64-.51-.26-.38.35-.44.4-.2.16-.35-.25-.4.3-.02.24.02.5,0,.74-.03.09-.48.06-.52,0-.15-.25.14-2.07-.24-2.3.04-.14-.03-.61,0-.84.23-.02.45-.07.68-.04.56.04.41-.08.44-.08.66-.03,1.32.02,1.98,0q0-.91-.02-1.82s.08-.02.08-.02Z"/>
        <path class="cls-22" d="M2.78,18.07c-.09,0-.2-.05-.36,0,.05-.55.2-.14.4-.3.06-.05-.07-.66.44-.4.03.02.04.57.04.64-.16,0-.37.05-.52.06Z"/>
      </g>
      <path class="cls-131" d="M14.38,15.07v.44c-.11,0-.71.02-.74,0-.05-.04,0-.39-.02-.48.24,0,.53-.03.76.04Z"/>
      <path class="cls-97" d="M6.3,16.11c0-.05-.08-.35-.08-.4,0,0,.03.03.04-.08.72-.18.76.65.04.48Z"/>
      <path class="cls-39" d="M8.7,13.75h.44c-.04.22.32.35-.48.4,0-.11-.04-.28-.04-.4h.08Z"/>
      <path class="cls-81" d="M18.89,3.95c.02.11-.03.6.02.64.23,0,.47,0,.7,0,.21,0,.43,0,.64,0-.11,1.26.29.65.5.8.06.04-.02.44.04.48.02.02.45,0,.54,0,.11,0,.08.04.08.04-.03.26.02.51.04.76,0,.1-.02.57.02.6.3,0,.6,0,.9,0v.64s-.31.05-.32.06c-.02.03.02.54.04.56.09.08.62-.06.68.08-.12,1.01.35.29.4,1.14-.09,0-.17,0-.26,0-.13.09-.02.15-.02.16-.02.22.01.45,0,.68-.06,0-.21.02-.24-.02.09-1.19-.21-.62-.36-.84-.02-.02.03-.56,0-.6-.12-.17-.71.39-.56-.64-.06-.13-.47-.02-.48-.04-.05-.09.07-.56-.06-.62-1.03.16-.46-.47-.64-.6-.23-.16-.76.47-.62-.74-1.03-.06-.43-.29-.6-.68-.1-.22-.52.29-.46-.58-1.11.19.03-.88-1.1-.58l-.02.9c-1.26-.16-.21.6-.94.74.16,1.11-.47.33-.84.74,0,0-.11-.07.02-.16,1.25.11.62-.29.78-.62.05-.11.23-.01.28-.12.02-.05-.04-.98-.04-1.14,0-.11,0-.21,0-.32,0-.28,0-.56,0-.84,1.17-.07.61-.16.78-.28.05-.03.44.05.64-.04.17.52.39.07.46.44Z"/>
      <path class="cls-43" d="M25.81,11.03c.18,0,.53.03.76.04.23.01.45.03.68.04.74.02,1.46.04,2.2.04-.02.24-.03.48-.04.72-.13,0-.27,0-.4,0-.09,0-.32-.04-.36.06-.02.05.01.29,0,.42,0,0-.06.08-.12.08-.03,0-.36-.08-.52-.04,0-.16.05-.42-.08-.48-.23-.1-.45.08-.68.08,0-.13.03-.26-.06-.32-.19.05-.38.04-.58.04-.39,0-.79,0-1.18,0l-.02-.66s.33-.02.4-.02Z"/>
      <path class="cls-60" d="M31.17,22.54h.04c-.01.89.04,1.79.04,2.68,0,1.47-.04,2.92,0,4.4,0,.25-.01.51,0,.76,0,.21,0,.43,0,.64-.3.11-.62,0-.92,0v-.04l.84-.06q-.02-2.86-.04-5.72l-.76.02c0-.55,0-1.09,0-1.64,0-.35.04-.7.04-1.04h.76Z"/>
      <path class="cls-82" d="M30.85,14.67h.08c.02.3.08.6.08.9.03.04.29.01.36.02.11,0,.21,0,.32,0v.82l.64.02s.13,0,.08.58c.53,0,.49.1.52.1l.04.32s-.22,0-.28,0c-.12,0-.24,0-.36,0,0,0-.07-.03-.08-.06-.06-.31.18-.29-.5-.34-.07.05-.05.11-.1.12-.72.1-.43-.14-.48-1.18l-.08-.02c-.24,0-.48.01-.72,0v-1.24s.18-.07.48-.04Z"/>
      <path class="cls-34" d="M24.77,14.31c.41,0,.83.08,1.24.04v1.02c.18.11.43-.06.48.1-.01,0-.03,0-.04,0-.21,0-.43,0-.64,0-.59,0-1.17,0-1.76,0-.06-.17.06.08.08-.2.03-.32-.02-.64,0-.96.21,0,.43,0,.64,0Z"/>
      <path class="cls-112" d="M31.65,17.15c.17.19.04.48.04.64,0,.55.04.29.56.36,0,.13.1.66.04.74-1.36.28-.25-.84-1.12-.8.11-1.05-.31-.39-.88-.72-.06-.14.04-.58.04-.74.26,0,.54-.02.78.08l-.02-.76.08.02c.05,1.04-.24,1.28.48,1.18Z"/>
      <path class="cls-112" d="M23.53,7.91c0,.24,0,.48,0,.72.01.26-.04.52.06.6h.94s0,.04,0,.04c-1,.05-1.11-.23-1.04.52-.11,0-.19-.05-.32-.04-.05-.85-.52-.13-.4-1.14-.06-.14-.59,0-.68-.08-.02-.02-.06-.53-.04-.56,0-.01.28-.06.32-.06.06,0,.8.01,1.16,0Z"/>
      <path class="cls-34" d="M30.25,19.58s.14-.02.16.02v1.82c-.1.03-.11.08-.12.08-.03.01-.15,0-.24,0-.62.02-.27-.21-.48-.32,0-.52,0-1.04,0-1.56.17-.04.53-.07.68-.04Z"/>
      <path class="cls-91" d="M33.37,17.03c-.48-.08-.41.08-.44.08-.03,0,0-.1-.52-.1.05-.57-.08-.55-.08-.58-.03-.27.05-.57-.04-.84.36.01.72,0,1.08.06v1.38Z"/>
      <path class="cls-13" d="M33.17,18.07c.16,0,.35.08.52.04.01.42-.01.84,0,1.26-.03.04-.4.01-.48.02-.02-.73-.24-.42-.84-.48-.01-.22-.07-.45-.04-.68l.06-.12c.2.03.28-.04.3-.04.02,0,.4,0,.48,0Z"/>
      <path class="cls-39" d="M30.25,19.58c-.15-.03-.51,0-.68.04,0-.28,0-.56,0-.84,0-.37,0-.75,0-1.12.08-.06.61-.06.64-.02.06.08-.07,1.48.04,1.94Z"/>
      <path class="cls-13" d="M30.09,13.59c0,.33-.04.68-.04,1-.15.07-.46.05-.64.04-.24-.01-.5-.02-.74-.04-.03,0-.05-.08-.06-.08v-.32l.7-.04c.11-.05.04-.27.06-.4.02-.11.04-.15.04-.16h.68Z"/>
      <path class="cls-97" d="M31.29,13.59c.18.52.03,1.37.08,2-.07,0-.33.02-.36-.02,0-.3-.06-.6-.08-.9-.02-.34.01-.69,0-1.04.02,0,.05-.05.36-.04Z"/>
      <path class="cls-34" d="M31.17,22.54h-.76c0-.3-.04-1.1-.12-1.04,0,0,.02-.05.12-.08.06.16.44.03.72.1q.02.51.04,1.02Z"/>
      <path class="cls-20" d="M28.01,13.71c.2-.04.41.04.6.04v.76s-.02.13-.7.04c-.03,0,0-.07-.06-.08v-.72s.04-.04.04-.04h.12Z"/>
      <path class="cls-39" d="M30.37,15.95c.24.01.48,0,.72,0l.02.76c-.24-.1-.52-.08-.78-.08,0-.21-.08-.46-.04-.68.03,0,.05,0,.08,0Z"/>
      <path class="cls-40" d="M25.41,10.23c0,.12.04.26.04.36,0,.03-.1.11-.04.32-.25,0-.5.06-.76.04-.13.05-.09-.34-.06-.68l.82-.04Z"/>
      <path class="cls-29" d="M24.53,9.27c0,.08.03.19.04.32,0,.07,0,.13,0,.2-.14-.02-.11.04-.12.04-.32,0-.64-.04-.96-.04-.07-.75.04-.47,1.04-.52Z"/>
      <path class="cls-16" d="M32.29,15.59c.09.27,0,.57.04.84l-.64-.02v-.82c.2,0,.4,0,.6,0Z"/>
      <path class="cls-131" d="M28.01,12.39c0,.21-.04.42-.04.64,0,.22-.03.48.04.68h-.12c.06-.08.3-.94-.6-.72,0-.01-.06-.21-.12-.24.03-.33.12-.34.12-.36.63-.01.68.14.64-.48.13.06.08.32.08.48Z"/>
      <path class="cls-128" d="M35.52,18.39c0,.6.3.99-.64.74-.05-.23.05-.48.04-.7l.6-.04Z"/>
      <path class="cls-40" d="M27.89,13.71s-.04,0-.04.04l-.6-.04c0-.24.04-.49.04-.72.9-.22.66.64.6.72Z"/>
      <path class="cls-80" d="M27.85,13.75v.72c-.2-.03-.59.06-.64-.06-.04-.23.04-.48.04-.7l.6.04Z"/>
      <path class="cls-112" d="M35.72,20.46c0,.05,0,.11,0,.16-.08.44-.07.35-.62.36-.28-.71.16-1.01.62-.52Z"/>
      <path class="cls-77" d="M33.21,19.38c-.28.03-.54.06-.82.04-.13-.16-.02-.49-.02-.52.6.06.82-.25.84.48Z"/>
      <path class="cls-124" d="M30.37,14.71v1.24s-.05,0-.08,0c-.19,0-.51.08-.56-.12.44.16.34-.12.36-.44.01-.14,0-.29,0-.44,0-.09,0-.19,0-.28.27-.03.27.04.28.04Z"/>
      <path class="cls-131" d="M33.37,17.03c.09.01.19.06.28.06,0,.18-.01.36,0,.54-.49.12-.36-.07-.48-.16-.07-.05-.12-.03-.2-.04l-.04-.32s-.04-.16.44-.08Z"/>
      <path class="cls-40" d="M30.09,14.95c0,.15.01.3,0,.44-.1.06-.25.05-.36.04-.48-.04-.36-.13-.32-.52l.68.04Z"/>
      <path class="cls-89" d="M32.69,17.43v.64s-.1.07-.3.04l-.06.12c.01-.1-.02-.07-.08-.08,0-.13,0-.27,0-.4-.01-.27.08-.29.08-.32.12,0,.24,0,.36,0Z"/>
      <g>
        <path class="cls-110" d="M27.25,12.35s.04-.01.04.04c0,.02-.09.03-.12.36-.1-.02-.6.03-.64-.02-.05-.07.04-.52.04-.62.44.04.62-.16.68.24Z"/>
        <path class="cls-131" d="M27.25,11.99c0,.12,0,.24,0,.36-.06-.4-.24-.2-.68-.24,0-.03-.13-.28.04-.4.2,0,.39.01.58-.04.09.06.06.19.06.32Z"/>
      </g>
      <path class="cls-113" d="M33.65,17.63c.01.16.03.33.04.48-.17.04-.36-.04-.52-.04v-.6c.12.09-.01.28.48.16Z"/>
      <path class="cls-16" d="M30.09,14.67c0,.09,0,.19,0,.28l-.68-.04c0-.09,0-.19,0-.28.18,0,.49.03.64-.04,0,0,.04-.02.04.08Z"/>
      <path class="cls-42" d="M29.73,15.83c-.02-.09.02-.28,0-.4.11,0,.26.02.36-.04-.02.32.08.6-.36.44Z"/>
      <path class="cls-90" d="M30.37,23.58c0,.55,0,1.09,0,1.64,0,1.92-.03,3.84-.04,5.76v.04c-.07,0-.13,0-.2,0-.1-.73-.02-1.47,0-2.2.04-1.74,0-3.46,0-5.2.1,0,.15-.05.24-.04Z"/>
      <path class="cls-82" d="M19.01.88c0,.13,0,.24,0,.36-.16.02-1.02-.03-1.06,0-.03.02-.03.36-.02.38.04.05.93,0,1.08.02h.6s.03.04.04.08v1.16c-.04.51.08.38.08.4,0,.02-.16.26-.16.28h-.52c-.02-.37-.05-.75-.06-1.12-.16.02-1.04-.03-1.08,0-.15.11.41.46-.84.36.13,1.34-.73.29-.54,1,0,0,.03.03-.08.04-.28.02-.57-.01-.86,0-.03.02-.04.61-.02.68,0,.04-.02.1.02.12l.86-.04s0,.06,0,.08c0,.01-.12.2-.16.2-.03,0-.63-.02-.66,0-.16.11.36.44-.62.44.02-.26,0-.48,0-.72,0-.24.08-.52.08-.76.44.07.51-.05.48-.5-.03-.48-.07-.38-.52-.38,0-.28-.08-.6.04-.8.2,0,.4,0,.6,0v.36c0,.12,0,.24,0,.36-.01.25-.47.62.7.52.14-.11.02-.42.02-.44.01-.2.04-.39.04-.6,0-.07,0-.13,0-.2h.76c.04.26.28.41.54.28.06-.03.33-1.01-.5-.76-.1,0-.1-.04-.12-.12-.02-.09,0-.54,0-.72l1.88.04Z"/>
      <path class="cls-122" d="M6.18,11.15c.16-.02.35.01.52,0,0,.42.08.84.04,1.26l.08.02s-.06.07.02.28c.48-.03.63.15.66-.28.11.09,0,.3,0,.32l-.68.06c.04.26-.04.7-.04.74h-1.92s-.08.01-.08-.02c0-.23,0-.47,0-.7,0-.22,0-.44,0-.66.08-.11.3-.04.52-.06.1,0,.61.02.64-.02v-.92s.18-.01.24-.02Z"/>
      <path class="cls-112" d="M14.22,2.19c-.03.16.37.03.72.1.06.75.03,1.49,0,2.28-.06.09-.97-.03-1.12-.02,0-.36-.01-.72,0-1.08,0-.23.08-.48.04-.72v-.52c.12,0,.24-.03.36-.04Z"/>
      <path class="cls-82" d="M13.82,4.67c-.07,1.05-.22,1.27.56,1.08,0,0,.08.15.08.16.08.65-.27.73.56.68,0,.03.05-.2.04.44-.21.01-1.26-.09-1.34-.04-.12.09.32.25-.7.28-.04,0-.42-.08-.72-.04v-.04c.11-.02.68.03.72-.02.06-.09.02-.6-.24-.54.33,0,.67.04,1-.06v-.72l-.68-.04v-1.12c.46-.11.68-.02.72-.02Z"/>
      <path class="cls-82" d="M8.94,11.11c.27,0,.53,0,.8,0,.26,0,.56-.03.8.04v.64c-.28,0-.56,0-.84,0-.29,0-.57,0-.86,0l-.06.36h-.56c0-.2-.04-.23-.04-.24,0-.26.08-.54.04-.8.24,0,.48,0,.72,0Z"/>
      <path class="cls-68" d="M7.58,11.11c0,.27,0,.53,0,.8,0,.16-.02.32-.04.48-.04,0-.08,0-.08.04h-.64c-.03-.42.02-.84,0-1.26.25-.04.51-.05.76-.06Z"/>
      <path class="cls-22" d="M13.82,3.47c-.01.36,0,.72,0,1.08-.28.01-.56.03-.84.04l-.04-1.08c.28,0,.59-.08.88-.04Z"/>
      <path class="cls-85" d="M9.7,9.19c.06.2.06.56.04.76-.01.11.03.22-.04.32-.27-.02-.54.04-.8-.06v-.96c.05-.11.54-.05.8-.06Z"/>
      <path class="cls-26" d="M11.14,7.55c0,.21,0,1.48-.06,1.52-.02.02-.52,0-.54-.02-.04-.06.03-1.3,0-1.5.04-.02.45.02.6,0Z"/>
      <path class="cls-129" d="M11.58,7.91c.09,0,.18-.03.24.06v1.16c-.21.1-.42,0-.64.02.06-.91-.22-1.31.4-1.24Z"/>
      <path class="cls-62" d="M15.02,5.31c0,.1.02.48,0,.5-.06.08-.57-.07-.56.1,0,0-.08-.15-.08-.16-.03-.37.02-.75,0-1.12.2,0,.49.03.64-.04,0,.24.02.46,0,.72Z"/>
      <g>
        <path class="cls-112" d="M7.94,9.23c0,.05.04.04.08.04v.94l.8.06s.08-.01.08.02c0,.24-.07.53-.06.78-.42,0-.84,0-1.26,0,.04-.4-.04-.8-.04-1.2,0-.19,0-.39,0-.58.07-.1.24-.05.4-.06Z"/>
        <path class="cls-112" d="M8.82,10.27l-.8-.06v-.94c.12,0,.77-.02.8.02,0,.33,0,.65,0,.98Z"/>
      </g>
      <path class="cls-84" d="M14.38,4.63c.02.37-.03.75,0,1.12-.78.19-.63-.03-.56-1.08.19,0,.37-.04.56-.04Z"/>
      <path class="cls-131" d="M9.74,11.11c-.27,0-.53,0-.8,0-.13-1.01-.08-.73.76-.84.01,0,.03,0,.04,0v.84Z"/>
      <path class="cls-99" d="M8.22,11.11c.04.26-.04.54-.04.8h-.6c0-.27,0-.53,0-.8.21-.01.43,0,.64,0Z"/>
      <g>
        <path class="cls-112" d="M15.1,2.15c-.12.2-.04.52-.04.8,0,.29.04.6.04.88,0,.23-.07.52-.08.76-.15.07-.44.04-.64.04-.19,0-.37.03-.56.04-.04,0-.26-.09-.72.02v1.12l.68.04v.72c-.33.1-.67.05-1,.06-.16,0-.32,0-.48,0-.11,0-.21,0-.32,0-.23,0-.75-.04-.8.06-.02.3.01.6.04.9,0,.01-.1.22-.02.28.05.03.46.08.34-.28.08.04.02.24.04.32-.62-.07-.34.33-.4,1.24-.28.02-.56.03-.84.04-.21,0-.42-.01-.64,0-.26.01-.75-.05-.8.06v.96c.26.1.53.04.8.06-.84.11-.89-.17-.76.84-.24,0-.48,0-.72,0-.21,0-.43-.01-.64,0-.25.01-.51.02-.76.06.02.42-.03.84,0,1.26l-.08-.02c.04-.42-.03-.84-.04-1.26,0-.04.04-.04.04-.08.28-.09.56,0,.84,0,.42,0,.84,0,1.26,0,0-.25.06-.54.06-.78,0-.03-.08-.02-.08-.02,0-.33,0-.65,0-.98-.03-.04-.68-.02-.8-.02-.04,0-.08.01-.08-.04.09,0,.19,0,.28,0,.22-.01.55.05.6-.06v-.94l.04-.04.02.96,1.56-.04c.16-.11-.03-1.49.1-1.56.03.2-.04,1.44,0,1.5.02.02.52.04.54.02.06-.04.05-1.3.06-1.52,0-.29-.05-.6-.04-.88,0-.26.03-.53.04-.8,0-.21-.06-.37-.04-.42.06-.1.15-.05.24-.06.69-.09.71.29.68-.72.13,0,.27,0,.4,0,.7-.04.53-.08.56-.08.28-.01.56-.03.84-.04.15,0,1.06.11,1.12.02.03-.79.06-1.53,0-2.28-.35-.07-.75.06-.72-.1.05,0,.11,0,.16,0,.21,0,.43-.03.64-.04.03,0,.05,0,.08,0Z"/>
        <path class="cls-39" d="M13.08,5.87s.6,0,.62.02,0,.6-.02.62c-.11.09-.46,0-.62.02.02-.11-.03-.62.02-.66Z"/>
      </g>
      <path class="cls-31" d="M15.1,3.83c0-.28-.04-.59-.04-.88.45,0,.49-.1.52.38.03.45-.04.57-.48.5Z"/>
      <path class="cls-133" d="M10.34,9.19v.72c-.19-.05-.48-.1-.6.04.02-.2.02-.56-.04-.76.22-.01.43,0,.64,0Z"/>
      <path class="cls-82" d="M12.78,6.63c.26-.06.3.45.24.54-.04.05-.61,0-.72.02v-.56c.16,0,.32,0,.48,0Z"/>
      <path class="cls-82" d="M15.02,1.71v.44c-.21,0-.43.03-.64.04.05-.68.04-.44.64-.48Z"/>
      <path class="cls-119" d="M12.3,6.63v.6h-.36c0-.2-.01-.4.04-.6.11,0,.21,0,.32,0Z"/>
      <path class="cls-11" d="M11.54,7.59c.12.36-.29.31-.34.28-.08-.06.02-.27.02-.28.11.01.29-.02.32,0Z"/>
      <path class="cls-127" d="M29.01,12.35c.12,0,.24,0,.36,0,0,.41.08.83.04,1.24,0,0-.02.05-.04.16-.22-.11-.61,0-.76,0-.19,0-.4-.08-.6-.04-.07-.2-.04-.46-.04-.68.6-.13.69.18.56-.6.06,0,.11-.08.12-.08.12,0,.24,0,.36,0Z"/>
      <path class="cls-63" d="M30.85,13.59v1.08c-.3-.03-.46.04-.48.04-.01,0-.01-.07-.28-.04,0-.1-.04-.08-.04-.08,0-.32.04-.67.04-1,.25,0,.51,0,.76,0Z"/>
      <path class="cls-118" d="M29.41,11.87c0,.16-.04.33-.04.48-.12,0-.24,0-.36,0v-.48c.13,0,.27,0,.4,0Z"/>
      <path class="cls-123" d="M30.93,13.63c.01.35-.02.69,0,1.04h-.08v-1.08c.11,0,.08.04.08.04Z"/>
      <path class="cls-82" d="M5.54,13.55l.08,1.16s-.09.11-.12.12c.04-.14-.29-.06-.64-.08,0-.34-.08-.7-.04-1.04,0,0,.04.05.04-.16h.68Z"/>
      <path class="cls-49" d="M5.5,14.83v.74c-.07.1-.32.05-.56.06,0,0,.03-.05-.12-.04-.04-.27.04-.63.04-.84.35.02.68-.06.64.08Z"/>
      <path class="cls-97" d="M19.01.88l-1.88-.04c0-.11-.02-.69.02-.72h1.88c.07.33-.02.72-.02.76Z"/>
      <path class="cls-112" d="M20.49,1.31c.1.03.5-.01.72,0-.02.24,0,.48.02.72l-1.52.04c-.01-.12-.04-.24-.06-.36,0-.04-.04-.04-.04-.08-.01-.22.11-.55.34-.64.63-.24.29.25.54.32Z"/>
      <path class="cls-112" d="M16.26,1c.31.15.08.84.1,1.12-1.05.1-.42-.24-.7-1-.13-.24.51-.16.6-.12Z"/>
      <path class="cls-100" d="M17.14,1.55c.02.08.02.13.12.12-.02.15-.06.34-.04.48h-.76c0-.1-.04-.08-.04-.08.03-.71.04-.49.72-.52Z"/>
      <path class="cls-102" d="M19.01,1.24s.11.2,0,.4c-.14-.02-1.04.03-1.08-.02-.01-.02,0-.36.02-.38.04-.03.9.02,1.06,0Z"/>
      <path class="cls-79" d="M16.46,2.15c0,.07,0,.13,0,.2-.23.2-.47.16-.76.16v-.36c.39,0,.77.05.72-.08,0,0,.04-.02.04.08Z"/>
      <path class="cls-94" d="M25.25,6.75c0,.21,0,.43,0,.64-.32-.13-.31.4-.16.48-.2.03-.35.04-.56.04-.11,0-.08-.04-.08-.04.14-.54-.04-.49-.04-.52,0-.04.13-.02.08-.68.4,0,.81-.05.76.08Z"/>
      <path class="cls-85" d="M25.29,8.47c0,.24-.03.48-.04.72h-.72c0-.23,0-.45,0-.68.25,0,.51.03.76-.04Z"/>
      <path class="cls-43" d="M25.25,7.87c0,.19.04.4.04.6-.25.07-.51.03-.76.04-.01,0-.03,0-.04,0l.04-.6c.21,0,.36,0,.56-.04.05,0,.11,0,.16,0Z"/>
      <path class="cls-82" d="M25.25,9.59c-.03.49.29.56-.66.52-.08-.04,0-.13-.02-.32,0-.07,0-.13,0-.2h.68Z"/>
      <path class="cls-13" d="M25.25,9.19c0,.12.01.18,0,.4h-.68c-.01-.13-.04-.24-.04-.32,0,0,0-.01,0-.04,0-.01,0-.03,0-.04h.72Z"/>
      <g>
        <path class="cls-49" d="M26.57,10.23v.84c-.23-.01-.58-.04-.76-.04-.03-.28.08-.44-.04-.4v-.04s.04,0,.04,0c.03-.05.07-.29.08-.36.22.03.3-.04.32-.04.02,0,.22.08.36.04Z"/>
        <path class="cls-5" d="M25.77,10.59v.04c-.03.62-.33.28-.36.28-.06-.21.04-.29.04-.32.11-.02.22.04.32,0Z"/>
        <path class="cls-91" d="M27.25,10.31v.8c-.23,0-.45-.03-.68-.04v-.84s.12-.06.12-.08c.69.28.44-.16.48-.92.01,0,.03,0,.04,0l.04,1.08Z"/>
        <path class="cls-82" d="M25.89,9.23c-.02.32.03.69,0,1,0,.07-.05.31-.08.36-.01-.08.03-.37-.02-.4-.02-.02-.29.01-.38,0,0-.3,0-.6,0-.9.08-.11.28-.05.48-.06Z"/>
        <path class="cls-91" d="M27.17,9.23c-.04.76.21,1.2-.48.92l.08-.92c.13,0,.27,0,.4,0Z"/>
        <path class="cls-82" d="M26.77,9.23l-.08.92s-.11.08-.12.08c-.14.04-.34-.04-.36-.04-.18-.69.26-.23.16-.96.13,0,.27,0,.4,0Z"/>
        <path class="cls-84" d="M26.37,9.23c.1.73-.34.27-.16.96-.02,0-.1.07-.32.04.03-.31-.02-.68,0-1,.16-.01.32,0,.48,0Z"/>
        <path class="cls-50" d="M25.81,10.59s-.03,0-.04,0c-.1.04-.21-.02-.32,0,0-.1-.04-.24-.04-.36,0-.01,0-.03,0-.04.09.01.35-.02.38,0,.05.03,0,.32.02.4Z"/>
      </g>
      <path class="cls-95" d="M25.25,7.39c0,.16,0,.32,0,.48-.05,0-.11,0-.16,0-.15-.08-.16-.61.16-.48Z"/>
      <path class="cls-112" d="M22.01,2.95h.56l.1.84h.82s.04-.01.04.04c.02.27-.02.55,0,.82.05.1.24.04.32.06-.34.29-.32-.32-.4.4-.02-.14.06-.39-.08-.44-.05-.02-.45,0-.6,0-.24,0-.48,0-.72,0h-.72v-.04c.09,0,.53.02.56-.02-.02-.13.02-.65,0-.68-.05-.07-.53.03-.64-.06-.02-.33.01-.67,0-1,.12,0,.42-.17.76.08Z"/>
      <path class="cls-82" d="M23.41,5.83c0,.29.02.55.04.84.02.31-.05.48-.04.5.48.43.57.11.66.1.09,0,.06.08.06.08-.11-.01-.08.04-.08.12-.74.19-.44-.18-.58-.24-.12-.05-.89.04-1.1.04-.3,0-.6,0-.9,0-.04-.03-.01-.5-.02-.6,1.18-.2,1.36.47,1.28-.76.05,0,.15-.08.16-.08.17-.01.35,0,.52,0Z"/>
      <path class="cls-82" d="M22.77,4.67l.04.54c.16-.03.43.05.5.02.11-.05.04-.45.06-.56.14.05.06.3.08.44-.02.21-.04.15-.04.16-.56-.08-.83.08-.52.56,0,0-.11.08-.16.08-.19,0-.43-.04-.64-.04,0-.2,0-.4,0-.6,0-.2.02-.4-.04-.6.24,0,.48,0,.72,0Z"/>
      <path class="cls-43" d="M24.49,6.67c.05.66-.08.64-.08.68-.09,0-.19.01-.28,0,0,0,.03-.09-.06-.08-.09,0-.18.33-.66-.1-.01-.02.06-.19.04-.5.35,0,.69,0,1.04,0Z"/>
      <path class="cls-97" d="M23.41,5.27s0,.38,0,.56c-.17,0-.35-.01-.52,0-.31-.48-.04-.64.52-.56Z"/>
      <path class="cls-82" d="M13.86,2.23v.52c-.14-.02-.79.02-.82,0-.02-.02-.03-.48-.02-.5.03-.04.72-.01.84-.02Z"/>
      <path class="cls-112" d="M27.25,11.07v-.76c.35,0,.69,0,1.04,0,.12,0,.26.03.36-.06l-.06.82h-1.34Z"/>
      <path class="cls-12" d="M5.02,27.94c0,.39,0,.77,0,1.16-.09-.02-.39.05-.44-.06-.02-.05-.02-.99,0-1.04.05-.11.35-.04.44-.06Z"/>
      <path class="cls-6" d="M20.53,2.11v.76c-.29,0-.59,0-.88,0v-.76c.29,0,.59-.01.88,0Z"/>
      <path class="cls-82" d="M21.25,2.87c-.18,0-.35.04-.52.04-.01,0-.04-.04-.2-.04v-.76c.23,0,.67-.04.72.06,0,.23,0,.47,0,.7Z"/>
      <path class="cls-48" d="M15.98,7.03c-.02.33.02.67,0,1-1.14-.13-.64.38-.78.48-.04.03-.56,0-.66,0l.04-.84c.08,0,.49.02.52-.02.03-.2-.04-.43-.04-.62,0-.64-.04-.41-.04-.44,0-.1.08-.12.08-.14,0-.11-.09-.56-.04-.64.04-.06.46,0,.5-.02.09-.06-.27-.27.8-.2l.06-.52c.34-.02.64.06.6-.08,0,.16.06,1.09.04,1.14-.05.11-.23.01-.28.12-.16.33.47.73-.78.62-.13.09-.02.15-.02.16Z"/>
      <g>
        <path class="cls-70" d="M14.58,14.27s0,.07.02.08c.46.11,8.22-.02,9.47.04l.06.88c-.02.28-.14.03-.08.2-2.55,0-5.1-.02-7.66,0-.34,0-.72.08-1.06.08v-.04c.1-.78-.27-.37-.96-.48-.04-.25.04-.55.04-.76.05,0,.11,0,.16,0Z"/>
        <path class="cls-44" d="M24.13,14.31c-.02.32.03.64,0,.96l-.06-.88c-1.26-.06-9.01.07-9.47-.04-.03,0-.02-.05-.02-.08,3.18,0,6.37.02,9.55.04Z"/>
      </g>
      <g>
        <path class="cls-34" d="M6.86,17.39c-.01.32,0,.64,0,.96-.01,1.01,0,2.03,0,3.04,0,2.77.09,5.53,0,8.3l.12.06c-.07,0-.19.05-.24.12.07-1.62.08-3.18.04-4.8,0-.18.04-1.44,0-1.5-.22,0-.49-.06-.52-.06-.07-.24.08-1.77.04-1.86-.04-.09-.32-.09-.36,0-.02.04-.03.76-.04.9h-.88s0-.05,0-.08c0-.17,0-.35,0-.52,0-.88.37-.24,1-.58v-1.92l.76-.04c.04-.47-.05-1.77,0-2,0-.03.05-.02.08-.02Z"/>
        <path class="cls-67" d="M6.26,23.5s-.14.11-.36,0c0-.3-.01-.68,0-.96,0-.14.02-.86.04-.9.04-.09.32-.09.36,0,.04.08-.11,1.62-.04,1.86Z"/>
      </g>
      <path class="cls-28" d="M12.3,7.23c.3-.04.68.04.72.04v.64c-.15.06-.39.05-.56.04-.18,0-.35-.03-.52-.06,0-.22,0-.44,0-.66h.36Z"/>
      <path class="cls-88" d="M10.58,10.31c.02.26-.01.53,0,.8,0,0,0,.04-.04.04-.24-.07-.54-.04-.8-.04v-.84c.28.01.56.01.84.04Z"/>
      <path class="cls-129" d="M13.02,8.55c0,.24,0,.44-.04.68h-.52v-.72l.56.04Z"/>
      <path class="cls-2" d="M10.34,9.91c.06.01.21-.03.24.02,0,.13,0,.25,0,.38-.28-.03-.56-.03-.84-.04-.01,0-.03,0-.04,0,.07-.1.03-.21.04-.32.12-.14.41-.09.6-.04Z"/>
      <path class="cls-20" d="M13.02,7.95c0,.19,0,.37,0,.56,0,.01,0,.03,0,.04l-.56-.04v-.56c.17,0,.41.02.56-.04v.04Z"/>
      <path class="cls-24" d="M12.46,9.47l.04.04c.03.27-.04.27-.04.28-.26.02-.54-.02-.8,0-.09-.13-.01-.22,0-.32h.8Z"/>
      <path class="cls-7" d="M12.46,9.23v.24h-.8s-.1-.16-.02-.24c.11-.1.73.05.82-.12v.12Z"/>
      <path class="cls-112" d="M14.58,7.67l-.04.84c-.51.01-1.01,0-1.52,0,0-.19,0-.37,0-.56.9.1.5-.25.66-.32.04-.02.76.04.9.04Z"/>
      <path class="cls-32" d="M12.98,9.23c-.03.25.18.31-.48.28l-.04-.04v-.24h.52Z"/>
      <path class="cls-17" d="M7.5,12.75s.04.04.04.28c0,.23,0,.45,0,.68-.03,0-.36.08-.68.04,0-.05-.08-.19-.08-.2,0-.04.08-.48.04-.74l.68-.06Z"/>
      <path class="cls-49" d="M6.18,13.55c.02.38-.03.78,0,1.16-.16.02-.47-.03-.56,0l-.08-1.16h.64Z"/>
      <path class="cls-39" d="M7.66,13.75c-.07.12-.04.27-.04.4h-.74s0-.32-.02-.4c.32.04.65-.04.68-.04,0,0-.04.04.12.04Z"/>
      <path class="cls-66" d="M8.78,12.15c-.16.21-.03.41-.04.82,0,.04-.12.11-.04.78h-.08s.09-.24.04-.34c-.05-.11-.3-.04-.44-.06-.22-.76.61.11.44-.86-.57,0-.41-.1-.44-.1,0-.08,0-.16,0-.24h.56Z"/>
      <path class="cls-82" d="M8.22,13.35c.14.02.39-.05.44.06.05.1-.04.32-.04.34-.32,0-.64,0-.96,0-.16,0-.11-.04-.12-.04,0-.23,0-.45,0-.68.8-.16.52.14.6.34.03.08.08-.02.08-.02Z"/>
      <g>
        <path class="cls-82" d="M4.86,17.79c0,.13,0,.27,0,.4l-.68.06v.66c-.1,0-.63.03-.66.04-.22.1.32.56-.66.44l-.04-1.22s.45-.1.52-.1c.01,0-.05.03.2.04.03,0,.21.08.22.08.8,0,1.21,0,.98-.4h.12Z"/>
        <path class="cls-1" d="M4.86,18.19c0,.19.08.5.04.74-.5.09-.68-.02-.72-.02v-.66l.68-.06Z"/>
        <path class="cls-124" d="M4.82,17.35c0,.05.04.04.04.04,0,.13,0,.27,0,.4h-.12c-.85.11-.35-.32-.64-.4,0-.05.04-.02.08-.08l.64.04Z"/>
        <path class="cls-82" d="M3.46,15.63c.02.14-.02.79,0,.82.03.05.17,0,.22.02.03.01.02.08.02.08-.02.26.03.55,0,.8-.01.13.03.29-.16.36-.06.02-.14,0-.2-.04,0-.06.02-.33-.02-.36-.02-.01-.38.02-.42-.06-.04-.07,0-1.42.02-1.62.18,0,.36,0,.54,0Z"/>
        <path class="cls-13" d="M4.74,15.63c.13-.04.08.46.08.88,0,.28,0,.56,0,.84l-.64-.04c.12-.21,0-.62,0-.84,0-.27.08-.56.04-.84.17,0,.35,0,.52,0Z"/>
        <path class="cls-91" d="M4.22,15.63c.04.28-.04.57-.04.84-.47-.05-.45.08-.48.08,0,0,.01-.07-.02-.08-.05-.02-.19.03-.22-.02-.02-.03.02-.67,0-.82.25-.01.51,0,.76,0Z"/>
        <path class="cls-14" d="M3.54,17.71v.4c-.25,0-.19-.04-.2-.04,0-.13,0-.27,0-.4.06.03.14.06.2.04Z"/>
        <path class="cls-73" d="M4.82,15.59c.15,0,.11.04.12.04-.15-.03-.05.45-.08.84,0,0,0,.04-.04.04,0-.42.05-.92-.08-.88,0,0-.03-.04.08-.04Z"/>
        <path class="cls-56" d="M4.1,17.39c.29.08-.22.51.64.4.23.41-.18.4-.98.4-.01,0-.19-.08-.22-.08v-.4c.19-.07.15-.23.16-.36.12.09.28,0,.4.04Z"/>
        <path class="cls-79" d="M4.18,16.47c0,.22.12.63,0,.84-.04.06-.08.03-.08.08-.12-.03-.28.05-.4-.04.03-.25-.02-.54,0-.8.03,0,0-.13.48-.08Z"/>
      </g>
      <path class="cls-1" d="M19.05,3.55c0,.12-.04.24,0,.36-.03,0-.06.06-.16.04-.07-.37-.29.08-.46-.44-.2.09-.59,0-.64.04-.17.12.39.21-.78.28-.02,0-.1-.06-.48-.04-.19-.71.67.34.54-1,1.25.1.69-.25.84-.36.04-.03.92.02,1.08,0,0,.37.04.75.06,1.12Z"/>
      <path class="cls-129" d="M21.29,4.63s.03,0,.04,0v1.24c-.09,0-.52.02-.54,0-.06-.04.02-.44-.04-.48-.21-.15-.61.46-.5-.8.04,0,.04-.04.08-.04,0,0,.03.08.06.08.3,0,.6,0,.9,0Z"/>
      <path class="cls-129" d="M24.05,7.47c0,.13-.02.29.04.4-.01,0-.03,0-.04,0-.17,0-.35.03-.52.04-.36.01-1.1,0-1.16,0v-.64c.21,0,.98-.09,1.1-.04.14.06-.16.43.58.24Z"/>
      <path class="cls-66" d="M22.09,5.87c.21,0,.45.05.64.04.08,1.23-.1.56-1.28.76-.02-.25-.07-.5-.04-.76.21,0,.46-.04.68-.04Z"/>
      <path class="cls-56" d="M17.02,3.83c0,.28,0,.56,0,.84h-.56s0-.05,0-.08c.01-.08,0-.19,0-.28,0-.16,0-.32,0-.48.11,0,.08-.04.08-.04.38-.02.46.04.48.04Z"/>
      <path class="cls-40" d="M19.61,3.95c0,.09.07.3,0,.64-.23,0-.47,0-.7,0-.05-.04,0-.53-.02-.64.1.02.13-.04.16-.04.18,0,.38.08.56.04Z"/>
      <path class="cls-39" d="M22.09,5.27c0,.2,0,.4,0,.6-.22,0-.47.05-.68.04,0,0,.03-.04-.08-.04v-.6h.76Z"/>
      <path class="cls-80" d="M20.33,4.55s-.04.04-.08.04c-.21,0-.43,0-.64,0,.07-.34,0-.55,0-.64,0-.01,0-.03,0-.04.21.1.65,0,.7.04.05.04,0,.5.02.6Z"/>
      <path class="cls-110" d="M16.46,4.67h.56c0,.11,0,.21,0,.32.04.14-.26.06-.6.08-.02-.08-.02-.17-.12-.2.04,0,.16-.19.16-.2Z"/>
      <path class="cls-132" d="M28.53,12.43c.13.78.04.47-.56.6,0-.22.04-.43.04-.64.16-.04.49.04.52.04Z"/>
      <path class="cls-46" d="M27.93,11.91c.04.62,0,.47-.64.48,0-.05-.04-.04-.04-.04,0-.12,0-.24,0-.36.22,0,.45-.18.68-.08Z"/>
      <path class="cls-52" d="M29.01,11.87v.48c-.12,0-.24,0-.36,0,.01-.13-.02-.37,0-.42.04-.1.27-.05.36-.06Z"/>
      <path class="cls-45" d="M30.33,30.98c.01-1.92.04-3.84.04-5.76l.76-.02q.02,2.86.04,5.72l-.84.06Z"/>
      <path class="cls-67" d="M30.29,21.5c.08-.06.12.74.12,1.04,0,.34-.04.69-.04,1.04-.09,0-.14.04-.24.04-.09,0-.4-.11-.52,0h-.04s0-.03,0-.04c0-.53,0-1.07,0-1.6.19.12.02,1.45.08,1.54.02.02.35.03.38.02.16-.07-.04-1.78.02-2.04.09,0,.21.01.24,0Z"/>
      <path class="cls-75" d="M32.33,17.43s-.09.05-.08.32l-.56.04c0-.16.13-.45-.04-.64.05,0,.03-.07.1-.12.68.05.44.03.5.34,0,.03.08.05.08.06Z"/>
      <path class="cls-82" d="M32.97,17.43c.08.01.13-.01.2.04v.6c-.08,0-.46,0-.48,0v-.64c.06,0,.27,0,.28,0Z"/>
      <path class="cls-82" d="M32.25,17.75c0,.13,0,.27,0,.4-.52-.07-.55.19-.56-.36l.56-.04Z"/>
      <path class="cls-53" d="M24.49,8.51s.03,0,.04,0c0,.23,0,.45,0,.68,0,.01,0,.03,0,.04h-.94c-.1-.08-.05-.34-.06-.6,0-.1.35-.11.48-.12.16-.01.32,0,.48,0Z"/>
      <path class="cls-70" d="M24.05,7.87l-.04.64c-.13,0-.47.02-.48.12,0-.24,0-.48,0-.72.17,0,.35-.04.52-.04Z"/>
      <path class="cls-34" d="M30.05,21.5c-.06.26.14,1.97-.02,2.04-.03.01-.36,0-.38-.02-.06-.09.11-1.42-.08-1.54,0-.27,0-.53,0-.8.21.11-.14.34.48.32Z"/>
      <path class="cls-121" d="M29.37,13.75c-.02.13.05.35-.06.4l-.7.04v-.44c.15,0,.54-.11.76,0Z"/>
      <path class="cls-60" d="M30.13,23.62c0,1.73.04,3.46,0,5.2h-.56c0-.17,0-.35,0-.52,0-1.23,0-2.45,0-3.68l.04-1c.12-.11.43,0,.52,0Z"/>
      <path class="cls-82" d="M20.57,3.27c.02.13-.02.59,0,.62.05.07.48-.04.68.06.01.23.14.44.04.68-.3,0-.6,0-.9,0-.03,0-.05-.08-.06-.08-.02-.1.03-.56-.02-.6-.05-.04-.49.06-.7-.04,0-.37-.04-.34-.04-.36,0-.02.16-.26.16-.28.24-.03.65.03.84,0Z"/>
      <path class="cls-1" d="M16.3,4.87c.1.03.1.12.12.2l-.06.52c-1.07-.07-.71.14-.8.2-.04.03-.46-.04-.5.02-.05.08.04.53.04.64,0,.02-.08.04-.08.14-.83.05-.48-.03-.56-.68-.01-.17.5-.02.56-.1.02-.02,0-.4,0-.5.98,0,.46-.33.62-.44.03-.02.63,0,.66,0Z"/>
      <path class="cls-102" d="M17.22,2.15c-.02-.14.02-.33.04-.48.83-.25.56.73.5.76-.26.13-.5-.02-.54-.28Z"/>
      <path class="cls-98" d="M20.53,2.87c.16,0,.19.04.2.04-.01.1.02.31,0,.34-.02.04-.12.01-.16.02-.19.03-.6-.03-.84,0,0-.02-.12.11-.08-.4.29,0,.59,0,.88,0Z"/>
      <path class="cls-42" d="M16.42,2.95s.12.33-.02.44c-1.17.1-.71-.27-.7-.52-.04.14.35.06.72.08Z"/>
      <path class="cls-102" d="M16.46,2.35c0,.21-.03.4-.04.6-.37-.02-.76.06-.72-.08,0-.12,0-.24,0-.36.29,0,.53.04.76-.16Z"/>
      <g>
        <path class="cls-89" d="M16.46,3.83c0,.16,0,.32,0,.48-.29-.04-.85-.17-.88.2-.02-.07,0-.66.02-.68.29-.01.57.02.86,0Z"/>
        <path class="cls-55" d="M16.46,4.31c0,.09.01.2,0,.28l-.86.04s-.01-.08-.02-.12c.03-.37.59-.24.88-.2Z"/>
      </g>
      <path class="cls-22" d="M19.57,3.55s.04-.01.04.36c0,.01,0,.03,0,.04-.18.04-.38-.04-.56-.04-.04-.12,0-.24,0-.36h.52Z"/>
      <path class="cls-13" d="M8.22,12.39s-.13.09.44.1c.17.97-.66.1-.44.86,0,0-.05.1-.08.02-.08-.19.2-.5-.6-.34,0-.24-.04-.27-.04-.28,0-.02.11-.23,0-.32h-.04s.04-.05.08-.04c.29.06.42-.03.68,0Z"/>
      <path class="cls-39" d="M7.46,12.43h.04c-.03.43-.18.25-.66.28-.08-.21-.02-.27-.02-.28h.64Z"/>
      <path class="cls-129" d="M15.06,7.03c0,.19.07.42.04.62-.03.04-.44.02-.52.02-.14,0-.86-.06-.9-.04-.15.07.24.42-.66.32v-.68c1.02-.03.58-.19.7-.28.08-.05,1.13.05,1.34.04Z"/>
      <path class="cls-85" d="M8.18,11.91s.03.04.04.24c0,.08,0,.16,0,.24-.26-.03-.39.06-.68,0,.02-.16.04-.32.04-.48h.6Z"/>
      <path class="cls-104" d="M24.45,7.87s-.03.04.08.04l-.04.6c-.16,0-.32-.01-.48,0l.04-.64s.03,0,.04,0c.12,0,.24,0,.36,0Z"/>
      <path class="cls-39" d="M24.13,7.35c.09.01.19,0,.28,0,0,.03.18-.02.04.52-.12,0-.24,0-.36,0-.06-.11-.05-.27-.04-.4,0-.08-.03-.13.08-.12Z"/>
      <path class="cls-13" d="M21.25,2.87c.01.33-.02.67,0,1,0,.03,0,.05,0,.08-.2-.1-.63,0-.68-.06-.02-.03.02-.49,0-.62.04,0,.14.02.16-.02.02-.03-.01-.24,0-.34.17,0,.34-.04.52-.04Z"/>
      <path class="cls-93" d="M22.05,4.67c.06.2.04.4.04.6h-.76v-.6h.72Z"/>
      <path class="cls-43" d="M21.33,4.63s-.03,0-.04,0c.1-.24-.03-.45-.04-.68,0-.03,0-.05,0-.08.11.09.59,0,.64.06.02.03-.02.55,0,.68-.03.04-.47.02-.56.02Z"/>
      <path class="cls-13" d="M23.37,4.67c-.02.11.05.51-.06.56-.07.03-.34-.05-.5-.02l-.04-.54c.15,0,.55-.02.6,0Z"/>
      <g>
        <path class="cls-60" d="M6.26,23.5s.3.06.52.06c.04.06,0,1.32,0,1.5-.21,0-.43,0-.64,0-.13,0-.18-.04-.24,0,0-.52-.01-1.04,0-1.56.22.11.34,0,.36,0Z"/>
        <g>
          <path class="cls-60" d="M5.9,22.54c-.01.28,0,.66,0,.96-.01.52,0,1.04,0,1.56,0,.25-.06,2.02.02,2.08,0,0,.2.01.22-.02.06-.08.01-1.8,0-2.06.21,0,.43,0,.64,0,.04,1.62.03,3.18-.04,4.8-.02.4.04.81-.04,1.2-.57,0-1.15,0-1.72,0,.03-.66.04-1.3.04-1.96,0-.39,0-.77,0-1.16,0-1.8.02-3.6,0-5.4h.88Z"/>
          <path class="cls-60" d="M5.96,29.1l.74.06-.06,1.82-.7-.02.02-1.86Z"/>
        </g>
        <path class="cls-60" d="M6.14,25.06c.01.26.06,1.97,0,2.06-.02.03-.21.03-.22.02-.08-.06-.02-1.82-.02-2.08.06-.04.11,0,.24,0Z"/>
      </g>
      <g>
        <path class="cls-108" d="M22.89,10.59c.16.02.35-.01.52,0,.07,0,.37-.02.4.02l.02.78c1.19-.14-.15.88,1.1.74-.14,1.03.41.44.52.68.02.04.04.71.04.82,0,.09.02.61-.02.64-.03.02-.71.05-.7-.12v-.5l-.08-.06c-.23.04-.46-.03-.68-.04.03-.41,0-.32-.48-.32-.03,0-.05,0-.08,0-.02-.13.02-.63,0-.66-.03-.04-.47-.02-.56-.02-.04,0-.08,0-.12,0-.02-.17.02-.4,0-.56-.01-.08.03-.14-.06-.2-.34.1-.55,0-.58,0l-.06-.68c-.13-.06-.52.04-.66.04-.08,0-.15,0-.24,0,.13-.23.07-.48.08-.74-.07-.1-.2-.05-.32-.06-.02-.1.03-.52-.02-.56-.03-.02-.67.02-.82,0,0-.26.04-.53-.06-.6-.25-.04-.63.04-.66.04-.03,0-.04,0-.04,0-.22,0-.45-.04-.68-.04-.29,0-.59,0-.88,0-.22,0-.79-.04-.84.06-.04.55.04,1.11.04,1.66,0,.28-.08.59-.04.88h-.04c0-.23,0-.47,0-.7-.02-.04-.29-.02-.36-.02-.13,0-.26-.03-.32.06,0,.21,0,.41,0,.62l-.04-.7-.66-.02-.02.76s-.05,0-.08,0c-.23,0-.75-.04-.8.06,0,.25-.01.49.04.74-.47-.21-.24.5-.24.72,0,.31,0,.61,0,.92,0,.01,0,.03,0,.04-.96,0-4.27.24-4.4.06-.02-.03-.02-.62.06-.66l1.1-.02c.02-.15-.03-1,0-1.04.07-.1.36.28.28-.72,1.04.06.5-.37.64-.56.13-.18.66.43.52-.74.05-.17.58-.02.64-.1.06-.09-.19-.9.34-.66.15.07-.09.79.32.6.16-.07-.03-.76.08-.8l.7.02c.05-1-.24-1.18.54-1.1-.02-.74.36-.28.74-.52.02-.33-.02-.67,0-1,.37-.41,1,.37.84-.74.73-.14-.32-.9.94-.74l.02-.9c1.13-.3-.01.77,1.1.58-.06.87.36.36.46.58.17.39-.43.62.6.68-.14,1.21.39.58.62.74.18.13-.4.76.64.6.13.06.01.53.06.62.01.02.42-.09.48.04-.15,1.03.44.47.56.64.03.04-.02.57,0,.6.15.22.45-.35.36.84.03.04.18.01.24.02Z"/>
        <path class="cls-61" d="M26.01,14.35c-.41.04-.83-.04-1.24-.04v-.16c-.01.17.67.14.7.12.04-.03.02-.55.02-.64l.8.02v.68s-.22.01-.28.02Z"/>
        <path class="cls-86" d="M23.41,10.59c-.17-.01-.36.02-.52,0,.01-.22-.02-.46,0-.68-.04-.18.48-.15.52-.06.03.06-.02.56,0,.74Z"/>
        <g>
          <path class="cls-72" d="M21.41,11.15c.02.13-.02.63,0,.66.03.04.54.02.64.02,0,.11,0,.21,0,.32,0,.02-.09.17-.02.4.25,0,.49,0,.74,0,.04,0,.08,0,.12,0-.29.05-.12.42-.16.68-1.26,0-1.46.35-1.36-.62-.65-.23-.46.09-.48.6-.05.11-.44.05-.68.06-.14,0-.71-.02-.74,0-.06.03-.05.34-.08.36-.08.05-1.6.04-1.84.04-1.04,0-.45-.23-.64-.36-.07-.05-1.54.04-1.78,0h-.12c.04-.13-.04-.38-.04-.4.01-.44.07-.35.44-.36.23,0,.48,0,.72,0,.22,0,.45-.04.66-.04,0,0,.1.08.14.08.79,0,1.59-.11,2.38,0,.14-.24.02-.6.02-.8.18,0,.43.08.66.04.11-.04.1-.56.1-.68.36,0,.72.01,1.08,0,.09,0,.16,0,.24,0Z"/>
          <path class="cls-120" d="M20.21,13.27l.02.96h4.44l.02-.64.08.06v.66c-.21,0-.43,0-.64,0-3.18-.02-6.37-.05-9.55-.04-.05,0-.11,0-.16,0,0-.01,0-.03,0-.04l.72-.02v-.9c.24.04,1.71-.05,1.78,0,.19.13-.4.37.64.36.24,0,1.76.01,1.84-.04.03-.02.02-.33.08-.36.03-.02.6,0,.74,0Z"/>
          <path class="cls-120" d="M22.73,13.23c.24,0,.48,0,.72,0,.03,0,.05,0,.08,0-.08.55.16.31.48.32.22,0,.45.08.68.04l-.02.64h-4.44l-.02-.96c.24-.01.63.05.68-.06.02-.51-.17-.83.48-.6-.1.97.1.62,1.36.62Z"/>
          <path class="cls-83" d="M20.93,10.35c.12.01.25-.04.32.06-.01.26.05.51-.08.74-.36.01-.72,0-1.08,0,0-.25-.08-.51-.04-.76.01,0,.03,0,.04,0,.25,0,.66-.06.84-.04Z"/>
          <path class="cls-103" d="M15.42,11.79v.76c-.37,0-.43-.08-.44.36-.33.05-.26-.06-.32-.32-.05-.25-.04-.49-.04-.74.05-.1.57-.05.8-.06Z"/>
          <path class="cls-10" d="M15.02,13.31h.12v.9l-.72.02c0-.31,0-.61,0-.92h.6Z"/>
          <path class="cls-10" d="M15.5,11.79c.24,0,.48,0,.72,0,0,.4.05.81-.08.76-.24,0-.49,0-.72,0v-.76s.05,0,.08,0Z"/>
          <path class="cls-72" d="M16.9,11.79c0,.27-.13.56.04.8-.04,0-.13-.08-.14-.08-.21,0-.44.04-.66.04.13.05.07-.35.08-.76.09,0,.57.02.6-.02.05-.07.06-.86-.28-.7.07,0,.33-.02.36.02,0,.23,0,.47,0,.7Z"/>
          <path class="cls-30" d="M16.22,11.75s0,.03,0,.04c-.24,0-.48,0-.72,0l.02-.76.66.02.04.7Z"/>
          <path class="cls-83" d="M22.13,11.79s.02.04-.08.04c-.1,0-.61.02-.64-.02-.02-.03.02-.53,0-.66.14,0,.53-.1.66-.04l.06.68Z"/>
          <path class="cls-59" d="M23.45,13.23c-.24,0-.48,0-.72,0,.04-.26-.13-.63.16-.68.09,0,.53-.02.56.02.02.03-.02.53,0,.66Z"/>
          <path class="cls-30" d="M20.93,10.35c-.18-.02-.59.05-.84.04,0-.2,0-.4,0-.6.14.02.79-.02.82,0,.05.04,0,.46.02.56Z"/>
          <path class="cls-120" d="M16.54,11.07c.34-.16.33.63.28.7-.03.04-.51.02-.6.02,0-.01,0-.03,0-.04,0-.21,0-.41,0-.62.06-.09.19-.06.32-.06Z"/>
          <path class="cls-59" d="M14.66,12.59c.06.26,0,.37.32.32,0,.02.08.27.04.4h-.6c0-.22-.23-.93.24-.72Z"/>
          <path class="cls-83" d="M22.77,11.99c.02.16-.02.39,0,.56-.25,0-.49,0-.74,0-.07-.23.02-.38.02-.4.32-.02.48.08.72-.16Z"/>
          <path class="cls-18" d="M22.77,11.99c-.24.24-.4.14-.72.16,0-.1,0-.21,0-.32.1,0,.08-.04.08-.04.03,0,.24.1.58,0,.09.06.05.12.06.2Z"/>
          <path class="cls-19" d="M24.01,13.55c-.32-.01-.56.23-.48-.32.48,0,.51-.09.48.32Z"/>
          <g>
            <path class="cls-65" d="M18.65,9.19c-.01.25.02.51,0,.76,0,.13-.03.26-.04.4-.02.48-.07.96-.04,1.44-.29,0-.59,0-.88,0,.01-.29-.02-.59,0-.88,0-.01.08-.21.08-.22.02-.5-.02-1,0-1.5.29,0,.59,0,.88,0Z"/>
            <path class="cls-28" d="M16.94,11.79h.76c.29,0,.59,0,.88,0,.25,0,.51,0,.76,0,0,.2.12.56-.02.8-.79-.11-1.59,0-2.38,0-.17-.24-.04-.53-.04-.8h.04Z"/>
            <path class="cls-87" d="M17.77,9.19c-.02.5.02,1,0,1.5,0,.01-.08.21-.08.22h-.72c0-.55-.08-1.11-.04-1.66.05-.1.62-.05.84-.06Z"/>
            <path class="cls-72" d="M20.09,9.79c0,.2,0,.4,0,.6-.01,0-.03,0-.04,0-.19,0-.44-.08-.64-.04l-.04-1.12s.41-.08.66-.04c.1.07.06.34.06.6Z"/>
            <path class="cls-12" d="M17.69,10.91c-.02.29.01.59,0,.88h-.76c-.04-.29.04-.6.04-.88h.72Z"/>
            <path class="cls-127" d="M19.33,9.23c.04.24-.03.49-.04.72h-.64c.02-.25-.01-.51,0-.76.23,0,.46.03.68.04Z"/>
            <path class="cls-38" d="M19.37,9.23l.04,1.12s.01.05-.08.04l-.04-.04c.1-.26,0-.38,0-.4,0-.23.08-.48.04-.72,0,0,.01,0,.04,0Z"/>
            <path class="cls-28" d="M20.05,10.39c-.04.25.03.51.04.76,0,.12,0,.64-.1.68-.23.04-.48-.04-.66-.04,0-.47,0-.93,0-1.4.09.01.08-.04.08-.04.2-.04.45.03.64.04Z"/>
            <path class="cls-68" d="M19.29,10.35l.04.04c0,.47,0,.93,0,1.4-.25,0-.51,0-.76,0-.03-.48.02-.96.04-1.44h.68Z"/>
            <path class="cls-119" d="M19.29,9.95s.1.14,0,.4h-.68c0-.14.03-.27.04-.4h.64Z"/>
          </g>
        </g>
      </g>
      <g>
        <path class="cls-5" d="M29.57,31.06c.25.04.52-.04.56-.04.07,0,.13,0,.2,0,.3,0,.62.11.92,0,0,.05.03.03.04.04-.02.2.03.61,0,.72,0,.02-.04.08-.04.08-.4,0-.8,0-1.2,0-.75-.01-1.49-.03-2.24-.04-.25,0-.51,0-.76,0-7.36-.04-14.71.03-22.07,0,0-.19,0-.37,0-.56.17-.02.02.42.1.48.04.03.74.03.88.04,1.95.1,6.82,0,9.19,0,.03,0,0-.08.06-.08,0,0,.08.08.1.08,2.03,0,4.05,0,6.08,0l.08-.68.78-.04c.57.02,1.15,0,1.72,0,.11,0,.21,0,.32,0,1.05,0,2.11.02,3.16,0,.75.12,1.96-.03,1.2-.06-.07-.88.12-.55.78-.62l.02.66s.08.01.12.02Z"/>
        <path class="cls-108" d="M28.65,16.11c.02.49-.05,1.52-.04,1.6-.88-.25-.7-.53-.74-.56-.08-.05-.33.2-.44-.44-.72.22-.36-.36-.48-.44-.02-.02-.36,0-.46,0-.01,0-.03,0-.04,0v-.8s.03,0,.04,0c.7,0,1.4-.04,2.1-.04.1.05.05.46.06.68Z"/>
        <path class="cls-54" d="M29.57,17.67c0,.37,0,.75,0,1.12.02-.18-.45.01-.52-.14-.03-.06.02-.33,0-.36-.04-.05-.24.01-.28-.04-.03-.05.08-.33-.12-.28.02-.28-.04-.25-.04-.26,0-.08.06-1.11.04-1.6,1.2-.03.89-.01.92,1.56Z"/>
        <path class="cls-5" d="M7.98,31.02c2.1,0,4.21.08,6.32.04h.88c0,.2-.03.45.04.64-.06,0-.03.08-.06.08-2.38,0-7.24.1-9.19,0-.13,0-.84-.01-.88-.04-.08-.06.07-.5-.1-.48,0-.07,0-.13,0-.2.57,0,1.15,0,1.72,0,.15,0,.31-.04.44-.04.28,0,.56,0,.84,0Z"/>
        <path class="cls-58" d="M30.13,28.82c-.02.73-.1,1.47,0,2.2-.04,0-.31.08-.56.04.04-.45-.04-.91-.04-1.36,0-.29.04-.59.04-.88h.56Z"/>
        <path class="cls-112" d="M29.21,29.7h.32c0,.45.08.91.04,1.36-.04,0-.1.02-.12-.02l-.02-.66c-.66.07-.85-.26-.78.62.76.03-.45.18-1.2.06.17,0,1.11.04,1.16-.06v-1.26c.19,0,.4-.08.6-.04Z"/>
        <path class="cls-105" d="M24.29,31.06c-.11,0-.21,0-.32,0-.16-.31.13-.39.22-.32.06.04-.05.28.1.32Z"/>
        <path class="cls-83" d="M24.05,15.47c.59,0,1.17,0,1.76,0v.72c-.2,0-.87.04-1,.12-.06-.24-.5-.07-.74-.12.14,1.19-.87.11-.62.96-.15.33-.03-.23-.1-.28-.04-.03-.44.07-.5-.02.2-.89-.05-.67-1.24-.62,0-.04.02-.1-.02-.12-.03-.01-.61-.02-.64,0-.05.04,0,.46-.02.56-.19,0-.37,0-.56,0,.23-.69-.89-.69-.68-.04-.27,0-.61.08-.88.08-.13,0-.29-.04-.44-.04.03-.7-.01-.47-.48-.52-.14-.01-.3,0-.44,0-.44,0-.88.03-1.32.04-.34,0-.67.03-1,.04-.25,0-.51,0-.76,0,.01-.21,0-.43,0-.64.31-.07.64-.04.96-.04.34,0,.72-.08,1.06-.08,2.55-.02,5.1,0,7.66,0Z"/>
        <path class="cls-30" d="M7.62,21.38c.16.88-.18,5.89-.04,6.26.05.13.21-.02.28.06-.01.21,0,.41,0,.62l.08.02c.12.08.69.04.88.04.16,0,.32,0,.48,0-.02.15.02.56,0,.6-.42,0-.84,0-1.26,0l-.02.76-.04.04c-.24-.05-.78-.07-1-.04l-.12-.06c.09-2.77,0-5.53,0-8.3h.76Z"/>
        <path class="cls-30" d="M8.78,24.42c0,.19-.08,1.3-.04,1.38.14.02.11.06.12.06-.12-.05-.1.52-.08.54.04.05.46,0,.56.02,0,.21,0,.43,0,.64-.04,0-.08,0-.12,0-.12,0-.24-.02-.36.02-.03.04,0,.48,0,.58,0,.11-.04.08-.04.08.03-.15-.43-.05-.82-.08l-.06.68-.08-.02c0-.21-.01-.41,0-.62,0-.08.12-.08.12-.1-.05-1.07-.02-2.15.04-3.22.89.14.55.03.68-.64,0,.21.08.47.08.68Z"/>
        <path class="cls-108" d="M7.62,21.38h-.76c0-1.01-.01-2.03,0-3.04l.72.02q.02,1.51.04,3.02Z"/>
        <path class="cls-120" d="M14.3,16.67s.13,0,.08.64c-.03,0-.11.05-.16.06l-.02.66c-.13.02-.73-.04-.78.02-.01.01-.05.31-.04.32.05.12.31.03.36.06.16.46-.46.35-1,.26-.18-1.13.56-.45.68-.72v-.7c.09,0,.48.01.5,0,.15-.11-.22-.74.38-.6Z"/>
        <path class="cls-30" d="M12.06,18.15v1.08s-.05.09-.68.12c-.23.01-.49-.04-.72,0,.02-.22-.01-.44,0-.66.54-.21.64.2.72-.38.3.01.44.02.68-.16Z"/>
        <path class="cls-83" d="M13.42,17.27v.7c-.12.27-.86-.41-.68.72.54.09,1.16.2,1-.26.07.04.05.34.02.36-.04.03-.86.04-.98.04-.07,0-.38-.07-.72-.04v-.76c.09,0,.61-.04.64-.06.09-.07,0-.65.06-.7.22,0,.44,0,.66,0Z"/>
        <path class="cls-83" d="M11.38,19.34v1.12c-.05.31-.08.17-.72.2,0-.45-.03-.86,0-1.32.23-.04.49.01.72,0Z"/>
        <path class="cls-10" d="M9.94,21.14c.01.25,0,.51,0,.76-.29.03-.49-.04-.52-.04.04-.24-.05-1.74,0-1.82.02-.03.46-.03.48,0,.03.04.03.93.04,1.1Z"/>
        <path class="cls-83" d="M15.14,16.23c.07.77-.39.07-.28,1.06-.1.14-.46.02-.48.02.05-.63-.08-.61-.08-.64,0-.03.08-.38.08-.44.25,0,.51,0,.76,0Z"/>
        <path class="cls-120" d="M10.62,21.14c0,.11.02.71,0,.74-.05.07-.51-.04-.64.06,0,0-.04.01-.04-.04,0-.25.01-.51,0-.76h.68Z"/>
        <path class="cls-103" d="M8.7,23.7s0,.03,0,.04c-.13.67.21.78-.68.64.01-.23.01-.44.04-.68h.64Z"/>
        <path class="cls-10" d="M9.34,21.9s0,.29,0,.36l-.64-.06c.02-.18-.03-.66,0-.72.04-.09.44-.07.46-.06.06.04,0,.41.02.46.03.04.15,0,.16.02Z"/>
        <path class="cls-126" d="M9.26,22.62c.02.83-.03.65-.48.68-.17-1.02.12-.66.48-.68Z"/>
        <path class="cls-115" d="M8.7,23.3c.1.31,0,.38,0,.4h-.64c0-.08-.02-.37.02-.4.21,0,.41.01.62,0Z"/>
        <path class="cls-3" d="M9.94,21.9c0,.05.04.04.04.04,0,.04-.03.29-.04.36l-.6.04s0-.05,0-.08c0-.07.01-.35,0-.36.1.01.08-.04.08-.04.03,0,.23.07.52.04Z"/>
        <path class="cls-30" d="M12.06,18.03v.12c-.24.18-.38.17-.68.16,0-.07-.12-.21.02-.32.17.01.52.05.66.04Z"/>
        <path class="cls-10" d="M9.94,22.3c0,.06.02.25-.02.28-.19,0-.39,0-.58,0v-.24l.6-.04Z"/>
        <g>
          <path class="cls-61" d="M10.54,15.55c1.28.02,2.56.06,3.84.04,0,.21.01.43,0,.64,0,.06-.08.41-.08.44-.6-.14-.23.49-.38.6-.02.01-.41,0-.5,0-.22,0-.44,0-.66,0-.06.04.03.63-.06.7-.03.02-.55.05-.64.06-.14,0-.49-.03-.66-.04-.14.11-.01.25-.02.32-.08.58-.18.17-.72.38-.01.22.02.44,0,.66-.03.46,0,.87,0,1.32,0,.15-.04.32-.04.48h-.68c0-.16,0-1.05-.04-1.1-.02-.03-.46-.03-.48,0-.05.07.04,1.58,0,1.82,0,0,.02.05-.08.04,0-.01-.13.02-.16-.02-.03-.05.04-.42-.02-.46-.02-.01-.42-.03-.46.06-.03.06.02.54,0,.72l.64.06s0,.05,0,.08v.24c-.11,0-.08.04-.08.04-.36.02-.65-.34-.48.68-.03,0-.05,0-.08,0-.21.01-.41,0-.62,0-.04.03-.01.32-.02.4-.03.24-.03.44-.04.68-.06,1.07-.09,2.15-.04,3.22,0,.02-.12.02-.12.1-.07-.08-.23.07-.28-.06-.14-.37.2-5.38.04-6.26q-.02-1.51-.04-3.02l-.72-.02c0-.32-.01-.64,0-.96.01-.26-.05-.52.06-.6l.78-.02q.03-.63.06-1.26c.93-.02,1.85.03,2.78.04Z"/>
          <g>
            <path class="cls-10" d="M8.68,20.66c.19-.14.67.09.46.38-.02.03-.44.03-.46.02-.03-.02-.03-.38,0-.4Z"/>
            <path class="cls-10" d="M11.36,16.83c.3-.22.61.27.36.4-.39.2-.47-.32-.36-.4Z"/>
            <path class="cls-10" d="M9.48,18.87c.3-.21.52.29.36.4-.3.21-.52-.29-.36-.4Z"/>
            <path class="cls-83" d="M10.36,16.83c.38-.17.43.29.28.36-.34.15-.44-.29-.28-.36Z"/>
            <path class="cls-120" d="M9.8,18.03c.25-.18.36.37.2.44-.32.15-.23-.42-.2-.44Z"/>
            <path class="cls-117" d="M13.04,16.35c.2-.09.71.11-.02.02,0,0,.01-.02.02-.02Z"/>
          </g>
        </g>
        <path class="cls-112" d="M7.98,29.78v.04c-.21,0-.79-.04-.84.06v1.14c-.13,0-.29.04-.44.04.08-.39.02-.8.04-1.2.05-.07.17-.11.24-.12.22-.03.76,0,1,.04Z"/>
        <path class="cls-10" d="M28.61,17.71s.06-.02.04.26c.2-.05.09.23.12.28.04.05.24-.01.28.04.02.03-.03.3,0,.36.07.15.54-.04.52.14,0,.28,0,.56,0,.84,0,.52,0,1.04,0,1.56,0,.27,0,.53,0,.8,0,.53,0,1.07,0,1.6h-.92c0-.73,0-1.47,0-2.2,0-.57.05-1.13.04-1.7l-.88-.06c0-.29,0-.59,0-.88,0-.13,0-.27,0-.4-.01-.16.04-.33-.06-.4-.17,0-.33,0-.5,0,.06-.99-.05-.48-.76-.7v-.98c.1,0,.44-.02.46,0,.12.08-.24.66.48.44.11.64.36.39.44.44.04.03-.14.31.74.56Z"/>
        <path class="cls-83" d="M26.45,16.27s.03,0,.04,0v.98c.71.22.82-.29.76.7-.04,0-.08,0-.12,0-.1,0-.59.02-.62,0-.06-.04.02-.52-.04-.56-.1-.07-1.68.18-1.28-.08.04-.03.5.04.54-.02.02-.02.02-.5,0-.52-.04-.05-.74,0-.86-.02-.12-.05-.03-.33-.06-.44.13-.08.8-.12,1-.12.19,0,.44.06.64.08Z"/>
        <path class="cls-30" d="M26.45,15.47v.8c-.2-.02-.45-.08-.64-.08v-.72c.21,0,.43,0,.64,0Z"/>
        <path class="cls-30" d="M22.09,24.5v3.1c.02.05.18.05.24.06-.19-.06-.13.62-.1.64.03.02.64-.02.78,0,0,.01,0,.03,0,.04,0,.19,0,.37,0,.56l-.8.06c0,.26,0,.52,0,.78-.2,0-.53.02-.64,0-.06-.01-.11.02-.16-.06,0-1.74.03-3.48.04-5.22.29-.04.61.04.64.04Z"/>
        <path class="cls-21" d="M23.13,22.98c-.64-.14-.28.63-.28.68,0,.25-.09.54-.04.8-.23.01-.49.04-.72.04-.03,0-.35-.08-.64-.04,0-.49.04-.99.04-1.48.1-.02.6.03.64-.02.04-.06.01-1.33,0-1.5.87-.13.39.4.52.58.14.2.61-.51.48.94Z"/>
        <path class="cls-120" d="M22.13,21.46c.01.17.04,1.44,0,1.5-.04.05-.54,0-.64.02,0-.12,0-.24,0-.36,0-.22.04-.45-.06-.52-.18,0-.36,0-.54,0-.14.04-.06-.33-.08-.72,0-.01.13-.1-.08-.18l.04-.62c.51-.06-.04-.97.62-.68.12.05.03.69.06.82l.64.12c-.03.21.03.42.04.62Z"/>
        <g>
          <path class="cls-60" d="M27.61,29.7c.33,0,.67.04,1,.04v1.26c-.05.1-.99.06-1.16.06-1.05.02-2.11,0-3.16,0-.15-.04-.04-.28-.1-.32-.09-.07-.38.01-.22.32-.57,0-1.15.02-1.72,0-.01,0-.03,0-.04,0,0-.44-.01-.88,0-1.32.27,0,.54-.04.8-.04,1.53.02,3.06,0,4.6,0Z"/>
          <path class="cls-70" d="M22.21,29.74c-.01.44,0,.88,0,1.32-.11,0-.73.02-.76-.02.04-.52-.11-1.23.12-1.3.11.02.44,0,.64,0Z"/>
        </g>
        <path class="cls-101" d="M23.81,28.9c.23,0,.45,0,.68,0,.25,0,.51,0,.76,0,.19,0,.37,0,.56,0,.19,0,.37,0,.56,0,.35,0,1.03.03,1.24,0v.8c-1.53,0-3.06.02-4.6,0v-.76c.24-.07.54-.04.8-.04Z"/>
        <path class="cls-120" d="M28.61,28.34c0,.42.1.84,0,1.26l.6.1c-.2-.04-.41.04-.6.04-.33,0-.67-.04-1-.04v-.8c.05,0,.17.02.2-.02,0-.17,0-.33,0-.5l.8-.04Z"/>
        <path class="cls-120" d="M23.01,28.9v.8c-.26,0-.53.05-.8.04,0-.26,0-.52,0-.78l.8-.06Z"/>
        <path class="cls-34" d="M7.98,29.82c0,.17,0,.35,0,.52,0,.23,0,.45,0,.68-.28,0-.56,0-.84,0v-1.14c.05-.1.63-.05.84-.06Z"/>
        <path class="cls-103" d="M29.57,28.3c0,.17,0,.35,0,.52,0,.29-.04.59-.04.88h-.32l-.6-.1c.1-.42,0-.84,0-1.26,0,0,.04.02.04-.08l.92.04Z"/>
        <path class="cls-120" d="M15.54,19.9l.04.04.02.68c.81-.04,1.61-.03,2.42-.04.2,0,.4,0,.6,0,.16,0,.33-.04.48-.04.38,0,.3-.04.32-.04.23,0,1.25.09,1.36.08l-.04.62c.21.08.08.17.08.18q-2.81-.02-5.62-.04c-.1.05-.05.54-.06.76h-.12l-.64.02c-.04.79-.03,1.59-.04,2.38h-.84l.76-.06v-1.2c-.04-.08-.99-.14-1.16-.1-.18-2.14.21-1.16.54-1.4.04-.03.01-.36.02-.44.27.03.27-.04.28-.04.02,0,.12.07.38.04.19-.13-.42-.92.72-.72.08-.63-.18-.73.5-.68Z"/>
        <path class="cls-83" d="M12.98,24.5c.03.13-.06.75.06.8.54.24.41-.4.42-.76,0-.01,0-.03,0-.04h.88c-.01,1.06-.04,2.14-.04,3.2l-.76-.04c-.01-.22.04-.59-.06-.64h-1.66c0-.22-.03-.43-.04-.64,0-.17,0-.35,0-.52,0-.04-.04-.04-.04-.08.97.1.73.16.68-1.28.19,0,.37,0,.56,0Z"/>
        <path class="cls-72" d="M17.46,16.15c.14,0,.3-.01.44,0,.02.14-.02.45,0,.5.06.14.39.02.48.02.14,0,.31.04.44.04v.6c-.62,0-1.26.04-1.88.04-.1-.99.26-.52.36-.66.06-.08-.13-.6.16-.54Z"/>
        <path class="cls-120" d="M13.5,24.5h-.04c.01-1.45-.19-.66-.36-.9-.02-.02,0-.37,0-.46.17-.04,1.12.02,1.16.1v1.2l-.76.06Z"/>
        <path class="cls-120" d="M17.46,16.15c-.29-.06-.1.46-.16.54-.1.14-.46-.33-.36.66-.02,0-.15.09-.36.02.14-1.26-.57-.11-.44-1.18.44-.01.88-.04,1.32-.04Z"/>
        <path class="cls-120" d="M20.01,16.67v.72c-.34,0-.22.08-.24.08-.06,0-.03-.08-.06-.08-.27,0-.53,0-.8,0-.02,0-.05-.08-.1-.08v-.6c.27,0,.61-.08.88-.08.02,0,.04.04.32.04Z"/>
        <path class="cls-18" d="M15.54,19.1c.27-.02.56,0,.84,0l.04.84c-.28,0-.56,0-.84,0l-.04-.04c.24-.64-.4-.26-.24-.78.03-.09.19-.02.24-.02Z"/>
        <path class="cls-120" d="M12.78,19.14c.07.6-.15.33-.72.42,0,.13,0,.25,0,.38h-.24c-.64-.06-.38.12-.44.52v-1.12c.63-.03.64-.12.68-.12.25-.03.51.07.72-.08Z"/>
        <path class="cls-18" d="M12.38,24.5c-.22,0-.43-.02-.64.04,0-.13,0-.27,0-.4.13-.1.07-.31.08-.48.24.01.48-.05.56.06v.78Z"/>
        <path class="cls-59" d="M13.46,24.54c-.01.36.12,1-.42.76-.12-.05-.03-.67-.06-.8.16,0,.32-.02.48.04Z"/>
        <path class="cls-120" d="M12.78,18.83v.32c-.21.15-.47.05-.72.08v-.44c.34-.03.65.04.72.04Z"/>
        <g>
          <path class="cls-72" d="M16.14,16.19c-.13,1.07.58-.08.44,1.18.21.07.34-.02.36-.02.62,0,1.26-.05,1.88-.04.05,0,.08.08.1.08.27,0,.53,0,.8,0,.03,0,0,.08.06.08-.02.17.03.49,0,.6,0,.03.02.07-.06.12l-3.24-.04-.04-.76h-.82v-.7c-.56-.31-.59.84-.04.74q-.02.84-.04,1.68c-.05,0-.21-.07-.24.02-.16.52.48.13.24.78-.68-.05-.42.05-.5.68-1.14-.2-.53.59-.72.72-.26.03-.36-.04-.38-.04,0-.39-.23-.48-.28.04,0,.08.02.41-.02.44-.33.24-.72-.74-.54,1.4,0,.09-.02.44,0,.46.17.24.37-.55.36.9,0,.01,0,.03,0,.04-.16-.06-.32-.04-.48-.04-.19,0-.37,0-.56,0-.01,0-.03,0-.04,0v-.78c-.08-.11-.32-.05-.56-.06-.43-.02-1.34.03-1.88.04.37-.69-.9-.61-.7-.2-.49-.59-.77.47,0,.08v.08l.62.04c-.09,0-.57-.02-.6.02,0,.23-.01.47,0,.7h-.48c0-.21-.08-.47-.08-.68,0-.01,0-.03,0-.04,0-.02.1-.09,0-.4.03,0,.05,0,.08,0,.45-.03.5.15.48-.68,0,0-.03-.03.08-.04.19,0,.39,0,.58,0,.04-.03.01-.22.02-.28,0-.07.04-.32.04-.36.13-.1.59.01.64-.06.02-.03,0-.63,0-.74,0-.16.04-.33.04-.48.64-.03.67.11.72-.2.06-.4-.2-.58.44-.52.07,1.06.17,1.14.24,0,0-.13,0-.25,0-.38.57-.09.79.18.72-.42v-.32c.12,0,.94-.01.98-.04.03-.02.05-.32-.02-.36-.05-.03-.31.06-.36-.06,0-.01.03-.31.04-.32.05-.06.65,0,.78-.02l.02-.66c.05,0,.13-.06.16-.06.02,0,.38.12.48-.02-.11-.99.35-.29.28-1.06.33-.01.66-.03,1-.04Z"/>
          <g>
            <path class="cls-59" d="M9.94,23.7s-.05,0-.08,0l-.62-.04v-.08c-.77.39-.49-.67,0-.08-.21-.41,1.07-.49.7.2Z"/>
            <path class="cls-120" d="M15.62,17.39l-.04.04c-.55.1-.52-1.05.04-.74v.7Z"/>
            <path class="cls-83" d="M12.48,22.7c.47-.21.35.5.32.52-.37.27-.51-.44-.32-.52Z"/>
            <path class="cls-109" d="M12.06,19.94c-.07,1.14-.17,1.06-.24,0h.24Z"/>
            <path class="cls-21" d="M13.94,21.26s-.01.07-.28.04c.05-.52.29-.43.28-.04Z"/>
          </g>
        </g>
        <path class="cls-120" d="M23.45,17.15c.69-.11.62.26.54.32-.04.03-.81-.02-.96,0l-.08-.56c-.18-.05-.86.08-.92.04-.11-.08.23-.28-.42-.32-.02-.12.02-.31,0-.4,1.18-.05,1.44-.27,1.24.62.06.09.46-.01.5.02.07.05-.05.61.1.28Z"/>
        <path class="cls-18" d="M21.61,16.23c.02.09-.02.28,0,.4-.03,0-.42.04-.68.04.02-.1-.03-.52.02-.56.03-.02.61-.01.64,0,.04.02.01.08.02.12Z"/>
        <path class="cls-72" d="M20.37,16.67c-.12,0-.24,0-.36,0-.28,0-.3-.04-.32-.04-.21-.65.91-.65.68.04Z"/>
        <path class="cls-18" d="M18.37,16.67c-.09,0-.42.12-.48-.02-.02-.05.02-.36,0-.5.47.05.51-.18.48.52Z"/>
        <path class="cls-72" d="M13.54,27.66c0,.19.04.74.04.8-.02.46-.12.49-.12.52-.38-.07-.78-.04-1.16-.04.2-.81-.76-.8-.56,0-.23,0-.46.04-.68.04-.01-.12.02-.55,0-.58-.03-.04-.47-.02-.56-.02-.28-.01-.56,0-.84,0-.12,0-.24,0-.36,0-.16,0-.32,0-.48,0,0-.21,0-.43,0-.64,0,0,.03.03.04-.08.32.03.34-.04.36-.04.29-.02.34.04.36.04.29,0,.58-.04.88-.04.19,0,.37,0,.56,0,.26,0,.52-.01.78.04l.02-.08c0-.17,0-.35,0-.52,0-.01,0-.03,0-.04h1.66c.1.05.05.42.06.64Z"/>
        <path class="cls-83" d="M8.82,27.74c0,.21,0,.43,0,.64-.19,0-.76.04-.88-.04l.06-.68c.39.03.85-.07.82.08Z"/>
        <path class="cls-120" d="M9.3,28.98c-.05.1-.47,0-.52.06-.02.02-.06.58-.04.6.05.07.4-.06.28.1-.33,0-.67,0-1,0l.02-.76c.42,0,.84,0,1.26,0Z"/>
        <path class="cls-120" d="M9.66,28.38v.6c-.12,0-.24,0-.36,0,.02-.04-.02-.45,0-.6.12,0,.24,0,.36,0Z"/>
        <path class="cls-103" d="M9.42,25.86c.01.24-.05.48.06.56l2.3-.04c0,.21.04.42.04.64,0,.01,0,.03,0,.04-.11.02-.68-.03-.72.02-.01.02,0,.48.02.5.03.02.59,0,.7,0l-.02.08c-.26-.05-.52-.04-.78-.04-.02-.11.05-.51-.06-.56-.04-.02-.38,0-.5,0-.28-.01-.6,0-.88,0-.08,0-.16,0-.24,0,0-.21,0-.43,0-.64,0-.18.11-.38,0-.56h.08Z"/>
        <path class="cls-120" d="M8.86,25.86c.06.01.28,0,.4,0h.08c.11.18,0,.38,0,.56-.1-.02-.52.03-.56-.02-.02-.02-.04-.59.08-.54Z"/>
        <path class="cls-8" d="M9.22,27.06v.56s-.04.07-.36.04c0-.1-.03-.54,0-.58.11-.04.24-.01.36-.02Z"/>
        <path class="cls-64" d="M9.34,27.06c.08,0,.16,0,.24,0v.6s-.07-.06-.36-.04v-.56s.08,0,.12,0Z"/>
        <path class="cls-103" d="M29.57,23.58s0,.03,0,.04c0,.33,0,.67,0,1,0,1.23,0,2.45,0,3.68l-.92-.04c0-.23,0-.45,0-.68,0-1.09,0-2.19,0-3.28,0-.24,0-.48,0-.72h.92Z"/>
        <path class="cls-59" d="M28.65,21.38c0,.73,0,1.47,0,2.2,0,.24,0,.48,0,.72h-.84c0-.97,0-1.95,0-2.92h.84Z"/>
        <path class="cls-83" d="M28.65,21.38h-.84c0-.59,0-1.17,0-1.76l.88.06c.01.57-.04,1.13-.04,1.7Z"/>
        <path class="cls-18" d="M27.25,17.95c.17,0,.33,0,.5,0,.1.07.05.24.06.4-.34.02-.64-.06-.6.08-.02-.15-.05-.33-.08-.48.04,0,.08,0,.12,0Z"/>
        <path class="cls-83" d="M27.81,18.35c0,.13,0,.27,0,.4-.2.04-.41-.04-.6-.04,0-.08,0-.16,0-.24,0-.01,0-.03,0-.04-.04-.14.26-.06.6-.08Z"/>
        <path class="cls-76" d="M29.57,24.62c0-.33,0-.67,0-1h.04l-.04,1Z"/>
        <path class="cls-120" d="M14.34,28.46c0,.43,0,.85,0,1.28h-.88c.02-.25-.02-.51,0-.76,0-.03.1-.06.12-.52h.76Z"/>
        <path class="cls-18" d="M14.3,27.7c0,.25.04.51.04.76h-.76c0-.06-.03-.61-.04-.8l.76.04Z"/>
        <path class="cls-101" d="M27.81,27.58c0,.27.01.54,0,.8,0,.17,0,.33,0,.5-.03.04-.15.01-.2.02-.21.03-.89,0-1.24,0,.05-.61-.08-.34-.56-.4,0,0,.01-.08-.02-.08-.63-.05-.55-.03-.54.48-.25,0-.51,0-.76,0-.02-.1.03-.52-.02-.56-.03-.02-.59,0-.7,0-.25,0-.51,0-.76,0,0-.01,0-.03,0-.04,0-.21-.04-.44-.04-.64,0-.18.03-.39.04-.58,0-.03.08-.02.08-.02h.56c-.14.93.31.52,1.54.6l.06-.6c.21,0,.41,0,.62,0,.04-.03.02-.43.02-.52.04-.19.8-.12,1.36-.12.17,0,.37.03.52-.04,0,.4.04.8.04,1.2Z"/>
        <path class="cls-108" d="M22.81,24.46s.03,0,.04,0c.02.49-.02.99,0,1.48.02.37-.07.52.16.56,0,.37.08.53.08.56,0,0-.08-.01-.08.02,0,.19-.04.4-.04.58-.2-.02-.46.03-.64,0-.06,0-.22,0-.24-.06v-3.1c.22,0,.49-.03.72-.04Z"/>
        <path class="cls-109" d="M22.33,27.66c.18.03.44-.02.64,0,0,.2.04.43.04.64-.14-.02-.75.02-.78,0-.03-.02-.09-.7.1-.64Z"/>
        <path class="cls-10" d="M23.77,28.34q.02.28.04.56c-.26,0-.56-.03-.8.04v-.04c0-.19,0-.37,0-.56.25,0,.51,0,.76,0Z"/>
        <path class="cls-72" d="M23.33,23.7c0,.11,0,.21,0,.32,0,.15-.03.29-.02.44-.12-.03-.32,0-.46,0-.01,0-.03,0-.04,0-.05-.26.05-.55.04-.8.19.03.27-.04.28-.04.01,0,.16.08.2.08Z"/>
        <path class="cls-33" d="M23.13,22.98v.64s-.09.07-.28.04c0-.05-.36-.81.28-.68Z"/>
        <path class="cls-120" d="M24.49,28.9c-.23,0-.45,0-.68,0q-.02-.28-.04-.56c.11,0,.67-.02.7,0,.05.04,0,.46.02.56Z"/>
        <g>
          <path class="cls-21" d="M25.81,28.5v.4c-.19,0-.37,0-.56,0-.01-.51-.09-.53.54-.48.03,0,.02.08.02.08Z"/>
          <path class="cls-120" d="M26.37,28.9c-.19,0-.37,0-.56,0v-.4c.48.06.61-.21.56.4Z"/>
        </g>
        <path class="cls-59" d="M28.65,27.58c0,.23,0,.45,0,.68,0,.1-.04.08-.04.08l-.8.04c.01-.26,0-.53,0-.8h.84Z"/>
        <path class="cls-59" d="M11.74,28.94c.19,0,.37,0,.56,0,.38,0,.78-.03,1.16.04-.02.25.02.51,0,.76-1.48.02-2.96-.03-4.44,0,.12-.16-.23-.03-.28-.1-.02-.02.02-.58.04-.6.05-.07.47.04.52-.06.12,0,.24,0,.36,0,.29,0,.59,0,.88,0,.17,0,.35,0,.52,0,.22,0,.45-.04.68-.04Z"/>
        <g>
          <path class="cls-60" d="M9.02,29.74c1.48-.03,2.96.02,4.44,0h.88c0,.44.11,1.03-.04,1.32-2.1.04-4.21-.04-6.32-.04,0-.23,0-.45,0-.68l5.68-.02c-.02-.1.05-.45-.06-.5-.26-.11-4.95-.02-5.62,0v-.04l.04-.04c.33,0,.67,0,1,0Z"/>
          <path class="cls-60" d="M7.98,30.34c0-.17,0-.35,0-.52.67-.02,5.36-.11,5.62,0,.11.05.04.4.06.5l-5.68.02Z"/>
        </g>
        <path class="cls-106" d="M16.42,19.94c.52,0,1.04,0,1.56,0l.04.64c-.81,0-1.61,0-2.42.04l-.02-.68c.28,0,.56,0,.84,0Z"/>
        <path class="cls-120" d="M18.61,19.94v.64c-.2,0-.4,0-.6,0l-.04-.64c.21,0,.43,0,.64,0Z"/>
        <path class="cls-59" d="M19.09,19.98v.56c-.15,0-.32.04-.48.04v-.64c.69-.01.45.04.48.04Z"/>
        <path class="cls-21" d="M19.41,19.94v.56s.06.03-.32.04v-.56s.08-.08.1-.08c.04,0,.08.06.22.04Z"/>
        <path class="cls-83" d="M20.01,19.1c.69.03.32.36.32.4-.81-.1-.41.22-.52.38-.01.02-.34.05-.4.06-.14.02-.18-.04-.22-.04-.02,0-.05.08-.1.08-.03,0,.21-.05-.48-.04-.21,0-.43,0-.64,0-.52,0-1.04,0-1.56,0l-.04-.84c1.21-.02,2.43.01,3.64,0Z"/>
        <g>
          <path class="cls-23" d="M20.01,17.39c.3,0,.62-.04.92.04-.2.07.01.71-.06.76-.44-.04-.98.1-1.1-.12.03-.11-.02-.43,0-.6.02,0-.1-.09.24-.08Z"/>
          <g>
            <path class="cls-90" d="M19.77,18.07c.11.22.66.08,1.1.12.07-.05-.14-.69.06-.76.07.07,0,1.47,0,1.68h-.92c-1.21.01-2.43-.02-3.64,0-.28,0-.57-.02-.84,0q.02-.84.04-1.68l.04-.04h.82l.04.76,3.24.04c.08-.05.05-.09.06-.12Z"/>
            <path class="cls-9" d="M15.64,17.43l.74.02c.02.86.06.79-.76.64l.02-.66Z"/>
          </g>
        </g>
        <path class="cls-109" d="M20.93,19.1c0,.12.02.77-.02.8-.04.03-.56.19-.58-.4,0-.04.37-.37-.32-.4h.92Z"/>
        <g>
          <path class="cls-65" d="M11.82,23.66c-.01.17.05.38-.08.48,0-.01,0-.03,0-.04-.03-.42.05-.5-.68-.34.06.1.04.27.04.38,0,.12,0,.24,0,.36,0,.13,0,.27,0,.4,0,.08,0,.16,0,.24l-1.04.04c0-.1-.02-.75-.04-.78-.02-.02-.56-.04-.58-.02-.06.04-.03,1.27-.02,1.44,0,.01,0,.03,0,.04h-.16c.12-.19.1-1.03.08-1.42,0-.03-.08-.02-.08-.02-.01-.23,0-.47,0-.7.03-.04.51-.02.6-.02.03,0,.05,0,.08,0,.54-.01,1.45-.06,1.88-.04Z"/>
          <path class="cls-116" d="M12.38,24.5s.03,0,.04,0c.05,1.44.29,1.38-.68,1.28-.01-.41.01-.83,0-1.24.21-.06.42-.04.64-.04Z"/>
          <path class="cls-57" d="M9.26,24.42s.08-.01.08.02c.02.39.04,1.23-.08,1.42-.12,0-.34.01-.4,0,0,0,.02-.04-.12-.06-.04-.07.04-1.19.04-1.38h.48Z"/>
          <path class="cls-28" d="M11.1,25.74s-.21.18.68.12c0,.17,0,.35,0,.52l-2.3.04c-.11-.08-.05-.32-.06-.56,0-.01,0-.03,0-.04l.58.04.06-.12c.32.03.74-.03,1.04,0Z"/>
          <path class="cls-82" d="M11.74,24.1s0,.03,0,.04c0,.13,0,.27,0,.4.01.41-.01.83,0,1.24,0,.04.04.04.04.08-.89.06-.64-.12-.68-.12v-.6c0-.08,0-.16,0-.24.87.15.87-.55,0-.4,0-.12,0-.24,0-.36l.64-.04Z"/>
          <path class="cls-37" d="M10.06,25.18s-.11.41,0,.56l-.06.12-.58-.04c0-.17-.04-1.4.02-1.44.02-.02.56,0,.58.02.02.03.04.68.04.78Z"/>
          <path class="cls-78" d="M11.1,25.14v.6c-.3-.03-.72.03-1.04,0-.11-.15,0-.53,0-.56l1.04-.04Z"/>
          <path class="cls-119" d="M11.74,24.1l-.64.04c0-.11.02-.28-.04-.38.73-.16.65-.08.68.34Z"/>
          <path class="cls-43" d="M11.1,24.9c0-.13,0-.27,0-.4.87-.15.87.55,0,.4Z"/>
        </g>
        <path class="cls-83" d="M28.65,24.3c0,1.09,0,2.19,0,3.28h-.84c0-.4-.04-.8-.04-1.2,0-.39,0-.77,0-1.16,0-.31.04-.62.04-.92h.84Z"/>
        <path class="cls-101" d="M27.33,24.58c.02.64-.15.68.4.64h.04c0,.39,0,.77,0,1.16-.15.07-.35.04-.52.04q.02-.59.04-1.18c-.13-.18-.87.4-.68-.66.25,0,.46-.02.72,0Z"/>
        <path class="cls-59" d="M27.73,25.22c-.55.04-.38,0-.4-.64.02,0,.31-.05.4-.02v.66Z"/>
        <g>
          <path class="cls-72" d="M24.81,16.31c.03.11-.06.39.06.44.12.02.82-.03.86.02.02.02.02.5,0,.52-.04.06-.5,0-.54.02-.4.26,1.18,0,1.28.08.06.04-.02.52.04.56.03.02.52,0,.62,0,.03.15.06.33.08.48,0,.01,0,.03,0,.04-.1.04-.6-.09-.64.02-.15.42.47.22.64.22.19,0,.4.08.6.04,0,.29,0,.59,0,.88,0,.59,0,1.17,0,1.76,0,.97,0,1.95,0,2.92,0,.3-.04.61-.04.92h-.04v-.66c-.09-.03-.38.02-.4.02-.26-.02-.47,0-.72,0-.04,0-.04-.04-.08-.04-.23,0-.45,0-.68,0-.04-.14-.07-.3-.08-.44-.01-.12.12-.28-.02-.4-.19-.05-.44.05-.62.04-.6-.02-1.2,0-1.8-.04-.04,0-.19-.08-.2-.08v-.64c.13-1.44-.34-.74-.48-.94-.13-.18.35-.71-.52-.58-.01-.2-.07-.41-.04-.62l-.64-.12c-.03-.13.06-.77-.06-.82-.66-.29-.11.62-.62.68-.1.01-1.13-.09-1.36-.08v-.56c.06,0,.39-.04.4-.06.11-.16-.29-.48.52-.38.02.59.54.43.58.4.04-.03.02-.68.02-.8,0-.21.07-1.61,0-1.68-.3-.08-.62-.03-.92-.04v-.72c.12,0,.24,0,.36,0,.19,0,.37,0,.56,0,.26,0,.65-.04.68-.04.65.04.3.24.42.32.06.04.74-.09.92-.04l.08.56c.15-.02.92.03.96,0,.09-.06.15-.43-.54-.32-.25-.84.76.23.62-.96.24.05.68-.12.74.12Z"/>
          <path class="cls-83" d="M23.67,22.18c.28-.22.03,1.34.2,1.48-.04,0-.21-.05-.22-.06-.03-.06-.04-1.38.02-1.42Z"/>
          <path class="cls-120" d="M27.21,18.47c0,.08,0,.16,0,.24-.17,0-.79.2-.64-.22.04-.11.54.02.64-.02Z"/>
          <path class="cls-30" d="M26.15,17.95c.13-.09.48.07.34.26-.12.16-.57-.1-.34-.26Z"/>
        </g>
        <path class="cls-83" d="M10.5,28.38l.04.6c-.29,0-.59,0-.88,0v-.6c.28,0,.56-.01.84,0Z"/>
        <path class="cls-83" d="M10.46,27.06v.56c-.3,0-.59.03-.88.04v-.6c.28,0,.6-.01.88,0Z"/>
        <path class="cls-126" d="M11.82,27.06c0,.17,0,.35,0,.52-.11,0-.67.02-.7,0-.02-.02-.03-.48-.02-.5.04-.05.61,0,.72-.02Z"/>
        <path class="cls-10" d="M11.06,28.98c-.17,0-.35,0-.52,0l-.04-.6c.09,0,.53-.02.56.02.02.03-.01.46,0,.58Z"/>
        <path class="cls-96" d="M11.02,27.62c-.19,0-.37,0-.56,0v-.56c.12,0,.46-.02.5,0,.11.05.04.45.06.56Z"/>
        <path class="cls-120" d="M12.3,28.94c-.19,0-.37,0-.56,0-.2-.8.76-.81.56,0Z"/>
        <g>
          <path class="cls-25" d="M16.06,25.78c0,.58.04,1.38,0,1.9,0,.03-.08.05-.08.06h-.72c0-.66-.04-1.33-.04-2l.84.04Z"/>
          <g>
            <path class="cls-112" d="M21.49,22.62c0,.12,0,.24,0,.36,0,.49-.04.99-.04,1.48,0,1.74-.05,3.48-.04,5.22.05.08.1.05.16.06-.23.07-.08.78-.12,1.3.03.04.65.02.76.02.01,0,.03,0,.04,0l-.78.04-.08.68c-2.03,0-4.05,0-6.08,0-.02,0-.09-.08-.1-.08-.07-.18-.04-.43-.04-.64,0-1.1,0-2.2,0-3.3,0-.03.08-.02.08-.02h.72c0,.06-.08.03-.08.06-.03.44,0,.93,0,1.38,0,.42-.02.86,0,1.28,0,.09-.02.53.02.56l4.76-.04c.09-.12.05-.23.06-.36.09-1.18,0-3.07,0-4.36,0-1.04,0-2.08,0-3.12,0-.02.04-.12.04-.48l.72-.04Z"/>
            <path class="cls-112" d="M15.24,27.78s.56,0,.58.02c-.07,1.26.3,1.4-.6,1.36.02-.17-.04-1.34.02-1.38Z"/>
          </g>
          <path class="cls-105" d="M21.49,22.62l-.72.04c0-.17,0-.35,0-.52.16,0,.11-.04.12-.04.18,0,.36,0,.54,0,.1.07.06.3.06.52Z"/>
          <g>
            <path class="cls-90" d="M15.02,22.1c-.12.1-.55-.01-.6.06-.03.04.02.92,0,1.08l.8-.06.04.04c-.08.84-.04,1.68-.04,2.52,0,.66.04,1.34.04,2,0,0-.08-.01-.08.02,0,1.1,0,2.2,0,3.3h-.88c.15-.29.04-.88.04-1.32,0-.43,0-.85,0-1.28,0-.25-.04-.51-.04-.76,0-1.06.03-2.14.04-3.2,0-.79,0-1.59.04-2.38l.64-.02Z"/>
            <path class="cls-44" d="M15.14,22.1c0,.21-.04.97.08,1.08l-.8.06c.02-.16-.03-1.04,0-1.08.05-.07.48.04.6-.06h.12Z"/>
          </g>
          <g>
            <path class="cls-1" d="M16.14,23.22c.24,0,.54-.03.76.04,0,.98-.03,1.98,0,2.96,0,.11-.02.73.02.76.86.02,1.72-.01,2.58-.04.03,0,.43.13.6-.02-.1-.23-.01-.47,0-.7l.64.04c0,1.28.09,3.18,0,4.36-.93-.06-1.87-.06-2.8-.04-.07-.04-.16-.11-.24-.12.03-.32-.04-1.77,0-1.86.04-.09.57-.38.46.78h1.36v-1.76l-2.7.06q.02,1.39.04,2.78c-.09,0-.19,0-.28,0,.35,0,.15-.59.2-1.22l-.88-.06c0-.45-.03-.94,0-1.38,0-.03.08,0,.08-.06,0,0,.08-.03.08-.06.04-.52,0-1.31,0-1.9.01-.84,0-1.68,0-2.52,0,0-.03-.04.08-.04Z"/>
            <path class="cls-34" d="M16.58,30.46c.09,0,.19,0,.28,0,.24,0,.59-.02.8,0,.06.32.08.12.28.12.93-.02,1.87-.02,2.8.04-.01.13.03.24-.06.36l-4.76.04s-.02-.47-.02-.56h.68Z"/>
            <path class="cls-107" d="M20.73,23.14c0,1.04,0,2.08,0,3.12l-.64-.04c.05-.77-.04-1.55-.04-2.32,0-.24.08-.51.04-.76h.64Z"/>
            <path class="cls-1" d="M16.58,30.46h-.68c-.02-.42,0-.86,0-1.28l.88.06c-.05.63.15,1.23-.2,1.22Z"/>
            <path class="cls-1" d="M20.77,22.14c0,.17,0,.35,0,.52,0,.36-.04.46-.04.48h-.64l-.04-.04v-.92c.23,0,.48-.03.72-.04Z"/>
            <path class="cls-4" d="M17.69,30.46s-.03,0-.04,0c-.21-.02-.56,0-.8,0q-.02-1.39-.04-2.78l2.7-.06v1.76h-1.36c.11-1.16-.42-.87-.46-.78-.04.09.03,1.54,0,1.86Z"/>
            <path class="cls-125" d="M19.21,23.1c.28,0,.56,0,.84,0l.04.04c.04.25-.04.52-.04.76-.18.06-.37.05-.56.04-.25,0-.49-.04-.74-.04-.03,0,0,.08-.06.08-.04,0,.08-.15-.68-.06-.03.21.04,1.5,0,1.56-.1.14-.51-.36-.4.74-.24,0-.48,0-.72,0-.03-.98,0-1.97,0-2.96,0-.04,0-.08,0-.12.77.03,1.55-.03,2.32-.04Z"/>
            <path class="cls-27" d="M16.06,23.26c0,.84.01,1.68,0,2.52l-.84-.04c0-.84-.04-1.68.04-2.52.26-.04.54.04.8.04Z"/>
            <path class="cls-130" d="M18.81,26.22c.12,0,.59-.03.64.02.06.05.04.57.04.7-.86.03-1.72.06-2.58.04-.04-.03-.02-.65-.02-.76.24,0,.48,0,.72,0,.35,0,.74-.05,1.08-.04.03,0,.03.04.12.04Z"/>
            <path class="cls-34" d="M15.86,22.14c.07,0,.13,0,.2,0,.03.4-.08.93.08,1.08-.11,0-.08.04-.08.04-.26,0-.54-.08-.8-.04l-.04-.04c-.11-.76.04-.99.04-1.04h.6Z"/>
            <path class="cls-130" d="M16.86,22.18c.07.31.04.64.04.96,0,.04,0,.08,0,.12-.22-.07-.52-.04-.76-.04-.16-.15-.05-.68-.08-1.08.27,0,.54.04.8.04Z"/>
            <path class="cls-34" d="M17.93,30.58c-.2,0-.22.2-.28-.12.01,0,.03,0,.04,0,.08.01.17.08.24.12Z"/>
            <path class="cls-90" d="M20.81,21.38c.02.39-.06.76.08.72,0,0,.04.04-.12.04-.24,0-.49.04-.72.04-.27,0-.53,0-.8,0-.8,0-1.6.01-2.4,0-.26,0-.53-.04-.8-.04-.07,0-.13,0-.2,0l4.82-.04c.08-.04.08-.63.06-.66-.16-.22-4.86.13-5.5-.02-.08.26.02.68.02.72,0,.05-.15.28-.04,1.04-.12-.11-.09-.87-.08-1.08,0-.22-.04-.71.06-.76q2.81.02,5.62.04Z"/>
            <path class="cls-129" d="M20.05,22.18v.92c-.28,0-.56,0-.84,0q.02-.46.04-.92c.27,0,.53,0,.8,0Z"/>
            <path class="cls-107" d="M19.25,22.18q-.02.46-.04.92c-.77.01-1.54.07-2.32.04,0-.32.03-.65-.04-.96.8.01,1.6,0,2.4,0Z"/>
            <path class="cls-66" d="M18.69,23.98v2.2c-.34,0-.73.04-1.08.04-.11-1.1.3-.6.4-.74.04-.06-.03-1.35,0-1.56.76-.09.64.06.68.06Z"/>
            <g>
              <path class="cls-111" d="M20.05,23.9c0,.76.09,1.55.04,2.32-.01.23-.1.47,0,.7-.17.15-.57.02-.6.02,0-.13.02-.65-.04-.7-.05-.05-.52-.01-.64-.02.04-.18.61-.01.64-.06q.02-1.11.04-2.22c.19,0,.38.02.56-.04Z"/>
              <path class="cls-36" d="M19.49,23.94q-.02,1.11-.04,2.22s-.6-.12-.64.06c-.09,0-.09-.04-.12-.04v-2.2c.06,0,.03-.08.06-.08.25,0,.49.03.74.04Z"/>
            </g>
            <path class="cls-70" d="M15.86,22.14h-.6s-.1-.46-.02-.72c.64.15,5.34-.2,5.5.02.02.03.02.62-.06.66l-4.82.04Z"/>
          </g>
        </g>
        <path class="cls-103" d="M23.49,25.94c.01.24-.05.48.06.56l2.34-.08s0,.08,0,.12c0,.08.02.49-.02.52-.21,0-.41,0-.62,0-.53.02-1.07-.01-1.6,0h-.56s-.08-.18-.08-.56c.54.09.39-.12.4-.56h.08Z"/>
        <path class="cls-120" d="M25.25,27.06l-.06.6c-1.23-.08-1.68.33-1.54-.6.53-.01,1.07.02,1.6,0Z"/>
        <path class="cls-120" d="M23.41,25.94c0,.44.14.65-.4.56-.23-.04-.14-.19-.16-.56h.56Z"/>
        <g>
          <path class="cls-65" d="M25.13,23.74c-.04.13,0,.27,0,.4,0,.12,0,.24,0,.36,0,.21.04.43.04.64,0,.04-.11.44,0,.68-.36.02-.72.02-1.08.04-.03-.46.04-1.04,0-1.48,0-.06.02-.25-.02-.28l-.74-.08c0-.11,0-.21,0-.32.6.03,1.2.02,1.8.04Z"/>
          <path class="cls-28" d="M26.53,24.54c.3,1.9-.57,1.01-.68,1.3.06.18.05.39.04.58l-2.34.08c-.11-.08-.05-.32-.06-.56,0-.01,0-.03,0-.04.2.04.41-.03.6-.04.36-.02.72-.02,1.08-.04.21-.01.43,0,.64.02v-1.3s.03,0,.04,0c.23,0,.45,0,.68,0Z"/>
          <path class="cls-82" d="M25.77,24.1c.01.14.04.3.08.44-.01,0-.03,0-.04,0-.21,0-.5.03-.68-.04,0-.12,0-.24,0-.36l.64-.04Z"/>
          <path class="cls-119" d="M25.77,24.1l-.64.04c0-.13-.04-.27,0-.4.18,0,.43-.09.62-.04.14.12,0,.28.02.4Z"/>
          <path class="cls-57" d="M24.09,24.38l-.68.02c.16.46.06,1,.08,1.5,0,.01,0,.03,0,.04h-.64c-.02-.49.02-.99,0-1.48.14,0,.34-.03.46,0-.01-.15.01-.29.02-.44l.74.08s.01.22.02.28Z"/>
          <path class="cls-37" d="M24.09,24.38c.04.44-.03,1.02,0,1.48-.19,0-.4.08-.6.04-.02-.5.08-1.03-.08-1.5l.68-.02Z"/>
          <path class="cls-82" d="M25.81,25.14v.7c-.21-.02-.43-.03-.64-.02-.11-.24,0-.64,0-.68h.64Z"/>
          <path class="cls-119" d="M25.81,24.54v.6h-.64c0-.21-.04-.43-.04-.64.18.07.47.04.68.04Z"/>
        </g>
        <g>
          <path class="cls-109" d="M26.61,24.58c-.19,1.06.55.47.68.66q-.02.59-.04,1.18c-.56,0-1.32-.07-1.36.12,0-.04,0-.08,0-.12,0-.19.02-.4-.04-.58.11-.29.98.6.68-1.3.04,0,.04.04.08.04Z"/>
          <path class="cls-74" d="M25.99,25.82c.41-.08.79.03.58.5-.03.06-.95.32-.58-.5Z"/>
        </g>
      </g>
    </g>
  </g>
</svg>