<?xml version="1.0" encoding="UTF-8"?>
<svg id="Layer_2" data-name="Layer 2" xmlns="http://www.w3.org/2000/svg" viewBox="0 0 34.46 33.54">
  <defs>
    <style>
      .cls-1, .cls-2 {
        stroke: #8a7554;
      }

      .cls-1, .cls-2, .cls-3 {
        fill: none;
        stroke-linejoin: round;
        stroke-width: .42px;
      }

      .cls-1, .cls-3 {
        stroke-linecap: square;
      }

      .cls-4 {
        fill: #fedead;
      }

      .cls-5 {
        fill: #f9e6c8;
      }

      .cls-2 {
        stroke-linecap: round;
      }

      .cls-6 {
        fill: #e7b473;
      }

      .cls-7 {
        fill: #fdd58f;
      }

      .cls-8 {
        fill: #767254;
      }

      .cls-3 {
        stroke: #897454;
      }

      .cls-9 {
        fill: #fef4e3;
      }
    </style>
  </defs>
  <g id="Layer_1-2" data-name="Layer 1">
    <g id="Generative_Object" data-name="Generative Object">
      <g>
        <path class="cls-6" d="M31.45,12.59c0,.24.03,1.48-.05,1.57-.36.09-.74.03-1.11.05.03.14.03.28.03.42.09,4.04-.12,8.09-.07,12.13,0,.15-.01.29.02.43.38-.04.75-.18,1.14-.15.17.13,0,2.35.14,2.56.1.15.68.05.98.18.22.1,1.23.91,1.31,1.15.05.14.09,2.2.01,2.29-1.01.09-2.02.03-3.03.04.03-.62.08-1.23.07-1.85,0-.2.07-1.08-.11-1.14-.77.2-1.55.01-2.32,0,.08-.37-.07-.79-.07-1.14,0-.59.16-1.21.06-1.81.02,0,.05,0,.07,0v-11.21c-.04-.07-1.01-.03-1.2-.04-.43-.01-.86,0-1.28,0-.57,0-1.14,0-1.71,0,0-.45,0-.91,0-1.36,0-.15,0-.3,0-.46-1.57,0-3.13,0-4.7,0s-3.24,0-4.85,0-3.18,0-4.78,0c-.01.13-.01.27-.01.4-.03,4.09.04,8.18.07,12.27,0,.13,0,.27,0,.4-.6,0-1.21,0-1.81.01v-11.22c-.04-.07-1.01-.03-1.2-.04-.4-.01-.81,0-1.21,0-.57,0-1.14,0-1.71,0,0-.45,0-.91,0-1.36,0-.14,0-.28-.01-.42.57.03,1.16-.02,1.74-.02.43,0,.87-.02,1.3-.02v-1.69s24.28.03,24.28.03Z"/>
        <path class="cls-7" d="M14.62,3.15c1.64-.04,3.28.01,4.92,0,.88,0,1.76.02,2.64,0,0,.19-.03,1.13,0,1.18.08.11,1.08-.03,1.18.04.11.08-.04,1.06.07,1.14s2.31-.08,2.43,0c.13.09-.1,1.04.14,1.14.31.14,1.97-.14,2.28,0,.24.11.01,1.05.14,1.14.1.07,2.09,0,2.39-.07,0,.02,0,.05,0,.07.02.38.07.84.07,1.21h-12.31c.01-.38-.09-.77-.11-1.14,1.47.09.95-.14,1-1.07,0-.13,0-.15,0-.29,0-.17.16-.76.07-.96-.1-.23-.86-.03-1.03-.11-.24-.1-.01-.98-.14-1.07-.04-.03-.87,0-1.03,0-.12,0-.16,0-.29,0-.17,0-.99-.03-1.03,0-.14.1.13.94-.21,1.07-.93.36-.9-.76-.96,1.07,0,.17.07.22.07.29.01.2-.15.69-.07.96.09.19.85.08,1.07.11.02,0,.05,0,.07,0v1.14c-4.14.19-8.35-.19-12.48-.07.17-.19-.01-1.06.11-1.14.14-.1,2.02.11,2.28,0s-.04-1.03.21-1.14c.36-.16,2.23.24,2.39-.18.06-.16-.08-.88.04-.96.14-.1,1.99.11,2.28,0,.35-.13.07-1.04.21-1.14s1.92.11,2.21,0c.35-.14.07-1.11.21-1.21.05-.03.99,0,1.18,0Z"/>
        <path class="cls-5" d="M30.89,31.4c0,.62-.05,1.23-.07,1.85-9.09.09-18.22.1-27.31,0l.1-1.78,27.29-.07Z"/>
        <path class="cls-7" d="M30.82,10.78c.22,0,.45.01.67,0-.04.14-.02.29-.03.43-.01.46,0,.92,0,1.39l-24.28-.03v1.69c-.43,0-.87.02-1.3.02l.06-3.49c8.28,0,16.61.18,24.89,0Z"/>
        <path class="cls-6" d="M19.63,14.25c-.01.13,0,.26,0,.39-.03,4.06.15,8.23,0,12.27,0,.14.04.3-.06.42-.58,0-1.16,0-1.74,0l.02-11.23c-.05-.07-1.09-.03-1.28-.04-.59-.02-1.18,0-1.78,0,0-.48-.01-.96,0-1.43,0-.13,0-.26,0-.39,1.62,0,3.24,0,4.85,0Z"/>
        <path class="cls-7" d="M28.39,29.11c0,.36.15.77.07,1.14-7.5-.12-15.03.28-22.54-.04l.04-1.11h22.44Z"/>
        <path class="cls-4" d="M17.82,27.32c-.43,0-.87,0-1.3,0l.04-11.26c.19,0,1.23-.04,1.28.04l-.02,11.23Z"/>
        <path class="cls-5" d="M27.32,16.06l-.03,11.25c-.39,0-.77,0-1.16,0l-.1-11.25c.43,0,.86-.01,1.28,0Z"/>
        <path class="cls-7" d="M8.26,27.31c-.41,0-.82.02-1.23.02l.03-11.27c.18,0,1.16-.04,1.21.04v11.22Z"/>
        <path class="cls-7" d="M28.45,27.31c-.38.01-.77,0-1.16,0l.03-11.25c.18,0,1.16-.04,1.21.04v11.21s-.06,0-.09,0Z"/>
        <path class="cls-5" d="M7.06,16.06l-.03,11.27c-.36,0-.72.01-1.08.02l-.1-11.29c.4,0,.81-.01,1.21,0Z"/>
        <path class="cls-9" d="M5.93,10.78l-.06,3.49c-.58,0-1.17.05-1.74.02-.3-.01-.97.09-1.15-.19-.08-.12-.06-2.51-.06-2.89,0-.14,0-.29,0-.43h3Z"/>
        <path class="cls-8" d="M30.82,7.78s0-.05,0-.07c-.11-1.89-.11-.68-1.11-1.07-.35-.14-.07-1.04-.21-1.14-.55-.39-3.02.89-2.35-1.14.32.06,2.25-.08,2.35,0,.12.08-.03.88.04,1.03.11.24,1.06.02,1.18.11s-.05.88.07,1.07c.06.1,2.05-.07,2.35,0,.7,1.87-1.22,1.03-2.32,1.21Z"/>
        <path class="cls-5" d="M19.55,3.15c-1.64.01-3.29-.04-4.92,0,.03-.18-.06-1.08.04-1.14.19-.14,4.56-.1,4.78,0s.06.93.11,1.14Z"/>
        <path class="cls-8" d="M3.67,5.5c.07-.05.96.04,1.14,0,.4,1.81-.82.86-1.21,1.14-.13.09.1,1.04-.14,1.14-.12.05-2.26.03-2.32-.11s.02-.9.04-1.11c.14-.1,2.09.12,2.35,0,.24-.1.01-.98.14-1.07Z"/>
        <path class="cls-8" d="M22.19,3.15c0-.17.04-1.09-.04-1.14-1.18-.21-2.79.72-2.39-1.18.34.13,2.26-.06,2.39.04.12.08-.03.88.04,1.03.17.37,1.71-.49,1.18,1.25-.39,0-.79-.01-1.18,0Z"/>
        <path class="cls-6" d="M33.24,9c0,.39-.05.84.07,1.21-.36.08-.53.56-.57.57-.12.05-1.01-.01-1.26,0-.22,0-.45,0-.67,0-.08-.59.07-1.2.07-1.78h2.35Z"/>
        <path class="cls-8" d="M33.32,10.21c-.12-.37-.07-.82-.07-1.21,0-.18-.03-1.16.04-1.21l1.18.04v2.28c-.1.22-.92.06-1.14.11Z"/>
        <polygon class="cls-8" points=".04 7.78 1.14 7.82 1.11 10.28 0 10.17 .04 7.78"/>
        <path class="cls-8" d="M12.23.86c.32.06,2.25-.08,2.35,0,.07.05.12,1.04-.14,1.14-.1.04-2.04.04-2.14,0-.19-.08-.11-.95-.07-1.14Z"/>
        <path class="cls-8" d="M4.89,4.36h2.28c.17.08.19,1.04-.07,1.14-.1.04-2.04.04-2.14,0-.19-.08-.11-.95-.07-1.14Z"/>
        <path class="cls-8" d="M11.02,2.01h1.14s.06.97.04,1.03c-.06.14-1.02.15-1.11.11-.19-.08-.11-.95-.07-1.14Z"/>
        <path class="cls-8" d="M17.05,4.36c.18,1.86-.42.83-.96,1.07-.34.15.43,1.54-1.25,1.07.07-1.83.03-.71.96-1.07.34-.13.08-.97.21-1.07.04-.03.87,0,1.03,0Z"/>
        <path class="cls-8" d="M19.48,6.5c-1.73.17-.79-.33-1.07-.96-.1-.24-.98-.01-1.07-.14-.05-.07.04-.86,0-1.03.17,0,.99-.03,1.03,0,.13.09-.09.97.14,1.07.18.08.93-.13,1.03.11.09.2-.08.79-.07.96Z"/>
        <path class="cls-8" d="M15.91,7.86c-.22-.02-.98.09-1.07-.11-.08-.27.08-.76.07-.96l1.07.04-.07,1.03Z"/>
        <path class="cls-8" d="M19.48,6.79c-.05.93.47,1.16-1,1.07-.01-.18-.16-.91-.07-1.03l1.07-.04Z"/>
        <path class="cls-8" d="M15.98,9v-1.14c.35.03.71.09,1.07.11.08,1.32-.03.99-1.07,1.03Z"/>
        <g>
          <path class="cls-5" d="M17.34,4.36c.04.17-.05.97,0,1.03.09.13.97-.09,1.07.14.28.63-.66,1.13,1.07.96,0,.13,0,.16,0,.29l-1.07.04c-.09.12.06.86.07,1.03.02.37.12.77.11,1.14h12.31c0,.58-.15,1.19-.07,1.78-8.28.18-16.6,0-24.89,0h-3c-.22,0-.44,0-.65,0,.07-.23.03-1.68.08-1.75.03-.05,1-.1,1.14-.11,4.14-.12,8.34.26,12.48.07,1.04-.05,1.15.29,1.07-1.03-.36-.01-.72-.07-1.07-.11-.02,0-.05,0-.07,0l.07-1.03-1.07-.04c0-.06-.08-.11-.07-.29,1.67.47.91-.92,1.25-1.07.54-.24,1.14.79.96-1.07.12,0,.16,0,.29,0Z"/>
          <path class="cls-8" d="M17.3,7.93h1.07c.52,1.55-1.56,1.51-1.07,0Z"/>
        </g>
      </g>
      <g>
        <path class="cls-2" d="M2.92,11.21c0,.37-.02,2.77.06,2.89.18.28.85.17,1.15.19.57.03,1.16-.02,1.74-.02.43,0,.87-.02,1.3-.02.94,0,1.88-.02,2.83-.02,1.59,0,3.18,0,4.78,0s3.24,0,4.85,0,3.13.01,4.7,0c1.98-.01,3.99.05,5.97-.03.37-.02.75.04,1.11-.05.09-.09.05-1.33.05-1.57,0-.46,0-.92,0-1.39"/>
        <path class="cls-1" d="M1.57,10.78h.7c.22,0,.44,0,.65,0h3c8.28,0,16.61.18,24.89,0,.22,0,.45.01.67,0,.25,0,1.13.05,1.26,0"/>
        <path class="cls-2" d="M4.14,14.7c0,.45,0,.91,0,1.36,0,3.59,0,7.18,0,10.77"/>
        <path class="cls-2" d="M30.32,14.63c.09,4.04-.12,8.09-.07,12.13"/>
        <path class="cls-2" d="M9.99,14.63c-.03,4.09.04,8.18.07,12.27"/>
        <path class="cls-2" d="M14.77,14.63c0,.48,0,.96,0,1.43.02,3.61.05,7.22.07,10.84"/>
        <path class="cls-2" d="M19.62,14.63c-.03,4.06.15,8.23,0,12.27"/>
        <path class="cls-2" d="M24.33,14.7c0,.45,0,.91,0,1.36v10.77"/>
        <path class="cls-2" d="M3.07,27.4l2.89-.05c.36,0,.72-.01,1.08-.02.41,0,.82-.02,1.23-.02.6,0,1.2,0,1.81-.01,2.15-.01,4.3.02,6.44.02.43,0,.87,0,1.3,0,.58,0,1.16,0,1.74,0,2.19,0,4.39.01,6.58-.02.39,0,.77,0,1.16,0s.77.01,1.16,0c.02,0,.05,0,.07,0,.63-.02,1.12-.05,1.75-.11.38-.04.75-.18,1.14-.15.17.13,0,2.35.14,2.56.1.15.68.05.98.18.22.1,1.23.91,1.31,1.15.05.14.09,2.2.01,2.29-1.01.09-2.02.03-3.03.04-9.09.09-18.22.1-27.31,0-.96-.01-1.93.04-2.89-.04l-.04-2.52"/>
        <path class="cls-2" d="M3.07,27.4c-.08.37.09,1.99-.04,2.19-.12.19-1.07.04-1.32.1"/>
        <line class="cls-3" x1="7.49" y1="3.79" x2="10.77" y2="3.79"/>
        <line class="cls-3" x1="19.55" y1=".22" x2="14.84" y2=".3"/>
        <line class="cls-3" x1="23.61" y1="3.72" x2="26.9" y2="3.72"/>
      </g>
    </g>
  </g>
</svg>