<svg xmlns="http://www.w3.org/2000/svg" version="1.1" width="53px" height="53px" viewBox="0 0 32 32" shape_rendering="crispEdges" preserveAspectRatio="xMidYMid meet"><rect x="18" y="6" width="1" height="1" fill="#351358" /><rect x="19" y="6" width="1" height="1" fill="#321357" /><rect x="20" y="6" width="1" height="1" fill="#311456" /><rect x="17" y="7" width="1" height="1" fill="#33145a" /><rect x="18" y="7" width="1" height="1" fill="#f03057" /><rect x="19" y="7" width="1" height="1" fill="#f02f57" /><rect x="20" y="7" width="1" height="1" fill="#ed2e58" /><rect x="21" y="7" width="1" height="1" fill="#341358" /><rect x="16" y="8" width="1" height="1" fill="#341356" /><rect x="17" y="8" width="1" height="1" fill="#f23258" /><rect x="18" y="8" width="1" height="1" fill="#f33358" /><rect x="19" y="8" width="1" height="1" fill="#361156" /><rect x="20" y="8" width="1" height="1" fill="#361258" /><rect x="21" y="8" width="1" height="1" fill="#ef3059" /><rect x="22" y="8" width="1" height="1" fill="#331457" /><rect x="15" y="9" width="1" height="1" fill="#321357" /><rect x="16" y="9" width="1" height="1" fill="#341257" /><rect x="17" y="9" width="1" height="1" fill="#fc7076" /><rect x="18" y="9" width="1" height="1" fill="#361357" /><rect x="19" y="9" width="1" height="1" fill="#f73d54" /><rect x="20" y="9" width="1" height="1" fill="#f73a55" /><rect x="21" y="9" width="1" height="1" fill="#8a208e" /><rect x="22" y="9" width="1" height="1" fill="#331258" /><rect x="26" y="9" width="1" height="1" fill="#311357" /><rect x="14" y="10" width="1" height="1" fill="#311355" /><rect x="15" y="10" width="1" height="1" fill="#ffc784" /><rect x="16" y="10" width="1" height="1" fill="#341656" /><rect x="17" y="10" width="1" height="1" fill="#fc6e76" /><rect x="18" y="10" width="1" height="1" fill="#351559" /><rect x="19" y="10" width="1" height="1" fill="#f93b53" /><rect x="20" y="10" width="1" height="1" fill="#f83854" /><rect x="21" y="10" width="1" height="1" fill="#f73a54" /><rect x="22" y="10" width="1" height="1" fill="#8d208e" /><rect x="23" y="10" width="1" height="1" fill="#331458" /><rect x="25" y="10" width="1" height="1" fill="#2f1355" /><rect x="12" y="11" width="1" height="1" fill="#311558" /><rect x="13" y="11" width="1" height="1" fill="#331158" /><rect x="14" y="11" width="1" height="1" fill="#fec683" /><rect x="15" y="11" width="1" height="1" fill="#fe8463" /><rect x="16" y="11" width="1" height="1" fill="#361359" /><rect x="17" y="11" width="1" height="1" fill="#fd6c74" /><rect x="18" y="11" width="1" height="1" fill="#351459" /><rect x="19" y="11" width="1" height="1" fill="#f73d52" /><rect x="20" y="11" width="1" height="1" fill="#f83b53" /><rect x="21" y="11" width="1" height="1" fill="#f63954" /><rect x="22" y="11" width="1" height="1" fill="#8b218e" /><rect x="23" y="11" width="1" height="1" fill="#311456" /><rect x="6" y="12" width="1" height="1" fill="#321357" /><rect x="7" y="12" width="1" height="1" fill="#321358" /><rect x="8" y="12" width="1" height="1" fill="#331358" /><rect x="9" y="12" width="1" height="1" fill="#321357" /><rect x="10" y="12" width="1" height="1" fill="#331357" /><rect x="11" y="12" width="1" height="1" fill="#331355" /><rect x="12" y="12" width="1" height="1" fill="#fec583" /><rect x="13" y="12" width="1" height="1" fill="#fec381" /><rect x="14" y="12" width="1" height="1" fill="#ff8365" /><rect x="15" y="12" width="1" height="1" fill="#ff8363" /><rect x="16" y="12" width="1" height="1" fill="#371558" /><rect x="17" y="12" width="1" height="1" fill="#fc6e75" /><rect x="18" y="12" width="1" height="1" fill="#351557" /><rect x="19" y="12" width="1" height="1" fill="#361259" /><rect x="20" y="12" width="1" height="1" fill="#351457" /><rect x="21" y="12" width="1" height="1" fill="#f73753" /><rect x="22" y="12" width="1" height="1" fill="#f73755" /><rect x="23" y="12" width="1" height="1" fill="#331357" /><rect x="5" y="13" width="1" height="1" fill="#301457" /><rect x="6" y="13" width="1" height="1" fill="#f33257" /><rect x="7" y="13" width="1" height="1" fill="#fb6c75" /><rect x="8" y="13" width="1" height="1" fill="#fc6d74" /><rect x="9" y="13" width="1" height="1" fill="#fb6b73" /><rect x="10" y="13" width="1" height="1" fill="#341359" /><rect x="11" y="13" width="1" height="1" fill="#fec782" /><rect x="12" y="13" width="1" height="1" fill="#fe8363" /><rect x="13" y="13" width="1" height="1" fill="#fe8364" /><rect x="14" y="13" width="1" height="1" fill="#fe8465" /><rect x="15" y="13" width="1" height="1" fill="#ff8365" /><rect x="16" y="13" width="1" height="1" fill="#361458" /><rect x="17" y="13" width="1" height="1" fill="#fa6f73" /><rect x="18" y="13" width="1" height="1" fill="#361459" /><rect x="19" y="13" width="1" height="1" fill="#ff8464" /><rect x="20" y="13" width="1" height="1" fill="#fec782" /><rect x="21" y="13" width="1" height="1" fill="#371459" /><rect x="22" y="13" width="1" height="1" fill="#f93e52" /><rect x="23" y="13" width="1" height="1" fill="#341358" /><rect x="4" y="14" width="1" height="1" fill="#301357" /><rect x="5" y="14" width="1" height="1" fill="#301158" /><rect x="6" y="14" width="1" height="1" fill="#fb6d76" /><rect x="7" y="14" width="1" height="1" fill="#f43757" /><rect x="8" y="14" width="1" height="1" fill="#f63656" /><rect x="9" y="14" width="1" height="1" fill="#f63954" /><rect x="10" y="14" width="1" height="1" fill="#331457" /><rect x="11" y="14" width="1" height="1" fill="#ff8364" /><rect x="12" y="14" width="1" height="1" fill="#fe8364" /><rect x="13" y="14" width="1" height="1" fill="#ff8263" /><rect x="14" y="14" width="1" height="1" fill="#ff8362" /><rect x="15" y="14" width="1" height="1" fill="#ff8162" /><rect x="16" y="14" width="1" height="1" fill="#361359" /><rect x="17" y="14" width="1" height="1" fill="#fd6f72" /><rect x="18" y="14" width="1" height="1" fill="#361358" /><rect x="19" y="14" width="1" height="1" fill="#ff8161" /><rect x="20" y="14" width="1" height="1" fill="#ff8263" /><rect x="21" y="14" width="1" height="1" fill="#361358" /><rect x="22" y="14" width="1" height="1" fill="#fc4152" /><rect x="23" y="14" width="1" height="1" fill="#331357" /><rect x="25" y="14" width="1" height="1" fill="#301356" /><rect x="26" y="14" width="1" height="1" fill="#321455" /><rect x="27" y="14" width="1" height="1" fill="#311357" /><rect x="4" y="15" width="1" height="1" fill="#331157" /><rect x="5" y="15" width="1" height="1" fill="#8b1e8d" /><rect x="6" y="15" width="1" height="1" fill="#f43355" /><rect x="7" y="15" width="1" height="1" fill="#f33457" /><rect x="8" y="15" width="1" height="1" fill="#f53555" /><rect x="9" y="15" width="1" height="1" fill="#f83955" /><rect x="10" y="15" width="1" height="1" fill="#36125a" /><rect x="11" y="15" width="1" height="1" fill="#ff7f5f" /><rect x="12" y="15" width="1" height="1" fill="#fe8363" /><rect x="13" y="15" width="1" height="1" fill="#ff8162" /><rect x="14" y="15" width="1" height="1" fill="#ff8063" /><rect x="15" y="15" width="1" height="1" fill="#fe8261" /><rect x="16" y="15" width="1" height="1" fill="#361257" /><rect x="17" y="15" width="1" height="1" fill="#fb4250" /><rect x="18" y="15" width="1" height="1" fill="#351458" /><rect x="19" y="15" width="1" height="1" fill="#fd474f" /><rect x="20" y="15" width="1" height="1" fill="#ff8060" /><rect x="21" y="15" width="1" height="1" fill="#371358" /><rect x="22" y="15" width="1" height="1" fill="#fb4051" /><rect x="23" y="15" width="1" height="1" fill="#321258" /><rect x="4" y="16" width="1" height="1" fill="#321458" /><rect x="5" y="16" width="1" height="1" fill="#8c208a" /><rect x="6" y="16" width="1" height="1" fill="#f23456" /><rect x="7" y="16" width="1" height="1" fill="#f43456" /><rect x="8" y="16" width="1" height="1" fill="#f43556" /><rect x="9" y="16" width="1" height="1" fill="#f43754" /><rect x="10" y="16" width="1" height="1" fill="#361459" /><rect x="11" y="16" width="1" height="1" fill="#fc4251" /><rect x="12" y="16" width="1" height="1" fill="#ff8162" /><rect x="13" y="16" width="1" height="1" fill="#ff8060" /><rect x="14" y="16" width="1" height="1" fill="#ff8061" /><rect x="15" y="16" width="1" height="1" fill="#fe8161" /><rect x="16" y="16" width="1" height="1" fill="#381458" /><rect x="17" y="16" width="1" height="1" fill="#fa4352" /><rect x="18" y="16" width="1" height="1" fill="#36145a" /><rect x="19" y="16" width="1" height="1" fill="#fd4650" /><rect x="20" y="16" width="1" height="1" fill="#fd444f" /><rect x="21" y="16" width="1" height="1" fill="#39155a" /><rect x="22" y="16" width="1" height="1" fill="#fa3e51" /><rect x="23" y="16" width="1" height="1" fill="#331458" /><rect x="4" y="17" width="1" height="1" fill="#331456" /><rect x="5" y="17" width="1" height="1" fill="#311257" /><rect x="6" y="17" width="1" height="1" fill="#891e8d" /><rect x="7" y="17" width="1" height="1" fill="#8a1f8c" /><rect x="8" y="17" width="1" height="1" fill="#891f8c" /><rect x="9" y="17" width="1" height="1" fill="#8a208c" /><rect x="10" y="17" width="1" height="1" fill="#331057" /><rect x="11" y="17" width="1" height="1" fill="#fd434f" /><rect x="12" y="17" width="1" height="1" fill="#fc474e" /><rect x="13" y="17" width="1" height="1" fill="#fe464e" /><rect x="14" y="17" width="1" height="1" fill="#fc464e" /><rect x="15" y="17" width="1" height="1" fill="#ff8161" /><rect x="16" y="17" width="1" height="1" fill="#361257" /><rect x="17" y="17" width="1" height="1" fill="#f83d53" /><rect x="18" y="17" width="1" height="1" fill="#351358" /><rect x="19" y="17" width="1" height="1" fill="#361358" /><rect x="20" y="17" width="1" height="1" fill="#371259" /><rect x="21" y="17" width="1" height="1" fill="#fb4151" /><rect x="22" y="17" width="1" height="1" fill="#fa3f52" /><rect x="23" y="17" width="1" height="1" fill="#321258" /><rect x="5" y="18" width="1" height="1" fill="#311157" /><rect x="6" y="18" width="1" height="1" fill="#311358" /><rect x="7" y="18" width="1" height="1" fill="#341358" /><rect x="8" y="18" width="1" height="1" fill="#331158" /><rect x="9" y="18" width="1" height="1" fill="#331257" /><rect x="10" y="18" width="1" height="1" fill="#341157" /><rect x="11" y="18" width="1" height="1" fill="#361355" /><rect x="12" y="18" width="1" height="1" fill="#fc4750" /><rect x="13" y="18" width="1" height="1" fill="#fd474f" /><rect x="14" y="18" width="1" height="1" fill="#fc464f" /><rect x="15" y="18" width="1" height="1" fill="#fc464c" /><rect x="16" y="18" width="1" height="1" fill="#361358" /><rect x="17" y="18" width="1" height="1" fill="#f53a54" /><rect x="18" y="18" width="1" height="1" fill="#351259" /><rect x="19" y="18" width="1" height="1" fill="#fe8062" /><rect x="20" y="18" width="1" height="1" fill="#ff8161" /><rect x="21" y="18" width="1" height="1" fill="#ff7c5f" /><rect x="22" y="18" width="1" height="1" fill="#8c208f" /><rect x="23" y="18" width="1" height="1" fill="#331358" /><rect x="25" y="18" width="1" height="1" fill="#301257" /><rect x="6" y="19" width="1" height="1" fill="#321357" /><rect x="7" y="19" width="1" height="1" fill="#fc404f" /><rect x="8" y="19" width="1" height="1" fill="#fa4150" /><rect x="9" y="19" width="1" height="1" fill="#fb4351" /><rect x="10" y="19" width="1" height="1" fill="#341358" /><rect x="12" y="19" width="1" height="1" fill="#351359" /><rect x="13" y="19" width="1" height="1" fill="#361358" /><rect x="14" y="19" width="1" height="1" fill="#fd454f" /><rect x="15" y="19" width="1" height="1" fill="#fd464d" /><rect x="16" y="19" width="1" height="1" fill="#371359" /><rect x="17" y="19" width="1" height="1" fill="#f53654" /><rect x="18" y="19" width="1" height="1" fill="#341559" /><rect x="19" y="19" width="1" height="1" fill="#ff8063" /><rect x="20" y="19" width="1" height="1" fill="#ff8062" /><rect x="21" y="19" width="1" height="1" fill="#ff7f61" /><rect x="22" y="19" width="1" height="1" fill="#8d208e" /><rect x="23" y="19" width="1" height="1" fill="#321358" /><rect x="26" y="19" width="1" height="1" fill="#301258" /><rect x="6" y="20" width="1" height="1" fill="#31145a" /><rect x="7" y="20" width="1" height="1" fill="#8b1f8e" /><rect x="8" y="20" width="1" height="1" fill="#fe7e63" /><rect x="9" y="20" width="1" height="1" fill="#fb414f" /><rect x="10" y="20" width="1" height="1" fill="#341158" /><rect x="14" y="20" width="1" height="1" fill="#351159" /><rect x="15" y="20" width="1" height="1" fill="#341458" /><rect x="16" y="20" width="1" height="1" fill="#331259" /><rect x="17" y="20" width="1" height="1" fill="#8d1f8e" /><rect x="18" y="20" width="1" height="1" fill="#341358" /><rect x="19" y="20" width="1" height="1" fill="#ff7e61" /><rect x="20" y="20" width="1" height="1" fill="#ff7c61" /><rect x="21" y="20" width="1" height="1" fill="#89218d" /><rect x="22" y="20" width="1" height="1" fill="#321358" /><rect x="7" y="21" width="1" height="1" fill="#341557" /><rect x="8" y="21" width="1" height="1" fill="#ff7c61" /><rect x="9" y="21" width="1" height="1" fill="#ff8062" /><rect x="10" y="21" width="1" height="1" fill="#341359" /><rect x="16" y="21" width="1" height="1" fill="#35135a" /><rect x="17" y="21" width="1" height="1" fill="#8a208d" /><rect x="18" y="21" width="1" height="1" fill="#8b218f" /><rect x="19" y="21" width="1" height="1" fill="#35145a" /><rect x="20" y="21" width="1" height="1" fill="#341459" /><rect x="21" y="21" width="1" height="1" fill="#8c228f" /><rect x="22" y="21" width="1" height="1" fill="#321358" /><rect x="7" y="22" width="1" height="1" fill="#341358" /><rect x="8" y="22" width="1" height="1" fill="#fd424f" /><rect x="9" y="22" width="1" height="1" fill="#ff8061" /><rect x="10" y="22" width="1" height="1" fill="#ff7f61" /><rect x="11" y="22" width="1" height="1" fill="#331457" /><rect x="17" y="22" width="1" height="1" fill="#341257" /><rect x="18" y="22" width="1" height="1" fill="#8c218d" /><rect x="19" y="22" width="1" height="1" fill="#8c238f" /><rect x="20" y="22" width="1" height="1" fill="#8b218d" /><rect x="21" y="22" width="1" height="1" fill="#331258" /><rect x="7" y="23" width="1" height="1" fill="#331358" /><rect x="8" y="23" width="1" height="1" fill="#fa414e" /><rect x="9" y="23" width="1" height="1" fill="#ff7e60" /><rect x="10" y="23" width="1" height="1" fill="#ff7f5f" /><rect x="11" y="23" width="1" height="1" fill="#331259" /><rect x="18" y="23" width="1" height="1" fill="#321457" /><rect x="19" y="23" width="1" height="1" fill="#321358" /><rect x="20" y="23" width="1" height="1" fill="#301457" /><rect x="8" y="24" width="1" height="1" fill="#321358" /><rect x="9" y="24" width="1" height="1" fill="#341357" /><rect x="10" y="24" width="1" height="1" fill="#341358" /></svg>