<?xml version="1.0" encoding="UTF-8"?>
<svg id="Layer_2" data-name="Layer 2" xmlns="http://www.w3.org/2000/svg" viewBox="0 0 32.7 28.15">
  <defs>
    <style>
      .cls-1 {
        fill: #333362;
      }

      .cls-2 {
        fill: #d2432d;
      }

      .cls-3 {
        fill: #485b95;
      }

      .cls-4 {
        fill: #b0b4cd;
      }

      .cls-5 {
        fill: #e05f01;
      }

      .cls-6 {
        fill: #e34956;
      }

      .cls-7 {
        fill: #6a83c4;
      }

      .cls-8 {
        fill: #303160;
      }

      .cls-9 {
        fill: #7481ad;
      }

      .cls-10 {
        fill: #f8d263;
      }

      .cls-11 {
        fill: #c41d2c;
      }

      .cls-12 {
        fill: #3564a1;
      }

      .cls-13 {
        fill: #fabc4c;
      }

      .cls-14 {
        fill: #eb8f42;
      }

      .cls-15 {
        fill: none;
        stroke: #313364;
        stroke-linecap: square;
        stroke-linejoin: round;
        stroke-width: 1.19px;
      }

      .cls-16 {
        fill: #b3b1da;
      }
    </style>
  </defs>
  <g id="Layer_1-2" data-name="Layer 1">
    <g id="Generative_Object" data-name="Generative Object">
      <g>
        <path class="cls-11" d="M17.65,9.34c0,.84-.03,1.69.03,2.54h5.93l.1.61,3.42-.15c0,2.07.08,4.16.1,6.24,0,.72-.22,2.53.05,3.09l-9.3-4.11c-.45-.02-.88-.26-1.29-.35l-.1-10.65c.05,0,.88-.32.96-.35.13.09.09.09.1.23.07.91,0,1.98,0,2.92Z"/>
        <path class="cls-10" d="M27.28,1.33l-.2,3.75-9.43,4.26c0-.94.07-2,0-2.92-.01-.14.03-.14-.1-.23,3.15-1.49,6.58-3.29,9.74-4.87Z"/>
        <path class="cls-7" d="M29.71,8.64c0,1.07,0,2.14,0,3.2,0,.22,0,.44,0,.66-.35-.1-1.51.14-1.67-.2-.19-.4.25-.65-.86-.43,0-2.19.06-4.38,0-6.57,0-.09.05-.25-.1-.23l.2-3.75c.28-.14.52-.43.71-.68.29.02,1.65.03,1.72.21,0,2.59,0,5.19,0,7.78Z"/>
        <path class="cls-3" d="M29.71,12.51c0,.9,0,1.8,0,2.7,0,1.14,0,2.27,0,3.41-.54,0-1.08.03-1.62.01-.28-.01-.57-.1-.86-.05-.02-2.07-.1-4.17-.1-6.24,0-.1.05-.29.05-.46,1.11-.21.67.03.86.43.16.34,1.32.09,1.67.2Z"/>
        <path class="cls-5" d="M4.46,11.88c.06.02.11,0,.15.08.06.17-.05.48-.05.63,0,.83-.08,1.71-.05,2.54-.52-.05-1.21.12-1.67-.1-.23-.11-.47-.52-.71-.66v.05c-.25,0-.69.74-.74.76-.06.03-1.35.03-1.39-.03C0,14.06,0,12.97,0,11.88l2.13-.03v.05c.59.06,1.82-.16,2.33-.03Z"/>
        <path class="cls-13" d="M2.59,8.99c.36-.1,1.47.17,1.93.05.22.86.04,1.78.1,2.66l-.15.18c-.52-.14-1.74.08-2.33.03v-.05L0,11.88C0,10.81,0,9.73,0,8.66c.04-.06,1.24-.04,1.39.03.14.05.63.72.76.71.05,0,.32-.37.43-.41Z"/>
        <path class="cls-16" d="M28.09,18.62c-.18,1,1.01.36,1.62.5,0,1.1.01,2.2-.01,3.3-.06.1-1.47.06-1.71.07-.1-.32-.58-.55-.71-.82-.27-.56-.04-2.37-.05-3.09.29-.05.58.04.86.05Z"/>
        <path class="cls-11" d="M31.29,11.83c0,.59,0,1.19,0,1.77,0,.5,0,1,0,1.5-.09.22-1.3.11-1.57.1,0-.9,0-1.8,0-2.7,0-.22,0-.44,0-.66l1.57-.02Z"/>
        <path class="cls-6" d="M31.29,10.21c.01.54,0,1.08,0,1.62l-1.57.02c0-1.07,0-2.14,0-3.2h1.5c.13.05.07,1.34.08,1.56Z"/>
        <path class="cls-1" d="M31.29,13.6c0-.59,0-1.19,0-1.77,0-.54.01-1.08,0-1.62l1.37.08c.06.15.06,3.05,0,3.19-.09.24-1.1.08-1.37.13Z"/>
        <path class="cls-9" d="M29.71,18.61c0,.17,0,.34,0,.51-.61-.14-1.8.5-1.62-.5.54.02,1.08,0,1.62-.01Z"/>
        <path class="cls-12" d="M15.06,12.59c0,.56.09,3.54,0,3.78-.01.03-.1.09-.13.13H4.69c-.18-.07-.07-1.07-.08-1.34,0-.04-.1-.02-.1-.03-.03-.82.06-1.7.05-2.54h10.5Z"/>
        <path class="cls-7" d="M15.06,9.04c.02,1.18,0,2.37,0,3.55H4.56c0-.15.11-.47.05-.63-.05-.08-.09-.06-.15-.08l.15-.18c-.06-.88.11-1.8-.1-2.66l.05-.05,10.5.05Z"/>
        <path class="cls-4" d="M15.06,9.04l-10.5-.05.03-1.52h10.39c.13.06.07,1.35.08,1.57Z"/>
        <g>
          <path class="cls-1" d="M16.68,17.2l-.1-10.65c-.11.02-1.28.07-1.34.05-.28-.11,0-.72-.2-.81H4.59l-.03,1.5c-.08.19-1.45.11-1.7.13-.04.58.04,1.05-.28,1.57.36-.1,1.47.17,1.93.05l.05-.05.03-1.52h10.39c.13.06.07,1.35.08,1.57.02,1.18,0,2.37,0,3.55,0,.56.09,3.54,0,3.78-.01.03-.1.09-.13.13H4.69c-.18-.07-.07-1.07-.08-1.34,0-.04-.1-.02-.1-.03-.52-.05-1.21.12-1.67-.1l.05,1.65,1.55.03.15,1.42,1.34.03.61,3.52c.34.09.22,1.38.25,1.67.01.1.14.42.15.58.1,1.39-.04,2.8.13,4.18l6.74.04v-1.63h-.12s-.51-8.38-.51-8.38c1.06-.23,2.18.59,1.95-1.04.55-.03,1.04,0,1.55.1Z"/>
          <path class="cls-2" d="M8.57,25.11c.19.1,1.51.06,1.57-.08-.01-.72-.34-5.53-.63-5.81-.2-.18-1.4-.19-1.7-.1-.03-.15-.26-1-.18-1.06l3.93.08.46,8.27c-.07.16-3.09.06-3.45.05-.01-.45.01-.9,0-1.34Z"/>
          <path class="cls-14" d="M8.57,25.11c-.07-2.21-.36-3.84-.76-5.98.3-.09,1.5-.08,1.7.1.3.27.62,5.09.63,5.81-.06.13-1.38.17-1.57.08Z"/>
        </g>
        <path class="cls-6" d="M27.18,11.88c0,.16-.05.36-.05.46l-3.42.15-.1-.61h-5.93c-.05-.84-.02-1.69-.03-2.54l9.43-4.26c.15-.02.1.14.1.23.06,2.19,0,4.38,0,6.57Z"/>
      </g>
      <g>
        <path class="cls-8" d="M2.72,9.45v6.07h-1.19c0-.77,0-5.9,0-6.67.39,0,.8-.08,1.18-.05.02.13,0,.47,0,.64h0Z"/>
        <path class="cls-15" d="M27.69.63c.1,0,.2.01.3.02.29.02,1.65.03,1.72.21,0,2.59,0,5.19,0,7.78,0,1.07,0,2.14,0,3.2,0,.22,0,.44,0,.66,0,.9,0,1.8,0,2.7,0,1.14,0,2.27,0,3.41,0,.17,0,.34,0,.51,0,1.1.01,2.2-.01,3.3-.06.1-1.47.06-1.71.07-.1,0-.2,0-.3,0"/>
      </g>
    </g>
  </g>
</svg>