<?xml version="1.0" encoding="UTF-8"?>
<svg id="Layer_2" data-name="Layer 2" xmlns="http://www.w3.org/2000/svg" viewBox="0 0 31.93 26.22">
  <defs>
    <style>
      .cls-1 {
        fill: #d3c860;
      }

      .cls-1, .cls-2, .cls-3, .cls-4, .cls-5, .cls-6, .cls-7, .cls-8, .cls-9, .cls-10, .cls-11, .cls-12, .cls-13, .cls-14, .cls-15, .cls-16, .cls-17, .cls-18, .cls-19, .cls-20, .cls-21, .cls-22, .cls-23, .cls-24, .cls-25, .cls-26, .cls-27, .cls-28, .cls-29, .cls-30, .cls-31, .cls-32, .cls-33, .cls-34, .cls-35, .cls-36, .cls-37, .cls-38 {
        stroke-width: 0px;
      }

      .cls-2 {
        fill: #ddeedb;
      }

      .cls-3 {
        fill: #dfedc6;
      }

      .cls-4 {
        fill: #642947;
      }

      .cls-5 {
        fill: #cf212e;
      }

      .cls-6 {
        fill: #90c9e9;
      }

      .cls-7 {
        fill: #136332;
      }

      .cls-8 {
        fill: #173a4e;
      }

      .cls-9 {
        fill: #2b1913;
      }

      .cls-10 {
        fill: #ece6c0;
      }

      .cls-11 {
        fill: #f6ddc1;
      }

      .cls-12 {
        fill: #054a76;
      }

      .cls-13 {
        fill: #e3b542;
      }

      .cls-14 {
        fill: #f6f5be;
      }

      .cls-15 {
        fill: #fafaf4;
      }

      .cls-16 {
        fill: #143960;
      }

      .cls-17 {
        fill: #d93827;
      }

      .cls-18 {
        fill: #dbc8c5;
      }

      .cls-19 {
        fill: #2b1c0e;
      }

      .cls-20 {
        fill: #1f733a;
      }

      .cls-21 {
        fill: #5f5f2a;
      }

      .cls-22 {
        fill: #0e0e0d;
      }

      .cls-23 {
        fill: #729144;
      }

      .cls-24 {
        fill: #c0e0b6;
      }

      .cls-25 {
        fill: #34141c;
      }

      .cls-26 {
        fill: #e4443d;
      }

      .cls-27 {
        fill: #ece7e9;
      }

      .cls-28 {
        fill: #11294c;
      }

      .cls-29 {
        fill: #fdd8c2;
      }

      .cls-30 {
        fill: #213337;
      }

      .cls-31 {
        fill: #cf2c45;
      }

      .cls-32 {
        fill: #b41f2c;
      }

      .cls-33 {
        fill: #461a16;
      }

      .cls-34 {
        fill: #0f2f29;
      }

      .cls-35 {
        fill: #6b120f;
      }

      .cls-36 {
        fill: #91c88e;
      }

      .cls-37 {
        fill: #faf5e2;
      }

      .cls-38 {
        fill: #1b2614;
      }
    </style>
  </defs>
  <g id="Layer_1-2" data-name="Layer 1">
    <g>
      <path class="cls-22" d="M28.73.09c.07,0,.14,0,.22,0-.01,1.43.38.73.52.93.17.24-.47.93.69.75l.09.09.06.65c.19,0,.39-.01.58,0,.12,0,.08.04.09.04.02.12-.03.69.02.73.03.02.69-.02.84,0,0,0,.04-.03.04.09,0,.13,0,.26,0,.39.02.73,0,1.47,0,2.2,0,.37,0,.75,0,1.12,0,.57,0,1.15,0,1.72,0,.47,0,.95,0,1.42,0,.57,0,1.15,0,1.72,0,.56,0,1.12,0,1.68,0,.72,0,1.44,0,2.16,0,.43,0,.86,0,1.29,0,.56.04,1.12.04,1.68,0,.5,0,1.01,0,1.51,0,.7.02,1.41,0,2.11,0,.29,0,.59,0,.88l-.91.11c-.01.26.02.52,0,.78-.01.24.05.48-.06.56-.4.18-1.05-.47-.88.69-.01,0,.06.03-.22.04-.21,0-.42,0-.63,0-.06.05.01.67-.02.71-.03.04-.55.02-.65.02-.69.02-1.38,0-2.07,0-.45,0-.89,0-1.34,0-.7,0-1.41,0-2.11,0-.42,0-.83,0-1.25,0-.73,0-1.47,0-2.2,0-.19,0-.37,0-.56,0-.27,0-.55,0-.82,0v-.88l-.82-.02s-.04.03-.04-.09c0-.11-.02-.79.02-.82h2.35s.09-.01.09.02c0,.12-.02.81.02.84h8.15l.04-.82h1.08l.09-.95h.91l.09-.82.84-.06c.11-.26-.08-4.9-.09-5.63,0-2.17.05-4.34.04-6.51-.01-2.38-.02-4.8-.06-7.16l-.71-.02c.16-1.25-.46-.58-.71-.75-.07-.05.04-.67-.09-.73h-2.2l-.09-.82c-2.43.06-4.87.06-7.31.04-2.19-.01-4.37,0-6.55,0-2.99,0-5.99-.02-8.99-.04l-.13.86c-1.36-.09-.87.21-.99.3-.18.12-.52-.38-.47.69-.97-.1-.62.14-.73,1.29l-.97.06c0,2.09,0,4.18,0,6.27,0,2.16.03,4.31.04,6.47,0,1.15,0,2.3,0,3.45,0,.71-.09,1.42-.04,2.13l.93.06.04.86h.99l.09.99h1.21l.09.86c2.98-.02,5.97-.1,8.95-.04.38,0,.76,0,1.14,0l.02.95c-.13,0-.26,0-.39,0-.49.01-.98,0-1.47,0-.65,0-1.29,0-1.94,0-.42,0-.83,0-1.25,0-.68,0-1.35,0-2.03,0-.52,0-1.03,0-1.55,0-.62,0-1.24.05-1.85.04-1.16,0-1.06.18-1.03-.8-.03-.04-.55-.02-.65-.02-.26,0-.29-.04-.3-.04-.02-.14.02-.68,0-.71-.04-.06-.83,0-.97-.02-.04-.03-.02-.39-.02-.47-.01-.28.01-.56,0-.84l-.91-.06c0-.27,0-.55,0-.82,0-.7,0-1.41,0-2.11,0-.46,0-.92,0-1.38,0-.65,0-1.29,0-1.94,0-.45,0-.89,0-1.34,0-.69-.04-1.38-.04-2.07,0-.47.04-.95.04-1.42,0-.66,0-1.32,0-1.98,0-.45,0-.89,0-1.34,0-.6,0-1.21,0-1.81,0-.42,0-.83,0-1.25,0-.51-.13-1.73,0-2.11l-.02-.09s.1,0,.15,0c.27-.04.8.07.86-.06v-1.42l1.06-.06.09-.78.93-.02V.09h25.61Z"/>
      <path class="cls-18" d="M30.15,1.77c-1.16.17-.52-.51-.69-.75-.14-.2-.53.5-.52-.93.04,0,.22-.14.69-.06.02.19-.03.71,0,.78.12.27.79-.45.52.97Z"/>
      <path class="cls-18" d="M31.83,3.28c-.15-.02-.81.02-.84,0-.06-.04,0-.62-.02-.73.04,0,.52-.09.84-.04.05.03.01.66.02.78Z"/>
      <path class="cls-18" d="M30.88,2.5c-.19-.01-.39,0-.58,0l-.06-.65c0-.2.71-.14.73-.11.02.03.04.71-.09.75Z"/>
      <path class="cls-12" d="M13.25.99l-.02,9.4c-2.17.12-11.02-.16-12.18,0-.04,0-.05.04-.09.04,0-2.09,0-4.18,0-6.27l.97-.06c.11-1.16-.24-1.4.73-1.29-.04-1.07.3-.56.47-.69.13-.09-.37-.39.99-.3l.13-.86c2.99.02,5.99.05,8.99.04Z"/>
      <path class="cls-31" d="M30.97,10.43l-11.14-.04-.02-9.4c2.43.01,4.87.02,7.31-.04l.09.82h2.2c.13.07.02.68.09.73.25.18.87-.49.71.75l.71.02c.04,2.36.05,4.78.06,7.16Z"/>
      <path class="cls-12" d="M30.93,16.94c0,.73.2,5.37.09,5.63l-.84.06-.09.82h-.91l-.09.95h-1.08l-.04.82h-8.15s-.02-.72-.02-.84c0-.04-.09-.02-.09-.02,0-.07.09-.03.09-.06-.03-2.45,0-4.9.02-7.35h11.1Z"/>
      <g>
        <path class="cls-31" d="M13.16,16.9s.03.04.04.09c0,2.03,0,4.05,0,6.08l-1.94-.04c-.03-.18.06-.85-.04-.95-.11-.11-.72.01-.78-.06l-.06-.8-.8-.06-.02-.8H1.01c0-1.15,0-2.3,0-3.45h12.16Z"/>
        <g>
          <path class="cls-12" d="M11.22,22.07l.04.95,1.94.04c0,.72-.04,1.44.04,2.16-2.98-.05-5.97.02-8.95.04l-.09-.86h-1.21l-.09-.99h-.99l-.04-.86-.93-.06c-.04-.71.04-1.43.04-2.13h8.56l.02.8.8.06.06.8c.06.08.66-.05.78.06Z"/>
          <path class="cls-4" d="M11.27,23.02l-.04-.95c.1.1.01.77.04.95Z"/>
        </g>
      </g>
      <g>
        <path class="cls-10" d="M19.8.99l.02,9.4,11.14.04c0,2.17-.05,4.34-.04,6.51h-11.1c-.02,2.45-.05,4.9-.02,7.35,0,.03-.09,0-.09.06h-2.35s-.03.71-.02.82h-2.31l-.06.97c-.05.05-.45.02-.56.02l-.02-.95c-.38,0-.76,0-1.14,0-.08-.71-.04-1.44-.04-2.16,0-1.04.16-5.45,0-6.08-.01-.04-.04-.05-.04-.09l-.02-.09H1.07q-.01-3.21-.02-6.42c1.16-.16,10.01.12,12.18,0l.02-9.4c2.19,0,4.37-.01,6.55,0Z"/>
        <g>
          <path class="cls-11" d="M13.16,16.9H1.01c0-2.16-.05-4.31-.04-6.47.04,0,.04-.04.09-.04q.01,3.21.02,6.42h12.07l.02.09Z"/>
          <path class="cls-29" d="M13.21,23.07c0-2.03,0-4.05,0-6.08.16.63,0,5.03,0,6.08Z"/>
          <g>
            <path class="cls-7" d="M19.24,16.43c-1.08.08-.86-.18-.95-.22-.12-.06-.16-.02-.22-.04.06-.08.04-.13.04-.22,0-.08-.02-.44.02-.47.38-.27.69.94.58-2.07v-1.21c1.09-.08.63.17.73.32.05.06.26-.04.34.09.01.02-.04.42,0,.47.04.05.18-.01.22.04.12.17-.19.38-.13.52.05.11.21.02.26.13.16.34-.3.28-.26.43.01.04.54.05.34.73-.07.26-.28-.02-.22.56-.52-.04-.21.46-.32.54-.04.03-.37-.04-.41.02-.01.02,0,.17-.04.37Z"/>
            <path class="cls-16" d="M14.67,10.91c.02.1-.03.57.02.6l1.57.02c.01.54-.02,1.08,0,1.62l-.88-.82-.06.02c.09.14.17.28.26.41.1.23,0,.42,0,.5.01.11.21.18.22.19.31.46-.33-.23-.22.43,0,0-.01.08-.06.04-.19-.14-.58-.54-.58-.78v-.13l-.02-1.42c-1.4-.25-.69.3-1.31.22,0-.02-.21.06,0-.37.11-.23.43-.56.69-.63.18-.04.36-.06.39.09Z"/>
            <path class="cls-32" d="M15.28,16.17c-.37.59.66.28,1.27.3.01,0,.27.09.28.09-.14,0-1.04.02-1.08.09-1.1-.09-.36.25-.67.39-.08.03-1.19.08-1.21-.26-.33.2-.46-.25-.37-.45.05-.1.29-.06.39-.06.06,0,.12,0,.17,0,.18-.02.25.05.28.04.09-.06.06-.13.06-.13.28-.02.58.01.86,0Z"/>
            <path class="cls-15" d="M14.93,13.02c-.54.02-.26-.77-.34-.88-.02-.03-.39-.03-.41-.02-.07.05.04.33-.09.39-.16.07-.4-.26-.45-.15-.08,1.22.13.83.22.99.14.26-.24.76-.3-.06-.02-.3.05-.99.04-1.47.62.09-.09-.46,1.31-.22l.02,1.42Z"/>
            <path class="cls-17" d="M17.56,16c.15.11.34.11.52.17.05.02.1-.01.22.04.03.18-.51-.1-.58-.04-.06.04-.1.34-.13.34-.02,0-.1-.2-.28,0-.34-.04-.24.09-.26.09-.02,0-.04-.04-.22-.04-.01,0-.27-.09-.28-.09-.61-.02-1.64.29-1.27-.3.22,0,.45,0,.67,0,0-.09.06-.2.06-.22.52-.03,1.03.02,1.55.04Z"/>
            <path class="cls-31" d="M18.55,11.51s.09-.01.09.04c-.14,0-.15.04-.17.04-.02,0-.31-.09-.45-.04-.09.12-.05.22-.06.34-.23.18-.44.4-.65.6-.18.18-.37.35-.56.52-.05-.49.02-1.01.02-1.51.6.02,1.19-.02,1.79,0Z"/>
            <path class="cls-26" d="M18.47,11.6c-.07.05-.04.35-.04.6,0,.49.06,1.32-.09,1.34-.13,0-.26,0-.39,0,0-.47-.04-1.26,0-1.64.01-.12-.03-.23.06-.34.14-.04.43.04.45.04Z"/>
            <path class="cls-5" d="M18.29,16.21c.09.04-.13.3.95.22,0,.02.19.1-.15.39-.13.11-.41.21-.58.22-.21-.18-.68-.35-.95-.39-.07-.04-.04-.17-.26-.13.18-.2.26,0,.28,0,.03,0,.07-.3.13-.34.08-.06.62.22.58.04Z"/>
            <path class="cls-28" d="M18.94,11.51s.02-.12-.02-.13c-.07-.02-.23.02-.32,0-.16-.03-.22-.02-.22-.47,0-.02.06-.3.09-.39.14.03,2.15,1.67.67,1.34-.02-.45-.08-.27-.19-.34Z"/>
            <path class="cls-16" d="M16.14,10.13c-.03.24.04.33.04.34,0,0-.03.14-.04.17-.01.06.03.18-.02.22-.22,0-.45,0-.67,0l-.73-.06.71-.02c.13-.2.1-.33.11-.34.02-.1-.05-.22.06-.3.18,0,.36,0,.54,0Z"/>
            <path class="cls-22" d="M17.13,10.13c.1.44-.06.59.04.78-.05,0-.14.02-.17-.02-.02-.03.02-.17,0-.24-.08-.3-.12-.14-.82-.17,0-.02-.07-.11-.04-.34.28-.01.71-.02.99,0Z"/>
            <path class="cls-1" d="M18.73,12.2v1.21c-.2.18-.18.13-.39.13.14-.01.09-.84.09-1.34h.3Z"/>
            <path class="cls-21" d="M18.47,10.52c-.03.09-.09.37-.09.39-.27.04-.55-.03-.82-.04-.1-.15,0-.25,0-.34.25.03.73-.04.91,0Z"/>
            <path class="cls-30" d="M15.45,10.87c-.25,0-.54-.04-.78.04-.02-.15-.21-.13-.39-.09-.15-.53.74-.05,1.25-.39,0,.02.02.14-.11.34l-.71.02.73.06Z"/>
            <path class="cls-8" d="M17.56,10.52c0,.09-.1.19,0,.34-.02,0-.17.09-.39.04-.11-.18.06-.33-.04-.78.14,0,.27,0,.41,0,.04.03.02.32.02.39Z"/>
            <g>
              <path class="cls-19" d="M16.83,16.56c.18,0,.2.04.22.04.07.5-.14.91-.39.26-.01-.03.08-.07.02-.09-.07-.02-.72-.11-.93-.13.04-.07.94-.09,1.08-.09Z"/>
              <path class="cls-38" d="M16.66,16.86c-.5-.06-.28.15-.41.22-.29.14-.68-.09-.5-.43.2.02.86.11.93.13.05.02-.03.05-.02.09Z"/>
            </g>
            <path class="cls-35" d="M18.51,17.03c-.56.03-.72-.26-.95-.39.27.04.73.21.95.39Z"/>
            <path class="cls-1" d="M18.94,11.51c-.09.07-.2.04-.3.04,0-.06-.04-.04-.09-.04l.04-.13c.09.02.25-.02.32,0,.04.01.01.12.02.13Z"/>
            <path class="cls-9" d="M14.07,16.25c-.06,0-.12,0-.17,0,0-.18.17-.17.17,0Z"/>
            <path class="cls-3" d="M18.73,13.41c.1,3.01-.2,1.8-.58,2.07-.04.03-.02.39-.02.47-.15.07-.39.05-.56.04-.52-.02-1.03-.07-1.55-.04,0-.02-.12.1-.09-.3.05.41.45.22.75.26.1-.17.01-.24.02-.34,1.81.06,1.14-.1,1.29-.41.02-.05.2-.06.22-.09.02-.05.03-1.03,0-1.08-.13-.19-.26.33-.26-.45.13,0,.26,0,.39,0,.21,0,.18.05.39-.13Z"/>
            <path class="cls-23" d="M18.08,16.17c-.18-.06-.37-.07-.52-.17.17,0,.41.02.56-.04,0,.08.01.14-.04.22Z"/>
            <path class="cls-31" d="M15.53,14.23s.17.38.22.43c.05,0,.04.04.04.04-.05.47.09.22.52.34,0,.17,0,.33,0,.5-.07.1-.21.06-.34.06-.19,0-.49-.02-.69-.04-.72-.07-.34-.42-.43-1.75.1.01.66.38.69.41Z"/>
            <path class="cls-15" d="M14.93,13.15c0,.24.39.64.58.78.05.04.06-.05.06-.04.08.05.02.12.22.06,0,.08,0,.16,0,.24-.09-.03-.25-.06-.26.04-.03-.03-.59-.4-.69-.41.09,1.32-.29,1.67.43,1.75.26.32-.36.37-.45.3-.06-.04,0-.37-.02-.41-.04-.06-.45.1-.34-.3.02-.06.13-.07.13-.09.05-.31-.13-.37.22-.69-.6.09-.57-.42-.41-.5.05-.02.23.03.28-.02.03-.04-.28-1.03.26-.71Z"/>
            <path class="cls-37" d="M16.7,14.7c-.02.14,0,.35,0,.52,0,.01,0,.03,0,.04,0,.1,0,.2,0,.3,0,.1.07.17-.02.34-.3-.04-.7.16-.75-.26,0-.03,0-.05.04-.04.13,0,.28.04.34-.06,0-.17,0-.33,0-.5,0-.1,0-.2,0-.3.06,0,.12,0,.17,0,.08-.01.11-.04.22-.04Z"/>
            <g>
              <path class="cls-20" d="M14.93,13.02v.13c-.54-.32-.22.67-.26.71-.05.06-.23,0-.28.02-.16.08-.19.58.41.5-.35.32-.16.38-.22.69,0,.02-.11.03-.13.09-.11.4.3.24.34.3.03.04-.04.37.02.41.1.07.72.02.45-.3.2.02.5.05.69.04-.04,0-.04.01-.04.04-.03.41.09.28.09.3,0,.01-.06.13-.06.22-.22,0-.45,0-.67,0-.29.01-.58-.02-.86,0,0-.28-.48-.06-.99-.28-.21-1.01.21-.56.22-.73,0-.04-.16-.08-.17-.13-.06-.21-.01-.68-.3-.73.05-.61-.21-.77.39-1.01.06.82.45.33.3.06-.09-.17-.29.22-.22-.99.06-.11.29.22.45.15.13-.06.02-.34.09-.39.02-.01.39,0,.41.02.08.12-.2.91.34.88Z"/>
              <g>
                <path class="cls-3" d="M13.88,13.8c.32-.11.44.4.17.47-.34.1-.35-.41-.17-.47Z"/>
                <path class="cls-24" d="M14.05,14.4c.38-.13.35.61-.04.47-.14-.05-.1-.43.04-.47Z"/>
                <path class="cls-2" d="M14.09,12.85c.35-.14.35.38.17.43-.21.06-.42-.33-.17-.43Z"/>
                <path class="cls-36" d="M14,15.18c.27-.06.32.31.13.39-.34.14-.36-.34-.13-.39Z"/>
                <path class="cls-24" d="M13.57,14.27c.41-.11.28.4.04.39-.2-.01-.25-.33-.04-.39Z"/>
              </g>
            </g>
            <path class="cls-37" d="M17,10.65c.02.06-.02.21,0,.24.03.04.12.01.17.02.22.04.37-.04.39-.04.27.01.55.08.82.04,0,.46.05.44.22.47l-.04.13c-.6-.02-1.19.02-1.79,0,0,.49-.07,1.02-.02,1.51,0,.1-.03.16.09.09-.06.15-.08.28.13.26-.13.14-.35.53-.52.6-.02,0-.08,0-.13,0,.03-.35-.04-.37-.04-.39,0-.15,0-.28,0-.43-.02-.54.01-1.08,0-1.62l-1.57-.02c-.05-.04,0-.5-.02-.6.24-.08.52-.03.78-.04.22,0,.45,0,.67,0,.05-.03,0-.16.02-.22h.86Z"/>
            <path class="cls-10" d="M16.22,13.58c-.12.02-.09.26-.09.43.04.82.12.65.13.69-.13-.02-.4.03-.47,0,0,0,.01-.05-.04-.04.06-.12.06-.34.04-.47,0-.08,0-.16,0-.24-.19.06-.14-.02-.22-.06-.11-.66.52.03.22-.43l.09-.3s.21.13.34.43Z"/>
            <path class="cls-13" d="M16.27,13.15c0,.15,0,.29,0,.43h-.04c-.14-.3-.33-.41-.34-.43-.1-.13-.21-.26-.3-.39-.09-.13-.17-.27-.26-.41l.06-.02.88.82Z"/>
            <path class="cls-6" d="M15.88,13.15l-.09.3s-.2-.09-.22-.19c0-.07.1-.26,0-.5.09.13.21.25.3.39Z"/>
            <path class="cls-12" d="M17.95,11.9c-.04.38,0,1.17,0,1.64,0,.79.13.27.26.45.03.04.02,1.03,0,1.08-.01.03-.19.04-.22.09-.15.31.51.47-1.29.41,0-.1,0-.2,0-.3,1.56.33,1.2-1.13,1.12-1.25-.22-.32-.34.32-.39-.56,0-.17,0-.35,0-.52-.01-.2.04-.4-.13-.3,0,0-.05.02,0-.13.21-.2.42-.42.65-.6Z"/>
            <path class="cls-33" d="M17.3,12.63c-.09.2-.42.33-.47.47-.12.08-.08.02-.09-.09.19-.16.38-.34.56-.52-.05.15,0,.12,0,.13Z"/>
            <path class="cls-1" d="M17,10.65h-.86s.04-.16.04-.17c.7.03.74-.12.82.17Z"/>
            <path class="cls-30" d="M16.27,14.7s.05-.01.04.04c0,.1,0,.2,0,.3-.42-.12-.57.12-.52-.34.07.03.34-.02.47,0Z"/>
            <path class="cls-28" d="M15.79,14.19c.01.14.02.35-.04.47-.05-.05-.2-.41-.22-.43.01-.1.17-.07.26-.04Z"/>
            <path class="cls-32" d="M17.82,14.06c.06,1.04-.05,1.24-1.12,1.16,0-.16-.02-.37,0-.52.07,0,.14,0,.22,0,.1,0,.43.02.45,0,.15-.1-.27-.8.45-.65Z"/>
            <path class="cls-25" d="M17,13.71c-.08.12-.04.6-.04.78-.3-.1-.23,0-.26.22-.1,0-.14.03-.22.04v-.73c.32,0,.33-.56.52-.3Z"/>
            <path class="cls-32" d="M16.31,13.97s.11,0,.13,0c0,.04,0,.04.04.04v.73c-.06,0-.12,0-.17,0,0-.05-.04-.04-.04-.04,0-.04-.09.13-.13-.69.07,0,.1-.03.17-.04Z"/>
            <path class="cls-25" d="M16.7,15.26s0-.03,0-.04c1.07.07,1.18-.12,1.12-1.16v-.04c.08.12.44,1.58-1.12,1.25Z"/>
            <path class="cls-17" d="M17.43,13.45c-.09-.09-.21.1-.32.26,0,.01-.1,0-.11,0-.19-.26-.19.31-.52.3-.03,0-.05,0-.04-.04.17-.08.39-.46.52-.6.14-.15.32-.29.47-.43,0,.17,0,.35,0,.52Z"/>
            <path class="cls-14" d="M17.43,12.93c-.15.14-.34.28-.47.43-.21.02-.19-.11-.13-.26.06-.14.38-.28.47-.47.17-.1.12.1.13.3Z"/>
            <path class="cls-34" d="M16.27,13.58s.07.03.04.39c-.07.01-.11.04-.17.04,0-.18-.03-.41.09-.43h.04Z"/>
            <path class="cls-27" d="M17.43,13.45c.05.88.17.24.39.56v.04c-.73-.15-.31.54-.45.65-.02.02-.36,0-.45,0,.17-.2.04-.2.04-.22,0-.18-.03-.66.04-.78,0,0,.1.01.11,0,.11-.16.23-.35.32-.26Z"/>
            <path class="cls-36" d="M16.96,14.49s.12.02-.04.22c-.07,0-.14,0-.22,0,.03-.22-.04-.32.26-.22Z"/>
          </g>
        </g>
      </g>
    </g>
  </g>
</svg>