<?xml version="1.0" encoding="UTF-8"?>
<svg xmlns="http://www.w3.org/2000/svg" xmlns:xlink="http://www.w3.org/1999/xlink" width="32px" height="32px" viewBox="0 0 32 23" version="1.1">
<g id="surface1">
<path style=" stroke:none;fill-rule:nonzero;fill:rgb(0%,0%,0%);fill-opacity:1;" d="M 4.8125 14.019531 C 4.792969 15.289062 4.921875 16.539062 4.863281 17.789062 C 4.8125 18.832031 4.828125 19.875 4.8125 20.917969 C 4.808594 21.164062 4.878906 21.292969 5.148438 21.296875 C 5.660156 21.304688 6.171875 21.402344 6.675781 21.21875 C 6.828125 21.164062 6.992188 21.171875 7.046875 21.355469 C 7.101562 21.527344 6.996094 21.632812 6.824219 21.671875 C 6.171875 21.8125 5.519531 21.808594 4.867188 21.699219 C 4.570312 21.652344 4.394531 21.425781 4.394531 21.113281 C 4.386719 20.402344 4.371094 19.691406 4.40625 18.980469 C 4.453125 17.863281 4.492188 16.746094 4.402344 15.625 C 4.398438 15.574219 4.386719 15.519531 4.390625 15.464844 C 4.421875 14.476562 4.300781 13.492188 4.328125 12.503906 C 4.347656 11.714844 4.152344 10.960938 4.027344 10.191406 C 3.957031 9.792969 3.945312 9.378906 3.9375 8.96875 C 3.921875 7.457031 3.914062 5.941406 3.910156 4.429688 C 3.910156 4.113281 3.921875 3.796875 3.9375 3.480469 C 3.957031 3.101562 4.121094 2.90625 4.507812 2.867188 C 4.898438 2.828125 5.289062 2.722656 5.6875 2.820312 C 5.777344 2.839844 5.894531 2.859375 5.894531 2.96875 C 5.898438 3.085938 5.785156 3.105469 5.691406 3.121094 C 5.332031 3.175781 4.984375 3.300781 4.617188 3.296875 C 4.5 3.296875 4.441406 3.339844 4.433594 3.460938 C 4.40625 3.867188 4.351562 4.273438 4.347656 4.683594 C 4.335938 6.074219 4.320312 7.464844 4.347656 8.851562 C 4.359375 9.472656 4.398438 10.097656 4.550781 10.710938 C 4.6875 11.273438 4.746094 11.847656 4.738281 12.429688 C 4.734375 12.953125 4.675781 13.480469 4.8125 14.019531 Z M 4.8125 14.019531 "/>
<path style=" stroke:none;fill-rule:nonzero;fill:rgb(0%,0%,0%);fill-opacity:1;" d="M 28.605469 1.953125 C 28.605469 1.8125 28.59375 1.699219 28.566406 1.585938 C 28.46875 1.171875 28.457031 1.171875 28.011719 1.226562 C 27.691406 1.269531 27.367188 1.328125 27.042969 1.289062 C 26.9375 1.273438 26.769531 1.277344 26.769531 1.125 C 26.769531 0.996094 26.917969 0.988281 27.023438 0.957031 C 27.449219 0.828125 27.898438 0.8125 28.335938 0.761719 C 28.558594 0.730469 28.765625 0.839844 28.882812 1.058594 C 29.003906 1.289062 29.0625 1.535156 29.0625 1.792969 C 29.054688 2.71875 29.121094 3.644531 29.203125 4.566406 C 29.269531 5.316406 29.371094 6.0625 29.453125 6.8125 C 29.515625 7.40625 29.480469 8.003906 29.46875 8.597656 C 29.449219 9.613281 29.402344 10.628906 29.46875 11.648438 C 29.511719 12.332031 29.457031 13.023438 29.496094 13.710938 C 29.550781 14.671875 29.601562 15.632812 29.695312 16.589844 C 29.757812 17.222656 29.933594 17.8125 30.097656 18.414062 C 30.144531 18.582031 30.148438 18.75 30.148438 18.921875 C 30.144531 19.269531 29.996094 19.488281 29.667969 19.621094 C 29.25 19.789062 28.800781 19.796875 28.363281 19.855469 C 28.222656 19.875 28.082031 19.898438 27.949219 19.949219 C 27.824219 20.003906 27.71875 19.980469 27.621094 19.894531 C 27.554688 19.832031 27.519531 19.753906 27.554688 19.664062 C 27.609375 19.535156 27.710938 19.476562 27.851562 19.464844 C 28.363281 19.425781 28.871094 19.34375 29.371094 19.226562 C 29.699219 19.152344 29.695312 19.113281 29.695312 18.785156 C 29.695312 18.28125 29.402344 17.859375 29.355469 17.371094 C 29.308594 16.867188 29.21875 16.363281 29.191406 15.855469 C 29.117188 14.472656 29.109375 13.09375 29.0625 11.710938 C 29.011719 10.183594 29.15625 8.65625 29.085938 7.128906 C 29.0625 6.664062 29.015625 6.207031 28.949219 5.75 C 28.890625 5.335938 28.839844 4.921875 28.804688 4.507812 C 28.730469 3.664062 28.671875 2.820312 28.605469 1.953125 Z M 28.605469 1.953125 "/>
<path style=" stroke:none;fill-rule:nonzero;fill:rgb(0%,0%,0%);fill-opacity:1;" d="M 10.226562 18.71875 C 10.464844 18.199219 10.550781 17.675781 10.511719 17.125 C 10.480469 16.699219 10.257812 16.421875 9.847656 16.34375 C 9.539062 16.28125 9.234375 16.289062 8.9375 16.394531 C 8.828125 16.433594 8.730469 16.433594 8.648438 16.359375 C 8.554688 16.269531 8.558594 16.160156 8.613281 16.058594 C 8.730469 15.847656 8.835938 15.628906 8.976562 15.4375 C 9.308594 14.992188 9.601562 14.527344 9.914062 14.070312 C 9.964844 14 10.007812 13.925781 10.007812 13.820312 C 9.835938 13.773438 9.667969 13.746094 9.480469 13.753906 C 9.046875 13.773438 8.617188 13.832031 8.1875 13.898438 C 8.03125 13.921875 7.886719 13.878906 7.742188 13.847656 C 7.671875 13.832031 7.601562 13.792969 7.601562 13.710938 C 7.605469 13.640625 7.667969 13.601562 7.730469 13.589844 C 8.542969 13.425781 9.359375 13.246094 10.199219 13.378906 C 10.527344 13.425781 10.664062 13.683594 10.527344 13.996094 C 10.355469 14.378906 10.058594 14.691406 9.828125 15.042969 C 9.667969 15.285156 9.496094 15.523438 9.324219 15.765625 C 9.429688 15.835938 9.523438 15.835938 9.617188 15.839844 C 10 15.851562 10.324219 16.019531 10.621094 16.226562 C 10.878906 16.40625 10.933594 16.695312 10.964844 16.984375 C 11.066406 17.847656 10.757812 18.617188 10.386719 19.363281 C 10.089844 19.957031 9.25 20.175781 8.507812 19.964844 C 8.042969 19.835938 7.761719 19.5625 7.585938 19.144531 C 7.476562 18.886719 7.347656 18.636719 7.261719 18.371094 C 7.214844 18.222656 7.171875 18.070312 7.359375 18 C 7.546875 17.929688 7.671875 18.039062 7.714844 18.207031 C 7.785156 18.472656 7.9375 18.703125 8.015625 18.960938 C 8.203125 19.601562 8.84375 19.632812 9.277344 19.578125 C 9.800781 19.511719 10.042969 19.164062 10.226562 18.71875 Z M 10.226562 18.71875 "/>
<path style=" stroke:none;fill-rule:nonzero;fill:rgb(0%,0%,0%);fill-opacity:1;" d="M 22.421875 14.777344 C 22.21875 15.394531 22.125 16.019531 21.855469 16.621094 C 22.433594 16.339844 22.984375 16.53125 23.542969 16.625 C 23.65625 16.644531 23.777344 16.660156 23.90625 16.609375 C 23.90625 16.046875 23.910156 15.488281 23.90625 14.925781 C 23.902344 14.753906 23.9375 14.589844 23.984375 14.425781 C 24.007812 14.347656 24.042969 14.269531 24.132812 14.265625 C 24.238281 14.257812 24.230469 14.355469 24.257812 14.425781 C 24.390625 14.804688 24.320312 15.191406 24.335938 15.578125 C 24.351562 15.914062 24.316406 16.253906 24.382812 16.59375 C 24.410156 16.746094 24.480469 16.828125 24.625 16.863281 C 24.734375 16.886719 24.84375 16.90625 24.9375 16.972656 C 25.039062 17.050781 25.144531 17.136719 25.058594 17.28125 C 24.984375 17.410156 24.867188 17.457031 24.714844 17.410156 C 24.65625 17.390625 24.601562 17.347656 24.527344 17.382812 C 24.460938 17.484375 24.480469 17.605469 24.503906 17.710938 C 24.648438 18.320312 24.605469 18.953125 24.769531 19.558594 C 24.804688 19.6875 24.71875 19.808594 24.570312 19.828125 C 24.382812 19.851562 24.296875 19.726562 24.277344 19.566406 C 24.238281 19.269531 24.214844 18.96875 24.179688 18.671875 C 24.125 18.21875 24.050781 17.769531 24.027344 17.3125 C 24.023438 17.171875 23.949219 17.089844 23.792969 17.082031 C 23.46875 17.0625 23.148438 16.992188 22.828125 16.941406 C 22.351562 16.863281 21.972656 17.101562 21.605469 17.347656 C 21.480469 17.433594 21.375 17.535156 21.230469 17.421875 C 21.089844 17.308594 21.113281 17.167969 21.195312 17.023438 C 21.449219 16.566406 21.632812 16.078125 21.785156 15.585938 C 21.976562 14.96875 22.1875 14.351562 22.386719 13.734375 C 22.453125 13.53125 22.578125 13.347656 22.640625 13.140625 C 22.667969 13.058594 22.734375 12.972656 22.832031 12.996094 C 22.949219 13.019531 22.929688 13.128906 22.929688 13.222656 C 22.925781 13.550781 22.757812 13.832031 22.648438 14.125 C 22.570312 14.335938 22.480469 14.539062 22.421875 14.777344 Z M 22.421875 14.777344 "/>
<path style=" stroke:none;fill-rule:nonzero;fill:rgb(0%,0%,0%);fill-opacity:1;" d="M 23.953125 4.351562 C 23.929688 3.96875 23.929688 3.605469 23.746094 3.269531 C 23.472656 2.78125 23.347656 2.75 22.785156 2.960938 C 22.554688 3.046875 22.378906 3.226562 22.257812 3.445312 C 22.222656 3.511719 22.207031 3.613281 22.101562 3.585938 C 22.003906 3.558594 21.957031 3.46875 21.957031 3.371094 C 21.953125 3.199219 22.046875 3.058594 22.136719 2.925781 C 22.382812 2.566406 23.011719 2.332031 23.445312 2.429688 C 23.683594 2.480469 23.855469 2.625 23.984375 2.820312 C 24.554688 3.675781 24.480469 4.554688 24.085938 5.449219 C 23.804688 6.082031 23.40625 6.628906 22.890625 7.097656 C 22.78125 7.199219 22.695312 7.320312 22.65625 7.484375 C 22.867188 7.503906 23.0625 7.515625 23.257812 7.535156 C 23.6875 7.585938 24.117188 7.683594 24.554688 7.636719 C 24.78125 7.609375 25.007812 7.570312 25.234375 7.539062 C 25.40625 7.515625 25.542969 7.570312 25.570312 7.746094 C 25.59375 7.921875 25.449219 8.007812 25.304688 8.015625 C 24.753906 8.042969 24.207031 8.136719 23.648438 8.046875 C 23.359375 8 23.0625 8.03125 22.769531 8.027344 C 22.6875 8.027344 22.609375 8.03125 22.53125 8.03125 C 22.074219 8.007812 21.972656 7.835938 22.148438 7.433594 C 22.332031 7.011719 22.640625 6.679688 22.96875 6.363281 C 23.34375 5.992188 23.574219 5.539062 23.765625 5.0625 C 23.851562 4.84375 23.957031 4.621094 23.953125 4.351562 Z M 23.953125 4.351562 "/>
<path style=" stroke:none;fill-rule:nonzero;fill:rgb(0%,0%,0%);fill-opacity:1;" d="M 8.601562 7.574219 C 8.511719 6.875 8.566406 6.195312 8.566406 5.515625 C 8.566406 5.386719 8.585938 5.253906 8.546875 5.128906 C 8.480469 5.097656 8.441406 5.152344 8.394531 5.171875 C 8.238281 5.230469 8.171875 5.15625 8.199219 5.019531 C 8.269531 4.683594 8.453125 4.390625 8.605469 4.085938 C 8.652344 3.992188 8.765625 3.957031 8.875 3.988281 C 9 4.023438 9.054688 4.117188 9.054688 4.234375 C 9.054688 4.589844 9.070312 4.945312 9.039062 5.300781 C 8.972656 6.089844 8.921875 6.882812 9.058594 7.671875 C 9.0625 7.679688 9.058594 7.6875 9.0625 7.695312 C 9.089844 7.882812 8.976562 8.125 9.125 8.25 C 9.257812 8.363281 9.488281 8.238281 9.675781 8.25 C 9.851562 8.261719 10.023438 8.242188 10.199219 8.238281 C 10.351562 8.238281 10.476562 8.285156 10.484375 8.449219 C 10.496094 8.632812 10.355469 8.699219 10.203125 8.6875 C 9.90625 8.671875 9.617188 8.714844 9.324219 8.722656 C 9.210938 8.726562 9.097656 8.730469 9.007812 8.800781 C 8.855469 8.921875 8.710938 8.773438 8.550781 8.804688 C 8.324219 8.851562 8.082031 8.875 7.84375 8.832031 C 7.742188 8.8125 7.613281 8.816406 7.605469 8.691406 C 7.597656 8.578125 7.726562 8.554688 7.8125 8.53125 C 8.027344 8.472656 8.242188 8.425781 8.460938 8.390625 C 8.617188 8.367188 8.652344 8.289062 8.636719 8.148438 C 8.621094 7.964844 8.617188 7.78125 8.601562 7.574219 Z M 8.601562 7.574219 "/>
</g>
</svg>
