<?xml version="1.0" encoding="UTF-8"?>
<svg id="Layer_2" data-name="Layer 2" xmlns="http://www.w3.org/2000/svg" xmlns:xlink="http://www.w3.org/1999/xlink" viewBox="0 0 28.54 28.37">
  <defs>
    <style>
      .cls-1 {
        fill: #00706d;
      }

      .cls-1, .cls-2, .cls-3, .cls-4, .cls-5, .cls-6, .cls-7, .cls-8, .cls-9, .cls-10, .cls-11, .cls-12, .cls-13, .cls-14, .cls-15, .cls-16, .cls-17, .cls-18, .cls-19, .cls-20, .cls-21, .cls-22, .cls-23, .cls-24, .cls-25, .cls-26, .cls-27, .cls-28, .cls-29, .cls-30, .cls-31, .cls-32, .cls-33, .cls-34, .cls-35, .cls-36, .cls-37, .cls-38, .cls-39, .cls-40, .cls-41, .cls-42, .cls-43, .cls-44, .cls-45, .cls-46, .cls-47, .cls-48, .cls-49, .cls-50, .cls-51, .cls-52, .cls-53, .cls-54, .cls-55, .cls-56, .cls-57, .cls-58, .cls-59, .cls-60, .cls-61, .cls-62, .cls-63, .cls-64, .cls-65, .cls-66, .cls-67, .cls-68, .cls-69, .cls-70, .cls-71, .cls-72, .cls-73, .cls-74, .cls-75, .cls-76, .cls-77, .cls-78, .cls-79, .cls-80, .cls-81, .cls-82, .cls-83, .cls-84 {
        stroke-width: 0px;
      }

      .cls-2 {
        fill: #592335;
      }

      .cls-3 {
        fill: #83122b;
      }

      .cls-4 {
        fill: #06120e;
      }

      .cls-5 {
        fill: #009476;
      }

      .cls-6 {
        fill: #23140e;
      }

      .cls-7 {
        fill: #903647;
      }

      .cls-8 {
        fill: url(#linear-gradient);
      }

      .cls-9 {
        fill: #303a99;
      }

      .cls-10 {
        fill: #008f84;
      }

      .cls-11 {
        fill: #7a002f;
      }

      .cls-12 {
        fill: #ffcbff;
      }

      .cls-13 {
        fill: #d97cff;
      }

      .cls-14 {
        fill: #bedaa1;
      }

      .cls-15 {
        fill: #7e3d00;
      }

      .cls-16 {
        fill: #0d1117;
      }

      .cls-17 {
        fill: #008c34;
      }

      .cls-18 {
        fill: #ffa7ff;
      }

      .cls-19 {
        fill: #9d005a;
      }

      .cls-20 {
        fill: #61bfff;
      }

      .cls-21 {
        fill: #00824f;
      }

      .cls-22 {
        fill: #65b2e0;
      }

      .cls-23 {
        fill: #b1863f;
      }

      .cls-24 {
        fill: #ebdfff;
      }

      .cls-25 {
        fill: #ae0065;
      }

      .cls-26 {
        fill: #9fbc00;
      }

      .cls-27 {
        fill: #00cb8a;
      }

      .cls-28 {
        fill: #f6e4ff;
      }

      .cls-29 {
        fill: #a1ae00;
      }

      .cls-30 {
        fill: #b10099;
      }

      .cls-31 {
        fill: #5f002e;
      }

      .cls-32 {
        fill: #ce4890;
      }

      .cls-33 {
        fill: #355087;
      }

      .cls-34 {
        fill: #cc9565;
      }

      .cls-35 {
        fill: #85573c;
      }

      .cls-36 {
        fill: #9d5537;
      }

      .cls-37 {
        fill: #11110d;
      }

      .cls-38 {
        fill: #007626;
      }

      .cls-39 {
        fill: #830c50;
      }

      .cls-40 {
        fill: #16190a;
      }

      .cls-41 {
        fill: #071b0b;
      }

      .cls-42 {
        fill: #490022;
      }

      .cls-43 {
        fill: #b9a093;
      }

      .cls-44 {
        fill: #00a5a7;
      }

      .cls-45 {
        fill: #4b54e1;
      }

      .cls-46 {
        fill: #00b59b;
      }

      .cls-47 {
        fill: #abe554;
      }

      .cls-48 {
        fill: #82005d;
      }

      .cls-49 {
        fill: url(#linear-gradient-2);
      }

      .cls-50 {
        fill: #f8ceff;
      }

      .cls-51 {
        fill: #ff97ff;
      }

      .cls-52 {
        fill: #b13e8f;
      }

      .cls-53 {
        fill: #d592ff;
      }

      .cls-54 {
        fill: #c7006b;
      }

      .cls-55 {
        fill: #6c0046;
      }

      .cls-56 {
        fill: #008182;
      }

      .cls-57 {
        fill: #6489d7;
      }

      .cls-58 {
        fill: #e7edf6;
      }

      .cls-59 {
        fill: #aec878;
      }

      .cls-60 {
        fill: #ff9bff;
      }

      .cls-61 {
        fill: #ffa5ff;
      }

      .cls-62 {
        fill: #963618;
      }

      .cls-63 {
        fill: #ffc3ff;
      }

      .cls-64 {
        fill: #7ca5e3;
      }

      .cls-65 {
        fill: #b3092d;
      }

      .cls-66 {
        fill: #e5a8ff;
      }

      .cls-67 {
        fill: #cfe3fc;
      }

      .cls-68 {
        fill: #98d220;
      }

      .cls-69 {
        fill: #aa4500;
      }

      .cls-70 {
        fill: #997960;
      }

      .cls-71 {
        fill: #211b0b;
      }

      .cls-72 {
        fill: #0b2d2b;
      }

      .cls-73 {
        fill: #b0804b;
      }

      .cls-74 {
        fill: #a5623b;
      }

      .cls-75 {
        fill: #73b9ff;
      }

      .cls-76 {
        fill: #290a08;
      }

      .cls-77 {
        fill: #bcbf38;
      }

      .cls-78 {
        fill: #f07fff;
      }

      .cls-79 {
        fill: #b77654;
      }

      .cls-80 {
        fill: #946a4f;
      }

      .cls-81 {
        fill: #00a492;
      }

      .cls-82 {
        fill: #3f081c;
      }

      .cls-83 {
        fill: #005e1d;
      }

      .cls-84 {
        fill: #ffaeff;
      }
    </style>
    <linearGradient id="linear-gradient" x1="11.07" y1="7.57" x2="12.26" y2="8.48" gradientUnits="userSpaceOnUse">
      <stop offset="0" stop-color="#e316ab"/>
      <stop offset="1" stop-color="#e200c7"/>
    </linearGradient>
    <linearGradient id="linear-gradient-2" x1="15.87" y1="16.54" x2="15.87" y2="24.95" gradientUnits="userSpaceOnUse">
      <stop offset="0" stop-color="#c100c2"/>
      <stop offset="1" stop-color="#c61772"/>
    </linearGradient>
  </defs>
  <g id="Layer_1-2" data-name="Layer 1">
    <g>
      <path class="cls-13" d="M.91,15.81c.1.42-.24.42-.32.37-.04-.03-.01-.3-.02-.37h.33Z"/>
      <g>
        <path class="cls-37" d="M15.85.5c-.17.06-.41.03-.6.03-.18,0-.36,0-.53,0-.2,0-.4,0-.6,0-.43,0-.86,0-1.28,0l-.02.62s-.1.01-.1.02h-.37c-.29,0-.58,0-.87,0-.01,0-.18-.1-.23.02-.02.05.03.28-.02.32-.2.14-.54-.32-.55.4-.27,0-.53-.01-.8,0-.11,0-.42-.01-.45,0-.18.08.24.3-.45.33-.01,0,0-.04-.2-.03-.12,0-.23,0-.35,0-.12.12-.02.25-.02.27-.01.12-.04.24-.03.37-.04,0-.09,0-.13,0-.09,0-.56-.02-.58,0-.05.04.02.36-.03.4-.07.05-.91.03-1.1.03-.06.23.02.29.02.3-.01.17-.06.36-.07.53-.84.02-.48.17-.62.23-.05.02-.28-.03-.32.02-.1.14.23.3-.27.38,0,0-.07-.1-.17.02.04.73-.32.35-.4.47-.02.03.02.27,0,.3-.03.05-.19-.03-.23.07-.03.07.04.17.03.22-.06.34-.18.14-.23.22-.02.03.02.31,0,.33-.03.04-.17,0-.22.02-.09.04-.03.17-.05.22-.02.03-.09,0-.1.03-.02.07,0,.3,0,.45,0,.17-.04,1.39,0,1.45.03.04.18,0,.23.02.02.43-.08.71.17.57,0,.05.06.02.07.05.05.59-.18.78.37.72,0,.02.02-.14.07.33,0,.06-.02.27.02.3.11,0,.24-.01.35,0l.03.75.67.08v.72c.06.09.2.04.33.05-.03.45.05.25.3.3,0,.41.17.51.47.23,0,.01,0,.02,0,.03.03.6-.07.3.73.33.1,0,.23.02.33.03.05.82-.01.42-.87.57.01-.85-.32-.37-.62-.5-.18-.08.3-.39-.7-.3l-.05-.68c-.18,0-.39-.05-.57-.05-.03-.78.17-.8-.5-.77,0-.26,0-.52,0-.78-.94.09-.09-.55-.7-.67.11-1.15-.3-.55-.4-.77-.01-.03,0-.25,0-.35-.02-.3.05-1.62-.05-1.67-.4-.18-.12.68-.25.78-.09.08-.4-.21-.33.72-.51-.09-.21.24-.3.45-.04.1-.23.02-.27.07-.03.04.03.47,0,.53-.04.1-.23.02-.27.07-.02.03.02.7,0,.73-.1.15-.43-.4-.33.8-.02.03-.12.01-.17.02-.12.02-.54-.03-.57.02-.02.33.06.77-.07.75h-.42l-.08.08c0,1.12-.02,2.23.03,3.35,0,.03-.03.09,0,.37l-.57-.05c.05-.45-.07-3.58.03-3.73.04-.05.46.02.5-.03.04-.05.03-1.05.03-1.22.81.09.47-.12.53-1.22.05-.11.46,0,.5-.07.03-.05-.03-1.02,0-1.18.08,0,.58-.04.6-.08,0-.39,0-.78,0-1.17,0-.03.07-.01.07-.02.76.06.48-.02.53-1.03,0-.04.03-.03.03-.03l.63-.05v-.68s-.01-.07.02-.07c.2,0,.4,0,.6,0-.09-1.07.69.07.6-1,1.07.12.17-.43.97-.33-.09-1.2.69.07.6-1.13h1.07c.11-.05,0-.49.07-.53.04-.03.91.04.95-.02-.07-.76.04-.46,1.05-.52l.07-.57,1.6.03.07-.57h1.53l.07-.53h3.1c.08.03-.02.26.02.5Z"/>
        <path class="cls-37" d="M27.96,17.37l-.57.05c-.01.43.01.86,0,1.28-.21.01-.43-.04-.5.05-.02.44.02.88,0,1.32,0,.01,0,.02,0,.03l-.6.05v1.18l-.03.03-.57.02v.92l-.03.03-.67.02v.68c-.09,0-.56.02-.58.03-.09.05-.02.4-.07.43-.06.04-.4-.04-.42-.03-.1-.67.29-.28.37-.45.02-.05-.02-.34,0-.37.03-.04.17.01.2-.03.04-.05-.1-.32.13-.33-.04-.89.06-.58.18-.65.09-.05.02-.2.07-.23.07-.05.45.15.38-.28.47.01.24-.2.3-.3.04-.06.23.19.17-.68.11-.01.24,0,.35,0,.09-.04.04-.25.05-.33.31.09.23-.43.03-.47.1-.18.47.43.37-.98-.03-.07-.17,0-.33-.02-.06,0-.11,0-.17,0-.04-.1.03-.27,0-.37h.07l.6-.05c.04-.18-.04-.38-.03-.55.01-.31.07-.65.07-.97.1-.01.39.02.42,0,.03-.02.01-.33.02-.4.6.17.22-.66.33-.82.05-.07.45.06.43-.08,0-.4,0-.8,0-1.2,0-.6,0-1.2,0-1.8,0,0,.03.02.03-.07l.57.05c-.06.43.1,3.61-.05,3.72-.04.02-.48-.03-.52.02-.04.06,0,1.34,0,1.55Z"/>
        <path class="cls-83" d="M22.79,23.68c-.03.15.03.32.03.47,0,.63-.03.28-.53.45.06.72-.15.41-.32.48-.01,0-.02.14-.1.17-.3.11-.64-.29-.55.43-.04,0-.09,0-.13,0-.09,0-.49-.08-.55-.03-.08.06.17.28-.33.3-.07.32-.6.1-.7.17-.05.03.03.22-.07.27-.27.12-.33-.28-.45.33,0,.05-.03.03-.03.03-.14-.03-1.07-.07-1.12-.03-.12.08.19.43-.25.53-.02,0-.19.03-.2.03-.2.01-.96-.11-1.08-.07-.11.04-.08.21-.08.22-.08.1-.24-.04-.2.38-.09,0-.18,0-.27,0-.96,0-1.92-.04-2.88-.03-.02,0-.3.07-.32.07-.17,0-.36-.03-.53-.03-.02-.12-.04-.24-.03-.37.01-.15.1-.32.1-.33h1.13c.6-.01,1.2.02,1.8,0,.1,0,.62.02.65,0,.06-.04-.04-.48.07-.53.32,0,.63,0,.95,0,.13,0,.27,0,.4,0,.23,0,.46,0,.68,0-.02-.82.06-.51,1.13-.57l.07-.53c1.05-.05,1.12.25,1.13-.57.14-.02.99.03,1.03,0,.06-.04-.04-.42.07-.47,1,.09.52-.22.7-.3.05-.02.22.03.25-.02.02-.03-.03-.42.02-.45.02-.02.42,0,.52,0Z"/>
        <path class="cls-38" d="M10.58,26.54c0,.06-.07.08-.07.17-.35-.09-.71,0-1.07,0-.01,0-.02,0-.03,0,0-.51-.34-.22-.45-.3-.05-.03.01-.23-.03-.27-.03-.02-.5.02-.53,0-.05-.03,0-.23-.02-.28-.05-.1-.31-.02-.38-.05-.13-.06.27-.23-.87-.23-.06-.22-.15-.29-.17-.5-1.4.14-.24-.66-1.27-.53-.09-.04-.03-.45-.13-.5-.03-.02-.28,0-.38,0-.02-.18-.04-.36-.05-.53h-.48l-.03-.03c-.03-.67-.15-.4-.2-.52-.02-.04.02-.21,0-.23-.03-.05-.23,0-.28-.02-.11-.04.03-.25-.02-.35-.04-.1-.26-.02-.3-.07-.06-.08.15-.57-.23-.53.08-.67-.23-.31-.3-.47-.02-.05.02-.37,0-.4-.06-.08-.26.24-.2-.72.02,0,.05,0,.07,0,.4-.05.1-.19.22-.27.01-.01.33,0,.35.02.03.04-.03.83,0,.87.04.05.29-.03.33.07.03.06-.03.5,0,.53.03.04.17,0,.22.02.1.04.02.26.05.32.04.09.2.02.23.07.12.18-.31.58.4.6-.11.82.52-.07.45.82.76-.05.36.07.53.6.97-.14.44.42.6.53.99-.09.54.25.67.33.03.02.38-.02.43,0,.15.06-.24.31.67.23l.07.6h1.07c-.03.74.06.44,1.1.5,0,.17.04.36.05.53Z"/>
        <path class="cls-37" d="M24.29,6.94c.57.04.16.18.35.27.04.02.22-.02.27,0,.02,0-.1.18.3.13-.06.51.66.55.48-.23,0-.02.09-.07.1-.07.08-.02.33.02.47,0,0,.4.06.81.03,1.22.2,0,.41.04.6.05v1.18s.24.01.3.02c.24.02.19.03.2.03.07,1.06-.27,1.34.53,1.23,0,.42.03.84.03,1.27,0,.09-.03.06-.03.07,0-.16-.44.01-.5-.12v-.7s-.15,0-.2-.02c-.17-.04-.32-.04-.5-.03,0-.2,0-.4,0-.6,0-.08-.03-.16-.03-.23,0-.02.08-.29.02-.33-.03-.02-.27.02-.3,0-.04-.03,0-.22-.02-.25-.08-.11-.29.21-.32-.35-.12,0-.23,0-.35,0-.25-.02-.52-.02-.77-.03-.28,0-.22-.03-.23-.03-.02-.3.05-.6-.07-.57,0,0-.02-.04.07-.03.24,0,.49.06.73.03,0,.06-.02.24.02.27.02.01.4,0,.42-.02.03-.04.16-.65-.43-.48,0-.05-.04-.28-.08-.3-.17,0-.35,0-.52,0l-.05-.7h-.83c-.16.45.18.5-.48.47l-.07-.07c.02-.26-.03-.29-.03-.3-.03-.32.02-.68,0-1,.08,0,.33-.01.35,0,.04.03-.02.19.07.23.04.02.36,0,.48,0Z"/>
        <path class="cls-37" d="M2.15,17.94c.03.76-.17.77.43.73,0,.23.03.47.03.7,0,.26,0,.52,0,.78.02.03.4.02.47.02-.06.95.14.64.2.72.02.03-.02.35,0,.4.07.16.38-.2.3.47.38-.04.18.45.23.53.04.05.26-.03.3.07.05.1-.09.31.02.35.05.02.25-.03.28.02.02.03-.02.19,0,.23.05.12.17-.15.2.52-.84.12-.35-.34-.55-.43-.66.04-.55-.07-.58-.07l-.02-.63c-.21,0-.41,0-.62,0-.03,0-.03-.03-.07-.03l.03-.92c-.04-.09-.4-.04-.6-.05,0-.39,0-.79,0-1.18l-.6-.02s0-.02,0-.03c-.02-.45.01-.9,0-1.35-.06-.09-.23-.04-.4-.05-.07,0-.07-.03-.1-.03-.07-1.11.28-1.37-.53-1.27,0-.38,0-.77,0-1.15.19,0,.38-.05.4-.05.79-.04.29.31.43.52.07.1.34-.25.27.6.44.04-.18.56.47.62Z"/>
        <path class="cls-83" d="M23.92,23.48s-.08.06-.1.07c-.02.01-.02-.04-.07-.02,0,0,.03.12-.05.15-.05.02-.28-.02-.33,0-.11.05,0,.32-.1.37-.1.05-.45-.09-.45.1,0-.15-.07-.31-.03-.47.08,0,.18.03.23-.05-.13-.92.37-.39.47-.6v-.53c.78-.04-.04-.47.73-.47-.09-.9.22-.46.3-.63.13-.3-.35-.7.5-.63-.03-.2.02-.39.03-.58.22.02.42-.01.63-.03.01,0,.02,0,.03,0,.06.87-.13.62-.17.68-.06.1.17.31-.3.3.06.43-.31.24-.38.28-.05.03.03.18-.07.23-.12.07-.22-.24-.18.65-.23.01-.1.28-.13.33-.03.04-.17-.01-.2.03-.02.03.02.31,0,.37-.08.17-.47-.22-.37.45Z"/>
        <path class="cls-37" d="M9.42,26.71c-.14,0-1.01.03-1.05,0-.05-.03,0-.48-.02-.52-.03-.04-.83,0-.95-.02.01-.78-.01-.48-1.1-.53-.17-.57.21-.6-.57-.57-.16-.51.19-.49-.55-.55,0-.16.01-.32,0-.48.1,0,.35-.02.38,0,.11.05.04.46.13.5,1.03-.13-.13.68,1.27.53.02.21.11.28.17.5,1.13,0,.73.17.87.23.07.03.34-.05.38.05.02.05-.03.25.02.28.03.02.5-.02.53,0,.05.03-.01.23.03.27.11.08.44-.21.45.3Z"/>
        <path class="cls-4" d="M15.85,27.81l-.02.53c-.39-.07-3.04.09-3.17,0-.04-.03,0-.42-.02-.5.02,0,.3-.07.32-.07.96,0,1.92.03,2.88.03Z"/>
        <path class="cls-83" d="M1.18,15.44s.03.06.3.03c-.03.39.04.29.47.3.04.82.15.32.27.48.02.03-.02.44,0,.47.05.07.27-.2.2.65,0,.03-.1-.04-.07.5-.01,0-.18.07-.2.07-.64-.05-.02-.58-.47-.62.08-.85-.2-.5-.27-.6-.15-.21.35-.56-.43-.52v-.77c.07,0,.13,0,.2,0Z"/>
        <path class="cls-37" d="M23.15,4.17c.08,0,.56-.02.58,0,.06.04-.04.42.07.47.33.15.47-.36.53.53.21-.04.41,0,.62,0v.7c-.25-.03-.35.04-.37.03-.75-.09,0-.42-.77-.37.04-.39.02-.34-.33-.33,0-.1.03-.21-.05-.27h-.65c.1-.02.19-.04.3-.05v-.68s-.02-.03.07-.03Z"/>
        <path class="cls-60" d="M1.61,8.3c-.03.16.03,1.14,0,1.18-.04.06-.45-.04-.5.07-.07,1.09.27,1.31-.53,1.22,0-.17-.04-1.2,0-1.25.01-.02.43-.03.45-.02.06.04-.03.38.05.45l.07-1.67c.05-.07.4.02.47.02Z"/>
        <path class="cls-37" d="M19.92,2.17s-.04,0-.03.03c-.1-.03-.48.02-.67,0,0-.02-.05-.07-.03-.22-.38-.23.26-.31-.6-.35-.25-.01-.51,0-.77,0,.05-.48-.4.06-.3-.57h1.48s0,.51.02.55c.13.18,1.12-.38.9.55Z"/>
        <path class="cls-37" d="M23.82,23.54c.12.87-.35.42-.52.53.09,1-.65-.08-.52.98-.05.11-.46,0-.5.07-.04.06.06.5-.05.55-.31,0-.61,0-.92,0-.09-.72.25-.33.55-.43.08-.03.09-.16.1-.17.17-.07.38.24.32-.48.51-.17.53.18.53-.45,0-.19.35-.05.45-.1.11-.05,0-.32.1-.37.05-.02.28.02.33,0,.08-.03.04-.15.05-.15.04-.02.04.03.07.02Z"/>
        <path class="cls-38" d="M12.18,27.11s-.09.18-.1.33c-.58.07-.34-.18-.42-.23-.12-.08-.62.07-.65.07,0,0,.02,0-.17-.03-.1-.01-.2-.05-.3-.05.03-.16-.03-.33-.03-.48,0-.08.07-.11.07-.17h1.55c0,.17.06.41.05.57Z"/>
        <path class="cls-37" d="M22.65,3.77c-.06-.02-.33.02-.47,0,.14-.74-.09-.47-.63-.47-.08,0-.16,0-.23,0-.45-.01-.2-.27-.27-.6h1.18c-.08.94.37.42.48.58.02.02.03.52-.07.48Z"/>
        <path class="cls-37" d="M21.19,25.68c.22.88-.8.35-1.02.5-.06.04.04.48-.07.53h-1.02c.12-.61.18-.21.45-.33.1-.04.02-.23.07-.27.1-.07.63.15.7-.17.5-.02.25-.24.33-.3.06-.04.46.03.55.03Z"/>
        <path class="cls-37" d="M17.45,1.03c-.03.06-.28.1-.33.1-.19,0-.38,0-.57,0,.06-.35-.2-.21-.62-.23-.01-.12-.03-.24-.05-.37,1.07.09,1.75-.31,1.57.5Z"/>
        <path class="cls-28" d="M22.19,3.77c.13.02.41-.02.47,0,0,0,.03.08.07.07v1.1s-.03.03-.17.03c-.07,0-.45.01-.47-.02,0-.21,0-.41,0-.62,0-.77.09-.54.1-.57Z"/>
        <path class="cls-37" d="M17.49,27.28c.1.72-.1.53-1.37.53-.04-.43.12-.29.2-.38,0,0-.03-.17.08-.22.13-.05.89.08,1.08.07Z"/>
        <path class="cls-78" d="M27.92,10.77c-.8.1-.47-.18-.53-1.23.03,0,.17-.17.57-.02.04.41-.04.84-.03,1.25Z"/>
        <path class="cls-60" d="M2.81,6c-.05,1.02.23,1.09-.53,1.03,0-.05-.07-.02-.07-.05,0-.33,0-.67,0-1,.03-.08.57-.08.6.02Z"/>
        <path class="cls-60" d="M1.61,20.11c-.1.02-.38.07-.43-.02-.04-.06-.09-1.24.03-1.38.17.01.34-.04.4.05.01.45-.02.9,0,1.35Z"/>
        <path class="cls-60" d="M26.26,7.04c-.13.02-.39-.02-.47,0-.13-.04-.04-.67-.07-1.07.84-.32.52.27.53,1.07Z"/>
        <path class="cls-4" d="M10.52,26.71c0,.16.06.32.03.48.1,0,.2.04.3.05-.18-.03-1.33.04-1.38,0-.04-.03,0-.45-.02-.53.35,0,.71-.09,1.07,0Z"/>
        <path class="cls-37" d="M19.05,26.74c-.01.08.03.47-.02.5h-1.35c.44-.1.13-.45.25-.53.05-.03.98,0,1.12.03Z"/>
        <path class="cls-60" d="M26.26,21.38l.03.92-.6.02v-.92l.57-.02Z"/>
        <path class="cls-78" d="M27.19,9.5c-.06,0-.28.02-.3-.02v-1.18s.25-.08.47-.02c-.06.41.15,1.07-.17,1.22Z"/>
        <path class="cls-41" d="M21.02,2.67c-.16.02-.38.07-.53.07-.07,0-.47-.07-.5-.07-.02-.14.07-.42-.1-.47,0-.03,0-.03.03-.03.3-.03.76.03,1.08,0l.02.5Z"/>
        <path class="cls-37" d="M12.08,27.44c0,.13,0,.24.03.37-1.13,0-1.15.17-1.1-.53.03,0,.53-.15.65-.07.07.05-.16.3.42.23Z"/>
        <path class="cls-60" d="M25.69,5.9h-.7l-.03-.03v-.7c.12,0,.65-.11.7.02-.02.24.01.48.03.72Z"/>
        <path class="cls-7" d="M15.89.53c.02.12.04.24.05.37.42.03.68-.12.62.23-.31,0-.66-.01-.97-.03-.11,0-.22.01-.33,0v-.57c.19,0,.43.03.6-.03,0,0,.03-.01.03.03Z"/>
        <path class="cls-60" d="M3.48,5.24v.68l-.63.05c.01-.26,0-.52,0-.78.56-.08.6.05.63.05Z"/>
        <path class="cls-37" d="M25.69,5.9s.05-.01.03.07c.03.4-.07,1.03.07,1.07,0,0-.1.05-.1.07-.07-.13-.22-.04-.33-.07.03-.09.49-.01.3-.45-.06-.13-.51.04-.63-.12,0-.12.03-.49-.03-.57h.7Z"/>
        <g>
          <path class="cls-60" d="M2.78,22.31c-.09,0-.51.11-.57-.02,0-.32,0-.63,0-.95.2,0,.56-.04.6.05l-.03.92Z"/>
          <path class="cls-60" d="M3.48,22.98s-.21.17-.63.02v-.65c.21,0,.41,0,.62,0l.02.63Z"/>
        </g>
        <path class="cls-37" d="M5.18,24.04c-.53-.04-.62.18-.53-.53h.48c0,.18.03.36.05.53Z"/>
        <path class="cls-35" d="M17.52,1.07c-.1.62.35.09.3.57h-.63s-.05-.34-.07-.5c.05,0,.3-.04.33-.1l.07.03Z"/>
        <path class="cls-38" d="M21.05,2.7c.06.33-.18.59.27.6-.84,0-.42-.18-.55-.27-.07-.05-.35.16-.28-.3.15,0,.38-.04.53-.07l.03.03Z"/>
        <path class="cls-6" d="M23.15,4.17c-.09,0-.06.03-.07.03-.02,0-.13-.08-.33-.02l-.03.62v-.97c.42-.08.47-.1.43.33Z"/>
        <path class="cls-9" d="M.98,15.44v.37h-.4c-.03-.28,0-.34,0-.37.13,0,.27,0,.4,0Z"/>
        <path class="cls-28" d="M1.05,12l.07.07c.04.96.03,1.91.03,2.87,0,.16-.03.36.03.5-.07,0-.13,0-.2,0-.13,0-.27,0-.4,0-.05-1.12-.03-2.23-.03-3.35l.08-.08h.42Z"/>
        <path class="cls-36" d="M7.41,12.61s-.14.09,0,.17c-.1-.03-.41.05-.43-.1,0-.01,0-.02,0-.03,0-.07.02-.12-.05-.17-.09-.01-.21.02-.28,0,.03-.5-.04-.34-.43-.37-.13-.01-.27.04-.33-.05v-.72l.07-.07c.71-.08.39.23.48.3.04.03.8-.02.93,0,0,.34.05.7.05,1.03Z"/>
        <path class="cls-36" d="M4.35,7.04c-.01.14,0,.71,0,.93l.5.03s.06.32.03.57l-.1.3h-.43c0-.09.01-.25,0-.28-.04-.08-.14-.04-.2-.05-.05-.01-.21.02-.23-.02-.04-.06,0-1.28,0-1.45l.43-.03Z"/>
        <path class="cls-36" d="M9.28,12.2v.9c-.16,0-.32,0-.48,0-.01.14-.05.13-.05.13-.11,0-.22,0-.33,0-.36-.02.04-.15-.37-.2-.1-.01-.24-.03-.33-.03,0-.18-.15-.2-.3-.23-.14-.08,0-.16,0-.17h.33c.34.01.66,0,1-.03.45-.04.54.16.5-.4l.03.03Z"/>
        <path class="cls-6" d="M8.42,13.24c-.05.53.06.34.33.4.05.01.02.06.05.07.11.02.34,0,.48,0,.01.07-.02.37.02.4.02.02.35-.01.45,0,.17.53-.21.27-.8.3-.01-.1.04-.21-.05-.27h-.52c0-.17,0-.34,0-.52-.02-.03-.36-.01-.43-.02-.25-.01-.51,0-.77,0,.86-.14.92.25.87-.57.41.05,0,.18.37.2Z"/>
        <path class="cls-36" d="M5.98,9.87c.03.22-.03.45-.03.67-.19.03-.38-.03-.57-.03.04-.43-.04-.28-.57-.3-.05-.47-.07-.31-.07-.33,0-.02.03-.07.03-.37.08.05.46.05.5.02.04-.03.11-.9-.1-.92.04,0,.14-.02.17.02v1.2c.04.09.45.04.63.05Z"/>
        <path class="cls-74" d="M8.25,2.83l-.02.7c-.4.01-.81-.01-1.22,0-.16,0-.31.03-.47.03,0-.01-.08-.07-.02-.3.19,0,1.03.02,1.1-.03.05-.04-.02-.36.03-.4.02-.02.49,0,.58,0Z"/>
        <path class="cls-46" d="M3.65,8.74h-.58s-.05-.15-.05-.17c-.06-.93.24-.64.33-.72.13-.11-.15-.96.25-.78.1.04.03,1.37.05,1.67Z"/>
        <path class="cls-79" d="M14.12.53c.04.5-.06.41-.07.43-.89-.05-.61.09-.67.18-.06.09-.15.03-.22.05-.03.01-.01.07-.02.07-.09.02-.28-.01-.4,0h-.03s0-.07,0-.1c0,0,.09.01.1-.02l.02-.62c.43,0,.86,0,1.28,0Z"/>
        <path class="cls-62" d="M6.48,4.1s.04.04.03.17c0,.08-.07.22-.07.23-.5-.06-.29.18-.33.25-.03.04-.17-.01-.2.03-.11.15.34.51-.6.42,0-.16-.02-.31-.03-.47.5-.09.17-.24.27-.38.03-.05.26,0,.32-.02.14-.06-.22-.22.62-.23Z"/>
        <path class="cls-34" d="M10.68,1.9s.07.19.07.3c0,.16,0,.31,0,.47-.28.06-.58.03-.87.03,0-.27,0-.53,0-.8.27-.01.53,0,.8,0Z"/>
        <path class="cls-79" d="M9.88,1.9c0,.27,0,.53,0,.8-.19,0-.8-.02-.87,0l-.03-.47c.69-.03.27-.25.45-.33.03-.01.34,0,.45,0Z"/>
        <path class="cls-31" d="M5.38,10.5c.19,0,.38.06.57.03,0,.24,0,.49,0,.73l-.07.07-.67-.08-.03-.75c.19.02.19,0,.2,0Z"/>
        <path class="cls-19" d="M4.71,5.84c-.01.19.02.38,0,.57-.04.45-.25.13-.33.25-.01.02,0,.25,0,.32,0,0-.03-.02-.03.07l-.43.03c0-.15-.02-.38,0-.45,0-.03.08,0,.1-.03.02-.04-.04-.18.05-.22.04-.02.19.03.22-.02.02-.03-.02-.31,0-.33.05-.08.17.13.23-.22.18-.02.19.03.2.03Z"/>
        <path class="cls-73" d="M11.48,1.17v.83c-.23.02-.43-.1-.47.2h-.27c0-.11-.07-.28-.07-.3,0-.72.36-.26.55-.4.05-.03,0-.26.02-.32.05-.12.22-.02.23-.02Z"/>
        <path class="cls-19" d="M5.28,4.74c0,.16.03.31.03.47,0,.19,0,.38,0,.57-.19,0-.41.07-.6.07-.01,0-.02-.06-.2-.03,0-.04-.07-.15-.03-.22.04-.09.2-.02.23-.07.02-.03-.02-.27,0-.3.08-.12.44.26.4-.47.09-.11.16-.02.17-.02Z"/>
        <path class="cls-28" d="M5.25,12.07s-.09.13-.53.05c-.05-.07.03-.69.03-.82.67-.04.47-.02.5.77Z"/>
        <path class="cls-58" d="M1.68,11.24l-.03.75s-.1,0-.13.02c-.14.03-.32-.06-.4.07l-.07-.07c.13.02.04-.42.07-.75.03-.04.45,0,.57-.02Z"/>
        <path class="cls-39" d="M4.78,8.87c0,.21,0,.42,0,.63,0,.3-.03.35-.03.37-.55.06-.32-.13-.37-.72,0-.03-.06,0-.07-.05-.01-.18.03-.22.03-.23h.43Z"/>
        <path class="cls-3" d="M8.98,2.23l.03.47c-.22.06.16.09-.63.13,0-.12.02-.24.03-.37.09-.01.33.02.35,0,.06-.04-.03-.2.02-.27.2-.01.19.03.2.03Z"/>
        <path class="cls-80" d="M15.25.53v.57c-.58-.06-.29-.11-.37-.22-.04-.06-.22.14-.17-.35.18,0,.36,0,.53,0Z"/>
        <path class="cls-19" d="M7.41,12.77c.15.04.3.05.3.23-.8-.03-.7.26-.73-.33.02.15.33.07.43.1Z"/>
        <path class="cls-34" d="M12.35,1.17v.07c-.15.02-.35-.06-.43.07-.1.15.13.32-.43.2v-.33c.29,0,.58,0,.87,0Z"/>
        <path class="cls-19" d="M5.38,10.5s0,.02-.2,0c-.11-.01-.24,0-.35,0-.04-.03-.01-.24-.02-.3.53.02.61-.13.57.3Z"/>
        <path class="cls-51" d="M12.72,1.17s0,.07,0,.1c-.09.28.09.38-.33.33,0-.11-.03-.14-.03-.2,0-.06,0-.11,0-.17v-.07h.37Z"/>
        <path class="cls-31" d="M6.65,12.47c-.1-.02-.04-.05-.13-.07-.25-.05-.33.15-.3-.3.39.03.47-.13.43.37Z"/>
        <path class="cls-31" d="M6.65,12.47c.07.02.2-.01.28,0,.07.05.04.1.05.17-.3.28-.46.18-.47-.23.1.02.04.05.13.07Z"/>
        <path class="cls-31" d="M4.35,8.87s-.05.05-.03.23c-.25.15-.15-.14-.17-.57.06.01.16-.03.2.05.01.03,0,.19,0,.28Z"/>
        <path class="cls-71" d="M8.78,2.2c-.05.06.04.23-.02.27-.02.02-.26-.01-.35,0,0-.01-.1-.15.02-.27.12,0,.23,0,.35,0Z"/>
        <path class="cls-28" d="M27.22,11.27c0,1.22.02,2.44-.03,3.67-.01.36-.02.71-.03,1.07,0,.07.02.38-.02.4-.02.02-.32-.01-.42,0,0,0-.07.01-.07-.02,0-.36,0-.72,0-1.08,0-1.34,0-2.68,0-4.02.02-.03.07,0,.07-.05.18,0,.33,0,.5.03Z"/>
        <path class="cls-14" d="M27.92,12.1c0,.6,0,1.2,0,1.8-.07.01-.3-.02-.33.02-.03.04-.07,1-.07,1.05l-.33-.03c.05-1.22.03-2.44.03-3.67.05.01.17-.02.2.02v.7c.06.13.51-.04.5.12Z"/>
        <path class="cls-17" d="M27.92,13.91c0,.4,0,.8,0,1.2-.29.06-.38.1-.4-.13,0-.05.04-1.01.07-1.05.03-.04.27,0,.33-.02Z"/>
        <path class="cls-27" d="M27.52,14.97c.02.23.11.2.4.13.01.14-.39.02-.43.08-.11.16.27.99-.33.82.02-.35.02-.71.03-1.07l.33.03Z"/>
        <path class="cls-27" d="M26.16,19.57c-.01.08-.02.16-.03.23-.01.09.04.29-.05.33-.11,0-.24-.01-.35,0-.01,0-.02,0-.03,0-.05-.59-.16-.59.47-.57Z"/>
        <path class="cls-6" d="M25.92,17.41c-.02.33-.02.33.17.57h-.07c-.1-.3-.35.21-.37-.43,0,0,.03-.13.03-.17.16-.02.22.03.23.03Z"/>
        <path class="cls-83" d="M26.12,19.81c.01-.08.02-.16.03-.23.01-.07-.01-.21,0-.23.2.03.28.56-.03.47Z"/>
        <path class="cls-46" d="M17.19,26.58c-.13,0-.27,0-.4,0-.17-.54.64-.53.4,0Z"/>
        <path class="cls-28" d="M3.15,20.17s-.04,0-.07,0c-.07,0-.45.01-.47-.02,0-.26,0-.52,0-.78.72-.14.47.02.53.8Z"/>
        <path class="cls-19" d="M24.59,6.3c.06.32.13.19.4.23,0,.35.08.14.22.2.12.05-.05.25.15.3.11.03.27-.06.33.07.17.78-.55.75-.48.23-.4.05-.28-.13-.3-.13-.05-.02-.22.02-.27,0-.19-.08.22-.23-.35-.27.04-.64-.19-.67.3-.63Z"/>
        <path class="cls-37" d="M24.69,8.3l.03.5c-.09,0-.06.03-.07.03-.5-.01-1-.06-1.5-.03.06-.01.25-.04.27-.08,0-.18,0-.34.03-.52-.03.17.75.09,1.23.1Z"/>
        <path class="cls-31" d="M23.49,8.07c-.05.06-.02.1-.03.13-.04.18-.04.34-.03.52-.02.05-.21.07-.27.08-.04,0-.16.03-.17.03-.02,0-.29-.03-.4-.03.09-.19,0-.38,0-.4,0-.02.06-.06.03-.33.01,0,.02,0,.03,0,.12,0,.24,0,.37,0,.19,0,.34.04.4-.07l.07.07Z"/>
        <g>
          <path class="cls-64" d="M24.86,8.3c-.06,0-.11,0-.17,0-.48,0-1.26.07-1.23-.1,0-.04-.01-.08.03-.13.66.03.32-.01.48-.47h.83l.05.7Z"/>
          <path class="cls-64" d="M24.86,8.3c.17,0,.35,0,.52,0,.04.02.08.25.08.3.01.07,0,.16,0,.23-.24.03-.49-.03-.73-.03l-.03-.5c.05,0,.11,0,.17,0Z"/>
          <path class="cls-20" d="M25.46,8.84c0-.07.01-.16,0-.23.59-.16.46.45.43.48-.01.02-.4.03-.42.02-.04-.03,0-.21-.02-.27Z"/>
        </g>
        <g>
          <path class="cls-29" d="M22.99,6.67c.14-.02.27.02.4.03.02.32-.03.68,0,1-.09.01-.33-.02-.35,0-.04.03,0,.3-.02.37-.12,0-.24,0-.37,0,.04-.23-.03-.48-.03-.7,0-.21.07-.49.07-.7h.3Z"/>
          <path class="cls-36" d="M23.39,7.7s.06.04.03.3c-.06.11-.21.06-.4.07.01-.07-.02-.34.02-.37.02-.02.26.01.35,0Z"/>
        </g>
        <path class="cls-61" d="M2.58,17.91c0,.26,0,.51,0,.77-.6.04-.4.02-.43-.73.02,0,.19-.07.2-.07.01,0,.08.05.23.03Z"/>
        <path class="cls-17" d="M1.95,15.77c-.43,0-.5.09-.47-.3,0,0,.07-.03.07-.05,0-.17-.03-.35-.03-.52,0-.76.03-1.51.03-2.27.07.01.37-.02.4.02.09.13-.02,2.7,0,3.12Z"/>
        <path class="cls-27" d="M1.48,15.47c-.27.02-.29-.03-.3-.03-.06-.14-.03-.34-.03-.5l.37-.03c0,.17.04.35.03.52,0,.02-.07.05-.07.05Z"/>
        <path class="cls-4" d="M2.58,17.91c-.16.02-.22-.03-.23-.03-.04-.54.06-.47.07-.5.34-.08.17.34.17.53Z"/>
        <path class="cls-31" d="M24.96,5.87l.03.03c.06.07.03.44.03.57,0,0-.03-.02-.03.07-.27-.04-.34.08-.4-.23-.02-.11.01-.28,0-.4.02,0,.12-.06.37-.03Z"/>
        <path class="cls-2" d="M23.09,4.2v.68c-.11.01-.2.03-.3.05-.1.02-.06,0-.07,0v-.13l.03-.62c.2-.06.32.02.33.02Z"/>
        <path class="cls-5" d="M19.89,2.2c.17.05.08.33.1.47-.25.03-.12.16-.22.2-.05.02-.42-.02-.55,0-.02-.19.02-.42,0-.6,0-.02,0-.05,0-.07.18.02.57-.03.67,0Z"/>
        <path class="cls-21" d="M19.22,2.2s0,.05,0,.07c-.08-.06-.06,0-.07,0-.1,0-.42.01-.47,0-.02,0-.06.01-.1-.05v-.58c.86.04.22.12.6.35-.02.14.03.2.03.22Z"/>
        <path class="cls-38" d="M22.19,3.77s-.09-.21-.1.57c-.03,0-.03,0-.03-.03-.02-.15.01-.33,0-.48-.08-.19-.46.26-.5-.52.54,0,.77-.27.63.47Z"/>
        <path class="cls-37" d="M22.09,4.34c0,.21,0,.41,0,.62.02.03.4.02.47.02.07.21.02.45.03.67,0,.07,0,.14,0,.22.04.06.08.04.1.05-.1.25,0,.52,0,.77,0,.21-.07.49-.07.7-.12,0-.25,0-.37,0v-1.02c-.04-.09-.75-.05-.9-.05-.03-.11.03-.38.03-.4.12-.02.72.05.77-.05.21-.48-.7-.2-.77-.3v-1.2l.67-.05s0,.04.03.03Z"/>
        <path class="cls-82" d="M25.36,7.04c-.2-.05-.03-.25-.15-.3-.14-.06-.21.15-.22-.2,0-.09.03-.06.03-.07.13.15.58-.01.63.12.19.44-.27.36-.3.45Z"/>
        <path class="cls-10" d="M10.48,14.71c0,.12,0,1.01-.03,1.05-.04.06-.45-.04-.5.07.03.71-.04,1.48,0,2.18-.41.1-.41-.03-.43-.03-.01-.12.02-.59,0-.62-.03-.04-.48,0-.57-.02.04-1.13-.15-.46-.27-.72-.02-.05.03-.28-.02-.32-.03-.02-.27.05-.32-.05-.03-.06.03-.41-.02-.45-.03-.02-.25.03-.28-.02,0-.01,0-.26,0-.27.06-.08.34.18.27-.42.08,0,.16,0,.23,0,.13,0,.27,0,.4,0,.14,0,.29.04.43.03.07,0,.41.02.43-.02-.03-.23.03-.46.03-.68h.62s.02.22.02.27Z"/>
        <path class="cls-84" d="M12.02,23.21v1.47l-.77-.02v-1.43s.65,0,.77-.02Z"/>
        <path class="cls-59" d="M1.51,12c-.04.21.03.43.03.63,0,.75-.04,1.51-.03,2.27l-.37.03c0-.96.01-1.91-.03-2.87.08-.13.26-.04.4-.07Z"/>
        <g>
          <path class="cls-61" d="M11.65,20.24s.01.07-.02.07c-.34,0-.68,0-1.02,0,0-.43.03-.88,0-1.3,1.01-.11.41.31.57.65.09.21.59-.31.47.58Z"/>
          <path class="cls-78" d="M12.05,20.98h-1.45s.02-.57.02-.67c.34,0,.68,0,1.02,0,.03,0,.01-.07.02-.07.05,0,.38.04.4.08,0,.22,0,.43,0,.65Z"/>
        </g>
        <path class="cls-28" d="M12.05,25.38c0,.19,0,.38,0,.57-.12,0-.68.08-.75.03,0-.1-.04-.21-.05-.3,0-.02.06-.08.03-.3h.77Z"/>
        <path class="cls-84" d="M11.28,25.38c.02.22-.03.29-.03.3l-.6-.05v-.73l.55-.05c0,.56.08.51.08.53Z"/>
        <g>
          <path class="cls-22" d="M3.01,8.57s.03.16.05.17h.58c0,.1-.01.32,0,.35.1.22.51-.38.4.77.61.12-.24.75.7.67,0,.26,0,.52,0,.78,0,.12-.08.75-.03.82.44.08.51-.05.53-.05.18,0,.39.06.57.05l.05.68c1-.09.52.22.7.3.3.13.63-.35.62.5.26,0,.51-.01.77,0-.11.54.03.51.03.53,0,.14-.08.88-.03.95.12.04.25.01.37.02.07.6-.21.34-.27.42,0,.01,0,.26,0,.27.03.04.26,0,.28.02.05.04-.01.39.02.45.04.1.28.03.32.05.05.03,0,.26.02.32.11.25.31-.41.27.72,0,.21-.04.44-.07.65.05.07.54-.02.63-.02.02,0,.03.13.43.03,0,.02,0,.04,0,.07,0,.05-.02.21.02.23l.62.02c-.03.23.02.46.03.68.03.42,0,.87,0,1.3,0,.09-.05.64-.02.67h1.45c0,.32,0,.65,0,.97,0,.41-.05.82,0,1.23-.05,0-.03.03-.03.03-.12.01-.74-.02-.77.02v1.43l.77.02s.03.03.03.03c0,.22,0,.44,0,.67h-.77s-.09.03-.08-.53l-.55.05v.73l.6.05c0,.09.05.2.05.3.07.05.63-.04.75-.03l.02.07c.16,0,.32,0,.48,0l.02.47c.25,0,.5,0,.75,0v.63h-1.13c0-.16-.06-.39-.05-.57h-1.55c0-.17-.05-.36-.05-.53-1.04-.06-1.13.24-1.1-.5h-1.07l-.07-.6c-.9.07-.52-.17-.67-.23-.06-.02-.4.02-.43,0-.12-.09.32-.43-.67-.33-.16-.12.37-.67-.6-.53-.18-.53.23-.65-.53-.6.07-.89-.56,0-.45-.82-.71-.02-.28-.42-.4-.6-.03-.04-.19.02-.23-.07-.03-.06.05-.27-.05-.32-.04-.02-.19.03-.22-.02-.03-.04.03-.47,0-.53-.04-.1-.3-.01-.33-.07-.03-.04.03-.83,0-.87-.02-.02-.34-.03-.35-.02-.11.08.18.22-.22.27-.06-.78.18-.95-.53-.8,0-.23-.03-.47-.03-.7,0-.26,0-.51,0-.77,0-.19.18-.62-.17-.53.07-.85-.15-.58-.2-.65-.02-.03.02-.44,0-.47-.12-.17-.23.33-.27-.48-.02-.41.09-2.99,0-3.12-.03-.04-.33,0-.4-.02,0-.2-.07-.43-.03-.63.04,0,.11.02.13-.02l.03-.75s.14.02.17-.02c-.09-1.2.23-.65.33-.8.02-.03-.02-.7,0-.73.03-.05.22.03.27-.07.03-.06-.03-.5,0-.53.03-.05.22.03.27-.07.09-.21-.21-.54.3-.45Z"/>
          <g>
            <path class="cls-84" d="M5.43,19.67l1.48.02c.03.17-.04,1.18,0,1.23.04.05.43-.02.47.03.03.04-.03.54,0,.6.07.16.38-.3.25.85l-.65-.02-.05-.82-1.18-.02c.09-.89-.25-.48-.33-.6-.04-.05.02-1.12.02-1.28Z"/>
            <g>
              <path class="cls-37" d="M3.65,11.67c0,.72.08,1.46,0,2.18l-1.05.02c-.12-.05-.02-1.95-.02-2.2h1.07Z"/>
              <path class="cls-61" d="M3.65,11.67h-1.07c0-.1-.09-.65-.02-.7h1.13s.02.59.02.68c0,.03-.07.01-.07.02Z"/>
            </g>
            <path class="cls-84" d="M7.97,22.71c.51.01.09.26.3.73.3.11.59-.35.47.63-.85.04-.42-.02-.6-.67l-.58-.02v-.63c.12,0,.4-.05.42-.05Z"/>
            <g>
              <path class="cls-37" d="M5.38,15.77c.01.1-.02,1.78-.03,2.07,0,.09.02.61-.02.63l-1.15-.02v-2.87l1.15-.02c0,.11.05.19.05.2Z"/>
              <path class="cls-61" d="M6.91,15.84c0,.18,0,.36,0,.53-.01.23,0,.44,0,.67,0,.17,0,.41,0,.43,0,.09-.05.24-.05.37-.33-.05-.68-.05-1.02-.03v-2.03c.34,0,.68-.01,1.02,0,.03,0,0,.06.05.07Z"/>
              <path class="cls-28" d="M5.85,15.77v2.03c-.16,0-.33.06-.5.03,0-.29.05-1.96.03-2.07h.47Z"/>
              <path class="cls-37" d="M6.91,16.37c0-.18,0-.36,0-.53,0,0,.07-.07.08-.07.27.01.53.06.8.03.09.79.04.53-.88.57Z"/>
              <path class="cls-37" d="M6.91,17.47s0-.27,0-.43c.12-.04.88-.06.92-.03.02.01.03.43.02.45-.03.04-.81,0-.93.02Z"/>
            </g>
          </g>
        </g>
        <path class="cls-24" d="M9.52,17.97c-.09,0-.58.09-.63.02.03-.21.06-.44.07-.65.09.01.54-.03.57.02.02.03-.01.5,0,.62Z"/>
        <path class="cls-57" d="M8.38,14.14h-.4s-.14,0-.03-.53c.07,0,.41-.02.43.02,0,.17,0,.34,0,.52Z"/>
        <path class="cls-72" d="M13.98,26.04c-.2,0-.4,0-.6,0-.28-.01-.55-.02-.83-.03-.16,0-.32,0-.48,0l-.02-.07c.14,0,.26,0,.4,0,.37,0,.75.07,1.12.03l.08-.08c-.09-.13,0-.17,0-.18.07.25.41-.1.33.33Z"/>
        <path class="cls-8" d="M14.02,6.24l.03.63c-.08.01-.2-.03-.23.05-.02.06.03.32-.02.35-.12.08-.56-.18-.45.23-.17,0-.34-.04-.4.05l-.02.65c-.21,0-.4,0-.62.03-.39.07-.1.05-.2.28-.04.1-.22,0-.27.1-.02.04.03.19-.02.22-.13.09-.3-.2-.35.2-.01.1.02.31,0,.35-.06.14-.41-.07-.47.15-.01.05,0,.23,0,.33.05.07-.6.1-.83.1-.2,0-.5,0-.7-.03l.02-.5c.81.09.42-.12.53-1.13h1.13c-.09-.93.44-.36.65-.57.08-.08-.03-.18.12-.23.82.05.52-.14.58-.28.34-.14-.2-.32.67-.33l.05-.68c.22.03.44-.03.65-.03.03,0,.13.07.13.07Z"/>
        <path class="cls-37" d="M11.52,10.44c-.57-.01-.45-.05-.47.43h-1.78l-.05.6c-.18.01-.37-.04-.43.05v.62c-.28,0-.56,0-.83,0-.22-1,.33-.51.43-.65.02-.03-.01-.43,0-.53-.4.01-.81.04-1.2.02-.04-.68,0-.41.63-.47.16-.01.19-.03.2-.03,0,.16.12.27.07.42.07.06.14-.02.2-.02.2.02.3.02.5,0,.06,0,.28.03.32,0,.04-.03,0-.21.02-.27.01-.1-.04-.21.05-.27.34,0,.68,0,1.02,0,.04,0,.16.11.87.07.43-.02.45.07.43-.45.77-.05.34-.27.52-.35.28-.12.49.3.42-.52.63-.29.67.33.63-.83.05-.11.46-.01.52-.05.06-.04-.04-.45.07-.5h2.13c0-.26.05-.53.05-.78,0-.03-.07-.01-.07-.02,0-.21.07-.45.03-.67.09,0,.06-.03.07-.03.19,0,.49-.04.53.05v.67c-.87-.02-.38.09-.58.85h-2.13c-.11.05,0,.43-.07.47-.05.04-.47-.06-.52.05v.77l-.58.02c.06.93-.29.44-.47.57-.05.04.03.29-.07.33-.27.12-.47-.29-.45.47Z"/>
        <path class="cls-26" d="M7.82,9.94c-.14-.07-.99-.12-1.03-.02v1c.06.09.23.04.4.05.4.03.8,0,1.2-.02-.01.11.02.51,0,.53-.1.14-.65-.35-.43.65-.15,0-.23.33-.2.47h-.33c0-.34-.06-.69-.05-1.03-.14-.02-.9.03-.93,0-.1-.07.22-.38-.48-.3,0-.24,0-.49,0-.73,0-.22.06-.44.03-.67.61.02,1.21-.06,1.82-.03l.02.1Z"/>
        <path class="cls-74" d="M10.75,2.7c0,.09,0,.18,0,.27,0,.07-.36.46.43.37,0,.15.01.41,0,.55,0,.03-.06,0-.07.05l-.6.03c0-.2-.07-.41-.03-.62-.76-.1-.59.02-.6.82h-.62c0,.14-.04.29-.05.43l-.4.03s-.05.04-.03-.4c0,0,.07-.02.07-.05.02-.28-.01-.56,0-.83l1.02-.02s.01-.54.02-.63c.29,0,.58.03.87-.03,0,.01,0,.02,0,.03Z"/>
        <path class="cls-18" d="M11.98,5.77s-.04.03-.07.03c-.29,0-.58,0-.87,0-.17,0-.36-.03-.53-.03-.18,0-.37.04-.53.03-.2,0-.43-.03-.63-.03l.02-.7,2.57-.03.05.73Z"/>
        <path class="cls-74" d="M13.15,5.87c.24.02.49,0,.73,0v.3c-.21,0-.43.06-.65.03l-.05.68c-.87.01-.33.19-.67.33-.07.14.24.33-.58.28-.14.05-.04.15-.12.23.05-.83-.21-1.09.38-1-.02.46.65.41.37-.33-.32-.14-.77.4-.65-.6.03,0,.04-.03.07-.03.66,0,.47-.07.5-.07.05,0,.02.07.05.07.67.03.58.1.62.1Z"/>
        <path class="cls-74" d="M7.82,9.94v.57c-.64.05-.67-.21-.63.47-.17-.01-.34.04-.4-.05v-1c.05-.1.89-.05,1.03.02Z"/>
        <path class="cls-25" d="M9.48,9.94c.2.03.5.03.7.03v.37c-.34,0-.68,0-1.02,0-.09.06-.04.17-.05.27-.07-.01-.18.01-.23,0-.01,0-.23-.14-.17-.2-.05-.6.11-.33.23-.42.04-.03-.03-.25.02-.28.01,0,.32,0,.33,0,.1.07-.15.19.18.23Z"/>
        <path class="cls-79" d="M5.18,8.6c.21.01.14.89.1.92-.04.03-.42.03-.5-.02,0-.21,0-.42,0-.63l.1-.3c.09.07.2.02.3.03Z"/>
        <path class="cls-74" d="M5.45,5.84c-.01.09.03.54-.02.57-.03.02-.6-.02-.72,0,.02-.19-.01-.38,0-.57.19,0,.41-.06.6-.07,0,0-.06.07.13.07Z"/>
        <path class="cls-36" d="M4.88,7.64c-.47.02-.58-.12-.53.33,0-.23-.01-.79,0-.93,0-.09.03-.06.03-.07,0,.15.45.01.5.08.02.02,0,.49,0,.58Z"/>
        <path class="cls-36" d="M8.78,4.24c-.02.44.03.38.03.4,0,.14,0,.26,0,.4-.12,0-.24,0-.37,0,0-.73-.1-.86.33-.8Z"/>
        <g>
          <path class="cls-68" d="M9.02,2.7c.07-.02.67,0,.87,0,0,.09.02.61-.02.63l-1.02.02c-.01.28.02.56,0,.83,0,.03-.07.05-.07.05-.43-.06-.34.07-.33.8,0,.11,0,.22,0,.33,0,.07-.02.38.02.4.27,0,.55,0,.82,0,.14.1.09.22.1.37.01.22-.04.63.05.67.02,0,.38.01.4,0,.03-.02.02-.3.02-.37h.17c.71.08.44-.21.52-.27.13-.09.63.25.52-.37.29,0,.58,0,.87,0-.12,1,.33.46.65.6.28.75-.39.8-.37.33-.59-.09-.33.17-.38,1-.21.21-.74-.36-.65.57h-1.13c-.11,1.02.27,1.22-.53,1.13l-.02.5c-.33-.05-.09-.16-.18-.23-.01,0-.32,0-.33,0-.05.03.03.25-.02.28-.13.09-.28-.18-.23.42-.15.03-.31.05-.47.07-.08,0-.16,0-.23,0-.01,0-.04.02-.2.03v-.57l-.02-.1c-.61-.03-1.21.05-1.82.03-.19,0-.6.04-.63-.05v-1.2s-.12,0-.17-.02c-.1-.02-.21.03-.3-.03.03-.25-.03-.54-.03-.57,0-.12.04-.24.03-.37,0-.09.02-.56,0-.58-.05-.07-.51.06-.5-.08,0-.07-.01-.3,0-.32.08-.12.29.2.33-.25.12-.02.69.02.72,0,.04-.03,0-.48.02-.57.08,0,.53-.02.55-.03.09-.06-.2-.38.43-.3,0-.31.08-.6.08-.67.55.06.47-.08.4-.57.21-.05.05-.52.1-.73.4-.01.81.01,1.22,0l.02-.7s.09,0,.13,0c.79-.04.42-.07.63-.13Z"/>
          <path class="cls-47" d="M7.01,3.53c-.05.21.11.68-.1.73-.08.02-.28-.01-.4,0,0-.13-.03-.15-.03-.17,0-.17.06-.36.07-.53.16,0,.31-.03.47-.03Z"/>
          <path class="cls-68" d="M6.45,4.5s.07.32.07.33c0,.07-.09.35-.08.67-.64-.08-.34.24-.43.3-.02.02-.47.03-.55.03-.2,0-.12-.07-.13-.07,0-.19,0-.38,0-.57.94.1.49-.26.6-.42.03-.04.17.01.2-.03.05-.07-.16-.31.33-.25Z"/>
          <path class="cls-74" d="M9.85,6.44c0,.06.02.34-.02.37-.02.01-.38,0-.4,0-.09-.04-.04-.45-.05-.67.66-.02.47,0,.47.3Z"/>
          <path class="cls-68" d="M9.35,5.77c.21,0,.43.03.63.03l.03.53v.1h-.17c0-.29.19-.32-.47-.3,0-.15.04-.27-.1-.37.02,0,.04,0,.07,0Z"/>
          <path class="cls-34" d="M6.91,4.27c.07.49.15.62-.4.57,0-.02-.07-.31-.07-.33,0-.01.06-.16.07-.23.12-.01.32.02.4,0Z"/>
        </g>
        <path class="cls-69" d="M11.05,5.8c.11.61-.39.28-.52.37-.08.06.19.34-.52.27v-.1l.43-.02c.04-.21.11-.28.07-.55.18,0,.36.03.53.03Z"/>
        <path class="cls-54" d="M8.88,10.6c-.15-.03-.09.08-.1.27-.2.02-.3.02-.5,0l-.03-.4c.15-.01.32-.03.47-.07-.06.06.15.2.17.2Z"/>
        <path class="cls-34" d="M4.88,7.64c0,.13-.03.25-.03.37l-.5-.03c-.04-.45.06-.32.53-.33Z"/>
        <path class="cls-31" d="M8.82,5.04c.09,0,.06.03.07.03-.21.02.07.35-.43.3,0-.11,0-.22,0-.33.12,0,.25,0,.37,0Z"/>
        <path class="cls-76" d="M8.25,10.47l.03.4c-.06,0-.13.07-.2.02.05-.15-.06-.25-.07-.42.08,0,.16,0,.23,0Z"/>
        <path class="cls-24" d="M14.05.97s.1.25-.02.3c-.29.13-.35-.44-.32,1.15.71.09.3.08.48.65h.83c.04-.17.11-.35.12-.37l.43.05c-.05.39.05,1.16.03,1.45-.03.4-.16.29-.5.3-.02-.46-.05-.92-.03-1.38l-.88-.02c-.03.5-.02,1-.02,1.5,0,.15-.03,1.07,0,1.12.02.02.27.02.28.02.05-.03-.03-.22.07-.27.02,0,.38-.01.4,0,.09.07-.15.3.25.37v.03c-.43,0-.87.01-1.3,0-.24,0-.49.02-.73,0-.17-.59.19-.34.57-.42.09-.82-.09-.49-1.2-.55,0-.08-.01-.2,0-.27.06-.33.27.11.33-.37.27.02.32-.03.33-.03.15,0,.28.05.43.03l.07-.05v-1.27c-.02-.05-.48-.08-.57-.08-.02-.24.03-.63,0-.83-.03-.18-.27-.03-.37-.13.54.07.47-.19.4-.63,0,0-.01-.06.02-.07.06-.02.15.04.22-.05.06-.09-.22-.23.67-.18Z"/>
        <path class="cls-29" d="M9.28,13.11c.18,0,.36,0,.53,0,0,.2,0,.4,0,.6-.18,0-.36,0-.53,0-.15,0-.37.02-.48,0-.03,0,0-.06-.05-.07.09-.19,0-.38,0-.4,0,0,.04,0,.05-.13.16,0,.32,0,.48,0Z"/>
        <path class="cls-37" d="M9.82,12.41c.02.16,0,.36,0,.53,0,.06,0,.11,0,.17-.18,0-.36,0-.53,0v-.9l.52-.03s.01.18.02.23Z"/>
        <path class="cls-29" d="M7.95,12.14c.28,0,.56,0,.83,0,.15,0,.31,0,.47,0v.03c-.67-.02-.41,0-.5.4-.34.03-.66.05-1,.03-.03-.14.05-.47.2-.47Z"/>
        <path class="cls-34" d="M9.25,12.17c.04.56-.05.36-.5.4.09-.41-.17-.42.5-.4Z"/>
        <path class="cls-31" d="M8.75,13.24s.09.21,0,.4c-.28-.06-.39.13-.33-.4.11,0,.22,0,.33,0Z"/>
        <path class="cls-28" d="M9.82,12.41c0-.05.02-.21-.02-.23l-.52.03-.03-.03v-.03c.13,0,.91-.03.95,0,.05.03.15.36-.38.27Z"/>
        <g>
          <path class="cls-28" d="M8.38,14.14c.02.58-.1.98.17.97-.08,0-.16,0-.23,0-.12,0-.25.02-.37-.02-.05-.07.04-.81.03-.95h.4Z"/>
          <path class="cls-61" d="M8.95,14.41c.01.09.03.06.03.07,0,.03-.07.4-.03.63-.13,0-.27,0-.4,0-.26.01-.15-.39-.17-.97h.52c.09.06.04.17.05.27Z"/>
        </g>
        <path class="cls-37" d="M9.82,14.11c0,.33.03.32.03.33,0,.22-.06.46-.03.68-.02.03-.36.01-.43.02-.13-.5.18-.73-.4-.67,0,0-.02.03-.03-.07.59-.03.97.23.8-.3h.07Z"/>
        <path class="cls-11" d="M9.82,13.71c0,.13,0,.27,0,.4h-.07c-.1-.01-.43.02-.45,0-.04-.03,0-.33-.02-.4.18,0,.36,0,.53,0Z"/>
        <path class="cls-12" d="M12.75,1.27c-.05.11-.06.58,0,.63.1.1.34-.05.37.13-.47.02-.94-.04-1.4.03-.05,0-.11,0-.17,0l-.07-.07v-.1c.06.06.4.13.43.02-.08-.36.08-.42-.43-.32v-.1c.56.12.33-.05.43-.2h.03c-.05.09-.07.56.02.6.3.13.39-.05.42-.3.42.04.24-.05.33-.33h.03Z"/>
        <path class="cls-75" d="M13.15,1.27c.07.44.14.7-.4.63-.06-.06-.05-.53,0-.63.12-.01.31.02.4,0Z"/>
        <path class="cls-15" d="M11.02,2.2s.06.24.03.47c-.02,0-.03.06-.3.03,0-.01,0-.02,0-.03,0-.16,0-.31,0-.47h.27Z"/>
        <path class="cls-34" d="M11.48,2l.07.07-.03.58c-.14.1-.27.01-.47.02.03-.23-.04-.44-.03-.47.04-.3.24-.18.47-.2Z"/>
        <path class="cls-63" d="M11.48,1.9v-.3c.52-.1.35-.04.43.32-.04.11-.38.04-.43-.02Z"/>
        <path class="cls-33" d="M12.35,1.23c0,.06,0,.11,0,.17-.09-.24-.02.11-.22.07-.09-.02-.05-.21-.18-.17h-.03c.09-.13.29-.04.43-.07Z"/>
        <path class="cls-57" d="M12.35,1.4c0,.06.04.09.03.2-.02.25-.12.43-.42.3-.08-.04-.06-.51-.02-.6.13-.05.09.15.18.17.19.04.13-.3.22-.07Z"/>
        <path class="cls-5" d="M20.85,14.44c0,.1-.05.51-.03.55.09.18.46-.22.37.45l.05.07.65.05.02.72c.35.06,2.75-.08,2.87,0,.11.07-.23.36.42.35,0,.27-.01.53,0,.8,0,.03.07.01.07.02,0,.06.01.41-.02.43-.02.01-.45.01-.47,0-.04-.03,0-.26-.02-.28-.03-.05-.26,0-.32-.02-.1-.04-.02-.23-.07-.27-.03-.02-.64,0-.75,0-.11,0-.24.03-.33.03-.17,0-1.23,0-1.28-.03-.06-.04.04-.35-.07-.4-.07-.03-.51.04-.55-.02-.15-.2.46-.51-.85-.42-.11.05,0,.39-.07.43-.18.13-1-.32-.82.42-.05.08-.13.05-.2.05-.89.04-.67-.1-.72-.57-.17,0-.34,0-.52,0-.03-.78-.1-.48-.82-.53-.08-.36.16-.56-.32-.6.01-.09-.03-.5.02-.53.04-.03.79,0,.92,0,.48,0,.97,0,1.45,0l.02-.77c.44.02,1.11-.07,1.37.07Z"/>
        <path class="cls-37" d="M25.19,15.64c0,.06,0,.12,0,.2.02.33-.28.5.53.37,0,.01-.03.03-.03.17,0,.33,0,.67,0,1,0,.04-.03.16-.03.17,0-.16-.23-.08-.4-.1,0,0-.07.01-.07-.02-.01-.27,0-.53,0-.8-.64.01-.31-.28-.42-.35-.12-.08-2.51.06-2.87,0l-.02-.72-.65-.05-.05-.07c.26-.04.59.11.73-.13.01.1,0,.21,0,.32l.08.05c.36-.1,2.18.02,2.3-.03.09-.04.03-.25.05-.28.06-.08.38.16.3-.35.08,0,.48-.02.5.02-.03.21.03.42.03.62Z"/>
        <path class="cls-10" d="M25.32,19.21c-.34.01-.27.17-.3.63-.99.16.03-.72-.87-.65-.06-.82.14-.47.25-.55.04-.03-.02-.19.07-.23.04-.02.71-.02.85-.03.02.24-.03.64,0,.83Z"/>
        <g>
          <path class="cls-53" d="M15.15,26.48c-.01.21.03.43-.03.63-.6.02-1.2-.01-1.8,0v-.63s.02,0,.03,0c.6.01,1.2,0,1.8,0Z"/>
          <path class="cls-28" d="M13.38,26.04c-.11.07-.08.3-.03.43-.01,0-.02,0-.03,0-.25,0-.5,0-.75,0l-.02-.47c.28,0,.55.02.83.03Z"/>
          <path class="cls-28" d="M13.98,26.04c.4.02.79.06,1.18.03.15.31-.02.38-.02.4-.6,0-1.2.01-1.8,0-.05-.13-.07-.36.03-.43.2,0,.4,0,.6,0Z"/>
        </g>
        <g>
          <path class="cls-28" d="M26.16,19.34s.01.16,0,.23c-.62-.03-.51-.02-.47.57-.21.02-.42.05-.63.03.02-.26-.03-.32-.03-.33.03-.46-.04-.62.3-.63.04.24.33.31.53.3.51-.03-.08-.22.57-.32-.05-.69.17-.84-.23-.85.16,0,.31-.06.33.02.11,1.41-.27.8-.37.98Z"/>
          <path class="cls-61" d="M26.19,18.34c.4,0,.19.16.23.85-.64.1-.06.28-.57.32.05-.48-.12-1.15.13-1.17.01,0,.02,0,.03,0,.06,0,.11,0,.17,0Z"/>
          <path class="cls-24" d="M25.99,18.34c-.26.02-.08.69-.13,1.17-.2.01-.49-.06-.53-.3-.03-.19.02-.59,0-.83.23-.02.44-.04.67-.03Z"/>
        </g>
        <g>
          <path class="cls-22" d="M23.29,17.34c.01.11-.02.52,0,.55.02.02.3.03.32.02.04-.03,0-.51.02-.6.11,0,.72-.02.75,0,.05.03-.03.22.07.27.05.02.28-.03.32.02.02.03-.03.25.02.28.02.01.45.01.47,0,.03-.02.02-.37.02-.43.17.02.41-.06.4.1.01.64.27.14.37.43.03.09-.04.27,0,.37-.01,0-.02,0-.03,0-.23,0-.44.02-.67.03-.14,0-.81.02-.85.03-.09.04-.02.2-.07.23-.12.08-.31-.27-.25.55.9-.07-.12.81.87.65,0,.02.05.07.03.33-.01.19-.06.39-.03.58-.85-.07-.37.34-.5.63-.08.17-.39-.27-.3.63-.77,0,.04.43-.73.47v.53c-.09.21-.59-.32-.47.6-.06.08-.15.04-.23.05-.1,0-.49-.02-.52,0-.05.03,0,.42-.02.45-.03.04-.2,0-.25.02-.18.08.3.39-.7.3-.11.05,0,.43-.07.47-.04.03-.89-.02-1.03,0-.01.82-.08.51-1.13.57l-.07.53c-1.07.05-1.15-.25-1.13.57-.23,0-.46,0-.68,0,.24-.53-.57-.54-.4,0-.32,0-.63,0-.95,0-.11.05,0,.49-.07.53-.03.02-.55,0-.65,0,.06-.21.02-.42.03-.63,0-.02.17-.09.02-.4-.4.02-.79-.01-1.18-.03.08-.43-.27-.08-.33-.33.02-.11,0-.27,0-.4,0-.08-.01-.46,0-.48.1-.14.59.31.47-.55.17,0,.34,0,.52,0,.22-.1-.34-.68.6-.53.04-.85.32-.37.5-.5.05-.04-.04-.32.07-.37.05-.02.37.02.4,0,.12-.09-.23-.71.37-.57-.01-.25.69-.09,1.17-.13.05-.04-.01-.94.02-.98.04-.05.32.04.37-.07.15-.35-.41-.56.75-.48.18-.58-.23-.62.55-.62-.15-.87.49-.38.6-.53v-1.57c-.55-.17-.6.21-.57-.55.07,0,.15.03.2-.05-.18-.74.63-.29.82-.42.06-.04-.04-.39.07-.43,1.31-.09.71.21.85.42.04.05.48-.01.55.02.11.05.01.36.07.4.05.04,1.11.03,1.28.03Z"/>
          <g>
            <path class="cls-61" d="M22.59,19.34c-.34.03-.78-.02-1.13,0,0,0-.06.01-.07-.02-.04-.43.03-.96,0-1.4l1.42-.05q0,.73.02,1.45s-.18.01-.23.02Z"/>
            <path class="cls-61" d="M17.4,23.78h1.2l.02.95-1.22.02v-.97Z"/>
            <path class="cls-64" d="M22.59,19.34l.02.47h-1.17s.03-.31.02-.47c.35-.02.79.03,1.13,0Z"/>
            <path class="cls-84" d="M20.4,22.74h.73l.02.62-.75.02v-.63Z"/>
            <g>
              <path class="cls-61" d="M22.89,20.61v.92l-1.08.02-.02.85-.58.02c-.17-1.3.34-.73.45-.88.03-.04-.02-.78,0-.92.41,0,.83.01,1.23,0Z"/>
              <g>
                <path class="cls-37" d="M23.65,19.91v.63s-.02.06-.05.07c-.21.02-.49,0-.72,0-.41.01-.83,0-1.23,0-.32,0-.63,0-.95,0v-.73c.99-.01,1.97,0,2.95.03Z"/>
                <path class="cls-50" d="M23.65,20.54v-.63s.31-.08.5-.02v.63s-.42,0-.5.02Z"/>
              </g>
            </g>
            <path class="cls-24" d="M16.8,25.34s.36.04.42.02c-.04.58.2.82-.5.63.1-.17-.04-.55.08-.65Z"/>
          </g>
        </g>
        <path class="cls-24" d="M23.62,17.31c-.01.09.03.57-.02.6-.01,0-.3,0-.32-.02-.02-.03.01-.44,0-.55.1,0,.22-.04.33-.03Z"/>
        <path class="cls-6" d="M21.52,14.07s0,.04,0,.07c0,.15-.09.67-.03.78.05.1.38.02.42.05.04.03.01.27.02.33-.15.24-.47.09-.73.13.09-.67-.28-.28-.37-.45-.02-.04.03-.45.03-.55,0-.11.03-.24.03-.33l.63-.03Z"/>
        <path class="cls-37" d="M22.45,8.8s.09,0,.13,0c.11,0,.38.04.4.03v.62l-.53.07c.11,1.04-.44.11-.38.95-.66-.14-.27.46-.38.62-.06.09-.19-.19-.23.35-.45.02-.54-.11-.5.27-.02,0-.04,0-.07,0,0-.17-.02-.84,0-.88.04-.1.31-.02.35-.05.05-.03-.01-.27.03-.3.03-.02.28.03.32-.02.02-.03-.02-.5,0-.53.09-.12.33.26.38-.42.36-.11.56.32.42-.7.02,0,.04,0,.07,0Z"/>
        <path class="cls-82" d="M21.45,11.44s.03.11.03.23c-.15.06-.36.03-.53.03-.04-.38.05-.25.5-.27Z"/>
        <g>
          <path class="cls-81" d="M22.79,4.94h.65c.08.06.04.16.05.27.02.26-.04.38-.03.4l-.87.03c-.02-.22.04-.46-.03-.67.14,0,.15-.03.17-.03,0,0-.03.02.07,0Z"/>
          <path class="cls-63" d="M23.45,5.6s.02.03.03.03v.23s-.03.03-.03.03c-.2-.02-.65.03-.77,0-.02,0-.06.01-.1-.05,0-.07,0-.15,0-.22l.87-.03Z"/>
        </g>
        <g>
          <path class="cls-79" d="M24.59,5.9c.01.12-.02.29,0,.4-.49-.04-.26,0-.3.63-.12,0-.44.02-.48,0-.09-.04-.02-.2-.07-.23-.02-.01-.27,0-.35,0-.13-.02-.26-.06-.4-.03l-.03-.72c.17-.03.33,0,.5-.05,0,0-.01-.02.03-.03.08-.03.13-.05.22-.03.08-.05.03-.13.05-.17.04-.09.07-.13.07-.13.77-.06.01.28.77.37Z"/>
          <path class="cls-3" d="M23.82,5.54s-.03.04-.07.13c-.05-.02-.25-.03-.27-.03-.01,0-.02,0-.03-.03,0-.02.05-.14.03-.4.35-.01.37-.05.33.33Z"/>
          <path class="cls-36" d="M23.45,5.9c-.17.04-.33.02-.5.05l.03.72h-.3c0-.25-.1-.52,0-.77.12.03.56-.02.77,0Z"/>
          <path class="cls-7" d="M23.75,5.67s.03.12-.05.17c-.09-.01-.14,0-.22.03v-.23s.21.01.27.03Z"/>
        </g>
        <path class="cls-84" d="M22.25,7.37c.12,0,.25,0,.37,0,0,.23.07.47.03.7-.01,0-.02,0-.03,0h-.67c.02-.21-.01-.44,0-.65,0-.02.25-.05.3-.05Z"/>
        <path class="cls-32" d="M22.62,8.07c.02.27-.03.32-.03.33l-.4.03s-.06-.13-.03-.37h.47Z"/>
        <path class="cls-54" d="M22.59,8.8s-.09,0-.13,0c-.45-.05-.25-.07-.27-.37l.4-.03s.09.21,0,.4Z"/>
        <path class="cls-10" d="M19.72,3.4c0,.2.01.4,0,.6-.01.18.04.37-.05.43-.31,0-.61-.01-.92,0-.01-.08.03-.47-.02-.5-.03-.02-.52,0-.62,0-.02-.05.03-.06.03-.1.01-.09-.04-.39.05-.43.15,0,.3,0,.45,0,.17,0,.33,0,.5,0,.03,0,.03-.03.07-.03.15,0,.34.03.5.03Z"/>
        <path class="cls-24" d="M15.89,4.27c.26-.03.57.02.83,0,.03.35.19.2.43.2.11,0,.22,0,.33,0,.01.3-.01.61,0,.92-.03.04-.45,0-.53.02-.09-.11,0-.49-.05-.53-.05-.03-1.02,0-1.18,0-.02,0-.04,0-.07,0v-.55c.06-.08.15-.04.23-.05Z"/>
        <g>
          <path class="cls-66" d="M14.72.53c-.05.49.12.29.17.35.07.11-.21.16.37.22.11.01.22,0,.33,0-.07.17.03.88-.03.95-.06.06-.39-.04-.43.07-.04.1.04.55.03.58,0,.02-.08.2-.12.37h-.83c-.18-.57.23-.56-.48-.65-.03-1.6.03-1.02.32-1.15.12-.05.01-.29.02-.3,0-.02.11.07.07-.43.2,0,.4,0,.6,0Z"/>
          <path class="cls-43" d="M16.55,1.13c.19,0,.38,0,.57,0,.01.16.07.47.07.5,0,0-.07.03-.07.05,0,.16-.03,1.21.05,1.25.03.01.4,0,.42-.02.04-.05-.03-1.11,0-1.28h.23c.25,0,.51-.01.77,0v.58c.04.06.08.04.1.05-.1.25,0,.52,0,.77,0,.02-.06.13-.03.37-.15,0-.3,0-.45,0-.09.04-.04.35-.05.43l-.05-.53c-1.08-.07-.66.15-.75.28-.05.06-.22-.14-.17.35-.03,0-.04.03-.07.03-.29.01-.44-.16-.4.3-.26.02-.58-.03-.83,0,.02-.19-.1-.04-.27-.07.02-.29-.08-1.06-.03-1.45l-.43-.05s-.08-.49-.03-.58c.05-.11.38,0,.43-.07.06-.07-.03-.79.03-.95.31.02.66.03.97.03Z"/>
          <path class="cls-66" d="M17.59,1.63c-.03.17.04,1.23,0,1.28-.01.02-.39.03-.42.02-.08-.04-.05-1.09-.05-1.25,0-.02.07-.05.07-.05h.4Z"/>
          <path class="cls-70" d="M18.15,3.83s-.05.05-.03.1c-.1,0-.11.03-.13.03-.2,0-.37,0-.57,0-.2,0-.22-.03-.23-.03-.05-.49.12-.29.17-.35.09-.13-.33-.35.75-.28l.05.53Z"/>
        </g>
        <path class="cls-79" d="M19.15,2.27c0,.23-.04.47-.03.7,0,.14-.31.12-.43.07,0-.25-.1-.52,0-.77.04.01.37,0,.47,0Z"/>
        <path class="cls-79" d="M15.89,4.27c-.08,0-.18-.03-.23.05v.55c-.18,0-.37,0-.55,0-.06-.22.02-.35.02-.37.34,0,.47.1.5-.3.17.02.29-.12.27.07Z"/>
        <path class="cls-75" d="M17.12,3.97l.03.5c-.24,0-.4.15-.43-.2-.04-.46.11-.29.4-.3Z"/>
        <path class="cls-2" d="M19.15,3.4c-.17,0-.34,0-.5,0-.03-.24.03-.35.03-.37.12.05.43.07.43-.07,0,.14.07.29.03.43Z"/>
        <path class="cls-6" d="M17.42,3.97c.03.16.06.34.07.5-.11,0-.22,0-.33,0l-.03-.5s.03-.03.07-.03c.01,0,.04.04.23.03Z"/>
        <path class="cls-40" d="M19.22,2.27c.02.18-.02.41,0,.6v.5s-.03.03-.07.03c.03-.14-.03-.3-.03-.43,0-.24.04-.47.03-.7,0,0-.01-.06.07,0Z"/>
        <path class="cls-37" d="M20.89,11.7c-.03.81,0,1.59,0,2.4,0,.1-.03.22-.03.33-.26-.13-.93-.05-1.37-.07l-.03-.03c-.07-1.37,0-2.74-.03-4.1l.87-.02v1.43c.04.08.43.05.6.05Z"/>
        <path class="cls-61" d="M11.12,14.17c0,.08.01.51-.02.53h-.62s.02-.24-.02-.27h-.62s-.04,0-.03-.33c0-.13,0-.27,0-.4,0-.2,0-.4,0-.6,0-.06,0-.11,0-.17,1.22-.09.62.21.77.55.48.16.53-.22.53.68Z"/>
        <path class="cls-22" d="M15.02,4.94c.04.31.14.21.7.23,0,.08.04.25.07.33-.15,0-.3,0-.45,0-.21.48.38.13.45.33-.18-.02-.45.03-.6,0-.4-.07-.16-.3-.25-.37-.02-.01-.38,0-.4,0-.1.04-.02.23-.07.27-.01,0-.27,0-.28-.02-.03-.05,0-.97,0-1.12h.78c.09.04.03.22.05.33Z"/>
        <path class="cls-57" d="M11.05,10.87c0,.18,0,.42,0,.6-.61.03-1.23-.04-1.83,0l.05-.6h1.78Z"/>
        <g>
          <path class="cls-84" d="M19.42,10.24c.04,1.37-.04,2.74.03,4.1-.22.06-.47.03-.7.03-.02-.03-.1-.08-.1-.12-.02-.14,0-2.36,0-2.77,0,0,.07-.16.07-.17.02-.75-.04-1.5.03-2.25.2-.03.43.02.63-.02-.03.4.02.79.03,1.18Z"/>
          <g>
            <path class="cls-61" d="M18.75,9.07c-.07.75-.02,1.5-.03,2.25,0,0-.07.16-.07.17,0,.41-.02,2.63,0,2.77,0,.04.08.08.1.12-.23,0-.47,0-.7,0,0-1.01,0-2.01,0-3.02l.63-.07v-2.23c.06-.05.06.02.07.02Z"/>
            <path class="cls-60" d="M19.49,14.37l-.02.77c-.48,0-.97,0-1.45,0,.06-.24.03-.52.03-.77.23,0,.47,0,.7,0,.23,0,.48.03.7-.03l.03.03Z"/>
          </g>
        </g>
        <g>
          <path class="cls-28" d="M11.52,10.44c0,.05.12.44.07.98l.95.02c.13.06-.03.84.1.9.04.02.32.01.35-.05.04-.08-.04-1.41.02-1.45l1.45.02c.03.2-.04,1.44,0,1.5.1.14.47-.32.4.53-.64.07-.42.02-.48-.52-.92-.09-.52.22-.63.3-.13.09-.28.04-.28-.23-.02.22.24.22.25.2.1-.12-.26-.44.72-.32v-.87l-.88-.05c.01.3-.08.77-.08,1-.59-.15-.38.13-.48.17-.03,0-.54-.02-.57-.03-.14-.1.33-.55-.6-.43,0-.23-.37-.1-.73-.13-.03-.02-.02-.42-.02-.5,0-.18,0-.42,0-.6.01-.49-.1-.44.47-.43Z"/>
          <path class="cls-84" d="M13.45,12.44s0-.02,0-.03c0-.23.1-.7.08-1l.88.05v.87c-.98-.12-.62.2-.72.32-.01.02-.27.02-.25-.2Z"/>
        </g>
        <path class="cls-84" d="M19.72,4c.01-.2,0-.4,0-.6.42,0,.84,0,1.27-.02l-.05.62h-1.22Z"/>
        <path class="cls-56" d="M16.95,5.4s-.05.09-.08.1c-.36.01-.72-.02-1.08,0-.02-.08-.06-.26-.07-.33,0-.01.05-.12,0-.23v-.07c.16,0,1.14-.03,1.18,0,.06.04-.04.42.05.53Z"/>
        <path class="cls-28" d="M21.39,5.9s-.07.29-.03.4c-.27,0-.54,0-.82,0l-.02-.68.82-.02c0,.18.05.28.05.3Z"/>
        <path class="cls-28" d="M18.12,3.93c.09,0,.59-.02.62,0,.04.03,0,.42.02.5-.82.03-.73-.03-.77-.03v-.43s.03-.04.13-.03Z"/>
        <path class="cls-45" d="M17.99,3.97v.43s.16.06-.5.07c0-.16-.04-.34-.07-.5.2,0,.37,0,.57,0Z"/>
        <g>
          <path class="cls-22" d="M20.49,2.73c-.06.46.21.25.28.3.13.09-.29.26.55.27.08,0,.16,0,.23,0,.04.78.42.33.5.52.01.15-.02.33,0,.48l-.67.05v1.2c.07.1.98-.18.77.3-.05.1-.65.03-.77.05,0-.02-.04-.12-.05-.3l-.82.02.02.68c.27,0,.55,0,.82,0,.15,0,.86-.04.9.05v1.02c-.05,0-.29.03-.3.05-.01.21.02.44,0,.65,0,.03-.11.2-.07.68.07.09.29.04.5.05.14,1.02-.06.59-.42.7-.05.68-.3.29-.38.42-.02.03.02.5,0,.53-.03.05-.29,0-.32.02-.05.03.01.27-.03.3-.04.03-.31-.05-.35.05-.02.04,0,.72,0,.88-.17,0-.56.03-.6-.05v-1.43l-.87.02c-.01-.39-.06-.79-.03-1.18-.21.04-.43-.01-.63.02,0,0,0-.07-.07-.02v2.23l-.63.07c0,1.01,0,2.01,0,3.02,0,.25.03.52-.03.77-.13,0-.88-.03-.92,0-.04.03,0,.45-.02.53-.02,0-.41.1-.47-.02-.02-.06.02-.4,0-.43-.04-.06-.39.04-.43-.07-.12-.28.37-.53-.65-.45l-.03-.57h-.8l-.03-.53h-3.07c-.15.11.31.71-.48.57,0-.91-.05-.52-.53-.68-.15-.34.45-.64-.77-.55,0-.17.02-.37,0-.53.53.1.43-.23.38-.27-.04-.03-.82,0-.95,0-.16,0-.31,0-.47,0v-.62c.06-.09.25-.04.43-.05.61-.04,1.23.03,1.83,0,0,.08-.02.48.02.5.36.03.73-.09.73.13.93-.11.46.34.6.43.02.02.54.04.57.03.1-.03-.11-.32.48-.17,0,.01,0,.02,0,.03,0,.27.16.32.28.23.11-.08-.29-.39.63-.3.07.54-.16.59.48.52.07-.85-.3-.39-.4-.53-.04-.06.03-1.3,0-1.5l-1.45-.02c-.06.04.02,1.37-.02,1.45-.03.06-.31.07-.35.05-.13-.06.03-.84-.1-.9l-.95-.02c.06-.55-.07-.93-.07-.98-.02-.76.18-.35.45-.47.1-.04.01-.3.07-.33.18-.13.52.36.47-.57l.58-.02v-.77c.05-.11.46-.01.52-.05.06-.04-.04-.42.07-.47h2.13c.2-.76-.29-.87.58-.85v-.67c-.04-.09-.35-.04-.53-.05-.11.03-.05-.15-.07-.37-.07-.2-.66.15-.45-.33.15,0,.3,0,.45,0,.36-.02.72.01,1.08,0,.03,0,.08-.1.08-.1.09-.01.5.03.53-.02-.01-.3.01-.61,0-.92.66,0,.47-.07.5-.07.04,0-.06.06.77.03.3-.01.61,0,.92,0,.09-.06.04-.25.05-.43h1.22l.05-.62c-.42.02-.84.02-1.27.02-.16,0-.35-.04-.5-.03v-.5c.13-.02.5.02.55,0,.09-.04-.03-.17.22-.2.03,0,.43.07.5.07Z"/>
          <path class="cls-37" d="M19.6,5.37l.08.05v1.87l-1.18.02-.02-1.88,1.12-.05Z"/>
          <path class="cls-84" d="M20.8,7.7l.68.05-.05,1.55-.65-.02q0-.79.02-1.58Z"/>
          <path class="cls-28" d="M16.74,7l.58.02-.02.68-.58-.02.02-.68Z"/>
          <path class="cls-84" d="M14.43,8.24s.64-.02.67,0c.02.02.03.37.02.38-.02.03-.66.04-.68.02-.03-.02-.03-.38,0-.4Z"/>
        </g>
        <path class="cls-6" d="M15.79,5.84c.01.21-.04.4.07.37,0,0,.02.04-.07.03-.11,0-.2,0-.3,0-.02,0-.05-.03-.3-.03v-.37c.15.03.42-.02.6,0Z"/>
        <path class="cls-6" d="M22.15,8.07c-.03.24.03.35.03.37.01.3-.19.32.27.37-.02,0-.04,0-.07,0-.21-.01-.43.04-.5-.05-.05-.49.06-.65.07-.68h.2Z"/>
        <path class="cls-44" d="M9.38,15.14c-.15,0-.3-.03-.43-.03-.03-.23.04-.6.03-.63.58-.07.27.17.4.67Z"/>
        <path class="cls-37" d="M15.45,6.87s.03.06.3.03c0,0,.07-.01.07.02,0,.25-.06.53-.05.78h-2.13c-.11.05,0,.46-.07.5-.05.04-.47-.06-.52.05.04,1.16,0,.55-.63.83.07.82-.14.39-.42.52-.18.08.25.3-.52.35.02.52,0,.43-.43.45.03-.17-.03-.37-.03-.53,0-.1-.01-.29,0-.33h.45c.09-.31.36.12.28-.5.59,0,.26-.12.42-.23.04-.03.12.07.15-.02.02-.06-.02-.4,0-.55.21-.04.4-.04.62-.03l.02-.65c.06-.09.23-.04.4-.05.34-.02.71-.01,1.05.03.13-.5.32.16.35-.67.23,0,.47-.02.7,0Z"/>
        <path class="cls-52" d="M15.18,6.2c.25,0,.29.03.3.03l-.03.63c-.23-.02-.47,0-.7,0-.25,0-.45-.04-.7,0l-.03-.63c.39,0,.77-.04,1.17-.03Z"/>
        <path class="cls-31" d="M14.75,6.87c-.03.83-.22.17-.35.67-.34-.04-.71-.05-1.05-.03-.11-.42.33-.15.45-.23.05-.03,0-.29.02-.35.04-.08.16-.04.23-.05.25-.04.45,0,.7,0Z"/>
        <path class="cls-34" d="M15.18,5.87v.33c-.39,0-.78.03-1.17.03,0,0-.1-.07-.13-.07v-.3c.43.01.87,0,1.3,0Z"/>
        <path class="cls-31" d="M11.05,10.4c-.71.04-.82-.07-.87-.07v-.37c.23,0,.89-.03.83-.1,0,.17.07.36.03.53Z"/>
        <path class="cls-25" d="M12.32,8.24c-.02.15.02.49,0,.55-.03.09-.11-.01-.15.02-.16.12.17.23-.42.23-.09,0-.18,0-.27,0,.05-.4.22-.11.35-.2.04-.03,0-.18.02-.22.05-.1.22,0,.27-.1.1-.24-.19-.21.2-.28Z"/>
        <path class="cls-31" d="M11.75,9.04c.07.62-.2.19-.28.5h-.45c.06-.22.4-.01.47-.15.02-.04-.01-.25,0-.35.09,0,.18,0,.27,0Z"/>
        <path class="cls-25" d="M15.79,6.24c.04.22-.03.45-.03.67-.27.02-.29-.03-.3-.03l.03-.63c.1,0,.19,0,.3,0Z"/>
        <path class="cls-42" d="M8.88,10.6c.05.01.16-.01.23,0,0,.06.02.24-.02.27-.04.03-.26,0-.32,0,0-.18-.05-.3.1-.27Z"/>
        <path class="cls-23" d="M12.08,2.67s.06.07.07.07c-.17.21.24.11.67.13l.03.03c.02.34-.02.67-.03,1l-.77-.03c0-.07.01-.5,0-.52-.03-.04-.33,0-.4-.02,0-.44-.24-.77.43-.67Z"/>
        <path class="cls-73" d="M13.15,5.87s.05-.07-.62-.1c-.03,0,0-.06-.05-.07.01-.23-.02-.47,0-.7,0-.02.03-.03.03-.1,1.11.06,1.29-.27,1.2.55-.38.08-.74-.17-.57.42Z"/>
        <path class="cls-29" d="M10.52,3.97c0,.15-.02.29-.03.43-.04,0-.11-.02-.13.02,0,.1,0,.21,0,.32h-.47c-.01-.17,0-.39,0-.57,0-.79-.16-.91.6-.82-.03.2.03.42.03.62Z"/>
        <path class="cls-36" d="M12.82,3.9c0,.14.04.33.03.37-.07.48-.27.03-.33.37h-.53c-.01-.2,0-.44,0-.63,0,0,.06-.03.07-.13l.77.03Z"/>
        <g>
          <path class="cls-37" d="M11.72,2.07s-.04.04-.03.07c-.19-.14-.14.15-.12.5.21-.09.53.06.48-.13.07.04.02.15.03.17-.67-.1-.44.23-.43.67,0,.4-.24.66.33.67,0,.2-.01.44,0,.63,0,.06-.02.34.02.37.02.02.38-.01.48,0-.02.23.01.47,0,.7-.03,0,.16.07-.5.07l-.05-.73-2.57.03-.02.7s-.04,0-.07,0c-.27,0-.54,0-.82,0-.03-.02-.01-.33-.02-.4.51.05.22-.28.43-.3.58-.03.31-.15.33-.47.01-.14.05-.29.05-.43h.62c0,.18-.01.4,0,.57,0,.1-.03.21.05.27.64.03.4-.07.42-.27,0-.1,0-.21,0-.32.02-.03.1,0,.13-.02.09-.02.63-.11.65-.13.07-.09-.02-.32-.02-.33,0-.05.06-.02.07-.05.01-.14,0-.4,0-.55,0-.06.02-.31-.02-.33-.04-.03-.29.04-.42-.03,0-.09,0-.18,0-.27.27.02.29-.03.3-.03.2,0,.32.08.47-.02l.03-.58c.05,0,.11,0,.17,0Z"/>
          <path class="cls-81" d="M11.23,3.93s.34,0,.35.02c.03.04.03,1.03-.02,1.05-.03.01-.37,0-.38-.02-.03-.04,0-1.03.05-1.05Z"/>
        </g>
        <path class="cls-39" d="M12.05,3.87c0,.11-.07.13-.07.13-.58,0-.33-.27-.33-.67.07.01.37-.02.4.02.01.02,0,.45,0,.52Z"/>
        <path class="cls-31" d="M11.12,3.93s.09.25.02.33c-.02.03-.56.11-.65.13.01-.15.04-.28.03-.43l.6-.03Z"/>
        <path class="cls-19" d="M12.52,4.64c-.01.07,0,.18,0,.27,0,.07-.03.08-.03.1-.1-.01-.46.02-.48,0-.03-.02-.01-.3-.02-.37h.53Z"/>
        <path class="cls-39" d="M9.22,4.6c-.03.32.25.44-.33.47,0,0,.02-.03-.07-.03,0-.14,0-.26,0-.4l.4-.03Z"/>
        <path class="cls-77" d="M11.18,3.33c-.8.09-.44-.29-.43-.37.13.08.38,0,.42.03.03.02.01.27.02.33Z"/>
        <path class="cls-6" d="M10.35,4.74c-.01.2.22.3-.42.27-.08-.06-.04-.16-.05-.27h.47Z"/>
        <path class="cls-4" d="M11.68,2.13c.07.62.15.25.37.37.04.19-.27.04-.48.13-.03-.35-.07-.64.12-.5Z"/>
        <path class="cls-36" d="M10.52,5.77c.04.27-.03.34-.07.55l-.43.02-.03-.53c.17,0,.36-.03.53-.03Z"/>
        <path class="cls-1" d="M15.12,4.5s-.08.15-.02.37c.18,0,.37,0,.55,0,.02,0,.04,0,.07,0v.07h-.7c-.02-.11.04-.29-.05-.33h-.78c0-.5,0-1,.02-1.5l.88.02c-.02.46,0,.92.03,1.38Z"/>
        <path class="cls-64" d="M13.62,4.27c-.01-.07.02-.37-.02-.4-.03-.02-.57-.13-.42.37-.02,0-.06.06-.33.03,0-.03-.04-.22-.03-.37.02-.33.06-.66.03-1,.36.04.25-.03.27-.03.09,0,.54.03.57.08v1.27l-.07.05Z"/>
        <path class="cls-28" d="M13.62,4.27c-.15.02-.29-.03-.43-.03-.15-.5.39-.39.42-.37.04.03,0,.33.02.4Z"/>
        <g>
          <path class="cls-65" d="M26.66,15.31c0,.36,0,.72,0,1.08,0,.03.07.01.07.02,0,.31-.06.65-.07.97-.24-.04-.5.03-.73.03-.01,0-.08-.05-.23-.03,0-.33,0-.67,0-1l.93-.02-.03-1.05h.07Z"/>
          <path class="cls-31" d="M26.66,17.37c0,.17.07.37.03.55l-.6.05c-.18-.24-.19-.24-.17-.57.24,0,.49-.07.73-.03Z"/>
          <path class="cls-23" d="M26.72,10.64c0,.2,0,.4,0,.6,0,.05-.05.02-.07.05,0,1.34,0,2.68,0,4.02h-.07c-.88-.1-.03.35-.87.27,0-.41,0-.81,0-1.22-.02-.03-.27-.01-.33-.02.08-.41-.1-3.25,0-3.38.03-.05.45,0,.48-.02.03-.02.02-.22.02-.27l.83-.03Z"/>
          <path class="cls-36" d="M23.15,8.8c.5-.02,1,.02,1.5.03.12-.03.05.27.07.57-.17,0-.39.06-.57.07-.48.01-.7-.26-.6.48-1.14-.09-.06.59-.97.53.14,1.03-.4.44-.5.67v.53c-.28.06-.59-.05-.57.08-.05,0-.03-.05-.03-.1,0-.13-.03-.22-.03-.23.04-.54.17-.26.23-.35.11-.16-.27-.75.38-.62-.05-.84.5.09.38-.95l.53-.07v-.62s.13-.03.17-.03Z"/>
          <path class="cls-79" d="M25.72,9.47v.93c-.13-.02-.34,0-.5,0,.02-.32.01-.31-.3-.3,0-.22,0-.44.03-.67.25,0,.52.01.77.03Z"/>
          <path class="cls-62" d="M26.69,10.4c-.67.11.07-.51-.97-.3v-.63c.12,0,.23,0,.35,0,.02.56.24.24.32.35.02.03-.03.22.02.25.03.02.27-.02.3,0,.07.05-.02.32-.02.33Z"/>
          <path class="cls-36" d="M26.69,10.4c0,.07.03.15.03.23l-.83.03c0-.06,0-.24,0-.25-.02-.03-.12-.01-.17-.02v-.3c1.03-.21.3.41.97.3Z"/>
          <path class="cls-74" d="M26.59,15.31l.03,1.05-.93.02c0-.14.03-.16.03-.17,0-.12,0-.24,0-.37,0-.17-.03-.19-.03-.2,0,0,.03.02.03-.07.84.08-.02-.36.87-.27Z"/>
          <path class="cls-39" d="M23.32,15.27c.12,0,.68.08.75.03.13-.09-.27-.29.42-.33,0,0,.11.03.17.03.08.51-.24.27-.3.35-.02.03.04.24-.05.28-.12.05-1.94-.06-2.3.03l-.08-.05c0-.1.01-.21,0-.32,0-.06.02-.31-.02-.33-.04-.03-.37.05-.42-.05-.05-.12.03-.63.03-.78.66-.11.3.32.42.4.05.04.47-.06.52.05l.02.72c.07.05.72-.03.85-.03Z"/>
          <path class="cls-39" d="M21.52,11.77c0,.32,0,.64,0,.97,0,.44,0,.89,0,1.33l-.63.03c0-.81-.03-1.59,0-2.4.02,0,.04,0,.07,0,.17,0,.38.03.53-.03,0,.05-.01.1.03.1Z"/>
          <path class="cls-62" d="M25.39,14.34c.06,0,.31-.02.33.02,0,.41,0,.81,0,1.22,0,.09-.03.06-.03.07h-.5c0-.2-.06-.41-.03-.62-.02-.03-.42-.01-.5-.02-.06,0-.16-.03-.17-.03.02-.55.26-.14.2-.63.23,0,.47-.01.7,0Z"/>
          <path class="cls-36" d="M24.69,14.34c.06.49-.18.08-.2.63-.69.04-.29.24-.42.33-.07.05-.63-.04-.75-.03-.05-.83.1-.6.13-.65.02-.04-.03-.25.02-.28.05-.04,1.06,0,1.22,0Z"/>
          <g>
            <path class="cls-26" d="M24.96,9.44c-.03.22-.03.44-.03.67,0,.01-.06.02-.03.28.02.03.27.01.33.02.16,0,.37-.02.5,0,.04,0,.14-.02.17.02,0,.01,0,.19,0,.25,0,.05.01.24-.02.27-.03.02-.45-.03-.48.02-.1.14.08,2.97,0,3.38-.23-.01-.47,0-.7,0-.16,0-1.17-.04-1.22,0-.05.03,0,.25-.02.28-.03.05-.19-.18-.13.65-.13,0-.78.08-.85.03l-.02-.72c-.05-.11-.46-.01-.52-.05-.12-.08.25-.51-.42-.4,0-.02,0-.04,0-.07,0-.44,0-.89,0-1.33.72.44.32-.46.43-.62.03-.05.23.01.27-.03.08-.11-.2-.45.43-.4-.12-1.13.5.06.42-1.18h.6c-.07-1.05.62.06.48-1.03.17,0,.39-.07.57-.07.01,0-.05.02.23.03Z"/>
            <path class="cls-68" d="M24.16,9.47c.13,1.1-.56-.02-.48,1.03h-.6c.08,1.25-.53.05-.42,1.18-.63-.05-.35.29-.43.4-.03.05-.23-.01-.27.03-.11.16.29,1.06-.43.62,0-.32,0-.64,0-.97-.02-.13.29-.02.57-.08v-.53c.1-.23.64.36.5-.67.91.06-.17-.62.97-.53-.1-.75.12-.47.6-.48Z"/>
            <path class="cls-47" d="M25.22,10.4c-.06,0-.31.02-.33-.02-.02-.26.03-.27.03-.28.31-.01.32-.02.3.3Z"/>
          </g>
          <path class="cls-31" d="M25.72,15.84c0,.12,0,.24,0,.37-.81.13-.52-.04-.53-.37h.53Z"/>
          <path class="cls-11" d="M25.69,15.64s.03.03.03.2h-.53c0-.08,0-.14,0-.2h.5Z"/>
        </g>
        <path class="cls-1" d="M15.72,4.94c.05.11,0,.22,0,.23-.56-.02-.66.08-.7-.23h.7Z"/>
        <g>
          <path class="cls-37" d="M17.09,15.67c.48.04.24.24.32.6.72.05.79-.25.82.53-.1,0-.11.07-.12.07,0,0,.03-.03-.15-.03-.15,0-.3,0-.45,0-.08-.06-.04-.15-.05-.23,0-.01.07-.14-.02-.3-.12-.04-.23-.02-.35-.03-.18-.01-.36.01-.53,0,.1-.92-.33-.44-.43-.58-.13-.19.37-.53-.6-.45.1-.79-.25-.5-.8-.5-.09,0-.06-.03-.07-.03.05-.69.03-.53-1.1-.53-.47,0-.93.02-1.4.03-.02,0-.28-.06-.48-.03-.26.37.21.51-.45.58.11.83-.34.4-.43.53-.02.03,0,.54,0,.63,0,.03-.07.01-.07.02-.47-.12-.18.43-.27.55-.09.14-.31-.35-.2.82,0,.07-.03.33.02.37.16.11.55-.35.45.6-.13,0-.54.02-.58,0-.09-.04,0-.23-.18-.2,0-.02,0-.04,0-.07-.04-.7.03-1.47,0-2.18.05-.11.46,0,.5-.07.03-.04.04-.93.03-1.05h.62s.02-.46.02-.53c.8.15.33-.46.48-.57h3.07l.03.53h.8l.03.57c1.02-.08.53.17.65.45.05.11.39,0,.43.07.02.03-.02.38,0,.43.05.12.44.01.47.02Z"/>
          <path class="cls-37" d="M10.72,18.27c.16.01.33.05.5.05-.11,1.06.31.56.48.68.02.01.05.31.05.37,0,.04-.07.23-.03.28.03.05.26,0,.32.02.1.04.03.28.05.32.06.08.28-.1.33.12-.09.25,0,1.38-.03,1.45-.06.09-.34-.13-.33.38,0-.32,0-.65,0-.97,0-.22,0-.43,0-.65-.02-.04-.35-.08-.4-.08.13-.9-.37-.37-.47-.58-.15-.34.44-.76-.57-.65-.01-.23-.06-.45-.03-.68l-.62-.02s-.01-.18-.02-.23c.19-.03.09.16.18.2.04.02.46,0,.58,0Z"/>
          <path class="cls-31" d="M12.42,23.14c0,.16,0,.31,0,.47,0,.47-.06.95-.03,1.43-.48.16-.21-.17-.33-.33,0,0,0-.04-.03-.03v-1.47s-.01-.03.03-.03c.11-.02.27,0,.33-.1,0,.09.03.06.03.07Z"/>
          <path class="cls-82" d="M12.38,23.08c-.07.09-.22.08-.33.1-.05-.41,0-.82,0-1.23,0-.52.28-.29.33-.38.04-.07-.06-1.2.03-1.45.04.14-.03,2.49-.03,2.97Z"/>
          <path class="cls-6" d="M12.38,25.04c.02.38.07.28.07.3.02.2-.01.4,0,.6-.14,0-.26,0-.4,0,0-.19,0-.38,0-.57,0-.22,0-.44,0-.67.12.16-.15.49.33.33Z"/>
          <path class="cls-37" d="M18.22,16.81c.17,0,.34,0,.52,0,.04.47-.18.61.72.57-.04.76.02.38.57.55v1.57c-.11.15-.75-.33-.6.53-.78,0-.37.04-.55.62-1.16-.08-.6.13-.75.48-.05.1-.33.01-.37.07-.03.04.04.95-.02.98-.48.04-1.18-.11-1.17.13-.59-.14-.25.48-.37.57-.03.02-.35-.02-.4,0-.1.05-.01.33-.07.37-.18.13-.46-.35-.5.5-.94-.14-.38.43-.6.53-.17,0-.34,0-.52,0,.37-.36-.22-.56.57-.62-.11-.79.43-.38.58-.48.05-.03-.01-.27.03-.3.14-.1.43.32.35-.63.09,0,.18,0,.27,0,.6-.02.67.18.7-.53.06,0,.38-.04.4-.05.04-.03.08-.43.07-.52.48,0,.53.09.43-.48l.37-.07.02-.58c.16,0,.32,0,.48,0,.12,0,.28.07.42.03l.08-.08c0-.15,0-.3,0-.45.17-.02.46.05.5-.05.04-.2-.03-.42-.03-.62,0-.31,0-.61,0-.92-.04-.08-.49-.05-.63-.05-.02-.13.02-.43,0-.48-.03-.08-.17-.04-.23-.05-.55-.06-.56.22-.53-.5.18,0,.14.03.15.03,0,0,.01-.07.12-.07Z"/>
          <path class="cls-31" d="M13.48,25.31h.17c0,.13.02.29,0,.4,0,0-.09.05,0,.18l-.08.08c-.37.04-.75-.03-1.12-.03-.01-.2.02-.4,0-.6.22.03.45-.02.67-.03.12,0,.24,0,.37,0Z"/>
          <path class="cls-37" d="M14.12,24.28c.12.86-.37.41-.47.55-.01.02,0,.4,0,.48h-.17c-.01-.45.11-.54-.33-.5,0-.1-.02-.53,0-.55.18,0,.38-.05.4-.05.16,0,.39.07.57.07Z"/>
          <path class="cls-49" d="M16.55,16.27c.18.01.36-.01.53,0-.04.42.08.24.37.33,0,.08-.03.18.05.23.15,0,.3,0,.45,0-.03.72-.01.44.53.5v.55c.2.06.22-.02.23-.02.14,0,.6-.03.63.05,0,.31,0,.61,0,.92-.08.08-.43,0-.47.05-.02.03,0,.52,0,.62-.11.01-.4.02-.42.03-.07.05.06.48-.08.47-.16,0-.32,0-.48,0l-.02.58-.37.07c.1.57.05.48-.43.48-.08,0-.45-.09-.5-.02l-.03.58c-.1,0-.5-.02-.52,0-.08.05.08.55-.12.53-.09,0-.18,0-.27,0-.25,0-.5,0-.75,0-.09,1.11-.06.59-.4.73-.16.07.2.42-.5.33.11.81-.59-.14-.45.9-.02,0-.22.05-.4.05-.02.02,0,.45,0,.55,0,.03-.15-.03-.03.5-.22,0-.44.06-.67.03,0-.02-.05.08-.07-.3-.02-.48.04-.96.03-1.43.9.11.45-.32.58-.43.76,0,.57-.17.58-.8l.67-.02.05-1.25,1.18-.05c-.07-1.68.12-.94.52-1.12.1-.04.01-.3.07-.33.05-.03.66.05.75-.03.07-.06,0-.14.05-.17.2-.14.51.3.55-.2.01-.15.03-1.2-.03-1.27l-.93-.05v-1.57c.05-.07.1-.04.1-.05Z"/>
          <path class="cls-62" d="M12.78,18.71c.02.31-.02.63,0,.93-.6.07-.34-.21-.42-.27-.03-.02-.5.01-.62,0,0-.05-.03-.36-.05-.37-.17-.12-.59.38-.48-.68-.17,0-.34-.04-.5-.05.1-.95-.29-.49-.45-.6-.05-.04-.01-.3-.02-.37h1.42c.14-.77.1-.59-.48-.67v-.03l.6.05c.03.2-.05,1.5,0,1.57.1.15.49-.31.52.48.16,0,.32,0,.48,0Z"/>
          <path class="cls-36" d="M10.72,15.94s.07.01.1.4c0,.12-.03.24.05.3.1,0,.22-.01.32,0,.58.08.63-.1.48.67h-1.42c-.11-1.17.11-.68.2-.82.08-.12-.21-.67.27-.55Z"/>
          <path class="cls-36" d="M12.15,14.21c-.08.19.02.33,0,.5,0,0-.05-.02-.1.05-.08.52.26.55-.55.52-.11.05-.01.6-.05.65-.03.04-.28-.05-.27.18-.03-.15-.16-.25-.32-.17-.07.03-.05.32-.05.4-.03-.39-.1-.38-.1-.4,0,0,.07.01.07-.02,0-.09-.02-.61,0-.63.09-.13.55.3.43-.53.66-.07.19-.22.45-.58.2-.03.46.03.48.03Z"/>
          <path class="cls-36" d="M16.55,16.27s-.05-.02-.1.05v1.57l.93.05h-.95l-.02-1.62c-.03-.07-.73-.06-.83-.05.05-.56-.11-.3-.25-.37-.11-.05-.01-.4-.05-.45-.04-.05-.22.04-.27-.08.15-.1.31-.12.5-.13.97-.08.47.27.6.45.1.15.53-.34.43.58Z"/>
          <path class="cls-74" d="M14.65,14.71c-.14,0-1.04,0-1.08.03-.05.03,0,.25-.02.28-.02.03-.64.21-.5-.25.59,0,.51-.04.5-.6,1.13,0,1.15-.16,1.1.53Z"/>
          <path class="cls-73" d="M13.55,14.17c.01.56.09.59-.5.6-.29,0-.6-.12-.9-.07.02-.17-.08-.31,0-.5.47,0,.93-.03,1.4-.03Z"/>
          <path class="cls-62" d="M15.52,15.24c-.19.01-.35.03-.5.13-.02-.06.02-.29,0-.32-.06-.09-.38.17-.3-.32.55,0,.9-.29.8.5Z"/>
          <path class="cls-82" d="M17.45,16.61c-.29-.09-.4.09-.37-.33.12,0,.23,0,.35.03.09.16.02.29.02.3Z"/>
          <path class="cls-19" d="M12.78,19.64c.02.29.15.16.1.3-.05.44.06.87.07,1.3,0,.22.02,1.81-.03,1.88-.03.04-.42,0-.5.02,0,0-.03.02-.03-.07,0-.48.07-2.82.03-2.97-.05-.21-.27-.03-.33-.12-.02-.03.05-.27-.05-.32-.05-.02-.28.03-.32-.02-.04-.05.04-.25.03-.28.12.01.59-.02.62,0,.08.06-.18.34.42.27Z"/>
          <path class="cls-31" d="M15.65,22.24c.08.96-.21.53-.35.63-.05.03.01.27-.03.3-.15.11-.7-.31-.58.48-.79.06-.2.26-.57.62-.18,0-.4-.07-.57-.07-.14-1.04.56-.09.45-.9.7.09.34-.26.5-.33.34-.15.31.37.4-.73.25,0,.5,0,.75,0Z"/>
          <path class="cls-42" d="M18.89,19.51c0-.1-.02-.59,0-.62.04-.06.38.03.47-.05,0,.2.07.41.03.62-.04.1-.33.03-.5.05Z"/>
          <path class="cls-6" d="M16.55,21.71s.04,0,.07,0c-.03.71-.1.52-.7.53.2.01.04-.48.12-.53.02-.02.42,0,.52,0Z"/>
          <path class="cls-55" d="M17.09,21.14c0,.09-.03.49-.07.52-.02.01-.34.04-.4.05-.02,0-.04,0-.07,0l.03-.58c.05-.07.42.02.5.02Z"/>
          <path class="cls-82" d="M18.39,20.01c.15.01.01-.42.08-.47.02-.01.31-.02.42-.03,0,.15,0,.3,0,.45l-.08.08c-.13.04-.29-.04-.42-.03Z"/>
          <path class="cls-30" d="M18.72,17.87s-.04.07-.23.02v-.55c.07,0,.2-.03.23.05.02.05-.02.36,0,.48Z"/>
          <path class="cls-67" d="M13.15,24.81c.44-.04.32.05.33.5-.12,0-.24,0-.37,0-.11-.53.03-.47.03-.5Z"/>
          <g>
            <path class="cls-68" d="M12.15,14.71c.3-.05.61.07.9.07-.14.46.48.28.5.25.02-.03-.03-.25.02-.28.04-.03.94-.03,1.08-.03,0,0-.02.03.07.03-.08.49.24.23.3.32.02.03-.02.26,0,.32.05.13.23.03.27.08.04.05-.06.4.05.45.14.06.3-.19.25.37-.05,0-.18-.02-.2.02l-.02.72-.58.02-.03.9-.7.03c-.04.41.08,3.38-.08,3.45-.06.03-.35-.03-.38.02-.03.05,0,.81,0,.95-.01.63.18.8-.58.8-.14.12.32.54-.58.43,0-.16,0-.31,0-.47.08-.01.47.03.5-.02.05-.08.04-1.66.03-1.88.64.09.45-.06.47-1.2,0-.44,0-.88,0-1.32-.03-.04-.54-.01-.63-.02-.16,0-.32,0-.48,0-.03-.79-.41-.34-.52-.48-.05-.06.03-1.36,0-1.57l-.6-.05c-.02-.14.02-.39,0-.5-.01-.24.24-.14.27-.18.04-.05-.06-.6.05-.65.81.03.47,0,.55-.52.05-.07.1-.04.1-.05Z"/>
            <path class="cls-26" d="M15.58,16.27c.11-.01.8-.02.83.05l.02,1.62h.95c.07.07.04,1.11.03,1.27-.38.13-.7-.18-.6.37-.09.08-.7,0-.75.03-.05.04.03.29-.07.33-.4.18-.59-.57-.52,1.12l-1.18.05-.05,1.25-.67.02c0-.14-.03-.9,0-.95.04-.05.33,0,.38-.02.16-.07.05-3.04.08-3.45l.7-.03.03-.9.58-.02.02-.72s.15-.01.2-.02Z"/>
            <path class="cls-23" d="M13.42,20.04c-.1-.21-.35-.13-.53-.1.05-.14-.08,0-.1-.3-.02-.31.02-.63,0-.93.1,0,.61-.02.63.02,0,.44,0,.88,0,1.32Z"/>
            <path class="cls-73" d="M13.42,20.04c-.01,1.14.18,1.29-.47,1.2,0-.43-.11-.87-.07-1.3.18-.03.44-.11.53.1Z"/>
          </g>
          <path class="cls-73" d="M11.18,16.11c.02.11-.02.36,0,.5v.03c-.1-.01-.22,0-.32,0-.08-.06-.04-.18-.05-.3,0-.08-.02-.37.05-.4.16-.08.28.01.32.17Z"/>
          <path class="cls-48" d="M16.82,19.57c-.1-.54.22-.24.6-.37-.04.5-.35.06-.55.2-.04.03.02.1-.05.17Z"/>
        </g>
        <g>
          <path class="cls-56" d="M13.12,2.03c.03.2-.02.59,0,.83-.02,0,.09.08-.27.03l-.03-.03c-.34-.19-.62-.12-.67-.13,0,0-.05-.05-.07-.07-.02-.02.04-.13-.03-.17-.22-.12-.3.25-.37-.37,0-.03.04-.04.03-.07.47-.07.93-.02,1.4-.03Z"/>
          <path class="cls-16" d="M12.82,2.87c-.42-.02-.83.08-.67-.13.05.02.33-.06.67.13Z"/>
        </g>
      </g>
    </g>
  </g>
</svg>