<?xml version="1.0" encoding="UTF-8"?>
<svg id="Layer_2" data-name="Layer 2" xmlns="http://www.w3.org/2000/svg" viewBox="0 0 37.63 29.69">
  <defs>
    <style>
      .cls-1 {
        fill: #b2b0d8;
      }

      .cls-1, .cls-2, .cls-3, .cls-4, .cls-5, .cls-6, .cls-7, .cls-8, .cls-9, .cls-10, .cls-11, .cls-12, .cls-13, .cls-14, .cls-15, .cls-16, .cls-17, .cls-18, .cls-19, .cls-20, .cls-21, .cls-22, .cls-23, .cls-24, .cls-25, .cls-26, .cls-27, .cls-28, .cls-29, .cls-30, .cls-31, .cls-32, .cls-33, .cls-34, .cls-35, .cls-36, .cls-37, .cls-38, .cls-39, .cls-40, .cls-41, .cls-42, .cls-43, .cls-44, .cls-45, .cls-46, .cls-47, .cls-48, .cls-49, .cls-50, .cls-51, .cls-52, .cls-53, .cls-54, .cls-55, .cls-56, .cls-57, .cls-58, .cls-59, .cls-60 {
        stroke-width: 0px;
      }

      .cls-2 {
        fill: #b23049;
      }

      .cls-3 {
        fill: #66a5d9;
      }

      .cls-4 {
        fill: #a0ca5f;
      }

      .cls-5 {
        fill: #806a68;
      }

      .cls-6 {
        fill: #f1af70;
      }

      .cls-7 {
        fill: #ec6560;
      }

      .cls-8 {
        fill: #e4e675;
      }

      .cls-9 {
        fill: #2b2451;
      }

      .cls-10 {
        fill: #299484;
      }

      .cls-11 {
        fill: #9b7d6c;
      }

      .cls-12 {
        fill: #ebb977;
      }

      .cls-13 {
        fill: #761a53;
      }

      .cls-14 {
        fill: #bf854a;
      }

      .cls-15 {
        fill: #c1dde6;
      }

      .cls-16 {
        fill: #bdbdbe;
      }

      .cls-17 {
        fill: #e47183;
      }

      .cls-18 {
        fill: #8f582f;
      }

      .cls-19 {
        fill: #482919;
      }

      .cls-20 {
        fill: #ddbba3;
      }

      .cls-21 {
        fill: #756e4b;
      }

      .cls-22 {
        fill: #6b3a20;
      }

      .cls-23 {
        fill: #4b5071;
      }

      .cls-24 {
        fill: #08a79d;
      }

      .cls-25 {
        fill: #2a8bcb;
      }

      .cls-26 {
        fill: #acc3cb;
      }

      .cls-27 {
        fill: #bfb967;
      }

      .cls-28 {
        fill: #f8cf80;
      }

      .cls-29 {
        fill: #715859;
      }

      .cls-30 {
        fill: #db4755;
      }

      .cls-31 {
        fill: #777b87;
      }

      .cls-32 {
        fill: #181715;
      }

      .cls-33 {
        fill: #bb3763;
      }

      .cls-34 {
        fill: #3e495b;
      }

      .cls-35 {
        fill: #3d1131;
      }

      .cls-36 {
        fill: #dbdcd0;
      }

      .cls-37 {
        fill: #f69160;
      }

      .cls-38 {
        fill: #7b656e;
      }

      .cls-39 {
        fill: #c7d7ee;
      }

      .cls-40 {
        fill: #893825;
      }

      .cls-41 {
        fill: #e0dedd;
      }

      .cls-42 {
        fill: #4f5769;
      }

      .cls-43 {
        fill: #a96c3c;
      }

      .cls-44 {
        fill: #131624;
      }

      .cls-45 {
        fill: #608682;
      }

      .cls-46 {
        fill: #f5e1a4;
      }

      .cls-47 {
        fill: #0a282b;
      }

      .cls-48 {
        fill: #d46a52;
      }

      .cls-49 {
        fill: #8b4b29;
      }

      .cls-50 {
        fill: #bb2a78;
      }

      .cls-51 {
        fill: #f37766;
      }

      .cls-52 {
        fill: #1aa1d3;
      }

      .cls-53 {
        fill: #f1efb1;
      }

      .cls-54 {
        fill: #716870;
      }

      .cls-55 {
        fill: #17171c;
      }

      .cls-56 {
        fill: #5a4d58;
      }

      .cls-57 {
        fill: #9ac4db;
      }

      .cls-58 {
        fill: #bec1e2;
      }

      .cls-59 {
        fill: #f37e5b;
      }

      .cls-60 {
        fill: #b04540;
      }
    </style>
  </defs>
  <g id="Layer_1-2" data-name="Layer 1">
    <g>
      <path class="cls-25" d="M2.51,21.41c0,.25.09.52.04.78.05.06.74-.01.78.02.2.14-.49.8.85.63l.08.76h.85l.08-.8c1.21.16.56-.45.76-.59.03-.02.62.02.76,0,0-.27.05-.54.06-.8.28.07.56.04.85.04l.06.76c.25.05.54-.05.78-.04.04,0,.04.04.08.04v2.01l.85.02c0,.33.05.73-.08.89-.11,0-.73-.02-.76.02v4.46c-.41,0-.82,0-1.23,0-2.16,0-4.31.03-6.47-.04v-4.42l-.8-.02c0-.3,0-.59,0-.89l.76-.06v-1.94l.82-.06.06-.76c.27,0,.54,0,.8,0Z"/>
      <path class="cls-34" d="M27.78.79c.71,0,1.45-.06,2.16-.04,0,0-.03.04.08.04-.19.19-.05.58-.04.85,0,.1-.11.57-.02.63.29.01.58-.01.87,0,.01,0,.03,0,.04,0-.07.5-.05,1.02-.04,1.52h-2.96l-.06-.89h-2.2c-.11.05-.05.61-.06.89-.01,0-.03,0-.04,0-.94,0-1.89-.02-2.83.04,0-.51,0-1.01,0-1.52,1.15.04.73-.01.76-.68.01-.23.13-.73,0-.85.03,0,.06,0,.08,0,.71-.02,1.44-.04,2.16-.04.06,0,.03.08.06.08.68,0,1.37-.05,2.05-.04Z"/>
      <path class="cls-15" d="M35.22,20.57c0,.3,0,.6,0,.89,0,.09-.03.75-.06.76-1.27-.16-.61.49-.8.63-.05.03-.74-.04-.78.02l-.02.74h-.89l-.08-.76h-.72c-.12-1.01-.1-.46-.91-.7,0-.23,0-.46,0-.7,0-.3.04-.62.04-.93.29,0,.63-.08.8.17,0,.11-.02.69.02.72h2.58l.02-1.73c.24,0,.61-.03.8-.13-.02.34,0,.68,0,1.01Z"/>
      <path class="cls-15" d="M3.35,21.41c.46.07,1.89-.05,2.56,0,.04-.03.02-.72.02-.85h.85c0,.28.02.57,0,.85-.02.27-.06.54-.06.8-.14.02-.73-.02-.76,0-.2.14.45.75-.76.59l-.08.8h-.85l-.08-.76c-1.33.17-.64-.49-.85-.63-.05-.03-.74.04-.78-.02.04-.26-.04-.53-.04-.78,0-.26.09-.54.04-.8.03,0,.11-.14.66-.04l.06.87c.08.07.08-.02.08-.02Z"/>
      <path class="cls-44" d="M22.66,2.27s0,.03,0,.04c0,.51,0,1.01,0,1.52,0,1.04,0,2.08,0,3.13-.24,0-.48.01-.72,0-.64-.03-1.28-.07-1.92-.04l-.02-.89c.63,0,1.27.02,1.9-.02v-3.72l.76-.02Z"/>
      <path class="cls-44" d="M17.09,6.03l-.06.89h-1.14c-.05.8.14.86-.78.72.02-1.27-.02-2.53-.04-3.8,0-.51.01-1.01,0-1.52,0-.01,0-.03,0-.04l.8.06v3.68s1.06.02,1.23.02Z"/>
      <path class="cls-55" d="M6.86,2.31l.04,1.52-.04.04c-.06.14.05.69.04.85,0,.32-.04.64-.04.97,0,.71,0,1.42,0,2.13l.72.08c-.04.48-.02.98,0,1.46,0,0-.09.07-.08.13-.97.14-.55-.3-.63-1.58l-.72-.04V2.33l.72-.02Z"/>
      <path class="cls-44" d="M9.06,11.82c0,.39,0,.79,0,1.18,0,.61,0,1.21,0,1.82,0,.2,0,.39,0,.59h-.72c.01-.42-.09-.89-.08-1.31,0-.67,0-1.32,0-1.99,0-.37.01-.72,0-1.1-.02-.67.36-.84-.63-.76,0-.04-.04-.05-.04-.08.05-.82-.08-.64-.08-.68,0-.05.08-.12.08-.13-.04.15.35.06.74.08l.02.74.72.08c0,.51,0,1.03,0,1.54Z"/>
      <path class="cls-55" d="M36.91,17.78c.05-.89,0-2.41,0-3.42,0-.66,0-1.32,0-1.99,0-.17-.03-.36.04-.51.29.01.59-.05.68.06v5.83l-.72.02Z"/>
      <path class="cls-55" d="M.77,11.9c-.01.41,0,.82,0,1.23,0,.32.04.66.04.97,0,.09-.04.23-.04.34,0,1.06-.05,2.36,0,3.38-.11-.02-.68.03-.72-.02-.17-.24.13-5.13,0-5.83l.72-.06Z"/>
      <path class="cls-44" d="M30.1,9.54l.08.08c.02.06-.05.29-.04.59,0,.01,0,.03,0,.04-.99-.06-.67.04-.72.8-.02.36-.04.7-.04,1.06-.01.65,0,1.3,0,1.94,0,.4,0,.8,0,1.2l-.72.06c0-.2-.04-.42-.04-.63,0-.26.04-.54.04-.8,0-.31,0-.62,0-.93,0-.03,0-.06,0-.08,0-.34-.05-.69-.04-1.01,0-.52.08-1.06.04-1.58,1.26.12.57-.59.78-.74h.66Z"/>
      <path class="cls-44" d="M30.86,7.97c0-.76-.04-1.52-.04-2.28,0-.34,0-.67,0-1.01,0-.3,0-.59,0-.89,0-.5-.03-1.02.04-1.52.24,0,.67-.05.72.06v5.58l-.72.06Z"/>
      <path class="cls-47" d="M37.62,25.13c0,1.49.03,2.97-.04,4.46-.03.05-.64.01-.76.02v-4.46l.8-.02Z"/>
      <path class="cls-47" d="M.86,29.57c-.1,0-.62.14-.8-.02,0-1.47,0-2.94,0-4.42l.8.02v4.42Z"/>
      <path class="cls-55" d="M34.88,9.58c-.2,0-.42.04-.63.04-.86,0-1.72,0-2.58-.04l-.04-.04.06-.72h3.13l.06.76Z"/>
      <path class="cls-55" d="M6.1,9.54c-.16,0-.34.04-.51.04-.83,0-1.66-.02-2.49.04l-.04-.08.02-.72h2.96l.06.72Z"/>
      <path class="cls-57" d="M1.66,21.41s.03,0,.04,0l-.06.76-.82.06v1.94l-.76.06c0-.68-.09-1.37-.04-2.05l.82-.02.08-.76c.25,0,.49,0,.74,0Z"/>
      <path class="cls-55" d="M25.66.03v.72c-.71,0-1.44.02-2.16.04l.02-.76c.71,0,1.42,0,2.13,0Z"/>
      <path class="cls-55" d="M29.93.75c-.7-.02-1.44.05-2.16.04V.03c.28,0,2.05-.06,2.13,0,.05.04,0,.61.02.72Z"/>
      <path class="cls-42" d="M27.78.03v.76c-.68,0-1.37.04-2.05.04-.03,0,0-.08-.06-.08V.03c.7,0,1.41,0,2.11,0Z"/>
      <path class="cls-32" d="M30.82,8.1c0,.2.1,1.33.04,1.42-.33.07-.71-.06-.68.11l-.08-.08c.2-1.21-.36-1.55.72-1.44Z"/>
      <path class="cls-53" d="M2.55,20.61c.05.26-.04.55-.04.8-.27,0-.54,0-.8,0-.01,0-.03,0-.04,0l.06-.89c.75-.06.78.08.82.08Z"/>
      <path class="cls-55" d="M30.78,1.63h-.8c0-.26-.14-.65.04-.85.11,0,.73-.02.76.02,0,.27,0,.55,0,.82Z"/>
      <path class="cls-26" d="M37.37,22.13c-.19-.02-.53-.05-.59.13l-.78-.04s-.01-.64-.02-.76c0-.01,0-.03,0-.04,1.54-.16.22.76,1.39.72Z"/>
      <path class="cls-55" d="M23.42.79c.13.11.01.61,0,.85h-.76c0-.26,0-.52,0-.78.05-.11.52-.05.76-.06Z"/>
      <path class="cls-16" d="M35.98,21.41s0,.03,0,.04h-.76c0-.29,0-.59,0-.89.87,0,.69-.18.76.85Z"/>
      <path class="cls-55" d="M36.19,11.06c.11.02.68-.03.72.02.02.03-.02.63,0,.78-.27-.01-.75.05-.8-.06-.05-.85.08-.7.08-.74Z"/>
      <path class="cls-32" d="M1.58,11.1c-.01.26-.04.55-.04.8-.26-.03-.57.08-.76-.08,0-.11-.02-.69.02-.72.26,0,.52,0,.78,0Z"/>
      <g>
        <path class="cls-32" d="M1.58,18.79c-.25,0-.71.05-.76-.06-.05-.22.06-.55.04-.74l.76.02-.04.78Z"/>
        <path class="cls-32" d="M2.46,19.42s0,.08,0,.13c-.08.05-.75.02-.78,0-.05-.04,0-.64-.02-.76.26,0,.52,0,.78,0,.04.03.02.54.02.63Z"/>
      </g>
      <g>
        <path class="cls-10" d="M30.95,21.45c0,.23,0,.46,0,.7.81.23.79-.31.91.7h.72l.08.76h.89l.02-.74c.05-.06.74.01.78-.02.2-.14-.46-.8.8-.63.04-.01.06-.67.06-.76h.76c0,.12-.03.73.02.76l.78.04c-.21.61.61.17.85.42,0,.24,0,.48,0,.72l-.76.02c.02.14-.02.73,0,.76.04.05.61,0,.72.02,0,.3.04.62.04.93l-.8.02v4.46c-.56.04-1.09.03-1.65.04-.56,0-1.13,0-1.69,0-1.45,0-2.9-.04-4.35-.04v-4.46c-.02-.06-.68-.02-.8-.02,0-.3,0-.61,0-.91l.8-.08v-.76l-.76-.08v-1.06l1.67-.02c.06-.03.1-.68.11-.8l.8.04Z"/>
        <path class="cls-27" d="M37.62,23.4c0,.27-.04.55-.04.8-.11-.02-.68.03-.72-.02-.02-.03.02-.62,0-.76l.76-.02Z"/>
      </g>
      <path class="cls-32" d="M36.82,18.07c-.03.26.02.56,0,.82-.03.04-.61.02-.72.02.02-.15-.02-.79,0-.82.04-.05.61,0,.72-.02Z"/>
      <path class="cls-31" d="M30.78,1.63c0,.21-.01.42.04.63-.29-.01-.58.01-.87,0-.09-.06.02-.54.02-.63h.8Z"/>
      <path class="cls-31" d="M23.42,1.63c-.04.67.39.71-.76.68,0-.01,0-.03,0-.04,0-.21,0-.42,0-.63h.76Z"/>
      <path class="cls-36" d="M37.37,22.13c.06,0,.22-.02.25.02,0,.17,0,.35,0,.53-.24-.25-1.05.19-.85-.42.06-.18.4-.15.59-.13Z"/>
      <path class="cls-4" d="M24.57,14.69c.25,0,.51-.02.76,0,.14,0,.41-.05.51.06.09.09-.07.5.02.66.36.26,1.23-.62,1.06.89h.76c.07-.03.09-1.41.11-1.61h.85c0,.21.04.43.04.63,0,.41,0,.81,0,1.23,0,.46-.09.95-.04,1.42l.72.06s0,.06,0,.08c0,.11-.02.73.02.76.26,0,.52,0,.78,0,0,.19-.04.76.06.8l.74-.04c0,.29.04.6.04.89-.27,0-.57.07-.85.06-.02.03.01.69,0,.82,0,.12-.04.77-.11.8l-1.67.02v1.06l.76.08v.76l-.8.08c0,.3,0,.61,0,.91-.3,0-.59,0-.89,0,0-.31-.05-.62-.04-.93,0-.12.11-.74.02-.8h-.91c-.01-.24,0-.45,0-.68,0-.12.03-.69-.06-.72h-.91c-.02-.22-.07-.45-.08-.68,0-.13.14-.77-.02-.85-.28-.05-.59.05-.87.04-.31,0-.62-.04-.93-.04l-.06-.89-1.8-.02.04-1.97s.06,0,.08,0c.12,0,.81.02.85-.02l-.04-1.29c.19,0,.1-.08.17-.08,0,0-.01.09.02.08.12,0,.75.02.78-.02l-.04-1.58s.06.02.13-.08c-.05.13.38.08.8.08Z"/>
      <path class="cls-47" d="M29.13,29.61c-.27,0-.54-.04-.8-.04.05-.83-.04-1.67-.04-2.49,0-.64.03-1.3.04-1.94.12,0,.78-.04.8.02v4.46Z"/>
      <path class="cls-8" d="M30.95,21.45l-.8-.04c.01-.14-.02-.79,0-.82.28,0,.57-.06.85-.06,0,.31-.04.63-.04.93Z"/>
      <path class="cls-47" d="M9.31,25.13s.06,0,.08,0v4.48c-.28,0-.56,0-.85,0v-4.46s.65-.02.76-.02Z"/>
      <path class="cls-7" d="M10.28,27.07c0,.26,0,.52,0,.78,0,.03.08.02.08.02,0,.01,0,.03,0,.04,0,0-.08-.01-.08.02,0,.26.04.53.04.78,0,.3-.01.59,0,.89-.31,0-.62,0-.93,0v-3.8l.04,1.25s.72.02.85.02Z"/>
      <path class="cls-57" d="M9.39,24.24l-.85-.02v-2.01c.12,0,.81-.02.85.02,0,.67,0,1.34,0,2.01Z"/>
      <path class="cls-3" d="M8.46,22.17c-.24,0-.53.09-.78.04l-.06-.76c.12,0,.79-.02.82,0,.05.04,0,.61.02.72Z"/>
      <path class="cls-44" d="M23.68,9.28c0,.27,0,.55,0,.82l.89.08c0,.56,0,1.11,0,1.67,0,.35,0,.7,0,1.06v1.77c-.42,0-.86.05-.8-.08,0-.58,0-1.16,0-1.73,0-.48.02-.96,0-1.44,0-.24.05-.71-.06-.76-.32,0-.63.01-.95,0v-2.96c.13,0,.9-.02.93.02.01.51-.01,1.03,0,1.54Z"/>
      <path class="cls-6" d="M25.5,3.79s.03,0,.04,0c0,.15.04.83-.06.89h-2.66c-.19-.07-.08-.44-.11-.78.5-.08,2.59.04,2.77-.02.03-.01.02-.06.02-.08Z"/>
      <path class="cls-44" d="M27.86,3.79h-.04c-.76,0-1.52,0-2.28,0,.01-.27-.05-.84.06-.89h2.2l.06.89Z"/>
      <path class="cls-6" d="M28.83,3.79c.02.17.75.05,1.2.08v.8h-2.2l-.02-.89h1.01Z"/>
      <path class="cls-39" d="M28.62,11.86c0,.33.05.68.04,1.01-1.09-.09-2.18-.02-3.28-.04-.1.05-.1.08-.11.08-.04,0-.41-.08-.72,0,0-.35,0-.7,0-1.06h.76c0,.29.09.61.04.91.03.04.65.02.76.02.32.01.65.01.97,0,.24,0,.71.05.76-.06,0-.3.01-.61,0-.91l.76.04Z"/>
      <g>
        <path class="cls-12" d="M25.5,3.79s.01.07-.02.08c-.18.06-2.26-.06-2.77.02.03.34-.09.71.11.78h2.66c.1-.05.06-.74.06-.89.76,0,1.52,0,2.28,0l.02.89h2.2v-.8c-.45-.04-1.18.09-1.2-.08h1.99c0,.3,0,.59,0,.89l-.76.06v.89l.76.06c0,.76.05,1.52.04,2.28,0,.17-.04.12-.04.13-1.08-.12-.52.23-.72,1.44h-.66c-.21.15.48.85-.78.74.04.53-.04,1.06-.04,1.58l-.76-.04c0-.26-.08-.53-.04-.8.11,0,.73.02.76-.02l.08-1.65c-.56.02-1.55-.16-1.61.11.03-.16-.49-.05-.93-.08,0,0-.03-.08-.06-.08-.79-.05-1.6.03-2.39,0-.01-.51.01-1.03,0-1.54-.03-.04-.8-.02-.93-.02-.11,0-.08-.04-.08-.04v-.72c0-1.04,0-2.08,0-3.13.94-.07,1.89-.04,2.83-.04Z"/>
        <path class="cls-55" d="M26.19,8.44h.85l.06.82-.95.02.04-.85Z"/>
      </g>
      <path class="cls-48" d="M30.82,4.68c0,.34,0,.68,0,1.01l-.76-.06v-.89l.76-.06Z"/>
      <g>
        <path class="cls-6" d="M26.13,9.37c-.04.98-.02.79.91.8.1-.29,0-.65.02-.72.05-.27,1.05-.09,1.61-.11l-.08,1.65s-.65.02-.76.02c-.81.03-1.62-.02-2.43,0,0,.28-.06.57-.06.85h-.76c0-.56,0-1.11,0-1.67l-.89-.08c0-.27,0-.55,0-.82.79.03,1.6-.05,2.39,0,.03,0,.06.08.06.08Z"/>
        <path class="cls-14" d="M27.06,9.45c-.01.07.08.43-.02.72-.93,0-.95.18-.91-.8.44.03.96-.08.93.08Z"/>
      </g>
      <path class="cls-23" d="M22.66,6.96v.72c-.11,0-.66.11-.72.02-.02-.03.02-.6,0-.74.24.01.48,0,.72,0Z"/>
      <path class="cls-32" d="M29.34,16.59c-.01.45-.01.91,0,1.35,0,.03,0,.06,0,.08l-.72-.06c-.05-.47.05-.95.04-1.42l.68.04Z"/>
      <path class="cls-20" d="M31.88,19.64c-.13-.04-.1.63-.08,1.06-.18-.25-.51-.17-.8-.17,0-.29-.04-.6-.04-.89,0-.25,0-.51,0-.76l.06.72c.29-.03.58.03.87.04Z"/>
      <path class="cls-32" d="M30.95,18.88c0,.25,0,.51,0,.76l-.74.04c-.11-.05-.06-.61-.06-.8.27,0,.54,0,.8,0Z"/>
      <path class="cls-44" d="M15.06,7.68c0,.26-.13,2.05.02,2.11.66-.01,1.32.02,1.99,0,.03,0,.02-.08.02-.08,1.6-.04,3.21.03,4.82,0,0,.04,0,.08,0,.13l-4.75-.04-.08.89c-.7-.03-1.39.02-2.09.04-.13,0-.78-.1-.87-.04-.04.29-.01.59-.02.89-.01.44,0,.87,0,1.31-.01.61-.06,1.21-.04,1.82,0,.01,0,.03,0,.04l-.78.04s-.02-.69-.02-.8c0-.36-.04-.74-.04-1.1,0-.34.04-.71.04-1.06,0-.57,0-1.14,0-1.71l.89-.08v-2.32l.93-.02Z"/>
      <g>
        <path class="cls-9" d="M17.97,6.03l.06.89h1.01l.06-.89c.3,0,.59,0,.89,0l.02.89c.64-.02,1.28.01,1.92.04.02.14-.02.71,0,.74.06.09.61-.02.72-.02,0,0-.03.04.08.04v2.96c-.27,0-.55,0-.82,0-.04-.03-.02-.72-.02-.85,0-.04,0-.08,0-.13,0-.24.05-.75-.06-.8h-4.69l-.06.8s.01.08-.02.08c-.66.02-1.32-.01-1.99,0-.15-.07-.03-1.85-.02-2.11,0-.06.04-.04.04-.04.92.14.73.09.78-.72h1.14l.06-.89c.3,0,.59,0,.89,0Z"/>
        <path class="cls-44" d="M19.11,6.03l-.06.89h-1.01l-.06-.89c.38,0,.76,0,1.14,0Z"/>
        <path class="cls-44" d="M21.9,9.7c-1.6.03-3.21-.04-4.82,0l.06-.8h4.69c.11.05.06.56.06.8Z"/>
      </g>
      <g>
        <path class="cls-29" d="M30.1,12.16c.01.32.04.63.04.95,0,.03.09,0,.08.06,0,0-.08-.01-.08.02,0,.28,0,.56,0,.85l-.76.02c0-.65-.01-1.3,0-1.94l.72.04Z"/>
        <path class="cls-38" d="M36.91,12.37c0,.66,0,1.32,0,1.99-.11-.02-.68.03-.72-.02-.03-.05-.05-1.03-.04-1.16,0-.11.02-.75.04-.78.04-.05.61,0,.72-.02Z"/>
        <g>
          <path class="cls-12" d="M31.67,13.13c.2,0,.39,0,.59,0,.35,0,.7,0,1.06,0,.94,0,1.89.09,2.83.04,0,.14,0,1.11.04,1.16.04.05.61,0,.72.02,0,1.01.05,2.53,0,3.42-.02.34-.08.26-.08.3-.11.02-.68-.03-.72.02-.02.03.02.67,0,.82-.28.01-.54.03-.82,0l-.11.11c.03.15.05.38.04.53-.19.1-.57.12-.8.13-.24,0-.51-.04-.76-.04-.37,0-.73,0-1.1,0-.22,0-.45.01-.68,0-.29-.02-.57-.08-.87-.04l-.06-.72c-.27,0-.54,0-.8,0,0-.27.04-.58-.04-.85.76,0,1.52,0,2.28,0,.49,0,.99,0,1.48,0,.66,0,1.62.06,2.18.04,0,0,.12-.08.13-.08.03,0,.2.11.66-.02l-.02-3.02c-2.45,0-4.94-.08-7.37.02-.02.48-.06.96-.08,1.44,0,0,.09.1.08.17,0,.03-.08.02-.08.02l-.68-.04c0-.41,0-.81,0-1.23l.72-.06c0-.4,0-.8,0-1.2l.76-.02c0-.28,0-.56,0-.85,0-.03.08-.02.08-.02.31.04.64-.04.68-.04.25,0,.51,0,.76,0Z"/>
          <path class="cls-12" d="M33.86,18.03l-.06-.8h-1.39l-.02.8c-.76,0-1.52,0-2.28,0h-.72s.01-.09-.04-.08c-.01-.45-.01-.91,0-1.35,0,0,.08.01.08-.02,0-.07-.08-.16-.08-.17.02-.48.07-.96.08-1.44,2.43-.1,4.92-.02,7.37-.02l.02,3.02c-.46.14-.62.02-.66.02,0,0-.12.08-.13.08-.56.02-1.51-.05-2.18-.04Z"/>
          <path class="cls-55" d="M33.86,18.03c-.49,0-.99,0-1.48,0l.02-.8h1.39l.06.8Z"/>
        </g>
        <g>
          <path class="cls-11" d="M34.24,9.62c.02.11-.03.68.02.72.05.03.97-.02,1.14,0,.02-.15.06-.12.06-.13,0,.2.6-.02.68.15-.04.32.04.66.04.7,0,.04-.14-.11-.08.74.05.11.53.05.8.06.01,0,.03,0,.04,0-.07.15-.04.34-.04.51-.11.02-.68-.03-.72.02-.02.03-.04.67-.04.78-.94.04-1.89-.04-2.83-.04l-.06-.93h-.93l-.06.93c-.2,0-.39,0-.59,0v-.95c-.32-.08-.72.02-.76.02-.25,0-.55-.05-.8-.08-.01-.35.04-.71-.04-1.06.07,0,.1.02.08-.08.02.16.58.16.66.13.11-.05.05-.54.06-.8,0-.03,0-.06,0-.08.11.16.45.06.74.08l.06-.72c.86.04,1.72.04,2.58.04Z"/>
          <path class="cls-5" d="M35.47,10.21s-.04-.02-.06.13c-.17-.02-1.09.03-1.14,0-.05-.04,0-.61-.02-.72.21,0,.43-.04.63-.04.24,0,.52-.04.59.06-.02.16.03.49,0,.57Z"/>
          <path class="cls-54" d="M30.86,10.3c-.01.27.05.75-.06.8-.08.03-.63.04-.66-.13,0-.24,0-.48,0-.72,0-.01,0-.03,0-.04.18.16.48.06.72.08Z"/>
          <path class="cls-54" d="M31.67,9.58l-.06.72c-.29-.03-.63.08-.74-.08,0-.12-.03-.58.06-.63.09-.05.55.06.7-.04l.04.04Z"/>
          <path class="cls-38" d="M33.31,13.13c-.35,0-.7,0-1.06,0l.06-.93h.93l.06.93Z"/>
          <path class="cls-56" d="M30.9,12.2v.93s-.37.08-.68.04c0-.06-.08-.03-.08-.06,0-.32-.03-.63-.04-.95,0-.01,0-.03,0-.04.25.03.56.08.8.08Z"/>
          <path class="cls-29" d="M31.67,13.13c-.25,0-.51,0-.76,0v-.93s.44-.1.76-.02v.95Z"/>
        </g>
        <path class="cls-38" d="M30.06,11.06c.08.34.03.71.04,1.06,0,.01,0,.03,0,.04l-.72-.04c0-.36.02-.7.04-1.06.2-.02.44.02.63,0Z"/>
      </g>
      <path class="cls-16" d="M30.14,10.25c0,.24,0,.48,0,.72.01.1-.02.08-.08.08-.19.02-.43-.02-.63,0,.05-.76-.28-.87.72-.8Z"/>
      <path class="cls-41" d="M8.25,11.01c-.91.07-.57-.09-.63-.76.99-.07.61.09.63.76Z"/>
      <path class="cls-55" d="M9.06,16.55c-.01.44,0,.89,0,1.33-.05.07-.59-.03-.72.06.07-1.38-.33-1.47.72-1.39Z"/>
      <path class="cls-6" d="M8.97,15.41l.02,1.01c-1.03.07-.6-.07-.7-.93,0,0,.04.03.04-.08h.63Z"/>
      <path class="cls-32" d="M7.49,18.79l.04.78-.76.06c0-.26,0-.52,0-.78.05-.11.47-.05.72-.06Z"/>
      <path class="cls-55" d="M8.3,17.99v.78s-.65.02-.76.02v-.78l.76-.02Z"/>
      <g>
        <path class="cls-34" d="M9.94.79c.7,0,1.41,0,2.11,0,.72,0,1.44-.02,2.16,0,.03,0,.06,0,.08,0-.18.23-.06.57-.04.85,0,.14-.04.65.02.68h.78c.01.51,0,1.01,0,1.52-.84-.08-1.69-.04-2.54-.04-.13,0-.25,0-.38,0l-.02-.89h-2.2l-.06.89c-.99.01-1.97.06-2.96.04l-.04-1.52.04-.04.82.04c.16-.07.02-.57.02-.68.01-.27.11-.57,0-.85.04,0,.04-.04.08-.04.69-.02,1.42.04,2.11.04Z"/>
        <path class="cls-42" d="M12.06.03v.76c-.7,0-1.41,0-2.11,0V.03c.7,0,1.41,0,2.11,0Z"/>
        <path class="cls-55" d="M14.21.79c-.72-.02-1.44,0-2.16,0V.03c.71,0,1.42,0,2.13,0l.02.76Z"/>
        <path class="cls-55" d="M9.94.03v.76c-.7,0-1.42-.06-2.11-.04.02-.11-.03-.68.02-.72.09-.06,1.82,0,2.09,0Z"/>
        <path class="cls-55" d="M7.75.79c.11.28.01.57,0,.85l-.85-.04c.01-.27-.05-.75.06-.8.26,0,.52,0,.78,0Z"/>
        <path class="cls-55" d="M15.06,1.63h-.8c-.02-.27-.13-.62.04-.85.24,0,.71-.05.76.06,0,.26,0,.52,0,.78Z"/>
        <path class="cls-31" d="M7.75,1.63c0,.11.13.61-.02.68l-.82-.04c0-.22-.01-.45,0-.68l.85.04Z"/>
        <path class="cls-31" d="M15.06,1.63c0,.21,0,.42,0,.63,0,.01,0,.03,0,.04h-.78c-.06-.03-.01-.54-.02-.68h.8Z"/>
        <path class="cls-44" d="M12.14,3.79c-.76,0-1.52,0-2.28,0l.06-.89h2.2l.02.89Z"/>
        <g>
          <path class="cls-12" d="M15.06,3.83c.02,1.27.07,2.53.04,3.8,0,0-.04-.01-.04.04l-.93.02v2.32l-.89.08c0,.57,0,1.14,0,1.71h-.89s0-.06,0-.08h.74l.06-.11c-.26-2.63,1.17-2.34-1.61-2.35l-.02-.8h-1.14l-.02.8c-.17,0-1.32.04-1.35.11,0,.19.06,1.52.11,1.58.12.16,1.2-.13,1.44-.04l.04-.8h.93l.06.78.78.02c.07.08-.02.08-.02.08h-2.47s-.02.72-.02.85l-.8-.04c0-.51,0-1.03,0-1.54l-.72-.08-.02-.74c-.39-.02-.78.07-.74-.08-.02-.48-.04-.98,0-1.46l-.72-.08c0-.71,0-1.42,0-2.13l.8-.06v-.89l-.76-.02c0-.16-.1-.71-.04-.85h.78l.08.76,2.16.04.04-.8h2.2l.04.76,2.75.04.04-.8c-.54-.04-2.15.06-2.41,0-.03,0-.02-.06-.02-.08.84,0,1.69-.03,2.54.04Z"/>
          <path class="cls-6" d="M9.86,3.79c.76,0,1.52,0,2.28,0,.13,0,.25,0,.38,0,0,.03-.01.08.02.08.25.06,1.87-.04,2.41,0l-.04.8-2.75-.04-.04-.76h-2.2l-.04.8-2.16-.04-.08-.76h-.78l.04-.04c.99.01,1.97-.03,2.96-.04Z"/>
          <path class="cls-48" d="M6.86,5.69c0-.33.03-.65.04-.97l.76.02v.89l-.8.06Z"/>
        </g>
      </g>
      <path class="cls-50" d="M9.82,13.09c-.01.12-.03.85.06.89h2.43l-.06,1.69h-2.24l-.08-.85h-.87c0-.61,0-1.21,0-1.82.39.02.8-.07.76.08Z"/>
      <path class="cls-58" d="M9.86,11.86c0,.42-.04.94.08.89l-.13.06c.11.25,0,.26,0,.27.04-.15-.37-.06-.76-.08,0-.39,0-.79,0-1.18l.8.04Z"/>
      <g>
        <path class="cls-12" d="M8.3,15.49c-.02.79-.11,1.58-.11,2.37-.71-.06-.68.12-.72.13-.36.04-1.5,0-2.09,0,.08-1.17,0-.72-1.54-.8l-.06.8c-1.74.01-2.35-.29-2.09.72.15.02.81-.05.87.06.02.03.04.71-.08.66,0-.1.02-.6-.02-.63-.26,0-.52,0-.78,0-.03,0-.06,0-.08,0l.04-.78-.76-.02c0-.07-.08.02-.08-.17-.05-1.02,0-2.32,0-3.38.11.1-.01.42.06.51.05.06,1.33-.08,1.48-.08,1.96,0,3.92.04,5.87.04,0,.37.1.56.11.59Z"/>
        <path class="cls-12" d="M9.06,15.41c0,.39,0,.75,0,1.14-1.04-.08-.65.01-.72,1.39,0,0-.05,0-.04.04l-.76.02v.78s-.03,0-.04,0c-.25.01-.67-.05-.72.06,0,.26,0,.52,0,.78,0,.31,0,.62,0,.93h-.85c0-.32,0-.63,0-.95-.03-.04-.61-.02-.72-.02-.35,0-.71-.01-1.06,0-.12,0-.77-.02-.8.02.04.29-.03.58-.04.87l-.8-.02c-.05-.3-.03-.61-.04-.91,0-.04,0-.08,0-.13.12.05.1-.62.08-.66-.06-.12-.72-.04-.87-.06-.26-1.01.35-.7,2.09-.72.54,0,1.07,0,1.61,0,.59,0,1.73.04,2.09,0,.04,0,.01-.19.72-.13,0-.79.08-1.58.11-2.37.1.86-.33,1,.7.93l-.02-1.01h.08Z"/>
        <path class="cls-43" d="M1.53,11.9s-.06.03.04.21c0,.32,0,.65,0,.97l-.8.04c0-.41-.01-.82,0-1.23,0-.03,0-.06,0-.08.19.16.5.06.76.08Z"/>
        <g>
          <path class="cls-14" d="M5.59,9.58l.06.72c.59.07,1.13-.08,1.2-.08.07,0,.57.15.72-.04,0,.04.04.04.04.08.06.67-.28.83.63.76.01.38,0,.73,0,1.1l-.72.06c0,.32,0,.63,0,.95-.93.05-1.86-.04-2.79-.04l-.06-.93h-.97l-.02.93s-.08.04-.46.04v-.99s-.61-.02-.72-.02c-.31,0-.62,0-.93,0-.1-.19-.04-.17-.04-.21,0-.26.03-.54.04-.8.23,0,.47,0,.7,0,0-.24.04-.48.06-.72l.68-.06c.02-.38-.06-.74.08-.7.83-.06,1.66-.04,2.49-.04Z"/>
          <path class="cls-43" d="M6.86,10.21c-.07,0-.62.15-1.2.08l-.06-.72c.17,0,.35-.04.51-.04.11,0,.71-.02.74,0,.05.04,0,.57.02.68Z"/>
          <path class="cls-14" d="M2.34,10.34s0,.03,0,.04c-.02.24-.06.48-.06.72-.23,0-.47,0-.7,0,.01-.26-.05-.71.06-.76h.7Z"/>
        </g>
        <path class="cls-19" d="M3.1,9.62c-.15-.04-.06.32-.08.7l-.68.06s0-.03,0-.04c.02-.23-.01-.47,0-.7.06-.08.61.06.72-.11l.04.08Z"/>
        <path class="cls-12" d="M4.75,13.09c.93,0,1.86.09,2.79.04,0,.13.01.91.04.95.04.05.57,0,.68.02,0,.42.1.89.08,1.31,0,.11-.04.08-.04.08,0-.03-.11-.22-.11-.59-1.96,0-3.92-.04-5.87-.04-.15,0-1.43.14-1.48.08-.07-.09.04-.41-.06-.51,0-.11.04-.24.04-.34l.76-.06c0-.3,0-.61,0-.91h.93c.24,0,.48,0,.72,0,.38,0,.44-.04.46-.04.35,0,.7,0,1.06,0Z"/>
        <path class="cls-55" d="M5.38,17.99c-.53,0-1.07,0-1.61,0l.06-.8c1.55.08,1.62-.37,1.54.8Z"/>
        <path class="cls-49" d="M8.25,12.11c0,.67,0,1.32,0,1.99-.11-.02-.64.03-.68-.02-.03-.04-.04-.82-.04-.95,0-.32,0-.63,0-.95l.72-.06Z"/>
        <path class="cls-18" d="M4.75,13.09c-.35,0-.7,0-1.06,0l.02-.93h.97l.06.93Z"/>
        <path class="cls-22" d="M2.51,12.11v1.01h-.93s0-.03,0-.04c0-.32,0-.65,0-.97.31,0,.62,0,.93,0Z"/>
        <path class="cls-18" d="M3.22,13.13c-.24,0-.48,0-.72,0v-1.01c.11,0,.69-.02.72.02v.99Z"/>
        <path class="cls-49" d="M1.58,13.09s0,.03,0,.04c0,.3,0,.61,0,.91l-.76.06c0-.32-.05-.65-.04-.97l.8-.04Z"/>
      </g>
      <path class="cls-57" d="M28.66,12.87s0,.06,0,.08c-.15.02-.74-.04-.8.02-.06.06-.03.76-.04.91,0,.01,0,.03,0,.04-.83.01-1.66,0-2.49-.04.01-.27.14-.94-.04-.97,0,0,0-.03.11-.08,1.09.02,2.19-.05,3.28.04Z"/>
      <path class="cls-24" d="M28.66,12.96c0,.31,0,.62,0,.93h-.85c0-.14-.02-.85.04-.91.07-.06.66,0,.8-.02Z"/>
      <path class="cls-45" d="M28.66,13.89c0,.27-.04.54-.04.8h-.85c.01-.25.03-.51.04-.76,0-.01,0-.03,0-.04h.85Z"/>
      <g>
        <path class="cls-49" d="M4.15,19.59c-.05.3.05.64.04.93,0,0-.08-.01-.08.02,0,.12-.02.8.02.82h1.01c.09-.06-.03-.73-.02-.85.01-.3.05-.63.08-.93.11,0,.69-.02.72.02,0,.32,0,.63,0,.95,0,.12.02.82-.02.85-.67-.05-2.09.07-2.56,0-.07-.29-.05-.64-.04-.93.01-.29.08-.58.04-.87.03-.04.68-.02.8-.02Z"/>
        <path class="cls-40" d="M5.21,19.59c-.04.3-.07.63-.08.93h-.93c0-.29-.09-.63-.04-.93.35-.01.71,0,1.06,0Z"/>
        <path class="cls-43" d="M4.2,20.52h.93c0,.12.11.78.02.85h-1.01s-.02-.71-.02-.82c0-.03.08-.02.08-.02Z"/>
      </g>
      <path class="cls-52" d="M27.82,13.93c-.02.25-.03.51-.04.76-.01.2-.03,1.57-.11,1.61h-.76c.18-1.51-.7-.63-1.06-.89-.09-.16.06-.56-.02-.66-.1-.11-.36-.05-.51-.06,0-.27-.01-.54,0-.8.83.04,1.66.06,2.49.04Z"/>
      <path class="cls-44" d="M21.82,17.61l-.04,1.97,1.8.02.06.89c-.3,0-.59,0-.89,0-.58-.01-1.17-.03-1.75-.04-.04-.03-.02-.87-.02-1.01,0-.32,0-.65,0-.97,0-.12-.02-.81.02-.85.27,0,.55,0,.82,0Z"/>
      <g>
        <path class="cls-7" d="M28.28,27.07c0,.83.09,1.66.04,2.49-.27,0-.56.04-.85.04,0-.28,0-.56,0-.85,0-.27-.04-.53-.04-.8,0-.29,0-.58,0-.87,0-.03.08-.02.08-.02h.76Z"/>
        <path class="cls-30" d="M28.33,25.13c-.02.64-.04,1.3-.04,1.94h-.76c0-.06-.08-.03-.08-.06,0-.63,0-1.25,0-1.88.3,0,.59,0,.89,0Z"/>
      </g>
      <path class="cls-44" d="M23.64,14.69l.04,1.58s-.67.02-.78.02c-.03,0-.02-.08-.02-.08v-1.46c.25-.1.6.01.76-.06Z"/>
      <path class="cls-44" d="M22.71,16.3l.04,1.29s-.72.02-.85.02v-1.25c.05-.11.57-.06.8-.06Z"/>
      <path class="cls-44" d="M25.45,21.33h-.87l-.02-.8c.27,0,.58-.09.87-.04.16.07.01.72.02.85Z"/>
      <path class="cls-44" d="M27.4,24.2l-.82.04c-.11-.05-.05-.57-.06-.85h.91c.09.06-.02.69-.02.8Z"/>
      <path class="cls-44" d="M26.51,22.72l-.95.04s-.01-.64-.02-.76h.91c.09.03.06.6.06.72Z"/>
      <path class="cls-45" d="M25.33,13.89c-.01.27,0,.54,0,.8-.25-.02-.51,0-.76,0v-.85c.25.06.51.03.76.04Z"/>
      <g>
        <path class="cls-32" d="M30.1,18.03c.08.26.04.57.04.85-.26,0-.52,0-.78,0-.04-.03-.02-.65-.02-.76.05,0,.04-.04.04-.08h.72Z"/>
        <path class="cls-21" d="M29.38,18.03s.01.09-.04.08c0-.03,0-.06,0-.08s0-.06,0-.08c.05,0,.04.04.04.08Z"/>
      </g>
      <path class="cls-30" d="M13.37,27.88s.08-.01.08.02c0,.58-.13,1.17,0,1.75-.27,0-.54-.04-.8-.04v-1.69l.72-.04Z"/>
      <path class="cls-30" d="M25.07,27.88v1.73c-.25,0-.51.15-.76.04.08-.59.04-1.19.04-1.77h.72Z"/>
      <path class="cls-30" d="M10.28,25.13c0,.65,0,1.3,0,1.94-.12,0-.81.02-.85-.02l-.04-1.25v-.68c.3,0,.59,0,.89,0Z"/>
      <path class="cls-44" d="M27.02,27.88c-.6.04-1.25-.03-1.86,0l-.04-.8c.75.02,1.51-.01,2.26,0l.02.74c-.07.11-.23.05-.38.06Z"/>
      <path class="cls-13" d="M25.11,27.07l.04.8h-.8c0-.28.04-.57.04-.85.24.03.48.04.72.04Z"/>
      <g>
        <path class="cls-6" d="M25.16,27.88c.61-.03,1.26.04,1.86,0v.04c-.07,0-.26-.02-.3.02v.72l.76.11c0,.28,0,.56,0,.85-.35,0-.7,0-1.06,0-.45,0-.9,0-1.35,0v-.89l.72-.06c-.02-.14.02-.69,0-.72-.04-.05-.61,0-.72-.02v-.04h.08Z"/>
        <path class="cls-59" d="M27.02,27.92c.13-.01.31-.02.42.04,0,.27.03.54.04.8l-.76-.11v-.72s.23-.01.3-.02Z"/>
        <path class="cls-37" d="M25.07,28.72v-.8c.11.02.68-.03.72.02.02.03-.02.58,0,.72l-.72.06Z"/>
      </g>
      <g>
        <path class="cls-35" d="M14.3,29.61c-.27,0-.56.04-.85.04-.13-.58,0-1.18,0-1.75,0-.03-.08-.02-.08-.02,0-.28,0-.57,0-.85,0-.65,0-1.31,0-1.97h.93v4.54Z"/>
        <path class="cls-44" d="M12.61,27.03v.85h-2.24s-.08.01-.08-.02c0-.26,0-.52,0-.78.78.02,1.55-.01,2.32-.04Z"/>
        <path class="cls-13" d="M13.37,27.03c0,.28,0,.57,0,.85l-.72.04-.04-.04v-.85c.25-.01.51,0,.76,0Z"/>
      </g>
      <g>
        <path class="cls-6" d="M12.61,27.88l.04.04v.04c-.82-.15-.72-.06-.66.76h.66v.89c-.24,0-.48,0-.72,0-.54,0-1.07,0-1.61,0-.01-.3,0-.59,0-.89.11-.02.64.03.68-.02.02-.03.02-.73,0-.76-.04-.05-.53,0-.63-.02,0-.01,0-.03,0-.04h2.24Z"/>
        <path class="cls-59" d="M10.37,27.92c.1.02.6-.03.63.02.02.03.02.73,0,.76-.04.05-.57,0-.68.02,0-.25-.04-.52-.04-.78,0-.03.08-.02.08-.02Z"/>
        <path class="cls-59" d="M12.65,27.96v.76h-.66c-.06-.82-.16-.91.66-.76Z"/>
      </g>
      <path class="cls-1" d="M13.24,11.82c0,.35-.04.72-.04,1.06l-.85.06v.99l-.04.04h-2.43c-.09-.04-.08-.76-.06-.89,0-.01.11-.02,0-.27l.13-.06h2.39s.02-.8.02-.93h.89Z"/>
      <path class="cls-44" d="M14.93,16.3c-.12,0-.78.11-.85.02.04-.53-.03-1.06-.04-1.58,0-.01,0-.03,0-.04l.89.06v1.54Z"/>
      <path class="cls-44" d="M15.9,17.48l-.89.02.04-1.16c.25,0,.8-.05.85.06.02.36-.02.72,0,1.08Z"/>
      <path class="cls-50" d="M13.2,12.87c0,.36.03.74.04,1.1l-.89-.04v-.99l.85-.06Z"/>
      <path class="cls-44" d="M13.24,20.52l-.06.85h-.82s-.1-.55-.02-.89c.09-.06.77.05.91.04Z"/>
      <path class="cls-44" d="M11.25,23.44c0,.12.03.77-.02.8h-.91c0-.12-.11-.73.02-.8h.91Z"/>
      <path class="cls-44" d="M11.34,22.76c.02-.14-.03-.68.02-.72l.91-.04c0,.12.02.73-.02.76h-.91Z"/>
      <g>
        <path class="cls-44" d="M16.87,18.45c0,.32-.03.69-.04,1.01,0,.14.02.98-.02,1.01-.6,0-1.2,0-1.8,0-.28,0-.56,0-.85,0l.02-.85,1.8-.06c.02-.67,0-1.34-.04-2.01h.87c0,.29.06.6.06.89Z"/>
        <g>
          <path class="cls-2" d="M13.24,13.97c0,.12-.02.77.02.8l.78-.04c.01.53.08,1.06.04,1.58.06.09.73-.03.85-.02.03,0,.04.04.13.04l-.04,1.16.89-.02s.04.04.04.08c.04.67.06,1.34.04,2.01l-1.8.06-.02.85c-.31,0-.62.03-.93.04-.14,0-.82-.1-.91-.04-.08.33.02.84.02.89,0,0-.08-.01-.08.02-.01.2,0,.41,0,.61l-.91.04c-.05.04,0,.58-.02.72,0,.04-.05.15-.08.68h-.91c-.13.08-.02.68-.02.8-.01.3-.04.59-.04.89-.3,0-.59,0-.89,0-.03,0-.06,0-.08,0,.14-.16.08-.55.08-.89,0-.67,0-1.34,0-2.01-.03-.04-.72-.02-.85-.02-.04,0-.04-.04-.08-.04-.02-.11.03-.68-.02-.72-.03-.02-.7,0-.82,0-.28,0-.57.03-.85-.04.02-.28,0-.57,0-.85,0-.31,0-.62,0-.93l.76-.06-.04-.78s.03,0,.04,0c.12,0,.73.02.76-.02v-.78c0-.05.04-.04.04-.04.12-.1.67,0,.72-.06,0-.44-.01-.89,0-1.33,0-.39,0-.76,0-1.14,0-.2,0-.39,0-.59h.87l.08.85h2.24l.06-1.69.04-.04.89.04Z"/>
          <path class="cls-33" d="M6.84,20.52l.74.06-.06.74-.7-.02.02-.78Z"/>
        </g>
      </g>
      <path class="cls-24" d="M25.28,12.92c.18.03.05.7.04.97-.25-.01-.51.02-.76-.04v-.93c.31-.08.68,0,.72,0Z"/>
      <g>
        <path class="cls-40" d="M27.82,11.01c-.04.27.03.54.04.8.01.3,0,.61,0,.91-.05.11-.52.05-.76.06l-.02-.97-.95.06v.91c-.11,0-.73.02-.76-.02.05-.3-.05-.62-.04-.91,0-.27.07-.57.06-.85.81-.02,1.62.03,2.43,0Z"/>
        <path class="cls-60" d="M27.1,12.79c-.32.01-.65.01-.97,0v-.91l.95-.06.02.97Z"/>
      </g>
      <g>
        <path class="cls-49" d="M31.88,19.64c.22.01.45,0,.68,0-.06.73.08.84.08.89,0,.11-.14.75-.06.8h.97c.01-.27.04-.53.06-.8.03-.3.07-.59.04-.89.25,0,.52.05.76.04l-.02,1.73h-2.58s-.02-.61-.02-.72c-.01-.43-.04-1.1.08-1.06Z"/>
        <path class="cls-40" d="M33.65,19.64c.02.3-.01.59-.04.89h-.97s-.15-.15-.08-.89c.37,0,.73,0,1.1,0Z"/>
        <path class="cls-43" d="M33.61,20.52c-.03.27-.05.53-.06.8h-.97c-.07-.05.07-.7.06-.8h.97Z"/>
      </g>
      <path class="cls-6" d="M11.55,9.28c2.78,0,1.35-.28,1.61,2.35l-.06.11h-.74c0-.22.02-.56,0-.72,0,0,.09,0,.02-.08l-.78-.02-.06-.78h-.93l-.04.8c-.23-.09-1.31.2-1.44.04-.05-.06-.1-1.39-.11-1.58.03-.06,1.19-.1,1.35-.11.39-.02.79,0,1.18,0Z"/>
      <path class="cls-55" d="M11.55,9.28c-.39,0-.79-.02-1.18,0l.02-.8h1.14l.02.8Z"/>
      <path class="cls-30" d="M19.87,18.45c0,.32,0,.65,0,.97-.71-.01-1.41.03-2.11.04.01-.33.08-.68.04-1.01h2.07Z"/>
      <g>
        <path class="cls-59" d="M23.76,11.44c.02.48,0,.96,0,1.44l-.93-.02v-1.35l.93-.06Z"/>
        <g>
          <path class="cls-46" d="M21.9,9.83c0,.12-.02.81.02.85.27,0,.55,0,.82,0,.32.01.63,0,.95,0,.11.05.05.52.06.76l-.93.06v1.35l.93.02c0,.58,0,1.16,0,1.73-.07.1-.08.06-.13.08-.17.08-.51-.03-.76.06v1.46c-.06,0,.02.08-.17.08-.24,0-.75-.05-.8.06v1.25s-.06,0-.08,0c-.27,0-.55,0-.82,0-.04.03-.02.72-.02.85h-4.1c0-.29-.06-.6-.06-.89h-.87s-.04-.04-.04-.08c-.02-.36.02-.72,0-1.08-.05-.11-.6-.05-.85-.06-.09,0-.09-.04-.13-.04v-1.54l-.89-.06c-.01-.61.03-1.21.04-1.82l.89-.02v-2.13c.7-.02,1.39-.07,2.09-.04l.08-.89,4.75.04Z"/>
          <path class="cls-55" d="M17.95,15.49h1.69l.02.82-1.67.02-.04-.85Z"/>
        </g>
      </g>
      <path class="cls-51" d="M14.97,11.56v1.29l-.89.02c0-.44-.01-.87,0-1.31h.89Z"/>
      <path class="cls-7" d="M20.97,18.45c0,.32,0,.65,0,.97-.37.11-.74,0-1.1,0,0-.32,0-.65,0-.97h1.1Z"/>
      <path class="cls-30" d="M14.97,10.72v.85h-.89c0-.3-.02-.59.02-.89.08-.06.73.05.87.04Z"/>
      <g>
        <path class="cls-17" d="M14.17,20.48c.28,0,.56,0,.85,0-.15,1.39.39.65.82.85.11.1.05.45.06.78,0,.03.08.02.08.02,0,.04-.17.16-.06.8l.91-.04s0,.03,0,.04c0,.1-.04.76.02.8.37-.01.75,0,1.12,0,.65,0,1.29-.03,1.94-.04.18,0,.81.11.95.04l.08-.8c1.15.04.79.03.82-.8.01-.26.06-.54.06-.8l.91-.06v-.78c.3,0,.59,0,.89,0,.31,0,.62.03.93.04l.02.8h.87c.01.22.07.45.08.68.01.12-.03.73.02.76l.95-.04c0,.23-.01.44,0,.68.01.27-.05.8.06.85l.82-.04c0,.31.04.62.04.93,0,.63,0,1.25,0,1.88,0,.03.08,0,.08.06,0,0-.08-.01-.08.02,0,.29,0,.58,0,.87-.11-.06-.3-.05-.42-.04v-.04c.15-.01.31.04.38-.06l-.02-.74c-.75-.01-1.51.02-2.26,0-.24,0-.48-.01-.72-.04,0-.65-.08-1.31-.04-1.97h-.93v4.54c-3.04,0-6.09,0-9.13,0v-4.54h-.93c0,.65,0,1.31,0,1.97-.25,0-.51-.01-.76,0-.78.03-1.55.06-2.32.04,0-.65,0-1.3,0-1.94,0-.3.03-.59.04-.89h.91s.01-.68.02-.8c.03-.52.08-.64.08-.68h.91s.02-.64.02-.76c0-.2-.01-.41,0-.61,0-.03.08-.02.08-.02h.82l.06-.85c.31,0,.62-.04.93-.04Z"/>
        <path class="cls-35" d="M24.4,27.03c0,.27-.04.57-.04.85,0,.59.04,1.19-.04,1.77-.29.04-.6-.04-.89-.04v-4.54h.93c-.04.65.04,1.31.04,1.97Z"/>
        <path class="cls-17" d="M21.78,22.13c-.03.83.33.84-.82.8l-.08.8c-.14.06-.77-.05-.95-.04l.06-.8h.89l.08-.8.82.04Z"/>
        <path class="cls-17" d="M17.97,23.73c-.37,0-.75-.01-1.12,0-.06-.04-.02-.7-.02-.8h.91c.09.43-.13.87.23.8Z"/>
        <path class="cls-17" d="M16.83,22.89l-.91.04c-.1-.64.06-.76.06-.8h.78c.11.05.05.52.06.76Z"/>
      </g>
      <g>
        <path class="cls-40" d="M12.35,11.01c.02.16,0,.5,0,.72,0,.03,0,.06,0,.08,0,.13.02.9-.02.93h-2.39c-.13.05-.09-.46-.08-.89,0-.12-.02-.82.02-.85h2.47Z"/>
        <path class="cls-60" d="M10.64,11.82h.89l.06.82-.99.02.04-.85Z"/>
      </g>
      <g>
        <path class="cls-7" d="M17.8,18.45c.04.34-.03.68-.04,1.01-.31,0-.62,0-.93,0,0-.32.05-.7.04-1.01h.93Z"/>
        <path class="cls-46" d="M20.97,19.42c0,.14-.02.98.02,1.01.58.01,1.17.03,1.75.04v.78l-.91.06c0,.26-.05.54-.06.8l-.82-.04-.08.8h-.89l-.06.8c-.65.01-1.29.05-1.94.04-.36.07-.14-.37-.23-.8h-.91s0-.03,0-.04c0-.25.05-.71-.06-.76h-.78s-.08.01-.08-.02c-.01-.33.05-.68-.06-.78-.44-.19-.97.54-.82-.85.6,0,1.2,0,1.8,0,.04-.03.02-.87.02-1.01.31,0,.62,0,.93,0,0,.31,0,.62,0,.93,0,.22-.04,1.64.06,1.69h1.94c.11-.05.06-1.5.06-1.73,0-.31.03-.62.04-.93.36,0,.73.11,1.1,0Z"/>
        <g>
          <path class="cls-12" d="M19.87,19.42c0,.31-.03.62-.04.93l-2.07.04c0-.31,0-.62,0-.93.71-.01,1.41-.06,2.11-.04Z"/>
          <path class="cls-28" d="M19.83,20.35c0,.23.05,1.68-.06,1.73h-1.94c-.11-.05-.06-1.47-.06-1.69l2.07-.04Z"/>
        </g>
      </g>
    </g>
  </g>
</svg>