<?xml version="1.0" encoding="UTF-8"?>
<svg id="Layer_2" data-name="Layer 2" xmlns="http://www.w3.org/2000/svg" xmlns:xlink="http://www.w3.org/1999/xlink" viewBox="0 0 38.92 31.11">
  <defs>
    <style>
      .cls-1 {
        fill: #b28999;
      }

      .cls-1, .cls-2, .cls-3, .cls-4, .cls-5, .cls-6, .cls-7, .cls-8, .cls-9, .cls-10, .cls-11, .cls-12, .cls-13, .cls-14, .cls-15, .cls-16, .cls-17, .cls-18, .cls-19, .cls-20, .cls-21, .cls-22, .cls-23, .cls-24, .cls-25, .cls-26, .cls-27, .cls-28, .cls-29, .cls-30, .cls-31, .cls-32, .cls-33, .cls-34, .cls-35, .cls-36, .cls-37, .cls-38, .cls-39, .cls-40, .cls-41, .cls-42, .cls-43, .cls-44, .cls-45, .cls-46, .cls-47, .cls-48, .cls-49, .cls-50, .cls-51, .cls-52, .cls-53, .cls-54, .cls-55, .cls-56 {
        stroke-width: 0px;
      }

      .cls-2 {
        fill: #edba65;
      }

      .cls-3 {
        fill: #178ea6;
      }

      .cls-4 {
        fill: #d7adbe;
      }

      .cls-5 {
        fill: #af8279;
      }

      .cls-6 {
        fill: #d1919d;
      }

      .cls-7 {
        fill: url(#linear-gradient);
      }

      .cls-8 {
        fill: #171f1b;
      }

      .cls-9 {
        fill: #d9ac89;
      }

      .cls-10 {
        fill: #c6cfd8;
      }

      .cls-11 {
        fill: #2c8961;
      }

      .cls-12 {
        fill: #101312;
      }

      .cls-13 {
        fill: #29bfc8;
      }

      .cls-14 {
        fill: #dca4aa;
      }

      .cls-15 {
        fill: #bdbdc1;
      }

      .cls-16 {
        fill: #dda358;
      }

      .cls-17 {
        fill: #d9c375;
      }

      .cls-18 {
        fill: #1d1715;
      }

      .cls-19 {
        fill: #eee9e1;
      }

      .cls-20 {
        fill: #023a57;
      }

      .cls-21 {
        fill: #a7dde6;
      }

      .cls-22 {
        fill: #6091a6;
      }

      .cls-23 {
        fill: #cfcdcb;
      }

      .cls-24 {
        fill: #0f1a20;
      }

      .cls-25 {
        fill: #356b7a;
      }

      .cls-26 {
        fill: #687a76;
      }

      .cls-27 {
        fill: #f1caa9;
      }

      .cls-28 {
        fill: #676666;
      }

      .cls-29 {
        fill: url(#linear-gradient-2);
      }

      .cls-30 {
        fill: #0f323a;
      }

      .cls-31 {
        fill: #0c4b65;
      }

      .cls-32 {
        fill: #0b7592;
      }

      .cls-33 {
        fill: #d8b3b2;
      }

      .cls-34 {
        fill: #009595;
      }

      .cls-35 {
        fill: #5cc8d9;
      }

      .cls-36 {
        fill: #e8d7b5;
      }

      .cls-37 {
        fill: #a4b3b8;
      }

      .cls-38 {
        fill: #edd1cb;
      }

      .cls-39 {
        fill: #21adc2;
      }

      .cls-40 {
        fill: #3d1c15;
      }

      .cls-41 {
        fill: #9dcdd8;
      }

      .cls-42 {
        fill: #c2d9ed;
      }

      .cls-43 {
        fill: #c6705d;
      }

      .cls-44 {
        fill: #07293f;
      }

      .cls-45 {
        fill: #a9dacb;
      }

      .cls-46 {
        fill: #0a6886;
      }

      .cls-47 {
        fill: #dbb47f;
      }

      .cls-48 {
        fill: #3e7a70;
      }

      .cls-49 {
        fill: #d5ddf1;
      }

      .cls-50 {
        fill: #e0c78e;
      }

      .cls-51 {
        fill: #cde6e9;
      }

      .cls-52 {
        fill: #78ced7;
      }

      .cls-53 {
        fill: #ecedef;
      }

      .cls-54 {
        fill: #efda98;
      }

      .cls-55 {
        fill: #34c2db;
      }

      .cls-56 {
        fill: #ca9e6b;
      }
    </style>
    <linearGradient id="linear-gradient" x1="22.16" y1="24.07" x2="21.01" y2="24.15" gradientUnits="userSpaceOnUse">
      <stop offset="0" stop-color="#161a2c"/>
      <stop offset="1" stop-color="#141a1d"/>
    </linearGradient>
    <linearGradient id="linear-gradient-2" x1="33.91" y1="19.62" x2="32.77" y2="19.7" xlink:href="#linear-gradient"/>
  </defs>
  <g id="Layer_1-2" data-name="Layer 1">
    <g>
      <g>
        <path class="cls-24" d="M6.97,24.07l.05.66c.24.04.61-.04.64-.04.63.03.67-.07.63.66v.04c-.12.01-.24-.03-.35.05-.05.88.21,1.18-.38,1.08-.03-.2.01-.58,0-.84,0-.07.02-.34-.02-.37-1.08.16-.46-.51-.7-.62-.45-.04-1.83.05-2.04,0-.02,0-.06.01-.1-.05l-.02-.49c-.24,0-.48,0-.71,0-.39-.01-.79,0-1.18,0l.05-.69,3.52.04c.12.05,0,.54.07.58.02.02.45,0,.54,0Z"/>
        <path class="cls-24" d="M22.57,16.59c0,.17,0,.34,0,.51,0,.41-.01.83,0,1.24,0,.1-.02.63.02.66.22.04,1.6-.05,1.67,0,.06.05-.05.49.07.55.93-.04,1.01.22.96-.55.21,0,.43,0,.64,0,.09.07.04.29.05.51,0,.1-.02.67.02.69h.68c.02.34.01.61,0,.95-.25,0-.51.01-.77,0v-.89c-.04-.09-.4-.05-.59-.05-.19,0-.38.04-.56.04-.16,0-.36-.06-.52-.07-.02-.14.02-.51,0-.57-.04-.09-.36-.05-.45-.05-.41-.03-.84-.02-1.25-.04-.01-.09.03-.48-.02-.51-.02-.02-.37.01-.47,0-.02-.8-.05-1.59-.03-2.39l.56-.02Z"/>
        <path class="cls-53" d="M25.25,11.34c-.16,0-.33,0-.49,0-.12.04-.05-.25-.07-.57-.05-.12-.46-.02-.5-.05-.05-.04.02-.44-.03-.47-.06-.05-1.5-.05-1.57,0-.03.02-.03.49,0,.51.06.05,1.3-.03,1.5,0,.03.03.02.53.02.62-.54,0-1.07-.03-1.6-.04l-.02-.51c-.75-.04-1.5.07-2.25.04l-.03-.62c.77-.03,1.54-.13,2.32-.07l.07-.58h1.6c-.06,1.07.29.51.49.66.16.12-.35.54.57.57.01.17-.01.36,0,.53Z"/>
        <path class="cls-24" d="M3.56,9.69c-.09.78.11.54,1.13.51l.07.62h2.09l.07-.62h.64v.4c-.07,0-.58.1-.59.13l.02.6h-2.8l-.02-.62c-.2,0-.41,0-.61,0-1.11-.04-1.13-.1-1.08.6-.84-.1-.52.44-.52,1.19,0,.36.02.75,0,1.11,0,.03-.07.01-.07.02l-.52.05v.6s-.05,0-.07,0c-.08,0-.43.02-.45-.02-.02-.03.01-.52,0-.64.09,0,.07-.04.07-.04.02,0,.11.06.44.04.03-.01.01-.07.02-.07.03,0,.29.08.52.02.04-.75-.09-1.5-.03-2.24,0-.03.11.1.07-.62.02,0,.05,0,.07,0,.13,0,.27,0,.4,0,.04-1.05.72.11.68-.99,0,0-.01-.07.02-.07.35-.02.45.04.47.04Z"/>
        <path class="cls-24" d="M25.91,13.64c0,.2-.04.65.05.69h.64c.01.17.03.33.03.51,0,.16,0,.32,0,.47,0,0,.01.07-.02.07-.1,0-.62-.02-.64.02l-.05,1.04c-.19.02-.42-.02-.61,0-.08-.15,0-.43-.05-.47-.04-.03-.8.02-.94,0l-.1.55h-1.62s-.18-.14-.02-.55c.39-.01.78.01,1.17,0,.08,0,.46.02.49-.02.03-.04-.03-.53.02-.57.07-.05,1.6.08,1.65-.05v-.99s-.53-.01-.63-.02c.02-.4-.04-.66-.03-.69,0-.1.03-.07.03-.07-.04.11.28.07.63.07Z"/>
        <path class="cls-53" d="M4.18,18.31c0,.21,0,.43,0,.64l.56.05c0,.09.09.53.02.58-.2,0-.39,0-.59,0-.03,0-.01-.07-.02-.07-.01-.09.03-.48-.02-.51-.07-.05-1.45.04-1.67,0-.1.59-.06.56.47.58l-.02.62c-.58.06-.84-.07-.89-.07.09-.82-.11-.48-1.17-.55-.06.05.05.53-.07.58-.42.19-.39-.24-.37-.55,0,0,.03-.04.03-.04.22-.09.4.27.35-.58.53-.05,1.05-.04,1.58-.04l.07-.66h1.72Z"/>
        <path class="cls-53" d="M15.78,5.53l-.03.55c-.13,0-.25-.04-.31.05,0,.19,0,.38,0,.57h-.21c-.68-.04-.36.02-.49.62-.79.04-1.58-.03-2.37,0,0-.03-.03-.04-.03-.07,0-.18,0-.35,0-.53-.03-.04-.28-.01-.35-.02-.17-.01-.35.04-.42-.05,0-.18,0-.35,0-.53,0-.01,0-.02,0-.04h.78c.12.05,0,.54.07.58.09.07,1.98-.05,2.26,0,.23-.11-.35-.74.63-.58.11-.05.02-.48.05-.53.03-.04.35-.01.42-.02Z"/>
        <path class="cls-12" d="M16.13,29.26c.19-.03.26.04.28.04v.11l.02.55h2.72s.09-.51.09-.58c.13,0,.26,0,.38,0,.23,1.17-.5-.03-.4,1.2h-1.11c-.23.11.35.65-.66.51,0-.71,0-.5-.99-.49.15-1.26-.71.06-.56-1.22l.09-.11c.12.1.15,0,.16,0Z"/>
        <path class="cls-53" d="M7.56,9.66s0,.07,0,.11v.44h-.64l-.07.62h-2.09l-.07-.62c-1.02.03-1.22.27-1.13-.51,0,0-.01-.07.02-.07.15,0,1.1-.03,1.15,0,.05.04-.02.51.03.55.09.06,2,.06,2.09,0,.17-.13-.42-.65.71-.51Z"/>
        <path class="cls-53" d="M15.01,28.75c.14.02.31-.01.45,0,0,.02.06.21.03.47-.05,0-.03.07-.05.07-.1,0-.7.02-.73,0-.05-.04.02-.44-.03-.47-.09-.07-2.17-.07-2.26,0-.06.05.05.49-.07.55-.25,0-.5,0-.75,0,0-.21,0-.43,0-.64.02-.04.07-.01.1-.02.47-.12.53.33.61-.51.31.06,2.37-.07,2.47,0,.13.1-.2.49.23.55Z"/>
        <path class="cls-12" d="M8.5,29.99c.79-.02,1.58.02,2.37,0,.18,1.29-.8,0-.71,1.1h-.94c-.25-.12.53-.72-1.18-.47-.16-.38.02-.59.02-.62h.45Z"/>
        <path class="cls-53" d="M7.56,25.68c-1.05.1-.58-.27-.71-.37-.08-.06-1.73.05-1.98,0-.11.05,0,.5-.07.55-.05.03-.97.03-1.11.04-.03,0-.01-.07-.02-.07-.08-.76.08-.45,1.06-.51.02-.15.04-.29.05-.44.01-.12-.07-.11.03-.18.21.05,1.58-.04,2.04,0,.24.11-.38.78.7.62.04.03.01.3.02.37Z"/>
        <path class="cls-12" d="M1.29,15.39c.24,0,.46.02.7.04.01.16-.01.32,0,.47,0,.06-.01.08.07.07-.07,0-.14,0-.21,0-1.01.02-1.16-.18-1.08.47-.11-.01-.56.03-.59-.02-.03-.29.08-.74-.07-.93v-1.17s.05,0,.07,0c.24-.05.37,0,.61,0l-.02,1.04s.44.02.52.02Z"/>
        <path class="cls-53" d="M22.46,24.7s.04.03.03.11c0,.15-.07.33-.03.49.11.17.75-.36.59.57-.29,0-.59.07-.89.04l-.1-.58c-.63.01-1.27-.02-1.9,0,.01-.19,0-.39,0-.58l.03-.04h2.26Z"/>
        <path class="cls-13" d="M17.35,4.95s.05,0,.07,0l.05.62c.19,0,.38,0,.57,0-.24.82.36.67.45.57.02-.02-.1-.59.07-.49-.04.52.07.45.07.47,0,.03-.1.41,0,.58-.11,0-.68-.02-.71,0-.05.04.02.29-.03.33-.05.04-.84-.06-1.15.04-.07-.16.02-.42.02-.44.11-.02.61.06.66-.05.17-.37-.34-.29-.52-.35.19-.02.48.04.52-.05v-.58c-.19-.06-.39-.04-.59-.05-.02,0-.05,0-.07,0v-.58s.04-.04.07-.04c.16,0,.35.04.52.04Z"/>
        <path class="cls-12" d="M2.02,20.13s.11.07-.59.07c-.8,0-.56-.18-.59.89.11.25.71-.4.56.71-.03,0-.14.05-.52.04-.02,0-.05,0-.07,0v-.68l-.63-.02s-.1.01-.1-.02c-.13-1.33.25-.89.31-.99.03-.05-.05-.41.03-.53-.03.31-.05.74.37.55.12-.05,0-.54.07-.58,1.06.06,1.25-.27,1.17.55Z"/>
        <path class="cls-53" d="M25.32,16.45s-.07.12-.64.07c-.05.04.02.54-.03.58-.08.06-1.81-.05-2.07,0,0-.17,0-.34,0-.51,0-.03.04-.04.03-.07h1.62l.1-.55c.14.02.9-.03.94,0,.06.04-.03.33.05.47Z"/>
        <path class="cls-53" d="M25.28,19c.06.77-.03.5-.96.55-.11-.05,0-.5-.07-.55-.07-.05-1.45.04-1.67,0-.04-.03-.01-.56-.02-.66h1.72l.03.66c.32,0,.64,0,.96,0Z"/>
        <path class="cls-12" d="M10.17,4.91s-.09.05-.1.15c.01-.04-.02-.1-.05-.11-.59-.14-.28.54-.38.62-.35,0-.71,0-1.06,0-.09,0-.55-.02-.57,0-.04.03,0,.39-.02.47-.02,0-.13.03-.45.04-.04-.09-.05-.37-.03-.44.09-.35.58.31.5-.66.22-.07,1.5.01,1.57-.04.14-.1-.33-.6.59-.47.03.02.02.38.02.44Z"/>
        <path class="cls-12" d="M2.51,24.84c.49.01.98,0,1.46,0,.26,0,.55-.03.8.04-.01.15-.04.29-.05.44-.98.06-1.14-.25-1.06.51-.22,0-.44.04-.66.04.16-1.15-.71.03-.7-1.02.06,0,.15,0,.21,0Z"/>
        <path class="cls-12" d="M4.74,16.59s.02,0,.03,0c.02.8-.01,1.61-.03,2.41l-.56-.05c0-.21,0-.43,0-.64-.01-.38-.01-.78,0-1.17,0-.08-.02-.52.02-.55.18,0,.36,0,.54,0Z"/>
        <path class="cls-53" d="M4.77,16.08l-.03.51c-.18,0-.36,0-.54,0-.04.03-.01.46-.02.55h-1.69l-.05-.62c.22,0,1.62.05,1.69,0,.02-.02.03-.39.02-.44.21-.09.42-.01.63,0Z"/>
        <path class="cls-18" d="M25.25,11.34c.03.4.03.77.03,1.17,0,.35,0,.71,0,1.06,0,0-.03-.02-.03.07h-.52c-.02-.37-.03-.72-.03-1.1,0-.39,0-.78,0-1.17.09,0,.07-.04.07-.04.16,0,.33,0,.49,0Z"/>
        <path class="cls-18" d="M1.47,21.88c.17.01.35,0,.52,0,0,.31-.02,2.1,0,2.21,0,.03.07.07.1.05,0,0-.15.07-.17.07-.03,0,.12-.11-.45-.07,0,0-.07.01-.07-.02,0-.37,0-.74,0-1.11,0-.41-.04-1.12.07-1.13Z"/>
        <path class="cls-18" d="M25.21,21.88c0,.38,0,.75,0,1.13,0,.38,0,.75-.03,1.13-.1.02-.44-.05-.49.05-.02.06.02.45,0,.6-.02,0-.05,0-.07,0h-.45s0-.05,0-.07l.45-.02c.03-.19-.04-.54-.03-.57,0,0,.07.01.07-.02.04-.74-.02-1.5,0-2.24.19,0,.37,0,.56,0Z"/>
        <path class="cls-12" d="M6.48,27.8c0,.11,0,.22,0,.33,0,.2,0,.4,0,.6l.56.05h.45v.55c-.84-.04-1.15.36-1.04-.53-.16,0-.33-.05-.49-.05v-.95c.17-.03.35-.09.52,0Z"/>
        <path class="cls-40" d="M1.85,11.34c-.06.74.08,1.5.03,2.24-.23.06-.5-.02-.52-.02v-1.06c-.02-.39,0-.78.03-1.17h.45Z"/>
        <path class="cls-12" d="M24.14,24.88c0,.13,0,.27,0,.4,0,0,.02.04-.07.04-.09,0-.48-.03-.52.05-.02.05.02.36,0,.49-.16,0-.33,0-.49,0,.16-.92-.48-.4-.59-.57-.04-.16.03-.34.03-.49.38.04,1.43-.05,1.62,0,.03,0,.02.05.02.07Z"/>
        <path class="cls-53" d="M.84,13.64c.01.12-.02.61,0,.64.03.04.38.01.45.02v1.1c-.08,0-.5.02-.52-.02l.02-1.04c-.23,0-.37-.05-.61,0l.05-.69c.2,0,.41.01.61,0Z"/>
        <path class="cls-24" d="M4.15,16.08s0,.42-.02.44c-.07.05-1.47,0-1.69,0-.19,0-.37,0-.56,0v-.04h.57l.02-.51c.54,0,1.08,0,1.62,0,.07.05.05.09.05.11Z"/>
        <path class="cls-24" d="M20.17,24.73c0,.19.01.39,0,.58-.21,0-.43,0-.64,0-.12.11-.02.35-.02.44,0,.29,0,.57,0,.86l.57.02s0,.39.02.47c.05.11-.51.09-.54.07-.11-.05-.01-.39-.07-.44-.03-.02-.37.03-.4-.02-.01-.02,0-.41,0-.49,0-.28,0-.56,0-.84.05,0,.44-.17,1.03-.11l-.02-.58s.07-.01.07.04Z"/>
        <path class="cls-31" d="M19.43,9.58c-.02.22-.09.44,0,.66-.09.03-.1.07-.1.07-.36.02-.72-.01-1.08,0l.02-.73c.29.03.54-.02.82-.07.07-.01.32.03.35-.02l.03-.68c.03.25-.02.52-.03.77Z"/>
        <path class="cls-24" d="M15.99,27.76s.02,0,.03,0c.04.51-.1,1.53.1,1.5,0,0-.04.1-.16,0l-.09.11c.03-.12-.14-.06-.37-.07-.03,0-.01-.07-.02-.07.03-.27-.03-.45-.03-.47,0-.3.07-.62.03-.93.07-.1.28-.04.49-.05Z"/>
        <path class="cls-31" d="M8.29,25.39c.19-.02.4.01.59,0,0,.16.04.34.03.47,0,.1-.06.22-.02.33-.21-.02-.4.02-.61.04-.28.03-.34-.19-.31.33-.13.01-.25.04-.38.04,0-.03-.03-.04-.03-.07.59.1.33-.2.38-1.08.11-.08.23-.04.35-.05Z"/>
        <path class="cls-53" d="M25.39,21.85c.16,0,.33,0,.49,0v1.11l-.66.05c0-.38,0-.75,0-1.13.03,0,.17-.04.17-.04Z"/>
        <path class="cls-24" d="M21.25,6.48c0,.13,0,.27,0,.4,0,.27,0,.54,0,.8-.2,0-.41,0-.61,0-.02.98-.42.43-.54.6-.12.17.35.6-.59.49v-.04c-.18-1.16.78.04.63-1.02.02,0,.14-.05.35-.05v-.89s.08-.02.24-.04c.03.14-.17.03-.21.09-.02.03.02.71,0,.84l.64-.02c.07-.41-.07-1.1.09-1.17Z"/>
        <path class="cls-12" d="M18.63,4.98c.02.29-.05.55.07.51v.04s-.11.07-.14.07c-.16,0-.36-.03-.52-.04-.19,0-.38,0-.57,0l-.05-.62s.02,0,.03,0c.4,0,.79.02,1.18.04Z"/>
        <path class="cls-24" d="M6.27,6.7c.2.3-.18.54.52.47-.05.13-.47-.04-.21.47-.22.04-.16.24-.17.44.05-.1-.19-.08-.45-.07-.03,0-.04-.04-.07-.04v-1.24s.04-.03.07-.04c.09-.01.21,0,.31,0Z"/>
        <path class="cls-10" d="M7.53,27.21s.03-.02.03.07c0,.29-.03.56-.03.84-.16,0-.33,0-.49,0-.19,0-.33-.08-.56,0,0-.11,0-.22,0-.33,0,0,.03.04.03-.11,1.02.14-.06-.62,1.01-.47Z"/>
        <path class="cls-53" d="M25.91,13.64c-.34,0-.67.04-.63-.07,0-.35,0-.71,0-1.06l.63.02c0,.37-.01.74,0,1.11Z"/>
        <path class="cls-18" d="M21.25,6.48c-.16.07-.01.76-.09,1.17l-.64.02c.02-.13-.02-.81,0-.84.04-.06.24.04.21-.09.07,0,.32.02.35-.02l.1-.6.07.05c0,.1,0,.21,0,.31Z"/>
        <path class="cls-18" d="M20.79,27.8c.06,0,.36-.01.38.02,0,.13,0,.26,0,.38,0,.16,0,.32,0,.47l-.07.07c-.1,0-.21,0-.31,0-.43,0-.29-.07-.31-.07-.02-.21.03-.65,0-.77.07-.11.19-.11.31-.11Z"/>
        <path class="cls-53" d="M20.27,6.12h-.45c-.17-.02-.4.02-.56,0-.1-.02-.04-.04-.1-.07,0-.15,0-.29,0-.44.05,0,.03-.07.05-.07.34,0,.67,0,1.01,0,.09.04.04.38.05.58Z"/>
        <path class="cls-38" d="M1.47,21.88c-.11.01-.07.72-.07,1.13-.77.08-.47-.08-.52-1.17.38.01.5-.04.52-.04,0,0,.06.07.07.07Z"/>
        <path class="cls-12" d="M7.53,26.63c0,.19,0,.39,0,.58-1.07-.14.01.61-1.01.47,0-.02-.08-.39-.03-.46.04-.06.45.02.49-.04.04-.06-.07-.58.05-.64.55-.04.48.07.5.07Z"/>
        <path class="cls-53" d="M1.85,15.97l.03.51v.04c-.34,0-.75.03-1.06,0-.03,0,0-.07-.05-.07-.08-.65.07-.46,1.08-.47Z"/>
        <path class="cls-53" d="M3.07,9.73c.04,1.1-.64-.06-.68.99-.13,0-.27,0-.4,0-.06,0-.05-.44-.03-.46.04-.06.41.02.45-.04.04-.06-.06-.51.05-.57.59-.05.58.07.61.07Z"/>
        <path class="cls-53" d="M2.3,24.84c-.02,1.05.86-.13.7,1.02-.21,0-.43,0-.64,0-.11-.05-.01-.47-.05-.53-.07-.1-.55.22-.35-.49.11.01.23,0,.35,0Z"/>
        <path class="cls-53" d="M26.68,21.15c0,.11.11.63-.02.69-.26,0-.52-.01-.78,0v-.69s.02,0,.03,0c.25.01.51,0,.77,0Z"/>
        <path class="cls-23" d="M21.18,6.12l-.1.6s-.28.01-.35.02c-.16.01-.23.04-.24.04s-.04-.04-.24-.04c.06-.16.03-.37.03-.55,0-.18.83-.12.91-.07Z"/>
        <path class="cls-53" d="M1.36,12.5v1.06s.01.06-.02.07c-.33.02-.41-.04-.44-.04.05-.98-.23-1.18.45-1.1Z"/>
        <path class="cls-24" d="M20.06,10.24s.09,0,.14,0l.03.62s-.05,0-.07,0c-.97-.05-.85.07-.84-.55,0,0,.01-.04.1-.07.21,0,.42,0,.63,0Z"/>
        <path class="cls-42" d="M21.25,7.69c0-.27,0-.54,0-.8l.63.02v.77s-.53.01-.63.02Z"/>
        <path class="cls-53" d="M26.61,14.33h-.64c-.09-.04-.05-.49-.05-.69.23,0,.45,0,.68,0,.04.03.01.59.02.69Z"/>
        <path class="cls-12" d="M10.83,4.98v.55c-.14,0-.6.09-.71.04-.08-.07-.07-.39-.05-.51.01-.09.1-.14.1-.15.21.04.45.06.66.07Z"/>
        <path class="cls-23" d="M26.68,20.21h-.68s-.01-.59-.02-.69h.64c.06.08.03.34.05.69Z"/>
        <path class="cls-19" d="M5.89,6.74v1.24s-.08.18-.35.02v-1.2c.04-.1.24-.04.35-.05Z"/>
        <path class="cls-53" d="M20.06,10.24c-.21,0-.42,0-.63,0-.09-.22-.02-.44,0-.66.77-.12.62-.06.63.66Z"/>
        <path class="cls-24" d="M11.6,29.37c0,.1.02.59-.02.62-.23,0-.45,0-.68,0-.03-.22.03-.44.03-.66.22-.03.44.03.66.04Z"/>
        <path class="cls-10" d="M21.11,28.75c.31.93-.25.63-.87.62-.02-.23.03-.31.03-.33.36-.02.56.12.52-.29.1,0,.21,0,.31,0Z"/>
        <path class="cls-53" d="M.81,21.85c-.09,0-.6.02-.63-.02-.02-.21.02-.48,0-.68l.63.02v.68Z"/>
        <path class="cls-13" d="M7.49,8.27c-.16,0-.33.03-.49.04-.06,0-.12,0-.17,0v-.66c.21-.01.43,0,.64,0,.13.22.01.51.02.62Z"/>
        <path class="cls-52" d="M19.78,28.78v.51s.02.07-.17.07c-.13,0-.26,0-.38,0,0,0-.07.01-.07-.02,0-.21,0-.41,0-.62.57-.09.59.06.63.05Z"/>
        <path class="cls-51" d="M5.96,28.75s-.3.09-.42.02l-.03-.84.05-.09c.14.02.27-.02.4-.04v.95Z"/>
        <path class="cls-53" d="M6.86,6.15c-.02.16.02.39,0,.55,0,0-.07.07-.07.07.04-.07-.37-.11-.45-.11,0-.08.01-.22,0-.24-.02-.04-.13-.01-.17-.02-.25-.48.49-.36.7-.26Z"/>
        <path class="cls-12" d="M2.44,24.18c.02.34-.06.69.07.66-.06,0-.14,0-.21,0-.12,0-.23.01-.35,0,0,0,.01-.03-.03-.04v-.58s.16-.07.17-.07c.3,0,.33.04.35.04Z"/>
        <path class="cls-8" d="M20.79,27.8c-.12,0-.24,0-.31.11-.04-.15-.1-.12-.28-.11-.09-.15-.03-.55-.03-.58.91-.23.3.38.63.58Z"/>
        <path class="cls-24" d="M11.25,5.53c.12.01.25-.04.31.05,0,.16,0,.33,0,.49,0,.01,0,.02,0,.04l-.63-.04c0-.18-.03-.39.03-.55.09,0,.19,0,.28,0Z"/>
        <path class="cls-15" d="M1.92,24.22v.58c-.08,0-.5.02-.52-.02-.04-.5.07-.61.07-.64.57-.04.43.07.45.07Z"/>
        <path class="cls-12" d="M19.16,5.6c0,.15,0,.29,0,.44,0,.09-.04.07-.03.07h-.49s-.11.05-.07-.47v-.04s.11-.07.14-.07c.48,0,.43.07.45.07Z"/>
        <path class="cls-12" d="M6.93,6.08c.22-.03.46.04.49.04-.04.1-.02.54-.03.57-.03.05-.44,0-.52.02.02-.16-.02-.39,0-.55.02-.12.07-.07.07-.07Z"/>
        <path class="cls-35" d="M8.05,26.59c-.08.22,0,.6-.03.64-.04.06-.31-.03-.45.05,0-.1-.03-.07-.03-.07,0-.19,0-.39,0-.58.03,0,.04-.04.07-.04.14,0,.25-.03.38-.04.09,0,.07.04.07.04Z"/>
        <path class="cls-10" d="M1.92,10.72c.04.72-.07.59-.07.62h-.45c.01-.2-.01-.4,0-.6.03-.04.44-.01.52-.02Z"/>
        <path class="cls-12" d="M7.49,8.27c.01.18.06.4.07.58,0,.01,0,.02,0,.04-.09-.02-.53.03-.56-.02-.02-.03.01-.45,0-.57.16,0,.32-.03.49-.04Z"/>
        <path class="cls-10" d="M21.18,28.67c0-.16,0-.32,0-.47h.57c.1.63-.04.66-.57.47Z"/>
        <path class="cls-53" d="M24.07,25.32c.24.7-.04.53-.52.55.02-.13-.02-.44,0-.49.04-.09.43-.05.52-.05Z"/>
        <path class="cls-10" d="M25.18,24.15c-.01.21.01.43,0,.64-.03.04-.41.01-.49.02.02-.15-.02-.55,0-.6.04-.1.39-.03.49-.05Z"/>
        <path class="cls-23" d="M7.49,5.64c-.02.07,0,.35.03.44-.14,0-.1.04-.1.04-.02,0-.27-.07-.49-.04.02-.18-.05-.5.05-.55.05-.02.52-.04.5.11Z"/>
        <path class="cls-8" d="M19.99,28.71c.21,0,.23.04.24.04-.02.27.03.28.03.29,0,.02-.06.1-.03.33-.61-.01-.43-.07-.45-.07v-.51s-.09-.07.21-.07Z"/>
        <path class="cls-15" d="M18.7,5.5c-.12.04-.05-.22-.07-.51.08,0,.47-.09.52-.02.01.02.01.49,0,.51-.03.05-.37,0-.45.02Z"/>
        <path class="cls-12" d="M16.75,4.95v.58c-.16,0-.33,0-.49,0v-.55c.16,0,.32-.03.49-.04Z"/>
        <path class="cls-10" d="M16.27,4.98v.55s-.02,0-.03,0c-.02,0-.05,0-.07,0-.1,0-.21,0-.31,0-.1-.04-.09-.54-.07-.57.05-.07.46.02.49.02Z"/>
        <path class="cls-49" d="M26.64,15.31c0-.16,0-.32,0-.47.11.01.48-.02.5,0,.02.02.03.46.02.49-.07.18-.49-.02-.52-.02Z"/>
        <path class="cls-12" d="M6.59,7.65c.07-.01.17,0,.24,0v.66c-.15,0-.28-.03-.42-.04,0-.06,0-.12,0-.18.01-.2-.05-.4.17-.44Z"/>
        <path class="cls-12" d="M20.27,6.12s0,.05,0,.07c0,.18.03.39-.03.55-.14,0-.28,0-.42,0-.02-.2.01-.42,0-.62h.45Z"/>
        <path class="cls-53" d="M24.62,24.8c.23.88-.43.47-.49.47,0-.13,0-.27,0-.4,0,0,.03.03.03-.07h.45Z"/>
        <path class="cls-12" d="M8.01,29.92c-.59.25-.44-.03-.45-.55.19.01.39-.04.45.05,0,.16,0,.33,0,.49Z"/>
        <path class="cls-12" d="M.81,19c.06.86-.13.5-.35.58-.15.07-.12-.54-.1-.57.03-.04.38-.01.45-.02Z"/>
        <path class="cls-23" d="M11.25,5.53c-.09,0-.19,0-.28,0-.05,0-.09,0-.14,0v-.55s.37-.09.42-.02c.02.03-.01.45,0,.57Z"/>
        <path class="cls-15" d="M7.51,4.98s.42,0,.44.02c.01.02,0,.48-.02.49-.02.01-.4.01-.44-.05-.01-.02,0-.44.02-.46Z"/>
        <path class="cls-12" d="M15.85,5.53c.1,0,.21,0,.31,0-.01.11.02.5,0,.53-.05.07-.4.02-.42.02l.03-.55s.05,0,.07,0Z"/>
        <path class="cls-15" d="M16.32,4.51s.53-.14.47.35c0,.04-.42.03-.44.02-.08-.04-.06-.35-.03-.37Z"/>
        <path class="cls-10" d="M6.41,8.09c0,.06,0,.12,0,.18-.19-.01-.63.2-.45-.26.27,0,.5-.03.45.07Z"/>
        <path class="cls-5" d="M6.17,6.41s.15-.02.17.02c.01.02,0,.16,0,.24,0,0,.02.03-.07.04-.1,0-.22-.01-.31,0-.09-.28-.06-.32.21-.29Z"/>
        <path class="cls-22" d="M.11,14.33v1.17s-.08.02-.1-.02c-.03-.05.11-.99,0-1.13.02-.04.08,0,.1-.02Z"/>
        <g>
          <path class="cls-18" d="M17.41,4.91l-.07.04c-.17,0-.36-.04-.52-.04-.03-.56,0-.43.54-.44.1.04.04.34.05.44Z"/>
          <path class="cls-48" d="M17.41,4.91s.04,0,.03.04c-.01,0-.02,0-.03,0-.02,0-.05,0-.07,0l.07-.04Z"/>
        </g>
        <path class="cls-7" d="M24,24.15c-.49,0-.99,0-1.48,0,0,.18-.04.37-.05.55h-2.26c-.16-1.22.63.06.54-1.17l3.27-.04c.07.03.1.68-.02.66Z"/>
        <g>
          <path class="cls-35" d="M15.4,9.66l-.05.62c-.19,0-.38,0-.57,0-.69.02-1.69.03-2.37,0-.07,0-.43.02-.45-.02,0-.2,0-.4,0-.6,0-.01.03-.04.03-.22.08,0,.16,0,.24,0,.03,0,.04-.04.07-.04.31,0,2.31-.01,2.42.04.17.08-.27.25.68.22Z"/>
          <path class="cls-41" d="M14.73,8.71c0,.13-.03.27.05.33l1.06-.04s.07.37.03.64c-.02.04-.41.02-.49.02-.95.04-.51-.14-.68-.22-.11-.05-2.11-.04-2.42-.04l-.02-.69c.58.04,1.18-.04,1.76-.04.22,0,.47.08.7.04Z"/>
        </g>
        <path class="cls-46" d="M16.09,26.56c-.11.26.01.64,0,.88,0,.06-.06.26-.1.33-.21.01-.42-.04-.49.05.04.31-.03.63-.03.93-.14-.01-.31.02-.45,0-.03-.39-.09-.78-.1-1.17,0-.2,0-.4,0-.6,0-.03-.07-.01-.07-.02,0-.02.09,0,.09-.4.39-.01.78.02,1.17,0Z"/>
        <path class="cls-39" d="M8.29,25.35c.04-.73,0-.62-.63-.66.04-.2-.03-.42-.03-.62,0-.32.06-.66.05-.99h.59l.02.93c.12.18.82-.42.66.69-.42.19.3.77-.66.64Z"/>
        <path class="cls-13" d="M17.94,26.19c-.24,0-.49-.04-.56.05-.03.28.04.68.03.71,0,.04-.12.17-.07.8-.04.01-.12-.02-.14.02v1.41l.07.04c-.2.16-.05.6-.12.66-.13-.02-.67.02-.7,0-.06-.04.03-.4-.05-.47v-.11c.09-.01.19-.05.28-.05.03-.35-.04-1.17,0-1.37,0,0,.03-.1.03-.11.13-.21.47.12.56-.09.03-.07.02-1.29.07-1.41.09-.23.42-.04.63-.13l.03-.78c-.02.37.06.86-.07.84Z"/>
        <path class="cls-53" d="M8.43,12.28c.36,0,.73-.03,1.08.04,0,.19.03.39.03.58,0,.19-.03.14-.03.15-.5.05-1.58-.11-1.57.11,0,0-.04,0-.05-.15-.17.08-.15,0-.16,0-.04-.24.03-.5.03-.73.22,0,.44,0,.66,0Z"/>
        <path class="cls-53" d="M3.56,10.72v.66c-.33,0-.66.03-.99,0-.32.74.33,1.27-.61,1.13,0-.75-.31-1.29.52-1.19-.05-.71-.03-.64,1.08-.6Z"/>
        <path class="cls-53" d="M1.43,20.21c-.03.71,0,.46.63.53,0,.35.01.71,0,1.06,0,.02-.07.05-.07.09-.17,0-.35.01-.52,0,0,0-.06-.07-.07-.07.15-1.11-.45-.46-.56-.71.03-1.07-.2-.89.59-.89Z"/>
        <path class="cls-24" d="M22.5,11.34c-.33,0-2.12.11-2.28.04-.1-.05-.03-.41-.05-.51.02,0,.05,0,.07,0,.75.03,1.5-.07,2.25-.04l.02.51Z"/>
        <path class="cls-53" d="M8.92,25.86c0-.14-.04-.32-.03-.47,0-.21-.04-.58.05-.62.12-.02.6.02.63,0,.08-.06-.23-.56.61-.31-.01.13.02.66,0,.69-.05.07-.45-.05-.56.07-.15.36.43.75-.7.64Z"/>
        <path class="cls-46" d="M15.43,6.7c0,.08.02.61.03.64.03.04.42,0,.52.05,0,.02,0,.05,0,.07-.01.24-.02.47-.03.71,0,.03-.07.05-.07.05h-1.08c-.06-.1-.03-.22-.03-.33,0-.19-.02-.39.03-.58.09,0,.38.04.42-.05.02-.05-.02-.42,0-.57h.21Z"/>
        <path class="cls-52" d="M24,24.15s-.04.04.17.04c0,.18,0,.37,0,.55,0,.02,0,.05,0,.07,0,.1-.03.07-.03.07,0-.02,0-.07-.02-.07-.19-.05-1.24.04-1.62,0,0-.08-.04-.08-.03-.11.01-.18.05-.37.05-.55.49,0,.99,0,1.48,0Z"/>
        <path class="cls-10" d="M8.43,12.28c-.22,0-.44,0-.66,0,0-.28-.02-.59-.03-.88,0-.11-.07-.06-.07-.09,0-.11.09-.34,0-.6.1,0,.53-.04.56-.04.01,0,.09.04.21.05v1.55Z"/>
        <path class="cls-35" d="M23.75,15.97l.02-.58,1.48-.09c-.03-.32.02-.65.03-.97.09,0,.6-.02.63.02v.99c-.06.13-1.59,0-1.65.05-.05.04,0,.53-.02.57-.02.04-.41.02-.49.02Z"/>
        <path class="cls-53" d="M25.32,20.21c-.08.31-.01.61,0,.91.01.38-.05.77.07.73,0,0-.14.03-.17.04-.19,0-.37,0-.56,0,.02-.61.05-1.07.1-1.64.18,0,.37-.04.56-.04Z"/>
        <path class="cls-24" d="M4.15,19.51c-.31,0-.93.09-1.22.07-.53-.03-.57,0-.47-.58.22.04,1.6-.05,1.67,0,.04.03,0,.42.02.51Z"/>
        <path class="cls-20" d="M19.09,25.39c0,.28,0,.56,0,.84-.48-.13-.99.03-1.04.04-.04,0-.1-.07-.1-.07.13.02.05-.47.07-.84.29.03.58-.02.87-.04.02,0,.2.07.21.07Z"/>
        <path class="cls-53" d="M19.89,16.04h-.63c-.02-.44-.06-.89-.03-1.33l.63-.09c.02.48.03.94.03,1.42Z"/>
        <path class="cls-3" d="M19.09,8.23c0,.15,0,.29,0,.44,0,.1.03.07.03.07,0,.25-.07.51-.03.77-.28.05-.53.11-.82.07l-.02.73-.07-.02c-.02-.23.02-.47,0-.69,0-.03-.07-.01-.07-.02-.02-.28.01-.56,0-.84.28,0,.58-.03.85.04.14-.18-.05-.44.12-.55Z"/>
        <path class="cls-13" d="M15.88,8.23c-.01.25-.03.52-.03.77l-1.06.04c-.08-.06-.05-.2-.05-.33,0-.04.07-.23.03-.47h1.11Z"/>
        <path class="cls-20" d="M16.89,26.26v1.19s-.41.02-.49.02c-.11,0-.21,0-.31-.04.01-.24-.11-.62,0-.88.93-.04.35-.19.54-.33.06-.05.25.04.26.04Z"/>
        <path class="cls-39" d="M19.33,22.32c.03-.17-.03-1.17,0-1.22.05-.07.51.05.56-.07,0-1.41.01-2.81,0-4.22,0,1.41.12,2.85.03,4.25,0,.04-.1.06-.1.07-.02.22.03,1.11,0,1.17-.11.13-.46.02-.49.02Z"/>
        <path class="cls-30" d="M20.1,24.7l.02.58c-.58-.07-.98.11-1.03.11-.01,0-.19-.07-.21-.07.02-.1-.03-.59.02-.62.05-.04,1.05,0,1.2,0Z"/>
        <g>
          <path class="cls-51" d="M8.5,29.99h-.45s-.03-.04-.03-.07c0-.16,0-.33,0-.49-.07-.1-.26-.04-.45-.05-.09,0-.07-.04-.07-.04v-.11c.05.22.37.05.5.11.12.05.01.51.05.57.02.02.35.03.37.02.06-.04-.03-.82.05-.97,0-.02-.16-.16-.17-.16.34-.26-.33-.77.73-.6v1.06c-.11.25-.68-.4-.52.75Z"/>
          <path class="cls-53" d="M8.29,28.78s.17.14.17.16c-.08.15,0,.93-.05.97-.01.01-.35,0-.37-.02-.04-.06.06-.51-.05-.57-.13-.06-.45.11-.5-.11v-.44s0-.02,0-.04c.25.11.62-.04.8.04Z"/>
        </g>
        <path class="cls-39" d="M17.35,26.26c-.05.12-.04,1.34-.07,1.41-.08.21-.43-.12-.56.09-.15-.18-.37.09-.31-.29.07,0,.47.01.49-.02v-1.19s.25-.1.45,0Z"/>
        <path class="cls-53" d="M24.69,11.37c0,.39,0,.78,0,1.17l-.59-.05c0-.37,0-.74,0-1.11.2,0,.4,0,.59,0Z"/>
        <path class="cls-13" d="M18.35,22.36c-.08.22,0,.6-.03.64-.09.13-.4-.33-.31.66-.33.16-.43-.02-.45-.02-.07-.93.18-.56.24-.71.18-.39-.43-.52.56-.57Z"/>
        <path class="cls-51" d="M16.89,6.23s-.07,0-.1,0c-.05,0-.11-.02-.14.02l.03,1.24-.7-.02.63-.05-.03-1.22s.17-.04.17-.05c.02-.24-.06-.51.07-.6.2.01.4,0,.59.05v.58c-.04.1-.33.04-.52.05Z"/>
        <g>
          <path class="cls-10" d="M7.73,13.01s-.01.08.16,0c.01.15.05.14.05.15.02.08,0,.44,0,.58l-1.51-.04s-.02-.68-.02-.8c0-.22,0-.44,0-.66.22.01.45-.01.68,0l.02.75c.16.13.59.02.63.02Z"/>
          <path class="cls-23" d="M6.41,12.25c0,.22,0,.44,0,.66l-.85-.04-.02-.64c.05-.07.75.01.87.02Z"/>
        </g>
        <path class="cls-35" d="M20.24,6.74c.21,0,.23.04.24.04v.89c-.21,0-.33.06-.35.05-.01,0,.01-.04-.24-.05-.01-.29.02-.59,0-.88,0-.03-.06,0-.07-.05.14,0,.28,0,.42,0Z"/>
        <path class="cls-30" d="M18.11,8.74c.01.28-.02.56,0,.84-.09-.02-.53.03-.56-.02-.02-.03.02-.67,0-.8.14-.13.49-.02.56-.02Z"/>
        <path class="cls-32" d="M7.63,24.07c0,.2.07.42.03.62-.03,0-.4.07-.64.04l-.05-.66c.22,0,.44,0,.66,0Z"/>
        <path class="cls-11" d="M19.19,13.05c0,.21,0,.41,0,.62-.23-.01-.45,0-.68,0-.04-.03-.01-.5-.02-.58.16-.14.48-.07.7-.04Z"/>
        <path class="cls-39" d="M19.19,13.05c-.22-.03-.53-.1-.7.04,0-.05-.03-.03-.03-.04,0-.11.01-.4.03-.47,0,0,.05.02.07-.02.07-.14-.22-.24.57-.2,0,.23.04.47.05.69Z"/>
        <path class="cls-52" d="M4.18,11.34v.04c-.21,0-.42,0-.63,0v-.66c.2,0,.41,0,.61,0l.02.62Z"/>
        <path class="cls-38" d="M7.66,10.72c.09.27,0,.49,0,.6,0,.03.06-.02.07.09-.23-.05-.46-.04-.7-.04v-.6c.04-.1.42-.05.63-.05Z"/>
        <path class="cls-3" d="M19.89,16.04c0,.23,0,.46,0,.69-.02-.18-.6.02-.66-.13-.03-.22.04-.54.03-.57h.63Z"/>
        <path class="cls-52" d="M8.95,22.32c.11,0,.12.04.14.04v.69s-.38.11-.52-.02v-.71c.13,0,.26,0,.38,0Z"/>
        <path class="cls-52" d="M25.25,13.64s.05.29.03.69c-.08,0-.53.02-.56-.02-.01-.22.01-.45,0-.68h.52Z"/>
        <path class="cls-53" d="M1.88,13.64s.07.43.03.64c-.05.13-.46.02-.56.02v-.6l.52-.05Z"/>
        <path class="cls-13" d="M19.82,6.12c.01.2-.02.42,0,.62-.62-.02-.67.18-.56-.62.15.02.39-.02.56,0Z"/>
        <g>
          <path class="cls-53" d="M7,18.34c0,.39-.04.78-.03,1.17h-.56c-.03-.44,0-.81,0-1.24.31.02.63-.06.59.07Z"/>
          <path class="cls-20" d="M6.93,17.14v1.08c.19.03.07.12.07.13.03-.13-.28-.05-.59-.07,0-.35-.08-.72-.03-1.08.05-.11.46-.03.56-.05Z"/>
          <path class="cls-39" d="M6.93,19.51c-.02.69.17.71-.52.64-.01-.21.01-.43,0-.64h.52Z"/>
        </g>
        <path class="cls-53" d="M19.12,6.12s.11.2.07.57c-.03.04-.47.02-.56.02-.1-.17,0-.55,0-.58h.49Z"/>
        <path class="cls-30" d="M4.77,16.59s-.02,0-.03,0l.03-.51c.09,0,.57-.02.59.02.01.02,0,.48-.02.49-.02.02-.48,0-.57,0Z"/>
        <path class="cls-21" d="M7.53,28.13c0,.21-.03.41-.03.62,0,.01,0,.02,0,.04h-.45v-.66c.16,0,.33,0,.49,0Z"/>
        <path class="cls-8" d="M2.06,15.97c.14,0,.28,0,.42,0l-.02.51h-.57l-.03-.51c.07,0,.14,0,.21,0Z"/>
        <path class="cls-21" d="M24.24,20.17s-.4.09-.45.02c-.02-.03.01-.52,0-.64.09,0,.41-.04.45.05.02.05-.02.42,0,.57Z"/>
        <path class="cls-53" d="M22.53,19.51c-.08,0-.47.09-.52.02-.04-.17.04-.37.03-.53.1.01.45-.02.47,0,.04.03,0,.42.02.51Z"/>
        <path class="cls-12" d="M24.59,24.15s.07.38.03.57l-.45.02c0-.18,0-.37,0-.55.13,0,.28-.07.42-.04Z"/>
        <path class="cls-24" d="M19.43,8.74s.03.04.03.07l-.03.68s-.28,0-.35.02c-.04-.25.03-.52.03-.77h.31Z"/>
        <path class="cls-13" d="M16.89,6.23c.19.06.69-.03.52.35-.05.11-.55.03-.66.05,0-.03-.12-.28.03-.4.03,0,.07,0,.1,0Z"/>
        <path class="cls-13" d="M1.99,15.9c-.01-.15.01-.32,0-.47.37.02.5-.29.45.49l-.45-.02Z"/>
        <path class="cls-35" d="M19.09,8.67c0-.15,0-.29,0-.44.44-.29.56.61,0,.44Z"/>
        <path class="cls-45" d="M8.29,26.23c-.01.09.02.32,0,.35-.03.04-.19.01-.24.02,0,0,.02-.04-.07-.04-.02-.52.03-.3.31-.33Z"/>
        <g>
          <path class="cls-51" d="M2.79,24.15c.39,0,.79-.01,1.18,0v.69c-.49,0-.98.01-1.46,0-.13.03-.05-.32-.07-.66.1,0,.23-.04.35-.04Z"/>
          <path class="cls-52" d="M4.81,24.7c-.11.07-.02.06-.03.18-.25-.07-.54-.04-.8-.04v-.69c.24,0,.48,0,.71,0l.02.49c.05.07.08.05.1.05Z"/>
        </g>
        <path class="cls-55" d="M25.91,21.15s-.02,0-.03,0c-.17,0-.37-.07-.56-.04-.01-.3-.08-.61,0-.91.2,0,.55-.04.59.05v.89Z"/>
        <path class="cls-44" d="M17.94,26.19s.06.07.1.07l-.03.69c-.2,0-.39,0-.59,0,0-.04-.07-.43-.03-.71.07-.09.32-.05.56-.05Z"/>
        <path class="cls-35" d="M20.2,27.8c.18,0,.24-.04.28.11.03.12-.02.56,0,.77-.02,0-.23.07-.24.07-.01,0-.04-.04-.24-.04v-.86s.19-.05.21-.05Z"/>
        <g>
          <path class="cls-39" d="M19.09,26.23c0,.08-.01.47,0,.49.04.05.37,0,.4.02.06.04-.04.39.07.44.03.01.59.04.54-.07,0,0,.07.1.07.11,0,.03-.06.43.03.58-.02,0-.2.03-.21.05v.86c-.3,0-.2.07-.21.07-.03,0-.06-.14-.63-.05,0,.21,0,.41,0,.62,0,.03.07.01.07.02,0,.07-.04.56-.09.58h-2.72l-.02-.55c.09.08,0,.43.05.47.03.02.57-.02.7,0,.07-.05-.07-.49.12-.66l1.32-.02c-.03-.19.04-1.37,0-1.42-.05-.07-.42.23-.24-.8-.02-.04-.29-.02-.35-.02l.03-.69c.05,0,.57-.17,1.04-.04Z"/>
          <path class="cls-3" d="M19.35,27.76s.49.06.61.05l-.02.82-.78-.02v-.8c.14-.01.18-.05.19-.05Z"/>
          <path class="cls-13" d="M18.72,29.26s.37,0,.4.05c-.01.09.03.53-.02.57-.02.01-.42,0-.44-.02-.02-.02-.02-.54.05-.6Z"/>
          <path class="cls-55" d="M19.1,26.78c.28-.21.44.29.31.4-.01.01-.32-.02-.33-.05-.01-.03,0-.33.02-.35Z"/>
        </g>
        <path class="cls-12" d="M24.76,11.34s.02.03-.07.04c-.2,0-.4,0-.59,0,0-.09.02-.59-.02-.62-.2-.03-1.44.05-1.5,0-.03-.02-.03-.49,0-.51.06-.05,1.5-.05,1.57,0,.05.04-.02.43.03.47.05.03.46-.06.5.05.02.31-.05.6.07.57Z"/>
        <g>
          <path class="cls-24" d="M8.19,8.85s-.09.15.38.11c0,.16.09.62.03.75-.05.11-.34.01-.38.07-.02.04.02.76,0,.89-.03,0-.45.03-.56.04-.21,0-.59-.04-.63.05v.6c-.96.03-1.9,0-2.86,0v-.04h2.8l-.02-.6s.52-.12.59-.13c.09,0,.57.1.63.02v-.88l-.63.02s0-.07,0-.11c0-.25,0-.51,0-.77,0-.01,0-.02,0-.04.19.02.46-.03.63,0Z"/>
          <path class="cls-44" d="M7.56,10.61v-.84l.63-.02v.88c-.05.08-.54-.03-.63-.02Z"/>
        </g>
        <path class="cls-24" d="M14.73,7.32s.05,0,.07,0c-.05.19-.04.39-.03.58-.57.05-2.09-.06-2.4,0-.1-.19,0-.4,0-.58.79-.03,1.58.04,2.37,0Z"/>
        <path class="cls-24" d="M16.23,5.53c-.03.32.09.44-.1.58-.02.01-.12-.02-.14.02-.03.05.01,1.07,0,1.26-.1-.05-.5-.02-.52-.05-.02-.03-.03-.56-.03-.64,0-.19,0-.38,0-.57.06-.09.19-.05.31-.05.02,0,.37.05.42-.02.02-.03-.01-.42,0-.53.02,0,.05,0,.07,0Z"/>
        <path class="cls-20" d="M15.22,6.7c-.02.14.02.51,0,.57-.04.09-.33.05-.42.05-.02,0-.05,0-.07,0,.13-.61-.19-.66.49-.62Z"/>
        <g>
          <path class="cls-46" d="M11.56,6.12c0,.18,0,.35,0,.53.07.1.25.04.42.05.02.4-.13.83.35.55,0,.04.03.04.03.07,0,.19-.1.39,0,.58-.04,0-.12-.02-.14.02.02.16-.03.22-.03.24-.32-.02-.66.03-.97,0-.06,0-.25.02-.28-.02,0-.66,0-1.33,0-1.99,0-.02,0-.05,0-.07l.63.04Z"/>
          <path class="cls-24" d="M12.33,7.25c-.48.28-.33-.15-.35-.55.07,0,.32-.02.35.02,0,.18,0,.35,0,.53Z"/>
        </g>
        <path class="cls-53" d="M16.68,27.87c-.04.2.03,1.02,0,1.37-.09,0-.19.04-.28.05-.01,0-.09-.07-.28-.04-.21.04-.06-.99-.1-1.5.31-.01.71-.04.66.11Z"/>
        <g>
          <path class="cls-24" d="M14.84,26.96s.07-.01.07.02c0,.2,0,.4,0,.6l-2.58.04-.03-.04c.05-.13.05-.49.03-.62h2.51Z"/>
          <path class="cls-24" d="M14.91,27.58c.02.39.07.78.1,1.17-.43-.06-.09-.45-.23-.55-.1-.07-2.16.06-2.47,0-.08.84-.14.39-.61.51v-.07c.65.2.44-.11.63-1.02l2.58-.04Z"/>
        </g>
        <path class="cls-23" d="M16.75,5.53s.05,0,.07,0c-.13.09-.05.37-.07.6,0,.02-.15.05-.17.05-.13.02-.33,0-.45-.07.19-.14.08-.26.1-.58.01,0,.02,0,.03,0,.16,0,.33,0,.49,0Z"/>
        <path class="cls-13" d="M18.56,5.6v.04c-.17-.1-.05.47-.07.49-.09.11-.7.25-.45-.57.17,0,.36.04.52.04Z"/>
        <path class="cls-13" d="M10.07,5.06c-.01.12-.02.44.05.51.11.05.57-.04.71-.04.05,0,.09,0,.14,0-.06.16-.03.37-.03.55,0,.02,0,.05,0,.07-.59-.05-1.19.05-1.78.04,0,0,.01-.07-.02-.07-.19,0-.39-.03-.57-.04v-.51c.35,0,.71,0,1.06,0,.11-.08-.21-.76.38-.62.03,0,.06.07.05.11Z"/>
        <path class="cls-33" d="M8.57,5.57v.51c-.2,0-.4-.03-.59-.04.01-.08-.03-.44.02-.47.02-.02.48,0,.57,0Z"/>
        <path class="cls-13" d="M8.22,8.23c.11.01.22.06.33.04.11.17.02.26.02.33-.08.01-.31-.02-.33,0-.04.03.02.16-.05.26-.16-.03-.44.02-.63,0,0-.18-.06-.4-.07-.58.24,0,.48-.06.73-.04Z"/>
        <path class="cls-52" d="M8.57,8.6c0,.12,0,.24,0,.37-.47.04-.36-.11-.38-.11.07-.09,0-.22.05-.26.02-.02.25.01.33,0Z"/>
        <path class="cls-13" d="M7.04,28.13v.66l-.56-.05c0-.2,0-.4,0-.6.23-.08.37,0,.56,0Z"/>
        <path class="cls-3" d="M16.4,27.47c-.05.38.17.11.31.29,0,0-.03.1-.03.11.05-.15-.35-.12-.66-.11-.01,0-.02,0-.03,0,.04-.07.1-.27.1-.33.1.04.21.03.31.04Z"/>
        <path class="cls-12" d="M25.88,21.15v.69c-.16,0-.33,0-.49,0-.12.04-.06-.35-.07-.73.19-.03.39.03.56.04Z"/>
        <path class="cls-12" d="M6.79,6.77c-.02.11.02.34,0,.4-.7.07-.32-.18-.52-.47.09,0,.07-.04.07-.04.08,0,.5.04.45.11Z"/>
        <path class="cls-26" d="M20.79,28.75c.04.41-.16.27-.52.29,0-.01-.06-.02-.03-.29.01,0,.22-.07.24-.07.02,0-.12.08.31.07Z"/>
        <g>
          <path class="cls-46" d="M12.33,26.96c.02.13.01.49-.03.62l-.59.05v1.08s-.09-.02-.1.02c0,.21,0,.43,0,.64-.22,0-.44-.07-.66-.04.01-.59-.05-1.2-.07-1.79,0-.34,0-.68,0-1.02.46,0,.92,0,1.38,0,0,.49.08.41.09.44Z"/>
          <path class="cls-30" d="M10.87,26.52c0,.34,0,.68,0,1.02-.09-.02-.53.03-.56-.02-.03-.04.02-.84,0-.99.14-.13.49-.02.56-.02Z"/>
          <path class="cls-20" d="M12.3,27.58l.03.04c-.19.92.02,1.22-.63,1.02v-1l.59-.05Z"/>
        </g>
        <path class="cls-39" d="M12.37,7.9c.31-.06,1.83.05,2.4,0,0,.11-.02.23.03.33h-.03c-.01-.09-.05-.2-.05-.29h-.66l-.02.73c-.58,0-1.17.08-1.76.04l.02.69s-.04.04-.07.04c.05-.39-.08-.99-.03-1.28,0-.02.06-.08.03-.24.02-.04.1-.01.14-.02Z"/>
        <g>
          <path class="cls-13" d="M12.19,8.16c-.04.29.08.89.03,1.28-.08,0-.16,0-.24,0,0-.13,0-.27,0-.4l-.02-.07-.75-.02v-.78c.32.03.65-.02.97,0Z"/>
          <path class="cls-51" d="M11.98,9.04c0,.13,0,.27,0,.4,0,.18-.03.21-.03.22-.84-.02-.88.17-.84-.6l.87-.02Z"/>
        </g>
        <path class="cls-39" d="M14.77,8.23c.03.24-.04.44-.03.47-.23.04-.47-.04-.7-.04l.02-.73h.66c0,.1.04.2.05.29Z"/>
        <g>
          <path class="cls-56" d="M18.01,26.96c.06,0,.33-.02.35.02-.18,1.04.19.73.24.8.04.06-.03,1.23,0,1.42l-1.32.02-.07-.04c.08-.01.42.03.45-.02.04-.06,0-1.18.03-1.35-.03-.07-.28-.07-.35-.05-.05-.63.07-.76.07-.8.2,0,.4,0,.59,0Z"/>
          <path class="cls-36" d="M17.21,29.19v-1.41s.1,0,.14-.02c.07-.02.32-.02.35.05-.03.17,0,1.3-.03,1.35-.03.05-.37,0-.45.02Z"/>
        </g>
        <path class="cls-53" d="M16.13,6.12c.12.06.32.09.45.07l.03,1.22-.63.05s0-.05,0-.07c.01-.19-.03-1.21,0-1.26.02-.04.12,0,.14-.02Z"/>
        <g>
          <path class="cls-39" d="M19.26,6.12c-.11.8-.06.6.56.62,0,.06.07.03.07.05.02.29-.01.59,0,.88.26.02.23.05.24.05.16,1.06-.8-.14-.63,1.02h-.38s-.03.02-.03-.07c.56.17.44-.73,0-.44-.17.11.02.36-.12.55-.28-.07-.57-.04-.85-.04-.06,0-.42-.11-.56.02.02.13-.02.77,0,.8.03.05.47,0,.56.02,0,0,.07-.01.07.02.02.22-.02.47,0,.69l.07.02c.36-.01.72.02,1.08,0-.02.62-.13.5.84.55.02.1-.05.46.05.51.16.07,1.95-.04,2.28-.04.53,0,1.07.04,1.6.04,0,.37,0,.74,0,1.11l.59.05c0,.37.01.72.03,1.1.01.22-.01.45,0,.68.03.04.47.01.56.02-.01.32-.06.64-.03.97l-1.48.09-.02.58c-.39.01-.78-.01-1.17,0-.16.41.02.52.02.55,0,.03-.03.04-.03.07l-.56.02c-.02.8.01,1.59.03,2.39,0,.16-.08.36-.03.53.05.08.44-.02.52-.02.41.01.84.01,1.25.04.01.12-.02.61,0,.64.05.07.43-.02.45-.02.16,0,.36.07.52.07-.05.58-.09,1.03-.1,1.64-.02.75.04,1.5,0,2.24,0,.03-.07.01-.07.02-.14-.04-.29.04-.42.04-.22,0-.17-.04-.17-.04.12.03.09-.62.02-.66l-3.27.04c.09,1.22-.69-.05-.54,1.17l-.03.04s-.03-.04-.07-.04c-.15,0-1.15-.04-1.2,0-.04.03,0,.52-.02.62-.29.02-.58.06-.87.04l-.03.78c-.21.08-.53-.1-.63.13-.2-.1-.42,0-.45,0-.01,0-.2-.08-.26-.04-.19.14.39.28-.54.33-.39.02-.78-.01-1.17,0,0,.4-.09.38-.09.4h-2.51s-.08.06-.09-.44c-.46,0-.92,0-1.38,0-.06,0-.42-.11-.56.02.02.14-.03.95,0,.99.03.05.47,0,.56.02.02.59.08,1.2.07,1.79,0,.21-.07.44-.03.66-.01,0-.02,0-.03,0-.79.02-1.58-.02-2.37,0-.16-1.15.42-.5.52-.75v-1.06c-1.06-.17-.39.34-.73.6-.18-.08-.55.07-.8-.04,0-.21.03-.41.03-.62,0-.28.04-.55.03-.84.14-.09.41,0,.45-.05.03-.04-.04-.42.03-.64.05,0,.22.02.24-.02.02-.02-.01-.26,0-.35.2-.02.4-.06.61-.04-.04-.11.01-.23.02-.33,1.13.11.55-.28.7-.64.11-.13.51,0,.56-.07.02-.03-.01-.56,0-.69-.84-.25-.53.25-.61.31-.03.02-.51-.02-.63,0-.09.04-.04.41-.05.62-.2.01-.4-.02-.59,0v-.04c.96.14.24-.45.66-.64.15-1.11-.54-.51-.66-.69l-.02-.93h-.59c0,.32-.05.67-.05.99-.22,0-.44,0-.66,0-.09,0-.52.02-.54,0-.06-.05.05-.53-.07-.58l-3.52-.04-.05.69c-.12,0-.24.04-.35.04-.02,0-.05-.04-.35-.04-.04.01-.1-.03-.1-.05-.02-.11,0-1.9,0-2.21,0-.04.07-.08.07-.09.01-.35,0-.71,0-1.06-.62-.07-.66.18-.63-.53.7,0,.56-.07.59-.07.05,0,.31.13.89.07l.02-.62c.29.01.91-.08,1.22-.07,0,0-.01.07.02.07.2,0,.39,0,.59,0,.07-.05-.02-.5-.02-.58.02-.8.06-1.6.03-2.41.09,0,.55.02.57,0,.02-.02.03-.47.02-.49-.03-.04-.5-.01-.59-.02-.2-.01-.42-.09-.63,0,0-.02.01-.06-.05-.11-.54,0-1.08,0-1.62,0-.14,0-.28,0-.42,0-.08.01-.06-.01-.07-.07l.45.02c.04-.78-.08-.47-.45-.49-.24-.01-.46-.03-.7-.04v-1.1s.05,0,.07,0c.09,0,.5.11.56-.02.04-.21-.04-.61-.03-.64,0,0,.07.01.07-.02.02-.36,0-.75,0-1.11.94.14.29-.39.61-1.13.33.03.66,0,.99,0,.21,0,.42,0,.63,0,.96,0,1.9.03,2.86,0,.23,0,.47-.01.7.04.01.28.03.6.03.88,0,.23-.07.49-.03.73-.04,0-.46.12-.63-.02l-.02-.75c-.23-.01-.45.01-.68,0-.12,0-.82-.09-.87-.02l.02.64.85.04c0,.13-.02.76.02.8l1.51.04c0,.08.02.52-.02.55l-.89.05v2.77s-.07.01-.1.02c-.1.03-.51-.06-.56.05-.04.35.04.73.03,1.08,0,.43-.03.81,0,1.24.01.21-.01.43,0,.64.69.08.5.05.52-.64h.03c0,.56.07,1.13.03,1.7l.59.07v.99c.04.09.83.05.97.05v.71c.15.13.48.02.52.02.09,0,.57-.02.59.02l.02.64h1.43l.07.66,1.22-.04.02.77,2.32.04.07-.8c1.22-.07,1.28.3,1.25-.62.49-.01.98.02,1.46,0,.03,0,.01-.07.02-.07.02,0,.12.18.45.02-.09-.98.22-.53.31-.66.03-.04-.04-.42.03-.64.33-.02.65-.02.97-.04.02,0,.37.11.49-.02.03-.06-.02-.95,0-1.17,0-.01.1-.04.1-.07.09-1.4-.04-2.85-.03-4.25,0-.02,0-.05,0-.07,0-.23,0-.46,0-.69,0-.48-.01-.94-.03-1.42-.01-.3,0-.6,0-.89l-.07-.05c-.2,0-.4,0-.59,0,0-.21,0-.41,0-.62,0-.23-.05-.46-.05-.69-.8-.04-.51.06-.57.2-.02.03-.07.01-.07.02.16-.24-.35-.26-.87-.26l-.02-.66h-1.01l-.02.57c-.65.28-.41-.27-.45-1.13l-1.34-.02-.02-.8c.19,0,.38,0,.57,0l.05-.62c.08,0,.46.02.49-.02.03-.27-.04-.61-.03-.64,0-.25.02-.52.03-.77,0,0,.07-.03.07-.05.01-.24.02-.47.03-.71l.7.02-.03-1.24s.09-.01.14-.02c-.15.12-.03.37-.03.4,0,.02-.08.28-.02.44.31-.09,1.1,0,1.15-.04.05-.04-.02-.29.03-.33.03-.02.6,0,.71,0,.08,0,.53.02.56-.02.04-.37-.07-.54-.07-.57,0,0,.04.02.03-.07.06.04,0,.06.1.07Z"/>
          <g>
            <path class="cls-25" d="M19.5,8.74v.04l-.03.04s-.04-.04-.03-.07h.07Z"/>
            <path class="cls-34" d="M20.83,12.5s.03-.35.03-.37c0,0,.03.02.05-.11h2.19l.05,1.77c-1.06.14-.6-.14-.75-1l-1.5.04s-.08-.28-.09-.33Z"/>
            <path class="cls-56" d="M21.09,21.34l.78.02-.02,1.44-.78-.02.02-1.44Z"/>
            <g>
              <path class="cls-9" d="M23.09,22.1s-.03-.03-.03-.04c-.08-.08-.15.02-.21-.13l.03-.84.7.04c-.03.18.04,1.26,0,1.31-.02.02-.42.03-.44.02-.05-.04.02-.23-.05-.37Z"/>
              <path class="cls-27" d="M23.09,22.1c.07.14,0,.33.05.37.02.01.42,0,.44-.02.04-.05-.03-1.13,0-1.31l-.7-.04-.03.84c.06.15.13.05.21.13l-.77-.02v-.99l1.31-.02c0,.19.06,1.38.02,1.44-.03.04-.71.18-.52-.38Z"/>
            </g>
            <path class="cls-24" d="M9.11,26.19s.56,0,.57.02c-.02.77.18.81-.59.73.02-.11-.03-.71.02-.75Z"/>
            <path class="cls-3" d="M19.49,24.07s.48.01.59,0c.36.78-.54.62-.59.58-.03-.02-.03-.56,0-.58Z"/>
            <path class="cls-24" d="M16.89,9.04h-.42c0-.12-.08-.64-.03-.71.01-.02.45-.03.47-.02.07.05-.01.62-.02.73Z"/>
            <path class="cls-39" d="M16.89,9.04c0,.1.02.58,0,.6-.02.02-.38.03-.4.02-.04-.03-.01-.52-.02-.62h.42Z"/>
            <path class="cls-52" d="M20.86,12.14s-.04.35-.03.37c-.48.15-.37-.39-.35-.42.02-.02.43-.06.38.05Z"/>
            <path class="cls-35" d="M22.06,16.23c.11-.05.52-.03.4.2-.1.2-.75-.04-.4-.2Z"/>
            <g>
              <path class="cls-36" d="M3.83,12.25c-.1.45,0,.9,0,1.35.02,1.25.1,1.37-.49,1.28,0-.19,0-.39,0-.58-.01-.44.01-.87.03-1.31.01-.25-.01-.5,0-.75.18-.07.36.02.45.02Z"/>
              <path class="cls-17" d="M3.35,14.88c.59.09.5-.02.49-1.28h.66v.6c.74.01.49-.06.52-.6.01-.23.06-.46.03-.69.03,0,.05-.06.07-.02v1.39c-.72-.06-.57-.03-.61.64l-1.11.04-.05-.07Z"/>
              <path class="cls-50" d="M4.57,12.91c0,.14-.12.49-.03.69h-.7c0-.45-.1-.9,0-1.35.22,0,.45-.07.68-.04,0,.23.05.47.05.69Z"/>
              <path class="cls-51" d="M3.35,14.29c-.83.09-.5-.13-.56-1.26l.59-.05c-.02.44-.05.87-.03,1.31Z"/>
              <path class="cls-47" d="M5.05,12.91c.03.23-.02.46-.03.69h-.49c-.09-.2.04-.55.03-.69.15.02.35-.02.49,0Z"/>
              <path class="cls-56" d="M5.02,13.6c-.03.54.22.62-.52.6v-.6h.52Z"/>
            </g>
            <g>
              <path class="cls-36" d="M3.52,20.83c.11,0,.27.06.38.07,0,.47-.02.95,0,1.42,0,.11,0,.22,0,.33-.17,0-.38.08-.56.04v-1.84c.09-.12.14-.02.17-.02Z"/>
              <g>
                <path class="cls-47" d="M3.35,22.69c.18.04.38-.04.56-.04.17,0,1.16.12,1.22-.02v-1.02l-.73-.05c0-.21,0-.43,0-.64-.1-.13-.46-.02-.49-.02-.11-.01-.28-.07-.38-.07l1.64-.02v1.9l-1.81-.02Z"/>
                <path class="cls-56" d="M3.9,22.65c0-.11,0-.22,0-.33l.49-.09c0-.23,0-.45,0-.68l.73.05v1.02c-.06.13-1.05.02-1.22.02Z"/>
                <path class="cls-17" d="M4.39,21.56c0,.23,0,.45,0,.68l-.49.09c-.02-.47,0-.95,0-1.42.02,0,.39-.11.49.02,0,.21,0,.43,0,.64Z"/>
              </g>
            </g>
          </g>
        </g>
        <g>
          <path class="cls-51" d="M8.57,6.08c.19,0,.38.03.57.04.03,0,.01.07.02.07.11.84-.32.39-.42.53-.02.03.02.71,0,.84-.1.24-.66-.37-.52.68-.25-.03-.49.03-.73.04,0-.11.11-.4-.02-.62-.21,0-.43-.01-.64,0-.08,0-.18-.01-.24,0-.26-.51.16-.34.21-.47.02-.06-.02-.29,0-.4,0,0,.07-.07.07-.07.09-.02.49.03.52-.02.02-.02,0-.47.03-.57,0,0-.03-.04.1-.04.32,0,.43-.04.45-.04.19,0,.4.03.59.04Z"/>
          <path class="cls-13" d="M7.44,6.7s.54.02.66,0c.39.67-.61.55-.66.51-.03-.02-.03-.49,0-.51Z"/>
        </g>
        <g>
          <path class="cls-39" d="M10.94,6.15c0,.66,0,1.33,0,1.99.03.04.22.01.28.02v.78l.75.02.02.07-.87.02c-.04.77,0,.58.84.6,0,.2,0,.4,0,.6.02.04.38.02.45.02l-.02.8-1.38.05c-.02.14.03,1.01-.02,1.04-.01.01-.35,0-.37-.02-.17-.25.56-.6-1.1-.49-.03.02-.02.56-.02.66-.35-.07-.72-.04-1.08-.04v-1.55c-.12-.01-.19-.05-.21-.05.02-.13-.02-.86,0-.89.04-.06.34.04.38-.07.05-.13-.03-.59-.03-.75,0-.12,0-.24,0-.37,0-.07.09-.16-.02-.33-.11.02-.22-.02-.33-.04-.14-1.05.42-.43.52-.68.02-.13-.02-.81,0-.84.1-.14.53.31.42-.53.58.02,1.19-.09,1.78-.04Z"/>
          <path class="cls-51" d="M9.06,9.66c.12-.03.37.02.52,0,0,.17.09.8.03.93l-.64.05-.05-.93c.05-.08.09-.04.14-.05Z"/>
          <path class="cls-24" d="M9.58,9.66c-.15.02-.4-.03-.52,0v-.93c.77-.25.6.15.59.91,0,.03-.07.01-.07.02Z"/>
          <path class="cls-30" d="M10.33,8.16s.47-.02.5.05c0,.11,0,.78-.05.82-.02.01-.46,0-.47-.02-.02-.03-.02-.83.02-.86Z"/>
        </g>
        <g>
          <path class="cls-12" d="M19.85,14.62l-.63.09c-.03.45.02.89.03,1.33,0,.03-.07.35-.03.57.06.15.65-.05.66.13,0,.02,0,.05,0,.07.01,1.41,0,2.81,0,4.22-.05.12-.51,0-.56.07-.03.05.03,1.05,0,1.22-.33.02-.65.02-.97.04-.99.05-.38.17-.56.57-.07.15-.32-.21-.24.71,0,0,.01.07-.02.07-.49.02-.98-.01-1.46,0,.02.92-.03.55-1.25.62l-.07.8-2.32-.04h2.28l.03-.8h1.22c-.08-1,.28-.57,1.53-.66.06-.64-.05-.66-.05-.69-.04-.96.04-1.92-.02-2.88l-.85.05c.04.48-.05,2.34,0,2.52,0,.03.07.07.1.05,0,0-.08.11-.17-.02v-2.56c.2-.29.55-.03.84-.18.04-.94.05-1.88.1-2.81-.04-.07-.5.04-.59-.05.17-.03.53.05.66-.04.15-.1.01-.35.09-.4.06-.05,1.67-.13,1.51,0l-.97.05q.02,1.92.03,3.83s.07.01.1.02c-.14.53-.06,1.18-.05,1.75l1.03-.02v-1.17c-.07-.04-.14-.06-.21-.09.02,0,.06,0,.07-.02.07-.21-.05-3.77,0-4.36.11-.66.06-1.33.07-1.99l.59-.07v-.89l.07.05c0,.3-.01.6,0,.89Z"/>
          <path class="cls-47" d="M18.49,12.58c-.02.08-.03.36-.03.47l-1.62-.04v-.66c.26.04.53-.03.78-.04.52,0,1.03.01.87.26Z"/>
          <path class="cls-50" d="M9.51,13.05s.04.04.03-.15l2.84-.04.02.71-2.18.05-.02,1.3-.64.05c0-.64-.05-1.29-.05-1.93Z"/>
          <path class="cls-54" d="M9.09,22.36s-.03-.04-.14-.04l.03-3.63.64-.05.05,3.63c-.02.05-.51.09-.59.09Z"/>
          <path class="cls-2" d="M17.45,22.94c-.58.18-.3-.19-.44-.26-.03-.01-.23,0-.33,0-.04.01-.1-.02-.1-.05-.05-.17.04-2.04,0-2.52l.85-.05c.06.96-.02,1.92.02,2.88Z"/>
          <g>
            <path class="cls-47" d="M17.52,17.03c-.13.09-.49.01-.66.04-.07-.07-.03-1.16-.03-1.35.13,0,.64-.03.7.02v1.3Z"/>
            <path class="cls-17" d="M16.82,15.72c-.21-.01-.59.04-.63-.05.03-.7-.22-.99.63-.77,0,.27,0,.55,0,.82Z"/>
          </g>
          <path class="cls-47" d="M19.12,16.63c-.05.6.07,4.16,0,4.36,0,.03-.05.02-.07.02-.06-.02-.24.05-.28-.05-.03-.06.03-.38-.02-.42-.03-.02-.38.02-.47,0-.03,0-.09.02-.1-.02q-.02-1.92-.03-3.83l.97-.05Z"/>
          <path class="cls-24" d="M19.05,21.01c.07.03.14.05.21.09v1.17l-1.03.02c0-.58-.09-1.22.05-1.75.09.02.44-.02.47,0,.05.04,0,.36.02.42.04.1.22.03.28.05Z"/>
          <g>
            <path class="cls-24" d="M14.77,10.28l.02.8,1.34.02c.05.86-.2,1.41.45,1.13l.02-.57h1.01l.02.66c-.26,0-.52.07-.78.04v.66l1.62.04s.03-.01.03.04c0,.09-.02.56.02.58.23,0,.45-.01.68,0,.2,0,.4,0,.59,0v.89l-.59.07c-.01.66.04,1.33-.07,1.99.16-.13-1.45-.05-1.51,0-.07.05.07.3-.09.4v-1.3c-.06-.04-.56-.01-.7-.02,0-.27,0-.55,0-.82-.84-.22-.6.07-.63.77.04.1.41.04.63.05,0,.19-.03,1.28.03,1.35.09.1.55-.01.59.05-.05.94-.07,1.87-.1,2.81-.28.15-.63-.11-.84.18v2.56c.1.12.17.02.17.02.1,0,.3-.01.33,0,.14.06-.14.43.44.26,0,.04.12.05.05.69-1.25.09-1.61-.34-1.53.66h-1.22l-.03.8h-2.28l-.02-.77-1.22.04-.07-.66h-1.43l-.02-.64s-.5-.02-.59-.02v-.69c.08,0,.57-.04.59-.09l-.05-3.63-.64.05-.03,3.63c-.13,0-.26,0-.38,0-.15,0-.93.04-.97-.05v-.99l-.59-.07c.03-.57-.03-1.13-.03-1.7,0-.38.04-.78.03-1.17,0-.01.12-.1-.07-.13v-1.08s.09.02.1-.02v-2.77l.89-.05s.01-.46.02-.55c0-.15.02-.51,0-.58-.01-.22,1.07-.06,1.57-.11,0,.64.06,1.29.05,1.93l.64-.05.02-1.3,2.18-.05-.02-.71-2.84.04c0-.2-.03-.4-.03-.58,0-.09-.01-.63.02-.66,1.66-.1.93.24,1.1.49.02.02.35.03.37.02.05-.03,0-.9.02-1.04l1.38-.05.02-.8c.68.03,1.67.02,2.37,0Z"/>
            <g>
              <path class="cls-47" d="M14.75,12.87h1.43l.05,1.3c-.98.2-.45-.45-.61-.57-.04-.03-.77.02-.91,0l.03-.73Z"/>
              <path class="cls-47" d="M12.91,22.94h.66l.07.62c.31.15.68-.42.57.68l-1.06.02c-.05-.04,0-.6-.02-.64-.04-.06-.45.2-.23-.68Z"/>
              <path class="cls-16" d="M13.01,11.12h1.11l.02.78-1.13.02v-.8Z"/>
              <path class="cls-43" d="M7.82,18.71h.77l.02.71-.78.05v-.77Z"/>
              <path class="cls-16" d="M11.34,22.21l.64.02-.02.78-.64-.02.02-.78Z"/>
              <path class="cls-2" d="M15.55,22.29c.55-.25.43.58.35.62-.53.25-.44-.58-.35-.62Z"/>
              <g>
                <path class="cls-53" d="M12.42,15.39h1.81c.12.05,0,.54.07.58.06.04,1.17-.03,1.36,0,.22,1.09-.32,1.06.64,1.15-.03.18.04,1.26,0,1.31-.14.21-.66-.54-.52.99l-1.13.02-.02,1.41c-.96.06-.46.27-.61.38-.09.07-1.95-.05-2.23,0l-.02-1.59-.59-.07v-3.03c1.17.07.56-.35.78-.46.35-.16.37.39.45-.69Z"/>
                <g>
                  <path class="cls-37" d="M14.04,16.66s-.11-.01-.14.05c-.02.05.01.22,0,.31-.1,0-.65.09-.7.02v-.95l.78-.02.05.58Z"/>
                  <path class="cls-14" d="M13.11,17.69c.12.03.7-.06.75.05.17.39-.33.3-.35.33-.04.06.06.66-.05.71-.57.26-.42-.66-.35-1.1Z"/>
                  <g>
                    <path class="cls-6" d="M12.37,17.69c0,.36.07.72.03,1.08-.64.23-.54-.04-.52-1.08h.49Z"/>
                    <path class="cls-4" d="M12.37,17.69h-.49c0-.29,0-.57,0-.86.79-.14.47.16.49.86Z"/>
                  </g>
                  <path class="cls-1" d="M14.12,19c.78-.19.52.68,0,.44-.08-.04-.08-.4,0-.44Z"/>
                  <path class="cls-28" d="M14.04,16.66c.36-.08.26.36.24.38-.05.07-.36-.02-.38-.02.01-.09-.02-.26,0-.31.03-.07.09-.04.14-.05Z"/>
                </g>
              </g>
              <g>
                <path class="cls-18" d="M7.96,14.58c.11-.03.67-.02.71.09l-.05,3.52h-.77l-.09-.09v-3.39s.15-.12.19-.13Z"/>
                <path class="cls-2" d="M7.89,14.66l.75.05-.05,3.45-.75-.05.05-3.45Z"/>
              </g>
            </g>
          </g>
        </g>
      </g>
      <g>
        <path class="cls-24" d="M18.72,19.62l.05.66c.24.04.61-.04.64-.04.63.03.67-.07.63.66v.04c-.12.01-.24-.03-.35.05-.05.88.21,1.18-.38,1.08-.03-.2.01-.58,0-.84,0-.07.02-.34-.02-.37-1.08.16-.46-.51-.7-.62-.45-.04-1.83.05-2.04,0-.02,0-.06.01-.1-.05l-.02-.49c-.24,0-.48,0-.71,0-.39-.01-.79,0-1.18,0l.05-.69,3.52.04c.12.05,0,.54.07.58.02.02.45,0,.54,0Z"/>
        <path class="cls-24" d="M34.32,12.14c0,.17,0,.34,0,.51,0,.41-.01.83,0,1.24,0,.1-.02.63.02.66.22.04,1.6-.05,1.67,0,.06.05-.05.49.07.55.93-.04,1.01.22.96-.55.21,0,.43,0,.64,0,.09.07.04.29.05.51,0,.1-.02.67.02.69h.68c.02.34.01.61,0,.95-.25,0-.51.01-.77,0v-.89c-.04-.09-.4-.05-.59-.05-.19,0-.38.04-.56.04-.16,0-.36-.06-.52-.07-.02-.14.02-.51,0-.57-.04-.09-.36-.05-.45-.05-.41-.03-.84-.02-1.25-.04-.01-.09.03-.48-.02-.51-.02-.02-.37.01-.47,0-.02-.8-.05-1.59-.03-2.39l.56-.02Z"/>
        <path class="cls-53" d="M37,6.88c-.16,0-.33,0-.49,0-.12.04-.05-.25-.07-.57-.05-.12-.46-.02-.5-.05-.05-.04.02-.44-.03-.47-.06-.05-1.5-.05-1.57,0-.03.02-.03.49,0,.51.06.05,1.3-.03,1.5,0,.03.03.02.53.02.62-.54,0-1.07-.03-1.6-.04l-.02-.51c-.75-.04-1.5.07-2.25.04l-.03-.62c.77-.03,1.54-.13,2.32-.07l.07-.58h1.6c-.06,1.07.29.51.49.66.16.12-.35.54.57.57.01.17-.01.36,0,.53Z"/>
        <path class="cls-24" d="M15.31,5.24c-.09.78.11.54,1.13.51l.07.62h2.09l.07-.62h.64v.4c-.07,0-.58.1-.59.13l.02.6h-2.8l-.02-.62c-.2,0-.41,0-.61,0-1.11-.04-1.13-.1-1.08.6-.84-.1-.52.44-.52,1.19,0,.36.02.75,0,1.11,0,.03-.07.01-.07.02l-.52.05v.6s-.05,0-.07,0c-.08,0-.43.02-.45-.02-.02-.03.01-.52,0-.64.09,0,.07-.04.07-.04.02,0,.11.06.44.04.03-.01.01-.07.02-.07.03,0,.29.08.52.02.04-.75-.09-1.5-.03-2.24,0-.03.11.1.07-.62.02,0,.05,0,.07,0,.13,0,.27,0,.4,0,.04-1.05.72.11.68-.99,0,0-.01-.07.02-.07.35-.02.45.04.47.04Z"/>
        <path class="cls-24" d="M37.66,9.18c0,.2-.04.65.05.69h.64c.01.17.03.33.03.51,0,.16,0,.32,0,.47,0,0,.01.07-.02.07-.1,0-.62-.02-.64.02l-.05,1.04c-.19.02-.42-.02-.61,0-.08-.15,0-.43-.05-.47-.04-.03-.8.02-.94,0l-.1.55h-1.62s-.18-.14-.02-.55c.39-.01.78.01,1.17,0,.08,0,.46.02.49-.02.03-.04-.03-.53.02-.57.07-.05,1.6.08,1.65-.05v-.99s-.53-.01-.63-.02c.02-.4-.04-.66-.03-.69,0-.1.03-.07.03-.07-.04.11.28.07.63.07Z"/>
        <path class="cls-53" d="M15.93,13.85c0,.21,0,.43,0,.64l.56.05c0,.09.09.53.02.58-.2,0-.39,0-.59,0-.03,0-.01-.07-.02-.07-.01-.09.03-.48-.02-.51-.07-.05-1.45.04-1.67,0-.1.59-.06.56.47.58l-.02.62c-.58.06-.84-.07-.89-.07.09-.82-.11-.48-1.17-.55-.06.05.05.53-.07.58-.42.19-.39-.24-.37-.55,0,0,.03-.04.03-.04.22-.09.4.27.35-.58.53-.05,1.05-.04,1.58-.04l.07-.66h1.72Z"/>
        <path class="cls-53" d="M27.53,1.08l-.03.55c-.13,0-.25-.04-.31.05,0,.19,0,.38,0,.57h-.21c-.68-.04-.36.02-.49.62-.79.04-1.58-.03-2.37,0,0-.03-.03-.04-.03-.07,0-.18,0-.35,0-.53-.03-.04-.28-.01-.35-.02-.17-.01-.35.04-.42-.05,0-.18,0-.35,0-.53,0-.01,0-.02,0-.04h.78c.12.05,0,.54.07.58.09.07,1.98-.05,2.26,0,.23-.11-.35-.74.63-.58.11-.05.02-.48.05-.53.03-.04.35-.01.42-.02Z"/>
        <path class="cls-12" d="M27.88,24.8c.19-.03.26.04.28.04v.11l.02.55h2.72s.09-.51.09-.58c.13,0,.26,0,.38,0,.23,1.17-.5-.03-.4,1.2h-1.11c-.23.11.35.65-.66.51,0-.71,0-.5-.99-.49.15-1.26-.71.06-.56-1.22l.09-.11c.12.1.15,0,.16,0Z"/>
        <path class="cls-53" d="M19.31,5.2s0,.07,0,.11v.44h-.64l-.07.62h-2.09l-.07-.62c-1.02.03-1.22.27-1.13-.51,0,0-.01-.07.02-.07.15,0,1.1-.03,1.15,0,.05.04-.02.51.03.55.09.06,2,.06,2.09,0,.17-.13-.42-.65.71-.51Z"/>
        <path class="cls-53" d="M26.76,24.29c.14.02.31-.01.45,0,0,.02.06.21.03.47-.05,0-.03.07-.05.07-.1,0-.7.02-.73,0-.05-.04.02-.44-.03-.47-.09-.07-2.17-.07-2.26,0-.06.05.05.49-.07.55-.25,0-.5,0-.75,0,0-.21,0-.43,0-.64.02-.04.07-.01.1-.02.47-.12.53.33.61-.51.31.06,2.37-.07,2.47,0,.13.1-.2.49.23.55Z"/>
        <path class="cls-12" d="M20.25,25.53c.79-.02,1.58.02,2.37,0,.18,1.29-.8,0-.71,1.1h-.94c-.25-.12.53-.72-1.18-.47-.16-.38.02-.59.02-.62h.45Z"/>
        <path class="cls-53" d="M19.31,21.23c-1.05.1-.58-.27-.71-.37-.08-.06-1.73.05-1.98,0-.11.05,0,.5-.07.55-.05.03-.97.03-1.11.04-.03,0-.01-.07-.02-.07-.08-.76.08-.45,1.06-.51.02-.15.04-.29.05-.44.01-.12-.07-.11.03-.18.21.05,1.58-.04,2.04,0,.24.11-.38.78.7.62.04.03.01.3.02.37Z"/>
        <path class="cls-12" d="M13.04,10.93c.24,0,.46.02.7.04.01.16-.01.32,0,.47,0,.06-.01.08.07.07-.07,0-.14,0-.21,0-1.01.02-1.16-.18-1.08.47-.11-.01-.56.03-.59-.02-.03-.29.08-.74-.07-.93v-1.17s.05,0,.07,0c.24-.05.37,0,.61,0l-.02,1.04s.44.02.52.02Z"/>
        <path class="cls-53" d="M34.22,20.24s.04.03.03.11c0,.15-.07.33-.03.49.11.17.75-.36.59.57-.29,0-.59.07-.89.04l-.1-.58c-.63.01-1.27-.02-1.9,0,.01-.19,0-.39,0-.58l.03-.04h2.26Z"/>
        <path class="cls-13" d="M29.1.49s.05,0,.07,0l.05.62c.19,0,.38,0,.57,0-.24.82.36.67.45.57.02-.02-.1-.59.07-.49-.04.52.07.45.07.47,0,.03-.1.41,0,.58-.11,0-.68-.02-.71,0-.05.04.02.29-.03.33-.05.04-.84-.06-1.15.04-.07-.16.02-.42.02-.44.11-.02.61.06.66-.05.17-.37-.34-.29-.52-.35.19-.02.48.04.52-.05v-.58c-.19-.06-.39-.04-.59-.05-.02,0-.05,0-.07,0V.49s.04-.04.07-.04c.16,0,.35.04.52.04Z"/>
        <path class="cls-12" d="M13.78,15.68s.11.07-.59.07c-.8,0-.56-.18-.59.89.11.25.71-.4.56.71-.03,0-.14.05-.52.04-.02,0-.05,0-.07,0v-.68l-.63-.02s-.1.01-.1-.02c-.13-1.33.25-.89.31-.99.03-.05-.05-.41.03-.53-.03.31-.05.74.37.55.12-.05,0-.54.07-.58,1.06.06,1.25-.27,1.17.55Z"/>
        <path class="cls-53" d="M37.07,11.99s-.07.12-.64.07c-.05.04.02.54-.03.58-.08.06-1.81-.05-2.07,0,0-.17,0-.34,0-.51,0-.03.04-.04.03-.07h1.62l.1-.55c.14.02.9-.03.94,0,.06.04-.03.33.05.47Z"/>
        <path class="cls-53" d="M37.04,14.55c.06.77-.03.5-.96.55-.11-.05,0-.5-.07-.55-.07-.05-1.45.04-1.67,0-.04-.03-.01-.56-.02-.66h1.72l.03.66c.32,0,.64,0,.96,0Z"/>
        <path class="cls-12" d="M21.92.46s-.09.05-.1.15c.01-.04-.02-.1-.05-.11-.59-.14-.28.54-.38.62-.35,0-.71,0-1.06,0-.09,0-.55-.02-.57,0-.04.03,0,.39-.02.47-.02,0-.13.03-.45.04-.04-.09-.05-.37-.03-.44.09-.35.58.31.5-.66.22-.07,1.5.01,1.57-.04.14-.1-.33-.6.59-.47.03.02.02.38.02.44Z"/>
        <path class="cls-12" d="M14.26,20.39c.49.01.98,0,1.46,0,.26,0,.55-.03.8.04-.01.15-.04.29-.05.44-.98.06-1.14-.25-1.06.51-.22,0-.44.04-.66.04.16-1.15-.71.03-.7-1.02.06,0,.15,0,.21,0Z"/>
        <path class="cls-12" d="M16.49,12.14s.02,0,.03,0c.02.8-.01,1.61-.03,2.41l-.56-.05c0-.21,0-.43,0-.64-.01-.38-.01-.78,0-1.17,0-.08-.02-.52.02-.55.18,0,.36,0,.54,0Z"/>
        <path class="cls-53" d="M16.53,11.63l-.03.51c-.18,0-.36,0-.54,0-.04.03-.01.46-.02.55h-1.69l-.05-.62c.22,0,1.62.05,1.69,0,.02-.02.03-.39.02-.44.21-.09.42-.01.63,0Z"/>
        <path class="cls-18" d="M37,6.88c.03.4.03.77.03,1.17,0,.35,0,.71,0,1.06,0,0-.03-.02-.03.07h-.52c-.02-.37-.03-.72-.03-1.1,0-.39,0-.78,0-1.17.09,0,.07-.04.07-.04.16,0,.33,0,.49,0Z"/>
        <path class="cls-18" d="M13.22,17.43c.17.01.35,0,.52,0,0,.31-.02,2.1,0,2.21,0,.03.07.07.1.05,0,0-.15.07-.17.07-.03,0,.12-.11-.45-.07,0,0-.07.01-.07-.02,0-.37,0-.74,0-1.11,0-.41-.04-1.12.07-1.13Z"/>
        <path class="cls-18" d="M36.97,17.43c0,.38,0,.75,0,1.13,0,.38,0,.75-.03,1.13-.1.02-.44-.05-.49.05-.02.06.02.45,0,.6-.02,0-.05,0-.07,0h-.45s0-.05,0-.07l.45-.02c.03-.19-.04-.54-.03-.57,0,0,.07.01.07-.02.04-.74-.02-1.5,0-2.24.19,0,.37,0,.56,0Z"/>
        <path class="cls-12" d="M18.23,23.34c0,.11,0,.22,0,.33,0,.2,0,.4,0,.6l.56.05h.45v.55c-.84-.04-1.15.36-1.04-.53-.16,0-.33-.05-.49-.05v-.95c.17-.03.35-.09.52,0Z"/>
        <path class="cls-40" d="M13.6,6.88c-.06.74.08,1.5.03,2.24-.23.06-.5-.02-.52-.02v-1.06c-.02-.39,0-.78.03-1.17h.45Z"/>
        <path class="cls-12" d="M35.89,20.42c0,.13,0,.27,0,.4,0,0,.02.04-.07.04-.09,0-.48-.03-.52.05-.02.05.02.36,0,.49-.16,0-.33,0-.49,0,.16-.92-.48-.4-.59-.57-.04-.16.03-.34.03-.49.38.04,1.43-.05,1.62,0,.03,0,.02.05.02.07Z"/>
        <path class="cls-53" d="M12.59,9.18c.01.12-.02.61,0,.64.03.04.38.01.45.02v1.1c-.08,0-.5.02-.52-.02l.02-1.04c-.23,0-.37-.05-.61,0l.05-.69c.2,0,.41.01.61,0Z"/>
        <path class="cls-24" d="M15.9,11.63s0,.42-.02.44c-.07.05-1.47,0-1.69,0-.19,0-.37,0-.56,0v-.04h.57l.02-.51c.54,0,1.08,0,1.62,0,.07.05.05.09.05.11Z"/>
        <path class="cls-24" d="M31.92,20.28c0,.19.01.39,0,.58-.21,0-.43,0-.64,0-.12.11-.02.35-.02.44,0,.29,0,.57,0,.86l.57.02s0,.39.02.47c.05.11-.51.09-.54.07-.11-.05-.01-.39-.07-.44-.03-.02-.37.03-.4-.02-.01-.02,0-.41,0-.49,0-.28,0-.56,0-.84.05,0,.44-.17,1.03-.11l-.02-.58s.07-.01.07.04Z"/>
        <path class="cls-31" d="M31.19,5.13c-.02.22-.09.44,0,.66-.09.03-.1.07-.1.07-.36.02-.72-.01-1.08,0l.02-.73c.29.03.54-.02.82-.07.07-.01.32.03.35-.02l.03-.68c.03.25-.02.52-.03.77Z"/>
        <path class="cls-24" d="M27.74,23.31s.02,0,.03,0c.04.51-.1,1.53.1,1.5,0,0-.04.1-.16,0l-.09.11c.03-.12-.14-.06-.37-.07-.03,0-.01-.07-.02-.07.03-.27-.03-.45-.03-.47,0-.3.07-.62.03-.93.07-.1.28-.04.49-.05Z"/>
        <path class="cls-31" d="M20.04,20.94c.19-.02.4.01.59,0,0,.16.04.34.03.47,0,.1-.06.22-.02.33-.21-.02-.4.02-.61.04-.28.03-.34-.19-.31.33-.13.01-.25.04-.38.04,0-.03-.03-.04-.03-.07.59.1.33-.2.38-1.08.11-.08.23-.04.35-.05Z"/>
        <path class="cls-53" d="M37.14,17.39c.16,0,.33,0,.49,0v1.11l-.66.05c0-.38,0-.75,0-1.13.03,0,.17-.04.17-.04Z"/>
        <path class="cls-24" d="M33,2.03c0,.13,0,.27,0,.4,0,.27,0,.54,0,.8-.2,0-.41,0-.61,0-.02.98-.42.43-.54.6-.12.17.35.6-.59.49v-.04c-.18-1.16.78.04.63-1.02.02,0,.14-.05.35-.05v-.89s.08-.02.24-.04c.03.14-.17.03-.21.09-.02.03.02.71,0,.84l.64-.02c.07-.41-.07-1.1.09-1.17Z"/>
        <path class="cls-12" d="M30.39.53c.02.29-.05.55.07.51v.04s-.11.07-.14.07c-.16,0-.36-.03-.52-.04-.19,0-.38,0-.57,0l-.05-.62s.02,0,.03,0c.4,0,.79.02,1.18.04Z"/>
        <path class="cls-24" d="M18.02,2.25c.2.3-.18.54.52.47-.05.13-.47-.04-.21.47-.22.04-.16.24-.17.44.05-.1-.19-.08-.45-.07-.03,0-.04-.04-.07-.04v-1.24s.04-.03.07-.04c.09-.01.21,0,.31,0Z"/>
        <path class="cls-10" d="M19.28,22.76s.03-.02.03.07c0,.29-.03.56-.03.84-.16,0-.33,0-.49,0-.19,0-.33-.08-.56,0,0-.11,0-.22,0-.33,0,0,.03.04.03-.11,1.02.14-.06-.62,1.01-.47Z"/>
        <path class="cls-53" d="M37.66,9.18c-.34,0-.67.04-.63-.07,0-.35,0-.71,0-1.06l.63.02c0,.37-.01.74,0,1.11Z"/>
        <path class="cls-18" d="M33,2.03c-.16.07-.01.76-.09,1.17l-.64.02c.02-.13-.02-.81,0-.84.04-.06.24.04.21-.09.07,0,.32.02.35-.02l.1-.6.07.05c0,.1,0,.21,0,.31Z"/>
        <path class="cls-18" d="M32.54,23.34c.06,0,.36-.01.38.02,0,.13,0,.26,0,.38,0,.16,0,.32,0,.47l-.07.07c-.1,0-.21,0-.31,0-.43,0-.29-.07-.31-.07-.02-.21.03-.65,0-.77.07-.11.19-.11.31-.11Z"/>
        <path class="cls-53" d="M32.02,1.66h-.45c-.17-.02-.4.02-.56,0-.1-.02-.04-.04-.1-.07,0-.15,0-.29,0-.44.05,0,.03-.07.05-.07.34,0,.67,0,1.01,0,.09.04.04.38.05.58Z"/>
        <path class="cls-38" d="M13.22,17.43c-.11.01-.07.72-.07,1.13-.77.08-.47-.08-.52-1.17.38.01.5-.04.52-.04,0,0,.06.07.07.07Z"/>
        <path class="cls-12" d="M19.28,22.18c0,.19,0,.39,0,.58-1.07-.14.01.61-1.01.47,0-.02-.08-.39-.03-.46.04-.06.45.02.49-.04.04-.06-.07-.58.05-.64.55-.04.48.07.5.07Z"/>
        <path class="cls-53" d="M13.6,11.52l.03.51v.04c-.34,0-.75.03-1.06,0-.03,0,0-.07-.05-.07-.08-.65.07-.46,1.08-.47Z"/>
        <path class="cls-53" d="M14.82,5.28c.04,1.1-.64-.06-.68.99-.13,0-.27,0-.4,0-.06,0-.05-.44-.03-.46.04-.06.41.02.45-.04.04-.06-.06-.51.05-.57.59-.05.58.07.61.07Z"/>
        <path class="cls-53" d="M14.05,20.39c-.02,1.05.86-.13.7,1.02-.21,0-.43,0-.64,0-.11-.05-.01-.47-.05-.53-.07-.1-.55.22-.35-.49.11.01.23,0,.35,0Z"/>
        <path class="cls-53" d="M38.43,16.7c0,.11.11.63-.02.69-.26,0-.52-.01-.78,0v-.69s.02,0,.03,0c.25.01.51,0,.77,0Z"/>
        <path class="cls-23" d="M32.93,1.66l-.1.6s-.28.01-.35.02c-.16.01-.23.04-.24.04s-.04-.04-.24-.04c.06-.16.03-.37.03-.55,0-.18.83-.12.91-.07Z"/>
        <path class="cls-53" d="M13.11,8.05v1.06s.01.06-.02.07c-.33.02-.41-.04-.44-.04.05-.98-.23-1.18.45-1.1Z"/>
        <path class="cls-24" d="M31.81,5.79s.09,0,.14,0l.03.62s-.05,0-.07,0c-.97-.05-.85.07-.84-.55,0,0,.01-.04.1-.07.21,0,.42,0,.63,0Z"/>
        <path class="cls-42" d="M33,3.23c0-.27,0-.54,0-.8l.63.02v.77s-.53.01-.63.02Z"/>
        <path class="cls-53" d="M38.36,9.88h-.64c-.09-.04-.05-.49-.05-.69.23,0,.45,0,.68,0,.04.03.01.59.02.69Z"/>
        <path class="cls-12" d="M22.59.53v.55c-.14,0-.6.09-.71.04-.08-.07-.07-.39-.05-.51.01-.09.1-.14.1-.15.21.04.45.06.66.07Z"/>
        <path class="cls-23" d="M38.43,15.75h-.68s-.01-.59-.02-.69h.64c.06.08.03.34.05.69Z"/>
        <path class="cls-19" d="M17.64,2.28v1.24s-.08.18-.35.02v-1.2c.04-.1.24-.04.35-.05Z"/>
        <path class="cls-53" d="M31.81,5.79c-.21,0-.42,0-.63,0-.09-.22-.02-.44,0-.66.77-.12.62-.06.63.66Z"/>
        <path class="cls-24" d="M23.35,24.91c0,.1.02.59-.02.62-.23,0-.45,0-.68,0-.03-.22.03-.44.03-.66.22-.03.44.03.66.04Z"/>
        <path class="cls-10" d="M32.86,24.29c.31.93-.25.63-.87.62-.02-.23.03-.31.03-.33.36-.02.56.12.52-.29.1,0,.21,0,.31,0Z"/>
        <path class="cls-53" d="M12.56,17.39c-.09,0-.6.02-.63-.02-.02-.21.02-.48,0-.68l.63.02v.68Z"/>
        <path class="cls-13" d="M19.24,3.82c-.16,0-.33.03-.49.04-.06,0-.12,0-.17,0v-.66c.21-.01.43,0,.64,0,.13.22.01.51.02.62Z"/>
        <path class="cls-52" d="M31.53,24.33v.51s.02.07-.17.07c-.13,0-.26,0-.38,0,0,0-.07.01-.07-.02,0-.21,0-.41,0-.62.57-.09.59.06.63.05Z"/>
        <path class="cls-51" d="M17.71,24.29s-.3.09-.42.02l-.03-.84.05-.09c.14.02.27-.02.4-.04v.95Z"/>
        <path class="cls-53" d="M18.62,1.7c-.02.16.02.39,0,.55,0,0-.07.07-.07.07.04-.07-.37-.11-.45-.11,0-.08.01-.22,0-.24-.02-.04-.13-.01-.17-.02-.25-.48.49-.36.7-.26Z"/>
        <path class="cls-12" d="M14.19,19.73c.02.34-.06.69.07.66-.06,0-.14,0-.21,0-.12,0-.23.01-.35,0,0,0,.01-.03-.03-.04v-.58s.16-.07.17-.07c.3,0,.33.04.35.04Z"/>
        <path class="cls-8" d="M32.54,23.34c-.12,0-.24,0-.31.11-.04-.15-.1-.12-.28-.11-.09-.15-.03-.55-.03-.58.91-.23.3.38.63.58Z"/>
        <path class="cls-24" d="M23,1.08c.12.01.25-.04.31.05,0,.16,0,.33,0,.49,0,.01,0,.02,0,.04l-.63-.04c0-.18-.03-.39.03-.55.09,0,.19,0,.28,0Z"/>
        <path class="cls-15" d="M13.67,19.77v.58c-.08,0-.5.02-.52-.02-.04-.5.07-.61.07-.64.57-.04.43.07.45.07Z"/>
        <path class="cls-12" d="M30.91,1.15c0,.15,0,.29,0,.44,0,.09-.04.07-.03.07h-.49s-.11.05-.07-.47v-.04s.11-.07.14-.07c.48,0,.43.07.45.07Z"/>
        <path class="cls-12" d="M18.69,1.63c.22-.03.46.04.49.04-.04.1-.02.54-.03.57-.03.05-.44,0-.52.02.02-.16-.02-.39,0-.55.02-.12.07-.07.07-.07Z"/>
        <path class="cls-35" d="M19.8,22.14c-.08.22,0,.6-.03.64-.04.06-.31-.03-.45.05,0-.1-.03-.07-.03-.07,0-.19,0-.39,0-.58.03,0,.04-.04.07-.04.14,0,.25-.03.38-.04.09,0,.07.04.07.04Z"/>
        <path class="cls-10" d="M13.67,6.26c.04.72-.07.59-.07.62h-.45c.01-.2-.01-.4,0-.6.03-.04.44-.01.52-.02Z"/>
        <path class="cls-12" d="M19.24,3.82c.01.18.06.4.07.58,0,.01,0,.02,0,.04-.09-.02-.53.03-.56-.02-.02-.03.01-.45,0-.57.16,0,.32-.03.49-.04Z"/>
        <path class="cls-10" d="M32.93,24.22c0-.16,0-.32,0-.47h.57c.1.63-.04.66-.57.47Z"/>
        <path class="cls-53" d="M35.82,20.86c.24.7-.04.53-.52.55.02-.13-.02-.44,0-.49.04-.09.43-.05.52-.05Z"/>
        <path class="cls-10" d="M36.93,19.69c-.01.21.01.43,0,.64-.03.04-.41.01-.49.02.02-.15-.02-.55,0-.6.04-.1.39-.03.49-.05Z"/>
        <path class="cls-23" d="M19.24,1.19c-.02.07,0,.35.03.44-.14,0-.1.04-.1.04-.02,0-.27-.07-.49-.04.02-.18-.05-.5.05-.55.05-.02.52-.04.5.11Z"/>
        <path class="cls-8" d="M31.74,24.26c.21,0,.23.04.24.04-.02.27.03.28.03.29,0,.02-.06.1-.03.33-.61-.01-.43-.07-.45-.07v-.51s-.09-.07.21-.07Z"/>
        <path class="cls-15" d="M30.46,1.04c-.12.04-.05-.22-.07-.51.08,0,.47-.09.52-.02.01.02.01.49,0,.51-.03.05-.37,0-.45.02Z"/>
        <path class="cls-12" d="M28.51.49v.58c-.16,0-.33,0-.49,0v-.55c.16,0,.32-.03.49-.04Z"/>
        <path class="cls-10" d="M28.02.53v.55s-.02,0-.03,0c-.02,0-.05,0-.07,0-.1,0-.21,0-.31,0-.1-.04-.09-.54-.07-.57.05-.07.46.02.49.02Z"/>
        <path class="cls-49" d="M38.39,10.86c0-.16,0-.32,0-.47.11.01.48-.02.5,0,.02.02.03.46.02.49-.07.18-.49-.02-.52-.02Z"/>
        <path class="cls-12" d="M18.34,3.2c.07-.01.17,0,.24,0v.66c-.15,0-.28-.03-.42-.04,0-.06,0-.12,0-.18.01-.2-.05-.4.17-.44Z"/>
        <path class="cls-12" d="M32.02,1.66s0,.05,0,.07c0,.18.03.39-.03.55-.14,0-.28,0-.42,0-.02-.2.01-.42,0-.62h.45Z"/>
        <path class="cls-53" d="M36.37,20.35c.23.88-.43.47-.49.47,0-.13,0-.27,0-.4,0,0,.03.03.03-.07h.45Z"/>
        <path class="cls-12" d="M19.77,25.46c-.59.25-.44-.03-.45-.55.19.01.39-.04.45.05,0,.16,0,.33,0,.49Z"/>
        <path class="cls-12" d="M12.56,14.55c.06.86-.13.5-.35.58-.15.07-.12-.54-.1-.57.03-.04.38-.01.45-.02Z"/>
        <path class="cls-23" d="M23,1.08c-.09,0-.19,0-.28,0-.05,0-.09,0-.14,0v-.55s.37-.09.42-.02c.02.03-.01.45,0,.57Z"/>
        <path class="cls-15" d="M19.26.53s.42,0,.44.02c.01.02,0,.48-.02.49-.02.01-.4.01-.44-.05-.01-.02,0-.44.02-.46Z"/>
        <path class="cls-12" d="M27.6,1.08c.1,0,.21,0,.31,0-.01.11.02.5,0,.53-.05.07-.4.02-.42.02l.03-.55s.05,0,.07,0Z"/>
        <path class="cls-15" d="M28.07.06s.53-.14.47.35c0,.04-.42.03-.44.02-.08-.04-.06-.35-.03-.37Z"/>
        <path class="cls-10" d="M18.16,3.63c0,.06,0,.12,0,.18-.19-.01-.63.2-.45-.26.27,0,.5-.03.45.07Z"/>
        <path class="cls-5" d="M17.92,1.95s.15-.02.17.02c.01.02,0,.16,0,.24,0,0,.02.03-.07.04-.1,0-.22-.01-.31,0-.09-.28-.06-.32.21-.29Z"/>
        <path class="cls-22" d="M11.86,9.88v1.17s-.08.02-.1-.02c-.03-.05.11-.99,0-1.13.02-.04.08,0,.1-.02Z"/>
        <g>
          <path class="cls-18" d="M29.17.46l-.07.04c-.17,0-.36-.04-.52-.04-.03-.56,0-.43.54-.44.1.04.04.34.05.44Z"/>
          <path class="cls-48" d="M29.17.46s.04,0,.03.04c-.01,0-.02,0-.03,0-.02,0-.05,0-.07,0l.07-.04Z"/>
        </g>
        <path class="cls-29" d="M35.75,19.69c-.49,0-.99,0-1.48,0,0,.18-.04.37-.05.55h-2.26c-.16-1.22.63.06.54-1.17l3.27-.04c.07.03.1.68-.02.66Z"/>
        <g>
          <path class="cls-35" d="M27.15,5.2l-.05.62c-.19,0-.38,0-.57,0-.69.02-1.69.03-2.37,0-.07,0-.43.02-.45-.02,0-.2,0-.4,0-.6,0-.01.03-.04.03-.22.08,0,.16,0,.24,0,.03,0,.04-.04.07-.04.31,0,2.31-.01,2.42.04.17.08-.27.25.68.22Z"/>
          <path class="cls-41" d="M26.49,4.25c0,.13-.03.27.05.33l1.06-.04s.07.37.03.64c-.02.04-.41.02-.49.02-.95.04-.51-.14-.68-.22-.11-.05-2.11-.04-2.42-.04l-.02-.69c.58.04,1.18-.04,1.76-.04.22,0,.47.08.7.04Z"/>
        </g>
        <path class="cls-46" d="M27.84,22.1c-.11.26.01.64,0,.88,0,.06-.06.26-.1.33-.21.01-.42-.04-.49.05.04.31-.03.63-.03.93-.14-.01-.31.02-.45,0-.03-.39-.09-.78-.1-1.17,0-.2,0-.4,0-.6,0-.03-.07-.01-.07-.02,0-.02.09,0,.09-.4.39-.01.78.02,1.17,0Z"/>
        <path class="cls-39" d="M20.04,20.9c.04-.73,0-.62-.63-.66.04-.2-.03-.42-.03-.62,0-.32.06-.66.05-.99h.59l.02.93c.12.18.82-.42.66.69-.42.19.3.77-.66.64Z"/>
        <path class="cls-13" d="M29.69,21.74c-.24,0-.49-.04-.56.05-.03.28.04.68.03.71,0,.04-.12.17-.07.8-.04.01-.12-.02-.14.02v1.41l.07.04c-.2.16-.05.6-.12.66-.13-.02-.67.02-.7,0-.06-.04.03-.4-.05-.47v-.11c.09-.01.19-.05.28-.05.03-.35-.04-1.17,0-1.37,0,0,.03-.1.03-.11.13-.21.47.12.56-.09.03-.07.02-1.29.07-1.41.09-.23.42-.04.63-.13l.03-.78c-.02.37.06.86-.07.84Z"/>
        <path class="cls-53" d="M20.18,7.83c.36,0,.73-.03,1.08.04,0,.19.03.39.03.58,0,.19-.03.14-.03.15-.5.05-1.58-.11-1.57.11,0,0-.04,0-.05-.15-.17.08-.15,0-.16,0-.04-.24.03-.5.03-.73.22,0,.44,0,.66,0Z"/>
        <path class="cls-53" d="M15.31,6.26v.66c-.33,0-.66.03-.99,0-.32.74.33,1.27-.61,1.13,0-.75-.31-1.29.52-1.19-.05-.71-.03-.64,1.08-.6Z"/>
        <path class="cls-53" d="M13.18,15.75c-.03.71,0,.46.63.53,0,.35.01.71,0,1.06,0,.02-.07.05-.07.09-.17,0-.35.01-.52,0,0,0-.06-.07-.07-.07.15-1.11-.45-.46-.56-.71.03-1.07-.2-.89.59-.89Z"/>
        <path class="cls-24" d="M34.25,6.88c-.33,0-2.12.11-2.28.04-.1-.05-.03-.41-.05-.51.02,0,.05,0,.07,0,.75.03,1.5-.07,2.25-.04l.02.51Z"/>
        <path class="cls-53" d="M20.67,21.41c0-.14-.04-.32-.03-.47,0-.21-.04-.58.05-.62.12-.02.6.02.63,0,.08-.06-.23-.56.61-.31-.01.13.02.66,0,.69-.05.07-.45-.05-.56.07-.15.36.43.75-.7.64Z"/>
        <path class="cls-46" d="M27.18,2.25c0,.08.02.61.03.64.03.04.42,0,.52.05,0,.02,0,.05,0,.07-.01.24-.02.47-.03.71,0,.03-.07.05-.07.05h-1.08c-.06-.1-.03-.22-.03-.33,0-.19-.02-.39.03-.58.09,0,.38.04.42-.05.02-.05-.02-.42,0-.57h.21Z"/>
        <path class="cls-52" d="M35.75,19.69s-.04.04.17.04c0,.18,0,.37,0,.55,0,.02,0,.05,0,.07,0,.1-.03.07-.03.07,0-.02,0-.07-.02-.07-.19-.05-1.24.04-1.62,0,0-.08-.04-.08-.03-.11.01-.18.05-.37.05-.55.49,0,.99,0,1.48,0Z"/>
        <path class="cls-10" d="M20.18,7.83c-.22,0-.44,0-.66,0,0-.28-.02-.59-.03-.88,0-.11-.07-.06-.07-.09,0-.11.09-.34,0-.6.1,0,.53-.04.56-.04.01,0,.09.04.21.05v1.55Z"/>
        <path class="cls-35" d="M35.5,11.52l.02-.58,1.48-.09c-.03-.32.02-.65.03-.97.09,0,.6-.02.63.02v.99c-.06.13-1.59,0-1.65.05-.05.04,0,.53-.02.57-.02.04-.41.02-.49.02Z"/>
        <path class="cls-53" d="M37.07,15.75c-.08.31-.01.61,0,.91.01.38-.05.77.07.73,0,0-.14.03-.17.04-.19,0-.37,0-.56,0,.02-.61.05-1.07.1-1.64.18,0,.37-.04.56-.04Z"/>
        <path class="cls-24" d="M15.9,15.06c-.31,0-.93.09-1.22.07-.53-.03-.57,0-.47-.58.22.04,1.6-.05,1.67,0,.04.03,0,.42.02.51Z"/>
        <path class="cls-20" d="M30.84,20.94c0,.28,0,.56,0,.84-.48-.13-.99.03-1.04.04-.04,0-.1-.07-.1-.07.13.02.05-.47.07-.84.29.03.58-.02.87-.04.02,0,.2.07.21.07Z"/>
        <path class="cls-53" d="M31.64,11.59h-.63c-.02-.44-.06-.89-.03-1.33l.63-.09c.02.48.03.94.03,1.42Z"/>
        <path class="cls-3" d="M30.84,3.78c0,.15,0,.29,0,.44,0,.1.03.07.03.07,0,.25-.07.51-.03.77-.28.05-.53.11-.82.07l-.02.73-.07-.02c-.02-.23.02-.47,0-.69,0-.03-.07-.01-.07-.02-.02-.28.01-.56,0-.84.28,0,.58-.03.85.04.14-.18-.05-.44.12-.55Z"/>
        <path class="cls-13" d="M27.63,3.78c-.01.25-.03.52-.03.77l-1.06.04c-.08-.06-.05-.2-.05-.33,0-.04.07-.23.03-.47h1.11Z"/>
        <path class="cls-20" d="M28.64,21.81v1.19s-.41.02-.49.02c-.11,0-.21,0-.31-.04.01-.24-.11-.62,0-.88.93-.04.35-.19.54-.33.06-.05.25.04.26.04Z"/>
        <path class="cls-39" d="M31.08,17.87c.03-.17-.03-1.17,0-1.22.05-.07.51.05.56-.07,0-1.41.01-2.81,0-4.22,0,1.41.12,2.85.03,4.25,0,.04-.1.06-.1.07-.02.22.03,1.11,0,1.17-.11.13-.46.02-.49.02Z"/>
        <path class="cls-30" d="M31.85,20.24l.02.58c-.58-.07-.98.11-1.03.11-.01,0-.19-.07-.21-.07.02-.1-.03-.59.02-.62.05-.04,1.05,0,1.2,0Z"/>
        <g>
          <path class="cls-51" d="M20.25,25.53h-.45s-.03-.04-.03-.07c0-.16,0-.33,0-.49-.07-.1-.26-.04-.45-.05-.09,0-.07-.04-.07-.04v-.11c.05.22.37.05.5.11.12.05.01.51.05.57.02.02.35.03.37.02.06-.04-.03-.82.05-.97,0-.02-.16-.16-.17-.16.34-.26-.33-.77.73-.6v1.06c-.11.25-.68-.4-.52.75Z"/>
          <path class="cls-53" d="M20.04,24.33s.17.14.17.16c-.08.15,0,.93-.05.97-.01.01-.35,0-.37-.02-.04-.06.06-.51-.05-.57-.13-.06-.45.11-.5-.11v-.44s0-.02,0-.04c.25.11.62-.04.8.04Z"/>
        </g>
        <path class="cls-39" d="M29.1,21.81c-.05.12-.04,1.34-.07,1.41-.08.21-.43-.12-.56.09-.15-.18-.37.09-.31-.29.07,0,.47.01.49-.02v-1.19s.25-.1.45,0Z"/>
        <path class="cls-53" d="M36.44,6.92c0,.39,0,.78,0,1.17l-.59-.05c0-.37,0-.74,0-1.11.2,0,.4,0,.59,0Z"/>
        <path class="cls-13" d="M30.11,17.91c-.08.22,0,.6-.03.64-.09.13-.4-.33-.31.66-.33.16-.43-.02-.45-.02-.07-.93.18-.56.24-.71.18-.39-.43-.52.56-.57Z"/>
        <path class="cls-51" d="M28.64,1.77s-.07,0-.1,0c-.05,0-.11-.02-.14.02l.03,1.24-.7-.02.63-.05-.03-1.22s.17-.04.17-.05c.02-.24-.06-.51.07-.6.2.01.4,0,.59.05v.58c-.04.1-.33.04-.52.05Z"/>
        <g>
          <path class="cls-10" d="M19.49,8.56s-.01.08.16,0c.01.15.05.14.05.15.02.08,0,.44,0,.58l-1.51-.04s-.02-.68-.02-.8c0-.22,0-.44,0-.66.22.01.45-.01.68,0l.02.75c.16.13.59.02.63.02Z"/>
          <path class="cls-23" d="M18.16,7.79c0,.22,0,.44,0,.66l-.85-.04-.02-.64c.05-.07.75.01.87.02Z"/>
        </g>
        <path class="cls-35" d="M31.99,2.28c.21,0,.23.04.24.04v.89c-.21,0-.33.06-.35.05-.01,0,.01-.04-.24-.05-.01-.29.02-.59,0-.88,0-.03-.06,0-.07-.05.14,0,.28,0,.42,0Z"/>
        <path class="cls-30" d="M29.86,4.29c.01.28-.02.56,0,.84-.09-.02-.53.03-.56-.02-.02-.03.02-.67,0-.8.14-.13.49-.02.56-.02Z"/>
        <path class="cls-32" d="M19.38,19.62c0,.2.07.42.03.62-.03,0-.4.07-.64.04l-.05-.66c.22,0,.44,0,.66,0Z"/>
        <path class="cls-11" d="M30.94,8.6c0,.21,0,.41,0,.62-.23-.01-.45,0-.68,0-.04-.03-.01-.5-.02-.58.16-.14.48-.07.7-.04Z"/>
        <path class="cls-39" d="M30.94,8.6c-.22-.03-.53-.1-.7.04,0-.05-.03-.03-.03-.04,0-.11.01-.4.03-.47,0,0,.05.02.07-.02.07-.14-.22-.24.57-.2,0,.23.04.47.05.69Z"/>
        <path class="cls-52" d="M15.93,6.88v.04c-.21,0-.42,0-.63,0v-.66c.2,0,.41,0,.61,0l.02.62Z"/>
        <path class="cls-38" d="M19.42,6.26c.09.27,0,.49,0,.6,0,.03.06-.02.07.09-.23-.05-.46-.04-.7-.04v-.6c.04-.1.42-.05.63-.05Z"/>
        <path class="cls-3" d="M31.64,11.59c0,.23,0,.46,0,.69-.02-.18-.6.02-.66-.13-.03-.22.04-.54.03-.57h.63Z"/>
        <path class="cls-52" d="M20.71,17.87c.11,0,.12.04.14.04v.69s-.38.11-.52-.02v-.71c.13,0,.26,0,.38,0Z"/>
        <path class="cls-52" d="M37,9.18s.05.29.03.69c-.08,0-.53.02-.56-.02-.01-.22.01-.45,0-.68h.52Z"/>
        <path class="cls-53" d="M13.64,9.18s.07.43.03.64c-.05.13-.46.02-.56.02v-.6l.52-.05Z"/>
        <path class="cls-13" d="M31.57,1.66c.01.2-.02.42,0,.62-.62-.02-.67.18-.56-.62.15.02.39-.02.56,0Z"/>
        <g>
          <path class="cls-53" d="M18.76,13.89c0,.39-.04.78-.03,1.17h-.56c-.03-.44,0-.81,0-1.24.31.02.63-.06.59.07Z"/>
          <path class="cls-20" d="M18.69,12.69v1.08c.19.03.07.12.07.13.03-.13-.28-.05-.59-.07,0-.35-.08-.72-.03-1.08.05-.11.46-.03.56-.05Z"/>
          <path class="cls-39" d="M18.69,15.06c-.02.69.17.71-.52.64-.01-.21.01-.43,0-.64h.52Z"/>
        </g>
        <path class="cls-53" d="M30.87,1.66s.11.2.07.57c-.03.04-.47.02-.56.02-.1-.17,0-.55,0-.58h.49Z"/>
        <path class="cls-30" d="M16.53,12.14s-.02,0-.03,0l.03-.51c.09,0,.57-.02.59.02.01.02,0,.48-.02.49-.02.02-.48,0-.57,0Z"/>
        <path class="cls-21" d="M19.28,23.67c0,.21-.03.41-.03.62,0,.01,0,.02,0,.04h-.45v-.66c.16,0,.33,0,.49,0Z"/>
        <path class="cls-8" d="M13.81,11.52c.14,0,.28,0,.42,0l-.02.51h-.57l-.03-.51c.07,0,.14,0,.21,0Z"/>
        <path class="cls-21" d="M35.99,15.72s-.4.09-.45.02c-.02-.03.01-.52,0-.64.09,0,.41-.04.45.05.02.05-.02.42,0,.57Z"/>
        <path class="cls-53" d="M34.29,15.06c-.08,0-.47.09-.52.02-.04-.17.04-.37.03-.53.1.01.45-.02.47,0,.04.03,0,.42.02.51Z"/>
        <path class="cls-12" d="M36.34,19.69s.07.38.03.57l-.45.02c0-.18,0-.37,0-.55.13,0,.28-.07.42-.04Z"/>
        <path class="cls-24" d="M31.19,4.29s.03.04.03.07l-.03.68s-.28,0-.35.02c-.04-.25.03-.52.03-.77h.31Z"/>
        <path class="cls-13" d="M28.64,1.77c.19.06.69-.03.52.35-.05.11-.55.03-.66.05,0-.03-.12-.28.03-.4.03,0,.07,0,.1,0Z"/>
        <path class="cls-13" d="M13.74,11.45c-.01-.15.01-.32,0-.47.37.02.5-.29.45.49l-.45-.02Z"/>
        <path class="cls-35" d="M30.84,4.22c0-.15,0-.29,0-.44.44-.29.56.61,0,.44Z"/>
        <path class="cls-45" d="M20.04,21.78c-.01.09.02.32,0,.35-.03.04-.19.01-.24.02,0,0,.02-.04-.07-.04-.02-.52.03-.3.31-.33Z"/>
        <g>
          <path class="cls-51" d="M14.54,19.69c.39,0,.79-.01,1.18,0v.69c-.49,0-.98.01-1.46,0-.13.03-.05-.32-.07-.66.1,0,.23-.04.35-.04Z"/>
          <path class="cls-52" d="M16.56,20.24c-.11.07-.02.06-.03.18-.25-.07-.54-.04-.8-.04v-.69c.24,0,.48,0,.71,0l.02.49c.05.07.08.05.1.05Z"/>
        </g>
        <path class="cls-55" d="M37.66,16.7s-.02,0-.03,0c-.17,0-.37-.07-.56-.04-.01-.3-.08-.61,0-.91.2,0,.55-.04.59.05v.89Z"/>
        <path class="cls-44" d="M29.69,21.74s.06.07.1.07l-.03.69c-.2,0-.39,0-.59,0,0-.04-.07-.43-.03-.71.07-.09.32-.05.56-.05Z"/>
        <path class="cls-35" d="M31.95,23.34c.18,0,.24-.04.28.11.03.12-.02.56,0,.77-.02,0-.23.07-.24.07-.01,0-.04-.04-.24-.04v-.86s.19-.05.21-.05Z"/>
        <g>
          <path class="cls-39" d="M30.84,21.78c0,.08-.01.47,0,.49.04.05.37,0,.4.02.06.04-.04.39.07.44.03.01.59.04.54-.07,0,0,.07.1.07.11,0,.03-.06.43.03.58-.02,0-.2.03-.21.05v.86c-.3,0-.2.07-.21.07-.03,0-.06-.14-.63-.05,0,.21,0,.41,0,.62,0,.03.07.01.07.02,0,.07-.04.56-.09.58h-2.72l-.02-.55c.09.08,0,.43.05.47.03.02.57-.02.7,0,.07-.05-.07-.49.12-.66l1.32-.02c-.03-.19.04-1.37,0-1.42-.05-.07-.42.23-.24-.8-.02-.04-.29-.02-.35-.02l.03-.69c.05,0,.57-.17,1.04-.04Z"/>
          <path class="cls-3" d="M31.1,23.31s.49.06.61.05l-.02.82-.78-.02v-.8c.14-.01.18-.05.19-.05Z"/>
          <path class="cls-13" d="M30.47,24.8s.37,0,.4.05c-.01.09.03.53-.02.57-.02.01-.42,0-.44-.02-.02-.02-.02-.54.05-.6Z"/>
          <path class="cls-55" d="M30.86,22.32c.28-.21.44.29.31.4-.01.01-.32-.02-.33-.05-.01-.03,0-.33.02-.35Z"/>
        </g>
        <path class="cls-12" d="M36.51,6.88s.02.03-.07.04c-.2,0-.4,0-.59,0,0-.09.02-.59-.02-.62-.2-.03-1.44.05-1.5,0-.03-.02-.03-.49,0-.51.06-.05,1.5-.05,1.57,0,.05.04-.02.43.03.47.05.03.46-.06.5.05.02.31-.05.6.07.57Z"/>
        <g>
          <path class="cls-24" d="M19.94,4.4s-.09.15.38.11c0,.16.09.62.03.75-.05.11-.34.01-.38.07-.02.04.02.76,0,.89-.03,0-.45.03-.56.04-.21,0-.59-.04-.63.05v.6c-.96.03-1.9,0-2.86,0v-.04h2.8l-.02-.6s.52-.12.59-.13c.09,0,.57.1.63.02v-.88l-.63.02s0-.07,0-.11c0-.25,0-.51,0-.77,0-.01,0-.02,0-.04.19.02.46-.03.63,0Z"/>
          <path class="cls-44" d="M19.31,6.15v-.84l.63-.02v.88c-.05.08-.54-.03-.63-.02Z"/>
        </g>
        <path class="cls-24" d="M26.49,2.87s.05,0,.07,0c-.05.19-.04.39-.03.58-.57.05-2.09-.06-2.4,0-.1-.19,0-.4,0-.58.79-.03,1.58.04,2.37,0Z"/>
        <path class="cls-24" d="M27.98,1.08c-.03.32.09.44-.1.58-.02.01-.12-.02-.14.02-.03.05.01,1.07,0,1.26-.1-.05-.5-.02-.52-.05-.02-.03-.03-.56-.03-.64,0-.19,0-.38,0-.57.06-.09.19-.05.31-.05.02,0,.37.05.42-.02.02-.03-.01-.42,0-.53.02,0,.05,0,.07,0Z"/>
        <path class="cls-20" d="M26.97,2.25c-.02.14.02.51,0,.57-.04.09-.33.05-.42.05-.02,0-.05,0-.07,0,.13-.61-.19-.66.49-.62Z"/>
        <g>
          <path class="cls-46" d="M23.32,1.66c0,.18,0,.35,0,.53.07.1.25.04.42.05.02.4-.13.83.35.55,0,.04.03.04.03.07,0,.19-.1.39,0,.58-.04,0-.12-.02-.14.02.02.16-.03.22-.03.24-.32-.02-.66.03-.97,0-.06,0-.25.02-.28-.02,0-.66,0-1.33,0-1.99,0-.02,0-.05,0-.07l.63.04Z"/>
          <path class="cls-24" d="M24.08,2.79c-.48.28-.33-.15-.35-.55.07,0,.32-.02.35.02,0,.18,0,.35,0,.53Z"/>
        </g>
        <path class="cls-53" d="M28.44,23.42c-.04.2.03,1.02,0,1.37-.09,0-.19.04-.28.05-.01,0-.09-.07-.28-.04-.21.04-.06-.99-.1-1.5.31-.01.71-.04.66.11Z"/>
        <g>
          <path class="cls-24" d="M26.59,22.51s.07-.01.07.02c0,.2,0,.4,0,.6q-1.29.02-2.58.04l-.03-.04c.05-.13.05-.49.03-.62h2.51Z"/>
          <path class="cls-24" d="M26.66,23.13c.02.39.07.78.1,1.17-.43-.06-.09-.45-.23-.55-.1-.07-2.16.06-2.47,0-.08.84-.14.39-.61.51v-.07c.65.2.44-.11.63-1.02q1.29-.02,2.58-.04Z"/>
        </g>
        <path class="cls-23" d="M28.51,1.08s.05,0,.07,0c-.13.09-.05.37-.07.6,0,.02-.15.05-.17.05-.13.02-.33,0-.45-.07.19-.14.08-.26.1-.58.01,0,.02,0,.03,0,.16,0,.33,0,.49,0Z"/>
        <path class="cls-13" d="M30.32,1.15v.04c-.17-.1-.05.47-.07.49-.09.11-.7.25-.45-.57.17,0,.36.04.52.04Z"/>
        <path class="cls-13" d="M21.82.6c-.01.12-.02.44.05.51.11.05.57-.04.71-.04.05,0,.09,0,.14,0-.06.16-.03.37-.03.55,0,.02,0,.05,0,.07-.59-.05-1.19.05-1.78.04,0,0,.01-.07-.02-.07-.19,0-.39-.03-.57-.04v-.51c.35,0,.71,0,1.06,0,.11-.08-.21-.76.38-.62.03,0,.06.07.05.11Z"/>
        <path class="cls-33" d="M20.32,1.11v.51c-.2,0-.4-.03-.59-.04.01-.08-.03-.44.02-.47.02-.02.48,0,.57,0Z"/>
        <path class="cls-13" d="M19.97,3.78c.11.01.22.06.33.04.11.17.02.26.02.33-.08.01-.31-.02-.33,0-.04.03.02.16-.05.26-.16-.03-.44.02-.63,0,0-.18-.06-.4-.07-.58.24,0,.48-.06.73-.04Z"/>
        <path class="cls-52" d="M20.32,4.14c0,.12,0,.24,0,.37-.47.04-.36-.11-.38-.11.07-.09,0-.22.05-.26.02-.02.25.01.33,0Z"/>
        <path class="cls-13" d="M18.79,23.67v.66l-.56-.05c0-.2,0-.4,0-.6.23-.08.37,0,.56,0Z"/>
        <path class="cls-3" d="M28.16,23.02c-.05.38.17.11.31.29,0,0-.03.1-.03.11.05-.15-.35-.12-.66-.11-.01,0-.02,0-.03,0,.04-.07.1-.27.1-.33.1.04.21.03.31.04Z"/>
        <path class="cls-12" d="M37.63,16.7v.69c-.16,0-.33,0-.49,0-.12.04-.06-.35-.07-.73.19-.03.39.03.56.04Z"/>
        <path class="cls-12" d="M18.55,2.32c-.02.11.02.34,0,.4-.7.07-.32-.18-.52-.47.09,0,.07-.04.07-.04.08,0,.5.04.45.11Z"/>
        <path class="cls-26" d="M32.54,24.29c.04.41-.16.27-.52.29,0-.01-.06-.02-.03-.29.01,0,.22-.07.24-.07.02,0-.12.08.31.07Z"/>
        <g>
          <path class="cls-46" d="M24.08,22.51c.02.13.01.49-.03.62l-.59.05v1.08s-.09-.02-.1.02c0,.21,0,.43,0,.64-.22,0-.44-.07-.66-.04.01-.59-.05-1.2-.07-1.79,0-.34,0-.68,0-1.02.46,0,.92,0,1.38,0,0,.49.08.41.09.44Z"/>
          <path class="cls-30" d="M22.62,22.07c0,.34,0,.68,0,1.02-.09-.02-.53.03-.56-.02-.03-.04.02-.84,0-.99.14-.13.49-.02.56-.02Z"/>
          <path class="cls-20" d="M24.05,23.13l.03.04c-.19.92.02,1.22-.63,1.02v-1l.59-.05Z"/>
        </g>
        <path class="cls-39" d="M24.12,3.45c.31-.06,1.83.05,2.4,0,0,.11-.02.23.03.33h-.03c-.01-.09-.05-.2-.05-.29h-.66l-.02.73c-.58,0-1.17.08-1.76.04l.02.69s-.04.04-.07.04c.05-.39-.08-.99-.03-1.28,0-.02.06-.08.03-.24.02-.04.1-.01.14-.02Z"/>
        <g>
          <path class="cls-13" d="M23.94,3.71c-.04.29.08.89.03,1.28-.08,0-.16,0-.24,0,0-.13,0-.27,0-.4l-.02-.07-.75-.02v-.78c.32.03.65-.02.97,0Z"/>
          <path class="cls-51" d="M23.73,4.58c0,.13,0,.27,0,.4,0,.18-.03.21-.03.22-.84-.02-.88.17-.84-.6l.87-.02Z"/>
        </g>
        <path class="cls-39" d="M26.52,3.78c.03.24-.04.44-.03.47-.23.04-.47-.04-.7-.04l.02-.73h.66c0,.1.04.2.05.29Z"/>
        <g>
          <path class="cls-56" d="M29.76,22.51c.06,0,.33-.02.35.02-.18,1.04.19.73.24.8.04.06-.03,1.23,0,1.42l-1.32.02-.07-.04c.08-.01.42.03.45-.02.04-.06,0-1.18.03-1.35-.03-.07-.28-.07-.35-.05-.05-.63.07-.76.07-.8.2,0,.4,0,.59,0Z"/>
          <path class="cls-36" d="M28.96,24.73v-1.41s.1,0,.14-.02c.07-.02.32-.02.35.05-.03.17,0,1.3-.03,1.35-.03.05-.37,0-.45.02Z"/>
        </g>
        <path class="cls-53" d="M27.88,1.66c.12.06.32.09.45.07l.03,1.22-.63.05s0-.05,0-.07c.01-.19-.03-1.21,0-1.26.02-.04.12,0,.14-.02Z"/>
        <g>
          <path class="cls-39" d="M31.01,1.66c-.11.8-.06.6.56.62,0,.06.07.03.07.05.02.29-.01.59,0,.88.26.02.23.05.24.05.16,1.06-.8-.14-.63,1.02h-.38s-.03.02-.03-.07c.56.17.44-.73,0-.44-.17.11.02.36-.12.55-.28-.07-.57-.04-.85-.04-.06,0-.42-.11-.56.02.02.13-.02.77,0,.8.03.05.47,0,.56.02,0,0,.07-.01.07.02.02.22-.02.47,0,.69l.07.02c.36-.01.72.02,1.08,0-.02.62-.13.5.84.55.02.1-.05.46.05.51.16.07,1.95-.04,2.28-.04.53,0,1.07.04,1.6.04,0,.37,0,.74,0,1.11l.59.05c0,.37.01.72.03,1.1.01.22-.01.45,0,.68.03.04.47.01.56.02-.01.32-.06.64-.03.97l-1.48.09-.02.58c-.39.01-.78-.01-1.17,0-.16.41.02.52.02.55,0,.03-.03.04-.03.07l-.56.02c-.02.8.01,1.59.03,2.39,0,.16-.08.36-.03.53.05.08.44-.02.52-.02.41.01.84.01,1.25.04.01.12-.02.61,0,.64.05.07.43-.02.45-.02.16,0,.36.07.52.07-.05.58-.09,1.03-.1,1.64-.02.75.04,1.5,0,2.24,0,.03-.07.01-.07.02-.14-.04-.29.04-.42.04-.22,0-.17-.04-.17-.04.12.03.09-.62.02-.66l-3.27.04c.09,1.22-.69-.05-.54,1.17l-.03.04s-.03-.04-.07-.04c-.15,0-1.15-.04-1.2,0-.04.03,0,.52-.02.62-.29.02-.58.06-.87.04l-.03.78c-.21.08-.53-.1-.63.13-.2-.1-.42,0-.45,0-.01,0-.2-.08-.26-.04-.19.14.39.28-.54.33-.39.02-.78-.01-1.17,0,0,.4-.09.38-.09.4h-2.51s-.08.06-.09-.44c-.46,0-.92,0-1.38,0-.06,0-.42-.11-.56.02.02.14-.03.95,0,.99.03.05.47,0,.56.02.02.59.08,1.2.07,1.79,0,.21-.07.44-.03.66-.01,0-.02,0-.03,0-.79.02-1.58-.02-2.37,0-.16-1.15.42-.5.52-.75v-1.06c-1.06-.17-.39.34-.73.6-.18-.08-.55.07-.8-.04,0-.21.03-.41.03-.62,0-.28.04-.55.03-.84.14-.09.41,0,.45-.05.03-.04-.04-.42.03-.64.05,0,.22.02.24-.02.02-.02-.01-.26,0-.35.2-.02.4-.06.61-.04-.04-.11.01-.23.02-.33,1.13.11.55-.28.7-.64.11-.13.51,0,.56-.07.02-.03-.01-.56,0-.69-.84-.25-.53.25-.61.31-.03.02-.51-.02-.63,0-.09.04-.04.41-.05.62-.2.01-.4-.02-.59,0v-.04c.96.14.24-.45.66-.64.15-1.11-.54-.51-.66-.69l-.02-.93h-.59c0,.32-.05.67-.05.99-.22,0-.44,0-.66,0-.09,0-.52.02-.54,0-.06-.05.05-.53-.07-.58l-3.52-.04-.05.69c-.12,0-.24.04-.35.04-.02,0-.05-.04-.35-.04-.04.01-.1-.03-.1-.05-.02-.11,0-1.9,0-2.21,0-.04.07-.08.07-.09.01-.35,0-.71,0-1.06-.62-.07-.66.18-.63-.53.7,0,.56-.07.59-.07.05,0,.31.13.89.07l.02-.62c.29.01.91-.08,1.22-.07,0,0-.01.07.02.07.2,0,.39,0,.59,0,.07-.05-.02-.5-.02-.58.02-.8.06-1.6.03-2.41.09,0,.55.02.57,0,.02-.02.03-.47.02-.49-.03-.04-.5-.01-.59-.02-.2-.01-.42-.09-.63,0,0-.02.01-.06-.05-.11-.54,0-1.08,0-1.62,0-.14,0-.28,0-.42,0-.08.01-.06-.01-.07-.07l.45.02c.04-.78-.08-.47-.45-.49-.24-.01-.46-.03-.7-.04v-1.1s.05,0,.07,0c.09,0,.5.11.56-.02.04-.21-.04-.61-.03-.64,0,0,.07.01.07-.02.02-.36,0-.75,0-1.11.94.14.29-.39.61-1.13.33.03.66,0,.99,0,.21,0,.42,0,.63,0,.96,0,1.9.03,2.86,0,.23,0,.47-.01.7.04.01.28.03.6.03.88,0,.23-.07.49-.03.73-.04,0-.46.12-.63-.02l-.02-.75c-.23-.01-.45.01-.68,0-.12,0-.82-.09-.87-.02l.02.64.85.04c0,.13-.02.76.02.8l1.51.04c0,.08.02.52-.02.55l-.89.05v2.77s-.07.01-.1.02c-.1.03-.51-.06-.56.05-.04.35.04.73.03,1.08,0,.43-.03.81,0,1.24.01.21-.01.43,0,.64.69.08.5.05.52-.64h.03c0,.56.07,1.13.03,1.7l.59.07v.99c.04.09.83.05.97.05v.71c.15.13.48.02.52.02.09,0,.57-.02.59.02l.02.64h1.43l.07.66,1.22-.04.02.77,2.32.04.07-.8c1.22-.07,1.28.3,1.25-.62.49-.01.98.02,1.46,0,.03,0,.01-.07.02-.07.02,0,.12.18.45.02-.09-.98.22-.53.31-.66.03-.04-.04-.42.03-.64.33-.02.65-.02.97-.04.02,0,.37.11.49-.02.03-.06-.02-.95,0-1.17,0-.01.1-.04.1-.07.09-1.4-.04-2.85-.03-4.25,0-.02,0-.05,0-.07,0-.23,0-.46,0-.69,0-.48-.01-.94-.03-1.42-.01-.3,0-.6,0-.89l-.07-.05c-.2,0-.4,0-.59,0,0-.21,0-.41,0-.62,0-.23-.05-.46-.05-.69-.8-.04-.51.06-.57.2-.02.03-.07.01-.07.02.16-.24-.35-.26-.87-.26l-.02-.66h-1.01l-.02.57c-.65.28-.41-.27-.45-1.13l-1.34-.02-.02-.8c.19,0,.38,0,.57,0l.05-.62c.08,0,.46.02.49-.02.03-.27-.04-.61-.03-.64,0-.25.02-.52.03-.77,0,0,.07-.03.07-.05.01-.24.02-.47.03-.71l.7.02-.03-1.24s.09-.01.14-.02c-.15.12-.03.37-.03.4,0,.02-.08.28-.02.44.31-.09,1.1,0,1.15-.04.05-.04-.02-.29.03-.33.03-.02.6,0,.71,0,.08,0,.53.02.56-.02.04-.37-.07-.54-.07-.57,0,0,.04.02.03-.07.06.04,0,.06.1.07Z"/>
          <g>
            <path class="cls-25" d="M31.26,4.29v.04l-.03.04s-.04-.04-.03-.07h.07Z"/>
            <path class="cls-34" d="M32.58,8.05s.03-.35.03-.37c0,0,.03.02.05-.11h2.19l.05,1.77c-1.06.14-.6-.14-.75-1l-1.5.04s-.08-.28-.09-.33Z"/>
            <path class="cls-56" d="M32.84,16.88l.78.02-.02,1.44-.78-.02.02-1.44Z"/>
            <g>
              <path class="cls-9" d="M34.84,17.65s-.03-.03-.03-.04c-.08-.08-.15.02-.21-.13l.03-.84.7.04c-.03.18.04,1.26,0,1.31-.02.02-.42.03-.44.02-.05-.04.02-.23-.05-.37Z"/>
              <path class="cls-27" d="M34.84,17.65c.07.14,0,.33.05.37.02.01.42,0,.44-.02.04-.05-.03-1.13,0-1.31l-.7-.04-.03.84c.06.15.13.05.21.13l-.77-.02v-.99l1.31-.02c0,.19.06,1.38.02,1.44-.03.04-.71.18-.52-.38Z"/>
            </g>
            <path class="cls-24" d="M20.86,21.74s.56,0,.57.02c-.02.77.18.81-.59.73.02-.11-.03-.71.02-.75Z"/>
            <path class="cls-3" d="M31.24,19.62s.48.01.59,0c.36.78-.54.62-.59.58-.03-.02-.03-.56,0-.58Z"/>
            <path class="cls-24" d="M28.64,4.58h-.42c0-.12-.08-.64-.03-.71.01-.02.45-.03.47-.02.07.05-.01.62-.02.73Z"/>
            <path class="cls-39" d="M28.64,4.58c0,.1.02.58,0,.6-.02.02-.38.03-.4.02-.04-.03-.01-.52-.02-.62h.42Z"/>
            <path class="cls-52" d="M32.61,7.69s-.04.35-.03.37c-.48.15-.37-.39-.35-.42.02-.02.43-.06.38.05Z"/>
            <path class="cls-35" d="M33.82,11.77c.11-.05.52-.03.4.2-.1.2-.75-.04-.4-.2Z"/>
            <g>
              <path class="cls-36" d="M15.59,7.79c-.1.45,0,.9,0,1.35.02,1.25.1,1.37-.49,1.28,0-.19,0-.39,0-.58-.01-.44.01-.87.03-1.31.01-.25-.01-.5,0-.75.18-.07.36.02.45.02Z"/>
              <path class="cls-17" d="M15.1,10.42c.59.09.5-.02.49-1.28h.66v.6c.74.01.49-.06.52-.6.01-.23.06-.46.03-.69.03,0,.05-.06.07-.02v1.39c-.72-.06-.57-.03-.61.64l-1.11.04-.05-.07Z"/>
              <path class="cls-50" d="M16.32,8.45c0,.14-.12.49-.03.69h-.7c0-.45-.1-.9,0-1.35.22,0,.45-.07.68-.04,0,.23.05.47.05.69Z"/>
              <path class="cls-51" d="M15.1,9.84c-.83.09-.5-.13-.56-1.26l.59-.05c-.02.44-.05.87-.03,1.31Z"/>
              <path class="cls-47" d="M16.81,8.45c.03.23-.02.46-.03.69h-.49c-.09-.2.04-.55.03-.69.15.02.35-.02.49,0Z"/>
              <path class="cls-56" d="M16.77,9.15c-.03.54.22.62-.52.6v-.6h.52Z"/>
            </g>
            <g>
              <path class="cls-36" d="M15.27,16.37c.11,0,.27.06.38.07,0,.47-.02.95,0,1.42,0,.11,0,.22,0,.33-.17,0-.38.08-.56.04v-1.84c.09-.12.14-.02.17-.02Z"/>
              <g>
                <path class="cls-47" d="M15.1,18.23c.18.04.38-.04.56-.04.17,0,1.16.12,1.22-.02v-1.02l-.73-.05c0-.21,0-.43,0-.64-.1-.13-.46-.02-.49-.02-.11-.01-.28-.07-.38-.07l1.64-.02v1.9l-1.81-.02Z"/>
                <path class="cls-56" d="M15.66,18.2c0-.11,0-.22,0-.33l.49-.09c0-.23,0-.45,0-.68l.73.05v1.02c-.06.13-1.05.02-1.22.02Z"/>
                <path class="cls-17" d="M16.14,17.1c0,.23,0,.45,0,.68l-.49.09c-.02-.47,0-.95,0-1.42.02,0,.39-.11.49.02,0,.21,0,.43,0,.64Z"/>
              </g>
            </g>
          </g>
        </g>
        <g>
          <path class="cls-51" d="M20.32,1.63c.19,0,.38.03.57.04.03,0,.01.07.02.07.11.84-.32.39-.42.53-.02.03.02.71,0,.84-.1.24-.66-.37-.52.68-.25-.03-.49.03-.73.04,0-.11.11-.4-.02-.62-.21,0-.43-.01-.64,0-.08,0-.18-.01-.24,0-.26-.51.16-.34.21-.47.02-.06-.02-.29,0-.4,0,0,.07-.07.07-.07.09-.02.49.03.52-.02.02-.02,0-.47.03-.57,0,0-.03-.04.1-.04.32,0,.43-.04.45-.04.19,0,.4.03.59.04Z"/>
          <path class="cls-13" d="M19.19,2.25s.54.02.66,0c.39.67-.61.55-.66.51-.03-.02-.03-.49,0-.51Z"/>
        </g>
        <g>
          <path class="cls-39" d="M22.69,1.7c0,.66,0,1.33,0,1.99.03.04.22.01.28.02v.78l.75.02.02.07-.87.02c-.04.77,0,.58.84.6,0,.2,0,.4,0,.6.02.04.38.02.45.02l-.02.8-1.38.05c-.02.14.03,1.01-.02,1.04-.01.01-.35,0-.37-.02-.17-.25.56-.6-1.1-.49-.03.02-.02.56-.02.66-.35-.07-.72-.04-1.08-.04v-1.55c-.12-.01-.19-.05-.21-.05.02-.13-.02-.86,0-.89.04-.06.34.04.38-.07.05-.13-.03-.59-.03-.75,0-.12,0-.24,0-.37,0-.07.09-.16-.02-.33-.11.02-.22-.02-.33-.04-.14-1.05.42-.43.52-.68.02-.13-.02-.81,0-.84.1-.14.53.31.42-.53.58.02,1.19-.09,1.78-.04Z"/>
          <path class="cls-51" d="M20.81,5.2c.12-.03.37.02.52,0,0,.17.09.8.03.93l-.64.05-.05-.93c.05-.08.09-.04.14-.05Z"/>
          <path class="cls-24" d="M21.33,5.2c-.15.02-.4-.03-.52,0v-.93c.77-.25.6.15.59.91,0,.03-.07.01-.07.02Z"/>
          <path class="cls-30" d="M22.08,3.71s.47-.02.5.05c0,.11,0,.78-.05.82-.02.01-.46,0-.47-.02-.02-.03-.02-.83.02-.86Z"/>
        </g>
        <g>
          <path class="cls-12" d="M31.6,10.17l-.63.09c-.03.45.02.89.03,1.33,0,.03-.07.35-.03.57.06.15.65-.05.66.13,0,.02,0,.05,0,.07.01,1.41,0,2.81,0,4.22-.05.12-.51,0-.56.07-.03.05.03,1.05,0,1.22-.33.02-.65.02-.97.04-.99.05-.38.17-.56.57-.07.15-.32-.21-.24.71,0,0,.01.07-.02.07-.49.02-.98-.01-1.46,0,.02.92-.03.55-1.25.62l-.07.8-2.32-.04h2.28l.03-.8h1.22c-.08-1,.28-.57,1.53-.66.06-.64-.05-.66-.05-.69-.04-.96.04-1.92-.02-2.88l-.85.05c.04.48-.05,2.34,0,2.52,0,.03.07.07.1.05,0,0-.08.11-.17-.02v-2.56c.2-.29.55-.03.84-.18.04-.94.05-1.88.1-2.81-.04-.07-.5.04-.59-.05.17-.03.53.05.66-.04.15-.1.01-.35.09-.4.06-.05,1.67-.13,1.51,0l-.97.05.03,3.83s.07.01.1.02c-.14.53-.06,1.18-.05,1.75l1.03-.02v-1.17c-.07-.04-.14-.06-.21-.09.02,0,.06,0,.07-.02.07-.21-.05-3.77,0-4.36.11-.66.06-1.33.07-1.99l.59-.07v-.89l.07.05c0,.3-.01.6,0,.89Z"/>
          <path class="cls-47" d="M30.25,8.12c-.02.08-.03.36-.03.47l-1.62-.04v-.66c.26.04.53-.03.78-.04.52,0,1.03.01.87.26Z"/>
          <path class="cls-50" d="M21.26,8.6s.04.04.03-.15q1.42-.02,2.84-.04l.02.71-2.18.05-.02,1.3-.64.05c0-.64-.05-1.29-.05-1.93Z"/>
          <path class="cls-54" d="M20.84,17.91s-.03-.04-.14-.04l.03-3.63.64-.05.05,3.63c-.02.05-.51.09-.59.09Z"/>
          <path class="cls-2" d="M29.2,18.49c-.58.18-.3-.19-.44-.26-.03-.01-.23,0-.33,0-.04.01-.1-.02-.1-.05-.05-.17.04-2.04,0-2.52l.85-.05c.06.96-.02,1.92.02,2.88Z"/>
          <g>
            <path class="cls-47" d="M29.27,12.58c-.13.09-.49.01-.66.04-.07-.07-.03-1.16-.03-1.35.13,0,.64-.03.7.02v1.3Z"/>
            <path class="cls-17" d="M28.57,11.26c-.21-.01-.59.04-.63-.05.03-.7-.22-.99.63-.77,0,.27,0,.55,0,.82Z"/>
          </g>
          <path class="cls-47" d="M30.87,12.18c-.05.6.07,4.16,0,4.36,0,.03-.05.02-.07.02-.06-.02-.24.05-.28-.05-.03-.06.03-.38-.02-.42-.03-.02-.38.02-.47,0-.03,0-.09.02-.1-.02l-.03-3.83.97-.05Z"/>
          <path class="cls-24" d="M30.8,16.56c.07.03.14.05.21.09v1.17l-1.03.02c0-.58-.09-1.22.05-1.75.09.02.44-.02.47,0,.05.04,0,.36.02.42.04.1.22.03.28.05Z"/>
          <g>
            <path class="cls-24" d="M26.52,5.82l.02.8,1.34.02c.05.86-.2,1.41.45,1.13l.02-.57h1.01l.02.66c-.26,0-.52.07-.78.04v.66l1.62.04s.03-.01.03.04c0,.09-.02.56.02.58.23,0,.45-.01.68,0,.2,0,.4,0,.59,0v.89l-.59.07c-.01.66.04,1.33-.07,1.99.16-.13-1.45-.05-1.51,0-.07.05.07.3-.09.4v-1.3c-.06-.04-.56-.01-.7-.02,0-.27,0-.55,0-.82-.84-.22-.6.07-.63.77.04.1.41.04.63.05,0,.19-.03,1.28.03,1.35.09.1.55-.01.59.05-.05.94-.07,1.87-.1,2.81-.28.15-.63-.11-.84.18v2.56c.1.12.17.02.17.02.1,0,.3-.01.33,0,.14.06-.14.43.44.26,0,.04.12.05.05.69-1.25.09-1.61-.34-1.53.66h-1.22l-.03.8h-2.28l-.02-.77-1.22.04-.07-.66h-1.43l-.02-.64s-.5-.02-.59-.02v-.69c.08,0,.57-.04.59-.09l-.05-3.63-.64.05-.03,3.63c-.13,0-.26,0-.38,0-.15,0-.93.04-.97-.05v-.99l-.59-.07c.03-.57-.03-1.13-.03-1.7,0-.38.04-.78.03-1.17,0-.01.12-.1-.07-.13v-1.08s.09.02.1-.02v-2.77l.89-.05s.01-.46.02-.55c0-.15.02-.51,0-.58-.01-.22,1.07-.06,1.57-.11,0,.64.06,1.29.05,1.93l.64-.05.02-1.3,2.18-.05-.02-.71q-1.42.02-2.84.04c0-.2-.03-.4-.03-.58,0-.09-.01-.63.02-.66,1.66-.1.93.24,1.1.49.02.02.35.03.37.02.05-.03,0-.9.02-1.04l1.38-.05.02-.8c.68.03,1.67.02,2.37,0Z"/>
            <g>
              <path class="cls-47" d="M26.5,8.42h1.43l.05,1.3c-.98.2-.45-.45-.61-.57-.04-.03-.77.02-.91,0l.03-.73Z"/>
              <path class="cls-47" d="M24.66,18.49h.66l.07.62c.31.15.68-.42.57.68l-1.06.02c-.05-.04,0-.6-.02-.64-.04-.06-.45.2-.23-.68Z"/>
              <path class="cls-16" d="M24.76,6.66h1.11l.02.78-1.13.02v-.8Z"/>
              <path class="cls-43" d="M19.57,14.26h.77l.02.71-.78.05v-.77Z"/>
              <path class="cls-16" d="M23.09,17.76l.64.02-.02.78-.64-.02.02-.78Z"/>
              <path class="cls-2" d="M27.3,17.83c.55-.25.43.58.35.62-.53.25-.44-.58-.35-.62Z"/>
              <g>
                <path class="cls-53" d="M24.17,10.93h1.81c.12.05,0,.54.07.58.06.04,1.17-.03,1.36,0,.22,1.09-.32,1.06.64,1.15-.03.18.04,1.26,0,1.31-.14.21-.66-.54-.52.99l-1.13.02-.02,1.41c-.96.06-.46.27-.61.38-.09.07-1.95-.05-2.23,0l-.02-1.59-.59-.07v-3.03c1.17.07.56-.35.78-.46.35-.16.37.39.45-.69Z"/>
                <g>
                  <path class="cls-37" d="M25.79,12.21s-.11-.01-.14.05c-.02.05.01.22,0,.31-.1,0-.65.09-.7.02v-.95l.78-.02.05.58Z"/>
                  <path class="cls-14" d="M24.87,13.23c.12.03.7-.06.75.05.17.39-.33.3-.35.33-.04.06.06.66-.05.71-.57.26-.42-.66-.35-1.1Z"/>
                  <g>
                    <path class="cls-6" d="M24.12,13.23c0,.36.07.72.03,1.08-.64.23-.54-.04-.52-1.08h.49Z"/>
                    <path class="cls-4" d="M24.12,13.23h-.49c0-.29,0-.57,0-.86.79-.14.47.16.49.86Z"/>
                  </g>
                  <path class="cls-1" d="M25.88,14.55c.78-.19.52.68,0,.44-.08-.04-.08-.4,0-.44Z"/>
                  <path class="cls-28" d="M25.79,12.21c.36-.08.26.36.24.38-.05.07-.36-.02-.38-.02.01-.09-.02-.26,0-.31.03-.07.09-.04.14-.05Z"/>
                </g>
              </g>
              <g>
                <path class="cls-18" d="M19.71,10.13c.11-.03.67-.02.71.09l-.05,3.52h-.77l-.09-.09v-3.39s.15-.12.19-.13Z"/>
                <path class="cls-2" d="M19.64,10.2l.75.05-.05,3.45-.75-.05.05-3.45Z"/>
              </g>
            </g>
          </g>
        </g>
      </g>
    </g>
  </g>
</svg>