<?xml version="1.0" encoding="UTF-8"?>
<svg id="Layer_2" data-name="Layer 2" xmlns="http://www.w3.org/2000/svg" viewBox="0 0 28.46 34.82">
  <defs>
    <style>
      .cls-1 {
        fill: #ce7823;
      }

      .cls-1, .cls-2, .cls-3, .cls-4, .cls-5, .cls-6, .cls-7, .cls-8, .cls-9, .cls-10, .cls-11, .cls-12, .cls-13, .cls-14, .cls-15, .cls-16, .cls-17, .cls-18, .cls-19, .cls-20, .cls-21, .cls-22, .cls-23, .cls-24, .cls-25, .cls-26, .cls-27, .cls-28, .cls-29, .cls-30, .cls-31, .cls-32, .cls-33, .cls-34, .cls-35, .cls-36, .cls-37, .cls-38, .cls-39, .cls-40, .cls-41, .cls-42, .cls-43, .cls-44, .cls-45, .cls-46, .cls-47, .cls-48, .cls-49, .cls-50, .cls-51, .cls-52, .cls-53, .cls-54, .cls-55, .cls-56, .cls-57, .cls-58, .cls-59, .cls-60, .cls-61, .cls-62, .cls-63, .cls-64, .cls-65, .cls-66, .cls-67, .cls-68, .cls-69, .cls-70, .cls-71, .cls-72, .cls-73, .cls-74, .cls-75, .cls-76, .cls-77, .cls-78, .cls-79, .cls-80, .cls-81, .cls-82, .cls-83, .cls-84, .cls-85, .cls-86, .cls-87, .cls-88, .cls-89, .cls-90, .cls-91, .cls-92, .cls-93, .cls-94, .cls-95, .cls-96, .cls-97, .cls-98, .cls-99 {
        stroke-width: 0px;
      }

      .cls-2 {
        fill: #4a6a99;
      }

      .cls-3 {
        fill: #425181;
      }

      .cls-4 {
        fill: #084565;
      }

      .cls-5 {
        fill: #746889;
      }

      .cls-6 {
        fill: #40bfcb;
      }

      .cls-7 {
        fill: #f1f3d9;
      }

      .cls-8 {
        fill: #f1ad3d;
      }

      .cls-9 {
        fill: #281f16;
      }

      .cls-10 {
        fill: #90e0e6;
      }

      .cls-11 {
        fill: #52a39f;
      }

      .cls-12 {
        fill: #61a4bd;
      }

      .cls-13 {
        fill: #4bc8e1;
      }

      .cls-14 {
        fill: #696c7a;
      }

      .cls-15 {
        fill: #4f241b;
      }

      .cls-16 {
        fill: #d0aeca;
      }

      .cls-17 {
        fill: #253853;
      }

      .cls-18 {
        fill: #c3cbde;
      }

      .cls-19 {
        fill: #57414d;
      }

      .cls-20 {
        fill: #3e76a0;
      }

      .cls-21 {
        fill: #3f427c;
      }

      .cls-22 {
        fill: #173543;
      }

      .cls-23 {
        fill: #034644;
      }

      .cls-24 {
        fill: #d0f2f6;
      }

      .cls-25 {
        fill: #0c0c12;
      }

      .cls-26 {
        fill: #a95d7d;
      }

      .cls-27 {
        fill: #5c8e74;
      }

      .cls-28 {
        fill: #512f50;
      }

      .cls-29 {
        fill: #1b1312;
      }

      .cls-30 {
        fill: #696fa1;
      }

      .cls-31 {
        fill: #1e2625;
      }

      .cls-32 {
        fill: #343b2f;
      }

      .cls-33 {
        fill: #9091cb;
      }

      .cls-34 {
        fill: #341d1a;
      }

      .cls-35 {
        fill: #756475;
      }

      .cls-36 {
        fill: #2e5c8e;
      }

      .cls-37 {
        fill: #29496d;
      }

      .cls-38 {
        fill: #d5dfee;
      }

      .cls-39 {
        fill: #bcb0d6;
      }

      .cls-40 {
        fill: #0e1420;
      }

      .cls-41 {
        fill: #683b67;
      }

      .cls-42 {
        fill: #843567;
      }

      .cls-43 {
        fill: #415240;
      }

      .cls-44 {
        fill: #794969;
      }

      .cls-45 {
        fill: #5c7781;
      }

      .cls-46 {
        fill: #6a7686;
      }

      .cls-47 {
        fill: #7cd7ed;
      }

      .cls-48 {
        fill: #4c405b;
      }

      .cls-49 {
        fill: #92501f;
      }

      .cls-50 {
        fill: #5c6265;
      }

      .cls-51 {
        fill: #a0d7e5;
      }

      .cls-52 {
        fill: #3a4648;
      }

      .cls-53 {
        fill: #c1bdcc;
      }

      .cls-54 {
        fill: #575364;
      }

      .cls-55 {
        fill: #39dfea;
      }

      .cls-56 {
        fill: #8db8d7;
      }

      .cls-57 {
        fill: #4f5075;
      }

      .cls-58 {
        fill: #2c3338;
      }

      .cls-59 {
        fill: #6185ae;
      }

      .cls-60 {
        fill: #292721;
      }

      .cls-61 {
        fill: #0a2530;
      }

      .cls-62 {
        fill: #3a3e48;
      }

      .cls-63 {
        fill: #515b6d;
      }

      .cls-64 {
        fill: #265d6f;
      }

      .cls-65 {
        fill: #96a298;
      }

      .cls-66 {
        fill: #0e8b86;
      }

      .cls-67 {
        fill: #fad37a;
      }

      .cls-68 {
        fill: #eff3f2;
      }

      .cls-69 {
        fill: #151411;
      }

      .cls-70 {
        fill: #912c58;
      }

      .cls-71 {
        fill: #589bc4;
      }

      .cls-72 {
        fill: #243639;
      }

      .cls-73 {
        fill: #795f7d;
      }

      .cls-74 {
        fill: #e5f8fc;
      }

      .cls-75 {
        fill: #1488b1;
      }

      .cls-76 {
        fill: #9d879a;
      }

      .cls-77 {
        fill: #cfd3d8;
      }

      .cls-78 {
        fill: #717c80;
      }

      .cls-79 {
        fill: #797582;
      }

      .cls-80 {
        fill: #2c2a3f;
      }

      .cls-81 {
        fill: #9dd7fa;
      }

      .cls-82 {
        fill: #3f2d3b;
      }

      .cls-83 {
        fill: #c1e3f5;
      }

      .cls-84 {
        fill: #a5d5d3;
      }

      .cls-85 {
        fill: #333032;
      }

      .cls-86 {
        fill: #93abd2;
      }

      .cls-87 {
        fill: #71ece9;
      }

      .cls-88 {
        fill: #4fb5dd;
      }

      .cls-89 {
        fill: #181f24;
      }

      .cls-90 {
        fill: #3f8e91;
      }

      .cls-91 {
        fill: #211c2a;
      }

      .cls-92 {
        fill: #2e6a77;
      }

      .cls-93 {
        fill: #ed9d37;
      }

      .cls-94 {
        fill: #9c92a1;
      }

      .cls-95 {
        fill: #2b1a23;
      }

      .cls-96 {
        fill: #202531;
      }

      .cls-97 {
        fill: #f8f4e8;
      }

      .cls-98 {
        fill: #c69bc1;
      }

      .cls-99 {
        fill: #a8c5e1;
      }
    </style>
  </defs>
  <g id="Layer_1-2" data-name="Layer 1">
    <g>
      <path class="cls-25" d="M27.15,12.57c0,.08.02.48-.02.51-.31.02-.62-.02-.92,0-.07,0-.32-.02-.35.02,0,.28,0,.56,0,.84,0,.3-.01.61,0,.9-.26,0-.52-.01-.78,0-.25.01-.51-.05-.59.06,0,.24,0,.48,0,.73,0,.23.04.7-.06.75-.24,0-.48-.01-.73,0-.19,0-.38,0-.57,0-.1.08-.05.33-.06.59-.02.33.01.65,0,.98l-.04.04c-.12,0-.24,0-.35,0-.13,0-.75-.03-.8.04-.04.13,0,.26-.02.39,0,.08,0,.16,0,.24-.01.31,0,.61,0,.92-.03.04-.28.01-.35.02-.25.02-1.29-.03-1.35,0-.1.07-.05.27-.06.47,0,.13.02.83-.02.86-.35.01-.69-.02-1.04,0-.25.01-.51-.05-.59.06,0,.27,0,.54,0,.8,0,.12.01.24,0,.35,0,.06.02.28-.02.31-1.62.04-3.26-.05-4.88,0-.24,0-.48,0-.73,0l-.06.63-.04.04c-.29.01-.58-.02-.86,0-.07,0-.32-.02-.35.02.02.22-.03.43-.04.65-.02.28.04.58-.04.86-.2,0-.39,0-.59,0s-.39,0-.59,0c.07-.08.16,0,.2-.06.02-.03-.05-.25.06-.29.3-.13.37.45.33-1.18.68.06.48-.05.55-.67.09-.01.2.04.27-.06-.02-.12.02-.56,0-.59-.04-.05-.44,0-.53-.02-.07.12.04.16.06.27-.42.05-.23-.13-.27-.22-.06-.1-.2-.03-.24-.08-.02-.03,0-.53,0-.65,0,0,.1-.07-.02-.16-.26-.03-.51.02-.76.04.04-.18-.03-.37-.04-.55-.01-.25,0-.5,0-.75.42,0,.97-.07,1.49-.08l.02,1.33c2.34.03,4.68-.06,7.02-.04l.02-1.33c.56,0,1.11,0,1.67,0l.04-1.57h1.65l.02-1.63,1.29-.04v-1.49l1.24-.02c.14-.06.02-1.01.02-1.18,0-.2,0-.39,0-.59.44,0,.89.01,1.33,0,.48-.01.97-.04,1.45-.1l.04-3.78c-.03,1.12.04,2.25,0,3.37Z"/>
      <path class="cls-25" d="M18.44.22v1.27c.08.1.33.05.59.06.26.01.52,0,.78,0,0,.01.04-.02.04.24,0,.15-.11.69.02.75.36.03.72-.02,1.08-.04.2,0,.39,0,.59,0v1.27s.53.02.63.02c.29,0,.59,0,.88,0,.04.03.02.74.02.86,0,.29,0,.59,0,.88.03.04.36.02.43.02.3.02.6,0,.9,0v1.71s.64.02.75.02c.16,0,.6.04.63.04v1.8s-.03.04-.12.04c-.43,0-.86,0-1.29,0,0-.59,0-1.19,0-1.78l-1.33-.08v-1.73l-1.59-.02-.04-1.73h-1.57l-.08-1.29c-.48-.01-.96.02-1.43,0l-.02-.98c-.78.1-5.53-.13-5.8-.04-.22.07-.15.74-.1.94,0,0-.03.08-.06.08-.42,0-.85,0-1.27,0v-1.02c.05,0,.1,0,.16,0,.17,0,.34,0,.51,0,.09,0,.6.02.63-.02V.29s-.01-.08.02-.08c1.54-.06,4.38-.02,6.06,0Z"/>
      <path class="cls-25" d="M8.25,3.94c.2,0,.39,0,.59,0,.2,0,.39,0,.59,0,0,.58,0,1.16,0,1.74,0,.03-.08.02-.08.02l-1.29.02-.04,1.61-1.33.08c0,.48,0,.95,0,1.43,0,.19.02.36-.04.35-1.75-.16-1.35.02-1.37,1.49-.02,1.38.02,2.76,0,4.14l1.33.04c.02.49-.02.98,0,1.47-.21,0-.42,0-.63,0-.09,0-.6-.02-.63.02l-.04,1.51s-.03,0-.08-.06l.04-.71c-.06-.09-.13-.05-.2-.06-.04.01-.11-.03-.12-.06-.17-.74.28-.56.31-.71v-1.37c-.04-.1-.58-.05-.82-.06-.18,0-.35,0-.53,0-.04-.03-.01-.21-.02-.27-.05-.49-.03-1.04-.04-1.53-.01-.61,0-1.23,0-1.84,0-.42-.05-1.21-.04-1.49,0-.02.03-.21.04-.27.01-.09-.04-.2.06-.27.16,0,.33,0,.49,0,.26,0,.54.08.8.04.1-.04.05-.41.06-.63.02-.42-.05-.84.04-1.25.24,0,.47,0,.71,0,.21,0,.63.04.67-.06-.02-.48-.03-.99,0-1.47,0-.12.08-.07.08-.08h.55c.14-.01.29.01.43,0,.1-.01.21.04.27-.06v-1.63s-.11-.07.24-.08Z"/>
      <path class="cls-25" d="M10.76,26.02c0,.3-.02.75,0,1.02-.17,0-.34,0-.51,0-.08,0-.52-.02-.55.02v1.24c-.39.03-.78.04-1.18.06v1.59s.03.04-.08.04c-.16,0-.32,0-.47,0-.25.01-.66-.05-.71.06l-.04,2.02c-.26,0-.52,0-.78,0-.09,0-.6-.02-.63.02,0,.41,0,.82,0,1.24,0,.18,0,.37,0,.55-.96.13-1.95-.04-2.9.04-.08,0-.17,0-.25,0-.05.02-.09.26-.1.31-.14-.02-.73.02-.76,0-.01-.01-.08-.34.02-.27.23.08.64-.18,1.14-.14v-1.69c-.07-.1-1.43.09-1.57-.1,0-.22,0-.44,0-.67.01-.4-.01-.81,0-1.22,0-.15-.02-.48,0-.53.06-.16.14.11.24-.14.05-.13.03-.29.06-.31.02-.02.44,0,.53,0,.22,0,.44,0,.67,0v2.84c.03.1.57-.03.69.02.16.07-.14.4.37.31.01.55.21.3,1.04.35l.02-.63s.06-.06.16-.04c.09,0,.55.03.59-.06-.08-1.54.17-.89.37-1.04.12-.08-.21-.67.35-.55-.03-.9.55.17.41-1.24l.67-.04v-.75c.47.01.77-.09.94-.1.15-.01,1.14.03,1.18-.02v-1.22l1.04-.06-.02-.94h.08Z"/>
      <path class="cls-25" d="M5.23,25.59c.2,0,.39,0,.59,0v1.67l-1.49.12v1.73c-.46.05-.92,0-1.37.02v-1.8l.04-.04c.25,0,.5.01.75,0,.22,0,.58.04.63-.06,0-.31,0-.61,0-.92,0-.24,0-.47,0-.71h.86Z"/>
      <path class="cls-25" d="M8.72,20.49c-.14.89.39.57,1.18.51.25-.02.51-.07.76-.04.12.08.02.15.02.16l-.75-.02-.02,1.35-1.27.06c.02.46-.03.93,0,1.39,0,.09.03.13.04.2-.46.01-.92-.02-1.37,0v-1.57s0-.03,0-.04c.21,0,.42,0,.63,0,.2,0,.41,0,.61,0l.1-.1c-.03-.32.04-.94,0-1.16-.01-.05.02-.1-.06-.16-.04,0-.09,0-.14,0-.03-.83.03-.56.27-.59Z"/>
      <path class="cls-68" d="M23.03,17.98c.12.07.08.26.08.47,0,.07,0,.13,0,.2,0,.04-.04.04-.04.08-.37-.1-.31.2-.24.78-.1.05.07.04-.31.12-.28.06-.39-.18-.35.47.04.27-.1.16-.12.24-.26-.13-.19.04-.2.31-.04,0-.15.08-.16.08-.26,0-.78-.23-.67.24-.03,0,.01.05-.55.12-.08,0-.36-.02-.39.02-.02.02.01.31,0,.41,0,0,.04.05-.16.08-.44.07-.38-.13-.35.47-.05.02-.03.07-.1.12-.29-.05-.41,0-.49,0,.05-.12.04-.23.04-.35,0-.3,0-.6,0-.9.34-.02.69.01,1.04,0,.04-.03.01-.73.02-.86.95-.18,1.57.28,1.41-.47.07,0,.32.02.35-.02,0-.31-.01-.62,0-.92l.8.04c.07-.16-.02-.26-.02-.27.01-.14.07-.28.04-.43.12,0,.24,0,.35,0Z"/>
      <path class="cls-68" d="M8.44,29.98c.05.41-.17.81.24.82-.06,0-.21-.02-.24.02-.02.03-.09.5.27.37-.02.3.02.6,0,.9-.42.03-.69-.13-.63.27-.02,0-.27.03-.35.04-.07,0-.28-.02-.31.02-.03.32.04.35.04.37,0,.11-.04.07-.04.08-.43-.18-.22.17-.27.39-.03.12-.1.32-.24.35-.24.07-.33-.17-.49.2-1.24-.07-.05.13.41.04-.04.4.17.47-.24.47-.27,0-.56-.08-.84-.04-.03-.02.06-.35.06-.43,0-.18,0-.37,0-.55.92.08.57-.03.63-1.25.26,0,.52,0,.78,0,.12,0,.72.03.75-.06v-2.02c.16,0,.31,0,.47,0Z"/>
      <path class="cls-68" d="M3.27,9.71c-.14.62.04,1.41.04,1.49,0,.59-.05,1.2-.04,1.8.02,1.41-.23,1.76.63,1.57,0,.06-.02.25.02.27.18,0,.35,0,.53,0,.04.27-.03.55-.04.82-.14-.02-.37.02-.47,0-.06-.02-.02-.08-.08-.08-.01-.24,0-.48,0-.73-.03-.04-.25-.01-.31-.02-.32-.03-.64-.01-.96-.04-.03-.02.06-.17.06-.2.05,0,.17.02.2-.02.04-.06.04-1.47,0-1.53-.03-.04-.14-.01-.2-.02,0-.08-.02-.58-.04-.61-.09-.13-.5.31-.39-.63.03-.04.28,0,.35-.02.05,0,.17.02.2-.02v-1.9c.06-.03.01-.13.2-.16.08-.01.21,0,.31,0Z"/>
      <path class="cls-68" d="M22.56,2.1s0,.08,0,.12c.03.24-.09.3.35.27.01.12.1.26,0,.39-.36.04-.35.19.12.24.12.01.14.04.16.04.02.12-.02.58,0,.61.03.04.46.01.55.02.46.03.37.08.39.08.04.33-.15,1.45.27.94.19-.02.36,0,.55.04.09.6-.51-.1-.39.67-.07,0-.09.04-.16.04-.3,0-.6.02-.9,0-.04-.81.19-.98-.43-.9,0-.12.02-.83-.02-.86-.29,0-.59,0-.88,0,.04-.43-.04-.87-.04-1.29,0-.02.07-.13.04-.39h.39Z"/>
      <path class="cls-68" d="M1.82,33.94c-.18-.06-.11-.19-.12-.35,0-.12.02-.7,0-.73-.03-.05-.2,0-.24-.02-.02-.01-.12-.11-.12-.12-.05-.16.09-.61-.08-.59.03,0,.09-.11.12-.12.14.19,1.5,0,1.57.1v1.69c-.5-.04-.91.21-1.14.14Z"/>
      <path class="cls-83" d="M28.4,9.12c-.26-.03-.18.08-.2.08-.03,0-.34-.24-.43.06-.09.31.1,3.16,0,3.29-.04.05-.53,0-.63.02.04-1.12-.03-2.25,0-3.37v-.04s.04-.04.08-.04c.37-.02.6.27.55-.39.07.02.02.1.06.12.46-.09.3.14.33.18.07.08.18-.07.24.1Z"/>
      <path class="cls-68" d="M6.6,34.33c-.09-.01-.07.04-.08.04-.21.04-.93-.03-1.27,0-.07.19.02.22.02.24-.01.04-.05.1-.06.2-.77.08-1.5-.11-1.94-.12,0-.07.01-.17,0-.24-.03-.18-.1-.02-.16-.1-.08-.11.2-.4-.2-.45.95-.08,1.95.09,2.9-.04,0,.08-.09.42-.06.43.28-.04.57.04.84.04Z"/>
      <path class="cls-38" d="M9.82,28.29c-.18,0-.04,1.03-.08,1.08-.04.06-.3-.04-.35.08-.02.04-.01.34.04.37.09.06.17.04.27.04-.02.11.01.29,0,.41-.02.05-.22.12-.27.14-.04.01-.16,0-.25,0-.03,0-.02.08-.02.08-.01,0-.22-.11-.24-.12.25.14.29-.39.27-.41-.03-.04-.25-.02-.31-.02-.12,0-.23,0-.35,0v-1.59c.39-.02.78-.03,1.18-.06.04,0,.08,0,.12,0Z"/>
      <path class="cls-68" d="M27.11,7.12c.02.14.03.25.04.39-.06,0-.21-.02-.24.02-.03.04-.03.94,0,.98.03.04.24.04.27-.04.02-.03,0-.63,0-.76.1.02.55-.03.59.02.03.04,0,.84-.04,1-.46-.1-.56-.11-.51.39-.04,0-.04.04-.08.04-.23,0-.47,0-.71,0,.06-.34-.07-.69-.08-1.02,0-.3.12-.63,0-.94,0,0,0-.03.06-.08h.69Z"/>
      <path class="cls-68" d="M2.68,27.27c.01.36-.2.18-.47.25v1.63c-.09,0-.51-.02-.53,0-.03.02,0,.18-.06.31-.32-.01-.62-.04-.94-.04-.03-.05-.03-.06-.04-.12-.02-.19.02-.41,0-.61.19-.11.38-.04.59-.1-.14.59.39.46.43.37.04-.1-.04-1.31,0-1.41.08-.19.5.22.39-.49.23-.21.61-.24.63.2Z"/>
      <path class="cls-68" d="M11.42,24.64s-.02.04.08.04c-.02.27.05.51-.08.47-.79-.11-.91.33.04.24.03.17-.03,1.15,0,1.2.04.06.39-.02.43.04.01.02.01.49,0,.51-.04.06-.85-.03-1.1.06,0-.06-.03-.08-.04-.16-.02-.27,0-.72,0-1.02.01-.46.04-.92.08-1.37.2,0,.39,0,.59,0Z"/>
      <path class="cls-78" d="M8.25,2.69v1.25c-.35,0-.22.08-.24.08-.01,0-.05-.05-.27-.04-.08,0-.17-.02-.47,0-.09,0-.48-.02-.51.02-.02.51.03,1.04,0,1.55-.16-.2-.04-1.04-.08-1.59,0-.03-.08-.02-.08-.02,0-.12-.04-.08-.04-.2,0-.62.41-.24.51-.37.03-.04-.04-.37.02-.41.04-.03.49.04.53-.02.02-.02-.01-.22,0-.29.31.03.34-.04.35-.04.03,0,.26.08.27.08Z"/>
      <path class="cls-68" d="M.33,30.13c.13,0,.26,0,.39,0-.03.41.03.81.04,1.22,0,.23-.08.49-.04.73l.16.1v.55c-.08,0-.08.1-.35.08.17-.17.14-.49-.24-.39,0-.01-.11-.1-.12-.2-.04-.67.03-1.37,0-2.04.03,0,.04-.03.16-.04Z"/>
      <path class="cls-51" d="M2.95,27.31v1.8s-.04.04-.08.04c-.22,0-.44,0-.67,0v-1.63c.27-.08.48.1.47-.25l.27.04Z"/>
      <path class="cls-68" d="M20.95,1.12c-.04.21.04.43.04.63,0,.08-.07.41-.04.75-.36.02-.72.07-1.08.04-.13-.06-.02-.6-.02-.75.09-.02.47.03.51-.02.02-.03-.02-.55,0-.69.03,0,.13-.06.53-.04.03,0,0,.07.06.08Z"/>
      <path class="cls-99" d="M5.07,17.04s.01.07-.14.04c-.02,0-.05-.07-.1-.08.17-.54.19-.75-.43-.63,0-.04,0-.08,0-.12,0-.08,0-.16,0-.24,0-.12,0-.24,0-.35,0-.27.07-.55.04-.82.24,0,.78-.04.82.06v1.37c-.03.14-.49-.04-.31.71,0,.03.08.07.12.06Z"/>
      <path class="cls-10" d="M6.91,22.49c.13.01.26.07.39.04v1.57s.03.04-.08.04c-.18,0-.37,0-.55,0l-.04-1.65c.09,0,.18,0,.27,0Z"/>
      <path class="cls-68" d="M6.68,24.14c-.23,0-.47.04-.71.04-.06,0-.13,0-.2,0,0-.12,0-.24,0-.35,0-.1.03-.19.04-.27.37.06.19-.12.24-.51,0,0,.03-.11.04-.2.21.05.47-.08.51-.31,0-.01,0-.03,0-.04h.04l.04,1.65Z"/>
      <path class="cls-68" d="M10.76,27.04c0,.07.04.09.04.16-.06.02-.17.05-.2.1,0,.06,0,.12,0,.18-.04.31.04.63.04.67-.03.74-.07.39-.37.51-.05.02-.04.1-.1.12-.15.05-.21-.02-.35.06-.01.1.02.24,0,.33-.06.31-.08.3-.08.31-.07.01-.28-.03-.31.02-.02.02.01.24,0,.33-.05-.03-.06-.33-.04-.37.05-.12.31-.02.35-.08.04-.05-.1-1.09.08-1.08.08,0,.4.02.43-.02v-1.24c.17,0,.34,0,.51,0Z"/>
      <path class="cls-73" d="M6.6,3.94s.08-.01.08.02c.04.55-.09,1.39.08,1.59,0,.05,0,.1,0,.16,0,0-.07-.05-.08.08-.13-.05-.42-.06-.55-.04.01-.1-.02-.23,0-.31,0,0,.07.01.08-.02.05-.37-.05-1.11,0-1.47h.39Z"/>
      <g>
        <path class="cls-68" d="M19.54.29v.73s.21.01.27.02c.11.22,0,.48,0,.51-.26,0-.52.01-.78,0V.26c.38,0,.48.04.51.04Z"/>
        <path class="cls-10" d="M19.03.26v1.29c-.25-.01-.51.05-.59-.06V.22c.2,0,.4.03.59.04Z"/>
      </g>
      <path class="cls-68" d="M5.27,24.21c0,.14-.04.28-.04.43,0,.31,0,.63,0,.94h-1.18c0-.12,0-.24,0-.35.01,0,.14-.09.25-.04.18.07,0,.46.39.31.19-.07.05-.24.06-.31.02-.22,0-.3,0-.31,0-.03.13-.02.08-.65l.43-.02Z"/>
      <g>
        <path class="cls-51" d="M8.05,19.63s0,.03,0,.04h-.27c-.14,0-.29,0-.43,0v-1.12s-.53-.02-.63-.02c-.01,0-.03,0-.04,0v-.43l1.37.02c0,.5,0,1.01,0,1.51Z"/>
        <path class="cls-68" d="M7.35,19.67c-.12,0-.13.04-.16.04-.1,0-.24-.03-.35-.04-.04,0-.08,0-.12,0v-1.14c.09,0,.6-.02.63.02v1.12Z"/>
      </g>
      <path class="cls-68" d="M3.46,26.17s-.02.05.27.04v1.06c-.25.01-.5,0-.75,0-.14-.21,0-.41,0-.43.36.04.2-.09.24-.39.03-.22-.04-.25.24-.27Z"/>
      <g>
        <path class="cls-10" d="M12.21.26c.12,0,.13.04.16.04v1.2s-.53.02-.63.02c.03-.35-.04-.93,0-1.22,0-.05.04-.04.04-.04.14,0,.29,0,.43,0Z"/>
        <path class="cls-68" d="M11.74.29c-.04.29.03.86,0,1.22-.17,0-.34,0-.51,0V.26c.16,0,.37-.03.51.04Z"/>
      </g>
      <path class="cls-68" d="M4.05,25.23c0,.12,0,.24,0,.35-.01.2.13.36-.59.27-.39-.05-.25-.04-.27-.61.06-.13.73-.03.86-.02Z"/>
      <path class="cls-95" d="M2.05,27.08c.11.71-.31.3-.39.49-.04.1.04,1.31,0,1.41-.04.09-.57.22-.43-.37.14-.04.29-.03.31-.1.08-1.07-.28-1.7.51-1.43Z"/>
      <path class="cls-96" d="M27.11,7.12h-.69c-.06.04-.05.08-.06.08-.13.02-.25.07-.39.04-.01-.15.02-.33,0-.47.02-.16.7-.05,1.12-.08.14.14.02.41.02.43Z"/>
      <path class="cls-68" d="M13.54,22.45l-.06.67-.73-.04.06-.63c.24,0,.48,0,.73,0Z"/>
      <path class="cls-27" d="M5.27,6.65c0,.22,0,.44,0,.67h-.63s-.04-.04-.04-.2c0-.22-.04-.44.06-.51l.61.04Z"/>
      <path class="cls-11" d="M22.17,1.82v.27c.03.27-.04.37-.04.39-.23.02-.49-.07-.59.08v-.75s.03-.1.49-.08c.01,0,.13.08.14.08Z"/>
      <path class="cls-18" d="M8.88,29.94c-.07.14-.08.34.04.43.01,0,.22.12.24.12v.27c-.15.02-.28.02-.43.04-.01,0-.03,0-.04,0-.4,0-.18-.41-.24-.82.1,0,.07-.04.08-.04.12,0,.23,0,.35,0Z"/>
      <path class="cls-38" d="M21.27,1.75s.26.08.27.08v.67c-.2,0-.39,0-.59,0-.04-.34.04-.66.04-.75.09,0,.18,0,.27,0Z"/>
      <path class="cls-19" d="M4.37,25.59c0,.24,0,.47,0,.71.04-.17-.42-.09-.63-.08-.29.01-.26-.04-.27-.04v-.31c.71.09.57-.07.59-.27h.31Z"/>
      <path class="cls-22" d="M2.76,9.86v1.9s-.14.01-.2.02c.04-.25-.06-1.86,0-1.94.06-.08.19.02.2.02Z"/>
      <path class="cls-64" d="M20.36,1.08c-.02.13.02.66,0,.69-.03.05-.42,0-.51.02,0-.26-.04-.22-.04-.24,0-.03.11-.29,0-.51.01,0,.03,0,.04,0,.16.01.35.03.51.04Z"/>
      <path class="cls-63" d="M23.74,3.78c-.09,0-.52.02-.55-.02-.02-.03.02-.48,0-.61,0,0-.01-.08.02-.08.08,0,.51.04.53.06.02.03-.02.52,0,.65Z"/>
      <path class="cls-22" d="M2.64,14.61c-.04-.54.01-1.04,0-1.57.05,0,.17-.02.2.02.04.06.04,1.47,0,1.53-.03.04-.14.01-.2.02Z"/>
      <path class="cls-90" d="M3.78,8.57c-.02-.3.01-.6.04-.9.52-.07.32.11.35.84-.04.1-.26.04-.39.06Z"/>
      <path class="cls-60" d="M8.05,19.67c0,.26.02.53,0,.78,0,.03-.17.05-.04.59v.04s-.03,0-.04,0c-.04,0-.08,0-.12,0-.03-.49-.2-.92-.08-1.41h.27Z"/>
      <path class="cls-96" d="M.17,30.17c.03.67-.04,1.37,0,2.04-.3.21-.1-1.44-.16-2.06.09-.07.15.02.16.02Z"/>
      <path class="cls-38" d="M5.97,24.17c-.06,0-.04.22-.04.43l-.71.04c0-.15.03-.29.04-.43,0-.01,0-.03,0-.04.17,0,.34,0,.51,0,.07,0,.13,0,.2,0Z"/>
      <path class="cls-92" d="M28.44,10.76c0,.43.04.78,0,1.22-.06,0-.21.02-.24-.02-.04-.06-.08-1.48.24-1.2Z"/>
      <path class="cls-38" d="M4.84,17c-.13-.02-.29.05-.43-.06,0-.19,0-.38,0-.57.62-.13.61.09.43.63Z"/>
      <path class="cls-52" d="M6.52,34.37c.26.39-.56.19-1.25.24,0-.01-.09-.05-.02-.24.34-.03,1.06.04,1.27,0Z"/>
      <path class="cls-3" d="M1.27,32.13c.17-.02.03.43.08.59.04.12-.17.07-.45.08-.03,0-.02-.08-.02-.08v-.55c.04-.09.29,0,.39-.04Z"/>
      <path class="cls-54" d="M24.4,4.8c-.43.51-.23-.61-.27-.94.13.01.34-.5.27.94Z"/>
      <path class="cls-37" d="M27.15,7.51s.04-.05.04.2c0,.13.02.73,0,.76-.04.08-.25.08-.27.04-.03-.04-.03-.94,0-.98.03-.04.18,0,.24-.02Z"/>
      <path class="cls-68" d="M2.91,33.9c.4.05.12.34.2.45.06.08.12-.08.16.1l-.63-.04s-.08-.17-.08-.2c0-.06.05-.29.1-.31.08,0,.17,0,.25,0Z"/>
      <path class="cls-63" d="M8.95,2.02s.05,0,.08,0v.55s-.16.08-.2.08c-.08,0-.16,0-.24,0,.02-.12-.02-.58,0-.61.03-.04.28-.01.35-.02Z"/>
      <path class="cls-60" d="M18.27,23.12s.91-.13.73.29c-.04.08-.7.08-.73.06-.03-.02-.03-.33,0-.35Z"/>
      <path class="cls-22" d="M3.86,15.59s0,.05,0,.08c-.47.08-.28-.14-.31-.82.06,0,.29-.02.31.02,0,.24-.01.48,0,.73Z"/>
      <path class="cls-82" d="M19.85,1.04s-.03,0-.04,0c-.06,0-.25.02-.27-.02V.29s-.07-.14.31-.06v.8Z"/>
      <path class="cls-89" d="M25.27,5.12c-.05.08-.26.01-.31.1,0,.01-.03.24-.04.29-.12,0-.24,0-.35,0-.12-.76.48-.07.39-.67.07.01.27-.02.29,0,.05.04,0,.22.02.27Z"/>
      <path class="cls-14" d="M21.27,1.75c-.09,0-.18,0-.27,0,0-.2-.08-.42-.04-.63.02,0-.02-.2.35-.02l-.04.65Z"/>
      <path class="cls-43" d="M26.6,14.92c.04.54,0,.37-.63.39.01-.15-.04-.3.06-.43.14.05.43.06.57.04Z"/>
      <path class="cls-58" d="M27.74,8.72s.03,0,.04,0c.05.66-.18.37-.55.39-.05-.5.05-.49.51-.39Z"/>
      <path class="cls-72" d="M3.86,9.43c0,.06-.04.25-.04.27-.18,0-.37,0-.55,0-.1,0-.23-.01-.31,0-.17,0-.04-.23-.04-.27h.94Z"/>
      <path class="cls-21" d="M1.46,32.84s.2-.03.24.02c.02.03,0,.61,0,.73-.46.29-.36-.6-.24-.75Z"/>
      <path class="cls-50" d="M23.66,18.02c-.01.13.02.27,0,.39l-.55.04c0-.21.04-.4-.08-.47l.04-.04c.17.11.39.08.59.08Z"/>
      <path class="cls-40" d="M11.46,25.39c-.95.09-.83-.35-.04-.24.16.02.42.56.39-.47.2.71.08.66-.35.71Z"/>
      <path class="cls-60" d="M3.27,34.45c.01.07,0,.16,0,.24-.03,0,.13.12-.61.08-.14-.13-.02-.34-.02-.35l.63.04Z"/>
      <path class="cls-31" d="M8.72,32.1c-.01.14.04.29-.06.35-.71.04-.54-.08-.57-.08-.07-.4.2-.25.63-.27Z"/>
      <path class="cls-32" d="M20.48,21.08c.11-.06.09.38.08.41-.06.14-.45.02-.47.02.01-.1-.02-.39,0-.41.03-.04.32-.01.39-.02Z"/>
      <path class="cls-95" d="M23.07,18.72c-.01.25,0,.51,0,.76-.04.05-.19,0-.24.02-.07-.59-.14-.88.24-.78Z"/>
      <path class="cls-4" d="M5.78,23.82c0,.12,0,.24,0,.35-.17,0-.34,0-.51,0,.02-.33-.27-.49.51-.35Z"/>
      <path class="cls-62" d="M12.72,23.7c0,.14.1.8.04.88-.18.07-.22-.02-.24-.02.04-.56-.12-.96.2-.86Z"/>
      <path class="cls-60" d="M21.7,20.72c.12.48-.42.21-.67.24-.11-.46.4-.23.67-.24Z"/>
      <g>
        <path class="cls-79" d="M11.23.49v1.02c-.05,0-.1,0-.16,0-.22,0-.45-.02-.67,0-.07,0-.32-.02-.35.02v.53c-.18,0-.37,0-.55,0-.16,0-.3-.04-.47-.04-.03,0-.05,0-.08,0,.04-.07.06,0,.08-.12.01-.1-.01-.21,0-.31.1-.02.37-.02.41-.04.12-.05.02-.35.08-.39.04-.03.48.03.55,0,.12-.05.02-.35.08-.39.02-.02.38,0,.61-.04.06,0,.36-.03.37-.04.06-.04-.04-.23.1-.2Z"/>
        <path class="cls-50" d="M11.23.26v.24c-.14-.03-.04.16-.1.2-.02.01-.32.03-.37.04-.03-.57-.02-.47.47-.47Z"/>
      </g>
      <path class="cls-91" d="M6.68,18.53s.03,0,.04,0v1.14s-.07.1-.16-.02v-1.12s.08,0,.12,0Z"/>
      <path class="cls-89" d="M24.99,16.37c.03.46,0,.4-.43.39,0-.02-.09-.16-.02-.39.15,0,.3,0,.45,0Z"/>
      <path class="cls-58" d="M22.52,19.63c-.01.43.12.62-.35.47-.04-.65.07-.41.35-.47Z"/>
      <path class="cls-62" d="M19.93,21.59c.05.71-.09.39-.35.47-.03-.61-.09-.4.35-.47Z"/>
      <path class="cls-25" d="M25.78,5.43c.04.07-.18.12-.2.12-.01,0-.04-.04-.27-.04v-.35c.06.03.41-.03.45,0,.05.03,0,.21.02.27Z"/>
      <path class="cls-53" d="M3.93,15.67c-.04.46.02.45.47.35,0,.08,0,.16,0,.24-.6.27-.53-.19-.55-.59,0-.03,0-.05,0-.08.06,0,.01.06.08.08Z"/>
      <path class="cls-52" d="M28.4,9.12c.06.17-.05.65-.04.86-.26.08-.13-.29-.16-.78.01,0-.07-.11.2-.08Z"/>
      <path class="cls-60" d="M10.17,28.76c.12.36.04.54-.35.39.02-.09-.01-.23,0-.33.14-.08.2,0,.35-.06Z"/>
      <path class="cls-96" d="M10.64,28.13s-.08-.36-.04-.67c.35-.19.34.81.04.67Z"/>
      <path class="cls-58" d="M27.38,13.16c-.02.27.14.8-.24.63,0-.19,0-.38,0-.57.06-.09.15-.05.24-.06Z"/>
      <path class="cls-25" d="M.29,32.41c.38-.1.41.22.24.39-.08,0-.27.03-.31-.06-.1-.23.08-.31.08-.33Z"/>
      <path class="cls-85" d="M7.19,19.7c.14.54-.6.5-.35-.04.11,0,.25.04.35.04Z"/>
      <path class="cls-89" d="M25.93,15.59s.09.31.04.37c-.04.06-.32,0-.39.02-.02-.52.01-.34.35-.39Z"/>
      <path class="cls-22" d="M6.91,33.62c.16.07.12.2-.08.24-.46.09-1.65-.11-.41-.04.16-.37.25-.13.49-.2Z"/>
      <path class="cls-53" d="M9.03,1.59c-.01.1.01.22,0,.31-.56.21-.44-.32-.33-.35.02,0,.09.08.33.04Z"/>
      <path class="cls-61" d="M5.42,5.9c-.03.46.1.78-.16.71,0-.22-.07-.46-.04-.69.06-.11.19-.02.2-.02Z"/>
      <path class="cls-60" d="M9.74,29.47s.08.12.04.37c0,.03-.08.02-.08.02-.1,0-.18.02-.27-.04.01-.09-.02-.31,0-.33.03-.05.25,0,.31-.02Z"/>
      <path class="cls-80" d="M3.23,26.45c-.04.31.12.44-.24.39,0,0-.08.01-.08-.02,0-.35-.07-.51.31-.37Z"/>
      <path class="cls-38" d="M6.6,22.53c-.04.23-.3.36-.51.31.01-.07-.02-.28.02-.31.03-.02.37.01.49,0Z"/>
      <path class="cls-23" d="M6.05,23.04c-.04.39.13.57-.24.51.02-.24-.12-.71.24-.51Z"/>
      <path class="cls-72" d="M4.76,24.88s.02.09,0,.31c-.55.11-.56-.42,0-.31Z"/>
      <path class="cls-45" d="M25.3,5.16v.35c-.13,0-.26,0-.39,0,0-.05.03-.28.04-.29.05-.08.27-.02.31-.1,0,0,.04.04.04.04Z"/>
      <path class="cls-25" d="M7.42,32.88c-.02.31.11.52-.27.39.05-.22-.15-.57.27-.39Z"/>
      <path class="cls-29" d="M9.42,30.41c.11-.06.09.32.08.33-.03.04-.28,0-.35.02v-.27s-.01-.08.02-.08c.09,0,.22.01.25,0Z"/>
      <path class="cls-96" d="M7.74,32.41c0,.38.09.42-.27.39,0-.02-.07-.05-.04-.37.03-.04.25-.01.31-.02Z"/>
      <path class="cls-25" d="M24.48,17.23s.08-.01.08.02c0,.51-.08.35-.08.37h-.2c0-.2-.2-.45.2-.39Z"/>
      <path class="cls-25" d="M8.68,30.8s.03,0,.04,0c.1.2,0,.37,0,.39-.37.13-.3-.34-.27-.37.03-.04.18-.01.24-.02Z"/>
      <path class="cls-77" d="M22.56,2.1h-.39v-.27s.16-.07.33-.04c.1.07.05.2.06.31Z"/>
      <path class="cls-76" d="M25.58,5.9c0-.12,0-.24,0-.35.01,0,.23-.04.2-.12.07.24.25.54-.2.47Z"/>
      <path class="cls-29" d="M6.91,22.49c-.09,0-.18,0-.27,0h-.04s-.1-.22-.02-.27c.04-.03.56-.07.33.27Z"/>
      <path class="cls-25" d="M5.74,18.45s.11.12-.37.08c-.07-.23.02-.26.02-.27.29,0,.39-.08.35.2Z"/>
      <path class="cls-25" d="M6.13,5.43c-.02.08.01.22,0,.31,0,0,.07.05-.12.08-.03,0-.05,0-.08,0-.16-.12-.15-.5.2-.39Z"/>
      <path class="cls-40" d="M12.21.26c-.14,0-.29,0-.43,0,.01-.06-.03-.2.02-.24.03-.02.57-.09.41.24Z"/>
      <path class="cls-96" d="M22.91,2.49c-.44.02-.32-.03-.35-.27.1.01.33-.02.37,0,.03.01-.02.23-.02.27Z"/>
      <path class="cls-95" d="M25.85,6.61c-.38.02-.24,0-.27-.24.48-.3.25.15.27.24Z"/>
      <path class="cls-52" d="M7.97,2.61s-.04.07-.35.04c.09-.47.4-.34.35-.04Z"/>
      <path class="cls-25" d="M22.05,20.33c-.02.08.02.26,0,.37-.25.08-.18-.06-.2-.06,0-.27-.06-.45.2-.31Z"/>
      <path class="cls-40" d="M22.91,2.88c.16-.03.11.07.12.24-.47-.04-.48-.19-.12-.24Z"/>
      <path class="cls-35" d="M6.56,3.74c0,.11.03.08.04.2h-.39c0-.05-.02-.17.02-.2.02-.02.24.01.33,0Z"/>
      <g>
        <path class="cls-46" d="M.68,29.43c.32,0,.63.03.94.04-.09.25-.18-.02-.24.14-.02.05,0,.38,0,.53-.22,0-.44,0-.67,0-.13,0-.26,0-.39,0,0-.24,0-.46.04-.71.25.04.3,0,.31,0Z"/>
        <path class="cls-96" d="M.64,29.31c0,.06.01.07.04.12-.02,0-.07.04-.31,0,0-.02-.15-.25.27-.12Z"/>
      </g>
      <path class="cls-15" d="M10.84,22.45v.67c.04,1.63-.03,1.04-.33,1.18-.11.05-.04.26-.06.29-.03.05-.12-.02-.2.06,0,0-.03.05-.04.08-.2.45.32.68-.59.65.12,1.18-.38.24-.27,1.22-.9.04-.42.27-.57.37-.2.14-.35-.5-.29,1.29-.17.01-.47.11-.94.1v.75l-.67.04c.14,1.4-.44.34-.41,1.24-.56-.12-.23.47-.35.55-.21.15-.45-.5-.37,1.04-.04.09-.5.07-.59.06-.14-.01-.29-.05-.43-.06v-2.06c.05-.53.21-.15.31-.29.02-.03-.02-.61.04-.67.07-.06.39.02.43-.04.03-.04-.03-.59,0-.63.04-.06.41,0,.45-.02.17-.12-.39-.4.65-.45-.12-1.03.48-.02.35-1.08.47.13.27-.25.27-.27,0-.02.07-.14.04-.41.91-.1.42-.09.59-.47.05-.11.27-.02.31-.08.02-.03-.02-.4,0-.43.07-.1.5.21.39-.51.4-.05.12-.42.12-.45,0-.07-.03-.1-.04-.2l.67.02v-.67l.67-.12.06-.69c.27,0,.54,0,.8,0Z"/>
      <path class="cls-26" d="M23.27,13.63c.34,0,.71.08,1.06.04,0,.16.12,1.11-.02,1.18l-1.24.02v1.49l-1.29.04-.02,1.63h-1.65l-.04,1.57c-.56,0-1.11,0-1.67,0-.5,0-.99-.04-1.49-.04v-.86c.05,0,.17.02.2-.02,0-.23.01-.46,0-.69.51,0,1.02.01,1.53,0,.1,0,.64.02.67-.02,0-.21-.01-.43,0-.65l.84-.04.02-.71c.11,0,.67.03.71-.04-.2-1.38.69-.58.82-.88.05-.23-.05-.51-.04-.73,0-.06-.02-.13.02-.16.05,0,.13-.03.18-.04.16-.02.48.07.51-.02v-1.02c.05,0,.12-.05.16-.06.04,0,.61,0,.75,0Z"/>
      <path class="cls-70" d="M16.91,19.55c.5,0,.99.04,1.49.04l-.02,1.33c-2.34-.02-4.68.07-7.02.04l-.02-1.33c1.86-.05,3.71-.08,5.57-.08Z"/>
      <path class="cls-16" d="M11.89,17.9c.15,0,.11.04.12.04l.02.75c.59,0,1.19,0,1.78,0,.87,0,1.72-.01,2.59-.04.03,0,.24.08.51.04v.86c-1.86,0-3.71.03-5.57.08-.52.01-1.07.07-1.49.08-.1,0-.07-.04-.08-.04l-.04-1.61c.29-.16.85-.13,1.33-.16.27-.01.55,0,.82,0Z"/>
      <path class="cls-25" d="M26.44,9.16c.23,0,.47,0,.71,0v.04l-.04,3.78c-.48.06-.97.09-1.45.1v-3.92c.08,0,.09-.04.12-.04.21,0,.44.04.67.04Z"/>
      <path class="cls-70" d="M25.66,9.16v3.92c-.44.01-.89,0-1.33,0,0-.73-.04-1.47-.04-2.2,0-.57.08-1.16.08-1.73.43,0,.86,0,1.29,0Z"/>
      <path class="cls-16" d="M24.29,10.88c0,.73.04,1.46.04,2.2,0,.2,0,.39,0,.59-.35.04-.71-.04-1.06-.04v-1.1c0-.54,0-1.07,0-1.61l1.02-.04Z"/>
      <path class="cls-93" d="M10.68,21.12c0,.11-.02.62,0,.65.03.05.18-.03.24.08.05.09-.15.27.27.22.02.13.06.25.04.39-.13,0-.26,0-.39,0-.27,0-.54,0-.8,0l-.06.69-.67.12v.67l-.67-.02c-.03-.46.02-.93,0-1.39l1.27-.06.02-1.35.75.02Z"/>
      <path class="cls-83" d="M9.78,19.67s-.02.04.08.04c0,.25-.01.5,0,.75-.38-.01-.75,0-1.14.04-.24.03-.3-.24-.27.59-.1-.01-.31,0-.43,0v-.04c.55.22.58-.74.04-.59.02-.26,0-.53,0-.78,0-.01,0-.03,0-.04.57.07,1.15.05,1.73.04Z"/>
      <path class="cls-68" d="M25.85,14.84s.08.03.08.06c.05,1.04-.15.47-.39.71-.06.06,0,.34,0,.41-.09.11,0,.27-.06.31-.01.01-.34.01-.35,0-.03-.02-.05-.64-.06-.75-.01-.25,0-.5,0-.75.26-.01.52,0,.78,0Z"/>
      <path class="cls-83" d="M10.84,24.64c-.03.46-.07.92-.08,1.37h-.08c-.73.13-.4-.31-.47-1.29.01-.03.04-.08.04-.08.2,0,.39,0,.59,0Z"/>
      <path class="cls-65" d="M9.86,20.45c0,.18.07.37.04.55-.79.06-1.32.38-1.18-.51.38-.04.75-.05,1.14-.04Z"/>
      <path class="cls-83" d="M21.5,19.59c.16.75-.46.29-1.41.47.01-.2-.04-.4.06-.47.06-.03,1.11.02,1.35,0Z"/>
      <g>
        <path class="cls-51" d="M19.03,21.82c0,.12,0,.23-.04.35-.19,0-.37,0-.55-.04.01-.12,0-.24,0-.35l.59.04Z"/>
        <path class="cls-51" d="M19.03,20.92c0,.3,0,.6,0,.9l-.59-.04c0-.27,0-.54,0-.8.08-.1.33-.05.59-.06Z"/>
      </g>
      <path class="cls-51" d="M25.07,14.84c0,.25-.01.5,0,.75l-.59.04c0-.24,0-.48,0-.73.08-.1.33-.05.59-.06Z"/>
      <g>
        <path class="cls-68" d="M25.07,15.59c0,.1.03.72.06.75.01.01.34.01.35,0,.06-.04-.03-.2.06-.31,0,.08.08.21.02.35-.19,0-.38,0-.57,0-.15,0-.3,0-.45,0-.07.24.02.37.02.39-.01.14-.08.34-.08.47-.39-.06-.2.19-.2.39,0,.02-.07.03-.04.35-.19.01-.4.03-.59.04-.2,0-.42.03-.59-.08.01-.33-.02-.65,0-.98.17.31.19.24.57.2l.06-.78c.24-.01.48,0,.73,0,.1-.05.05-.51.06-.75l.59-.04Z"/>
        <path class="cls-83" d="M23.7,16.37l-.06.78c-.37.04-.4.11-.57-.2.01-.25-.05-.51.06-.59.19,0,.38,0,.57,0Z"/>
      </g>
      <path class="cls-34" d="M11.23,22.45s.11,0,.16,0c-.07.62.13.73-.55.67v-.67c.13,0,.26,0,.39,0Z"/>
      <path class="cls-49" d="M11.38,22.45c-.05,0-.11,0-.16,0,.03-.14-.02-.26-.04-.39-.02-.12-.13-.15-.06-.27.09.02.49-.03.53.02.02.03-.02.47,0,.59-.07.1-.18.04-.27.06Z"/>
      <g>
        <path class="cls-68" d="M28.21,9.2c.03.49-.1.87.16.78,0,0,.08-.01.08.02,0,.25,0,.51,0,.76-.32-.28-.28,1.14-.24,1.2.03.04.18,0,.24.02,0,.1.02.47,0,.49-.08.11-.36-.28-.27.63-.05.12-.53.03-.78.06-.08.01-.17-.03-.24.06,0,.19,0,.38,0,.57,0,.04,0,.08,0,.12-.37-.05-.26.13-.27.39-.01.19,0,.38,0,.57-.17.01-.26.06-.27.06-.14.02-.42,0-.57-.04-.1.13-.05.29-.06.43,0,.09-.03.19-.04.27-.34.05-.37-.13-.35.39,0,0-.04.04-.04.04,0-.07-.06-.35,0-.41.24-.24.44.33.39-.71,0-.03-.08-.05-.08-.06-.01-.3,0-.61,0-.9.52.08.31-.2.35-.86.3-.02.62.02.92,0,.04-.03.02-.43.02-.51.1-.02.59.03.63-.02.1-.13-.09-2.98,0-3.29.09-.3.4-.06.43-.06Z"/>
        <path class="cls-9" d="M27.15,13.9c-.02.36.11.43-.27.39.02-.26-.1-.44.27-.39Z"/>
        <path class="cls-81" d="M26.21,13.08c-.04.66.17.95-.35.86,0-.28,0-.56,0-.84.03-.04.28-.01.35-.02Z"/>
      </g>
      <g>
        <path class="cls-68" d="M12.72,23.12c.22.32,0,.55,0,.59-.32-.09-.16.3-.2.86-.06.01-.03.07-.06.08-.2.02-.45.03-.65.04-.1,0-.21,0-.31,0-.1,0-.07-.04-.08-.04.08-.28.02-.58.04-.86.58.07.45-.14.39-.67.28-.02.58.01.86,0Z"/>
        <path class="cls-13" d="M11.86,23.12c.06.53.19.74-.39.67.01-.22.06-.43.04-.65.03-.04.28-.01.35-.02Z"/>
      </g>
      <g>
        <path class="cls-47" d="M22.68,17.98c.03.15-.03.29-.04.43h-.78c.01-.13-.02-.27.02-.39.06-.07.67-.03.8-.04Z"/>
        <path class="cls-83" d="M22.64,18.41s.09.12.02.27l-.8-.04c0-.08,0-.16,0-.24h.78Z"/>
      </g>
      <path class="cls-26" d="M18.33,2.53c.48.02.96-.01,1.43,0l.08,1.29h1.57l.04,1.73,1.59.02v1.73l1.33.08c0,.59,0,1.19,0,1.78,0,.57-.08,1.16-.08,1.73l-1.02.04c0-.65,0-1.29,0-1.94l-.75.02s-.08-.08-.08-.1c-.01-.19.02-.38,0-.57-.01-.12-.08-.06-.08-.1-.02-.2.01-.41,0-.61-.01-.21.05-.54-.06-.59h-.8s0-.03,0-.04c0-.09.02-.6-.02-.63-.19-.02-.66.03-.75,0-.04-.01-.01-.12-.02-.12-.02-.09.03-.51-.02-.55-.03-.02-.59.02-.73,0-.02-.14-.06-.27-.04-.41-.05-.08-.1-.05-.16-.06-.17-.03-.59.03-.82,0l-.04-.04-.02-.86c-.4,0-.8,0-1.2,0,.06-.23.08-.71-.04-.67-.44-.06-.89-.04-1.33-.04-.34,0-2.58-.04-2.69.04-.05.04,0,.53-.02.63-.09,0-.64.04-.67.1l-.06.73c-.2.01-.41-.01-.61,0,0-.07.02-.37-.02-.39-.19,0-.38,0-.57,0v-.8l.76-.02.04-.71h1.69l.06-.75c1.37,0,2.71.02,4.08.08Z"/>
      <path class="cls-16" d="M14.25,2.45l-.06.75h-1.69l-.04.71-.76.02v.8c-.09,0-.47-.01-.49,0-.05.03,0,.35-.02.43-.12.01-.38.06-.59.08-.41.05-.51-.17-.47.43,0,0,.01.08-.02.08-.09,0-.62-.02-.65.02.14,1.25-.4.57-.51.82-.04.09.06.61-.04.84-.1,0-.68-.02-.71.02,0,.24,0,.48,0,.73-.35.03-.69-.11-.63.2,0-.01-.12-.1.02-.24.92.07.41-.11.63-.78l.65-.02c.03-.79-.18-.86.55-.86.05-.69-.08-.72-.08-.76,0,0,.08.01.08-.02,0-.58,0-1.16,0-1.74.04,0,.04-.04.08-.04.2,0,1.34.1,1.43.04l.02-1.41s.08,0,.12,0c.42,0,.85,0,1.27,0,.03,0,.05-.08.06-.08.61-.01,1.23,0,1.84,0Z"/>
      <path class="cls-70" d="M18.33,2.53c-1.36-.06-2.71-.08-4.08-.08-.61,0-1.23-.01-1.84,0-.05-.2-.12-.87.1-.94.28-.09,5.02.14,5.8.04l.02.98Z"/>
      <g>
        <path class="cls-68" d="M25.3,5.51c.23,0,.26.04.27.04,0,.12,0,.24,0,.35,0,.17-.02.3,0,.47.03.23-.1.25.27.24,0,.02.11.09.12.16.02.14-.01.32,0,.47-.04,0-.19.08-.2.08-.03,0-.47-.03-.63-.04-.03-.72-.21-.38-.27-.53-.02-.06.02-1.11.04-1.24.13,0,.26,0,.39,0Z"/>
        <path class="cls-51" d="M24.56,5.51c.12,0,.24,0,.35,0-.02.12-.06,1.18-.04,1.24.07.15.25-.19.27.53-.11,0-.72.02-.75-.02v-1.71c.07,0,.08-.04.16-.04Z"/>
      </g>
      <path class="cls-51" d="M22.13,2.49c0,.43.08.86.04,1.29-.09,0-.6.02-.63-.02v-1.2c.1-.15.36-.05.59-.08Z"/>
      <path class="cls-99" d="M26.36,8.14c0,.33.14.68.08,1.02-.22,0-.45-.04-.67-.04v-.94l.59-.04Z"/>
      <path class="cls-99" d="M26.36,8.14l-.59.04v-.86s.16-.07.2-.08c.14.03.26-.02.39-.04.12.31,0,.64,0,.94Z"/>
      <path class="cls-13" d="M23.5,5.55c-.08,0-.4.02-.43-.02,0-.29,0-.59,0-.88.63-.08.39.09.43.9Z"/>
      <path class="cls-16" d="M9.35,5.71s.13.08.08.76c-.73,0-.52.08-.55.86l-.65.02c-.22.67.29.85-.63.78-.14.13-.02.22-.02.24-.02.64-.08.44-.08.47h-.82c0-.48,0-.95,0-1.43l1.33-.08.04-1.61,1.29-.02Z"/>
      <g>
        <path class="cls-16" d="M6.72,10.69c0,.37.06.77.08,1.14.01.26-.02.53,0,.78,0,.11,0,.22,0,.33.03.04.14.01.2.02.02.14-.03.92,0,.96.04.05.49,0,.59.02,0,.01,0,.03,0,.04-.01.28,0,.56,0,.84.05.1.41.05.63.06.03,0,.05,0,.08,0l.02.71c.24,0,.48-.01.73,0,.01,0,.03,0,.04,0,.02.14-.02.69,0,.73.04.05.46,0,.55.02,0,.01,0,.03,0,.04,0,.3-.04.66.06.75.25,0,.51,0,.76,0,.2,0,.39,0,.59,0,.01,0,.03,0,.04,0v.78c-.48.02-1.04,0-1.33.16h-1.63l-.02-1.67c-.03-.07-1.46-.14-1.41.06,0,0-.08-.06-.08-.12-.02-.49.02-.98,0-1.47l-1.33-.04c.02-1.38-.02-2.76,0-4.14h1.45Z"/>
        <path class="cls-26" d="M6.64,9.2l.12.12c.04.45-.04.92-.04,1.37h-1.45c.02-1.47-.38-1.65,1.37-1.49Z"/>
      </g>
      <g>
        <path class="cls-68" d="M5.97,16.33v1.55l.71.02v.63s-.08,0-.12,0c-.25,0-.51.01-.76,0-.03,0,0-.07-.06-.08.04-.27-.06-.19-.35-.2-.01-.12-.06-.27-.08-.39l.04-1.51s.54-.02.63-.02Z"/>
        <path class="cls-10" d="M6.6,16.33c0,.06.08.11.08.12.02.48-.01.97,0,1.45l-.71-.02v-1.55c.21,0,.42,0,.63,0Z"/>
      </g>
      <path class="cls-66" d="M3.86,11.2c0,.61-.01,1.23,0,1.84l-.59-.04c0-.6.05-1.21.04-1.8h.55Z"/>
      <g>
        <path class="cls-68" d="M6.01,5.82v1.49c-.23,0-.47,0-.71,0h-.04c0-.22,0-.45,0-.67,0-.01,0-.03,0-.04.25.07.13-.25.16-.71.17-.02.34-.06.51-.08.03,0,.05,0,.08,0Z"/>
        <path class="cls-86" d="M6.68,5.78c-.03.48-.02.99,0,1.47-.03.1-.46.05-.67.06v-1.49c.19-.03.11-.08.12-.08.13-.02.42-.01.55.04Z"/>
      </g>
      <path class="cls-87" d="M3.86,13.04c.01.49,0,1.04.04,1.53-.86.19-.61-.16-.63-1.57l.59.04Z"/>
      <path class="cls-10" d="M3.82,9.71c-.01.28.04,1.07.04,1.49h-.55c0-.08-.18-.87-.04-1.49.18,0,.37,0,.55,0Z"/>
      <g>
        <path class="cls-68" d="M8.6,2.65c.08,0,.16,0,.24,0v1.29c-.2,0-.39,0-.59,0v-1.25s.06-.03.35-.04Z"/>
        <path class="cls-84" d="M9.5,2.61c.01.43-.01.86,0,1.29-.04,0-.04.04-.08.04-.2,0-.39,0-.59,0v-1.29s.19-.08.2-.08c.02,0,.17.07.47.04Z"/>
      </g>
      <path class="cls-99" d="M5.27,7.31h.04c-.08.41-.02.84-.04,1.25-.2.02-.48-.03-.67,0,.07-.41.04-.84.04-1.25h.63Z"/>
      <path class="cls-59" d="M4.6,8.57c.19-.03.46.02.67,0,0,.21.04.58-.06.63-.27.04-.54-.04-.8-.04.01-.12-.02-.54,0-.57.03-.04.14-.01.2-.02Z"/>
      <g>
        <path class="cls-97" d="M7.27,3.98l.04,1.73h-.55c0-.05,0-.1,0-.16.03-.51-.02-1.03,0-1.55.03-.04.42-.01.51-.02Z"/>
        <path class="cls-10" d="M7.74,3.98v1.73c-.14.01-.29-.01-.43,0l-.04-1.73c.3-.02.39,0,.47,0Z"/>
        <path class="cls-74" d="M8.01,4.02v1.63c-.07.1-.18.05-.27.06v-1.73c.23,0,.26.04.27.04Z"/>
      </g>
      <path class="cls-42" d="M7.5,8.84c-.01.15-.03.32-.04.47h-.71l-.12-.12c.06,0,.04-.17.04-.35h.82Z"/>
      <path class="cls-93" d="M8.68,24.1s.28.41-.12.45c.11.72-.32.41-.39.51-.02.03.02.4,0,.43-.04.06-.26-.03-.31.08-.17.38.32.38-.59.47.03.27-.04.39-.04.41-.5-.09-.49.22-.27.27.12,1.06-.47.05-.35,1.08-1.03.05-.48.33-.65.45-.04.03-.41-.04-.45.02-.03.04.03.59,0,.63-.04.06-.36-.02-.43.04-.06.05-.02.64-.04.67-.1.14-.26-.24-.31.29,0,.1.04.46-.06.51-.39.18-.51-.48-.57.78-.42-.07-.52.1-.31.39,0,0-.11.09-.12.1-.32.54.49.13.43.57-.03.1-.1.07-.16.08-.51.08-.21-.24-.37-.31-.12-.05-.66.08-.69-.02v-2.84s.04-.04.08-.04c.46-.02.92.03,1.37-.02v-1.73l1.49-.12v-1.67s.08,0,.12,0c.44,0,.89.02,1.33-.02l-.04-1.43c.1,0,.07-.04.08-.04.46-.02.92.01,1.37,0Z"/>
      <path class="cls-25" d="M10.68,26.02l.02.94-1.04.06v1.22s-1.02,0-1.18.02c-.06-1.8.09-1.15.29-1.29.15-.11-.33-.34.57-.37-.1-.97.39-.03.27-1.22.91.03.39-.19.59-.65.07.99-.26,1.42.47,1.29Z"/>
      <path class="cls-51" d="M7.97,29.98v2.02c-.03.09-.63.05-.75.06l.04-2.02c.05-.11.46-.04.71-.06Z"/>
      <path class="cls-34" d="M5.15,32.02c-.1-.02-.13.04-.16.04-.27,0-.55-.08-.82-.04,0-.02-.08-.39-.08-.43,0-.19,0-.36,0-.39.06-1.26.17-.61.57-.78.1-.05.05-.41.06-.51v2.06c.14,0,.29.05.43.06Z"/>
      <path class="cls-83" d="M1.39,30.13c-.01.4.01.81,0,1.22h-.63c-.01-.4-.07-.81-.04-1.22.22,0,.44,0,.67,0Z"/>
      <path class="cls-83" d="M6.44,32.06c-.06,1.22.29,1.33-.63,1.25,0-.41,0-.82,0-1.24.03-.04.53-.02.63-.02Z"/>
      <path class="cls-10" d="M10.25,27.04v1.24s-.35.01-.43.02c-.04,0-.08,0-.12,0v-1.24s.47-.02.55-.02Z"/>
      <path class="cls-1" d="M4.99,32.06l-.02.63c-.83-.05-1.03.2-1.04-.35.06-.01.13.02.16-.08-.03-.16.07-.13.08-.24.27-.04.55.03.82.04Z"/>
      <path class="cls-99" d="M1.39,31.35c0,.22,0,.44,0,.67-.03.01-.09.11-.12.12-.1.03-.35-.05-.39.04l-.16-.1c-.04-.24.05-.49.04-.73h.63Z"/>
      <path class="cls-51" d="M5.93,24.61c0,.33,0,.65,0,.98-.04,0-.08,0-.12,0-.2,0-.39,0-.59,0,0-.31,0-.63,0-.94l.71-.04Z"/>
      <path class="cls-51" d="M4.37,26.29c0,.31,0,.61,0,.92-.05.1-.41.05-.63.06v-1.06c.21,0,.67-.1.63.08Z"/>
      <g>
        <path class="cls-68" d="M7.97,21.08c.02.1-.03.16-.04.24-.03.39.02.79,0,1.18-.21,0-.42,0-.63,0,0-.03-.13.2-.08-.63.38.07.18-.24.2-.39,0-.02.05-.15.06-.35.13.03.25-.02.37-.04.04,0,.08,0,.12,0Z"/>
        <path class="cls-96" d="M7.42,21.47c-.02.16.19.46-.2.39,0-.13-.21-.46.2-.39Z"/>
        <g>
          <path class="cls-51" d="M8.64,21.23c.04.21-.03.84,0,1.16l-.1.1c-.2,0-.41,0-.61,0,.02-.39-.03-.79,0-1.18.31-.07.56.18.71-.08Z"/>
          <path class="cls-13" d="M8.44,21.08s.09,0,.14,0c.08.05.05.1.06.16-.15.26-.39,0-.71.08,0-.08.06-.14.04-.24.01,0,.03,0,.04,0,.12,0,.33-.01.43,0Z"/>
        </g>
      </g>
      <path class="cls-69" d="M4.41,15.67c0,.12,0,.24,0,.35-.45.1-.51.11-.47-.35.1.02.33-.02.47,0Z"/>
      <path class="cls-96" d="M8.91,30.37c-.11-.09-.11-.29-.04-.43.06,0,.29-.02.31.02.02.02-.02.55-.27.41Z"/>
      <g>
        <path class="cls-68" d="M4.6,7.12c0,.16.04.18.04.2,0,.42.03.84-.04,1.25-.05,0-.17-.02-.2.02-.02.03.01.45,0,.57-.16,0-.33,0-.49,0-.1.07-.04.18-.06.27h-.94c0-.12-.02-.75.02-.78.28,0,.56-.05.84-.08.14-.01.35.04.39-.06-.04-.73.17-.92-.35-.84,0-.09-.02-.52.02-.55h.76Z"/>
        <path class="cls-60" d="M3.41,8.76c.31-.22.46.34.27.43-.37.19-.33-.39-.27-.43Z"/>
      </g>
      <path class="cls-37" d="M11.82,24.68c.03,1.03-.23.49-.39.47.13.04.06-.2.08-.47.1,0,.21,0,.31,0Z"/>
      <path class="cls-25" d="M9.74,18.06l.04,1.61c-.57,0-1.16.03-1.73-.04,0-.5,0-1.01,0-1.51l-1.37-.02v-.2c-.01-.48.02-.97,0-1.45-.04-.2,1.39-.13,1.41-.06l.02,1.67h1.63Z"/>
      <g>
        <path class="cls-10" d="M11.07,1.51v1.02s-.08,0-.12,0c-.17,0-.34,0-.51,0l-.04-1.02c.22-.02.45,0,.67,0Z"/>
        <path class="cls-68" d="M10.4,1.51l.04,1.02h-.39v-1s.28-.01.35-.02Z"/>
      </g>
      <path class="cls-53" d="M10.05,2.06v.47h-.51s-.17.06-.04-.47c.18,0,.37,0,.55,0Z"/>
      <path class="cls-94" d="M9.5,2.06c-.13.53.04.44.04.47,0,.04-.04.04-.04.08-.3.03-.45-.04-.47-.04v-.55c.17,0,.31.03.47.04Z"/>
      <path class="cls-25" d="M7.23,24.14l.04,1.43c-.44.04-.89.01-1.33.02,0-.33,0-.65,0-.98,0-.21-.02-.43.04-.43.24,0,.47-.03.71-.04.18,0,.37,0,.55,0Z"/>
      <path class="cls-68" d="M8.01,21.04c-.13-.54.04-.56.04-.59.54-.15.51.8-.04.59Z"/>
      <path class="cls-67" d="M7.23,26.45s.2.4-.27.27c-.22-.06-.22-.36.27-.27Z"/>
      <path class="cls-30" d="M20.68,7.55s.03.08.06.08c.26,0,.52-.04.76-.04.28,0,.58.08.86.04.01.2-.02.41,0,.61,0,.03.07-.03.08.1-.66-.13-.6-.11-.63.71l-1.1.02c.03,1.74-.04,3.48,0,5.22,0,.2.07.45.08.65,0,.24,0,.48,0,.73-.06.13-.54,0-.59.08-.02.03-.02.75,0,.78.04.05.56,0,.67.02-.04.07-.59.04-.71.04-.23,0-1.4-.09-1.49,0l-.1.75c-.78-.02-.33-.22-.57-.55-.01-.02.02-.1-.02-.12-.04-.02-.21,0-.29,0-.06,0-.13,0-.2,0-.03,0-.05,0-.08,0v-.55s.26-.05.27-.1v-.76c.13.17.47.04.51.04.26,0,.54.08.8.04l.06-.75c.16,0,.32.01.47,0,.12-.01.25.04.31-.06-.03-.42.03-.88,0-1.29,0-.04-.12-.01-.12-.02-.02-.2.03-.9,0-.96l-.98-.06v-.57c-.07-.1-.33-.05-.59-.06-.17,0-.34,0-.51,0,0-.03-.04-.04-.04-.08.58.02.74.07.51-.55l.04-.04c.71.08.85.21.78-.59.16-.01.35-.02.51-.04.06,0,.21.02.24-.02,0-.22,0-.43,0-.65,0-.16,0-.31,0-.47.01-.27.03-.55.04-.82,0-.25,0-.5,0-.75.31,0,.63-.01.94,0Z"/>
      <g>
        <path class="cls-12" d="M21.82,9.04c-.06,1.88.13,3.8.04,5.69-.05,0-.12.03-.18.04-.03.03-.02.09-.02.16h-.86c0-.2-.07-.45-.08-.65-.04-1.74.03-3.48,0-5.22l1.1-.02Z"/>
        <path class="cls-10" d="M22.44,8.33c.02.19-.01.38,0,.57,0,.02.08.09.08.1.06,1.17-.05,2.36,0,3.53v1.1s-.1.05-.16.06v1.02c-.03.09-.35,0-.51.02.09-1.89-.1-3.8-.04-5.69.03-.81-.03-.83.63-.71Z"/>
      </g>
      <path class="cls-10" d="M21.66,14.92c0,.21.09.5.04.73-.13.3-1.02-.5-.82.88-.1-.02-.63.03-.67-.02-.02-.03-.02-.75,0-.78.05-.07.53.05.59-.08,0-.24,0-.48,0-.73h.86Z"/>
      <path class="cls-2" d="M18.68,17.27c-.01.23-.07.47-.04.71-.51.01-1.02,0-1.53,0,0-.06-.01-.1-.08-.12.01-.19,0-.4,0-.59.16,0,.31,0,.47,0,.05,0,.1,0,.16,0,.32,0,.47.25.35-.51.24.33-.21.53.57.55l.1-.75c0,.23.01.47,0,.71Z"/>
      <path class="cls-98" d="M23.27,12.53v1.1c-.13,0-.71,0-.75,0v-1.1h.75Z"/>
      <path class="cls-3" d="M20.17,16.57l-.02.71-.84.04s0-.03,0-.04c.01-.22.02-.43.04-.65l-.67-.06c.09-.09,1.26,0,1.49,0Z"/>
      <path class="cls-45" d="M17.11,17.98c.01.23,0,.46,0,.69-.03.04-.14.01-.2.02-.27.04-.48-.04-.51-.04l.04-.67c.1,0,.63-.04.59-.12.07.02.07.06.08.12Z"/>
      <path class="cls-10" d="M19.31,17.27s0,.03,0,.04c-.01.21,0,.43,0,.65-.03.04-.57.02-.67.02-.03-.24.03-.47.04-.71h.63Z"/>
      <path class="cls-37" d="M13.86,17.94c.52,0,1.05,0,1.57,0,.13,0,.26,0,.39,0,.21,0,.43.04.63.04l-.04.67c-.87.03-1.72.05-2.59.04.12-1.17-.36-.51-.59-.75h.63Z"/>
      <path class="cls-57" d="M13.15,17.16c0,.08.05.76.08.78.23.23.71-.43.59.75-.59,0-1.19,0-1.78,0l-.02-.75c.7-.04.31-.12.47-.78.22.01.45,0,.67,0Z"/>
      <path class="cls-4" d="M11.89,17.12c0,.26,0,.52,0,.78-.27,0-.55-.01-.82,0v-.78c.27,0,.55,0,.82,0Z"/>
      <path class="cls-59" d="M12.44,17.12c.05,0,.04.04.04.04-.16.66.23.75-.47.78,0,0,.03-.04-.12-.04,0-.26,0-.52,0-.78.18,0,.37,0,.55,0Z"/>
      <path class="cls-17" d="M23.27,10.92c0,.54,0,1.07,0,1.61h-.75c-.05-1.17.06-2.36,0-3.53l.75-.02c0,.65,0,1.29,0,1.94Z"/>
      <path class="cls-10" d="M19.78,5.24c.04.28-.04.58-.04.86l-.94.02c-.03.48.02.95.04,1.43,0,.1,0,.21,0,.31-.83-.06-.52.11-.55.39-.02.16-.07.35-.08.51h-.53c-.1.08-.02.26-.02.27-.01.14.04.28-.06.35-.16-.02-.4.03-.53,0-.01,0-.04-.07-.2-.06,0-.12,0-.25,0-.37-.02-.29.03-.59,0-.88-.06-.04-.51-.02-.63-.02-.04-.83.55-.32.67-.49.16-.23-.45-.85.67-.75v-.78c.19,0,.4-.05.59-.06.05,0,.18.04.25.04.03,0,0-.08.06-.08.03,0-.11.14.47.06v-.76c.24.03.65-.03.82,0Z"/>
      <path class="cls-71" d="M19.97,5.71c.01.08-.03.44.02.47.31-.01.43-.02.69.08.03.28-.07.6.08.71-.1-.03-.07.33-.08.59-.31-.01-.63,0-.94,0,0-.49,0-.96,0-1.45,0-.28.08-.58.04-.86.05.01.1-.02.16.06-.03.14.02.27.04.41Z"/>
      <g>
        <path class="cls-80" d="M16.33,3.63c.12.21-.07,0-.22.63.21-.03,1.47.04,1.53,0,.05-.04,0-.49.02-.59.12-.04.1.44.04.67-.33,0-.65,0-.98,0-.24,0-.47,0-.71,0-.1,0-.21,0-.31,0-.63,0-1.56-.06-2.08-.04.02-.1-.03-.59.02-.63.11-.08,2.34-.04,2.69-.04Z"/>
        <path class="cls-17" d="M17.66,3.67c-.02.1.03.55-.02.59-.06.04-1.32-.03-1.53,0,.14-.63.34-.42.22-.63.44,0,.89-.02,1.33.04Z"/>
      </g>
      <path class="cls-10" d="M20.76,6.96l.75.04s0,.03,0,.04v.55c-.25,0-.51.05-.76.04-.03,0-.05-.08-.06-.08.01-.25-.02-.62.08-.59Z"/>
      <path class="cls-25" d="M22.36,7.63c-.29.04-.58-.04-.86-.04v-.55h.8c.1.05.04.37.06.59Z"/>
      <path class="cls-36" d="M21.5,7l-.75-.04c-.15-.1-.05-.43-.08-.71.01,0,.03,0,.04,0,0,0-.02.1.02.12.09.03.55-.02.75,0,.04.03.02.54.02.63Z"/>
      <path class="cls-29" d="M11.7,4.73c.19,0,.38,0,.57,0,.04.03.02.33.02.39-.36.03-.74,0-1.1.04.01-.08-.03-.4.02-.43.02-.01.4,0,.49,0Z"/>
      <path class="cls-68" d="M18.91,5.2l.04.04v.76c-.58.09-.44-.06-.47-.06v-.71c.14-.01.28-.07.43-.04Z"/>
      <path class="cls-96" d="M20.72,6.25s-.03,0-.04,0c-.26-.1-.38-.09-.69-.08-.05-.03,0-.39-.02-.47.14.02.69-.02.73,0,.05.04,0,.46.02.55Z"/>
      <path class="cls-26" d="M8.21,8.18s.04.16.04.47c0,.26,0,.52,0,.78,0,1.33,0,2.67,0,4-.03,0-.32-.07-.61-.04-.1.08-.05.31-.06.55-.1-.02-.55.03-.59-.02-.03-.04.02-.82,0-.96.61.09.49-.1.51-.31.02-.27,0-.55,0-.82.01-.78-.06-1.85-.04-2.51,0-.15.03-.32.04-.47,0-.03.06.17.08-.47-.06-.3.28-.17.63-.2Z"/>
      <path class="cls-5" d="M12.29,5.12c0,.15-.11.46,0,.73-.03.04-.1.01-.16.02-.16.02-.4,0-.59,0-.16,0-.31,0-.47,0-.58.01-.19.02-.31.41-.02.06-.1.02-.12.14-.04.25-.01.43-.02.67h-1.02c-.1.07-.05.23-.06.39-.17,0-.34,0-.51,0,0,0,.03-.04-.12-.04.1-.24,0-.75.04-.84.11-.26.65.42.51-.82.03-.04.55-.02.65-.02.03,0,.02-.08.02-.08.07,0,.58.5.47-.43.21-.02.47-.07.59-.08.36-.03.73-.01,1.1-.04Z"/>
      <path class="cls-25" d="M10.05,2.53h.39c.17,0,.34,0,.51,0l-.02,1.41c-.09.06-1.23-.04-1.43-.04-.01-.43.01-.86,0-1.29,0-.04.04-.04.04-.08h.51Z"/>
      <path class="cls-62" d="M10.6,5.24c.11.93-.4.43-.47.43-.04-.6.06-.39.47-.43Z"/>
      <path class="cls-71" d="M12.48,15.7v.71s-.03,0-.04,0c-.09,0-.52-.03-.55.02,0,.23,0,.46,0,.69-.27,0-.55,0-.82,0-.01,0-.03,0-.04,0,.11-.24,0-.5,0-.75,0-.02.05,0,.04-.39.21-.28.78.25.82-.27.2,0,.39,0,.59,0Z"/>
      <path class="cls-59" d="M8.99,14.88c-.24,0-.47,0-.71,0-.03,0-.05,0-.08,0,.18-.22.04-.62.04-.9,0-.03.07-.3.04-.55.25.01.7-.05.75.06.04.46-.04.93-.04,1.39Z"/>
      <path class="cls-41" d="M8.25,13.98c0,.28.14.68-.04.9-.22,0-.58.04-.63-.06,0-.28-.01-.56,0-.84h.67Z"/>
      <path class="cls-73" d="M10.44,16.41v.71c-.25,0-.51,0-.76,0-.1-.09-.06-.44-.06-.75.25-.06.67.1.82-.08,0,.04,0,.08,0,.12Z"/>
      <path class="cls-3" d="M10.21,15.63c.08.01.17-.03.24.06,0,.2,0,.41,0,.61-.16.18-.58.02-.82.08,0-.01,0-.03,0-.04,0-.11.07-.44,0-.71.19.02.41-.02.59,0Z"/>
      <path class="cls-28" d="M8.99,14.88c0,.22.08.47.04.71-.24-.01-.48,0-.73,0l-.02-.71c.24,0,.47,0,.71,0Z"/>
      <path class="cls-3" d="M11.03,16.37c0,.24.11.5,0,.75-.2,0-.39,0-.59,0v-.71l.59-.04Z"/>
      <path class="cls-44" d="M9.58,15.59l.04.04c.07.26,0,.6,0,.71-.09-.02-.51.03-.55-.02-.02-.03.02-.59,0-.73.17,0,.34,0,.51,0Z"/>
      <path class="cls-91" d="M8.25,13.43s.03,0,.04,0c.04.25-.04.52-.04.55h-.67s0-.03,0-.04c.01-.23-.05-.47.06-.55.29-.03.58.04.61.04Z"/>
      <g>
        <path class="cls-25" d="M7.46,9.31c-.03.66.05,1.73.04,2.51h-.71c-.02-.37-.08-.77-.08-1.14,0-.45.08-.92.04-1.37h.71Z"/>
        <path class="cls-44" d="M7.5,11.82c0,.27.02.55,0,.82l-.71-.04c-.02-.26.01-.52,0-.78h.71Z"/>
        <path class="cls-29" d="M7.5,12.65c-.01.22.1.4-.51.31-.05,0-.17.02-.2-.02,0-.11,0-.22,0-.33l.71.04Z"/>
      </g>
      <path class="cls-8" d="M4.09,31.59s.08.41.08.43c-.01.1-.11.08-.08.24.06-.44-.75-.03-.43-.57,0,0,.11-.1.12-.1.09-.04.22.05.31,0Z"/>
      <path class="cls-9" d="M4.09,31.19s0,.2,0,.39c-.09.05-.23-.04-.31,0-.21-.29-.11-.46.31-.39Z"/>
      <path class="cls-39" d="M18.25,9.08s0,.03,0,.04c0,.11-.06.35-.08.71-.02.55.08.48.08.51,0,.03-.12-.14-.08.55l-.04.04c-.16-.03-.35-.05-.51-.04-.16,0-.33,0-.49,0,0,.34-.09.37-.1.39-.07.01-.28-.03-.31.02-.02.02.01.24,0,.33-.1,0-.21,0-.31,0-.02,0-.03-.07-.33-.04,0,.49-.09.41-.1.43h-.51c0-.14,0-.89,0-.94.83.07.46-.17.55-.29.04-.05.22.03.27-.08.07-.16-.35-.41.73-.33.04-.03.02-.57.02-.67,0-.17-.02-.32.04-.31.13.03.37-.02.53,0,.1-.07.05-.21.06-.35l.59.04Z"/>
      <path class="cls-68" d="M18.17,11.55v.84c.06.14.48.02.59.02.21,0,.47-.02.67,0v.82c-.21.03-.41.07-.63.08-.17,0-.34,0-.51,0,0,0-.08.01-.08-.02,0-.22.04-.64-.06-.69h-1s-.08.01-.08-.02c-.01-.33.04-.67-.04-1,.01,0,.03,0,.04,0,.19,0,.4-.04.59-.04.17,0,.34,0,.51,0Z"/>
      <path class="cls-24" d="M17.11,14.65c.18,0,.56.04.59.04v1.31s-.23.09-.27.1c-.02,0-.33-.08-.43-.04,0-.01,0-.03,0-.04,0-.44,0-.89,0-1.33.03,0,.03-.04.12-.04Z"/>
      <path class="cls-68" d="M19.7,9.12c0,.16,0,.31,0,.47h-.73s-.1.22-.1.24h-.71c.01-.35.07-.6.08-.71h1.45Z"/>
      <path class="cls-47" d="M19.66,13.2h.08s.11-.02.12.02c.03.41-.03.88,0,1.29-.07.1-.19.05-.31.06v-.84s-.07-.01-.08-.02c-.14-.09-.42,0-.49-.04-.12-.08.17-.32-.18-.35.21,0,.42-.05.63-.08.08-.01.15-.06.24-.04Z"/>
      <g>
        <path class="cls-12" d="M19.74,8.29c0,.28-.03.55-.04.82h-1.45s0-.03,0-.04c.01-.26-.04-.3-.04-.31.01-.16.06-.35.08-.51.18.04.38-.04.55-.04.05,0,.08.08.1.08.26,0,.54-.08.8,0Z"/>
        <path class="cls-12" d="M19.74,7.55c0,.25,0,.5,0,.75-.26-.08-.54,0-.8,0-.02,0-.05-.08-.1-.08,0-.12,0-.24,0-.35,0-.1,0-.21,0-.31h.9Z"/>
      </g>
      <path class="cls-10" d="M18.91,14.57c.05,0,.1,0,.16,0l-.06.75c-.27.04-.54-.03-.8-.04,0-.17,0-.34,0-.51-.06-.29.24-.18.71-.2Z"/>
      <path class="cls-68" d="M19.46,13.7s.06-.02.08.02v.84c-.15.01-.32,0-.47,0-.05,0-.1,0-.16,0,.02-.14-.02-.81,0-.84.04-.05.46,0,.55-.02Z"/>
      <path class="cls-55" d="M18.76,12.18v.24c-.11,0-.53.12-.59-.02v-.84c.25,0,.51-.04.59.06v.57Z"/>
      <path class="cls-24" d="M18.95,10.29c.07.8-.07.66-.78.59-.04-.69.08-.52.08-.55.23-.04.47-.02.71-.04Z"/>
      <path class="cls-87" d="M19.7,9.59c0,.21,0,.43,0,.65-.03.04-.18.01-.24.02.02-.17-.42-.03-.49-.08-.05-.03,0-.23-.02-.29,0-.03-.08,0-.08-.06,0-.01.06-.22.1-.24h.73Z"/>
      <path class="cls-13" d="M18.87,9.82c0,.06.07.03.08.06.01.06-.03.26.02.29.07.05.51-.09.49.08-.16.02-.35.03-.51.04-.23.02-.47,0-.71.04,0-.03-.1.04-.08-.51h.71Z"/>
      <path class="cls-88" d="M17.62,10.88c.01.19-.02.4,0,.59,0,.04.04.04.04.08-.19,0-.4.03-.59.04-.05-.08-.05-.22-.04-.31,0-.02.1-.05.1-.39.16,0,.33,0,.49,0Z"/>
      <path class="cls-59" d="M18.17,14.61c0,.2.04.15.04.16,0,.17,0,.34,0,.51-.04,0-.38.13-.51-.04v-.55s-.12-.12.47-.08Z"/>
      <path class="cls-59" d="M18.13,10.92c.23.62.07.57-.51.55-.02-.19.01-.4,0-.59.16,0,.35,0,.51.04Z"/>
      <path class="cls-71" d="M19.74,13.2h-.08v-.76c-.13-.07-.19-.02-.24-.02-.19-.02-.46,0-.67,0v-.24l.98.06c.03.07-.02.76,0,.96Z"/>
      <path class="cls-12" d="M17.42,16.65s.05,0,.08,0v.63c-.16,0-.31,0-.47,0,0-.03,0-.05,0-.08.01-.17.04-.38.08-.55.1,0,.21,0,.31,0Z"/>
      <path class="cls-56" d="M17.42,16.1v.55c-.1,0-.21,0-.31,0-.03,0-.05,0-.08,0-.02-.19-.04-.39-.04-.59.11-.04.41.04.43.04Z"/>
      <path class="cls-74" d="M18.01,16.76c.11.76-.03.51-.35.51l.04-.63c.09,0,.26-.02.29,0,.04.02,0,.1.02.12Z"/>
      <path class="cls-10" d="M17.7,16.65l-.04.63c-.05,0-.1,0-.16,0v-.63c.06,0,.13,0,.2,0Z"/>
      <path class="cls-74" d="M16.56,17.12s-.04.12.47.08c0,.03,0,.05,0,.08,0,.19.01.39,0,.59.04.08-.48.12-.59.12-.2,0-.42-.04-.63-.04.02-.26.07-.56.08-.82.21.02.46-.02.67,0Z"/>
      <path class="cls-75" d="M19.31,17.27h-.63c.01-.23,0-.47,0-.71l.67.06c-.02.22-.03.43-.04.65Z"/>
      <path class="cls-13" d="M13.86,17.82v.12h-.63s-.08-.7-.08-.78c0-.22.08-.46.04-.69.98-.28.6.16.67,1.35Z"/>
      <path class="cls-68" d="M15.38,17.12l.04.82c-.52,0-1.05,0-1.57,0v-.12c.9.16.68-.02.71-.71h.82Z"/>
      <path class="cls-55" d="M15.93,16.65c-.17.08-.04.43-.04.47,0,.26-.06.56-.08.82-.13,0-.26,0-.39,0l-.04-.82v-.47c.19,0,.36,0,.55,0Z"/>
      <path class="cls-74" d="M14.44,15.74c.06,0,.07.01.12.04,0,.27,0,.55,0,.82,0,.17,0,.34,0,.51-.02.68.2.87-.71.71-.07-1.2.31-1.64-.67-1.35.04.23-.03.46-.04.69-.22,0-.45.01-.67,0,0,0,.01-.04-.04-.04v-.71s.03,0,.04,0c.1,0,.64.02.67-.02.02-.03-.02-.52,0-.65.01,0,.03,0,.04,0,.26,0,.53-.04.78-.04.05,0,.32.03.47.04Z"/>
      <path class="cls-47" d="M12.44,16.41v.71c-.18,0-.37,0-.55,0,0-.23,0-.46,0-.69.03-.05.46-.02.55-.02Z"/>
      <path class="cls-51" d="M14.72,10.84c.06.54-.14,1.37.16,1.65-.02.09.01.22,0,.31-.32.05-.33-.16-.31.39-.03,0-.31.08-.55.04,0-.21-.06-.48-.06-.71h-.71c-.11.05-.05,1.16-.06,1.37-.01.32-.08.92-.08,1.18-.1.02-.55-.03-.59.02-.02.03.02.48,0,.61-.01,0-.03,0-.04,0-.2,0-.39,0-.59,0,0-.03-.06-.49-.06-.67h-.8l-.08-.08v-2.02c1.22.05.64-.26.8-.37.04-.03.52.03.59,0,.2-.09-.23-.55.49-.49-.09-.93.83.39.63-1.25.07-.1.35-.06.61-.06.03,0,.02-.08.02-.08.06,0,.03.08.06.08.17,0,.5,0,.57.08Z"/>
      <path class="cls-10" d="M15.82,8.92l-.08.76c.13.14.48.02.51.02.26,0,.52,0,.78,0,0,.1.02.64-.02.67-1.08-.08-.65.18-.73.33-.05.11-.24.02-.27.08-.09.12.28.37-.55.29,0-.01-.05-.1-.06-.27h-.65l-.04-1.22c.57-.06.12-.55.29-.67.75.04.57-.08.61-.08.05,0-.03.08.2.08Z"/>
      <path class="cls-10" d="M11.07,6.69v.88c.06.02.14-.02.27-.02.11.2.97-.13.71.45-.07.16-.9-.02-.96.02-.12.09.21.47-.33.47,0-.32,0-.64,0-.96l-.8-.06-.06,1.14c-.1,0-.21,0-.31,0-.06-.25-.04-.5-.04-.75,0-.13,0-.26,0-.39.01-.16-.04-.32.06-.39h1.02c0-.24-.02-.42.02-.67.06.32.11.28.43.27Z"/>
      <path class="cls-68" d="M11.54,5.86c.03.83-.19.87.47.82-.02.18.03.78,0,.84-.03.07-.35.03-.67.02-.14,0-.21.04-.27.02v-1.71c.16,0,.31,0,.47,0Z"/>
      <path class="cls-55" d="M10.87,14.96s.05,0,.08,0l.08.08c-.05.45.04.87.04.94.01.38-.04.37-.04.39l-.59.04s0-.08,0-.12c0-.2,0-.41,0-.61-.06-.09-.15-.05-.24-.06-.01-.61-.14-.79.67-.67Z"/>
      <path class="cls-68" d="M10.76,8.49s-.04.04-.04.08c-.21-.03-.42.03-.63.04-.06,0-.13,0-.2,0l.06-1.14.8.06c0,.32,0,.64,0,.96Z"/>
      <path class="cls-68" d="M10.87,14.96c-.8-.12-.68.05-.67.67-.18-.02-.4.02-.59,0l-.04-.04c-.17-1.29.68.02.65-1.22.68.02.79-.18.65.59Z"/>
      <path class="cls-13" d="M9.58,8.61c.1,0,.21,0,.31,0,.06,0,.13,0,.2,0v.75c-.29,0-.58-.05-.88-.04,0,0-.14.08-.18.08v-.82c.18-.01.38.03.55.04Z"/>
      <path class="cls-68" d="M14.72,9.59l.04,1.22-.04.04c-.07-.07-.4-.07-.57-.08-.03,0,0-.08-.06-.08v-1.04c.05-.11.41-.04.63-.06Z"/>
      <g>
        <path class="cls-48" d="M8.91,7.43c.15,0,.11.04.12.04v1.18h-.78c0-.31-.04-.45-.04-.47,0-.24,0-.48,0-.73.03-.04.6-.02.71-.02Z"/>
        <path class="cls-44" d="M9.03,8.65v.75c-.25.02-.54-.04-.78.04,0-.26,0-.52,0-.78h.78Z"/>
      </g>
      <path class="cls-10" d="M10.72,8.57c0,.12.1.69.04.76-.22.03-.45.02-.67.02v-.75c.2,0,.42-.07.63-.04Z"/>
      <path class="cls-51" d="M12.13,5.86c.06,1.07-.11.78-.12.82-.66.05-.44,0-.47-.82.18,0,.43.02.59,0Z"/>
      <g>
        <path class="cls-68" d="M16.72,4.33l-.02,1.53h-1.02c.02-.26.02-.52.02-.78.48.2.37-.31.31-.75.24,0,.47,0,.71,0Z"/>
        <path class="cls-10" d="M16.01,4.33c.06.44.16.95-.31.75,0-.25-.02-.5,0-.75.1,0,.21,0,.31,0Z"/>
      </g>
      <path class="cls-10" d="M18.48,5.24v.71c-.06,0-.03.08-.06.08-.07,0-.2-.04-.25-.04v-.76c.18-.07.3.02.31.02Z"/>
      <g>
        <path class="cls-6" d="M15.7,4.33c-.02.25,0,.5,0,.75,0,.26,0,.52-.02.78h1.02l.02-1.53c.33,0,.65,0,.98,0,.4,0,.8,0,1.2,0l.02.86c-.15-.03-.29.03-.43.04-.02,0-.13-.09-.31-.02v.76c-.19.01-.39.06-.59.06v.78c-1.12-.1-.5.51-.67.75-.12.17-.71-.34-.67.49-.08,0-.16,0-.24,0-.07,0-.36-.02-.39.02v.76s.14.12-.61.08c-.17.12.27.61-.29.67-.22.02-.58-.05-.63.06v1.04s.01.08-.02.08c-.26,0-.53-.04-.61.06.2,1.65-.72.32-.63,1.25-.72-.06-.29.4-.49.49-.07.03-.55-.03-.59,0-.16.11.41.42-.8.37v2.02s-.05,0-.08,0c.14-.77.03-.57-.65-.59.04,1.24-.81-.08-.65,1.22-.17,0-.34,0-.51,0-.01,0-.03,0-.04,0,.04-.23-.04-.48-.04-.71,0-.46.08-.93.04-1.39-.05-.1-.5-.05-.75-.06-.01,0-.03,0-.04,0,0-1.33,0-2.67,0-4,.24-.08.53-.02.78-.04.04,0,.17-.08.18-.08.3-.01.59.04.88.04.22,0,.45.01.67-.02.06-.08-.04-.64-.04-.76,0-.04.04-.04.04-.08.55,0,.21-.38.33-.47.06-.04.89.14.96-.02.26-.58-.59-.25-.71-.45.31.01.63.05.67-.02.03-.06-.02-.67,0-.84,0-.05.17.24.12-.82.06,0,.13.02.16-.02-.11-.27,0-.58,0-.73.2-.01.41.01.61,0l.06-.73c.02-.05.57-.09.67-.1.52-.02,1.45.04,2.08.04Z"/>
        <g>
          <path class="cls-68" d="M11.27,9.67c-.02.29.02.46.35.39.47-.09-.33-.82.75-.61v1.76l-1.22.04c.09-1.7-.19-1.12-.27-1.25-.02-.03-.07-.47.39-.33Z"/>
          <path class="cls-74" d="M9.8,11.39l1.12.02-.02,1.47-1.12-.02.02-1.47Z"/>
          <path class="cls-55" d="M11.62,10.06c-.33.07-.38-.11-.35-.39,0-.08-.03-.23.06-.27.49-.21.53.4.29.67Z"/>
          <g>
            <path class="cls-68" d="M15.07,6.22c.25,0,.43-.04.39.08.02.44,0,.89-.02,1.33h-1.41c-.1-.08-.05-.38-.06-.67,1.05.01.32-.33.71-.75.13,0,.26,0,.39,0Z"/>
            <path class="cls-24" d="M14.68,6.22c-.39.42.35.76-.71.75,0-.23,0-.46,0-.69.02-.05.54-.09.63-.1,0,0-.02.04.08.04Z"/>
            <path class="cls-10" d="M15.07,5.86v.35c-.13,0-.26,0-.39,0-.1,0-.07-.04-.08-.04-.07-.47.13-.36.47-.31Z"/>
          </g>
          <path class="cls-6" d="M15.46,6.29c.04-.12-.14-.07-.39-.08v-.35c.15.02.32-.05.39.06.04.06,0,.31,0,.37Z"/>
        </g>
      </g>
      <path class="cls-68" d="M19.74,6.1c0,.49,0,.96,0,1.45h-.9c-.02-.48-.07-.95-.04-1.43l.94-.02Z"/>
      <g>
        <path class="cls-74" d="M16.01,8.06c.54-.02.07.68.35.9-.08,0-.09.04-.12.04-.02,0,.16-.07-.43-.08-.22,0-.14-.08-.2-.08v-.76s.32-.02.39-.02Z"/>
        <path class="cls-97" d="M16.25,8.06c.12,0,.57-.02.63.02.03.29-.02.59,0,.88-.17-.01-.34,0-.51,0-.28-.22.19-.93-.35-.9.08,0,.16,0,.24,0Z"/>
        <path class="cls-68" d="M16.87,8.96c0,.12,0,.25,0,.37.15-.01.19.06.2.06-.06,0-.04.15-.04.31-.26,0-.52,0-.78,0v-.71s.04-.04.12-.04c.17,0,.34-.01.51,0Z"/>
      </g>
      <path class="cls-87" d="M18.83,7.86c0,.12,0,.24,0,.35-.17,0-.37.08-.55.04.03-.28-.28-.45.55-.39Z"/>
      <path class="cls-56" d="M18.21,8.76s.05.06.04.31l-.59-.04s-.08-.2.02-.27h.53Z"/>
      <path class="cls-55" d="M11.07,5.86v.82c-.32,0-.37.05-.43-.27.02-.12.1-.08.12-.14.12-.39-.26-.4.31-.41Z"/>
      <path class="cls-20" d="M9.54,7.47c0,.13,0,.26,0,.39l-.51.04v-.43c.17,0,.34,0,.51,0Z"/>
      <path class="cls-68" d="M9.54,7.86c0,.25-.02.5.04.75-.17,0-.37-.05-.55-.04v-.67l.51-.04Z"/>
      <path class="cls-68" d="M11.89,15.7c-.04.53-.62,0-.82.27,0-.07-.09-.49-.04-.94h.8c0,.18.06.63.06.67Z"/>
      <path class="cls-88" d="M13.15,15.74c-.02.13.02.62,0,.65-.03.04-.56.01-.67.02v-.71s.03,0,.04,0c.21,0,.41.04.63.04Z"/>
      <path class="cls-68" d="M15.46,11.08s0,.8,0,.94c0,.1,0,.2,0,.29-.02.05-.24.09-.31.1-.02,0-.24-.12-.27.08-.3-.28-.1-1.11-.16-1.65l.04-.04h.65c.01.18.06.26.06.27Z"/>
      <path class="cls-30" d="M15.97,12.02c-.03.2.02.49,0,.71-.44.05-.1.03-.29.55-.35-.01-.71.02-1.06,0-.03,0-.05-.08-.06-.08-.02-.55,0-.34.31-.39.27-.04.3.15.27-.39.07-.01.29-.05.31-.1,0-.1,0-.2,0-.29h.51Z"/>
      <path class="cls-47" d="M17.03,11.59c.08.33.03.67.04,1,0,.03.08.02.08.02,0,.03-.04.03-.04.12-.03,0-.05-.03-.08-.04-.21-.11-.38.08-.59-.04,0-.33-.08-.68-.04-1.02.1,0,.21,0,.31,0,.03,0,.12-.03.31-.04Z"/>
      <path class="cls-33" d="M16.4,11.63c-.04.34.04.69.04,1.02,0,.04-.04.04-.04.08h-.04c-.13.01-.27-.01-.39,0,.02-.22-.03-.51,0-.71,0-.02.09.05.1-.43.31-.03.32.04.33.04Z"/>
      <path class="cls-2" d="M17.03,11.27c-.01.09-.01.23.04.31-.01,0-.03,0-.04,0-.2,0-.29.04-.31.04.01-.09-.02-.31,0-.33.03-.05.25,0,.31-.02Z"/>
      <path class="cls-56" d="M18.29,13.31s-.08-.06-.08.47c-.46-.09-.96.09-1.1-.08,0-.33,0-.65,0-.98,0-.08.04-.09.04-.12h1c.1.04.05.46.06.69,0,.03.08.02.08.02Z"/>
      <path class="cls-13" d="M18.8,13.31c.35.03.06.27.18.35.07.05.35-.05.49.04-.09.02-.51-.03-.55.02-.02.03.02.7,0,.84-.47.02-.77-.09-.71.2,0,0-.04.04-.04-.16,0-.27.04-.55.04-.82,0-.53.08-.45.08-.47.17,0,.34,0,.51,0Z"/>
      <path class="cls-13" d="M19.66,13.2c-.09-.02-.15.03-.24.04v-.82s.11-.05.24.02v.76Z"/>
      <path class="cls-39" d="M15.82,14.61c.09,0,.6-.01.63.02.1.61-.33,1.85.55,1.39,0,.01,0,.03,0,.04,0,.19.02.39.04.59-.38-.01-.45.04-.47.04-.2,0-.42-.04-.63-.04-.19,0-.36,0-.55,0-.28,0-.55,0-.82-.04,0-.27,0-.55,0-.82,0-.04.04-.04.04-.08h.51l.63-.06c.04-.23-.03-.46-.04-.69,0-.02.06-.07.04-.31,0-.05.03-.04.08-.04Z"/>
      <path class="cls-10" d="M16.48,14.1c-.09.58-.04.56.51.59,0,.44,0,.89,0,1.33-.87.46-.45-.78-.55-1.39-.02-.03-.54-.02-.63-.02-.27-.63.11-.51.67-.51Z"/>
      <path class="cls-86" d="M18.21,13.78c0,.27-.04.56-.04.82-.59-.04-.44.08-.47.08-.03,0-.41-.04-.59-.04.04-.25-.04-.52-.04-.55,0-.02.04-.06.04-.39.13.16.63-.02,1.1.08Z"/>
      <path class="cls-47" d="M17.07,14.1s.07.3.04.55c-.08,0-.09.04-.12.04-.55-.03-.6,0-.51-.59.2,0,.39,0,.59,0Z"/>
      <path class="cls-55" d="M17.03,16.65s.05,0,.08,0c-.04.17-.07.38-.08.55-.51.04-.45-.08-.47-.08v-.43s.09-.05.47-.04Z"/>
      <path class="cls-10" d="M16.56,16.68v.43c-.21-.02-.45.02-.67,0,0-.04-.13-.39.04-.47.21,0,.42.04.63.04Z"/>
      <path class="cls-83" d="M15.38,16.65v.47h-.82c0-.17,0-.34,0-.51.27.04.55.04.82.04Z"/>
      <path class="cls-47" d="M15.97,12.72c.12-.01.27.01.39,0,.18,1.21-.63-.06-.65,1.18l-1.12.04c-.06.34,0,.69,0,1.02,0,.25,0,.5,0,.75,0,.04-.04.04-.04.08-.05-.03-.06-.04-.12-.04.16-.56.23-.96-.47-.75,0-.37,0-.73,0-1.1,0-.22.04-.46.04-.67.24.04.52-.04.55-.04,0,0,.03.08.06.08.35.02.71-.01,1.06,0,.19-.52-.15-.5.29-.55Z"/>
      <path class="cls-39" d="M13.97,13.9c0,.37,0,.73,0,1.1v.71c-.25,0-.52.04-.78.04-.03-.2-.08-.47-.08-.67,0-.25.07-.85.08-1.18h.78Z"/>
      <path class="cls-10" d="M14.44,15.74c-.15,0-.42-.04-.47-.04v-.71c.7-.22.63.19.47.75Z"/>
      <path class="cls-59" d="M13.11,15.08c0,.19.05.47.08.67-.01,0-.03,0-.04,0-.21,0-.42-.03-.63-.04.02-.12-.02-.58,0-.61.04-.05.49,0,.59-.02Z"/>
      <path class="cls-68" d="M14.01,13.23c0,.21-.04.45-.04.67h-.78c0-.21-.05-1.33.06-1.37h.71c0,.22.05.49.06.71Z"/>
      <path class="cls-6" d="M15.15,12.41c.02.54,0,.35-.27.39.01-.1-.02-.22,0-.31.04-.2.26-.08.27-.08Z"/>
      <path class="cls-10" d="M16.25,9v.71s-.38.12-.51-.02l.08-.76c.59,0,.41.08.43.08Z"/>
      <path class="cls-7" d="M17.03,12.69c-.06,1.13.29,1.55-.63,1.27.03-.41,0-.82,0-1.24,0-.04.04-.04.04-.08.21.12.37-.07.59.04Z"/>
      <path class="cls-24" d="M17.11,12.72c0,.33,0,.65,0,.98,0,.33-.04.37-.04.39-.2,0-.39,0-.59,0-.55,0-.94-.12-.67.51-.04,0-.08-.01-.08.04,0,0-.08-.07-.08-.1-.04-.31.07-.57-.02-.61h-1.04l1.12-.04c.01-1.24.83.04.65-1.18h.04c0,.41.03.82,0,1.24.92.28.56-.15.63-1.27.03.01.05.03.08.04Z"/>
      <path class="cls-68" d="M15.74,14.65c.02.24-.04.3-.04.31h-1.1c0-.33-.06-.68,0-1.02h1.04c.09.04-.02.3.02.61,0,.03.08.09.08.1Z"/>
      <path class="cls-51" d="M15.7,14.96c0,.22.08.46.04.69l-.63.06-.04-.75h.63Z"/>
      <path class="cls-99" d="M15.07,14.96l.04.75h-.51c0-.25,0-.5,0-.75h.47Z"/>
    </g>
  </g>
</svg>