<?xml version="1.0" encoding="UTF-8"?>
<svg id="Layer_2" data-name="Layer 2" xmlns="http://www.w3.org/2000/svg" viewBox="0 0 30.92 29.33">
  <defs>
    <style>
      .cls-1 {
        fill: #54b8fe;
      }

      .cls-2 {
        stroke: #050406;
      }

      .cls-2, .cls-3, .cls-4, .cls-5 {
        stroke-width: 1.33px;
      }

      .cls-2, .cls-3, .cls-4, .cls-5, .cls-6 {
        fill: none;
        stroke-linecap: square;
        stroke-linejoin: round;
      }

      .cls-3 {
        stroke: #52b8ff;
      }

      .cls-7 {
        fill: #39a8e5;
      }

      .cls-8 {
        fill: #fff;
      }

      .cls-9 {
        fill: #b9b8ba;
      }

      .cls-4 {
        stroke: #050405;
      }

      .cls-10 {
        fill: #757478;
      }

      .cls-11 {
        fill: #2780db;
      }

      .cls-5 {
        stroke: #040405;
      }

      .cls-6 {
        stroke: #020204;
        stroke-width: 1.17px;
      }

      .cls-12 {
        fill: #ebf9ff;
      }

      .cls-13 {
        fill: #050405;
      }
    </style>
  </defs>
  <g id="Layer_1-2" data-name="Layer 1">
    <g id="Generative_Object" data-name="Generative Object">
      <g>
        <path class="cls-11" d="M28.61,20.24c-.39.13-1.29,1.31-1.54,1.71.03,0,.06,0,.09,0-.03,0-.06,0-.09,0l-8.84.06c-.02-.06-.93-.85-1.01-.87-.93-.23-3.94-.2-4.45.87l.04.06-.04-.06c-1.75.28-7.54-.55-8.85-.06-.18.07-.47.71-.95.82-.18.04-1.37.02-1.45-.09l-.07-2.44c.19-.01,1.1-.11,1.2-.16.04-.02.24-.57.59-.67h24.51l.86.84Z"/>
        <path class="cls-9" d="M18.96,25.4v3.27s-9.69,0-9.69,0c0-.33-.02-.67,0-1,0-.12-.02-.25,0-.36.04-.24,1.44-1.82,1.63-1.89.41-.15,1.42.09,1.9-.04l.06-.04c.02.06.84.86.9.87.16.05,3.18.05,3.36,0,.33-.08.72-.79,1.05-.87.04,0,.62.06.79.06Z"/>
        <path class="cls-9" d="M18.23,22c.04.12-.1,2.17-.1,2.55h-5.23c-.09-.82,0-1.67-.1-2.5l-.04-.06c.51-1.07,3.53-1.1,4.45-.87.08.02.99.81,1.01.87Z"/>
        <path class="cls-10" d="M18.12,24.56c0,.26-.05.54.04.78-.32.08-.71.79-1.05.87-.18.05-3.2.05-3.36,0-.06-.02-.88-.81-.9-.87l-.06.04.06-.04s.05-.58.03-.78h5.23Z"/>
        <path class="cls-10" d="M18.97,28.67v-3.27c.23,0,.95-.04,1.1.02.1.04,1.52,1.46,1.54,1.57.02.12-.02.27,0,.41.01.12,0,.24,0,.36,0,.3-.03.61.03.91h-2.68Z"/>
        <path class="cls-9" d="M29.45,20.22l-.07,2.45c-.62-.02-1.25.09-1.82-.18-.2-.1-.38-.53-.41-.54-.03,0-.06,0-.09,0,.25-.39,1.15-1.58,1.54-1.71.2-.07.61.01.84-.02Z"/>
        <g>
          <path class="cls-7" d="M29.45,20.22c-.24.03-.64-.05-.84.02l-.86-.84H3.23c-.35.09-.55.65-.59.67-.1.05-1.01.15-1.2.16-.22.01-.44.07-.66.09l-.19-.16.03-17.69c.19-.32,1.28-.24,1.54-.5.28-.28.11-1.21.56-1.38,2.46-.01,4.93.01,7.39,0,.09,1.29-.21,2.35.8,3.29h-.09c-.47,1.17-1.35.71-2.36.86.08.43-.11,1.27,0,1.63.03.12.71.64.73.73.03.2-.74.73-.82,1.09-.09.42-.14,6.15.14,6.31h13.89c.3-.13.26-6.28.14-6.58-.02-.04-.7-.41-.64-.68h-1.1c0-1.34.48-2.35-.63-3.36h-.09c.78-.83.87-1.26.68-2.45-.24-.17-3.88.2-4.36,0-.04-.02-.02-.72-.09-.84,3.98,0,7.97,0,11.95,0,.62,1.28.33,1.57,2.01,1.84l.06,17.61c-.11.32-.6.14-.88.18Z"/>
          <path class="cls-8" d="M24.38,4.7c.33.07,1.32-.1,1.54,0,.18.08.19,1.38.14,1.5-.12.27-1.39.08-1.68.14v-1.63Z"/>
          <path class="cls-12" d="M22.66,3.06h1.54c0,.44.33,1.47-.18,1.63-1.3.43-1.87-.39-1.36-1.63Z"/>
        </g>
      </g>
      <g>
        <path class="cls-6" d="M2.64,20.07c-.1.05-1.01.15-1.2.16-.22.01-.44.07-.66.09l-.19-.16.03-17.69c.19-.32,1.28-.24,1.54-.5.28-.28.11-1.21.56-1.38,2.46-.01,4.93.01,7.39,0,2.07-.01,4.14,0,6.21,0,3.98,0,7.97,0,11.95,0,.62,1.28.33,1.57,2.01,1.84l.06,17.61c-.11.32-.6.14-.88.18-.24.03-.64-.05-.84.02"/>
        <path class="cls-5" d="M3.91,21.95c1.3-.5,7.1.33,8.85.06l.04.06c.1.83.01,1.67.1,2.5.02.2-.05.75-.03.78l-.06.04c-.48.12-1.5-.11-1.9.04"/>
        <path class="cls-13" d="M20.95,27.77c.02-.2-.04-.76-.07-.96,0,0,1.32-.15,1.32-.15.03.26.09.83.08,1.09,0,0,0,.67,0,.67l-1.35.03v-.67h0Z"/>
        <path class="cls-13" d="M8.6,27.64c-.02-.26.06-.83.11-1.09,0,0,1.32.2,1.32.2l-.1.66c0,.19.02.76.02.96,0,0-1.36-.06-1.36-.06v-.67h.01Z"/>
        <polyline class="cls-4" points="7.45 28.67 9.27 28.67 18.97 28.67 21.65 28.67 23.61 28.67"/>
        <path class="cls-1" d="M9.27,6.58h12.98s.67,0,.67,0v1.33h-13.65c-.33,0-.65,0-.85-.01.04-.35.1-1.07.13-1.31.15,0,.53,0,.72,0h0Z"/>
        <path class="cls-3" d="M10.45,3.88h10.08"/>
        <path class="cls-2" d="M27.15,21.95s-.06,0-.09,0l-8.84.06c.04.12-.1,2.17-.1,2.55,0,.26-.05.54.04.78.04,0,.62.06.79.06.24,0,.96-.04,1.11.02"/>
      </g>
    </g>
  </g>
</svg>