<?xml version="1.0" encoding="UTF-8"?>
<svg id="Layer_2" data-name="Layer 2" xmlns="http://www.w3.org/2000/svg" xmlns:xlink="http://www.w3.org/1999/xlink" viewBox="0 0 25.78 25.97">
  <defs>
    <style>
      .cls-1 {
        fill: #857149;
      }

      .cls-1, .cls-2, .cls-3, .cls-4, .cls-5, .cls-6, .cls-7, .cls-8, .cls-9, .cls-10, .cls-11, .cls-12, .cls-13, .cls-14, .cls-15, .cls-16, .cls-17, .cls-18, .cls-19, .cls-20, .cls-21, .cls-22, .cls-23, .cls-24, .cls-25, .cls-26, .cls-27, .cls-28, .cls-29, .cls-30, .cls-31, .cls-32, .cls-33, .cls-34, .cls-35, .cls-36, .cls-37, .cls-38, .cls-39, .cls-40, .cls-41, .cls-42, .cls-43, .cls-44, .cls-45, .cls-46, .cls-47, .cls-48, .cls-49, .cls-50, .cls-51, .cls-52, .cls-53, .cls-54, .cls-55, .cls-56, .cls-57, .cls-58, .cls-59, .cls-60, .cls-61, .cls-62, .cls-63, .cls-64, .cls-65, .cls-66, .cls-67, .cls-68, .cls-69, .cls-70, .cls-71, .cls-72, .cls-73, .cls-74, .cls-75, .cls-76, .cls-77, .cls-78, .cls-79, .cls-80, .cls-81, .cls-82, .cls-83, .cls-84, .cls-85, .cls-86, .cls-87, .cls-88, .cls-89, .cls-90, .cls-91, .cls-92, .cls-93, .cls-94, .cls-95, .cls-96, .cls-97, .cls-98, .cls-99, .cls-100, .cls-101, .cls-102, .cls-103, .cls-104, .cls-105, .cls-106, .cls-107, .cls-108, .cls-109, .cls-110, .cls-111, .cls-112, .cls-113, .cls-114, .cls-115, .cls-116, .cls-117, .cls-118 {
        stroke-width: 0px;
      }

      .cls-2 {
        fill: #aefca7;
      }

      .cls-3 {
        fill: #4b2541;
      }

      .cls-4 {
        fill: #e7f3f1;
      }

      .cls-5 {
        fill: #bd479d;
      }

      .cls-6 {
        fill: url(#linear-gradient);
      }

      .cls-7 {
        fill: #3c234a;
      }

      .cls-8 {
        fill: #dd6a0c;
      }

      .cls-9 {
        fill: #bf7841;
      }

      .cls-10 {
        fill: #6bfcf8;
      }

      .cls-11 {
        fill: #fabf71;
      }

      .cls-12 {
        fill: #8a2c5b;
      }

      .cls-13 {
        fill: #dee36a;
      }

      .cls-14 {
        fill: #f9efc4;
      }

      .cls-15 {
        fill: #191e16;
      }

      .cls-16 {
        fill: #472230;
      }

      .cls-17 {
        fill: #f4eefa;
      }

      .cls-18 {
        fill: #bfe1ef;
      }

      .cls-19 {
        fill: #391505;
      }

      .cls-20 {
        fill: #e4fefd;
      }

      .cls-21 {
        fill: #9131b2;
      }

      .cls-22 {
        fill: #641524;
      }

      .cls-23 {
        fill: #d03c1a;
      }

      .cls-24 {
        fill: #ebe3dd;
      }

      .cls-25 {
        fill: #2a4827;
      }

      .cls-26 {
        fill: #7e2499;
      }

      .cls-27 {
        fill: #07d7e0;
      }

      .cls-28 {
        fill: #e89a13;
      }

      .cls-29 {
        fill: #c09805;
      }

      .cls-30 {
        fill: #1acafb;
      }

      .cls-31 {
        fill: #f8f2e2;
      }

      .cls-32 {
        fill: #b069c2;
      }

      .cls-33 {
        fill: #4d2468;
      }

      .cls-34 {
        fill: #da830d;
      }

      .cls-35 {
        fill: #6b3182;
      }

      .cls-36 {
        fill: #eac169;
      }

      .cls-37 {
        fill: #993185;
      }

      .cls-38 {
        fill: #201621;
      }

      .cls-39 {
        fill: #e8ab70;
      }

      .cls-40 {
        fill: #f7ed2f;
      }

      .cls-41 {
        fill: #ead3ed;
      }

      .cls-42 {
        fill: #e39de6;
      }

      .cls-43 {
        fill: #7224bb;
      }

      .cls-44 {
        fill: #99380b;
      }

      .cls-45 {
        fill: #f3dbe6;
      }

      .cls-46 {
        fill: #02c0cf;
      }

      .cls-47 {
        fill: #f5d684;
      }

      .cls-48 {
        fill: #813ac8;
      }

      .cls-49 {
        fill: #ecc7f1;
      }

      .cls-50 {
        fill: #bc490e;
      }

      .cls-51 {
        fill: #015453;
      }

      .cls-52 {
        fill: #e3e59a;
      }

      .cls-53 {
        fill: #62b3fb;
      }

      .cls-54 {
        fill: #3e0c33;
      }

      .cls-55 {
        fill: #daa2bf;
      }

      .cls-56 {
        fill: #f37423;
      }

      .cls-57 {
        fill: #0c4a37;
      }

      .cls-58 {
        fill: #faf8f7;
      }

      .cls-59 {
        fill: #c6272e;
      }

      .cls-60 {
        fill: #4f1613;
      }

      .cls-61 {
        fill: #d98664;
      }

      .cls-62 {
        fill: #0be1d6;
      }

      .cls-63 {
        fill: #29062e;
      }

      .cls-64 {
        fill: url(#linear-gradient-2);
      }

      .cls-65 {
        fill: #353b2d;
      }

      .cls-66 {
        fill: #262614;
      }

      .cls-67 {
        fill: #181517;
      }

      .cls-68 {
        fill: #073031;
      }

      .cls-69 {
        fill: #721a51;
      }

      .cls-70 {
        fill: #d6f025;
      }

      .cls-71 {
        fill: #03dbc1;
      }

      .cls-72 {
        fill: #c47198;
      }

      .cls-73 {
        fill: #efba2b;
      }

      .cls-74 {
        fill: url(#linear-gradient-3);
      }

      .cls-75 {
        fill: #d9d5df;
      }

      .cls-76 {
        fill: #e9b3e5;
      }

      .cls-77 {
        fill: #1b321c;
      }

      .cls-78 {
        fill: #f0e5fc;
      }

      .cls-79 {
        fill: #b03971;
      }

      .cls-80 {
        fill: #02abb9;
      }

      .cls-81 {
        fill: #211024;
      }

      .cls-82 {
        fill: #43164f;
      }

      .cls-83 {
        fill: #132416;
      }

      .cls-84 {
        fill: #ede181;
      }

      .cls-85 {
        fill: #810a15;
      }

      .cls-86 {
        fill: #f4fd98;
      }

      .cls-87 {
        fill: #b92a1a;
      }

      .cls-88 {
        fill: #c88d4e;
      }

      .cls-89 {
        fill: #e6c922;
      }

      .cls-90 {
        fill: #21150c;
      }

      .cls-91 {
        fill: #d8fecb;
      }

      .cls-92 {
        fill: #9f3dce;
      }

      .cls-93 {
        fill: #66175c;
      }

      .cls-94 {
        fill: #ec7c09;
      }

      .cls-95 {
        fill: #058381;
      }

      .cls-96 {
        fill: #fae4ab;
      }

      .cls-97 {
        fill: #d1798a;
      }

      .cls-98 {
        fill: #291c0b;
      }

      .cls-99 {
        fill: #9b2d35;
      }

      .cls-100 {
        fill: #a01f1b;
      }

      .cls-101 {
        fill: #c06a0d;
      }

      .cls-102 {
        fill: #ab8cd1;
      }

      .cls-103 {
        fill: #f3874b;
      }

      .cls-104 {
        fill: #dd4e18;
      }

      .cls-105 {
        fill: #c062b4;
      }

      .cls-106 {
        fill: #cf6a36;
      }

      .cls-107 {
        fill: #13c3b8;
      }

      .cls-108 {
        fill: #a742b2;
      }

      .cls-109 {
        fill: #371918;
      }

      .cls-110 {
        fill: #d73c39;
      }

      .cls-111 {
        fill: #cb7de6;
      }

      .cls-112 {
        fill: #413121;
      }

      .cls-113 {
        fill: #161714;
      }

      .cls-114 {
        fill: #ecc29e;
      }

      .cls-115 {
        fill: #bf57db;
      }

      .cls-116 {
        fill: #0db296;
      }

      .cls-117 {
        fill: #64120c;
      }

      .cls-118 {
        fill: #e1585c;
      }
    </style>
    <linearGradient id="linear-gradient" x1="13.39" y1="17.74" x2=".8" y2="19.7" gradientUnits="userSpaceOnUse">
      <stop offset="0" stop-color="#ab1523"/>
      <stop offset=".82" stop-color="#831820"/>
    </linearGradient>
    <linearGradient id="linear-gradient-2" x1="7.85" y1="13.37" x2="6.85" y2="14.68" gradientUnits="userSpaceOnUse">
      <stop offset="0" stop-color="#d0550c"/>
      <stop offset="1" stop-color="#cd3714"/>
    </linearGradient>
    <linearGradient id="linear-gradient-3" x1="23.81" y1="19.54" x2="22.81" y2="19.77" gradientUnits="userSpaceOnUse">
      <stop offset="0" stop-color="#19100f"/>
      <stop offset="1" stop-color="#280c0a"/>
    </linearGradient>
  </defs>
  <g id="Layer_1-2" data-name="Layer 1">
    <g>
      <path class="cls-58" d="M12.88,25.54c.43,0,.86,0,1.28,0,.2,0,.4.03.59.04-.08.11,0,.33-.06.36-.13.09-2.89-.07-3.3,0-.13-.06.06-.29-.2-.36.06,0,.12,0,.18,0,.2,0,.4-.04.59-.04.31,0,.61,0,.92,0Z"/>
      <path class="cls-72" d="M21.02,2.74h-.92c-.02-.05.03-.22-.02-.25-.06-.04-1.1.04-1.3,0-.01,0-.02,0-.04,0,.02-.08-.05-.35.06-.4.1-.04,1.85.03,2.16,0l.06.65Z"/>
      <path class="cls-97" d="M6.68,2.12v.36c-.46.01-.92.07-1.38.04-.02.27-.05.24-.06.25h-.04c-.27.03-.45-.04-.48-.04l.06-.62c.63-.02,1.26.03,1.89,0Z"/>
      <path class="cls-58" d="M24.98,4.88c-.49-.03-.34.04-.37.4-.69.18-.7-.7,0-.56v-1.03c.14.02.36-.04.4.05.04.38-.04.77-.04,1.14Z"/>
      <path class="cls-58" d="M24.54,3.65c-.37-.03-.97.01-1.41,0-.03,0-.05-.07-.06-.07l-.04-.25s-.05-.05.13-.11c.93.07,1.64-.25,1.38.44Z"/>
      <path class="cls-58" d="M1.1,4.08c-.14.42.17.97-.29.87,0-.16-.09-1.03-.04-1.11.02-.03.3-.03.31-.02.04.03.01.2.02.25Z"/>
      <g>
        <path class="cls-73" d="M5.29,2.99c0,.1,0,.19,0,.29-.02.39-.06.78-.04,1.18,0,.03.07.01.07.02,0,.04-.07.47-.04.74.12-.01.65.06.68.05.01,0,.04-.1.06-.11.57,0,1.15-.08,1.72-.04.02.13-.02.64,0,.67.02.02.37.03.39.02.05-.03,0-.51.02-.63,0-.03.07,0,.07-.05,0-.01,0-.02,0-.04h.04c.27.12.1-.07.59-.11.5-.04.72.15.66-.31.27.02.09-.35.15-.44,0,0,.21-.09.22-.09.06,0,.98.08,1.25.04,0,.01.04.04.04.25,0,.22,0,.44,0,.65-.11,0-.19.11-.2.11-.02,0-.25-.07-.33-.04-.12.06.14.28-.59.22.1,1.01-.49.52-.61.67,0,.01.09.18,0,.29-.07.09-.3.03-.33.07-.03.04.03.43,0,.53,0,.02.02.06-.06.11-2.02.12-1.24-.3-1.43-.44-.09-.06-1.99.06-2.13,0-.12-.05-.01-.39-.07-.44-.06-.04-1.3-.04-1.36,0-.02.01-.09.43,0,.47.18.03,1.3-.04,1.36,0,.06.04-.02.4.04.44.05.03.95-.03,1.03,0,.22.1-.3.6.59.47.04.03.01.29.02.36-1.54.09-.93-.18-1.08-.29-.03-.02-.35.02-.4,0-.09-.04-.03-.16-.07-.18-.05-.03-.73.03-.77,0-.16-.11.42-.36-.79-.36,0-.13,0-.25,0-.38-.11-.13-.35-.02-.37-.02-.86-.01-.37-.21-.53-.33-.03-.02-.44.02-.48,0-.06-.04.02-.43-.04-.47-.03-.02-.71.02-.84,0-.09-.04-.05-.26-.06-.4.18.03,1.32,0,1.38.04.06.04-.02.43.04.47.04.03,1.05.01,1.08-.05.3-.66-.79-.34-.9-.42-.06-.04.02-.47-.04-.51-.06-.04-1.32.03-1.52,0,0-.29-.06-.58-.04-.87,0-.01,0-.02,0-.04,0-.01,0-.02,0-.04.29.03,1.62-.04,1.71,0,.12.05.01.39.07.44.05.04,1.19-.06,1.36,0,.08-.03.07-.43.06-.45-.03-.04-.23-.01-.29-.02-.31-.02-.98.06-1.03-.05-.26-.58.68-.43,1.01-.38l.02-.58c.24,0,.49-.07.73-.04Z"/>
        <path class="cls-59" d="M.7,5.57c-.01.52,0,1.1,0,1.63-.01-.08-.14-.03-.15.02-.07.27.18,4.81.07,5.58,0,.03.07.01.07.02,0,.03,0,.04.04.04,0,.36,0,.73,0,1.09l-.15.02c.04,1.73-.01,3.46.04,5.18,0,.03.07.05.07.05,0,.01,0,.02,0,.04-.18-.07-.44,0-.48-.05-.06-.08-.06-1.73-.07-1.99,0-.03-.07,0-.07-.04-.04-.77.06-4.04,0-4.28,0-.03-.05-.02-.07-.02,0-2.42-.02-4.85.04-7.27l.66-.02Z"/>
        <path class="cls-58" d="M14.53.64c.08.36-.4.27-.42.25-.17-.12.31-.36-.39-.4-.39-.02-1.17-.02-1.58,0-.87.03-.31.15-.48.38-.06.08-.28-.17-.22.38-.02,0,.09.15-.22.11-.21-.03-.42.03-.62.04-.45.02-.83-.06-.86-.04-.05.03,0,.17-.02.2-.11.15-.16-.08-.18.2,0,.1.02.66-.02.69-.29,0-.57.02-.86.04-.04,0-.07,0-.11,0-.01-.14.52-.05.9-.07.14-.9-.09-.64-1.23-.62v-.76c1.03,0,2.07-.07,3.1-.04.07-.26-.02-.34-.02-.36.06-.49.39.13.46-.62.29.05,2.22-.07,2.31,0,.05.04,0,.42.02.45.07.1.37-.12.44.16Z"/>
        <path class="cls-100" d="M.7,19.23c0,.1,0,.19,0,.29-.4-.21-.44.4-.04.29,0,.03.07.12.07.13.01.36-.04.72-.04,1.07l-.66.13C0,18.38,0,15.62,0,12.85c.02,0,.07,0,.07.02.06.24-.04,3.51,0,4.28,0,.03.07,0,.07.04.01.26.02,1.91.07,1.99.04.05.3-.02.48.05Z"/>
        <path class="cls-96" d="M8.55,2.49c-.18,0-.37.03-.55.04-.43.01-.88-.05-1.32-.04v-.36s.02,0,.04,0c.1,0,.25-.06.35,0,.05-.03.08-.23.09-.29,0-.01,0-.02,0-.04.27,0,.54,0,.81,0,.09,0,.17,0,.26,0,1.14-.03,1.37-.29,1.23.62-.37.03-.91-.07-.9.07Z"/>
        <path class="cls-58" d="M3.38,3.57c.14.1.05.33.09.51l1.08-.04c.06,0,.27-.02.29.02.01.02.02.42-.06.45-.17-.06-1.3.04-1.36,0-.06-.05.04-.38-.07-.44-.08-.04-1.41.03-1.71,0,.01-.13.07-.27.04-.42.18-.01.17-.05.18-.05.29-.06.77-.01,1.1-.04.14-.01.33.02.4,0Z"/>
        <path class="cls-117" d="M11.3.64s.09.1.02.36c-1.03-.04-2.07.03-3.1.04-.01,0-.02-.06-.22-.04.01-.07-.02-.33.02-.36h3.28Z"/>
        <path class="cls-87" d="M1.65,4.12s0,.02,0,.04c-.19.14.01,1.16-.07,1.32-.03.06-.45.08-.5.05-.1-.05.04-1.21.02-1.45l.55.04Z"/>
        <path class="cls-117" d="M3.01,2.78c-.19.21.27.21.53.22.19,0,1.54,0,1.61-.04.07-.03.06-.12.06-.18h.04s.05.05.04.22c-.24-.03-.49.03-.73.04-.35.01-.71.03-1.06.04-.5.01-.55-.3-.51.51-.33.03-.81-.03-1.1.04-.26-.5.62-.2.75-.29.05-.03,0-.17.02-.2.06-.1.24-.03.28-.05.07-.05-.07-.23.09-.29Z"/>
        <path class="cls-44" d="M5.21,2.78c0,.06.02.15-.06.18-.07.03-1.43.04-1.61.04-.26-.01-.72,0-.53-.22.08-.03,1.5-.04,1.72-.04.02,0,.21.07.48.04Z"/>
        <path class="cls-85" d="M7.89,1.14l.07.65c-.27,0-.54,0-.81,0,.06-.73-.12.11.39-.11.12-.05.02-.48.06-.53.03-.04.23,0,.29-.02Z"/>
        <path class="cls-19" d="M8.22,1.04v.76c-.09,0-.17,0-.26,0l-.07-.65c.13-.03.09-.04.11-.15.2-.02.21.04.22.04Z"/>
        <path class="cls-4" d="M7.16,1.83c0,.06-.04.26-.09.29-.1-.06-.25,0-.35,0-.15-.42.13-.35.44-.29Z"/>
        <g>
          <path class="cls-100" d="M1.65,4.15c-.02.29.03.58.04.87,0,.14-.05.31-.04.47,0,.14-.04.36.06.4.13.02.81-.02.84,0,.06.04-.02.43.04.47.03.02.44-.02.48,0,.16.11-.33.32.53.33-.05.2.05.67.04.8,0,.04-.05.24-.09.25-.22.04-1.58-.05-1.65,0-.02.02-.03.54-.02.56.03.04.4.01.48.02.02.16-.42.02-.48.09-.01.02,0,.4.02.42.17.12.52-.11.55-.11.15-.01.98.03,1.01-.02,0-.01-.04-.3-.06-.31-.08-.06-.96.1-1.01-.07.33.01.76-.03,1.05,0,.03,0,.05.07.06.07,0,.12,0,.24,0,.36-.34.1-.71,0-1.05.04-.03,0-.01.11-.02.11-.09.02-.52-.03-.55.02-.03.04.03.41,0,.47-.05.12-.39.01-.44.07-.01.02.04.35.04.42,0,.02,0,.05,0,.07,0,.34,0,.69,0,1.03.08.17.15.05.18.05.11.02.21.06.33.04.1.88-.26.36-.4.67-.03.07.04.84,0,1.05l-.84.05s-.04,0-.04-.04c.11-1.87-.01-3.75,0-5.62,0-.53-.01-1.11,0-1.63,0-.19.03-.4.04-.6,0-.03.07-.01.07-.02.46.1.15-.45.29-.87.02.24-.12,1.4-.02,1.45.05.02.46,0,.5-.05.09-.16-.12-1.19.07-1.32Z"/>
          <path class="cls-100" d="M2.09,11.08v.58c-.06,0-.42.04-.44.09,0,.25,0,.5,0,.74,0,.12,0,.24,0,.36-.02.87-.01,1.75.04,2.61,0,.11,0,.23,0,.34.02.03.27.02.33.02.02.6-.14.7.4.65.14-.03.04.2.07.29.05.13.26.07.37.04.02,0,.04.01.04.04-.12,0-.35.03-.4.11-.07.09-.02.19-.06.22-.03.02-.59-.02-.72,0-.07.01-.13-.03-.18.05.06.75-.1.63-.11.67-.03.19-.03.35-.04.54,0,.1,0,.65.04.69.06.06.29.05.37.04.01,0,.02,0,.04,0-.21.15-.75-.03-1.1.04,0-1.75.03-3.51,0-5.26,0-.36,0-.73,0-1.09l.84-.05c.04-.21-.03-.99,0-1.05.14-.31.5.21.4-.67h.11Z"/>
        </g>
        <path class="cls-89" d="M9.25,8.79c-.03.67.07.35.11.36,0,0-.01.07.02.07.2.02,2.01.02,2.26,0v.04c-.5-.09-.29.21-.33.65,0,0-.07-.01-.07.02-.04.53,0,.36.66.38.01.19,0,.39,0,.58,0,.38.06,2.85,0,2.99-.04.1-.28.04-.37.05,0,0,0-.04-.04-.04,0-.19.01-.39,0-.58-.04-.6.02-1.18,0-1.78,0-.12.02-.81-.02-.83-.21.02-.81-.03-.9,0-.16-.02-.02-.61-.09-.98h-1.16c.04-.78-.31-.27-.51-.47.56.02.53-.56-.04-.44v-.04c.17,0,.29-.08.48,0Z"/>
        <path class="cls-89" d="M11.41,18.22c.02.53-.04.93.48.76,0,.52.05,3.79-.04,3.97-.04.09-.16.03-.18.07-.01.02.17.37.07.51-.02.03-.29.03-.33,0-.03-.02.08-.66-.02-.71-.39-.2-.41.28-.44.29-.29.13-.33-.1-.35-.33,0-.03.08-.53.04-.6-.05-.07-.45-.2-.33.6-.39,0-.78,0-1.17,0-.1-.21,0-.44,0-.65.67-.02,1.35.04,2.02-.04.07,0,.37.02.4-.02.03-.29-.04-.64-.04-.67,0-.25,0-.48,0-.73,0-.16,0-.31,0-.47-.01-.38,0-.76,0-1.14-.03-.04-.33-.01-.4-.02-.02,0-.05,0-.07,0,.04-.74-.18-.9.37-.83Z"/>
        <path class="cls-59" d="M12.62,8.39c.07-.01.15,0,.22,0-.03.16,0,1.31,0,1.7,0,.39,0,.77-.02,1.16-.86-.07-.9.28-.94-.36,0-.19.01-.39,0-.58,0-.11,0-.23,0-.34,0-.02-.24-.09-.26-.09v-.65c.08,0,.25.03.29-.05.04-.09-.06-.25,0-.34.96-.05.21-.36.7-.44Z"/>
        <path class="cls-73" d="M11.89,15.36c0,.88-.03,1.77-.04,2.65l-.4-.04c0-.24,0-.48,0-.73,0-.64,0-1.28,0-1.92.14,0,.32-.02.44.04Z"/>
        <path class="cls-23" d="M11.52,13.94c.11.08.33,0,.37.05.04.06,0,1.18,0,1.36-.12-.06-.3-.04-.44-.04-.08,0-.17.02-.26.04,0-.01-.03-.03-.04-.18,0-.11,0-.22,0-.33,0-.29,0-.58,0-.87l.33-.07s.03.03.04.04Z"/>
        <path class="cls-28" d="M5.07,20.14c-.37-.11-.33.25-.29.31.03.04.12-.02.22.05.1.6-.27.37-.33.45-.15.21.18.25.33.27.02.22.04.54-.28.4-.11-.05-.01-.36-.07-.4-.15-.1-.63.3-.57-.47,0-.02.11.08.07-.25.07,0,.13.03.18-.05.01-.11-.02-.24,0-.34.33.06.78-.21.73.04Z"/>
        <path class="cls-50" d="M9.14,21.81c0,.11,0,.22,0,.33,0,.21-.1.44,0,.65-.15,0-.29,0-.44,0-.02-.1.03-.62-.02-.65-.02-.02-.57.01-.53.11,0,0-.06-.06-.07-.07.25-.14.1-.22.17-.33.02-.04.83-.21.06-.36,0,0-.01-.03.04-.04.07-.01.15-.03.22-.04.04,0,.31-.04.33-.04.38.02.14.18.26.44Z"/>
        <path class="cls-89" d="M3.23,19.78c-.1-.05-.09.47-.07.73h-.97s-.01-.65-.02-.76c.55.09.99-.04,1.05-.04.03,0,.01.07.02.07Z"/>
        <path class="cls-110" d="M.74,13.94c.03,1.75,0,3.51,0,5.26h-.04s-.07-.03-.07-.05c-.05-1.72,0-3.46-.04-5.18l.15-.02Z"/>
        <path class="cls-8" d="M3.23,19.78c.16,0,.32,0,.48,0v.07c-.02.21.02.44,0,.65,0,.09.01.21,0,.25-.01.04-.08-.01-.17.22-.43.06-.35-.07-.39-.47-.02-.26-.02-.78.07-.73Z"/>
        <path class="cls-28" d="M11.85,18c0,.32.04.65.04.98-.52.17-.46-.23-.48-.76,0-.01.04-.04.04-.25l.4.04Z"/>
        <path class="cls-94" d="M5.51,20.97c.71-.03.25.2.48.62-.11,0-.06.07-.09.07-.82.04-.13-.39-.61-.47l.15-.22s.05,0,.07,0Z"/>
        <path class="cls-104" d="M7.85,21.84c.1.51.15.26.22.33.12.48-.8.6-.62-.33h.4Z"/>
        <path class="cls-34" d="M10.6,22.79h-.29c-.12-.8.28-.67.33-.6.05.06-.04.57-.04.6Z"/>
        <path class="cls-8" d="M5.43,20.94s.08-.01.07.04c-.02,0-.05,0-.07,0-.17.03-.33.05-.26.25-.06,0-.12,0-.18,0-.15-.02-.48-.07-.33-.27.06-.09.43.14.33-.45.29.2-.28.41.44.44Z"/>
        <path class="cls-58" d="M7.85,21.59c.02.06-.01.18,0,.25h-.44c.01-.07-.02-.33.02-.36.02-.01.38-.07.42.11Z"/>
        <path class="cls-58" d="M6.9,21.59c-.27.02-.28-.04-.29-.04-.03-.24-.04-.65.31-.47.02.01-.02.44-.02.51Z"/>
        <path class="cls-28" d="M11.96,25.54c-.19,0-.39.04-.59.04-.16-.35.47-.27.5-.25.06.04-.04.25.09.22Z"/>
        <path class="cls-73" d="M4,20.47c.15,0,.14.04.15.04.03.33-.07.24-.07.25h-.37s0-.17,0-.25c.09,0,.2-.03.29-.04Z"/>
        <g>
          <path class="cls-6" d="M12.92,23.8c0,.58-.03,1.16-.04,1.74-.31,0-.61,0-.92,0-.14.03-.03-.18-.09-.22-.03-.02-.65-.1-.5.25-.06,0-.12,0-.18,0-.54,0-1.09,0-1.63,0l-.07-.62c-.19-.03-1.3.04-1.36,0-.08-.06.2-.33-.51-.25-.05-1.02-.3-.47-.51-.62-.05-.04.02-.33-.04-.36-.06-.04-1.24.03-1.43,0,.06-1.06-.31-.51-.51-.65-.06-.04.04-.35-.07-.4-.05-.02-.28.02-.37,0-.05-.01-.06-.11-.07-.11-.26-.04-.81.03-1.14,0-.12-.05-.01-.5-.06-.56-.04-.06-.35.04-.4-.07-.03-.07.04-.41-.02-.45-.06-.04-1.3-.04-1.36,0-.06.04.02.4-.04.44-.02.02-.53.02-.55,0-.06-.04.01-.39-.02-.45-.1-.22-.33.28-.33-.45,0-.35.05-.71.04-1.07,0,0-.07-.09-.07-.13,0-.01.05-.05.04-.29,0-.1,0-.19,0-.29,0-.01,0-.02,0-.04h.04c.36-.07.89.11,1.1-.04.04,0,.07,0,.11,0l.04-.04c.28.03.17.36.18.62,0,.11-.02.73.02.76h.97c.03.4-.05.53.39.47.08-.23.15-.17.17-.22h.37c-.07.77.42.37.57.47.06.04-.04.35.07.4.31.14.3-.18.28-.4.06,0,.13,0,.18,0,.07.01.08-.04.11-.04.48.08-.21.52.61.47.03,0-.02-.07.09-.07.2-.01.43-.04.62-.04.01,0,.02.06.29.04,0,.01.08.21.04.27-.04.06-.32-.04-.37.07-.2.44.48.28.79.31,0-.14.04-.27.06-.4h.04c-.18.92.74.81.62.33.01.01.07.07.07.07.14.41-.5.5.55.54.15,0,.29,0,.44,0,.39,0,.78,0,1.17,0h.29c.02.23.06.45.35.33.03-.01.05-.49.44-.29.1.05,0,.68.02.71.04.03.31.03.33,0,.1-.14-.09-.48-.07-.51.02-.04.14.01.18-.07.09-.18.03-3.45.04-3.97,0-.33-.04-.66-.04-.98,0-.88.05-1.76.04-2.65,0-.18.04-1.3,0-1.36-.04-.06-.26.03-.37-.05.09-.01.32.04.37-.05.06-.14,0-2.61,0-2.99.04.64.08.3.94.36.03-.39.01-.77.02-1.16h.04c.03,4.57.08,9.14.04,13.7Z"/>
          <g>
            <path class="cls-89" d="M9.45,23.98s.32,0,.33,0c.05.04-.02.33.04.36.06.04.87-.18.61.42-.03.08-.53.21-.46-.31-.73.11-.55-.44-.51-.47Z"/>
            <path class="cls-40" d="M8.68,23.55c.1-.04.97-.1.72.38-.05.09-.72.04-.75.02-.03-.02-.05-.36.04-.4Z"/>
            <path class="cls-70" d="M7.98,22.97c.39-.17.43.34.29.4-.39.17-.43-.34-.29-.4Z"/>
            <path class="cls-40" d="M10.51,24.78c.19-.13.57.13.35.31-.24.2-.52-.19-.35-.31Z"/>
            <path class="cls-28" d="M10.99,25.07c.53-.16.42.42,0,.25-.09-.03-.04-.24,0-.25Z"/>
          </g>
        </g>
        <path class="cls-24" d="M.7,19.52c0,.24-.04.28-.04.29-.4.11-.36-.5.04-.29Z"/>
        <path class="cls-8" d="M5.43,20.97l-.15.22s-.04.05-.11.04c-.07-.21.09-.23.26-.25Z"/>
        <path class="cls-8" d="M7.08,7.92c0,.07-.02.3.02.33.03.02.39-.01.5,0,.08.4.25.22.59.25,0,.07-.03.25.06.29.18,0,.35,0,.53,0v.04c.02.11-.04.36.04.44.2.2.55-.31.51.47,0,0-.07.1-.07.15-.15.02-1-.03-1.05,0-.05.04,0,.52-.02.56-.03.04-.55.22-.4-.51-.05-.12-.47,0-.51-.07-.03-.04.04-.52-.02-.56-.02-.01-.39-.01-.4,0-.05.03.01.18-.04.22-.02.01-.42.01-.44,0-.05-.04,0-.35-.02-.38-.02-.03-.3-.03-.31-.02-.05.04.02.29-.04.33-.01,0-.32,0-.33,0-.06-.04.01-.85-.02-.89-.02-.03-.29-.02-.35-.02-.01,0-.05.11-.06.11-.02,0-.19-.07-.48-.04,0-.07.02-.37-.02-.4-.22-.16-.31.13-.33.15-.02.01-.48,0-.5-.02-.02-.03-.04-.75-.04-.85,0-.02.09.03.07-.4,1.21,0,.63.25.79.36.04.03.72-.03.77,0,.04.02-.01.14.07.18.05.02.37-.02.4,0,.15.11-.46.38,1.08.29Z"/>
        <path class="cls-31" d="M9.1,6.94c.07.12.24.07.37.07.18,0,.35,0,.53,0,.09.06.05.23.06.4,0,0-.04,0-.04.15l-2.37-.04c-.06.02-.07.64-.06.73-.11-.01-.47.02-.5,0-.04-.03-.01-.26-.02-.33,0-.07.02-.33-.02-.36-.89.13-.37-.38-.59-.47-.08-.03-.98.03-1.03,0-.06-.04.02-.4-.04-.44-.06-.04-1.17.03-1.36,0-.09-.04-.02-.46,0-.47.06-.04,1.3-.04,1.36,0,.06.04-.04.38.07.44.14.06,2.04-.06,2.13,0,.19.13-.59.56,1.43.44.07-.05.05-.09.06-.11Z"/>
        <path class="cls-58" d="M12.11,5.13c.33,0,.67.04.99.04-.08.86.19.48.26.63.02.05-.03.2.02.24.13.09.4-.29.37.54.36-.04.73.04,1.08.04v.44s.1.07-.4.11c0-.06-.17-.04-.37-.04-.23,0-.46,0-.7,0,0-.13.03-.92,0-.96-.04-.06-.35.04-.4-.07-.19-.43.46-.42-.7-.45-.58-.02-1.16.01-1.74,0,0,.12-.06.38-.06.4-.81-.14-.35.46-.48.63-.07.1-.74-.19-.51.34-.13,0-.29.05-.37-.07.03-.1-.03-.49,0-.53.03-.04.26.02.33-.07.09-.11,0-.28,0-.29.11-.15.7.34.61-.67.72.07.47-.16.59-.22.08-.04.31.04.33.04.01,0,.09-.1.2-.11.01,0,.02,0,.04,0,.34.12.38-.04.4-.04.03,0-.1.08.51.07Z"/>
        <path class="cls-58" d="M12.77,2.12c.12,0,.24,0,.37,0,.31,0,.61,0,.92,0,0,.02.11-.04.07.45.03.05.29,0,.37.02.19.05.11.31.07.51-.12-.02-.29.01-.42,0l-.07-.44c-.16,0-.33,0-.5,0-.3-.01-.69-.01-.99,0-.14,0-.86.01-.9.04-.15.1.32.37-.53.42.04.35-.04.72-.04,1.07-.27.04-1.19-.05-1.25-.04.03-.46-.07-.34-.07-.36-.18-.84.27-.59.29-.53.09.19-.28.32.64.27.12-.05.01-.5.06-.56.09-.13.44.23.48-.45.38.07.39-.08.4-.4.37,0,.73,0,1.1,0Z"/>
        <path class="cls-31" d="M1.65,5.49c0-.16.04-.33.04-.47.2.03,1.46-.04,1.52,0,.06.04-.02.47.04.51.11.08,1.2-.24.9.42-.03.07-1.04.09-1.08.05-.06-.04.02-.43-.04-.47-.06-.04-1.2,0-1.38-.04Z"/>
        <path class="cls-56" d="M9.8,3.79s.11-.1.07.36c-.01,0-.21.08-.22.09-.06.08.13.46-.15.44.06.46-.16.27-.66.31-.09-.66.26-.36.33-.45.02-.03,0-.63,0-.74h.62Z"/>
        <path class="cls-31" d="M4.55,3.03l-.02.58c-.33-.05-1.27-.2-1.01.38.05.11.71.03,1.03.05l-1.08.04c-.05-.18.05-.41-.09-.51.19-.05.09-.09.11-.51.35,0,.71-.02,1.06-.04Z"/>
        <path class="cls-23" d="M3.96,7.09c.01.43-.07.38-.07.4h-.26c.01-.13-.09-.6-.04-.8.02,0,.25-.11.37.02,0,.13,0,.25,0,.38Z"/>
        <path class="cls-58" d="M8.22,5.13c0,.06-.07.02-.07.05-.02.12.03.6-.02.63-.02.01-.37,0-.39-.02-.02-.03.02-.54,0-.67h.48Z"/>
        <path class="cls-73" d="M3.89,7.49c0,.1.01.82.04.85.02.02.47.03.5.02.02-.01.11-.3.33-.15.04.03.02.33.02.4,0,.28-.04.31-.04.33-.29-.03-.31.04-.33.04-.21.01-.42-.01-.62,0,.05-.91-.1-.55-.29-.58,0,0-.03-.07-.06-.07-.29-.03-.72.01-1.05,0-.01,0-.02,0-.04,0-.08,0-.45.02-.48-.02-.02-.02,0-.55.02-.56.07-.05,1.44.04,1.65,0,.04-.02.09-.21.09-.25h.26Z"/>
        <path class="cls-118" d="M.7,7.2c-.01,1.87.11,3.75,0,5.62,0,0-.07.01-.07-.02.11-.78-.14-5.31-.07-5.58.01-.04.13-.1.15-.02Z"/>
        <path class="cls-100" d="M2.35,8.32s.02,0,.04,0c.05.17.93.02,1.01.07.01,0,.06.3.06.31-.03.05-.86,0-1.01.02-.03,0-.38.23-.55.11-.02-.02-.03-.4-.02-.42.05-.07.49.07.48-.09Z"/>
        <path class="cls-58" d="M3.78,8.97h-.26c0-.06-.03-.16-.04-.22,0-.12,0-.24,0-.36.19.03.34-.33.29.58Z"/>
        <path class="cls-100" d="M11.63,1.25c-.05.28.05.6.04.87-.02.32-.03.47-.4.4.02-.37-.09-.78-.04-1.16.31.04.2-.11.22-.11.06,0,.12,0,.18,0Z"/>
        <g>
          <path class="cls-67" d="M14.53.64c.22-.07.5-.04.73-.04v.4c-.71.01-.97-.12-.95.25-.08,0-.17,0-.26,0-.11,0-.23-.03-.33-.04V.49c.7.04.21.28.39.4.03.02.51.11.42-.25Z"/>
          <path class="cls-7" d="M13.72.49v.73c-.18,0-.4.04-.59.04-.12,0-.24,0-.37,0-.21,0-.42,0-.62,0V.49c.41-.02,1.19-.02,1.58,0Z"/>
          <path class="cls-67" d="M12.14.49v.76c-.17,0-.34,0-.51,0-.06,0-.12,0-.18,0-.06-.55.16-.3.22-.38.16-.23-.39-.35.48-.38Z"/>
        </g>
        <g>
          <path class="cls-103" d="M11.23,1.36c-.05.38.06.79.04,1.16-.04.69-.38.32-.48.45-.04.06.07.51-.06.56-.93.05-.55-.08-.64-.27-.03-.06-.47-.31-.29.53h-.62c0-.12.09-.63.04-.71-.04-.06-.45.03-.55-.05,0-.06,0-.12,0-.18,0-.12,0-.24,0-.36.29-.01.57-.04.86-.04.04-.03.01-.58.02-.69.83-.05,1.17.2,1.06-.36.2,0,.42-.07.62-.04Z"/>
          <path class="cls-11" d="M10.6,1.4c.11.57-.24.31-1.06.36.02-.28.08-.05.18-.2.02-.03-.03-.17.02-.2.04-.02.41.05.86.04Z"/>
        </g>
        <path class="cls-11" d="M8.55,2.49s.07,0,.11,0c0,.12,0,.24,0,.36-.39-.03-.73.14-.66-.33.18,0,.37-.03.55-.04Z"/>
        <path class="cls-28" d="M3.49,3.07c-.02.42.08.46-.11.51-.07.02-.27-.01-.4,0-.03-.81.01-.49.51-.51Z"/>
        <path class="cls-37" d="M14.05,1.25c.1.3,0,.83,0,.87-.31,0-.61,0-.92,0v-.87c.19,0,.41-.04.59-.04.1,0,.22.03.33.04Z"/>
        <path class="cls-73" d="M3.27,11.73v1.03c.14.01.14.05.15.05.02.79-.71.02-.48.62-.22.06-.13.11-.15.29-.03.28.04,1.53,0,1.61l-1.06.04v-2.47c.05-.07.56.04.66-.05.02-.02,0-.31,0-.36,0,0,.08,0,.02-.11-.34-.14-.84.41-.66-.65.51,0,1.02-.01,1.52,0Z"/>
        <path class="cls-34" d="M4,13.11c-.05.3,0,.71.04,1.02,0,0-.04-.04,0,.18-.53,0-.66.11-.62-.51,0-.02.07-.35.07-.36,0,0,.08.01.11-.05.08-.18-.21-.32.4-.27Z"/>
        <path class="cls-31" d="M2.94,15.83c-.12,0-.24,0-.37,0-.18,0-.37,0-.55,0-.06,0-.31.02-.33-.02,0-.11,0-.23,0-.34.29.03,1.55-.03,1.63,0,.08.04.08.33,0,.36-.03.01-.28,0-.39,0Z"/>
        <path class="cls-101" d="M4.37,19.2c0-.23-.02-.46,0-.69l.66.02v.65l-.66.02Z"/>
        <path class="cls-28" d="M4.7,14.7c-.08.03-.44-.02-.61,0-.01-.14-.03-.26-.06-.4-.04-.22,0-.17,0-.18.12.01.61-.02.64,0,.05.03,0,.49.02.58Z"/>
        <path class="cls-58" d="M4.77,17.86c.07.07.17.01.2.04.34.22-.57.11-.61.11v-.83c.29.04.43-.13.26.31.2.04.05.28.15.38Z"/>
        <path class="cls-87" d="M5.73,14.52c-.01.12.03.56-.02.62-.02.02-.43.14-.5-.18-.02-.1.02-.28,0-.4.06,0,.25-.06.51-.04Z"/>
        <path class="cls-34" d="M8.07,22.17c-.07-.07-.12.19-.22-.33-.01-.07.02-.19,0-.25.03,0,.04-.03.07-.04.1-.01.24.02.31,0,.03,0,.05-.07.06-.07.78.15-.03.33-.06.36-.07.11.09.19-.17.33Z"/>
        <path class="cls-58" d="M2.39,12.49c0,.05.02.34,0,.36h-.73c0-.12,0-.24,0-.36h.73Z"/>
        <path class="cls-58" d="M5.07,20.14c-.06.72.46.05.37.8-.72-.02-.15-.24-.44-.44-.1-.07-.19-.01-.22-.05-.04-.06-.08-.41.29-.31Z"/>
        <path class="cls-28" d="M6.64,17.53v.62c-.11-.02-.25.01-.37,0-.02-.2-.06-.4-.04-.6.03-.04.33,0,.4-.02Z"/>
        <path class="cls-84" d="M3.82,19.78h.55c0,.1-.02.23-.04.33-.02.1.01.24,0,.34-.05.08-.11.05-.18.05,0,0,0-.04-.15-.04-.04-.61.18-.75-.29-.62v-.07s.07,0,.11,0Z"/>
        <path class="cls-28" d="M3.49,13.43s-.07.34-.07.36l-.62-.07c.02-.18-.07-.23.15-.29.1-.03.39.02.55,0Z"/>
        <path class="cls-8" d="M2.94,15.83c.01.2,0,.38-.04.58-.3.03-.31-.04-.33-.04v-.54c.12,0,.25,0,.37,0Z"/>
        <path class="cls-58" d="M6.64,18.15s.16-.02.18.02c0,.01.03.3.02.31-.05.02-.45-.02-.59,0-.02,0,.02-.25.02-.33.12.01.26-.02.37,0Z"/>
        <path class="cls-28" d="M2.9,16.41s.07.04.04.13c-.05.15-.26.3-.44.24-.03-.09.07-.32-.07-.29,0,0,.11-.1.15-.11.02,0,.03.06.33.04Z"/>
        <g>
          <path class="cls-73" d="M2.39,12.85c-.1.1-.61-.01-.66.05v2.47l1.06-.04c.04-.08-.03-1.33,0-1.61l.62.07c-.04.62.09.51.62.51.02.14.04.26.06.4.16-.02.52.03.61,0,.14-.05.03-.14.13-.18.1-.04.37.04.39.04.02.12-.02.3,0,.4-.14.08-.4,0-.44.05-.02.03.04.5.04.85,0,.11,0,.22,0,.33,0,.12-.02.75,0,.78.09.13.64-.27.51.47.1.12.2.02.22.02.27.03,1.07.02,1.1.07-.07,0-.37-.02-.4.02-.03.2.02.4.04.6,0,.08-.03.32-.02.33.14-.02.54.02.59,0,.01,0,0-.3-.02-.31-.03-.04-.14-.01-.18-.02v-.62c.15-.02.29-.03.44-.04.02.13-.02.78,0,.82.1.14.51-.36.4.71-.21,0-.5-.05-.4.16.06.13.39.02.48.02.01,0,.08.06.26.04-.16,1.15.51.37.55.8.02.24-.09.96-.04,1.31-.19.02-.56-.09-.4.22-.04,0-.04.04-.07.04-.05-.18-.4-.12-.42-.11-.04.03,0,.29-.02.36-.02.13-.05.26-.06.4-.31-.02-.99.13-.79-.31.05-.11.33-.01.37-.07.04-.06-.04-.26-.04-.27,0-.07.04-.5.02-.51-.35-.17-.34.23-.31.47-.19,0-.43.03-.62.04-.23-.41.23-.65-.48-.62,0-.05-.03-.03-.07-.04.1-.75-.43-.08-.37-.8.05-.25-.41.02-.73-.04.01-.1.03-.23.04-.33.01-.2,0-.36,0-.54,0-.01,0-.02,0-.04l.66-.02v-.65l-.66-.02c.01-.18-.04-.37.06-.44.79.09.89-.23.35-.22-.1-.1.05-.34-.15-.38.18-.43.03-.27-.26-.31-.15-.02-.25-.04-.4-.04-.04,0-.07,0-.11,0-.01-.07.03-.33-.02-.36-.02-.02-.29.01-.39,0,0-.03.02-.09-.02-.11-.21.04-.62-.13-.57.15-.11.03-.32.1-.37-.04.18.06.39-.08.44-.24.03-.09-.04-.12-.04-.13.03-.2.05-.38.04-.58.11,0,.35.01.39,0,.08-.04.08-.33,0-.36-.08-.03-1.35.03-1.63,0-.05-.86-.05-1.75-.04-2.61h.73Z"/>
          <path class="cls-58" d="M5.74,20c.3-.21.4.32.29.4-.3.21-.4-.32-.29-.4Z"/>
          <path class="cls-58" d="M6.44,19.16c.15-.1.56.07.39.31-.02.02-.37.03-.39.02-.03-.02-.03-.31,0-.33Z"/>
          <path class="cls-58" d="M7.49,19.02s.05,0,.07,0v.18c-.09,0-.42.11-.48-.02-.1-.21.19-.17.4-.16Z"/>
        </g>
        <path class="cls-31" d="M8.33,21.34v.11c-.05.01-.03.04-.04.04,0,0-.02.06-.06.07-.07.02-.21-.01-.31,0-.15-.31.22-.2.4-.22Z"/>
        <path class="cls-73" d="M2.57,15.83v.54s-.14.11-.15.11c-.54.05-.38-.05-.4-.65.18,0,.37,0,.55,0Z"/>
        <path class="cls-50" d="M10.57,10.72s-.07.05-.07.07c-.47-.1-.46-.08-.44.36-.21.01-.45.02-.66.04-.22-.07-.13-.07-.15-.25-.02-.2-.01-.8,0-1.05,0-.04.07-.14.07-.15h1.16c.07.37-.07.96.09.98Z"/>
        <path class="cls-8" d="M11.89,10.32c-.66-.02-.7.15-.66-.38,0-.03.07-.01.07-.02.23.03.31-.04.33-.04.01,0,.25.07.26.09,0,.11,0,.23,0,.34Z"/>
        <path class="cls-58" d="M11.63,9.26v.62s-.1.06-.33.04c.04-.45-.17-.74.33-.65Z"/>
        <path class="cls-40" d="M8.81,9.26c-.08-.08-.02-.32-.04-.44.56-.13.59.45.04.44Z"/>
        <g>
          <path class="cls-58" d="M11.92,8.83c-.06.09.04.25,0,.34-.04.09-.22.05-.29.05-.24.02-2.06.02-2.26,0-.03,0-.01-.07-.02-.07.02-.46-.02-.33-.11-.36-.19-.08-.3,0-.48,0-.18,0-.35,0-.53,0-.08-.04-.06-.22-.06-.29,0-.05-.02-.23.02-.25h2.16l.11.54c.47-.06.98.06,1.45.04Z"/>
          <path class="cls-8" d="M9.36,9.16s-.14.3-.11-.36c.09.04.13-.1.11.36Z"/>
        </g>
        <path class="cls-104" d="M11.15,17.24c.09-.01.2,0,.29,0,0,.24,0,.48,0,.73,0,.22-.04.24-.04.25-.54-.07-.33.09-.37.83-.25-.01-.44.01-.7-.04,0,0-.07-.07-.07-.07-.37-.06-.45-.14-.48-.15l.04-.63c.06-.17.66.33.51-.6,0,0-.02-.03.15-.04.08,0,.4.01.42,0,.13-.09-.2-.23.24-.29Z"/>
        <path class="cls-73" d="M10.02,7.56c0,.05-.02.23.02.25.13.02.77-.02.81,0,.04.03,0,.16.02.22,0,.05-.02.19.02.22.07.05,1.27.02,1.78.07l-.04.07c-.48.07.26.39-.7.44-.47.02-.98-.09-1.45-.04l-.11-.54h-2.16s-.02.2-.02.25c-.34-.04-.51.15-.59-.25-.02-.09,0-.7.06-.73l2.37.04Z"/>
        <path class="cls-34" d="M11.45,15.32c0,.64,0,1.28,0,1.92-.09,0-.2-.01-.29,0-.04-.63.04-1.26.04-1.89.08-.02.17-.03.26-.04Z"/>
        <path class="cls-14" d="M11.15,14.85c0,.11,0,.22,0,.33-.69.12-.69-.45,0-.33Z"/>
        <path class="cls-89" d="M4,20.47c-.09,0-.2.04-.29.04.02-.21-.02-.44,0-.65.48-.13.25,0,.29.62Z"/>
        <g>
          <path class="cls-40" d="M8.7,22.79c-1.05-.05-.41-.13-.55-.54-.04-.09.51-.13.53-.11.05.03,0,.55.02.65Z"/>
          <path class="cls-29" d="M8.42,22.21s.03.15,0,.15-.03-.15,0-.15Z"/>
        </g>
        <path class="cls-96" d="M10.93,8.03h1.94c-.02.1-.05.2-.04.31-.09.06-.15-.02-.18-.02-.51-.05-1.71-.02-1.78-.07-.04-.03,0-.16-.02-.22h.07Z"/>
        <path class="cls-28" d="M5.25,8.65c.02.23.03.46.04.69-.47-.13-.54.18-.55-.4,0-.02.04-.05.04-.33.29-.03.45.04.48.04Z"/>
        <g>
          <path class="cls-1" d="M11.23,4.44l-.04.65s-.02,0-.04,0c0-.22,0-.44,0-.65h.07Z"/>
          <path class="cls-82" d="M13.58,5.13c-.16,0-.33.04-.48.04-.32,0-.66-.04-.99-.04v-.73c.47,0,.94-.07,1.41-.04l.06.76Z"/>
          <path class="cls-58" d="M15.04,3.86c0,.27,0,.53,0,.8-.14.01-.52-.02-.57,0-.11.05-.02.41-.06.45-.03.04-.27.01-.33.02-.14-1.12.41-.51.51-.74v-1.25c.09.01.4-.04.44.05,0,.22,0,.45,0,.67Z"/>
          <path class="cls-82" d="M13.58,2.67l-.02.69h-1.47c-.23-.95.14-.45.5-.69.3-.01.69-.01.99,0Z"/>
          <g>
            <path class="cls-67" d="M12.58,2.67c-.35.23-.73-.26-.5.69h1.47l.02-.69c.16,0,.33,0,.5,0l.07.44c.13.01.3-.02.42,0,.05,0,.03.04.04.04v1.25c-.1.23-.65-.38-.51.74-.17,0-.34,0-.51,0l-.06-.76c-.47-.04-.95.04-1.41.04-.07,0-.08-.03-.15-.04-.05-.79.24-1.17-.44-.92.02.25-.03.66,0,.87,0,.06.11.05.11.05.03.12.1.41-.04.4,0-.06.02-.3-.02-.33-.02-.02-.26.01-.35,0h-.07c0-.22-.04-.24-.04-.25,0-.35.08-.72.04-1.07.85-.05.39-.31.53-.42.04-.03.76-.03.9-.04Z"/>
            <path class="cls-58" d="M13.63,3.36s.52,0,.53.02c.03.04.02.93-.02.96-.02.02-.52,0-.53-.02-.03-.04-.02-.93.02-.96Z"/>
          </g>
          <path class="cls-58" d="M11.96,4.37c-.11,0-.22,0-.33,0,0,0-.1,0-.11-.05-.03-.21.02-.62,0-.87.68-.24.39.13.44.92Z"/>
          <path class="cls-81" d="M11.96,4.37c.07,0,.08.04.15.04v.73c-.62,0-.49-.07-.51-.07,0-.1,0-.19,0-.29.14.01.07-.28.04-.4.11,0,.22,0,.33,0Z"/>
          <path class="cls-75" d="M11.59,4.77c0,.1,0,.19,0,.29-.02,0-.07.16-.4.04l.04-.65c.09.01.33-.02.35,0,.03.02.02.27.02.33Z"/>
        </g>
        <path class="cls-58" d="M10.93,8.03h-.07c0-.05.02-.19-.02-.22-.03-.02-.68.02-.81,0-.03-.02-.02-.2-.02-.25,0-.14.04-.14.04-.15l.79.04.09.58Z"/>
        <g>
          <path class="cls-58" d="M13.36,7.38v.73c-.13,0-.26,0-.39,0-.07.3-.12.27-.13.29-.07,0-.15-.01-.22,0l.04-.07s.09.08.18.02c-.01-.11.02-.21.04-.31.04-.21.06-.41.02-.62-.31-.03-1.89.04-1.98,0-.11-.05-.02-.29-.07-.33-.06-.04-.48.07-.53-.05-.17-.39.52-.49.61-.2.23-.04,1.69.05,1.76,0,.05-.04,0-.49.02-.53.02-.03.3-.03.31-.02.15.11-.27,1.32.35,1.09Z"/>
          <path class="cls-67" d="M13.36,7.13c0,.08,0,.17,0,.25-.62.23-.19-.98-.35-1.09-.01,0-.29,0-.31.02-.03.04.04.49-.02.53-.07.05-1.53-.04-1.76,0-.09-.29-.78-.19-.61.2.05.12.47.01.53.05.06.04-.04.28.07.33.09.04,1.67-.03,1.98,0,.04.21.02.41-.02.62h-1.94l-.09-.58-.79-.04c0-.17.03-.34-.06-.4-.18,0-.35,0-.53,0-.23-.53.44-.24.51-.34.13-.18-.34-.78.48-.63,0,0,.07-.01.07.02.02.15-.05.34.06.42h1.65l.02-.83c1.16.04.5.02.7.45.05.11.36.01.4.07.03.04,0,.83,0,.96Z"/>
          <path class="cls-93" d="M12.25,5.64l-.02.83h-1.65c-.1-.08-.03-.26-.06-.42,0-.03-.07-.01-.07-.02,0-.02.06-.27.06-.4.58.01,1.16-.02,1.74,0Z"/>
        </g>
        <g>
          <path class="cls-58" d="M8,2.52c-.07.47.27.3.66.33,0,.06,0,.12,0,.18-.01.23-.04.17-.04.18-.89.08-.49-.21-.61-.29-.02-.01-.24,0-.31,0-.25-.02-1.69-.02-1.83,0-.45.06.15.43-.59.36,0-.1,0-.19,0-.29.01-.17-.04-.21-.04-.22,0-.01.04.01.06-.25.46.03.92-.02,1.38-.04.44-.01.89.05,1.32.04Z"/>
          <path class="cls-96" d="M9.17,3.79c0,.11.02.71,0,.74-.07.1-.42-.21-.33.45-.48.04-.32.23-.59.11.44-.28.53-.02.55-.6-.03-.04-.14-.01-.18-.02.01-.42-.01-.85,0-1.27,0,0,.03.05.04-.18.1.08.51,0,.55.05.05.07-.03.59-.04.71Z"/>
          <path class="cls-58" d="M6.24,4.44c-.08,0-.53.04-.55.09v.58c.06.08.2.05.33.05-.01,0-.04.1-.06.11-.03,0-.56-.07-.68-.05-.04-.28.04-.71.04-.74.71.09-.24-.7.86-.54l.06.51Z"/>
          <path class="cls-58" d="M8.62,4.48s.15-.02.18.02c-.02.58-.11.32-.55.6h-.04c.05-.44-.19-.68.4-.62Z"/>
          <path class="cls-82" d="M7.71,2.92v.74c-.62.06-1.23.04-1.85.02-.12-.05,0-.65.02-.76.14-.02,1.59-.02,1.83,0Z"/>
          <path class="cls-7" d="M6.02,5.17c-.13,0-.27.03-.33-.05v-.58s.47-.09.55-.09c.27-.01.58.08.86.04l-.02.6c-.05.06-.95-.02-1.05.02-.03.01-.01.07-.02.07Z"/>
          <g>
            <path class="cls-67" d="M5.87,2.92c-.03.12-.14.71-.02.76.62.03,1.23.04,1.85-.02v-.74c.07,0,.3-.01.31,0,.12.08-.29.37.61.29-.01.42.01.85,0,1.27-.59-.06-.35.17-.4.62,0,.01,0,.02,0,.04h-.48c-.57-.04-1.16.04-1.72.04,0,0-.02-.06.02-.07.1-.04,1,.05,1.05-.02l.02-.6c-.28.05-.59-.05-.86-.04l-.06-.51c-1.1-.16-.15.64-.86.54,0,0-.07.01-.07-.02-.02-.4.02-.78.04-1.18.74.07.14-.3.59-.36Z"/>
            <path class="cls-58" d="M7.94,3.61c.52-.03.42,0,.42.49-.97.05-.03.49-1.19.38-.25-1.15.76-.13.77-.87Z"/>
          </g>
        </g>
        <path class="cls-108" d="M12.14,1.25c.21,0,.42,0,.62,0v.87c-.37,0-.73,0-1.1,0,.01-.27-.09-.59-.04-.87.17,0,.34,0,.51,0Z"/>
        <path class="cls-42" d="M13.14,1.25v.87c-.12,0-.24,0-.37,0v-.87c.12,0,.24,0,.37,0Z"/>
        <path class="cls-58" d="M4.74,8.94c0,.58.08.27.55.4,0,.17,0,.34,0,.51-.29,0-.59,0-.88,0v-.87s.04-.06.33-.04Z"/>
        <path class="cls-34" d="M3.67,12.82c-.08,0-.22.01-.26,0,0,0,0-.04-.15-.05v-1.03c.1,0,.63-.02.66.02-.1.32-.05.66-.07.69-.05.07-.24-.15-.18.38Z"/>
        <path class="cls-58" d="M4.33,12.93c-.09,0-.18,0-.28,0-.08.05-.04.11-.06.18-.61-.05-.32.09-.4.27-.03.07-.11.05-.11.05-.16.02-.45-.03-.55,0-.23-.59.5.17.48-.62.04.01.17,0,.26,0,.66,0,.36-.2.44-.31.08-.11.3-.06.22.42Z"/>
        <path class="cls-89" d="M8.81,12.75c-.02.72,0,.49.37.54.07,0,.15,0,.22,0v.65s-.05.07-.11.07c-.15.02-.32-.01-.48,0-.01-.23-.07-.47-.04-.71-.02-.03-.5-.02-.59-.02-.41,0-.52-.08-.51.18-.19.02-.14.04-.15.04-.3.02-.45-.16-.48.18-.42-.01-.83-.05-1.25-.04l-.07-.07c.2-.01,1.18.09,1.27.04.03-.02,0-.18.11-.22.14-.05.46.05.48.04.09-.05-.28-.36,1.14-.22,0-.6.09-.45.09-.47Z"/>
        <path class="cls-58" d="M9.28,14.01c.04.81-.02.48-.48.51,0-.17,0-.34,0-.51.15-.01.33.02.48,0Z"/>
        <g>
          <path class="cls-64" d="M8.81,14.01c0,.17,0,.34,0,.51-.41.03-.84.15-1.27.04-.17.38.02.34.02.36,0,.02-.11.34-.15.29-.94.06-.49-.03-.68-.69h-.84c-.13.06,0,.57-.06.67-.07.16-.69-.24-.48.67-.25-.03-.35.04-.37.04,0,0-.04-.06-.18-.04,0-.35-.06-.82-.04-.85.04-.06.3.03.44-.05.07.32.48.2.5.18.05-.06,0-.5.02-.62,0,0,.07.01.07-.02.03-.28-.03-.57,0-.85.42-.01.83.03,1.25.04.19,0,.54.17.48-.18,0,0-.04-.02.15-.04.38-.03.57.11.51-.18.09,0,.56-.02.59.02-.03.24.02.47.04.71Z"/>
          <path class="cls-87" d="M6.95,14.52s.44,0,.46.02c.21.8-.52.59-.55.54-.02-.03-.04-.51.09-.56Z"/>
          <path class="cls-13" d="M7.14,13.94c.49-.21.46.53,0,.33-.08-.04-.08-.29,0-.33Z"/>
        </g>
        <path class="cls-58" d="M7.52,13.51c.06.35-.29.19-.48.18.03-.34.18-.16.48-.18Z"/>
        <path class="cls-58" d="M8.18,13.29c.06.29-.14.15-.51.18,0-.26.1-.18.51-.18Z"/>
        <path class="cls-87" d="M9.8,18.8s.1.08.48.15c-.06.02-.31.03-.33.05-.01.02.01.22,0,.31-.31-.01-.73-.02-1.03,0-.01,0-.02,0-.04,0-.02,0-.05,0-.07,0,.12-.44-.15-.45.37-.51.11-.01.52-.01.62,0Z"/>
        <path class="cls-28" d="M8.37,16.84c-.59,0-.36.26-.37.29-.07.34-.05.23-.11.29.01-.2-.02-.42,0-.62,0,0,.07.01.07-.02.06-.46-.19-.56.33-.6,0,.01.09.08.11.16l-.04.49Z"/>
        <g>
          <path class="cls-8" d="M8.37,17.13s.12-.02.15.02c.02.04-.02.71,0,.87l.66.04v.74c-.52.06-.24.07-.37.51-.13.01-.27-.04-.33.05,0,.16.01.33,0,.49-.01.15.03.2-.11.18-.04-.43-.71.35-.55-.8.03-.31-.03-.19-.26-.22-.02,0-.05,0-.07,0,.11-1.06-.3-.56-.4-.71-.02-.03.02-.68,0-.82.51-.03.35-.07.37-.07.03,0,.24.19.44,0,.06-.06.04.05.11-.29.11.01.27-.02.37,0Z"/>
          <path class="cls-89" d="M7.82,19.23c-.17.02-.24-.04-.26-.04v-.18c.22.02.28-.09.26.22Z"/>
          <path class="cls-89" d="M8.57,18.33c.26-.14.23.44.18.47-.25.18-.41-.35-.18-.47Z"/>
        </g>
        <path class="cls-28" d="M8.37,16.84v.29c-.1-.02-.25.01-.37,0,0-.03-.23-.29.37-.29Z"/>
        <g>
          <path class="cls-104" d="M4.33,12.93c.4-.03.95.03,1.39.04.02.03.04.17.04.18,0,.02-.07.17-.04.44l.07.07c-.03.28.03.57,0,.85,0,.03-.07.01-.07.02-.26-.03-.46.03-.51.04-.02,0-.29-.08-.39-.04-.1.04.01.13-.13.18-.02-.09.03-.55-.02-.58-.03-.02-.52.01-.64,0-.03-.31-.08-.71-.04-1.02.01-.07-.03-.13.06-.18.09,0,.18,0,.28,0Z"/>
          <path class="cls-73" d="M4.86,13.14c.42-.19.39.39.33.44-.02.01-.37,0-.39-.02-.01-.02-.02-.38.06-.42Z"/>
        </g>
        <g>
          <path class="cls-62" d="M3.27,18.51l-.04.63c.02.05.53.09.62.09,0,.17-.07.36-.04.54-.04,0-.07,0-.11,0-.16,0-.32,0-.48,0,0,0,.01-.07-.02-.07-.05,0-.49.13-1.05.04-.01-.26.1-.58-.18-.62-.09-.89.16-.56,1.28-.62Z"/>
          <path class="cls-66" d="M1.73,17.17c-.16,1.05.46.46.83.62.2.09-.2.28.31.33-.21.06-.06.28-.13.33-.18.13-1.07-.39-.79.73-.04,0-.07,0-.11,0-.01,0-.02,0-.04,0,.13-.58-.49-.63-.37-.04-.04-.04-.04-.58-.04-.69.62.13.46.01.48-.53l-.44-.02s.17.08.11-.67c.05-.08.11-.04.18-.05Z"/>
          <path class="cls-77" d="M3.85,18.11v.4h-.59c-1.12.06-1.38-.28-1.28.62l-.04.04c-.28-1.11.61-.6.79-.73.07-.05-.08-.27.13-.33.22.02.74.01.99,0Z"/>
          <path class="cls-62" d="M3.05,16.95c0,.06,0,.12,0,.18-.39.07.08.58.39.36.04-.03.01-.26.02-.33,0-.01,0-.02,0-.04.2.1.38,0,.4,0,.04,0,.07,0,.11,0v.87c-.16.06-.1.11-.11.11-.25.01-.77.02-.99,0-.51-.05-.11-.24-.31-.33-.37-.16-.98.43-.83-.62.13-.02.68.02.72,0,.04-.03-.01-.13.06-.22h.55Z"/>
          <path class="cls-4" d="M4.37,18.51c-.02.23,0,.46,0,.69,0,.01,0,.02,0,.04-.17,0-.34,0-.51,0,.01-.24,0-.48,0-.73v-.4s-.04-.05.11-.11c.13,0,.27,0,.4,0,.04,0,.95.11.61-.11-.04-.02-.13.04-.2-.04.54-.02.44.31-.35.22-.1.07-.04.25-.06.44Z"/>
          <path class="cls-90" d="M4.37,17.17v.83c-.13,0-.27,0-.4,0v-.87c.15,0,.26.02.4.04Z"/>
          <path class="cls-113" d="M4.37,19.23c0,.19.01.34,0,.54h-.55c-.03-.18.03-.37.04-.54.17,0,.34,0,.51,0Z"/>
          <path class="cls-58" d="M3.45,16.77s0,.28,0,.36c0,.01,0,.02,0,.04-.28.03-.38-.04-.4-.04,0-.06,0-.12,0-.18,0-.04.02-.12-.02-.15-.02-.02-.05.03-.13.04,0-.03-.01-.04-.04-.04-.06-.28.36-.1.57-.15.04.02.01.08.02.11Z"/>
          <path class="cls-67" d="M3.85,17.13s-.21.1-.4,0c0-.09.01-.32,0-.36.1.01.36-.02.39,0,.04.03,0,.29.02.36Z"/>
          <path class="cls-62" d="M1.4,18.44c.01-.19,0-.35.04-.54l.44.02c-.01.54.15.66-.48.53Z"/>
          <path class="cls-27" d="M1.8,19.16c-.08,0-.31.02-.37-.04-.12-.59.5-.54.37.04Z"/>
          <path class="cls-66" d="M3.05,16.95h-.55c.06-.08.29-.1.4-.11.08,0,.11-.05.13-.04.04.03.01.1.02.15Z"/>
          <path class="cls-116" d="M3.85,18.51c0,.24.01.48,0,.73-.09,0-.6-.04-.62-.09l.04-.63h.59Z"/>
          <path class="cls-95" d="M3.45,17.17c0,.06.02.3-.02.33-.31.22-.77-.29-.39-.36.02,0,.12.07.4.04Z"/>
        </g>
        <g>
          <path class="cls-19" d="M4.99,15.9v.29c-.05,0-.13.01-.18,0,0-.11,0-.22,0-.33.15-.03.17.04.18.04Z"/>
          <path class="cls-67" d="M7.89,15.72s0,.05,0,.07c-.13,0-.27-.01-.4,0-.02-.2.06-.43-.07-.58.04.05.15-.27.15-.29.55-.09.25.25.33.8Z"/>
          <path class="cls-113" d="M7.89,16.81c-.02.2.01.41,0,.62-.2.19-.41,0-.44,0l.04-.62c.08.02.28-.02.4,0Z"/>
          <path class="cls-20" d="M8.29,16.19c-.52.04-.27.14-.33.6,0,.03-.07.01-.07.02-.12-.02-.32.02-.4,0-.08-.02-.08-.04-.11-.11,0-.02.02-.23,0-.51,0-.11,0-.22,0-.33.05,0,.1-.07.11-.07.13-.01.27,0,.4,0,0,0,.06-.03.11.09.02.05-.02.23,0,.25.05.07.35.13.26-.38.08.08.02.32.04.44Z"/>
          <g>
            <path class="cls-62" d="M6.17,16.26c.01.12-.02.37,0,.42.04.09.28.05.37.05.26.02.59.02.84-.04.03.07.03.09.11.11l-.04.62s.15.05-.37.07c-.15,0-.29.02-.44.04-.03-.05-.83-.04-1.1-.07v-1.18s.53-.01.62-.02Z"/>
            <path class="cls-113" d="M4.99,16.19c.13.01.23.04.37.04.29,0,.59-.09.88,0,0,.05-.03.03-.07.04-.1,0-.6-.02-.62.02v1.18s-.12.1-.22-.02c.13-.75-.42-.34-.51-.47-.02-.03,0-.66,0-.78.06.01.13,0,.18,0Z"/>
            <path class="cls-27" d="M7.41,15.21c.14.15.05.38.07.58,0,0-.06.07-.11.07-.64.03-1.32-.1-1.96-.04l-.02.07s-.03-.01-.04-.04c-.21-.91.41-.51.48-.67.05-.11-.07-.61.06-.67h.84c.19.66-.26.75.68.69Z"/>
            <path class="cls-20" d="M5.36,15.86s0,.04.04.04l-.04.33c-.13,0-.24-.02-.37-.04v-.29s.12-.06.37-.04Z"/>
            <path class="cls-80" d="M7.38,16.19c.02.28,0,.48,0,.51-.25.05-.59.05-.84.04l.04-.51c.27,0,.54.02.81-.04Z"/>
            <path class="cls-51" d="M6.57,16.23l-.04.51c-.09,0-.33.03-.37-.05-.02-.04.01-.29,0-.42.04,0,.08.01.07-.04.2.05.28,0,.33,0Z"/>
            <path class="cls-68" d="M7.38,15.86c0,.11,0,.22,0,.33-.27.05-.54.04-.81.04-.05,0-.13.05-.33,0-.29-.09-.59,0-.88,0l.04-.33.02-.07c.65-.06,1.32.06,1.96.04Z"/>
          </g>
        </g>
        <path class="cls-34" d="M4.4,9.85c.29,0,.59,0,.88,0,0,.37,0,.74,0,1.11-.02.05-.77.09-.88.09-.03,0-.03-.03-.11-.04v-1.12s.03-.04.11-.04Z"/>
        <path class="cls-87" d="M9.25,10.93c.02.18-.07.19.15.25-.06,0-.16-.01-.18,0-.14.07-.02.21-.11.25-.18-.1-.56,0-.59,0,0,0,.04-.01-.18-.04,0,0,.03-.02-.07-.04v-.65c.12-.01.72-.09.79-.04.06.04-.08.3.2.25Z"/>
        <path class="cls-58" d="M8.26,10.72v.65c-.09-.01-.4.04-.44-.05v-.58s.36-.01.44-.02Z"/>
        <g>
          <path class="cls-98" d="M2.42,8.9v.4c-.21,0-.49.07-.37.34.04.09.38.05.48.05v.62c-.23,0-.35,0-.57.07.15-.58.03-.52-.5-.51,0-.06-.05-.4-.04-.42.05-.06.39.04.44-.07.03-.06-.03-.44,0-.47.03-.05.46,0,.55-.02Z"/>
          <path class="cls-15" d="M2.53,10.32c.1,0,.12.03.18.04.12,0,.59-.04.62.07h-1.23l-.02.65h-.11c-.12.02-.22-.02-.33-.04-.09-1.05.21-.63.29-.74.09-.13.06-.46-.48-.34,0-.02,0-.05,0-.07.53-.01.65-.07.5.51.22-.07.34-.08.57-.07Z"/>
          <path class="cls-62" d="M1.65,11.04s-.1.12-.18-.05c0-.34,0-.69,0-1.03.54-.11.57.22.48.34-.08.11-.38-.31-.29.74Z"/>
          <path class="cls-62" d="M3.34,10.43v.49c.12.13.49.02.51.02,0,0,.02.06.15.07v.65c-.78.05-1.45-.02-1.91,0v-.58l.02-.65h1.23Z"/>
          <path class="cls-98" d="M3.78,8.97c.21-.01.42.01.62,0v.87c-.08,0-.08.04-.11.04-.02,0-.03-.06-.33-.04,0-.05,0-.1,0-.15,0-.05,0-.34,0-.36-.06-.15-.37-.03-.42-.07-.04-.03,0-.23-.02-.29h.26Z"/>
          <path class="cls-57" d="M3.82,10.03l.04.91s-.39.11-.51-.02v-.49c-.03-.11-.51-.07-.62-.07.14-.28,0-.35.04-.65.18.14-.42.41,1.06.33Z"/>
          <path class="cls-58" d="M3.96,9.85c.3-.03.31.04.33.04v1.12c-.1,0-.2,0-.29,0-.12,0-.14-.07-.15-.07l-.04-.91c.05-.27.14-.17.15-.18Z"/>
          <path class="cls-20" d="M2.72,9.7c-.06,0-.12,0-.18,0-.1,0-.43.04-.48-.05-.13-.28.16-.35.37-.34.02,0,.25.08.26.09.01.03-.02.17.04.31Z"/>
          <path class="cls-112" d="M2.72,9.7s.03,0,.04,0c-.04.3.1.38-.04.65-.06,0-.08-.03-.18-.04v-.62c.06,0,.12,0,.18,0Z"/>
          <g>
            <path class="cls-62" d="M3.52,8.97c0,.06-.02.26.02.29.05.04.37-.07.42.07-.2-.14-.12.71,0,.36,0,.05,0,.1,0,.15,0,.01-.1-.09-.15.18-1.48.09-.88-.19-1.06-.33,0,0-.02,0-.04,0-.06-.14-.02-.27-.04-.31,0-.02-.24-.09-.26-.09v-.4s-.01-.1.02-.11c.34-.04.71.06,1.05-.04,0,.06.03.15.04.22Z"/>
            <path class="cls-107" d="M2.77,9.12s.6-.01.62,0c0,0,.1.16.09.16-.03.05-1.04.06-.72-.16Z"/>
            <path class="cls-10" d="M3.96,9.34s0,.31,0,.36c-.12.34-.2-.51,0-.36Z"/>
          </g>
          <path class="cls-15" d="M4.29,11.01c.08,0,.08.04.11.04l-.04.63c-.22.06-.35-.02-.37-.02v-.65c.1,0,.2,0,.29,0Z"/>
        </g>
        <g>
          <path class="cls-89" d="M9.25,9.88c-.01.25-.02.85,0,1.05-.28.04-.14-.21-.2-.25-.07-.05-.67.02-.79.04-.08,0-.41-.02-.44.02v.58c.04.1.35.04.44.05.1.02.07.04.07.04,0,.22,0,.44,0,.65,0,.2,0,.4,0,.6.21.06.21-.02.22-.02.1,0,.2,0,.29,0,0,.02-.02.04-.04.11,0,.03-.09-.13-.09.47-1.42-.14-1.05.17-1.14.22-.02.01-.34-.09-.48-.04-.11.04-.08.2-.11.22-.08.05-1.06-.05-1.27-.04-.03-.26.04-.41.04-.44.39-.06.46-.17-.04-.18-.44,0-1-.07-1.39-.04.08-.48-.14-.52-.22-.42-.08.11.21.31-.44.31-.06-.53.13-.31.18-.38.02-.03-.03-.37.07-.69-.03-.04-.56-.02-.66-.02-.51-.01-1.02,0-1.52,0-.18,1.06.32.51.66.65.06.11-.02.1-.02.11h-.73c0-.25,0-.5,0-.74.02-.05.38-.09.44-.09.46-.02,1.13.05,1.91,0,.02,0,.15.08.37.02l.04-.63c.11,0,.86-.04.88-.09,0-.37,0-.74,0-1.11,0-.17,0-.34,0-.51,0-.22-.02-.46-.04-.69,0,0,.04-.11.06-.11.06,0,.33-.01.35.02.03.04-.04.85.02.89.01,0,.32,0,.33,0,.05-.04-.02-.29.04-.33.01,0,.29,0,.31.02.02.03-.03.34.02.38.02.01.42.01.44,0,.05-.03-.01-.18.04-.22.02-.01.39-.01.4,0,.05.04,0,.52.02.56.05.06.46-.05.51.07-.15.73.38.54.4.51.03-.04-.04-.52.02-.56.04-.03.9.02,1.05,0Z"/>
          <g>
            <path class="cls-31" d="M5.76,13.14s-.02-.15-.04-.18c.49,0,.42.12.04.18Z"/>
            <path class="cls-31" d="M5.78,9.95h1.06c.1.91.05.61-1.06.65v-.65Z"/>
            <path class="cls-58" d="M7.25,11.04c.21-.09.61,0,.46.31-.01.02-.44.03-.46.02-.08-.04-.08-.29,0-.33Z"/>
            <path class="cls-58" d="M4.72,12.09s.51-.09.39.24c-.06.15-.66-.04-.39-.24Z"/>
            <path class="cls-58" d="M5.78,11.66c.26-.18.36.29.26.36-.26.18-.36-.29-.26-.36Z"/>
            <path class="cls-58" d="M6.22,13.25c.13-.07.55.01.39.24-.02.02-.37.03-.39.02-.01,0-.01-.25,0-.25Z"/>
            <path class="cls-96" d="M4.72,12.64c.47-.04.46.17,0,.07v-.07Z"/>
          </g>
        </g>
        <g>
          <path class="cls-73" d="M9.47,13.94c.55-.03,1.1.02,1.65,0l.04.04c0,.29,0,.58,0,.87-.69-.12-.69.45,0,.33,0,.15.04.17.04.18,0,.62-.08,1.26-.04,1.89-.44.06-.11.2-.24.29-.02.01-.34,0-.42,0,.09-.79-1.01-.03-.15.04.15.93-.45.43-.51.6l-.04.63c-.1-.01-.52-.01-.62,0v-.74l-.66-.04c-.02-.16.02-.83,0-.87-.02-.04-.11-.01-.15-.02v-.29l.04-.49c-.02-.09-.11-.15-.11-.16-.02-.11.04-.36-.04-.44-.08-.08-.26-.02-.37-.04-.08-.54.22-.89-.33-.8,0-.02-.18.02-.02-.36.42.11.85,0,1.27-.04.45-.03.51.3.48-.51.06,0,.1-.07.11-.07.02,0,.05,0,.07,0Z"/>
          <path class="cls-58" d="M10.49,17.53c-.17.01-.14.04-.15.04-.86-.06.24-.83.15-.04Z"/>
          <path class="cls-58" d="M8.79,17.2s.63-.02.66,0c.03.02.03.33.02.34-.02.03-.65.04-.68.02-.03-.02-.03-.34,0-.36Z"/>
          <path class="cls-94" d="M10.26,14.34s.4,0,.42.02c.01.02,0,.44-.02.45-.02.01-.39.02-.42-.05-.01-.03,0-.4.02-.42Z"/>
          <path class="cls-58" d="M10.04,15.54c.09-.06.62,0,.42.27-.11.15-.7-.08-.42-.27Z"/>
        </g>
        <path class="cls-86" d="M8.26,15.75c.09.51-.21.45-.26.38-.02-.03.02-.21,0-.25-.05-.12-.11-.08-.11-.09,0-.02,0-.05,0-.07.1.02.29-.04.37.04Z"/>
        <g>
          <path class="cls-83" d="M8.92,19.81c.11.53-.39.31-.44.38-.02.02-.07.55.18.42,0,.01.03.21.06.22h.75c-.11.21-.24.05-.29.13-.02.02,0,.34,0,.42-.01.14-.03.26-.04.4,0,.01,0,.02,0,.04-.12-.26.12-.41-.26-.44.11-.65-.46-.63-.33.04-.07.01-.16.02-.22.04v-.11c-.05-.34.06-1.07.04-1.31.14.02.1-.03.11-.18.07.45.39.36.37-.18,0,0,.04-.04.07.15Z"/>
          <path class="cls-62" d="M10.24,21.34c.25,0,.54-.02.77,0,0,0-.03.05.15.07v.69c-.67.07-1.34.02-2.02.04,0-.11,0-.22,0-.33,0-.01,0-.02,0-.04.1-.03.28.07.35.04.1-.05.04-.34.06-.44.23,0,.46-.04.7-.04Z"/>
          <path class="cls-27" d="M9.94,19.31c.14,0,.27.03.4.04.24.01.48-.01.72,0,.2.54-.22,1.08.46.87,0,.16,0,.31,0,.47-.19-.06-.29,0-.51,0-.07,0-.15,0-.22,0l-.06-.87-1.12.04s0-.07-.04-.15c-.01-.03-.03-.07-.07-.07.36-.38-.64-.08-.59-.33.3-.02.72-.01,1.03,0Z"/>
          <path class="cls-113" d="M11.12,19.05c.07,0,.38-.02.4.02,0,.38-.01.76,0,1.14-.68.21-.26-.33-.46-.87-.24-.01-.48.01-.72,0v-.29c.14-.03.03.18.09.22.03.02.77.07.68-.22Z"/>
          <path class="cls-4" d="M11.52,20.68c0,.25,0,.47,0,.73-.12-.01-.25.01-.37,0-.18-.02-.14-.07-.15-.07v-.65c.23,0,.33-.06.51,0Z"/>
          <path class="cls-67" d="M11.52,21.41s.07.38.04.67c-.03.04-.33.01-.4.02v-.69c.11.01.25-.01.37,0Z"/>
          <path class="cls-19" d="M11.04,19.05s.05,0,.07,0c.09.29-.64.24-.68.22-.06-.04.04-.25-.09-.22v-.04c.26.05.45.03.7.04Z"/>
          <path class="cls-27" d="M8.88,21.37s-.29.03-.33.04c-.13-.66.44-.68.33-.04Z"/>
          <path class="cls-67" d="M8.81,19.31s.05,0,.07,0c-.3.36-.05.34-.04.36.02.54-.3.63-.37.18.01-.16,0-.33,0-.49.06-.09.2-.04.33-.05Z"/>
          <path class="cls-65" d="M9.06,19.92c.11-.01.29.02.37,0,.19.04-.11.45.37.29.02.12.06.23.04.36v.07c-.07,0-.33-.01-.35,0-.04.03,0,.15-.02.18h-.75s-.06-.21-.06-.22c.07-.34.27-.09.33-.24.03-.06-.02-.33,0-.44,0-.03.07-.01.07-.02Z"/>
          <path class="cls-71" d="M9.83,20.65c.1,0,.26.04.37.04l.04.65c-.24,0-.47.03-.7.04-.02,0-.13-.09-.37,0,0-.07-.02-.39,0-.42.05-.07.18.09.29-.13.02-.03-.03-.15.02-.18.01-.01.27,0,.35,0Z"/>
          <path class="cls-10" d="M9.43,19.67c-.13.05-.22.04-.35.04-.09.16-.02.21-.02.22,0,0-.07-.01-.07.02-.02.11.03.38,0,.44-.06.14-.26-.1-.33.24-.25.13-.2-.39-.18-.42.05-.07.55.15.44-.38.15-.22.26-.13.51-.15Z"/>
          <path class="cls-30" d="M9.5,19.63s-.03.02-.07.04c-.25.01-.36-.07-.51.15-.04-.18-.07-.14-.07-.15-.01-.02-.26,0,.04-.36.01,0,.02,0,.04,0-.05.24.94-.05.59.33Z"/>
          <path class="cls-2" d="M9.54,21.37c-.02.1.05.38-.06.44-.07.03-.25-.07-.35-.04,0-.14.02-.26.04-.4.24-.09.35,0,.37,0Z"/>
          <path class="cls-58" d="M10.27,18.94s.07.07.07.07v.33c-.13,0-.26-.03-.4-.04.01-.09-.01-.29,0-.31.02-.02.27-.03.33-.05Z"/>
          <path class="cls-95" d="M10.79,20.68c.07,0,.15,0,.22,0v.65c-.23-.02-.52,0-.77,0l-.04-.65c.2,0,.39,0,.59,0Z"/>
          <path class="cls-77" d="M10.79,20.68c-.2,0-.39,0-.59,0-.11,0-.27-.04-.37-.04v-.07c.45.29.44-.99-.07-.65-.02-.07-.08,0-.15-.07l1.12-.04.06.87Z"/>
          <path class="cls-58" d="M9.61,19.85c.07.07.13,0,.15.07-.02.2.03.27.04.29-.47.16-.18-.25-.37-.29.01,0,.12-.13.15-.22.03.07,0,.11.04.15Z"/>
          <path class="cls-91" d="M9.58,19.71c-.03.09-.13.21-.15.22-.08.02-.26-.01-.37,0,0-.01-.07-.05.02-.22.13,0,.22,0,.35-.04.04-.01.03.01.07-.04.04,0,.06.04.07.07Z"/>
          <path class="cls-4" d="M9.83,20.58c.02-.13-.02-.24-.04-.36,0-.02-.06-.09-.04-.29.51-.34.52.94.07.65Z"/>
        </g>
        <g>
          <path class="cls-67" d="M11.48,11.55c-.21,0-.38-.06-.33.22h-.04c-.09-.18,0-.55-.04-.6-.03-.04-.48-.01-.57-.02-.03,0-.01-.07-.02-.07.01-.09-.02-.24,0-.29,0-.02.07-.07.07-.07.09-.03.69.02.9,0,.04.03.01.72.02.83Z"/>
          <path class="cls-18" d="M11.48,11.55c.02.6-.04,1.18,0,1.78l-.37.04c-.01-.22-.04-.47-.07-.69.05,0,.16.02.18-.02.02-.03.04-.68.04-.76,0-.06-.11-.12-.11-.13-.05-.28.12-.22.33-.22Z"/>
          <path class="cls-15" d="M11.48,13.33c.01.19,0,.39,0,.58l-.33.07-.04-.04c0-.19,0-.39,0-.58l.37-.04Z"/>
          <path class="cls-15" d="M9.1,11.44c-.07.04-.5-.06-.55.05v1.14s-.01.08-.22.02c0-.2,0-.4,0-.6.28-.08.06-.41.18-.62.03,0,.41-.1.59,0Z"/>
          <path class="cls-19" d="M8.51,11.44c-.12.2.1.54-.18.62,0-.22,0-.44,0-.65.23.02.17.04.18.04Z"/>
          <path class="cls-58" d="M10.49,10.79c-.02.05.01.2,0,.29-.02,0,.08.05-.44.07-.02-.45-.03-.46.44-.36Z"/>
          <g>
            <path class="cls-27" d="M10.27,11.51c-.08.02-.32-.01-.48,0-.07,0-.15,0-.22,0-.11.01-.66.09-.7.16,0,.33.02.64-.04.96-.1,0-.2,0-.29,0v-1.14c.05-.12.48-.02.55-.05.09-.05-.03-.18.11-.25-.16.61.5.04,1.17.27-.13.02-.1.05-.11.05Z"/>
            <path class="cls-66" d="M9.58,11.51c.02.11-.06.06-.15.07-.16.02-.3.06-.46.07-.08.05-.05.11-.06.18-.02.26.02.2.07.22.06.02.29-.02.4,0,0,.11,0,.22,0,.33-.01,0-.1.04-.22.05v.85c-.36-.05-.39.18-.37-.54.02-.07.03-.09.04-.11.05-.33.04-.63.04-.96.03-.07.59-.15.7-.16Z"/>
            <path class="cls-10" d="M11.12,11.77s-.29.07-.33.07c-.02,0-.13-.06-.44-.04l-.07-.29s-.02-.03.11-.05c-.68-.23-1.34.34-1.17-.27.02-.01.13,0,.18,0,.21-.02.45-.03.66-.04.52-.03.42-.07.44-.07,0,0-.01.07.02.07.09,0,.54-.02.57.02.03.04-.05.42.04.6Z"/>
            <path class="cls-58" d="M11.04,12.67c-.16.02-.27.03-.29-.15,0-.03.08-.53.04-.69.04,0,.28-.04.33-.07h.04s.11.07.11.13c0,.08-.01.73-.04.76-.03.04-.14.01-.18.02Z"/>
            <path class="cls-12" d="M10.27,11.51l.07.29c-.75.06-.26.16-.51.65-.07,0-.42-.08-.44-.07,0-.11,0-.22,0-.33,0-.05,0-.1,0-.15.46,0,.49.07.4-.4.15-.01.39.02.48,0Z"/>
            <path class="cls-109" d="M9.8,11.51c.09.47.05.4-.4.4,0-.12.05-.21.04-.33.09,0,.16.03.15-.07.07,0,.15,0,.22,0Z"/>
            <path class="cls-16" d="M9.43,11.59c.02.12-.03.21-.04.33,0,.05,0,.1,0,.15-.11-.02-.34.02-.4,0,.08-.15.15-.24-.07-.22,0-.07-.02-.13.06-.18.16,0,.3-.06.46-.07Z"/>
            <path class="cls-16" d="M8.99,12.06c-.05-.02-.09.04-.07-.22.22-.02.15.07.07.22Z"/>
            <path class="cls-3" d="M10.35,11.8c.31-.03.42.04.44.04.04.16-.04.65-.04.69h-.9s-.01-.07-.02-.07c.25-.49-.24-.59.51-.65Z"/>
            <g>
              <path class="cls-62" d="M9.83,12.46s-.01.07.02.07h.9c.02.18.14.16.29.15.03.22.06.47.07.69,0,.19,0,.39,0,.58-.55.02-1.1-.03-1.65,0-.02-.28.06-.61-.07-.65-.07,0-.15,0-.22,0v-.85c.12-.01.21-.05.22-.05.02,0,.37.07.44.07Z"/>
              <path class="cls-25" d="M9.47,13.94s-.05,0-.07,0v-.65c.13.04.05.38.07.65Z"/>
              <path class="cls-46" d="M10.48,12.56c.22-.15.24.17.26.18.03.02.24-.03.28.02.02.02,0,.51-.02.53s-.52,0-.53-.02c-.02-.03-.01-.69.02-.71Z"/>
            </g>
          </g>
        </g>
      </g>
      <g>
        <path class="cls-82" d="M24.91,18.98c-.02.25,0,.51,0,.76.01.4.06.81.04,1.21h.77l-.04-1.98h.07c0,.68,0,1.37,0,2.05l-.79.02c.05,1.1-.25.59-.44.73-.05.04.03.24-.07.29-.07.03-1.4,0-1.63,0-.01,0-.17-.11-.29.02-.03.29.04.29.04.31-.05.61-.22.25-.29.42-.02.06.03.27-.02.31-.08.06-1.79-.04-2.05,0l-.07.65c-.2.03-1.41-.04-1.47,0-.05.03.03.21-.07.25-.29.12-.46-.37-.44.65-.76-.07-.46.19-.55.25-.05.04-1.11-.03-1.28,0l-.07.65c-.5,0-.99,0-1.49,0-.19,0-.39-.04-.59-.04.13-.1.45,0,.57-.04.07-.03.03-.23.02-.24-.05-.05-.15.02-.26-.05.68-.04.88.18.81-.4.02,0,.05,0,.07,0,.51-.02.2-.18.31-.25.1-.07.58.21.39-.4.41-.05.12-.15.28-.22.08-.03.6.04.64-.02.01-.02.01-.49,0-.51-.04-.05-.13.03-.18-.05.59.03.41-.03.44-.51,0-.1.04-.07.04-.07.06,0,.12,0,.18,0,.01.11-.02.46,0,.49.04.06,1.42.1,1.49.05.05-.03,0-.42.02-.51.87,0,.39-.31.64-.4.22-.08.75.24.68-.2.63-.12-.22-.64.79-.53,0-.47.09-.34.09-.36.55.05.3-.13.37-.36.01-.05.07-.03.11-.09-.08-.67.23-.33.35-.42.09-.06-.21-.28.5-.22l.09.11h1.1c.18-.53-.2-.53.5-.63-.04-.18-.09-.79.18-.71.32,0,.56.04.51-.07l.04.04Z"/>
        <path class="cls-35" d="M25.75,6.04c-.02,4.31.03,8.63,0,12.94h-.07c-.12,0-.24,0-.37,0-.13,0-.27,0-.4,0l-.04-.04c0-.58,0-1.16,0-1.74,0-.39.07-.79.07-1.18.02-1.72-.07-3.44-.07-5.17,0-.54,0-1.09,0-1.63,0-1.07.04-2.15.07-3.23l.81.04Z"/>
        <path class="cls-14" d="M17.54,1.87c.15-.02.48,0,.66,0,.1,0,.2-.01.29,0,.07,0,.2-.02.22.02l.04.6s.03,0,.04,0c.01.08-.03.37.02.4.05.04,1.18.03,1.25-.11l.06.05c-.02.07-.11.12-.11.13h-2.27c.07-.13.14-.02.18-.16.19-.56-.4-.34-.51-.34-.32-.02-.65-.06-.97-.04-.04-.03-.01-.13-.02-.18.16-.1.75.01.79,0,.17-.05-.27-.29.35-.36Z"/>
        <path class="cls-117" d="M17.68,1c-.07-.01-.15.08-.18.07,0,0,.01-.07-.02-.07-.47-.03-1.65-.01-2.22,0v-.4c.31,0,2.26-.05,2.37,0,.1.05.04.32.06.4Z"/>
        <path class="cls-99" d="M21.02,2.74h1.19c.02.23.05.21.06.22,0,.02-.07.17-.07.18-.2-.31-1.94.12-1.83-.27-.07-.11-.2,0-.26-.13h.92Z"/>
        <path class="cls-38" d="M24.98,4.88c0,.51.02,1.21.18,1.05-.08.02-.13.04-.22.04-.06,0-.3.02-.33-.02.01-.22-.02-.45,0-.67.03-.36-.12-.43.37-.4Z"/>
        <path class="cls-19" d="M17.68,1s-.1.08.33.09c-.17,1.08.62.29.48.78-.09-.01-.2,0-.29,0,.03-.16-.3-.1-.66-.11-.01,0-.02,0-.04,0v-.69s.12-.09.18-.07Z"/>
        <path class="cls-60" d="M23.04,3.32l.04.25s-.04.04-.18.04c-.23,0-.46,0-.7,0,0-.16-.01-.32,0-.47,0,0,.07-.16.07-.18.71-.03.03.47.77.36Z"/>
        <path class="cls-82" d="M25.75,6.04l-.81-.04v-.04c.09,0,.14-.02.22-.04.47-.1.14-.16.28-.25.23-.16.4.15.31.36Z"/>
        <path class="cls-81" d="M22.82,22.06c0,.32.07.35-.26.33,0-.02-.06-.02-.04-.31.12-.13.28-.02.29-.02Z"/>
        <path class="cls-35" d="M14.86,9.74c.03.29-.14.46.22.51-.03.15.04.17.04.18,0,.28-.1.59,0,.87h-.15c0-.41-.01-.84-.2-1.2-.36-.03-.26.07-.28.07-.05,0-.03-.08-.06-.07-.53.12.16.27-.79.34-.06,3.65.08,7.31,0,10.97,0,.43-.02.88.04,1.31-.23.37-.03,1.41-.42,1.23-.25.4-.12-.03-.35-.15.05-4.57,0-9.14-.04-13.7l.02-.47c.57.02,1.15.02,1.72.04.01,0,.21.07.24.07Z"/>
        <path class="cls-35" d="M17.24,22.13c0,.21.05.46.04.65,0,0-.03-.03-.04.07-.58-.25-.56.31-.44.51.05.08.15,0,.18.05.01.02.01.49,0,.51-.04.06-.57-.01-.64.02-.16.07.14.17-.28.22-.2.02-.44-.02-.64,0l-.06.65s-.05,0-.07,0c-.27,0-.55-.08-.83-.04-.07.03-.11.35.02.44.11.07.2,0,.26.05,0,0,.05.21-.02.24-.12.04-.44-.06-.57.04-.43,0-.86,0-1.28,0,0-.58.03-1.16.04-1.74.22.11.1.55.35.15.39.18.2-.87.42-1.23.25.1.52,0,.77,0,.48,0,.38-.04.4-.04.02,0-.1.07.33.07-.03.55.05.36.37.4.11.02.25.03.37.04.01.07-.03.33.02.36.03.02.6.05.62.04.09-.04.06-.38.04-.4-.02-.02-.5,0-.61,0-.06-.05-.11-.41-.11-.44.07-.55.54.24.53-.65.14.03.37-.04.39-.04.13,0,.23.11.44.07Z"/>
        <path class="cls-72" d="M17.46,5.13c.23.02.43.03.66.04-.33.38-.1.62-.22,1.09-.13,0-.27,0-.4,0-.09-.14.02-.38-.09-.44-.03-.01-.63-.01-.66,0-.11.05-.03.28-.06.34-.09.21-.25-.24-.29.38-.4,0-.8-.01-1.19,0-.03,0-.01.07-.02.07-.12,0-.25,0-.37,0-.35,0-.72-.08-1.08-.04.03-.84-.23-.45-.37-.54-.05-.03,0-.19-.02-.24-.07-.16-.34.23-.26-.63.15,0,.32-.03.48-.04.17,0,.34,0,.51,0,.06,0,.3.03.33-.02.03-.05-.06-.4.06-.45.05-.02.43.01.57,0,.18-.02.35-.03.53-.04.03,0,0-.07.06-.07.43-.02.9.09,1.34.04.12.05.02.48.06.53.03.04.36.01.44.02Z"/>
        <path class="cls-35" d="M19.96,10.14c-.06.41-.46.02-.55.2,0,.25,0,.5,0,.74-.17-.02-.24.04-.26.04-.02,0-.35-.11-.48.02v.67c-.3,0-.61.08-.92.04,0,0-.1.02-.11-.02,0-.02.12-.38-.02-.49l-.75-.04v-.07c.24-.26-.17-.94.33-.73.06.23.79.06,1.05.11.07-.11-.02-.45-.02-.47.09-.72.61.09.57-.73.18.09.29-.19.37-.22.05-.02.23.09.28.02.13-.19-.63.03-.37-.2.32.08.31-.07.33-.07.03,0,.05.07.48.13-.07.51,0,.4,0,.44.03.34-.06.67.07.63Z"/>
        <path class="cls-108" d="M22.97,6.51c-.02.27.04.34.04.36,0,.31-.07.63-.04.94-.28.02-.58-.02-.86,0l-.06.67c-.05.08-.11.05-.11.05-.09.02-.52-.03-.55.02-.04.06.03,1.22,0,1.41l.62.02c.02.39-.04.62-.04.65-.14-.06-.32-.04-.48-.04.08-.79-.11-.42-1.1-.53l-.04-1.07c.05,0,.19.02.22-.02.02-.03-.03-.38.02-.42.15-.1.45.28.51-.4.72.09.38-.27.46-.38.03-.04.23-.01.29-.02.14-.01.99.04,1.03-.05v-.8c-.06-.08-.14-.05-.22-.05,0-.37-.08-.39.29-.36Z"/>
        <path class="cls-58" d="M20.36,9.01l.04,1.07c.99.11,1.18-.26,1.1.53-.51,0-1.01,0-1.52,0-.14.06-.01.74-.02.87,0,.03-.07.31-.07.33-.15,0-.29,0-.44,0-.07-.22-.04-.49-.04-.73,0-.25,0-.5,0-.74.09-.18.49.21.55-.2.04-.25-.03-.76,0-1.07.04-.1.26-.04.4-.05Z"/>
        <path class="cls-5" d="M22.2,3.61c.23,0,.46,0,.7,0,.15.7-.5.28-.75.4-.1.05,0,.21-.11.25-.05.03-.44-.02-.48,0-.09.06.17.44-.33.36-.07.56-.31.21-.39.38-.12.28.29.28-.44.31.05-.26.04-.52.04-.78,0-.03-.07-.01-.07-.02,0-.03.04-.03.04-.11.53.07.19,0,.35-.8.48,0,.97,0,1.45,0Z"/>
        <path class="cls-37" d="M16.18,7.05c.1.62-.25.33-.35.4-.05.03,0,.28-.02.31-.04.05-.26,0-.31.02-.12.05,0,.31-.11.36-.16.07-1.1-.03-1.34-.04v-.47c.07-.01.34.03.37-.02.02-.02-.01-.34,0-.45.5-.04.38-.1.4-.11.06-.01.29.15.37-.07-.08.15.52.09.99.07Z"/>
        <path class="cls-37" d="M18.71,5.17c.02.26.16.17.44.18.16.46-.14.28-.18.34-.02.03.03.27-.02.31-.03.02-.48-.02-.51,0-.18.12.36.22-.53.25.12-.46-.11-.71.22-1.09.19,0,.39,0,.59,0Z"/>
        <path class="cls-21" d="M24.1,6c-.5-.1-.21.37-.29.49-.04.05-.39-.09-.22.34-.01,0,.06.04-.26.04-.11,0-.22,0-.33,0,0-.02-.06-.09-.04-.36,0-.08.02-.43.04-.45.04-.05.4.02.44-.04.02-.03-.02-.26,0-.29.04-.05.26.01.29-.04.03-.04-.06-.37.06-.42.51-.22.3.52.31.73Z"/>
        <path class="cls-37" d="M17.5,6.26c-.69.05-.22.25-.37.45-.04.05-.35,0-.39.02-.05.04.02.29-.04.33-.02.01-.28.06-.31-.07-.01-.04,0-.34,0-.44.05-.62.2-.17.29-.38.03-.06-.05-.3.06-.34.03-.01.63-.01.66,0,.11.05,0,.29.09.44Z"/>
        <path class="cls-76" d="M24.1,6s.07.03.07.05c.03.56-.02,1.12-.04,1.69h-.37v-.82c-.08-.1-.1-.08-.18-.09-.17-.44.18-.29.22-.34.08-.12-.2-.58.29-.49Z"/>
        <path class="cls-35" d="M15.52,9.7c.15,0,.33.02.48.04.12.01.23.05.35.04.01.11.08.14.09.18,0,.02-.07.15-.04.44-.04,0-.02.11-.84.07,0,0,.04-.02-.15-.04v-.22l-.04-.47s0-.05.15-.04Z"/>
        <path class="cls-21" d="M21.87,7.78c.15.02.03-.36.07-.45.05-.11.34-.03.39-.05.09-.06-.17-.42.35-.4.08,0,.16-.03.22.05v.8c-.03.09-.88.04-1.03.05Z"/>
        <path class="cls-105" d="M14.05,7.13v.98c-.23,0-.47-.01-.7,0v-.73c0-.08,0-.17,0-.25.23,0,.46,0,.7,0Z"/>
        <path class="cls-45" d="M16.4,6.55c0,.09-.01.39,0,.44.02.11-.08.07-.22.07-.47.02-1.07.07-.99-.07.02-.06-.01-.26,0-.36,0,0-.01-.07.02-.07.4-.01.8,0,1.19,0Z"/>
        <path class="cls-58" d="M18.23,10.14s.09.36.02.47c-.25-.05-.99.12-1.05-.11-.14-.55.26-.32,1.03-.36Z"/>
        <path class="cls-35" d="M23.37,7.74c.13,0,.27,0,.4,0h.37c0,.17-.02.34-.04.51h-.88c0-.16-.1-.35,0-.51.05,0,.1,0,.15,0Z"/>
        <path class="cls-58" d="M15.37,9.74l.04.47c-.23-.03-.31.04-.33.04-.36-.05-.19-.22-.22-.51.17,0,.34-.01.51,0Z"/>
        <path class="cls-58" d="M24.1,8.25c0,.1-.03.2-.04.29h-.81s-.02-.02-.04-.29h.88Z"/>
        <path class="cls-58" d="M19.41,8.94s-.01.16-.33.07c-.2-.05-.12-.44-.06-.47.31-.14.46.09.39.4Z"/>
        <path class="cls-58" d="M16,9.74c-.15-.02-.33-.03-.48-.04-.14-.54.64-.52.48.04Z"/>
        <g>
          <path class="cls-93" d="M24.54,3.65c.1,0,.07.04.07.04v1.03c-.7-.14-.69.74,0,.56-.02.22.01.45,0,.67.03.04.27.02.33.02v.04c-.03,1.07-.07,2.15-.07,3.23l-.81-.07c.02-.1-.04-.12-.04-.15.03-.26.03-.35.04-.47,0-.09.03-.19.04-.29.01-.17.03-.33.04-.51.02-.56.07-1.12.04-1.69,0-.03-.07-.05-.07-.05-.01-.21.2-.95-.31-.73-.11.05-.02.37-.06.42-.04.05-.26-.01-.29.04-.02.03.02.26,0,.29-.04.05-.4-.02-.44.04-.01.02-.03.38-.04.45-.38-.02-.29,0-.29.36-.51-.03-.26.34-.35.4-.04.03-.34-.05-.39.05-.04.1.08.48-.07.45-.06,0-.27-.02-.29.02-.08.12.26.47-.46.38-.06.67-.37.3-.51.4-.05.04,0,.38-.02.42-.03.04-.17.01-.22.02-.14.02-.36-.04-.4.05-.03.31.04.82,0,1.07-.14.03-.05-.3-.07-.63,0-.03-.07.08,0-.44-.43-.05-.45-.12-.48-.13.08-.31-.07-.54-.39-.4-.06.03-.14.42.06.47-.26.23.49.01.37.2-.05.07-.22-.03-.28-.02-.08.02-.18.31-.37.22.04.81-.48,0-.57.73-.77.04-1.17-.19-1.03.36-.5-.21-.09.46-.33.73.07-1.12-.15-.71-.22-.82-.07-.1.17-.44-.22-.45,0-.04-.08-.07-.09-.18-.12.01-.23-.02-.35-.04.16-.56-.62-.58-.48-.04-.14,0-.14.04-.15.04-.17-.01-.34,0-.51,0-.03,0-.23-.07-.24-.07-.57-.02-1.15-.01-1.72-.04l-.02.47h-.04c0-.4-.03-1.55,0-1.7,0-.02.06,0,.13-.29.13,0,.26,0,.39,0,.23-.01.47,0,.7,0,.24,0,1.18.1,1.34.04.12-.05,0-.31.11-.36.06-.02.28.03.31-.02.02-.03-.03-.27.02-.31.1-.07.45.22.35-.4.14,0,.24.03.22-.07.04.13.3.08.31.07.05-.04-.02-.29.04-.33.03-.02.35.03.39-.02.14-.2-.33-.41.37-.45.13,0,.27,0,.4,0,.89-.03.35-.13.53-.25.03-.02.48.02.51,0,.05-.03,0-.28.02-.31.04-.06.34.12.18-.34.3.01.91-.02,1.25-.04.73-.03.32-.03.44-.31.08-.17.32.18.39-.38.5.08.24-.3.33-.36.04-.02.42.03.48,0,.1-.05,0-.21.11-.25.25-.12.9.3.75-.4.15,0,.17-.04.18-.04,0,0,.03.07.06.07.44.01,1.04-.03,1.41,0Z"/>
          <path class="cls-58" d="M19.72,7.67s.77-.02.81,0c.08.03.07.36.06.38-.03.04-.86.04-.9.02-.03-.02-.05-.36.04-.4Z"/>
          <path class="cls-58" d="M18.62,9.34c.21.02.3.58-.33.44-.11-.31,0-.47.33-.44Z"/>
          <path class="cls-58" d="M20.6,6.91s.37,0,.39.02c.01.02,0,.36-.02.38-.29.21-.53-.29-.37-.4Z"/>
        </g>
        <path class="cls-93" d="M20.58,20.32s.11.1.11.15c0,.04-.08.29-.04.38.04.1.35.04.44.05.06,0,.01.07.07.07-.08.27,0,.34,0,.36,0,.02-.08-.11-.09.36-1.01-.12-.16.41-.79.53.07.44-.46.12-.68.2-.25.09.23.41-.64.4,0,0,.01-.07-.02-.07-.33,0-1.04-.05-1.23-.04l-.04-.36s.4-.07.64-.04c.03-.02.03-.44.02-.51,0,0,.02.02,0-.11.72.06.47-.04.51-.94.18,0,.35,0,.53,0,.13-.14.02-.45.02-.47,0-.12.05-.23.04-.36.28.03.42-.04.44-.04.82.02.04.5.7.44Z"/>
        <path class="cls-26" d="M22.05,18.98c.42.01.45.11.48.11l-.04,1.16c-.7-.07-.41.16-.5.22-.12.08-.43-.25-.35.42-.04.06-.1.04-.11.09-.21-.1-.35,0-.37,0-.06,0-.01-.06-.07-.07.11-.42.06-.57-.4-.44,0-.05-.11-.13-.11-.15,0,0,.07.01.07-.02,0-.37,0-.74,0-1.11,0-.02,0-.05,0-.07.52.12.45-.03.48-.04.1-.03.23-.09.22-.04-.2.54.57.43.61.4.04-.03.23-.59-.57-.44.08-.06.53-.04.66-.04Z"/>
        <path class="cls-33" d="M25.68,18.98l.04,1.98h-.77c.03-.41-.02-.81-.04-1.21.59-.04.27-.1.4-.76.12,0,.24,0,.37,0Z"/>
        <path class="cls-32" d="M18.97,22.82c-.01.09.03.48-.02.51-.06.04-1.44,0-1.49-.05-.02-.03.01-.38,0-.49.29,0,.22-.07.26-.07.19,0,.9.03,1.23.04.03,0,.01.07.02.07Z"/>
        <path class="cls-58" d="M15.3,24.82c.07.57-.12.36-.81.4-.13-.09-.09-.4-.02-.44.27-.04.56.04.83.04Z"/>
        <path class="cls-58" d="M16.07,24.16c.2.61-.28.33-.39.4-.11.08.19.24-.31.25l.06-.65c.2-.02.44.02.64,0Z"/>
        <path class="cls-35" d="M25.31,18.98c-.13.66.19.72-.4.76,0-.25-.02-.51,0-.76.13,0,.27,0,.4,0Z"/>
        <path class="cls-58" d="M17.24,22.86c-.03.48.15.54-.44.51-.12-.19-.14-.75.44-.51Z"/>
        <path class="cls-58" d="M21.54,20.97c-.07.23.18.41-.37.36,0-.02-.08-.09,0-.36.02,0,.16-.1.37,0Z"/>
        <path class="cls-93" d="M24.87,17.2c-.03-.17-.62.05-.7-.09-.01-.35.02-.7,0-1.05,0-.03-.07,0-.07-.05,0-.02.05,0,.04-.33-.01-.45,0-.89,0-1.34,0-.52-.01-1.04,0-1.56,0-.35-.01-.74,0-1.05.03-.86-.1-.82.73-.87,0,1.72.09,3.44.07,5.17,0,.38-.07.79-.07,1.18Z"/>
        <path class="cls-72" d="M16.36,1.8c.08.13.02.3.04.44,0,.05-.02.15.02.18.33-.03.65.02.97.04v.83c-.08,0-.28.04-.29.04-.98.03-1.45-.26-1.5.54h-.55c0-.22,0-.45,0-.67-.04-.1-.35-.04-.44-.05,0,0,.01-.03-.04-.04.04-.2.12-.46-.07-.51v-1.27c.15.01.79-.02.83,0,.06.04-.04.38.07.44.04.02.84.03.97.04Z"/>
        <path class="cls-58" d="M20.1,2.74c.06.13.18.02.26.13-.11.4,1.63-.04,1.83.27-.01.16,0,.32,0,.47-.48,0-.97,0-1.45,0-.16.79.18.87-.35.8,0-.15.03-1.06,0-1.11-.08-.11-.48.2-.4-.34,0,0,.09-.05.11-.13l-.06-.05c-.07.14-1.19.15-1.25.11-.04-.03,0-.32-.02-.4.2.04,1.25-.04,1.3,0,.05.03,0,.2.02.25Z"/>
        <path class="cls-47" d="M17.5,1.76s.02,0,.04,0v.11c-.62.07-.18.32-.35.36-.04.01-.62-.1-.79,0-.02-.14.04-.3-.04-.44.37,0,.76-.04,1.14-.04Z"/>
        <path class="cls-84" d="M17.72,2.96c-.07.14-.02.28-.04.31-.03.04-.23.01-.29.02v-.83c.11,0,.7-.22.51.34-.05.14-.11.03-.18.16Z"/>
        <path class="cls-106" d="M18.2,1.87c-.18,0-.51-.02-.66,0v-.11c.37,0,.69-.05.66.11Z"/>
        <path class="cls-58" d="M15.26,1c.57-.01,1.75-.03,2.22,0,.03,0,.01.07.02.07v.69c-.38,0-.77.04-1.14.04-.13,0-.93-.02-.97-.04-.12-.05-.01-.39-.07-.44-.03-.02-.67.01-.83,0,0,0-.15-.07-.18-.07-.02-.37.24-.24.95-.25Z"/>
        <path class="cls-22" d="M14.31,1.25s.17.07.18.07v1.27c-.07-.02-.33.03-.37-.02.04-.49-.07-.43-.07-.45,0-.04.1-.57,0-.87.08,0,.17,0,.26,0Z"/>
        <path class="cls-76" d="M14.49,10.17c-.04.51.04,1.02.04,1.52,0,.48-.03.97-.04,1.45,0,.76-.04,1.52-.04,2.28,0,.01,0,.02,0,.04,0,.3-.06,2.2,0,2.3,0,.02.36-.02.37-.04.05-.06-.06-.34.04-.42-.02.17.01.34,0,.51-.07,0-.3-.02-.33.02-.01.67.02,1.34,0,2.01-.01.49-.07.99-.04,1.49l-.04.04-.81.04c.08-3.65-.06-7.31,0-10.97.95-.08.26-.23.79-.34.03,0,0,.08.06.07Z"/>
        <path class="cls-42" d="M14.46,21.37v1.34c-.25,0-.52.1-.77,0-.06-.43-.05-.87-.04-1.31l.81-.04Z"/>
        <path class="cls-26" d="M14.97,11.3c0,.45.07.41-.44.4,0-.5-.08-1.02-.04-1.52.02,0-.08-.11.28-.07.19.36.2.79.2,1.2Z"/>
        <path class="cls-102" d="M15.41,10.21v.22c-.1,0-.2,0-.29,0,0,0-.06-.04-.04-.18.02,0,.1-.06.33-.04Z"/>
        <path class="cls-48" d="M14.86,22.68s.08.03-.4.04v-1.34l.04-.04c.59-.14.3.54.37,1.34Z"/>
        <path class="cls-21" d="M17.1,21.41c.11,0,.12.04.15.04-.04.2.04.42.04.62,0,.03-.04.04-.04.07-.21.04-.31-.07-.44-.07v-.63s.23-.01.29-.02Z"/>
        <path class="cls-41" d="M16,23.19c.1,0,.58-.02.61,0,.03.02.05.36-.04.4-.03.01-.6-.02-.62-.04-.04-.03,0-.29-.02-.36.02,0,.05,0,.07,0Z"/>
        <path class="cls-93" d="M15.89,22.75s.05.39.11.44c-.02,0-.05,0-.07,0-.12,0-.25-.02-.37-.04v-.36s.1-.06.33-.04Z"/>
        <path class="cls-54" d="M15.56,22.79v.36c-.32-.04-.4.15-.37-.4.12,0,.26.04.37.04Z"/>
        <g>
          <g>
            <path class="cls-58" d="M20.36,4.52s.07-.01.07.02c0,.26.01.52-.04.78-.34.02-.95.05-1.25.04-.28,0-.42.08-.44-.18.42,0,.84,0,1.27,0l.06-.6-1.56-.05v-.58c.16-.03,1.13.03,1.17,0,.05-.04-.02-.36.04-.4.01-.01.35-.01.37,0,.14.1-.23,1.17.31.98Z"/>
            <path class="cls-67" d="M17.98,2.96l.02.76h1.5c.1-.25.1-.5.09-.76h.4c-.07.55.32.23.4.34.03.05,0,.95,0,1.11,0,.08-.04.08-.04.11-.54.19-.17-.88-.31-.98-.01-.01-.35-.01-.37,0-.05.04.02.36-.04.4-.05.03-1.01-.03-1.17,0v.58l1.56.05-.06.6c-.42,0-.84,0-1.27,0-.19,0-.39,0-.59,0-.23,0-.43-.01-.66-.04-.17-1.25.74-.02.59-1.14-.98-.29-.5.34-.62.51-.02.02-.4.03-.42.02-.06-.04.04-.38-.07-.44-.07-.03-.46.04-.5-.02-.01-.01-.01-.35,0-.36.1-.14.82.26.66-.38.01,0,.21-.03.29-.04.06,0,.27.02.29-.02.02-.03-.03-.17.04-.31h.26Z"/>
            <path class="cls-82" d="M19.59,2.96c0,.26,0,.51-.09.76h-1.5l-.02-.76h1.61Z"/>
          </g>
          <path class="cls-58" d="M17.1,3.32c.16.64-.56.24-.66.38-.01.01-.01.35,0,.36.04.06.43-.01.5.02.12.05.01.39.07.44.02.01.4,0,.42-.02.12-.17-.36-.79.62-.51.15,1.13-.76-.11-.59,1.14-.08,0-.41.02-.44-.02-.03-.05.06-.47-.06-.53-.44.05-.91-.05-1.34-.04.04-.24-.04-.65-.04-.69.05-.8.53-.52,1.5-.54Z"/>
        </g>
        <path class="cls-79" d="M15.59,3.86s.07.45.04.69c-.06,0-.03.07-.06.07-.18.01-.35.02-.53.04,0-.27,0-.53,0-.8h.55Z"/>
        <path class="cls-69" d="M15.19,6.62c-.01.11.02.3,0,.36-.07.22-.31.06-.37.07v-.44c.12,0,.25,0,.37,0Z"/>
        <path class="cls-21" d="M21.5,10.61c.15,0,.34-.03.48.04,0,.01.04-.01.06.25.8-.1.39.39.51,1.38.17-.03,1.2.04,1.25,0,.12-.08-.21-.67.35-.54-.01.31,0,.71,0,1.05-.7-.14-.29.45-.4.67-.03.06-.11-.05-.17-.02-.08.04-.05.14-.06.15,0,0,0,.05-.07.07-.07.02-.3-.01-.44,0-.13.01-.31-.03-.39.07-.39-.09-.29-.14-.31-.15-.06-.49.24-1.09-.48-.82.03.36-.07.84.07.82-.14.05-.14.54-.15.73,0-.03,0-.03-.04-.04l.04-1.5c-.93-.04-.4-.37-.57-.49-.02-.01-.38,0-.46,0-.04,0-.07,0-.11,0v-.78l-.66-.02c0-.13-.12-.81.02-.87.51,0,1.01,0,1.52,0Z"/>
        <path class="cls-76" d="M23.22,7.74c-.1.16,0,.35,0,.51.01.27.04.27.04.29,0,.02-.06.23-.06.33-1.42-.19,0,.84-1.19.8-.01-.38-.11-.74-.07-1.12,0,0,.06.02.11-.05l.06-.67c.29-.02.58.02.86,0,.02,0,0-.06.26-.07Z"/>
        <path class="cls-58" d="M21.94,8.54c-.04.39.06.75.07,1.12,0,.11,0,.22,0,.33l-.62-.02c.03-.19-.04-1.36,0-1.41.03-.05.46,0,.55-.02Z"/>
        <g>
          <path class="cls-67" d="M24.07,8.54c-.01.12,0,.21-.04.47-.61-.03-.39.03-.44.44-.33.03-.49-.13-.48.29-.03,0-.4.06-.51.05v1.09s.8.02.92.02c.02,0,.05,0,.07,0,.2-.01.41.04.48-.05.04-.24-.08-.9.07-1,.03-.02.14.03.18-.05.14-.29-.32-.45-.26-.05h-.48c0-.09-.01-.2,0-.29.14-.01.28,0,.42,0,.06-.09.04-.19.06-.29l.81.07c0,.54,0,1.09,0,1.63-.84.05-.7,0-.73.87-.56-.13-.23.46-.35.54-.05.04-1.08-.03-1.25,0-.13-.98.29-1.47-.51-1.38-.02-.27-.05-.24-.06-.25,0-.03.06-.26.04-.65,0-.11,0-.22,0-.33,1.19.04-.22-.99,1.19-.8,0-.1.05-.31.06-.33h.81Z"/>
          <path class="cls-58" d="M24.03,9.01s.05.05.04.15c-.02.1,0,.2-.06.29-.14,0-.28-.01-.42,0,.05-.4-.17-.47.44-.44Z"/>
          <path class="cls-114" d="M24.07,9.74c.02.1.04.04.07.11-.16.1-.03.76-.07,1-.07.1-.27.04-.48.05-.09-.46.04-.99-.07-1.09,0,0,.07-.06.07-.07h.48Z"/>
          <path class="cls-61" d="M23.11,9.74s.07.04.07.07c-.02,0-.06-.02-.11.05.05.96-.22,1,.44,1.03-.11,0-.89.02-.92-.02v-1.09c.11,0,.49-.06.51-.05Z"/>
          <path class="cls-106" d="M23.19,9.81c.08-.02.27.02.33,0,.12.1-.02.63.07,1.09-.02,0-.05,0-.07,0-.66-.03-.39-.08-.44-1.03.05-.07.09-.05.11-.05Z"/>
          <path class="cls-58" d="M23.59,9.45c-.01.09,0,.2,0,.29,0,.02-.07.07-.07.07-.06.02-.25-.02-.33,0,0-.03-.04-.07-.07-.07-.01-.42.15-.26.48-.29Z"/>
          <path class="cls-58" d="M24.14,9.85c-.04-.06-.06,0-.07-.11-.06-.4.4-.24.26.05-.04.09-.16.04-.18.05Z"/>
        </g>
        <g>
          <path class="cls-49" d="M19.08,12.64c-.15,0-.31,0-.46,0,.08,1.09-.39.47-.5.71-.03.06.02.61,0,.78,0,.03-.09-.13-.09.47-.14,0-.28,0-.42,0v-1.32s-.28-.05-.33-.05c.02-.14-.03-.89,0-.92.09-.13.56.24.48-.38,0-.02,0-.05,0-.07.3.04.62-.04.92-.04.17,0,.34-.03.4.05v.78Z"/>
          <path class="cls-58" d="M19.15,11.11c0,.21,0,.41,0,.62-.01.31,0,.59,0,.91-.02,0-.05,0-.07,0v-.78c-.06-.08-.24-.05-.4-.05v-.67c.13-.13.45-.02.48-.02Z"/>
        </g>
        <path class="cls-41" d="M17.76,11.84s0,.05,0,.07c-.1-.06-.06-.01-.07.07h-.44c-.04-.21-.05-.39-.04-.6-.03-.04-.27-.01-.33-.02v-.07l.75.04c.13.11.01.47.02.49,0,.03.11.01.11.02Z"/>
        <path class="cls-108" d="M19.41,11.08c0,.23-.03.5.04.73-.02,0-.16.14-.29-.07,0-.2,0-.41,0-.62.01,0,.08-.06.26-.04Z"/>
        <path class="cls-76" d="M23.33,6.87l.04.87s-.1,0-.15,0c-.26.01-.24.07-.26.07-.03-.31.03-.63.04-.94.11,0,.22,0,.33,0Z"/>
        <path class="cls-41" d="M20.62,12.27c-.21,0-.48.04-.7.07,0-.05-.04-.03-.04-.04,0-.17,0-.34,0-.51,0-.02.07-.3.07-.33l.66.02v.78Z"/>
        <path class="cls-92" d="M19.44,11.8c.15,0,.29,0,.44,0,0,.17,0,.34,0,.51-.27-.06-.06.27-.2.33-.04.02-.4,0-.53,0,0-.31-.01-.59,0-.91.13.21.28.07.29.07Z"/>
        <path class="cls-55" d="M14.42,7.16c-.01.11.02.43,0,.45-.03.04-.29,0-.37.02v-.51c.19,0,.37-.02.37.04Z"/>
        <path class="cls-42" d="M23.77,7.74c-.13,0-.27,0-.4,0l-.04-.87c.32,0,.24-.04.26-.04.09,0,.11,0,.18.09v.82Z"/>
        <path class="cls-17" d="M20.65,19.2c0,.37,0,.74,0,1.11,0,.03-.07.01-.07.02-.66.06.13-.42-.7-.44v-.67c-.07-.09-.07-.02-.11-.02-.13-.3.36-.24.39-.22.07.05-.17.28.5.22Z"/>
        <g>
          <path class="cls-111" d="M17.68,22.35l.04.36s.03.07-.26.07c-.06,0-.12,0-.18,0,0-.2-.04-.45-.04-.65,0-.03.04-.04.04-.07.38,0-.04.27.4.29Z"/>
          <path class="cls-41" d="M18.34,21.81c0,.07,0,.49-.02.51-.24-.04-.61.04-.64.04-.44-.02-.03-.3-.4-.29,0-.19-.08-.41-.04-.62.03,0,.36-.08.46-.04.21.09-.31.51.64.4Z"/>
        </g>
        <path class="cls-17" d="M18.86,20.76c-.04.9.21,1-.51.94,0,0-.11-.04-.11-.05-.04-.28,0-.59-.07-.87.06-.13.59-.02.7-.02Z"/>
        <path class="cls-17" d="M19.44,19.92c0,.13-.03.25-.04.36-.15-.02-1.1.03-1.14-.02-.01-.02-.02-.38.06-.42.04-.02.68-.03.79-.04.1,0,.14.13.26.05l.04-.53s.03.48.04.58Z"/>
        <path class="cls-111" d="M19.88,19.89s-.17.07-.44.04c0-.1-.02-.55-.04-.58-.04-.07-.19-.02-.26-.04.01-.02.03-.06.06-.07.18.04.39-.04.57-.04.04,0,.04-.07.11.02v.67Z"/>
        <path class="cls-58" d="M21.09,20.9c-.09-.01-.4.04-.44-.05-.04-.09.04-.34.04-.38.46-.13.51.01.4.44Z"/>
        <path class="cls-21" d="M22.31,13.58s-.08.05.31.15c.08-.1.26-.06.39-.07-.1-.02-.1.95-.07,1,.02.02.43.03.46.02.12-.05.03-.87.06-1.02.07-.02.07-.07.07-.07.37.36-.31.89.62.76,0,.45-.01.9,0,1.34-.39,0-.48-.09-.44.33-.11,0-.38.1-.51,0,0-.2.02-.45-.04-.47-.03-.07-.27-.02-.48-.04-.01-.23.05-1.7-.06-1.74-.03-.01-.37,0-.39.02-.05.07.04,1.49,0,1.72-.15,0-.29,0-.44,0,.01-.09,0-.23,0-.33,0-.29-.05-.58-.04-.87.01-.19,0-.68.15-.73.03,0,.34,0,.4,0Z"/>
        <path class="cls-21" d="M22.05,17.82v1.16c-.13,0-.58-.03-.66.04,0,0-.04.03-.04.04.01-.05-.12,0-.22.04l-.04-1.27c.1,0,.17-.11.18-.11,0,0-.01.07.02.07.28,0,.71.04.75.04Z"/>
        <path class="cls-17" d="M22.42,17.2c-.04.49.18.58-.37.62-.04,0-.47-.04-.75-.04-.03,0-.01-.07-.02-.07-.1-.87.28-.41.37-.6.03-.07-.04-.56.02-.6.01-.01.35-.01.37,0,.05.03,0,.5.02.6.48,0,.35.09.37.09Z"/>
        <path class="cls-76" d="M23.19,16.01c0,.17-.03.37-.04.54h-.37c0-.18.01-.37,0-.54.49.02.26-.15.37-.47.06.03.04.27.04.47Z"/>
        <path class="cls-17" d="M23.15,16.55c-.01.17,0,.35,0,.53-.12.13-.35.02-.37.02,0-.18,0-.36,0-.54h.37Z"/>
        <path class="cls-41" d="M24.14,15.68c0,.34-.04.31-.04.33-.13,0-.27,0-.4,0-.04-.41.05-.32.44-.33Z"/>
        <g>
          <path class="cls-74" d="M24.36,19.02c-.27-.08-.22.52-.18.71-.7.1-.31.1-.5.63h-1.1l-.09-.11.04-1.16s.14-.07.15-.07c.15,0,.29,0,.44,0,.17,0,.34,0,.51,0,.15,0,.29,0,.44,0,.1,0,.2,0,.29,0Z"/>
          <g>
            <path class="cls-39" d="M23.11,17.78s0,.05,0,.07c-.02.38.02.77,0,1.16-.15,0-.29,0-.44,0-.1-.03-.1-1.12-.07-1.18.05-.1.41-.03.51-.05Z"/>
            <path class="cls-9" d="M23.63,19.02c-.17,0-.34,0-.51,0,.02-.39-.02-.78,0-1.16.13,0,.27,0,.4,0,.08,0,.08-.04.11-.04v1.2Z"/>
            <path class="cls-114" d="M24.07,19.02c-.15,0-.29,0-.44,0v-1.2c.15,0,.31-.03.44.05v1.14Z"/>
          </g>
          <path class="cls-58" d="M23.52,17.86c-.13,0-.27,0-.4,0,0-.02,0-.05,0-.07,0-.06-.02-.26.02-.29.05-.03.51-.1.39.36Z"/>
          <g>
            <path class="cls-67" d="M23.7,16.01c.13,0,.27,0,.4,0,0,.06.07.03.07.05.02.35-.01.7,0,1.05.08.14.67-.08.7.09,0,.58,0,1.16,0,1.74.04.11-.2.07-.51.07-.1,0-.2,0-.29,0v-1.14c-.14-.08-.29-.05-.44-.05-.03,0-.03.03-.11.04.13-.47-.34-.4-.39-.36-.04.03-.01.23-.02.29-.1.02-.47-.05-.51.05-.03.06-.03,1.15.07,1.18,0,0-.11.07-.15.07-.03,0-.05-.1-.48-.11v-1.16c.55-.03.33-.13.37-.62.02,0,0-.07.37-.11.02,0,.25.11.37-.02,0-.17-.01-.35,0-.53.01-.17.04-.38.04-.54.13.1.4,0,.51,0Z"/>
            <path class="cls-58" d="M24.1,17.49s0,.02,0,.04c-1.11.11-.37-.61-.02-.36.04.03.01.26.02.33Z"/>
            <path class="cls-52" d="M24.1,17.53s0-.02,0-.04c.82.02.27.54.02.36-.04-.03-.01-.26-.02-.33Z"/>
          </g>
        </g>
        <path class="cls-58" d="M21.09,17.82l.04,1.27s.05.16-.48.04c0-.43,0-.86,0-1.29.06-.13.31,0,.44-.02Z"/>
        <path class="cls-58" d="M21.35,19.05s.03-.03.04-.04c.8-.16.61.41.57.44-.04.03-.81.14-.61-.4Z"/>
        <path class="cls-17" d="M24.14,12.78c-.01.52,0,1.04,0,1.56-.94.13-.26-.4-.62-.76,0,0-.02-.11.06-.15.06-.03.14.08.17.02.12-.22-.3-.81.4-.67Z"/>
        <path class="cls-35" d="M16.95,13.29q-.02.65-.04,1.31c-.11,0-.42-.02-.46,0-.11.05-.02.32-.07.36-.13.09-.73-.22-.61.29-.03,0-.02.11-.29.07-.03-.22-.44-.4-.48.18l-.55-.04s0-.02,0-.04c.77.03.36-.02.59-.34-.13-.06-.1-.36-.11-.49h1.08c-.08-.65.25-.36.31-.45.04-.05-.05-.69.04-.87.33-.15.56.02.59.02Z"/>
        <path class="cls-45" d="M15.48,15.32s0,.36,0,.47c0,.24-.22.75.26.54.1-.03.16.06.18.15.16.65-.38.37-.44.45-.02.03.02.47,0,.51-.04.05-.32,0-.35.02-.14.1.23.29-.28.36.01-.17-.02-.34,0-.51.05-.54.12-.23.18-.34.06-.1-.05-1.25-.04-1.47.04-.58.44-.41.48-.18Z"/>
        <path class="cls-111" d="M15.01,15.5c-.01.21.1,1.36.04,1.47-.07.11-.13-.2-.18.34-.1.08,0,.35-.04.42-.01.01-.36.05-.37.04-.06-.1,0-2,0-2.3l.55.04Z"/>
        <path class="cls-43" d="M14.93,14.59c0,.13-.02.43.11.49-.23.33.18.37-.59.34,0-.76.03-1.52.04-2.28.64-.21.34.85.37,1.43,0,.03.07.01.07.02Z"/>
        <path class="cls-111" d="M17.61,14.59c-.16,0-.32,0-.48,0-.07,0-.15,0-.22,0q.02-.65.04-1.31s.31-.07.33-.07c.05,0,.32.04.33.05v1.32Z"/>
        <g>
          <path class="cls-58" d="M16.88,11.22v.15c-.18-.01-.38.04-.46-.04-.07.87-.69.07-.37-.07.1-.04.48.08.53-.02v-.8c-.07,0-.17-.05-.18-.05-.03-.29.04-.41.04-.44.39.02.15.35.22.45.07.1.29-.31.22.82Z"/>
          <path class="cls-58" d="M15.41,10.43c.19.01.14.04.15.04v.78l-.44.05c-.1-.28,0-.59,0-.87.1,0,.2,0,.29,0Z"/>
          <g>
            <path class="cls-67" d="M16.88,11.37c.06,0,.3-.02.33.02-.01.21,0,.39.04.6.01.06-.02.22.02.25.02.01.39-.02.4-.04.04-.03.01-.17.02-.22.01-.08-.03-.14.07-.07.08.62-.38.25-.48.38-.03.04.02.79,0,.92-.02,0-.31.07-.33.07-.03,0-.25-.17-.59-.02-.09.18,0,.82-.04.87-.06.09-.4-.2-.31.45h-1.08s-.07.01-.07-.02c-.03-.58.27-1.64-.37-1.43,0-.48.04-.97.04-1.45.51.01.44.05.44-.4h.15l.44-.05v-.78c.82.04.8-.07.84-.07.01,0,.11.05.18.05v.8c-.05.1-.43-.03-.53.02-.32.14.29.94.37.07.08.07.28.02.46.04Z"/>
            <path class="cls-88" d="M15.96,11.91s.03-.01.04.04c.09.42.01.85.04,1.27-.18.01-.44,0-.62,0v-1.31c.08,0,.08-.04.11-.04.02,0-.03.16.44.04Z"/>
            <path class="cls-39" d="M15.41,11.91v1.31c-.07,0-.41.02-.44-.02v-1.23c.06-.09.26-.05.44-.05Z"/>
            <path class="cls-114" d="M16.03,13.22c-.03-.42.05-.85-.04-1.27.27.02.8-.16.62.24-.08.17-.34-.34-.26,1.02-.03.04-.27.01-.33.02Z"/>
            <path class="cls-58" d="M15.96,11.91c-.47.12-.42-.03-.44-.04-.1-.25.28-.26.39-.22.1.04.03.19.06.25Z"/>
          </g>
        </g>
        <path class="cls-63" d="M17.68,11.98c0,.05.02.19-.02.22-.02.01-.39.05-.4.04-.04-.03,0-.19-.02-.25h.44Z"/>
        <path class="cls-58" d="M17.13,19.89c0-.13-.03-.27-.04-.4.75-.27.81.56.04.4Z"/>
        <path class="cls-58" d="M16.58,18.69s-.06-.03-.04-.33c.08,0,.46-.09.51-.02.08.12.07.46-.48.34Z"/>
        <g>
          <path class="cls-58" d="M15.63,18.36v.92c-.05.11-.34.03-.44.05v-.96c.14-.13.42-.02.44-.02Z"/>
          <path class="cls-53" d="M17.06,19.38c-.74.04-.46-.06-.48-.4.77-.04.46.05.48.4Z"/>
          <g>
            <path class="cls-90" d="M16.55,18.36c-.03.3.04.31.04.33,0,.1,0,.18,0,.29.02.34-.26.44.48.4,0,0,.03-.04.04.11,0,.13.03.27.04.4.02.5.01,1.02-.04,1.52-.06,0-.27-.02-.29.02v.63s-.25.07-.39.04c0,.89-.46.1-.53.65-.23-.03-.31.04-.33.04-.11,0-.25-.03-.37-.04-.43,0-.31-.07-.33-.07-.06-.8.22-1.48-.37-1.34-.03-.5.02-.99.04-1.49.92.24.34-.42.66-.51.1-.03.39.05.44-.05v-.92c.31,0,.61,0,.92,0Z"/>
            <path class="cls-88" d="M15.96,20.36s.02,0,.04,0l.04.98c-.35.02-.7-.01-1.05,0l-.02-.94c.33,0,.66-.02.99-.04Z"/>
            <path class="cls-58" d="M16.4,20.25c-.21.05-.04-.23-.17-.29-.31-.14-.3.18-.28.4-.33.02-.66.05-.99.04l.02-.07c.89.11.46-.31.59-.4.03-.02.34.02.37,0,.07-.05-.05-.49.07-.54.49-.22.32.47.35.53.01.02.3,0,.18.29-.03.08-.14.05-.15.05Z"/>
            <path class="cls-24" d="M16.36,20.36l.04.96s-.3.01-.37.02l-.04-.98c.12,0,.25,0,.37,0Z"/>
            <path class="cls-67" d="M16.4,20.25s.03.11-.04.11c-.12,0-.25,0-.37,0-.01,0-.02,0-.04,0-.02-.22-.04-.54.28-.4.13.06-.04.34.17.29Z"/>
          </g>
        </g>
        <path class="cls-17" d="M21.72,14.27c-.16-.01-.33,0-.5,0-.1-.07-.04-.31-.06-.54,0-.18.02-.88,0-.92-.06-.13-.46.04-.44-.13,0-.13,0-.27,0-.4.07,0,.44-.01.46,0,.17.12-.36.45.57.49l-.04,1.5Z"/>
        <path class="cls-21" d="M20.73,12.27c0,.13,0,.27,0,.4-.01.17-.08.38-.07.54l-.73-.02c0-.28,0-.57,0-.85.22-.03.48-.07.7-.07.04,0,.07,0,.11,0Z"/>
        <path class="cls-58" d="M23,13.65c.14-.01.37.02.44,0-.03.15.06.96-.06,1.02-.03.01-.44,0-.46-.02-.03-.04-.03-1.02.07-1Z"/>
        <path class="cls-58" d="M22.31,13.58c-.07,0-.38,0-.4,0-.14.02-.05-.45-.07-.82.71-.28.42.32.48.82Z"/>
        <path class="cls-92" d="M19.08,12.64s.05,0,.07,0c0,.28,0,.57,0,.85-1.09-.1.06.78-1.03.63.02-.17-.03-.72,0-.78.11-.24.58.38.5-.71.15,0,.31,0,.46,0Z"/>
        <path class="cls-115" d="M17.1,15.32c-.01.15,0,.3,0,.45-.13,0-.28.05-.4.05-.1,0-.7,0-.95,0-.01,0-.01-.06-.26-.04,0-.11,0-.45,0-.47.28.04.27-.07.29-.07,0,0-.01.07.02.07.43,0,.87,0,1.3,0Z"/>
        <path class="cls-58" d="M22.67,15.5c-.15,0-.29,0-.44,0,.04-.23-.05-1.65,0-1.72.02-.02.35-.03.39-.02.1.04.04,1.52.06,1.74Z"/>
        <path class="cls-58" d="M16.91,14.59c.07,0,.15,0,.22,0,0,.17,0,.34,0,.51,0,.01-.01-.04-.04.22-.43,0-.87,0-1.3,0-.03,0-.01-.07-.02-.07-.13-.51.47-.2.61-.29.06-.04-.04-.31.07-.36.04-.02.34,0,.46,0Z"/>
        <path class="cls-45" d="M16.69,15.83c-.02.13.06.46-.06.54-.05.04-.79-.1-.72.11-.02-.09-.09-.17-.18-.15v-.51c.25,0,.85,0,.95,0Z"/>
        <path class="cls-17" d="M18.53,17.89c.09.04.13-.1.11.4-.11,0-.68.09-.73.02-.12-.17.01-.68.62-.42Z"/>
        <g>
          <path class="cls-21" d="M17.87,16.7c-.33-.06-.7,0-.51.42.04.09.45.05.55.05.75.02.62-.18.62.73-.61-.27-.75.24-.62.42.05.07.63-.01.73-.02.15,0,1.07-.01,1.12-.04.04-.02-.09-.23.04-.29.29-.13.31.31.4-.62l.53-.02c-.25-.98.49-.52.59-.65.04-.05.03-.81.04-.96.12-.01.34.02.39,0,.08-.04.05-.15.06-.22.15,0,.29,0,.44,0,.15,0,.3,0,.44,0,.03.73.11.48.11.51.01.17,0,.37,0,.54,0,.18,0,.36,0,.54-.37.04-.35.11-.37.11-.02,0,.11-.08-.37-.09-.02-.1.03-.57-.02-.6-.01-.01-.35-.01-.37,0-.06.04.01.53-.02.6-.09.19-.47-.27-.37.6-.01,0-.09.1-.18.11-.13.01-.38-.11-.44.02,0,.43,0,.86,0,1.29,0,.02,0,.05,0,.07-.66.07-.42-.17-.5-.22-.03-.02-.51-.08-.39.22-.18,0-.38.08-.57.04-.03,0-.04.05-.06.07-.08.12-.02.36-.04.51-.11,0-.75.02-.79.04-.08.03-.07.4-.06.42.04.05.99,0,1.14.02,0,.02.11.33-.02.47-.18,0-.35,0-.53,0-.11,0-.64-.11-.7.02.07.28.03.59.07.87,0,.01.11.05.11.05.02.13,0,.1,0,.11-.95.11-.43-.31-.64-.4-.1-.04-.43.04-.46.04-.03,0-.04-.05-.15-.04.05-.5.06-1.02.04-1.52.77.16.72-.67-.04-.4,0-.15-.04-.1-.04-.11-.02-.35.29-.44-.48-.4,0-.11,0-.19,0-.29.55.11.56-.23.48-.34-.05-.07-.43.02-.51.02-.31,0-.61,0-.92,0-.02,0-.3-.11-.44.02v.96c-.32.09.26.74-.66.51.02-.67-.01-1.34,0-2.01.03-.04.26,0,.33-.02.5-.07.14-.27.28-.36.03-.02.31.03.35-.02.02-.03-.02-.47,0-.51.06-.08.6.19.44-.45-.08-.21.66-.07.72-.11.11-.08.03-.41.06-.54.12,0,.27-.06.4-.05,0-.15-.01-.3,0-.45.02-.26.04-.21.04-.22l.81.05c-.02.48.02.97,0,1.45,0,.02-.07.08-.07.09Z"/>
          <path class="cls-41" d="M18.51,18.4c.66.05.68-.22.64.56-.71.15-.72.12-.64-.56Z"/>
          <path class="cls-58" d="M16.09,17.39s.46-.01.48,0c.02.02.03.43.02.45-.02.02-.51.03-.53.02-.02-.02-.05-.43.04-.47Z"/>
        </g>
        <path class="cls-78" d="M17.87,16.7s.07.2.04.47c-.1,0-.51.04-.55-.05-.19-.41.18-.47.51-.42Z"/>
        <path class="cls-58" d="M21.79,15.17c0,.1.01.24,0,.33,0,.07.03.18-.06.22-.04.02-.27-.01-.39,0,0-.09-.02-.5,0-.53.03-.04.36,0,.44-.02Z"/>
        <path class="cls-17" d="M23.15,15.54c-.11.33.12.49-.37.47,0-.03-.08.22-.11-.51.21.01.45-.03.48.04Z"/>
        <path class="cls-45" d="M19.41,19.34l-.04.53c-.12.08-.16-.06-.26-.05.02-.14-.05-.39.04-.51.07.01.22-.04.26.04Z"/>
        <path class="cls-42" d="M15.74,15.83v.51c-.47.21-.25-.31-.26-.54.24-.02.24.04.26.04Z"/>
        <path class="cls-48" d="M21.17,13.72c-.52.06-.5-.06-.51-.51,0-.16.06-.37.07-.54-.02.16.38,0,.44.13.02.05,0,.74,0,.92Z"/>
        <g>
          <path class="cls-67" d="M19.88,12.31s.04-.01.04.04c0,.28,0,.57,0,.85l.73.02c.02.45,0,.57.51.51.01.23-.04.47.06.54.16,0,.33-.01.5,0,.03,0,.04,0,.04.04-.02.29.03.58.04.87-.08.01-.41-.03-.44.02-.02.02,0,.44,0,.53,0,.15,0,.91-.04.96-.1.13-.84-.32-.59.65l-.53.02c-.1.93-.11.49-.4.62-.13.06,0,.27-.04.29-.05.02-.97.03-1.12.04.02-.5-.02-.36-.11-.4,0-.9.12-.71-.62-.73.03-.27-.04-.45-.04-.47,0,0,.07-.07.07-.09.02-.48-.02-.97,0-1.45l-.81-.05c0-.17,0-.34,0-.51.16,0,.32,0,.48,0,.14,0,.28,0,.42,0,0-.6.09-.45.09-.47,1.09.15-.06-.74,1.03-.63,0-.28,0-.57,0-.85.13,0,.49.02.53,0,.14-.06-.07-.39.2-.33Z"/>
          <g>
            <path class="cls-90" d="M20.21,14.81s-.05,0-.07,0c-.06,0-.44-.02-.46-.04-.02-.02-.03-.37-.02-.38.01-.02.46-.05.51-.05l.04.47Z"/>
            <path class="cls-58" d="M20.25,14.34c.06,0,.27-.02.29.02.01.02,0,.38,0,.4-.04.09-.25.05-.33.05l-.04-.47s.05,0,.07,0Z"/>
            <g>
              <path class="cls-36" d="M20.25,14.34s-.05,0-.07,0c-.06,0-.5.03-.51.05-.01.02,0,.36.02.38.02.01.4.04.46.04-.04.51.07.38.07.4,0,.09-.31.45.33.29.01.16.11,1.14-.02,1.2h-2.02q-.03-1.01-.06-2.01c.06-.09.27-.05.48-.05.02,0,.12.08.37.02.01-.16,0-.5,0-.53,0,0,.07.01.07-.02.02-.1-.02-.32,0-.36.04-.09.16-.03.18-.07.02-.03-.13-.62.35-.42.13.05,0,.57.06.63.07.1.28-.23.29.45Z"/>
              <path class="cls-31" d="M19.3,14.12s.01.36,0,.53c-.25.07-.35-.02-.37-.02.01-.46-.11-.55.37-.51Z"/>
              <path class="cls-31" d="M20.54,15.5c-.64.16-.32-.2-.33-.29.53-.03.31.07.33.29Z"/>
            </g>
          </g>
        </g>
      </g>
    </g>
  </g>
</svg>