<?xml version="1.0" encoding="UTF-8"?>
<svg id="Layer_2" data-name="Layer 2" xmlns="http://www.w3.org/2000/svg" xmlns:xlink="http://www.w3.org/1999/xlink" viewBox="0 0 40.3 32.53">
  <defs>
    <style>
      .cls-1 {
        fill: #f4e34f;
      }

      .cls-1, .cls-2, .cls-3, .cls-4, .cls-5, .cls-6, .cls-7, .cls-8, .cls-9, .cls-10, .cls-11, .cls-12, .cls-13, .cls-14, .cls-15, .cls-16, .cls-17, .cls-18, .cls-19, .cls-20, .cls-21, .cls-22, .cls-23, .cls-24, .cls-25, .cls-26, .cls-27, .cls-28, .cls-29, .cls-30, .cls-31, .cls-32, .cls-33, .cls-34, .cls-35, .cls-36, .cls-37, .cls-38, .cls-39, .cls-40, .cls-41, .cls-42, .cls-43, .cls-44, .cls-45, .cls-46, .cls-47, .cls-48, .cls-49, .cls-50, .cls-51, .cls-52, .cls-53, .cls-54, .cls-55, .cls-56, .cls-57, .cls-58, .cls-59, .cls-60, .cls-61, .cls-62, .cls-63, .cls-64, .cls-65, .cls-66, .cls-67, .cls-68, .cls-69, .cls-70, .cls-71, .cls-72, .cls-73, .cls-74, .cls-75, .cls-76, .cls-77, .cls-78, .cls-79, .cls-80, .cls-81, .cls-82, .cls-83, .cls-84, .cls-85, .cls-86, .cls-87, .cls-88, .cls-89, .cls-90, .cls-91, .cls-92, .cls-93, .cls-94, .cls-95, .cls-96, .cls-97, .cls-98, .cls-99, .cls-100, .cls-101, .cls-102, .cls-103, .cls-104 {
        stroke-width: 0px;
      }

      .cls-2 {
        fill: #e9f2d6;
      }

      .cls-3 {
        fill: #5a3a5f;
      }

      .cls-4 {
        fill: #bc8c67;
      }

      .cls-5 {
        fill: #3eab8a;
      }

      .cls-6 {
        fill: #e7e979;
      }

      .cls-7 {
        fill: #a75b33;
      }

      .cls-8 {
        fill: url(#linear-gradient);
      }

      .cls-9 {
        fill: #cf6269;
      }

      .cls-10 {
        fill: #bc7637;
      }

      .cls-11 {
        fill: #403916;
      }

      .cls-12 {
        fill: #65979e;
      }

      .cls-13 {
        fill: #352c1f;
      }

      .cls-14 {
        fill: #372411;
      }

      .cls-15 {
        fill: #c46f58;
      }

      .cls-16 {
        fill: #7f451d;
      }

      .cls-17 {
        fill: #a091c5;
      }

      .cls-18 {
        fill: #cab42d;
      }

      .cls-19 {
        fill: #453b74;
      }

      .cls-20 {
        fill: #2a3575;
      }

      .cls-21 {
        fill: #3c3516;
      }

      .cls-22 {
        fill: #95ce91;
      }

      .cls-23 {
        fill: #33262b;
      }

      .cls-24 {
        fill: #766e9f;
      }

      .cls-25 {
        fill: #008c6d;
      }

      .cls-26 {
        fill: #b9cd88;
      }

      .cls-27 {
        fill: #e17d4d;
      }

      .cls-28 {
        fill: #ac6728;
      }

      .cls-29 {
        fill: #1d1316;
      }

      .cls-30 {
        fill: #cec9af;
      }

      .cls-31 {
        fill: #f39b50;
      }

      .cls-32 {
        fill: #512612;
      }

      .cls-33 {
        fill: #835020;
      }

      .cls-34 {
        fill: #211d1a;
      }

      .cls-35 {
        fill: #858b9a;
      }

      .cls-36 {
        fill: #302712;
      }

      .cls-37 {
        fill: #783219;
      }

      .cls-38 {
        fill: #c1e1bc;
      }

      .cls-39 {
        fill: #c4e4ca;
      }

      .cls-40 {
        fill: #cf2026;
      }

      .cls-41 {
        fill: #bdbfb7;
      }

      .cls-42 {
        fill: #5bc6cb;
      }

      .cls-43 {
        fill: #99d1a4;
      }

      .cls-44 {
        fill: #f79b61;
      }

      .cls-45 {
        fill: #6f65ad;
      }

      .cls-46 {
        fill: #4fc2bb;
      }

      .cls-47 {
        fill: #03562c;
      }

      .cls-48 {
        fill: #ca5a4b;
      }

      .cls-49 {
        fill: #a6c4b1;
      }

      .cls-50 {
        fill: #6d4d97;
      }

      .cls-51 {
        fill: #a0d4a8;
      }

      .cls-52 {
        fill: #5d481c;
      }

      .cls-53 {
        fill: #11100f;
      }

      .cls-54 {
        fill: #dcba58;
      }

      .cls-55 {
        fill: #ac8d4e;
      }

      .cls-56 {
        fill: #df7f6b;
      }

      .cls-57 {
        fill: #3b3f7a;
      }

      .cls-58 {
        fill: #4c479d;
      }

      .cls-59 {
        fill: #006e49;
      }

      .cls-60 {
        fill: #ccbc86;
      }

      .cls-61 {
        fill: #8f5723;
      }

      .cls-62 {
        fill: #103134;
      }

      .cls-63 {
        fill: #99ce88;
      }

      .cls-64 {
        fill: #7782c0;
      }

      .cls-65 {
        fill: #9fd4af;
      }

      .cls-66 {
        fill: #c9b051;
      }

      .cls-67 {
        fill: #272e30;
      }

      .cls-68 {
        fill: #d1a435;
      }

      .cls-69 {
        fill: #fccb75;
      }

      .cls-70 {
        fill: #442f46;
      }

      .cls-71 {
        fill: #ac7029;
      }

      .cls-72 {
        fill: #d6e15e;
      }

      .cls-73 {
        fill: #251d0f;
      }

      .cls-74 {
        fill: #17151b;
      }

      .cls-75 {
        fill: #e1d31f;
      }

      .cls-76 {
        fill: #a3ae98;
      }

      .cls-77 {
        fill: #933b1f;
      }

      .cls-78 {
        fill: #d07077;
      }

      .cls-79 {
        fill: #bcdfb9;
      }

      .cls-80 {
        fill: #fbf5b6;
      }

      .cls-81 {
        fill: #d2d6c7;
      }

      .cls-82 {
        fill: #e2c299;
      }

      .cls-83 {
        fill: #7f78a5;
      }

      .cls-84 {
        fill: #eedb78;
      }

      .cls-85 {
        fill: #2b2211;
      }

      .cls-86 {
        fill: #00a05a;
      }

      .cls-87 {
        fill: #b94d46;
      }

      .cls-88 {
        fill: #242211;
      }

      .cls-89 {
        fill: #8fd3cd;
      }

      .cls-90 {
        fill: #a3bcca;
      }

      .cls-91 {
        fill: #232c3e;
      }

      .cls-92 {
        fill: #385356;
      }

      .cls-93 {
        fill: #c5c32f;
      }

      .cls-94 {
        fill: #4ebe97;
      }

      .cls-95 {
        fill: #ab704f;
      }

      .cls-96 {
        fill: #643413;
      }

      .cls-97 {
        fill: #4b3b15;
      }

      .cls-98 {
        fill: #4faea8;
      }

      .cls-99 {
        fill: #24130c;
      }

      .cls-100 {
        fill: #bb3726;
      }

      .cls-101 {
        fill: #dce3d1;
      }

      .cls-102 {
        fill: #a9d9c1;
      }

      .cls-103 {
        fill: #4960ab;
      }

      .cls-104 {
        fill: #fcd06f;
      }
    </style>
    <linearGradient id="linear-gradient" x1="18.69" y1="2.45" x2="25.65" y2="3.31" gradientUnits="userSpaceOnUse">
      <stop offset="0" stop-color="#009366"/>
      <stop offset="1" stop-color="#007d6d"/>
    </linearGradient>
  </defs>
  <g id="Layer_1-2" data-name="Layer 1">
    <g>
      <path class="cls-32" d="M36.54,30.44s0,.03,0,.05c-.02.36-.06.72-.07,1.09l-1.94.05c-.03.16-.07.13-.07.14,0-.03.01-.08-.02-.09-.09-.03-1.54,0-1.83,0-.62,0-1.24,0-1.85,0-.32,0-.63,0-.95,0-1,0-2.01-.09-3.01-.05-.03.16-.07.13-.07.14.03-.2-.33-.13-.72-.14-.24,0-.49.05-.72.05-.23,0-.45,0-.68,0-.85,0-1.7-.05-2.56-.05-.04,0,0,.09-.07.09,0,0,.01-.09-.02-.09-.35,0-.71,0-1.06,0-.3,0-.61.04-.9.05-.71,0-1.42,0-2.13,0-.29,0-.57,0-.86,0-.42,0-.85.05-1.27.05,0,0,.01-.09-.02-.09-.86,0-1.74.05-2.6.05-.29,0-.6-.04-.9-.05-.85,0-.6.09-.63.09-.05,0,.09-.08-.86-.09-.42,0-.84,0-1.27,0-.24,0-.48,0-.72,0-.26,0-.56-.08-.81-.09.01-.33.08-.67.09-.99,0-.02,0-.03,0-.05,9.08-.03,18.19.22,27.27,0,.42-.01.85.06,1.27-.05Z"/>
      <path class="cls-53" d="M40.11,15.29l-.77.07c-.03.08.02.92,0,1.15,0,.07.02.28-.02.32l-1.15.02c-.05,1.86-.03,3.72-.05,5.59h-.77c.02-.37-.05-.56-.05-.59.03-.99.01-1.95,0-2.94,0-.36,0-.72,0-1.09,0-.12.1-.66.05-.75-.1,0-.22-.05-.32-.07-.03-.46.39-.08.32-.68l1.31-.07v-1.38c.1,0,.6.02.63-.02.04-.34-.05-.79-.05-.84,0-.21.04-.42.05-.63,0-.12,0-.24,0-.36.02-1.6.01-3.19,0-4.79,0-.29.05-.6.05-.9,0-.29,0-.59,0-.88l-.9-.09c0-.47.01-.95,0-1.42,0-.34,0-.68,0-1.02-.03-.05-.61-.02-.72-.02-.05-.81.13-.94.14-.99.86-.05.51,0,.61.9l.88.02v2.53l.9.09c-.12,2.36.15,6.83,0,8.82,0,.04-.14.02-.14.02Z"/>
      <path class="cls-53" d="M27.13,2.53c-.05.28.05.39.05.41,0,.17,0,.28,0,.45.02.69-.39.95.63.86h.05c-.05.57,0,1.66,0,2.35,0,.63,0,1.27,0,1.9,0,.26,0,.51,0,.77-.01,1.14.03,2.28,0,3.41,0,.04-.09.02-.09.02h-.77s-.09.01-.09-.02c-.04-2.79.03-5.58,0-8.37-.07-.15-.67,0-.72-.09-.04-.06.03-1.33,0-1.54l-.09-.07c-.49-.18-.77.56-.68-1.02l-.79-.07c-.09-.04-.09-.56-.07-.63,0,0,.05-.02.09-.14h1.61c.17,1.66-.44,1.88.88,1.76Z"/>
      <path class="cls-53" d="M24.65.77c-.04.12-.09.13-.09.14,0-.03-.05-.09-.07-.09-.3-.05-5.19.04-5.99.05-.17,0-.33,0-.5,0V.05c2.18,0,4.36.04,6.53-.05.12.03-.1.71.11.77Z"/>
      <path class="cls-53" d="M4.12,29.03c.1,0,.41-.01.43,0,.15.1-.27.31.47.32-.09.52.22.2.27.34.03.08-.03.45,0,.5.04.06.32,0,.38.02.12.06.01.26.14.32.06.03.37-.03.41,0,.08.05-.04.35.07.45.09.09.66.02.7.05.08.05-.05.48.09.54.2.09.62-.05.84-.05.26.01.56.08.81.09v.81c-.85,0-1.7,0-2.56,0l-.07-.93-.77-.09c.13-1.62-.31-.81-.75-1.02-.16-.07.23-.27-.84-.25v-1.06s0-.07.36-.05Z"/>
      <path class="cls-53" d="M5.02,26.95v1.22c-.21,0-1.45-.04-1.52,0-.03.02-.03.37-.02.38.11.16.64-.3.63.47-.36-.02-.34.05-.36.05-.26-.01-.53-.08-.79-.05-.24-.8.32-.92-.79-.86-.18-1.36.54-.58.68-.88l-.05-1.2c.08,0,.11,0,.18-.05,0,.12-.02.78.02.81.66,0,1.33,0,1.99,0,.04,0,.02.09.02.09Z"/>
      <path class="cls-53" d="M15.78.09v1.13c-.28,0-.59.1-.88.05l-.07.9c-.66,0-1.34-.05-1.99-.05v-.72c.49,0,.98,0,1.47,0-.05-1.25.28-.65.38-.88.03-.08-.04-.43.02-.47.09-.07.9.05,1.06.05Z"/>
      <path class="cls-74" d="M11.26,1.45c-.02.18.03.61,0,.68,0,0-.05-.01-.05.05-.31-.03-.52.04-.59.05-1.06.03-2.15-.06-3.21-.05v-.72c1.28,0,2.56,0,3.84,0Z"/>
      <path class="cls-53" d="M38.08,23.15c0,1.21,0,2.41,0,3.62h-.77c0-1.22.04-2.44-.05-3.66l.05-.05c.2.17.51.06.77.09Z"/>
      <path class="cls-29" d="M2.98,21.66c.01.06-.03.12.07.18.66-.02,1.31,0,1.97,0v1.31c-.68,0-1.35,0-2.04.05-.06,0-.12,0-.18,0,.05-.34.09-1.21.05-1.49l.14-.05Z"/>
      <path class="cls-53" d="M37.26,30.48c0,.35.05.71.05,1.06,0,.04-.09.02-.09.02-.78-.05-.56,0-.59.86-.72.03-1.45-.01-2.17,0,.02-.19-.03-.58,0-.68,0,0,.04.02.07-.14l1.94-.05c0-.36.05-.73.07-1.09h.72Z"/>
      <path class="cls-53" d="M29.8,31.66v.72s.01.09-.02.09c-1.02,0-2.04-.05-3.05-.05.02-.19-.03-.58,0-.68,0,0,.04.02.07-.14,1-.05,2.01.04,3.01.05Z"/>
      <path class="cls-53" d="M2.8,23.2c.06,0,.12,0,.18,0,.02.95-.03,1.9,0,2.85-.07.05-.1.04-.18.05-.13,0-.53.02-.59,0-.03,0-.08.02-.14-.07v-2.8c.04-.05.61-.01.72-.02Z"/>
      <path class="cls-53" d="M15.74,31.7v.68s.01.09-.02.09c-.87,0-1.74-.05-2.6-.05v-.77c.86,0,1.74-.05,2.6-.05.04,0,.02.09.02.09Z"/>
      <path class="cls-53" d="M24.6,31.66v.77c-.87,0-1.75,0-2.62,0v-.72c.07,0,.03-.09.07-.09.85,0,1.71.04,2.56.05Z"/>
      <path class="cls-53" d="M19.99,31.66v.72s.01.09-.02.09c-.7,0-1.4,0-2.1,0v-.81c.71,0,1.42,0,2.13,0Z"/>
      <path class="cls-53" d="M38.08,27.45c0,.27.11,1.96.05,2.06l-.81.02s0-.06,0-.09c0-.42,0-.84,0-1.27,0-.24-.05-.49-.05-.72h.81Z"/>
      <g>
        <path class="cls-53" d="M37.08,2.26c-.02.07-.09,0-.18.14-.02-.13-.27-.09-.5-.09-.75.01-.85-.17-.77.57-.15.16-.43.02-.45.02-.02-.11.03-.64-.02-.68-.06-.04-1.18-.04-1.38-.05-.45-.02-.91,0-1.36,0v-.77c1.55.01,3.09.07,4.64.05.03.02.04.75.02.81Z"/>
        <path class="cls-53" d="M30.35,1.45c-.02.18.03.55,0,.63,0,0-.07.09-.09.09-.75.02-1.51-.03-2.26,0-.23,0-.45,0-.68,0l.02-.77c1-.05,2.01.05,3.01.05Z"/>
        <path class="cls-2" d="M32.43,1.4v.77c-.15,0-.3,0-.45,0-.3,0-.6,0-.9,0-.42,0-.78.05-.72-.09.03-.08-.02-.45,0-.63.69,0,1.38-.05,2.08-.05Z"/>
      </g>
      <path class="cls-2" d="M7.42,1.45v.72c-.36,0-.72.04-1.09.05-.3,0-.62-.05-.9-.05v-.68c.07,0,.03-.09.07-.09.64,0,1.29.05,1.92.05Z"/>
      <path class="cls-53" d="M32.61,31.66v.77c-.61,0-1.22.04-1.83.05-.04,0-.02-.09-.02-.09v-.72c.62,0,1.24,0,1.85,0Z"/>
      <path class="cls-51" d="M34.46,31.75c-.03.1.02.49,0,.68-.63.01-1.23,0-1.85,0v-.77c.3,0,1.75-.03,1.83,0,.03.01.02.06.02.09Z"/>
      <path class="cls-36" d="M37.85,2.89c0,.05-.19.18-.14.99-.27,0-.54,0-.81,0-.05,0-.09,0-.14,0,.05-.12-.05-.43-.05-.45,0-.03.08-.17.14-.5.03-.19.06-.35.05-.54.09-.14.16-.06.18-.14.58.11.81-.13.77.63Z"/>
      <path class="cls-2" d="M12.84,1.4v.72c-.09,0-.45.09-.54.09-.42.01-1.02.04-1.04-.09.03-.07-.02-.5,0-.68.52,0,1.06-.04,1.58-.05Z"/>
      <path class="cls-51" d="M17,31.66v.81c-.4,0-.8,0-1.2,0-.03,0,0-.09-.07-.09v-.68c.41,0,.85-.05,1.27-.05Z"/>
      <path class="cls-49" d="M2.8,26.09l.05,1.2c-.14.31-.86-.48-.68.88l-.14-.02c.08-.45.02-1.66.09-1.99,0-.04.1,0,.09-.07.06.02.46,0,.59,0Z"/>
      <path class="cls-22" d="M40.11,15.29c-.02.24.03,1.12,0,1.2l-.77.02c.02-.24-.03-1.08,0-1.15l.77-.07Z"/>
      <path class="cls-76" d="M21.98,31.7v.72c-.35,0-.72.05-1.09.05v-.86c.35,0,.71,0,1.06,0,.04,0,.02.09.02.09Z"/>
      <path class="cls-2" d="M30.75,31.66v.72c-.07,0-.03.09-.07.09-.97,0-.84-.09-.88-.09v-.72c.32,0,.63,0,.95,0Z"/>
      <path class="cls-49" d="M13.12,31.66v.77c-.29,0-.6.05-.9.05v-.86c.3,0,.61.04.9.05Z"/>
      <path class="cls-51" d="M20.89,31.61v.86c-.98,0-.86-.09-.9-.09v-.72c.29,0,.6-.04.9-.05Z"/>
      <path class="cls-53" d="M11.58,31.7v.77c-.14,0-.79.14-.86-.02v-.84c.95.01.81.09.86.09Z"/>
      <path class="cls-52" d="M37.31,29.53c0,.32-.04.64-.05.95h-.72s0-.03,0-.05c.01-.3,0-.6,0-.9.29,0,.61.06.77-.09,0,.03,0,.06,0,.09Z"/>
      <path class="cls-51" d="M17.86,31.66v.81c-.29,0-.57,0-.86,0v-.81c.29,0,.57,0,.86,0Z"/>
      <path class="cls-79" d="M2.13,18.45c0-.12.03-.24.05-.36.02-.12-.05-.49.07-.54.03-.01.56-.02.59,0,.04.03.05.85.02.88-.04.06-.61,0-.72.02Z"/>
      <path class="cls-51" d="M9.45,31.61v.84c-.07.09-.61-.02-.72-.02v-.81c.24,0,.48,0,.72,0Z"/>
      <path class="cls-49" d="M26,31.61v.86c-.24,0-.49-.05-.72-.05v-.77c.23,0,.48-.05.72-.05Z"/>
      <path class="cls-51" d="M26.73,31.75c-.03.1.02.49,0,.68-.23,0-.48.05-.72.05v-.86c.4,0,.76-.06.72.14Z"/>
      <path class="cls-30" d="M27.99,2.17c-.13.22,0,.53-.05.81-.08,0-.15,0-.23,0-.17,0-.36-.09-.54-.05,0-.02-.09-.12-.05-.41,0-.03.07-.1.05-.29l.14-.07c.23,0,.45,0,.68,0Z"/>
      <path class="cls-2" d="M38.12,22.43c0,.21.05.44.05.66,0,.04-.09,0-.09.07-.26-.03-.57.08-.77-.09-.04-.21.03-.43.05-.63h.77Z"/>
      <path class="cls-2" d="M38.08,26.77c0,.23,0,.45,0,.68h-.81c0-.2,0-.39,0-.59,0-.04.05-.05.05-.09h.77Z"/>
      <path class="cls-51" d="M25.28,31.66v.77c-.23,0-.45,0-.68,0v-.77c.23,0,.45,0,.68,0Z"/>
      <path class="cls-102" d="M37.22,31.57s.15.02.09.79c-.09.12-.39.05-.68.07.03-.85-.19-.91.59-.86Z"/>
      <path class="cls-51" d="M12.21,31.61v.86c-.21,0-.42,0-.63,0v-.77s-.21-.1.63-.09Z"/>
      <g>
        <path class="cls-53" d="M5.43,1.49v.68s.01.09-.02.09c-.32.01-.65.03-.97.05-.02,0-.33-.09-.36-.09.14-.42-.73-.4-.54.05-.33.02-.66.06-.99.07v2.04l-.9.09c-.02.27.02,2.13-.05,2.22-.05.07-.63-.03-.68.05v7.64l.86.05v2.13c1.12.36.59-.45.72-.63.04-.06.91-.29.68.72,1.06.18.62-.3.75-.38.04-.03.32.02.41,0,.02,0,.03-.12.09-.14.47-.11.51.29.63-.45,1.02.18-.12-.62,1.06-.52V5.11c.12,0,.09-.05.09-.05.28,0,.55.04.81.05-.05,1.1.05,2.2.05,3.3,0,1.4,0,2.81,0,4.21,0,.25-.04.51-.05.77,0,.23,0,.45,0,.68,0,.27,0,.54,0,.81,0,.42-.05.84-.05,1.27h-1.29l-.07.9c-.2,0-.39,0-.59,0-.34.01-.66.02-.99.05-.69.05-.94-.24-.79.72.26,0,.53,0,.79,0,.33,0,.66,0,.99,0l-.02,1.18-2.01.02c.05.64-.07,2.3,0,2.65l-.14.05c-.08-.5-.54-.01-.77-.34,0-.97-.03-1.94.05-2.92.12-.02.68.04.72-.02.03-.04.01-.86-.02-.88-.02-.02-.56-.01-.59,0-.12.05-.05.43-.07.54-.71.11-.36-.27-.47-1.13-1.18.13-.7-.2-.79-1.74l-.9-.09V5.86l.86-.09v-2.13l.77-.09v-1.22c.13-.29.77.48.7-.93,1.03,0,2.05,0,3.08,0,.04,0,.02.09.02.09Z"/>
        <path class="cls-21" d="M4.43,3.21c0,.1-.02.6.02.63h.84c.03.42.07.82.05,1.24.03.04.66.02.77.02v10.02c-1.18-.1-.04.7-1.06.52-.12.74-.16.35-.63.45-.06.01-.07.13-.09.14-.09.02-.37-.03-.41,0-.13.09.32.56-.75.38.23-1.02-.64-.78-.68-.72-.13.19.4.99-.72.63v-2.13l-.86-.05v-7.64c.05-.07.63.03.68-.05.06-.09.03-1.95.05-2.22l.9-.09v-2.04c.33,0,.66-.05.99-.07.02,0,.03,0,.05,0v.93l.86.02Z"/>
      </g>
      <path class="cls-68" d="M16.73,5.16c-.01.29.05.59-.07.68-.55-.05-1.11.04-1.65.05-.25,0-.56-.07-.81-.05-.02-.67.26-.79-.68-.72,0-.02-.06-.16-.07-.41h-1.67c-.14.06-.04,1.42-.07,1.85,0,.07-.08,0-.09.14-.05-.09-.4-.05-.77-.05.08-1.18,0-.74-1.56-.81l-.02.81c-.26.01-.54.02-.79.05-.04,0-.02.09-.02.09-.2.02-.43-.02-.63,0,0-.57,0-1.13,0-1.7-.35-.08-.77.02-.81.02-.27,0-.54-.05-.81-.05l-.05-1.18,10.51-.05c.11.05.08,1.13.07,1.31Z"/>
      <path class="cls-52" d="M13.52,11.26c-.02.3-.06,2.79.07,2.85.3-.05,2.21.07,2.31,0,.07-.05-.03-.67.05-.72.05-.04,1.14-.05,1.29-.05.3,0,.62.09.93.05.22.07-.08.47.2.63v.77c-3.78.21-7.57.14-11.35.09,0-.27,0-.54,0-.81.15-.02.71.02.75,0,.06-.04,0-.53.02-.63.12,0,.09-.05.09-.05.24,0,1.8-.05,1.88,0,.07.05-.03.67.05.72.1.07,2.13-.05,2.44,0-.03-.94.09-1.91.07-2.85h1.22Z"/>
      <path class="cls-16" d="M12.3,2.22c.02.12-.04.68.02.72.1.07,2.25-.03,2.56-.05.67-.03.91.34.72-.72.32,0,.67-.1.99-.05.62.1-.32.85.86.68,0,0,.09-.01.09.02.01.76,0,1.52,0,2.28-.09,0-.37.04-.5.05-.11,0-.21,0-.32,0,0-.18.04-1.26-.07-1.31l-10.51.05c.04-.17-.43-.06-.86-.09-.02-.24.06-.62-.07-.68h-.79c0-.27,0-.54,0-.81.32-.01.65-.03.97-.05.04,0,.02-.09.02-.09.28,0,.61.05.9.05.02.12-.04.68.02.72.17.12,3.77-.03,4.27-.05.62-.02.74.35.59-.72,0-.06.04-.04.05-.05.02.13.62.1,1.04.09Z"/>
      <path class="cls-52" d="M7.01,17c.36,0,.73.05,1.09.05v.72l-.05.05c-.32,0-.63,0-.95,0-.46.01-.92,0-1.38,0l-.02,1.15c.47.04.94.02,1.4.02v2.8c-.07,0-1.11.05-1.4.05-.23,0-.45,0-.68,0-.66,0-1.31-.02-1.97,0-.1-.06-.06-.12-.07-.18-.07-.35.05-2.01,0-2.65l2.01-.02.02-1.18v-.77c.2,0,.39,0,.59,0,.47-.01.93-.04,1.4-.05Z"/>
      <path class="cls-37" d="M7.82,8.41s0,.03,0,.05c0,.27,0,.54,0,.81,0,1.12,0,2.23,0,3.35h-.77c0-1.4,0-2.81,0-4.21h.77Z"/>
      <path class="cls-4" d="M7.82,6.78c0,.54,0,1.09,0,1.63h-.77c0-1.1-.09-2.2-.05-3.3.04,0,.47-.11.81-.02,0,.57,0,1.13,0,1.7Z"/>
      <path class="cls-29" d="M6.96,16.15c0,.28,0,.58.05.86-.47,0-.93.03-1.4.05l.07-.9h1.29Z"/>
      <path class="cls-53" d="M6.15,3.89l.05,1.18s.03.04-.09.05c-.11,0-.74.02-.77-.02.02-.42-.01-.83-.05-1.24,0-.01,0-.03,0-.05.43.03.9-.07.86.09Z"/>
      <path class="cls-52" d="M4.43,2.31c0,.27,0,.54,0,.81,0,.03,0,.06,0,.09l-.86-.02v-.93c.16,0,.34-.04.5-.05.03,0,.34.09.36.09Z"/>
      <path class="cls-11" d="M5.02,17.05v.77c-.33,0-.66,0-.99,0v-.72c.34-.02.66-.03.99-.05Z"/>
      <path class="cls-71" d="M7.82,12.62c0,.24-.04.57.05.77,0,0,.03.05-.09.05-.24,0-.52-.09-.77-.05,0-.26.04-.52.05-.77h.77Z"/>
      <path class="cls-21" d="M4.02,17.09v.72c-.26,0-.53,0-.79,0-.15-.96.1-.68.79-.72Z"/>
      <path class="cls-68" d="M7.78,13.43c-.02.11.03.59-.02.63-.03.02-.6-.02-.75,0,0-.23,0-.45,0-.68.25-.05.53.05.77.05Z"/>
      <path class="cls-4" d="M4.07,2.22c-.16,0-.33.04-.5.05-.02,0-.03,0-.05,0-.18-.45.68-.46.54-.05Z"/>
      <path class="cls-16" d="M35.23,29.53s.03,0,.05,0v.95c-9.08.22-18.19-.03-27.27,0,.01-.3-.01-.6,0-.9l.05-.05c9.05.06,18.13.25,27.18,0Z"/>
      <path class="cls-32" d="M6.65,30.48s.38,0,.45,0c.29,0,.61.1.9.05-.01.33-.08.66-.09.99-.21,0-.64.13-.84.05-.14-.06-.01-.49-.09-.54-.04-.03-.61.05-.7-.05.37-.06-.04-.42.36-.5Z"/>
      <path class="cls-32" d="M36.54,29.53c0,.3.01.6,0,.9-.42.11-.85.04-1.27.05v-.95c.42-.01.84,0,1.27,0Z"/>
      <path class="cls-16" d="M8,29.58c-.01.3.01.6,0,.9,0,.02,0,.03,0,.05-.3.05-.62-.05-.9-.05-.04-.3.03-.61.05-.9h.86Z"/>
      <path class="cls-52" d="M38.58,8.23c.24-.02.49.02.72,0,.01,1.6.02,3.19,0,4.79-.75-.12-.65-.09-.68.36-.01.17-.03.52.05.63-.37,0-.74.03-1.11,0l-.02.81c-3.28.04-6.53.13-9.81,0,.12-.64-.05-.81-.05-.86,0-.03.1.1.14-.59l1.85-.05.02.77h2.76c0-.95.07-1.9.07-2.85h1.18c-.02.93.02,1.85,0,2.78.3.06,2.41.14,2.51.07.07-.05-.03-.67.05-.72.05-.04,1.19.05,1.24-.02v-1.9l.86-.05c0-.75,0-1.49,0-2.24,0-.3.06-.6.05-.9.07,0,.1-.04.18-.05Z"/>
      <path class="cls-36" d="M27.72,14.83c3.28.13,6.53.04,9.81,0,.37,0,.75.06,1.13.05v1.38l-1.31.07s-.05.02-.07-.27c-.73-.02-1.46,0-2.19,0-2.53-.02-5.75.11-8.1.05-.02,0,.15-.07-.36-.09.46,0,.04-.83.41-1.22.23.01.45.04.68.05Z"/>
      <path class="cls-32" d="M36.54,21.84c.26,0,.51,0,.77,0,0,.03.07.22.05.59-.01.2-.08.42-.05.63l-.05.05-.72.02c.04.44-.11,3.56,0,3.71.04.06.61,0,.72.02,0,.2,0,.39,0,.59,0,.23.05.48.05.72-.26,0-.51.01-.77,0-.44-.02-.88.01-1.31,0-.33,0-.66-.09-.99-.05l.99-.11v-1.15c.28,0,.54-.03.81-.05.02,0,.16.1.41.02v-3.71s-.33-.02-.41-.02c-.31-.02-.82.06-.86-.07l.05-1.13c.08-.12,1.1-.07,1.31-.07Z"/>
      <path class="cls-68" d="M37.31,18.9c.01.99.03,1.94,0,2.94-.26,0-.51,0-.77,0l-.05-2.94h.81Z"/>
      <path class="cls-32" d="M37.31,17.82c0,.37,0,.72,0,1.09h-.81c-.44,0-.87.01-1.31,0,0-.35,0-.69,0-1.04.08,0,.15,0,.23,0,.63,0,1.27-.04,1.9-.05Z"/>
      <path class="cls-13" d="M37.36,16.33c.07.6-.35.22-.32.68-.15-.02-.43,0-.63,0-.42-.02-.85.05-1.27.05-.29,0-.58-.04-.86-.05l.95-.07c-.03-.5.1-.96-.14-.88.73,0,1.46-.02,2.19,0,.02.29.07.26.07.27Z"/>
      <g>
        <path class="cls-100" d="M38.44,4.93c.01.47,0,.95,0,1.42l.9.09c0,.29,0,.59,0,.88-.14.03-.75-.07-.81.07-.07.16.08.64.05.84-.08,0-.11.05-.18.05,0-.1.02-.56-.02-.59-.45.05-.69-.08-.79-.09v-2.19l-.63-.11c0-.13,0-.27,0-.41l1.49.05Z"/>
        <path class="cls-52" d="M37.72,3.89c.11,0,.69-.02.72.02,0,.34,0,.68,0,1.02l-1.49-.05c0-.31.03-.7-.05-.99.27,0,.54,0,.81,0Z"/>
      </g>
      <path class="cls-37" d="M38.67,14.02c.2,0,.39,0,.59,0,0,.04.09.5.05.84-.03.05-.53.02-.63.02-.38.01-.76-.05-1.13-.05l.02-.81c.37.03.74,0,1.11,0Z"/>
      <path class="cls-16" d="M37.04,17c.1.02.21.06.32.07.06.09-.05.63-.05.75-.63,0-1.27.04-1.9.05-.03-.17.57-.06,1.02-.09l-.02-.77c.2,0,.49-.02.63,0Z"/>
      <path class="cls-2" d="M39.35,7.33c0,.3-.05.61-.05.9-.24.02-.49-.02-.72,0,.03-.2-.12-.67-.05-.84.06-.14.67-.04.81-.07Z"/>
      <path class="cls-60" d="M39.3,13.39c0,.21-.04.43-.05.63-.2,0-.39,0-.59,0-.07-.12-.06-.46-.05-.63h.68Z"/>
      <path class="cls-2" d="M39.3,13.02c0,.12,0,.24,0,.36h-.68c.03-.45-.07-.48.68-.36Z"/>
      <path class="cls-68" d="M28.72,9.27c0,.05.04.1.05.5-.06-.01-.21.04-.23.07-.07.15.05,2.99,0,3.44.03.05.17.01.23.02.13.02.87-.05.9.05l-1.85.05s-.06-.18-.05-.68c0,0,.09.01.09-.02.03-1.14-.01-2.28,0-3.41h.86Z"/>
      <path class="cls-54" d="M28.54,3.89c-.04.93.03,1.84.09,2.76,0,.02,0,.03,0,.05l-.77-.09c0-.69-.05-1.78,0-2.35,0-.07-.02-.33.02-.36.22,0,.44,0,.66,0Z"/>
      <path class="cls-2" d="M27.77,12.71c-.02.5.05.64.05.68-.03.69-.13.55-.14.59h-.68c0-.42,0-.85,0-1.27h.77Z"/>
      <path class="cls-4" d="M28.76,9.18s-.05-.02-.05.09h-.86c0-.26,0-.51,0-.77h.84c.12.06.05.43.07.68Z"/>
      <path class="cls-82" d="M27.72,3.39c.01.29.07.57.09.86-1.02.09-.62-.17-.63-.86h.54Z"/>
      <path class="cls-15" d="M27.72,2.98c0,.14,0,.27,0,.41h-.54c0-.17,0-.28,0-.45.18-.04.37.04.54.05Z"/>
      <path class="cls-32" d="M5.7,28.13c.48-.01.97,0,1.45,0,0,.48.02.97,0,1.45-.01.3-.09.6-.05.9-.08,0-.43,0-.45,0-.03-.74-.28-.35-.43-.45-.06-.04,0-.35-.02-.38-.04-.06-.39,0-.43-.02-.06-.04.02-.27-.05-.32-.08-.06-.58.05-.7.05-.74,0-.32-.21-.47-.32-.02-.01-.33,0-.43,0,0-.77-.52-.32-.63-.47-.01-.02,0-.36.02-.38.06-.04,1.31,0,1.52,0,.23,0,.45-.04.68-.05Z"/>
      <path class="cls-36" d="M6.65,30.48c-.4.07,0,.44-.36.5-.11-.1,0-.4-.07-.45-.04-.03-.35.03-.41,0-.12-.06-.01-.26-.14-.32-.06-.03-.34.04-.38-.02-.03-.04.03-.41,0-.5-.05-.14-.36.18-.27-.34.12,0,.62-.1.7-.05.06.04-.02.27.05.32.04.03.39-.04.43.02.03.04-.04.34.02.38.15.1.4-.29.43.45Z"/>
      <path class="cls-11" d="M5.02,23.15c.23,0,.45,0,.68,0,.47,0,.93,0,1.4,0,.02,0,.03,0,.05,0l-.05,3.66c-.46.08-.94.05-1.4.05-.77,0-.64.09-.68.09,0,0,.01-.09-.02-.09-.66,0-1.33,0-1.99,0-.05-.03-.02-.69-.02-.81-.03-.95.02-1.9,0-2.85.69-.04,1.35-.04,2.04-.05Z"/>
      <path class="cls-16" d="M5.7,26.86v1.27c-.23,0-.45.04-.68.05v-1.22s-.09-.09.68-.09Z"/>
      <path class="cls-4" d="M32.43,2.17c.45,0,.91-.02,1.36,0-.02.1-.04.7-.07.72-.07.05-1.47-.04-1.7,0-.07-.25-.04-.47-.05-.72.15,0,.3,0,.45,0Z"/>
      <path class="cls-68" d="M35.18,2.89s-.03.09-.07.09c-.64.05-2.22,0-3.1,0,0-.03,0-.07,0-.09.23-.04,1.63.05,1.7,0,.03-.02.05-.63.07-.72.2,0,1.32,0,1.38.05.06.04,0,.57.02.68Z"/>
      <path class="cls-68" d="M14.83,2.17s.03,0,.05,0v.72c-.31.01-2.45.12-2.56.05-.06-.04,0-.61-.02-.72.1,0,.45-.09.54-.09.65,0,1.33.05,1.99.05Z"/>
      <path class="cls-13" d="M16.64,1.27c0,.05.04.04.05.05-.17.12-.06.5-.09.81-.33-.05-.67.04-.99.05-.24,0-.48,0-.72,0-.02,0-.03,0-.05,0l.07-.9c.29.05.6-.05.88-.05.04,0,.23.19.86.05Z"/>
      <path class="cls-4" d="M7.42,2.17c1.06-.02,2.16.08,3.21.05v.68c-.51.02-4.1.17-4.27.05-.06-.04,0-.61-.02-.72.36,0,.72-.04,1.09-.05Z"/>
      <path class="cls-13" d="M11.22,2.17c.16,1.08.03.7-.59.72v-.68c.07,0,.28-.08.59-.05Z"/>
      <path class="cls-54" d="M37.26,23.11c.08,1.22.05,2.44.05,3.66,0,.04-.05.05-.05.09-.12-.02-.68.04-.72-.02-.11-.15.04-3.27,0-3.71l.72-.02Z"/>
      <path class="cls-52" d="M5.7,21.84v1.31c-.23,0-.45,0-.68,0v-1.31c.23,0,.45,0,.68,0Z"/>
      <path class="cls-68" d="M30.26,2.17l.05.77c-.78,0-1.57.07-2.35.05.04-.28-.09-.59.05-.81.75-.03,1.51.02,2.26,0Z"/>
      <path class="cls-37" d="M31.07,2.17v.77c-.26,0-.51,0-.77,0l-.05-.77s.09-.08.09-.09c-.06.14.3.09.72.09Z"/>
      <path class="cls-68" d="M37.31,28.17c0,.42,0,.84,0,1.27-.16.15-.48.09-.77.09,0-.45,0-.9,0-1.36.26.01.51,0,.77,0Z"/>
      <path class="cls-95" d="M31.97,2.17c0,.25-.02.48.05.72,0,.02,0,.06,0,.09-.32,0-.64-.04-.95-.05v-.77c.3,0,.6,0,.9,0Z"/>
      <path class="cls-68" d="M36.77,3.89s.09,0,.14,0c.07.3.05.68.05.99,0,.14,0,.27,0,.41,0,.16-.07.38-.09.54l-1.47-.05-.07.77c-.25,0-.54.06-.81.05-.07,0-.08-.09-.09-.09l.02-1.81h-2.49l-.07,1.85-.05.05c-.26.01-.51-.01-.77,0l-.07-.81h-1.45l-.02.86h-.9c-.06-.92-.13-1.83-.09-2.76,2.74-.09,5.49-.03,8.23,0Z"/>
      <path class="cls-29" d="M36.86,2.94c-.05.33-.13.47-.14.5-.1-.01-.26.02-.32,0-.06-.11-.06-.48-.05-.5.02-.02.41.01.5,0Z"/>
      <g>
        <path class="cls-22" d="M18,.05v.81c-.06,0-.12,0-.18,0-.27,0-.3.04-.32.05-.03,0-.06,0-.09,0-.26.01-.51,0-.77,0-.02-.25.01-.51,0-.77.07,0,.03-.09.07-.09.43,0,.86,0,1.29,0Z"/>
        <path class="cls-59" d="M16.64.14c.01.25-.02.52,0,.77,0,.12,0,.24,0,.36-.63.14-.82-.04-.86-.05V.09c.27,0,.56-.04.84-.05.04,0,.02.09.02.09Z"/>
        <path class="cls-42" d="M17.41.9c.01.13-.02.29,0,.41-.14.08-.64.06-.72,0,0,0-.05,0-.05-.05,0-.12,0-.24,0-.36.26,0,.51.01.77,0Z"/>
        <path class="cls-47" d="M17.5.9v.5s-.08-.05-.09-.09c-.02-.11.01-.28,0-.41.03,0,.06,0,.09,0Z"/>
      </g>
      <path class="cls-71" d="M5.29,3.8s0,.03,0,.05h-.84s-.02-.53-.02-.63c0-.03,0-.06,0-.09h.79c.13.06.05.43.07.68Z"/>
      <path class="cls-4" d="M17.55,5.11c.11,0,.74.05.77.11-.04.48-.05.95-.05,1.42l-.9.02-.07,1.06h-3.03s-.02-.95-.02-1.11c0-.04-.09-.02-.09-.02,0-.24.05-.52.05-.77.26-.03.57.05.81.05l.07.77h1.67c-.06-1.28.32-.63.43-.88.02-.04.05-.69-.14-.61.12,0,.41-.05.5-.05Z"/>
      <path class="cls-4" d="M11.62,6.69c-.03.33.07.67-.07.99h-3.05c-.01-.3-.08-.6-.05-.9,0,0-.02-.09.02-.09.25-.03.54-.03.79-.05.41-.02,1.13,0,1.58,0,.37,0,.72-.05.77.05Z"/>
      <path class="cls-2" d="M17.05,5.16c.19-.08.15.57.14.61-.11.25-.49-.4-.43.88h-1.67l-.07-.77c.54,0,1.1-.09,1.65-.05.12-.09.05-.39.07-.68.11,0,.21,0,.32,0Z"/>
      <path class="cls-2" d="M10.85,6.65c-.46,0-1.17-.02-1.58,0l.02-.81c1.56.08,1.64-.37,1.56.81Z"/>
      <g>
        <path class="cls-2" d="M12.35,6.6v1.45c-.25.09-.48,0-.72.07.05.37-.05.75-.05,1.11-.24.05-.5-.05-.72-.05-.02-.12.04-.73-.02-.77-.04-.03-.7.02-.86,0l-.02.81c-.47,0-.94,0-1.4,0v-.77c.15-.07-.09-.11-.09-.16-.02-.21.05-.4.05-.61h3.05c.13-.32.04-.67.07-.99.01-.14.09-.06.09-.14.16.06.46.06.63.05Z"/>
        <path class="cls-2" d="M8.46,6.78c-.04.3.03.61.05.9,0,.21-.07.4-.05.61,0,.05.24.09.09.16h-.72s0-.03,0-.05c0-.54,0-1.09,0-1.63.2-.02.43.02.63,0Z"/>
      </g>
      <path class="cls-92" d="M18.54,16.78s0,.06,0,.09c-.25,0-.66.12-.86.14-1.57.11-6.02-.01-8.14,0l.07-.95h8.91s.02.61.02.72Z"/>
      <path class="cls-4" d="M9.54,17c2.12-.01,6.57.11,8.14,0l.05.81c-.93-.04-2.92.05-4.12.05-.92,0-.77.09-.81.09,0,0,.01-.09-.02-.09-.95,0-1.9-.08-2.85-.05-.11.08-.06.2-.07.32.02-.46-.54-.37-.81-.23v-.9c.17,0,.33,0,.5,0Z"/>
      <path class="cls-53" d="M20.26,16.01c.18,0,.21.04.23.05-.06.39-.05.78-.05,1.18h-.97c0,.29-.07.69-.07.72l-.77.05c-.06,0-.04-.04-.05-.05,0-.36-.02-.72-.05-1.09,0-.03,0-.06,0-.09.82-.01.87.21.86-.77.29,0,.57-.01.86,0Z"/>
      <path class="cls-62" d="M20.17,14.7c0,.19.04.39.05.59,0,.23-.04.51.05.72-.29-.01-.57,0-.86,0,0-.06-.17-.54-.09-1.27.29-.02.57-.08.86-.05Z"/>
      <path class="cls-7" d="M19.13,13.48c0,.07.09.03.09.07,0,.41.01.83,0,1.24-.28.02-.58-.02-.86,0v-.77c.12-.07.23-.04.36-.09.42-.15-.07-.5.41-.45Z"/>
      <path class="cls-7" d="M9.04,17v.81l-.95-.05v-.72c.31,0,.63-.04.95-.05Z"/>
      <g>
        <path class="cls-32" d="M19.4,16.01c0,.98-.04.76-.86.77,0-.11.03-.69-.02-.72h-8.91l-.07.95c-.17,0-.33,0-.5,0-.32,0-.64.04-.95.05-.35,0-.72-.05-1.09-.05-.04-.28-.04-.58-.05-.86,0-.43.04-.85.05-1.27,3.79.05,7.57.12,11.35-.09.28-.02.58.02.86,0,.04,0,.05-.04.09-.05-.08.72.09,1.2.09,1.27Z"/>
        <path class="cls-67" d="M8.43,16.05s.38,0,.43.07c0,.81.19.93-.72.81v-.81c.25-.02.28-.07.29-.07Z"/>
      </g>
      <path class="cls-16" d="M18.27,7.73c.03,1.64-.04,3.28,0,4.91,0,.03.09.06.09.07.01.4-.32,1.41.36,1.22-.13.05-.25.02-.36.09-.29-.17.02-.56-.2-.63-.31.04-.62-.04-.93-.05.05-.24-.05-.5-.05-.72,0-.02.04-.09.05-.45.02-.92-.02-2.14.05-2.98,0,0,.07.03.14-.07v-1.31l.86-.07Z"/>
      <path class="cls-53" d="M18.45,2.76c0,.33,0,.66,0,.99,0,.34,0,.68,0,1.02.25,0,.52.06.77.07v.9c0,1.93,0,3.86,0,5.79,0,.39,0,.78,0,1.18h-.86s-.09-.03-.09-.07c-.04-1.63.03-3.27,0-4.91,0-.36,0-.72,0-1.09,0-.48,0-.95.05-1.42-.03-.06-.66-.11-.77-.11,0-.76.01-1.52,0-2.28,0-.04-.09-.02-.09-.02,0-.17.05-.13.05-.14-.03.17.51.06.95.09Z"/>
      <path class="cls-53" d="M17.41,1.31s.05.09.09.09c0,.12,0,.24,0,.36,0,.3,0,.6,0,.9,0,0-.05-.04-.05.14-1.18.17-.24-.58-.86-.68.03-.32-.08-.69.09-.81.08.06.59.08.72,0Z"/>
      <path class="cls-30" d="M15.6,2.17c.19,1.07-.05.7-.72.72v-.72c.24,0,.48,0,.72,0Z"/>
      <path class="cls-33" d="M8,18.99v2.85h-.86s0-.04-.05-.05v-2.8c.3,0,.61.01.9,0Z"/>
      <g>
        <path class="cls-74" d="M7.1,17.82v1.06l.95.02v.05s.01.04-.05.05c-.3.01-.61,0-.9,0-.47,0-.94.02-1.4-.02l.02-1.15c.46,0,.92.01,1.38,0Z"/>
        <path class="cls-32" d="M9.04,17.82v1.11s-.85.01-.99.02v-1.13l.05-.05.95.05Z"/>
        <path class="cls-29" d="M8.05,17.82v1.09l-.95-.02v-1.06c.32,0,.63,0,.95,0Z"/>
      </g>
      <path class="cls-4" d="M8.55,8.46v.77c-.24,0-.48.01-.72.05,0-.27,0-.54,0-.81h.72Z"/>
      <path class="cls-4" d="M9.86,28.08l2.83.05.02-1.22c.16,0,.66-.18.86.09v1.09c-.47.05-.35.43-.25.81h3.21c.21-.62-.02-.73-.02-.77-.02-.39.01-.79,0-1.18.04,0,.45-.11.77-.02v1.13l.14.02c.99,0,1.99,0,2.98,0l.07.81c1.63-.02,3.26-.07,4.88-.05.1-.86-.07-.73-.07-.77-.02-.39.01-.79,0-1.18.25,0,.72-.05.77.07v1.13l.09-.02c.29.1,2.47.04,2.98.05,0,.12-.02.74.02.77h4.25c.1-.87-.07-.73-.07-.77,0-.38.1-.79.05-1.18,0,0,.14-.09.16-.09.34,0,.62.05.66.05l.05,1.22c.33-.04.67.04.99.05v1.36c-9.05.25-18.13.06-27.18,0v-1.4c.23,0,.94.05.99-.07v-1.2c.12,0,.74-.02.77.02l.05,1.2Z"/>
      <path class="cls-37" d="M36.54,28.17c0,.45,0,.9,0,1.36-.42,0-.84-.01-1.27,0-.02,0-.03,0-.05,0v-1.36c.43.01.87-.02,1.31,0Z"/>
      <path class="cls-71" d="M8.05,28.13v1.4l-.05.05h-.86c.02-.48,0-.97,0-1.45.3,0,.6,0,.9,0Z"/>
      <g>
        <path class="cls-2" d="M32.61,6.6c-.02.3.02.61,0,.9v.86c-.26,0-.53,0-.79,0-.09.04-.07.75-.07.86-1.35.17-.29-.59-.97-.72-.97-.19-.37.65-.63.77-.5-.04-1.33.09-1.38-.09-.02-.25.06-.62-.07-.68h-.84c0-.63,0-1.27,0-1.9l.77.09c.01.15-.03.96.02.99l3.17-.05.02-1.04.05-.05.72.05Z"/>
        <path class="cls-2" d="M34.42,6.51s.02.09.09.09l.02.99c.92.05,2.21-.07,3.05,0,.1,0,.34.14.79.09.05.03.02.49.02.59.01.31-.04.61-.05.9h-3.8c0-.26-.09-.53-.05-.79-.09-.11-.48-.07-.81-.07v-.86c0-.3,0-.6,0-.9.19-.06.53-.06.72-.05Z"/>
      </g>
      <path class="cls-33" d="M27.68,13.97s.16.22.05.86c-.23,0-.45-.03-.68-.05-.12,0-.09-.04-.09-.05-.04-.36.05-.73.05-.77h.68Z"/>
      <path class="cls-92" d="M35.09,16.05c.23-.08.11.38.14.88l-.95.07c-1.31-.01-2.62,0-3.93,0-.23,0-.45,0-.68,0-.86,0-1.72-.04-2.58.05,0-.02-.07.11-.09-.41,0-.18,0-.36,0-.54,2.34.07,5.57-.06,8.1-.05Z"/>
      <path class="cls-62" d="M26.95,14.74s-.03.04.09.05c-.36.39.06,1.22-.41,1.22-.24,0-.48,0-.72,0,.05-.11-.02-.34-.05-.45-.02-.11-.12-.24-.14-.38-.03-.31.05-.41.05-.43.39.02.79-.02,1.18,0Z"/>
      <path class="cls-29" d="M26.64,16.01c.52.02.34.09.36.09,0,.18,0,.36,0,.54h-1.13c0-.2,0-.39,0-.59,0,0,.04-.04.05-.05.24,0,.48,0,.72,0Z"/>
      <path class="cls-52" d="M36.5,18.9l.05,2.94c-.21,0-1.23-.05-1.31.07l-.05,1.13c.04.13.55.05.86.07v3.71c-.28.02-.54.04-.81.05-.02,0-.03,0-.05,0,.19-1.22-.66-.25-.45-1.11,0-.03.06-.02.09-.02.14-.01.28.05.36-.07,0-.23,0-.47,0-.7,0-.22.05-1.76,0-1.83-.05-.07-.49.02-.54-.05-.04-.05-.04-1.17,0-1.22.05-.07.54.02.59-.05.08-.12-.04-2.56-.05-2.92.44.01.87,0,1.31,0Z"/>
      <path class="cls-32" d="M36.04,26.82v-3.71c.08,0,.37-.02.41.02v3.71c-.24.08-.39-.02-.41-.02Z"/>
      <path class="cls-32" d="M35.18,26.86s.03,0,.05,0v1.15l-.99.11-.05-1.22c.33,0,.66-.04.99-.05Z"/>
      <path class="cls-55" d="M37.58,7.6c-.84-.07-2.14.05-3.05,0l-.02-.99c.27.02.56-.05.81-.05.5,0,1.01.09,1.52.05.05-.04,0-.64.02-.77.02-.16.08-.38.09-.54l.63.11v2.19Z"/>
      <path class="cls-16" d="M35.18,17.86c0,.35,0,.69,0,1.04-.14,0-.92.02-.95-.02v-1.02c.32,0,.63,0,.95,0Z"/>
      <path class="cls-37" d="M36.41,17l.02.77c-.45.03-1.04-.08-1.02.09-.08,0-.15,0-.23,0,0-.25.04-.59-.05-.81.42,0,.84-.06,1.27-.05Z"/>
      <path class="cls-10" d="M34.28,17c.28,0,.57.04.86.05.08.23.05.56.05.81-.32,0-.63,0-.95,0-.27,0-.55.04-.81.05-1.04,0-2.08-.05-3.12-.05l.05-.86c1.31,0,2.62-.01,3.93,0Z"/>
      <path class="cls-91" d="M25.05,13.3c.17,0,.43-.02.54,0,.05,0,.15-.02.18.02.01.46-.02.92,0,1.38l-.95-.09c0-.15,0-.3,0-.45,0-.3.1-.59,0-.86.08,0,.15,0,.23,0Z"/>
      <path class="cls-32" d="M25.78,14.7s0,.03,0,.05c0,.02-.08.12-.05.43.02.15.11.27.14.38l-.54-.05c0-.06.02-.24-.02-.27-.03-.02-.32.01-.43,0,0-.16-.05-.35-.05-.5,0-.05,0-.09,0-.14l.95.09Z"/>
      <path class="cls-80" d="M24.96,12.39c-.13-.01-.27.01-.41,0-.07,0-.04-.17-.05-.36.41-.12.63-.1.45.36Z"/>
      <g>
        <path class="cls-6" d="M25.6,13.3c-.12-.02-.37,0-.54,0l-.05-.5c.3-.07.63.09.45-.36.03,0,.08-.02.14.07v.79Z"/>
        <path class="cls-63" d="M25.46,12.44c.18.45-.15.29-.45.36v-.36c.14.02.36-.02.45,0Z"/>
      </g>
      <g>
        <path class="cls-16" d="M36.41,2.31c.04.22-.03.43-.05.63-.01.17-.15.43.05.5.06.02.22-.01.32,0,0,.02.09.33.05.45-2.74-.03-5.49-.09-8.23,0-.22,0-.44,0-.66,0-.05.03-.02.29-.02.36h-.05c-.02-.29-.08-.57-.09-.86,0-.14,0-.27,0-.41.07,0,.15,0,.23,0,.79.03,1.57-.05,2.35-.05.26,0,.51,0,.77,0,.31,0,.63.05.95.05.88,0,2.46.05,3.1,0,.03,0,.06-.09.07-.09.02,0,.3.14.45-.02-.09-.74.02-.55.77-.57Z"/>
        <path class="cls-100" d="M36.9,2.4c.02.2-.01.35-.05.54-.09.01-.48-.02-.5,0,.02-.21.08-.42.05-.63.22,0,.47-.04.5.09Z"/>
        <path class="cls-100" d="M36.41,3.44c-.19-.07-.06-.33-.05-.5-.02.02-.02.39.05.5Z"/>
      </g>
      <path class="cls-4" d="M31.07,6.6c.25-.01.51.01.77,0l-.02,1.04-3.17.05c-.05-.04-.01-.84-.02-.99,0-.02,0-.03,0-.05h.9c.51,0,1.03-.02,1.54-.05Z"/>
      <path class="cls-68" d="M28.76,9.77c.02,1.18-.01,2.35,0,3.53-.06,0-.19.02-.23-.02.05-.45-.07-3.28,0-3.44.01-.03.17-.08.23-.07Z"/>
      <path class="cls-29" d="M7.15,26.86c-.04.41,0,.81,0,1.22,0,.02,0,.03,0,.05-.48,0-.97-.01-1.45,0v-1.27c.46,0,.94.04,1.4-.05l.05.05Z"/>
      <path class="cls-33" d="M8,23.15v.9c0,.92,0,1.84,0,2.76,0,.02,0,.03,0,.05h-.86l-.05-.05.05-3.66c.29,0,.57.01.86,0Z"/>
      <path class="cls-2" d="M31.07,6.6c-.51.03-1.03.05-1.54.05l.02-.86h1.45l.07.81Z"/>
      <path class="cls-2" d="M36.86,5.83c-.01.12.03.73-.02.77-.5.04-1.01-.04-1.52-.05l.07-.77,1.47.05Z"/>
      <path class="cls-2" d="M14.16,6.6s.09-.01.09.02c0,.15-.03,1.07.02,1.11h3.03l.07-1.06.9-.02c0,.36,0,.72,0,1.09l-.86.07v1.31c-.06.09-.14.06-.14.07h-.86c-.19-.03-1.32.04-1.38,0-.07-.05.02-.54-.05-.59-.03-.02-.63,0-.75,0-.23,0-.47,0-.7,0-.03-.01-.05-.07-.07-.09,0-.63,0-1.27,0-1.9h.68Z"/>
      <path class="cls-68" d="M10.85,9.18s-.19.09-.2.09c-.22,0-.47-.05-.7-.05l.02-.81c.16.02.82-.03.86,0,.06.04,0,.65.02.77Z"/>
      <path class="cls-16" d="M18.59,17.95s-.31-.11-.86-.14l-.05-.81c.2-.01.6-.13.86-.14.02.36.04.72.05,1.09Z"/>
      <path class="cls-68" d="M13.61,17.86l.07,1.13c.82.04,1.64-.03,2.46-.05l-.05.86c-.53.04-.89,0-.72.38.07.15.68.02.75.07.13.09-.28.52.61.41v.05l-.05,1.06-.09.07c-1.01,0-2.02,0-3.03,0-.24,0-.48,0-.72,0-.93,0-1.87,0-2.8,0h-1.04v-2.83c.06-.11.72-.06.86-.07.97-.03,1.95.03,2.92,0l.02-.99s-.1-.09.81-.09Z"/>
      <path class="cls-52" d="M18.59,17.95s-.01.05.05.05c-.08.29-.04.64-.05.95-.28-.05-.58.05-.86.05-.52,0-1.05-.05-1.58-.05-.82.01-1.64.09-2.46.05l-.07-1.13c1.19,0,3.18-.08,4.12-.05.55.02.81.13.86.14Z"/>
      <path class="cls-4" d="M9.86,18.13c-.03.26.02.55,0,.81-.14,0-.8-.04-.86.07v2.83h-.99v-2.85c.06,0,.04-.05.05-.05.14,0,.96.03.99-.02v-1.02c.28-.14.83-.23.81.23Z"/>
      <path class="cls-52" d="M12.8,17.95l-.02.99c-.97.03-1.95-.03-2.92,0,.02-.26-.03-.56,0-.81.01-.11-.04-.24.07-.32.95-.03,1.9.04,2.85.05.04,0,.02.09.02.09Z"/>
      <path class="cls-53" d="M21.93,12.75c0,.25.06.51.05.77-.02.34-.08.68-.05,1.02l-.75.02.02.09c-.03.07-.09.6-.09.63h-.9c0-.19-.04-.4-.05-.59,0-.03,0-.06,0-.09l.81-.07c0-.35,0-.71,0-1.06,0-.23-.02-.45,0-.68l.95-.05Z"/>
      <path class="cls-2" d="M19.22,12.71c0,.25,0,.5,0,.75,0,.04-.09.02-.09.02-.47-.05.02.3-.41.45-.68.19-.35-.82-.36-1.22h.86Z"/>
      <path class="cls-62" d="M20.17,14.61c0-.35,0-.71,0-1.06,0-.04.09-.02.09-.02l.72-.05c0,.35,0,.71,0,1.06l-.81.07Z"/>
      <g>
        <path class="cls-68" d="M11.58,9.23c0,.15.01,1.06.05,1.11.05.07.57,0,.61.02.05.03.02.41.02.5.01.18.04.39.05.41.03.94-.09,1.91-.07,2.85-.31-.05-2.34.07-2.44,0-.07-.05.03-.67-.05-.72-.08-.05-1.63,0-1.88,0-.08-.2-.05-.53-.05-.77,0-1.12,0-2.23,0-3.35.24-.03.48-.04.72-.05.47,0,.94,0,1.4,0,.23,0,.48.05.7.05.01,0,.17-.09.2-.09.23,0,.49.09.72.05Z"/>
        <path class="cls-60" d="M10.74,12.48c.79-.27.58.82.5.86-.04.02-.57,0-.61-.02-.02-.19-.09-.77.11-.84Z"/>
      </g>
      <path class="cls-4" d="M17.28,9.18c-.06.84-.02,2.07-.05,2.98-.59.02-.63-.14-.59.41-.06-.04-.07-.38-.05-.43.06-.13.89.08.59-.5-.08-.16-.72.03-.77-.09v-2.37h.86Z"/>
      <g>
        <path class="cls-68" d="M16.42,9.18v2.37c.05.12.69-.07.77.09.3.58-.53.37-.59.5-.02.05-.02.39.05.43.15.09.38.03.54.05,0,.23.09.49.05.72-.15,0-1.24,0-1.29.05-.07.05.03.67-.05.72-.09.07-2.01-.05-2.31,0-.13-.06-.09-2.55-.07-2.85,0-.13.03-.27.05-.41,0-.09-.04-.46.02-.5.05-.03.61.04.66-.02.05-.07-.04-1.51,0-1.74.12,0,.72-.02.75,0,.07.05-.02.54.05.59.06.04,1.19-.03,1.38,0Z"/>
        <path class="cls-84" d="M14.58,12.8c.79-.35.77.88,0,.54-.1-.05-.1-.5,0-.54Z"/>
      </g>
      <path class="cls-84" d="M17.23,12.17c0,.37-.05.43-.05.45-.17-.02-.4.05-.54-.05-.04-.54,0-.39.59-.41Z"/>
      <path class="cls-68" d="M16.6,21.84l-.05.05-2.89.02.07,1.15c.93.01,1.85-.02,2.78,0,.3,0,.6.04.9.05.61.01,1.2.02,1.81.05-.08,1.31.15.78.45.9.19.77-.31.59-1.76.63l-.02-.72c-1.05-.07-2.09-.03-3.14,0-.49.01-.98-.01-1.47,0-.16.04-.1.63-.05.77.08.05,1.34-.04,1.56-.05.54,0,1.09,0,1.63,0v.7s.07.08.11.11c.12.09,2.96-.15,3.12-.05.06.04-.03.17.07.23.07.04.62-.04.7,0,.14.06.02.45.09.5.06.04,1.28.05,1.47.05v.68c-1.53,0-3.06,0-4.59,0l.02,1.18-.14-.02v-1.13c-.31-.08-.73.02-.77.02-.46-.01-2.66-.14-2.92-.05-.03.01-.02.06-.02.09-.2-.27-.7-.08-.86-.09-.93-.03-1.85-.07-2.78-.05l-.07,1.22-.05-1.2s-.65-.02-.77-.02c-.28-.62-.07-1.9-.14-2.74l-.9-.07v-.9c.37-.02.75-.06,1.13-.07v-1.24h.9l.02,1.27c.94,0,1.88.03,2.83-.05.75-.06.83.34.68-1.22,1.01,0,2.02,0,3.03,0Z"/>
      <g>
        <path class="cls-52" d="M21.98,26.91c.31,0,.63.07.95,0,.78.02,1.57-.03,2.35,0,.01.39-.02.79,0,1.18-1.63,0-3.26,0-4.88,0-.99,0-1.99,0-2.98,0l-.02-1.18c1.53,0,3.06,0,4.59,0Z"/>
        <path class="cls-2" d="M25.28,28.08s.17-.09.07.77c-1.63-.02-3.26.03-4.88.05l-.07-.81c1.63,0,3.26,0,4.88,0Z"/>
      </g>
      <path class="cls-52" d="M29.12,26.91c0,.41-.01.81,0,1.22-.52,0-2.7.06-2.98-.05l.02-1.18c.99.02,1.98-.03,2.96,0Z"/>
      <path class="cls-37" d="M12.71,26.91l-.02,1.22-2.83-.05.07-1.22c.93-.02,1.85.01,2.78.05Z"/>
      <g>
        <path class="cls-52" d="M33.38,26.95c.05.39-.05.8-.05,1.18-1.11.05-2.23-.05-3.35-.05l.02-1.18c.14-.1,2.95.05,3.37.05Z"/>
        <path class="cls-2" d="M33.33,28.13s.17-.1.07.77h-4.25s-.02-.65-.02-.77c.26,0,.51,0,.77,0,.04,0,.05-.05.09-.05,1.11,0,2.23.09,3.35.05Z"/>
      </g>
      <g>
        <path class="cls-52" d="M16.51,26.95c.01.39-.02.79,0,1.18-.71.07-2.58-.08-2.94-.05v-1.09s-.01-.08.02-.09c.26-.09,2.46.03,2.92.05Z"/>
        <path class="cls-2" d="M16.51,28.13s.23.15.02.77h-3.21c-.11-.39-.22-.77.25-.81.36-.04,2.23.12,2.94.05Z"/>
      </g>
      <path class="cls-32" d="M9.04,26.86v1.2c-.05.12-.76.06-.99.07-.3,0-.6,0-.9,0,0-.02,0-.03,0-.05l.9-.02c.01-.4-.04-.81-.05-1.2,0-.02,0-.03,0-.05.34.09.7.04,1.04.05Z"/>
      <g>
        <path class="cls-68" d="M31.75,9.23c0,.18,0,1.41.05,1.47.05.07.65-.01.7.02.04.03.02.46.02.54,0,.95-.07,1.9-.07,2.85h-2.76l-.02-.77c-.03-.09-.77-.03-.9-.05-.01-1.18.02-2.35,0-3.53,0-.4-.04-.45-.05-.5,0-.12.05-.09.05-.09.05.19.88.05,1.38.09.26-.12-.34-.96.63-.77.68.14-.37.9.97.72Z"/>
        <path class="cls-60" d="M30.96,12.53s.59,0,.61.02c.02.03,0,.72-.02.75-.02.02-.59,0-.61-.02-.02-.03,0-.72.02-.75Z"/>
      </g>
      <path class="cls-55" d="M38.31,9.18l-.02,2.22-.84-.07v-2.15h.86Z"/>
      <g>
        <path class="cls-68" d="M37.45,9.18v2.15l.84.07.02-2.22h.05c0,.75,0,1.49,0,2.24l-.86.05v1.9c-.05.07-1.19-.02-1.24.02-.07.05.03.67-.05.72-.1.07-2.21,0-2.51-.07.02-.93-.02-1.86,0-2.78,0-.34,0-.68,0-1.02l.81-.09c-.06-.32.05-.67.05-.97h2.89Z"/>
        <path class="cls-68" d="M34.75,12.53s.64,0,.75.02c.04.06.27,1.1-.77.77.02-.12-.04-.75.02-.79Z"/>
      </g>
      <path class="cls-4" d="M29.67,17v.86c-.65,0-2.35-.06-2.58-.05-.11-.49,0-.73,0-.77.85-.08,1.72-.05,2.58-.05Z"/>
      <path class="cls-14" d="M27,16.64c.02.52.09.38.09.41,0,.04-.11.28,0,.77-.03,0-.02.14-.41.09,0-.08.02-.37-.02-.41h-.75s-.05-.54-.05-.77c0-.03,0-.06,0-.09h1.13Z"/>
      <path class="cls-4" d="M30.35,17l-.05.86c-.21,0-.42,0-.63,0v-.86c.23,0,.45,0,.68,0Z"/>
      <path class="cls-84" d="M35.18,24.96c0,.23,0,.47,0,.7-.08.11-.23.05-.36.07-.2.02-.49-.02-.7,0-.31-1.1.23-.7,1.06-.77Z"/>
      <path class="cls-52" d="M29.67,17.86c.21,0,.42,0,.63,0,1.04,0,2.08.05,3.12.05.05.33-.05.68-.05.99-1.82,0-3.65,0-5.47,0-.19,0-.37.02-.36-.05,0-.19,0-.38,0-.57l-.5-.07h-.36c0-.1,0-.21,0-.32.39.05.38-.09.41-.09.23-.02,1.93.05,2.58.05Z"/>
      <g>
        <path class="cls-8" d="M24.56.9c-.02.08-.02.59.07.63l.79.07c-.1,1.58.19.84.68,1.02.05.39-.04.79-.05,1.18h-.77l-5.22-.05c0,.34-.07.71-.07,1.04-.23.05-.48-.05-.7-.05-.03,0,0,.09-.07.09-.25,0-.52-.07-.77-.07,0-.34,0-.68,0-1.02.99.11.39-.23.66-1.04l4.59-.02-.07-.93h-5.11l-.02-.9c.81,0,5.7-.1,5.99-.05.01,0,.07.06.07.09Z"/>
        <path class="cls-25" d="M27,12.71c0,.41,0,.85,0,1.27,0,.04-.09.41-.05.77-.39-.02-.79.02-1.18,0,0-.02,0-.03,0-.05-.02-.46.01-.92,0-1.38-.03-.05-.13-.01-.18-.02v-.79c-.06-.09-.11-.06-.14-.07-.09-.02-.31.02-.45,0-.06,0-.04-.04-.05-.05.17-.46-.05-.48-.45-.36,0-.16.03-.35-.05-.5.29,0,.57.01.86,0,.1,0,.56.02.59-.02.01-.29-.02-.59,0-.88.05-.7.05-1.4.05-2.1l-.59-.07.63-.07v-.81s-.53-.02-.63-.02c-.32-.01-.64.03-.95-.02-.07-.09.05-.78.05-.93.27.04.55-.03.81-.05.12,0,.73.03.77-.02.07-.91,0-1.83,0-2.74,0-.38.09-.79.05-1.18l.09.07c.03.21-.04,1.47,0,1.54.06.08.66-.06.72.09.03,2.79-.04,5.58,0,8.37,0,.04.09.02.09.02Z"/>
        <path class="cls-94" d="M17.82.86v.9h-.32c0-.12,0-.24,0-.36v-.5s.05-.04.32-.05Z"/>
        <path class="cls-25" d="M20.03,11.53c.06,0,.12,0,.18,0-.05.4.05.83.05,1.22,0,.26,0,.51,0,.77,0,0-.09-.01-.09.02,0,.35,0,.71,0,1.06,0,.03,0,.06,0,.09-.29-.03-.57.02-.86.05-.04,0-.05.04-.09.05.01-.41,0-.83,0-1.24,0-.04-.09,0-.09-.07,0,0,.09.01.09-.02,0-.25,0-.5,0-.75,0-.39,0-.78,0-1.18h.81Z"/>
        <path class="cls-25" d="M26.05,3.8c0,.91.07,1.82,0,2.74-.03.05-.65.02-.77.02v-2.76h.77Z"/>
        <path class="cls-94" d="M19.99,4.79c0,.32.09.67.05.99-.05,0-.09,0-.14,0-.23,0-.45.01-.68-.05v-.9c.07,0,.03-.09.07-.09.22,0,.47.09.7.05Z"/>
        <path class="cls-5" d="M25.24,9.23c-.01.39-.02,1.01,0,1.38,0,.04.09.02.09.02.02.3-.02.61,0,.9-.29.01-.57,0-.86,0-.93.01-1.87.04-2.8.05-.18,0-.36,0-.54,0-.29,0-.6-.04-.9-.05-.06,0-.12,0-.18,0v-2.28c.13,0,.29-.06.41-.07.9-.06,3.54.14,4.79.05Z"/>
        <path class="cls-25" d="M25.37,8.46l.59.07c0,.7,0,1.4-.05,2.1h-.59s-.09.01-.09-.02c-.02-.37-.01-.99,0-1.38,0-.24.02-.51.05-.75,0-.04.09-.02.09-.02Z"/>
        <path class="cls-79" d="M25.28,5.79v.77c-.27.02-.54.08-.81.05,0-.04-.15-.05-.09-.81h.9Z"/>
        <path class="cls-22" d="M25.37,8.46c.03-.3-.02-.61,0-.9.1,0,.6-.02.63.02v.81l-.63.07Z"/>
        <path class="cls-94" d="M25.91,10.63c-.02.29.01.59,0,.88-.03.05-.49.02-.59.02-.02-.3.02-.61,0-.9h.59Z"/>
        <g>
          <path class="cls-46" d="M18,.86c.17,0,.33,0,.5,0l.02.9h5.11l.07.93-4.59.02c-.26.81.33,1.15-.66,1.04,0-.33,0-.66,0-.99,0-.32,0-.65,0-.97l-.63-.02v-.9c.06,0,.12,0,.18,0Z"/>
          <path class="cls-86" d="M17.82,1.76l.63.02c0,.32,0,.65,0,.97-.44-.03-.98.08-.95-.09,0-.3,0-.6,0-.9h.32Z"/>
        </g>
        <path class="cls-25" d="M19.9,5.79c-.05.25.05.63.05.81,0,.25-.06.51-.05.77,0,.19-.02.44,0,.61,0,.04.09.02.09.02.06.36-.2.61.41.54,0,.2.09.43.05.63-.12,0-.28.07-.41.07v2.28h-.81c0-1.93,0-3.86,0-5.79.23.06.45.04.68.05Z"/>
        <path class="cls-25" d="M21.12,11.58c-.02.22.03.53,0,.72,0,.03-.08-.22-.14.45h-.72c0-.4-.1-.82-.05-1.22.3,0,.61.04.9.05Z"/>
        <path class="cls-5" d="M20.98,12.75s0,.03,0,.05c-.02.23,0,.45,0,.68l-.72.05c0-.26,0-.51,0-.77h.72Z"/>
        <g>
          <path class="cls-42" d="M25.28,3.8v1.99h-.9l-.05.79s-.53.02-.63.02l-.02-.81h-2.26l-.07.77c-.18,0-.36,0-.54,0-.02-.12.04-.73-.02-.77-.03-.02-.63,0-.75,0,.05-.33-.05-.67-.05-.99s.07-.7.07-1.04l5.22.05Z"/>
          <path class="cls-79" d="M23.7,6.6c-.79.03-1.57-.04-2.35-.05l.07-.77h2.26l.02.81Z"/>
        </g>
        <path class="cls-79" d="M20.03,5.79c.12,0,.72-.02.75,0,.06.04,0,.65.02.77-.28,0-.58.09-.86.05,0-.19-.09-.56-.05-.81.05,0,.09,0,.14,0Z"/>
        <g>
          <path class="cls-46" d="M24.47,6.6c0,.15-.11.83-.05.93.31.05.63.01.95.02-.02.3.03.61,0,.9,0,0-.09-.01-.09.02-.02.24-.04.51-.05.75-1.25.09-3.89-.11-4.79-.05.05-.21-.04-.44-.05-.63,0-.15.08-.33.05-.5.04,0,.31-.05.32-.07.02-.02.02-.56,0-.59-.04-.06-.73,0-.86-.02-.01-.26.05-.52.05-.77.28.05.58-.04.86-.05.18,0,.36,0,.54,0,.78,0,1.57.07,2.35.05.1,0,.6.02.63-.02l.05-.79c-.06.77.09.77.09.81Z"/>
          <path class="cls-79" d="M20.44,8.05s-.14-.08-.45-.05c0,0-.09.02-.09-.02-.02-.17,0-.42,0-.61.13.02.82-.04.86.02.02.02.02.56,0,.59,0,.01-.28.06-.32.07Z"/>
          <path class="cls-89" d="M20.44,8.05c.03.16-.05.35-.05.5-.61.07-.34-.19-.41-.54.32-.03.43.05.45.05Z"/>
        </g>
      </g>
      <path class="cls-38" d="M21.66,11.58v.68s.07.2-.54.05c.03-.19-.02-.51,0-.72.18,0,.36,0,.54,0Z"/>
      <g>
        <g>
          <path class="cls-70" d="M32.7,6.51h.99s0,.03,0,.05c0,.3,0,.6,0,.9l-1.09.05c.02-.3-.02-.61,0-.9.01-.14.09-.08.09-.09Z"/>
          <path class="cls-3" d="M33.69,7.46v.86c-.35,0-.73.03-1.09.05v-.86l1.09-.05Z"/>
        </g>
        <g>
          <path class="cls-87" d="M34.55,9.18c0,.31-.1.66-.05.97l-.81.09c0,.34,0,.68,0,1.02h-1.18c0-.09.02-.51-.02-.54-.05-.03-.65.04-.7-.02-.04-.06-.05-1.29-.05-1.47,0-.11-.02-.82.07-.86.26,0,.53,0,.79,0,.35-.01.74-.05,1.09-.05.34,0,.72-.04.81.07-.04.26.04.53.05.79Z"/>
          <path class="cls-44" d="M32.77,9.18s.82-.02.86,0c.03.02.04.39.02.43-.04.1-.8.08-.84.07-.11-.05-.08-.47-.05-.5Z"/>
        </g>
        <g>
          <path class="cls-87" d="M34.42,6.51c-.2-.02-.54-.02-.72.05,0-.02,0-.03,0-.05,0-.1,0-.98-.07-.99l-.93.07c-.02.3.03.63,0,.93,0,0-.08-.05-.09.09l-.72-.05.07-1.85h2.49l-.02,1.81Z"/>
          <path class="cls-27" d="M33.69,6.51h-.99c.03-.3-.02-.62,0-.93l.93-.07c.06.02.07.9.07.99Z"/>
        </g>
      </g>
      <path class="cls-32" d="M8,26.86c0,.39.06.8.05,1.2l-.9.02c0-.41-.04-.81,0-1.22h.86Z"/>
      <path class="cls-68" d="M9.04,26.86c-.34,0-.7.04-1.04-.05,0-.92,0-1.84,0-2.76l.9.07c.07.84-.15,2.12.14,2.74Z"/>
      <g>
        <path class="cls-74" d="M7.15,21.84c0,.06-.1,1.01-.05,1.31-.47,0-.93,0-1.4,0v-1.31c.29,0,1.33-.05,1.4-.05.04,0,.04,0,.05.05Z"/>
        <path class="cls-36" d="M8,21.84h.05c-.09.17.03,1.06,0,1.11-.14.27-.88-.03-.9.2-.02,0-.03,0-.05,0-.05-.3.05-1.25.05-1.31h.86Z"/>
        <path class="cls-32" d="M9,21.84h.14v1.24c-.38,0-.76.05-1.13.07-.28.01-.57,0-.86,0,.02-.23.76.06.9-.2.03-.05-.09-.94,0-1.11h.95Z"/>
      </g>
      <g>
        <g>
          <path class="cls-87" d="M13.52,5.11s-.09.3-.09.32c-.89.03-.94-.23-.84.68h.84s.05.07.05.41c-.37.02-.74-.03-1.11,0-.04,0-.02.09-.02.09-.17.02-.47.02-.63-.05.03-.44-.07-1.79.07-1.85h1.67c0,.24.07.39.07.41Z"/>
          <path class="cls-87" d="M14.2,5.83c0,.25-.05.53-.05.77h-.68s0-.06,0-.09c0-.34-.04-.36-.05-.41,0-.23,0-.45,0-.68,0-.02.09-.3.09-.32.93-.06.66.06.68.72Z"/>
          <path class="cls-27" d="M13.43,5.43c0,.23,0,.45,0,.68h-.84c-.1-.91-.05-.65.84-.68Z"/>
        </g>
        <g>
          <path class="cls-48" d="M13.57,10.85c-.01.13-.04.28-.05.41h-1.22s-.03-.23-.05-.41h1.31Z"/>
          <path class="cls-3" d="M13.48,6.51s0,.06,0,.09c0,.63,0,1.27,0,1.9-.13-.19.05-.74-.11-.81-1.31-.05-.81.05-.93.38-.02.06-.06-.04-.09-.02v-1.45s-.01-.09.02-.09c.36-.03.74.02,1.11,0Z"/>
          <g>
            <path class="cls-87" d="M13.48,8.5s.03.08.07.09c.23,0,.47,0,.7,0-.04.24.05,1.67,0,1.74-.05.07-.61-.01-.66.02-.06.04-.01.4-.02.5h-1.31c0-.09.02-.46-.02-.5-.05-.03-.56.04-.61-.02-.03-.05-.04-.96-.05-1.11,0-.36.1-.74.05-1.11.25-.06.48.02.72-.07.04-.01.07.08.09.02.12-.33-.39-.43.93-.38.16.07-.01.63.11.81Z"/>
            <path class="cls-66" d="M12.5,8.95h.9c.11.92.04.64-.9.68v-.68Z"/>
          </g>
        </g>
      </g>
      <path class="cls-16" d="M12.84,21.84l.05,1.22c-.94.07-1.88.04-2.83.05l-.02-1.27c.93,0,1.87,0,2.8,0Z"/>
      <path class="cls-7" d="M17.73,19.81c.04,1.43.27.65.75.86.11.08.06.39.07.68,0,.14-.03.28.05.41-.07,0-.03.09-.07.09-.32.03-.74,0-1.09,0-.04,0,0,.09-.07.09-.04,0,.22-.09-.63-.09v-1.99c.33,0,.66-.09.99-.05Z"/>
      <path class="cls-10" d="M17.73,18.99c.07.22,0,.51,0,.81-.33-.04-.67.04-.99.05-.03,0-.19-.08-.63-.05l.05-.86c.53,0,1.06.05,1.58.05Z"/>
      <path class="cls-68" d="M13.57,21.84c.15,1.56.08,1.16-.68,1.22l-.05-1.22c.24,0,.48,0,.72,0Z"/>
      <path class="cls-2" d="M16.73,19.85v.81c-.89.11-.48-.32-.61-.41-.07-.05-.68.08-.75-.07-.17-.38.2-.35.72-.38.44-.03.6.05.63.05Z"/>
      <path class="cls-68" d="M16.73,21.84s-.09,0-.14,0l.09-.07.05-1.06v1.13Z"/>
      <path class="cls-53" d="M18.59,18.95c0,.24,0,.48,0,.72,0,.43,0,.86,0,1.29l.86.07c0,.06-.02.24.02.27.17.01.35-.02.52,0,.15.02.13.09.14.09v.81c-.14-.02-.67.02-.7,0-.02-.01-.06-.41-.07-.5-.04-.24.3-.53-.81-.36,0-.29.04-.6-.07-.68-.48-.21-.71.57-.75-.86,0-.31.07-.59,0-.81.27,0,.58-.09.86-.05Z"/>
      <path class="cls-100" d="M20.4,24.01c.3,0,.62.09.93.05l.02.84c.13.3.92-.46.72.81.05.11.72.07.86.07.03.36-.05.39-.05.41-.3-.05-.61.05-.9.05-.19,0-1.41,0-1.47-.05-.07-.05.05-.44-.09-.5-.08-.04-.63.04-.7,0v-1.54c.15-.12.46-.13.68-.14Z"/>
      <path class="cls-52" d="M29.67,21.93l-.02,1.18c-1.05.01-2.1-.02-3.14,0v-1.13s.05-.05.09-.05c1.02.01,2.05.03,3.08,0Z"/>
      <path class="cls-37" d="M31.75,21.89c.56-.01,1.12,0,1.67,0,0,.16.12,1.11.02,1.18h-2.89l.05-1.18c.38,0,.77,0,1.15,0Z"/>
      <path class="cls-4" d="M29.89,28.13c-.26,0-.51,0-.77,0-.01-.41,0-.81,0-1.22.12,0,.74-.02.77.02v1.2Z"/>
      <path class="cls-53" d="M26.18,21.93c.11,0,.23.04.32.05v1.13c-.24,0-.6-.03-.77,0-.02-.39.03-.79,0-1.18.15,0,.3,0,.45,0Z"/>
      <path class="cls-4" d="M22.88,26.18s.09.39.05.72c-.32.07-.64,0-.95,0v-.68c.29,0,.61-.09.9-.05Z"/>
      <g>
        <path class="cls-68" d="M34.23,17.86v1.02s.81.02.95.02c0,.36.13,2.8.05,2.92-.05.07-.54-.02-.59.05-.04.05-.04,1.17,0,1.22.05.07.49-.02.54.05.05.07,0,1.61,0,1.83-.83.07-1.38-.33-1.06.77.21-.02.5.02.7,0-.03,0-.08-.01-.09.02-.2.86.65-.12.45,1.11-.33,0-.67.04-.99.05-.04,0-.32-.05-.66-.05-.02,0-.15.09-.16.09-.42,0-3.23-.14-3.37-.05l-.02,1.18s-.05.05-.09.05v-1.2s-.65-.02-.77-.02c-.99-.03-1.98.02-2.96,0l-.02,1.18-.09.02v-1.13c-.05-.12-.52-.06-.77-.07-.78-.03-1.57.02-2.35,0,.04-.33-.05-.69-.05-.72,0-.02.08-.05.05-.41.26,0,.53,0,.79,0l.09-.81h.95c.18-.08-.06-.88.16-.9.1,0,.56.02.59-.02,0-.26,0-.53,0-.79,0-.02,0-.03,0-.05.2-.03.21-.09.23-.09.17-.03.53,0,.77,0,1.05-.02,2.1.01,3.14,0l.02-1.18c.24,0,.58.01.79,0,.02,0,.07-.09.09-.09.39-.02.81-.02,1.2.05-.38,0-.77,0-1.15,0l-.05,1.18h2.89c.1-.07-.03-1.02-.02-1.18,0-.28.09-.71.09-1.15,0,0-.09-.13-.09-.14,0-.52.05-1.06.05-1.58,0-.02-.09-.06-.09-.11,0-.32.1-.67.05-.99.26,0,.54-.04.81-.05Z"/>
        <path class="cls-2" d="M33.17,23.56c.42-.3.57.54.36.63-.54.24-.4-.6-.36-.63Z"/>
      </g>
      <path class="cls-37" d="M16.55,21.89l-.05,1.18c-.93-.02-1.85.01-2.78,0l-.07-1.15,2.89-.02Z"/>
      <path class="cls-32" d="M19.36,21.71c.01.08.05.48.07.5.03.02.56-.02.7,0v.09c-.13,0-.05.08-.18.11v.7c-.17,0-.5.05-.72.05-.61-.02-1.2-.03-1.81-.05l-.05-1.18c.07,0,.03-.09.07-.09.34,0,.76.03,1.09,0,.04,0,0-.08.07-.09.25-.03.52,0,.77-.05Z"/>
      <path class="cls-68" d="M19.72,24.15v1.54c-.1-.05,0-.18-.07-.23-.16-.11-3,.14-3.12.05-.04-.03-.07-.08-.11-.11v-.7c.5,0,1,.01,1.49,0,1.46-.04,1.95.13,1.76-.63.06.03.05.03.05.09Z"/>
      <path class="cls-30" d="M17.91,24.69c-.5.01-1,0-1.49,0-.54,0-1.09,0-1.63,0l-.05-.72c1.05-.03,2.09-.07,3.14,0l.02.72Z"/>
      <path class="cls-60" d="M14.74,23.97l.05.72c-.22,0-1.48.09-1.56.05-.05-.14-.11-.72.05-.77.49-.01.98.01,1.47,0Z"/>
      <path class="cls-7" d="M20.4,24.01c-.22,0-.53.01-.68.14,0-.06.01-.06-.05-.09-.3-.13-.53.41-.45-.9.23,0,.56-.06.72-.05.67.04.41.12.45.9Z"/>
      <path class="cls-4" d="M16.73,21.84c.86,0,.6.09.63.09l.05,1.18c-.3,0-.6-.04-.9-.05l.05-1.18.05-.05s.09,0,.14,0Z"/>
      <path class="cls-68" d="M27.9,18.9v.5c-.37.03-.34-.05-.36-.05-.01-.17,0-.33,0-.5,0,.07.17.04.36.05Z"/>
      <path class="cls-34" d="M19.36,21.71c-.25.04-.52.02-.77.05-.07-.12-.04-.27-.05-.41,1.12-.17.78.12.81.36Z"/>
      <path class="cls-53" d="M27.32,20.94c-.02.11.03.59-.02.63-.03.02-.56-.02-.7,0v-.63s.05,0,.05-.05c.22-.05.47.05.68.05Z"/>
      <g>
        <path class="cls-68" d="M33.38,18.9c0,.05.09.09.09.11,0,.52-.05,1.06-.05,1.58,0,0,.09.13.09.14,0,.44-.08.87-.09,1.15-.56,0-1.12-.01-1.67,0-.38-.07-.81-.07-1.2-.05-.02,0-.07.09-.09.09-.21.01-.55,0-.79,0-1.02.03-2.05.01-3.08,0v-.36c.14-.02.67.02.7,0,.06-.04,0-.53.02-.63.06,0,.13-.09.14-.09.26-.03.39.1.45-.02v-1.92c1.82,0,3.65,0,5.47,0Z"/>
        <path class="cls-2" d="M31.27,19.85c.75-.33.78,1.23-.07.75.03-.14-.07-.69.07-.75Z"/>
      </g>
      <g>
        <path class="cls-14" d="M24.47,11.53c.08.14.04.33.05.5,0,.19-.03.37.05.36-.01,0-.14,0-.23,0-.79-.04-1.56-.04-2.35-.05-.35,0-.27-.09-.32-.09v-.68c.93,0,1.87-.03,2.8-.05Z"/>
        <path class="cls-34" d="M24.56,12.39c.13.01.28-.01.41,0,0,0-.02.04.05.05v.36l.05.5c-.08,0-.15,0-.23,0-.17,0-.38.04-.54-.05,0-.29.05-.57.05-.86.08,0,.21,0,.23,0Z"/>
        <path class="cls-83" d="M19.49,18.09c0,.3,0,.6,0,.9,0,.17,0,.33,0,.5,0,.06,0,.12,0,.18h-.9c0-.24,0-.48,0-.72,0-.31-.04-.66.05-.95l.77-.05s.09,0,.09.14Z"/>
        <path class="cls-101" d="M21.26,16.15c-.02.33-.02.78.05,1.11-.27.03-.16.26-.18.47h-.63c0-.17-.04-.34-.05-.5,0-.39-.01-.79.05-1.18.36.02.67-.07.77.09Z"/>
        <path class="cls-78" d="M21.12,15.29c.01.1.1.24.23.27-.04.18-.08.41-.09.59-.09-.16-.41-.07-.77-.09-.01,0-.04-.04-.23-.05-.08-.21-.04-.49-.05-.72h.9Z"/>
        <path class="cls-50" d="M20.44,17.23c0,.16.04.33.05.5,0,.12,0,.24,0,.36,0,.43,0,.86,0,1.29-.04.05-.24,0-.32.02,0-.12,0-.24,0-.36.02-.27.06-.67.05-.93,0-.03-.09-.06-.09-.07-.02-.27.01-.54,0-.81h.32Z"/>
        <path class="cls-9" d="M20.12,17.23c.01.27-.02.55,0,.81l-.63.05c0-.14-.09-.13-.09-.14,0-.04.07-.43.07-.72h.66Z"/>
        <path class="cls-41" d="M25.87,15.56c.02.11.09.35.05.45,0,0-.04.04-.05.05-.06.03-.42-.02-.59,0,0-.4.05-.52.05-.54l.54.05Z"/>
        <path class="cls-45" d="M25.87,16.05c0,.2,0,.39,0,.59,0,.03,0,.06,0,.09-.73.05-.56-.09-.59-.09,0-.2,0-.39,0-.59.17-.02.53.03.59,0Z"/>
        <path class="cls-69" d="M24.33,12.39c0,.29-.04.57-.05.86-.14-.08-.01-.05-.11-.41-.32.11-1.23-.12-.97.41,0,0-.03.09-.07.09-.11.01-.47-.02-.5,0-.04.03.09.5-.66.18.01-.26-.04-.52-.05-.77,0-.02.08-.05.05-.41.79,0,1.56,0,2.35.05Z"/>
        <path class="cls-40" d="M21.98,12.35c.03.36-.05.39-.05.41l-.95.05s0-.03,0-.05c.05-.67.13-.43.14-.45.61.15.51-.05.54-.05.04,0-.04.09.32.09Z"/>
        <path class="cls-31" d="M24.29,13.34c0,.11-.02.76,0,.79.04.06.44,0,.54.02,0,.15,0,.3,0,.45,0,.05,0,.09,0,.14-.31-.04-.77.05-.81.05-.03,0,.17-.07-.45-.09-.23,0-.26-.04-.27-.05v-1.36c.29-.02.71-.02.99.05Z"/>
        <path class="cls-16" d="M24.83,13.3c.1.27,0,.56,0,.86-.1-.02-.5.03-.54-.02-.02-.03,0-.68,0-.79,0-.03,0-.06,0-.09.16.09.37.04.54.05Z"/>
        <path class="cls-80" d="M24.83,14.74c0,.15.05.33.05.5,0,.12-.04.25-.05.36.04-.16-.4-.07-.81-.09v-.72s.51-.09.81-.05Z"/>
        <path class="cls-2" d="M25.33,15.51s-.05.14-.05.54c0,.2,0,.39,0,.59-.01,0-.09.07-.27.05-.02-.08-.11-.13-.18-.18,0-.3-.01-.6,0-.9,0-.12.05-.24.05-.36.11.01.4-.02.43,0,.04.03.02.21.02.27Z"/>
        <path class="cls-40" d="M23.29,13.3v1.36c-.12,0-.24,0-.36,0,.16-.51-.32-.55-.52-.45-.03.01.06.37.02.45-.04,0-.37.09-.41.09-.25,0-.56-.07-.81-.09l-.02-.09.75-.02c-.04-.34.03-.68.05-1.02.75.32.62-.16.66-.18.03-.02.39.01.5,0,.04,0,.06-.09.07-.09.11,0,.09.05.09.05Z"/>
        <path class="cls-26" d="M22.02,14.74c-.03.42.07.86-.09.81-.19-.02-.48.03-.59,0-.12-.03-.21-.17-.23-.27,0-.03.07-.56.09-.63.25.02.56.09.81.09Z"/>
        <path class="cls-90" d="M21.03,18.13c.11.16.03,2.33,0,2.74.05.07.5-.01.59.02,0,0-.01.05.05.05.02.23-.03.5,0,.72h-.05c-.99-.03-.65-.01-.72.7,0,.04-.09.02-.09.02-.73.05-.64-.09-.68-.09v-.9s.34-.06.36-.11v-1.04s-.41-.02-.5-.02c-.08,0-.25-.08-.5-.05,0-.17,0-.33,0-.5,0-.06,0-.12,0-.18.23-.07.45-.05.68-.09.07-.01.28.03.32-.02,0-.43,0-.86,0-1.29.17-.02.43-.12.54.05Z"/>
        <path class="cls-103" d="M19.49,19.67c0,.17,0,.33,0,.5,0,.35-.07.66-.05.86l-.86-.07c0-.43,0-.86,0-1.29h.9Z"/>
        <path class="cls-2" d="M20.12,18.04s.09.03.09.07c.02.26-.02.66-.05.93l-.68-.05c0-.3,0-.6,0-.9l.63-.05Z"/>
        <path class="cls-35" d="M20.17,19.04c0,.12,0,.24,0,.36-.23.04-.45.02-.68.09,0-.17,0-.33,0-.5l.68.05Z"/>
        <path class="cls-20" d="M21.93,15.56s-.03.04.09.05c-.05.43.05.88.05,1.31,0,.35-.09.73-.05,1.09v.41c-.17,0-.13.05-.14.05-.02,0-.1-.07-.32-.05-.04-.45-.03-.27-.45-.32v-.36c.02-.21-.09-.45.18-.47-.07-.33-.06-.77-.05-1.11,0-.18.05-.41.09-.59.1.03.4-.02.59,0Z"/>
        <path class="cls-41" d="M21.12,17.73v.36s-.05.05-.09.05c-.12-.17-.37-.07-.54-.05,0-.12,0-.24,0-.36h.63Z"/>
        <path class="cls-53" d="M20.12,22.3s-.05.14.68.09c-.09,1.63.84.02.63,1.56.03.05.17.01.23.02.11.02.28,0,.41,0,.33.01.66,0,.99,0,0,.01,0,.03,0,.05,0,.12-.02.88.02.9.03.02.72,0,.75-.02-.04-.28.04-.56.05-.84.3.04.61-.04.9-.05.17,0,.13.05.14.05-.22.02.03.82-.16.9h-.95l-.09.81c-.26,0-.53,0-.79,0-.14,0-.81.04-.86-.07.19-1.27-.59-.51-.72-.81l-.02-.84c-.3.05-.63-.05-.93-.05-.04-.79.22-.87-.45-.9v-.7c.13-.04.05-.11.18-.11Z"/>
        <path class="cls-43" d="M25.73,21.93c.03.39-.02.79,0,1.18-.01,0-.03.06-.23.09,0-.12.02-.76,0-.79-.02-.03-.67-.04-.7-.02-.06.04,0,.73-.02.86-.02,0-.03,0-.05,0-.2,0-.41,0-.61,0-.05-.03-.02-.29-.02-.36-.02-.26.02-.53,0-.79.06-.14.79-.06.75.16.04-.02.02-.33.02-.41.14-.02.68.04.75-.05.07-.09,0-.5.02-.63.03.02.08.67.09.77Z"/>
        <path class="cls-57" d="M25.51,23.2s0,.03,0,.05c-.24,0-.48,0-.72,0,.02-.13-.04-.82.02-.86.03-.02.68,0,.7.02.02.03,0,.67,0,.79Z"/>
        <path class="cls-74" d="M25.51,23.25c0,.26,0,.53,0,.79-.03.05-.49.02-.59.02,0,0,.04-.05-.14-.05l-.05-.77s.03,0,.05,0c.24,0,.48,0,.72,0Z"/>
        <path class="cls-103" d="M26.09,17.5l-.05,1.7c.04.09.28.08.36.07-.31.05-.21.16-.23.41-.03.4,0,.86,0,1.27,0,.33,0,.66,0,.99-.15,0-.3,0-.45,0,0-.1-.06-.75-.09-.77-.24,0-.48,0-.72,0,0-.12,0-.24,0-.36,0-.12.05-.09.05-.09,1.02.15.63-.38.63-1.13,0-.61-.04-.56-.05-.59,0-.13-.03-1.02,0-1.06.07-.11.32.19.36-.43h.18Z"/>
        <path class="cls-2" d="M25.87,16.73c0,.22.05.73.05.77-.04.62-.29.32-.36.43-.03.04,0,.93,0,1.06h-.5c.07-.11.4,0,.45-.07.02-.03.02-.69,0-.72-.04-.06-.45-.02-.54.02,0-.06,0-.12,0-.18,0-.38.09-1.16.05-1.36.18.03.26-.05.27-.05.03,0-.15.14.59.09Z"/>
        <path class="cls-2" d="M26.68,17.91c0,.1,0,.21,0,.32,0,.32,0,.65,0,.97-.07.11-.17.06-.27.07-.08,0-.32.03-.36-.07l.05-1.7h.57s.02.33.02.41Z"/>
        <path class="cls-64" d="M27.04,18.23l-.05,1.11c.08.11.23.05.36.07.14.46-.06,1.29.09,1.45,0,0-.07.09-.14.09-.2,0-.46-.1-.68-.05-.06-.99.24-1.34-.45-1.22.02-.25-.09-.36.23-.41.1-.01.2.04.27-.07,0-.32,0-.65,0-.97h.36Z"/>
        <path class="cls-2" d="M27.54,18.86c0,.17-.01.33,0,.5-.03,0-.05.06-.18.05-.14-.01-.28.05-.36-.07l.05-1.11.5.07c0,.19,0,.38,0,.57Z"/>
        <path class="cls-56" d="M24.29,13.25s0,.06,0,.09c-.28-.07-.7-.06-.99-.05,0,0,.02-.05-.09-.05-.26-.53.65-.3.97-.41.1.36-.03.33.11.41Z"/>
        <path class="cls-73" d="M22.93,14.65c.12,0,.25,0,.36,0,.01,0,.04.04.27.05l-.05.9c-.12,0-.24,0-.36,0-.36,0-.78.02-1.13,0-.12,0-.09-.04-.09-.05.16.04.07-.4.09-.81.04,0,.37-.09.41-.09.16,0,.34,0,.5,0Z"/>
        <path class="cls-96" d="M24.01,14.79v.81c-.15-.03-.3,0-.45,0-.02,0-.03,0-.05,0l.05-.9c.62.02.43.09.45.09Z"/>
        <g>
          <path class="cls-20" d="M24.83,15.6c-.01.3,0,.6,0,.9-.08-.06-.03-.12-.07-.14-.72-.27-.39,1.13-.29,1.63-.15,0-.3,0-.45,0-.02-.04,0-.33,0-.45-.01-.22,0-.45,0-.68,0-.2,0-.39,0-.59v-.77c.42.03.86-.07.81.09Z"/>
          <path class="cls-58" d="M24.83,16.51c.07.05.16.1.18.18.05.19-.04.98-.05,1.36-.16-.04-.34-.04-.5-.05-.1-.5-.42-1.9.29-1.63.04.02-.01.07.07.14Z"/>
        </g>
        <path class="cls-41" d="M19.99,20.22v1.09c-.17-.02-.35.01-.52,0-.05-.03-.01-.21-.02-.27-.02-.2.05-.51.05-.86.25-.03.42.04.5.05Z"/>
        <path class="cls-20" d="M20.12,21.39s.01-.07-.14-.09v-1.09c.09,0,.46-.03.5.02v1.04c-.02.05-.34.11-.36.11Z"/>
        <path class="cls-104" d="M22.93,14.65c-.16,0-.34,0-.5,0,.03-.08-.05-.44-.02-.45.2-.1.68-.06.52.45Z"/>
        <path class="cls-50" d="M21.71,21.8c.02.07-.03.23.02.27.04.03.74.15.66-.36.56,0,1.12,0,1.67,0,.28,0,.58.13.81-.05,0,.06,0,.12,0,.18,0,.08.02.39-.02.41.04-.21-.69-.29-.75-.16.02.26-.02.53,0,.79-.17.03-.04-.22-.11-.27-.22-.17-.15.09-.16.18,0-.04-.01-.04-.05-.05-.44-.03-.37-.01-.36.41-.04,0-.04.03-.09.05l-.02-.68h-.88c0-.1.04-.36-.07-.41-.03-.01-.61-.02-.63,0-.04.03-.06.94-.07,1.09-.26,0-.05-.05-.05-.07.02-.49,0-.98,0-1.47h.05c.02.18.04.13.05.14Z"/>
        <path class="cls-14" d="M22.3,20.89c.1,0,.21,0,.32,0,.33,0,.66,0,.99,0,.04,0,.04.05.14.05.04.65-.16.67.27.72.03,0,.05,0,.05.05-.56,0-1.12,0-1.67,0-.41,0-.73-.05-.68.09,0,0-.03.05-.05-.14-.03-.23.02-.49,0-.72.21-.07.42-.04.63-.05Z"/>
        <path class="cls-53" d="M21.57,18.41c.05.61.01,1.24.05,1.85.01.21,0,.42,0,.63-.08-.04-.54.05-.59-.02.03-.41.11-2.58,0-2.74.04,0,.05-.05.09-.05.42.04.41-.14.45.32Z"/>
        <path class="cls-19" d="M21.62,21.66c0,.49.02.98,0,1.47,0,.02-.21.07.05.07-.01.26,0,.51,0,.77-.06,0-.19.02-.23-.02.21-1.54-.72.07-.63-1.56,0,0,.09.02.09-.02.07-.71-.27-.74.72-.7Z"/>
        <path class="cls-61" d="M21.89,20.22c.06.64.47,0,.41.68-.21,0-.43-.03-.63.05-.06,0-.04-.04-.05-.05,0-.21.01-.42,0-.63l.27-.05Z"/>
        <path class="cls-101" d="M23.15,15.6c.02.14-.02.62,0,.66.04.05.33.01.41.02.05,0,.18.11.45,0,0,.2,0,.39,0,.59l-1.94.05c0-.43-.09-.88-.05-1.31.36.02.77,0,1.13,0Z"/>
        <path class="cls-9" d="M24.01,16.87c0,.23-.01.45,0,.68-.59-.28-.79-.22-.81.45-.39,0-.78,0-1.18,0-.05-.36.05-.73.05-1.09l1.94-.05Z"/>
        <path class="cls-53" d="M22.02,18.41c.14,0,.27,0,.41,0-.24.55-.1,1.19-.14,1.79l.09.02s.09,0,.14,0c.06,0,.12,0,.18,0-.13.07.02.31-.09.68-.1,0-.21,0-.32,0,.07-.68-.35-.04-.41-.68,0-.09.1-1.13,0-1.76,0,0-.04-.05.14-.05Z"/>
        <path class="cls-77" d="M23.2,18c.28,0,.54,0,.81,0,.02.04,0,.03.05.05-.06.09-.04.17-.05.27-.52.07-1.06.08-1.58.09-.14,0-.27,0-.41,0v-.41c.39,0,.78,0,1.18,0Z"/>
        <path class="cls-97" d="M21.89,18.45c.1.63,0,1.68,0,1.76l-.27.05c-.03-.62,0-1.25-.05-1.85.21-.03.3.05.32.05Z"/>
        <path class="cls-103" d="M27.9,19.4v1.42c-.06.12-.2,0-.45.02-.15-.16.05-.99-.09-1.45.13.01.15-.05.18-.05.02,0-.01.07.36.05Z"/>
        <path class="cls-12" d="M26.59,20.94v.99s-.05.05-.09.05c-.09,0-.21-.04-.32-.05,0-.33,0-.66,0-.99.13-.01.36.02.41,0Z"/>
        <path class="cls-83" d="M23.34,23.2c-.06.02-.19-.03-.23.02.04.25-.03.5-.05.75-.33,0-.66.01-.99,0-.09-.64.24-.32.32-.43.03-.04.05-.9.05-1.02h.88l.02.68Z"/>
        <path class="cls-81" d="M22.43,22.52c0,.12-.02.98-.05,1.02-.08.11-.4-.21-.32.43-.13,0-.3.02-.41,0,0-.26-.01-.51,0-.77,0-.15.02-1.05.07-1.09.03-.02.6-.01.63,0,.11.05.07.31.07.41Z"/>
        <path class="cls-103" d="M24.1,22.88c0,.07-.02.33.02.36.2,0,.41,0,.61,0l.05.77c-.29,0-.6.09-.9.05,0-.04-.05-.05-.05-.09.01-.39-.02-.79,0-1.18,0-.09-.06-.35.16-.18.07.05-.05.31.11.27Z"/>
        <path class="cls-98" d="M23.83,23.97s.05.05.05.09c0,.27-.09.56-.05.84-.02.03-.72.04-.75.02-.04-.03-.03-.78-.02-.9l.77-.05Z"/>
        <path class="cls-65" d="M23.83,22.79c-.02.39.01.79,0,1.18l-.77.05s0-.03,0-.05c.02-.25.08-.49.05-.75.04-.05.17,0,.23-.02.05-.01.05-.04.09-.05.25-.02.41.34.36-.41.03,0,.05,0,.05.05Z"/>
        <path class="cls-39" d="M25.64,21.17c-.03.13.05.55-.02.63-.07.08-.6.03-.75.05,0-.06,0-.12,0-.18v-.5s.03,0,.05,0c.24,0,.48,0,.72,0Z"/>
        <path class="cls-81" d="M25.6,19.58c0,.75.38,1.28-.63,1.13,0-.37-.05-.75-.05-1.13h.68Z"/>
        <path class="cls-96" d="M24.83,20.62s.06.18.09.18c0,.12,0,.24,0,.36-.02,0-.03,0-.05,0-.67.01-.94-.15-.86.5-.43-.05-.23-.07-.27-.72.1,0,.2,0,.29,0,.11-.07.05-.18.07-.27,0-.01,0-.03,0-.05h.72Z"/>
        <path class="cls-2" d="M26.64,20.89c0,.05-.03.04-.05.05-.05.02-.28-.01-.41,0,0-.41-.03-.87,0-1.27.7-.12.39.23.45,1.22Z"/>
        <path class="cls-23" d="M24.47,18c.16,0,.34,0,.5.05,0,.06,0,.12,0,.18,0,.26,0,.51,0,.77,0,.2-.04.39-.05.59,0,.38.04.76.05,1.13,0,0-.04-.03-.05.09-.03,0-.09-.16-.09-.18-.04-.38.06-2.15,0-2.24-.04-.06-.24.02-.36-.07-.06-.49-.18-.17-.41-.27-.04-.02-.03,0-.05-.05.15,0,.3,0,.45,0Z"/>
        <path class="cls-17" d="M25.05,18.99h.5s.04-.02.05.59h-.68c0-.2.04-.39.05-.59h.09Z"/>
        <path class="cls-101" d="M25.05,18.99h-.09c0-.26,0-.51,0-.77.1-.04.5-.08.54-.02.02.03.02.69,0,.72-.05.07-.38-.04-.45.07Z"/>
        <path class="cls-9" d="M23.52,15.6s.03,0,.05,0v.68c-.08-.01-.37.03-.41-.02-.02-.03.02-.52,0-.66.12,0,.24,0,.36,0Z"/>
        <path class="cls-26" d="M24.01,15.6v.68c-.27.11-.4,0-.45,0v-.68c.15,0,.3-.03.45,0Z"/>
        <path class="cls-78" d="M24.01,17.55c0,.13-.02.41,0,.45-.28,0-.53,0-.81,0,.02-.67.23-.74.81-.45Z"/>
        <path class="cls-19" d="M24.87,21.17v.5c-.23.17-.54.05-.81.05,0-.04-.01-.04-.05-.05-.08-.65.18-.49.86-.5Z"/>
        <path class="cls-24" d="M22.39,21.71c.08.51-.62.39-.66.36-.05-.04,0-.21-.02-.27-.06-.14.27-.09.68-.09Z"/>
        <path class="cls-79" d="M23.79,22.75c.05.74-.11.39-.36.41,0-.42-.08-.44.36-.41Z"/>
        <path class="cls-88" d="M24.1,20.62s0,.03,0,.05c-.27-.09-.57-.12-.5.23-.33,0-.66,0-.99,0,.11-.37-.04-.61.09-.68.18.01.36,0,.54,0,.24,0,.57.04.77-.05,0,.02.13-.05.09.45Z"/>
        <path class="cls-93" d="M24.1,20.67c-.01.1.04.2-.07.27-.1,0-.2,0-.29,0-.09,0-.1-.05-.14-.05-.07-.35.23-.31.5-.23Z"/>
        <path class="cls-85" d="M24.01,18.77c-.53.03-1.07-.02-1.61,0-.12.09-.05.34-.07.59-.01.25-.02.62.05.86l-.09-.02c.04-.6-.1-1.23.14-1.79.53-.01,1.06-.02,1.58-.09,0,.15,0,.3,0,.45Z"/>
        <path class="cls-72" d="M24.47,18.32c.07.56-.08.43-.41.45-.01,0-.03,0-.05,0,0-.15,0-.3,0-.45,0-.1-.02-.18.05-.27.23.1.34-.22.41.27Z"/>
        <path class="cls-28" d="M24.83,20.62h-.72c.04-.5-.09-.43-.09-.45-.01-.18.06-.66-.05-.77,0,0-.05,0-.05-.05.25-.07.09-.38.14-.59.33-.03.48.11.41-.45.12.09.32,0,.36.07.06.09-.04,1.86,0,2.24Z"/>
        <g>
          <path class="cls-75" d="M23.47,19.36c.01.27-.06.49.09.45-.25.09,0,.2-.32.41-.18,0-.36.01-.54,0-.06,0-.12,0-.18,0-.17-.26.05-.08.11-.14.02-.02.02-.21.16-.27.17-.08.45.2.27-.45.14,0,.27,0,.41,0Z"/>
          <path class="cls-18" d="M22.79,19.36v.45c-.13.06-.14.25-.16.27-.06.06-.29-.12-.11.14-.04,0-.09,0-.14,0-.07-.24-.06-.61-.05-.86h.45Z"/>
          <path class="cls-1" d="M24.01,20.17c-.2.08-.53.05-.77.05.33-.21.06-.32.32-.41.3-.1.34.23.41-.41.1.11.03.59.05.77Z"/>
          <path class="cls-1" d="M24.01,18.77s.03,0,.05,0c-.04.21.12.52-.14.59-.08.02-.3,0-.45,0-.13,0-.27,0-.41,0h-.72c.01-.25-.05-.5.07-.59.53-.02,1.07.03,1.61,0Z"/>
          <path class="cls-99" d="M23.92,19.36c0,.05.04.04.05.05-.07.64-.11.3-.41.41-.15.04-.08-.19-.09-.45.15,0,.38.02.45,0Z"/>
          <path class="cls-88" d="M23.06,19.36c.18.65-.1.37-.27.45v-.45h.27Z"/>
        </g>
      </g>
    </g>
  </g>
</svg>