<?xml version="1.0" encoding="UTF-8"?>
<svg id="Layer_2" data-name="Layer 2" xmlns="http://www.w3.org/2000/svg" viewBox="0 0 26.1 28.46">
  <defs>
    <style>
      .cls-1 {
        fill: #20becc;
      }

      .cls-1, .cls-2, .cls-3, .cls-4, .cls-5, .cls-6, .cls-7, .cls-8, .cls-9, .cls-10, .cls-11, .cls-12, .cls-13, .cls-14, .cls-15, .cls-16, .cls-17, .cls-18, .cls-19, .cls-20, .cls-21 {
        stroke-width: 0px;
      }

      .cls-2 {
        fill: #ecf7f9;
      }

      .cls-3 {
        fill: #f1f2f0;
      }

      .cls-4 {
        fill: #13121a;
      }

      .cls-5 {
        fill: #0e161d;
      }

      .cls-6 {
        fill: #ca335c;
      }

      .cls-7 {
        fill: #e2c17b;
      }

      .cls-8 {
        fill: #bab8bf;
      }

      .cls-9 {
        fill: #e4d826;
      }

      .cls-10 {
        fill: #4e4378;
      }

      .cls-11 {
        fill: #d6d8dd;
      }

      .cls-12 {
        fill: #092a39;
      }

      .cls-13 {
        fill: #354e6d;
      }

      .cls-14 {
        fill: #c99f4e;
      }

      .cls-15 {
        fill: #a0838d;
      }

      .cls-16 {
        fill: #706b8c;
      }

      .cls-17 {
        fill: #161326;
      }

      .cls-18 {
        fill: #b57c41;
      }

      .cls-19 {
        fill: #3c678f;
      }

      .cls-20 {
        fill: #293b60;
      }

      .cls-21 {
        fill: #f1ee84;
      }
    </style>
  </defs>
  <g id="Layer_1-2" data-name="Layer 1">
    <g>
      <path class="cls-13" d="M14,26.63c3.38,0,6.76.08,10.14,0,0,.37.01.73,0,1.1-2.86.04-5.72-.03-8.57-.03-.03,0,0,.07-.05.07,0,0,.01-.07-.02-.07-.4,0-.79,0-1.19,0-3.08,0-6.16.03-9.24.03-.4,0-.8,0-1.2,0-.91,0-1.83-.08-2.75,0,0-.02,0-.05,0-.07,0-.33,0-.66,0-1,2.22,0,4.44,0,6.67,0,.39,0,.79.03,1.19.03.03,0,.01-.07.02-.07,1.26,0,2.53.04,3.8.03.03,0,0-.07.05-.07,0,0-.01.07.02.07.38,0,.77-.03,1.15-.03Z"/>
      <path class="cls-4" d="M20.42,2.65c-.14.17-.04.72-.07,1.12l-.88.05-.05,1.08-.77.02-.05,1.19-.72.07c.04.46-.09,1.21.1,1.15-.01,0-.15.06-.17.1-.03-.13-.81-.06-.82-.02v1.37l-.89.07v1.13l-.82.03v1c-1.02.13-.71-.15-.76,1.27l-.82.03v1.07l-.82.07-.02,1.08-.88.05.03,1.07-.82.07v1.27l-.82.07c.02.31-.07.69.1.67-.12.01-.12.01-.17.1,0-.02.01-.06-.05-.1-.2.04-.44-.04-.64-.03v-1.22l.79-.07.02-1.08.77-.02.02-1.08.84-.05v-1.13l.89-.03v-1.24l.79-.03v-1.03l.82-.1v-1.1l.76-.03v-1.2l.89-.07.05-1.08.81-.02v-1.37l.81-.05s.01-.59.02-.69c0-.16-.04-.32.05-.38l.81-.02c0-.19,0-.38,0-.57,0-.21-.04-.58.05-.62l.7-.02.02-.74c.28.03.56-.03.84-.03,0,0-.02.04.07.03Z"/>
      <path class="cls-17" d="M25.13,17.59c0,2.76.01,5.51.03,8.26,0,.03-.07.01-.07.02h-.93c.04-2.76,0-5.52,0-8.28h.96Z"/>
      <path class="cls-4" d="M25.37,3.65c0,.34,0,.68,0,1.01l-.76.03v.74c-.18,0-.35-.04-.41.05-.02.12.02.69,0,.72-.07.1-.48-.21-.38.43,0,.02-.02.06-.03.07l-.62.02v1.03l-.7.05-.02.81c-.06.09-.17.04-.27.05-.22.02-.57-.05-.62.05-.02.14.03.89,0,.93-.13.18-.53-.51-.41,1.03l-.79.03v.96l-.72.07v1.07l-.79.07-.02.94-.74.02v1.2l-.77.05-.02.94-.76.07v1.03l-.79.03-.03,1.13-.76.03v1l-.79.03v1.27l-.62.07.03.88s.03.03-.1.03c-.18,0-.37,0-.55,0h-.03c-.14,0-.04-.57-.07-.93.21,0,.42,0,.64,0,.05-.04.05-.07.05-.07.2-.03.39-.04.58-.05-.03-.42.02-.84.03-1.25.01-.4-.02-.8.03-1.2.01,0,.02,0,.03,0,.25-.01.5-.05.76-.05,0-.35-.01-.7,0-1.05,0-.01,0-.02,0-.03l.79-.02v-1l.72-.03.03-1.15s.02,0,.03,0c.23-.01.71.04.76-.05v-1.05s.02,0,.03,0h.65l.09.1h.65c.21-.97-.38-1.01.84-1.05-.17-1.73.52-.86.72-1.1-.25-1.61.63-.81.79-1.03-.12-1.42.32-.9.41-1.03.2-.28-.56-1.18.88-.98.08-.81-.25-.89.7-.88v-1l.09-.09h.58c.01-.91.56.1.43-1.19.06-.21.45.25.34-.69l-.1-.03s.09.01.14-.05c.09-.12,0-.81.03-1.01l.79-.02Z"/>
      <path class="cls-4" d="M14.31,27.7v.76c-3.09,0-6.18-.03-9.28-.03l.03-.69c3.08,0,6.16-.04,9.24-.03Z"/>
      <path class="cls-4" d="M24.13,27.73c0,.18.04.68-.05.72-2.86,0-5.71,0-8.57,0v-.69c.05,0,.03-.07.05-.07,2.86,0,5.72.08,8.57.03Z"/>
      <path class="cls-17" d="M25.06,6.67l.07.02c-.03,2.12.03,4.24.03,6.36,0,.03-.07.01-.07.02h-.93c0-2.13,0-4.26,0-6.39.17,0,.85.02.89,0Z"/>
      <path class="cls-4" d="M.12,6.67h.86c0,2.12,0,4.24,0,6.36H.05c0-.86-.07-6.03,0-6.34,0-.03.05-.02.07-.02Z"/>
      <path class="cls-4" d="M.97,21.37c0,1.09.07,2.18.03,3.26.07.41.02.82.03,1.24H.08c0-1.5-.11-3,0-4.5h.89Z"/>
      <path class="cls-9" d="M25.37,1.76c-.04.34.03.69.03,1.03,0,.27-.03.55-.03.82,0,.01,0,.02,0,.03l-.79.02c-.03.2.05.89-.03,1.01h-.89c0-.35.02-.71-.02-1.07l-1.53.03s0-.07,0-.1c0-.11.05-.83.09-.86h1.48l.05.91.81.02c.03-.41.02-.83.02-1.24,0-.2-.03-.41-.03-.62l.82-.03.03.03Z"/>
      <path class="cls-3" d="M1.8,2.82l.03,1.24c-.29.02-.6.06-.89.07-.29,0-.57,0-.86,0,0-.17-.09-1.25-.02-1.31.58-.02,1.16.03,1.74,0Z"/>
      <path class="cls-14" d="M17.95,4.02h.79c0,.19,0,.38,0,.57l-.81.02c-.09.06-.04.22-.05.38-.54-.02-1.08.03-1.61.03l-.03-.96s.54-.07.62-.07c.36,0,.73.07,1.1.03Z"/>
      <path class="cls-4" d="M3.86,27.73v.69c-.91,0-1.82.07-2.73.03-.04-.02-.01-.62-.02-.72.92-.08,1.83,0,2.75,0Z"/>
      <path class="cls-3" d="M1.04,25.88s.07,0,.07.1c0,.23,0,.46,0,.69,0,.33,0,.66,0,1-.12.12-1.07.09-1.1.02,0-.58,0-1.17,0-1.75,0-.02.07-.05.07-.05h.96Z"/>
      <path class="cls-3" d="M25.09,25.88s.07.03.07.05c0,.6,0,1.19,0,1.79-.34.04-.69.01-1.03.02.01-.37,0-.73,0-1.1,0-.22,0-.44,0-.65,0-.07.03-.08.03-.1h.93Z"/>
      <path class="cls-3" d="M25.09,13.06s.07.03.07.05c0,.58-.03,1.16-.03,1.74h-1c0-.6.03-1.19.03-1.79h.93Z"/>
      <path class="cls-3" d="M.97,13.03c0,.58,0,1.17,0,1.75H.05c0-.58,0-1.17,0-1.75h.93Z"/>
      <path class="cls-4" d="M22.07.79c0,.29,0,.58,0,.88l-.86.07v.88c-.26,0-.53.03-.79.03-.09,0-.06-.03-.07-.03v-.91l.86-.1.02-.81c.28,0,.56,0,.84,0Z"/>
      <path class="cls-3" d="M.91,5.09c0,.05.07.02.07.05,0,.51,0,1.02,0,1.53H.12l-.1-.09c-.04-.5.03-1,.03-1.49h.86Z"/>
      <path class="cls-3" d="M25.13,16.15c0,.48,0,.96,0,1.44h-.96c0-.48-.03-.96-.03-1.44h1Z"/>
      <path class="cls-3" d="M13.82,2.82v1.13c-.05,0-.02.07-.05.07-.36,0-.72-.02-1.08-.03v-1.17c.05,0,.02-.07.05-.07.34,0,.69,0,1.03,0,.03,0,0,.07.05.07Z"/>
      <path class="cls-3" d="M17.95,4.02c-.37.03-.74-.03-1.1-.03v-1.2c.14,0,1.05-.09,1.1-.02v1.25Z"/>
      <path class="cls-3" d="M9.77,2.82v1.17c-.37,0-.73,0-1.1,0v-1.17c.05,0,.03-.07.05-.07.33,0,.66,0,1,0,.03,0,0,.07.05.07Z"/>
      <path class="cls-3" d="M5.72,2.75v1.24c-.36,0-.71,0-1.07,0v-1.24c.35.02.71-.02,1.07,0Z"/>
      <path class="cls-3" d="M24.61,5.43c.09,0,.51-.03.55.05v1.13c-.12.02-.1.05-.1.05-.05.02-.72,0-.89,0-.11,0-.24.02-.34-.03-.1-.64.31-.33.38-.43.02-.03-.02-.6,0-.72.06-.09.24-.04.41-.05Z"/>
      <path class="cls-4" d="M25.13,14.85c0,.44,0,.87,0,1.31h-1c0-.44,0-.87,0-1.31h1Z"/>
      <path class="cls-4" d="M.08,19h.86s.07-.01.07.02c0,.39-.04.8-.03,1.19H.05c0-.39-.03-.79-.03-1.19,0-.03.07-.01.07-.02Z"/>
      <path class="cls-17" d="M4.65,2.75v1.24s-.3.07-.55.03c0,0-.05.02-.1-.05l-.03-2.08s.18.02.21-.02l-.02-.77c-.38.03-1.64-.04-1.79,0-.04.01.02.13-.09.1.01-.06-.03-.12.05-.17h1.86l.02,1.67c.07.09.26.04.45.05Z"/>
      <path class="cls-3" d="M.97,20.21c0,.39,0,.78,0,1.17H.08c-.16-.34-.03-.79-.03-1.17h.93Z"/>
      <path class="cls-3" d="M.94,15.84c.09.19.07.82.07,1.17H.08c0-.05-.07-.03-.07-.05,0-.36,0-.71,0-1.07,0-.03.07,0,.07-.05h.86Z"/>
      <path class="cls-3" d="M.94,19H.08c0-.05-.07-.02-.07-.05,0-.35.04-.7.03-1.05.51-.04,1.05.12.96-.17,0,.41,0,.81,0,1.22,0,.03-.07,0-.07.05Z"/>
      <path class="cls-4" d="M.97,14.78c0,.35.03.7.03,1.05,0,.03-.07.01-.07.02H.08s-.07.01-.07-.02c0-.35.03-.7.03-1.05h.93Z"/>
      <path class="cls-17" d="M12.28,2.75c.56,0,.39.07.41.07v1.17c-.17,0-.36.06-.55.03-.04,0-.23-.02-.24-.05.04-.39.05-.79.03-1.19,0-.05.16-.03.34-.03Z"/>
      <path class="cls-4" d="M.08,4.13c.29,0,.57,0,.86,0v.03c.05.3.03.61.03.91,0,.03-.07.01-.07.02H.05c0-.31-.04-.63-.03-.94,0-.03.07-.01.07-.02Z"/>
      <path class="cls-3" d="M15.51,27.76v.69c-.4,0-.8,0-1.2,0v-.76c.4,0,.79,0,1.19,0,.03,0,.01.07.02.07Z"/>
      <path class="cls-4" d="M.08,17.01h.93c0,.24,0,.48,0,.72.09.29-.46.14-.96.17,0-.29-.03-.58-.03-.88,0-.03.07-.01.07-.02Z"/>
      <path class="cls-3" d="M5.06,27.73l-.03.69c-.39,0-.78,0-1.17,0v-.69c.4,0,.8,0,1.2,0Z"/>
      <path class="cls-4" d="M14.51,2.03c-.09.16,0,.64-.03.7-.02.04-.11,0-.14.03-.03.05-.03,1.08-.03,1.25-.6.04-.45-.07-.48-.07v-1.13s-.12-.08.45-.09c0-.22,0-.45,0-.67.1-.07.14-.03.24-.03Z"/>
      <path class="cls-17" d="M6.3,2.75c0,.42.03.85.03,1.27-.2.04-.42-.03-.62-.03v-1.24h.58Z"/>
      <path class="cls-4" d="M25.33,1.72l-.82.03s0-.02,0-.03c0-.3,0-.6,0-.89.13,0,.74-.02.79.02l.03.88Z"/>
      <path class="cls-4" d="M23.03,0c0,.25,0,.5,0,.76-.32.07-.64.03-.96.03,0-.11-.02-.77.02-.79.31,0,.63,0,.94,0Z"/>
      <path class="cls-4" d="M26.06,2.79h-.65c0-.34-.07-.69-.03-1.03l.72.05c.03.33-.03.66-.03.98Z"/>
      <path class="cls-9" d="M24.51.83c0,.3,0,.6,0,.89l-.69.03c-.02-.39.06-.94-.07-.93,0,0-.01-.03.03-.03.25,0,.48.02.72.03Z"/>
      <path class="cls-4" d="M2.25,2.79c0,.05.07.03.07.05,0,.41-.04.82-.03,1.22-.15,0-.3,0-.45,0l-.03-1.24s.2-.06.45-.03Z"/>
      <path class="cls-4" d="M10.29,2.75c0,.41,0,.81,0,1.22,0,.03-.07.01-.07.02h-.45v-1.17s-.12-.11.52-.07Z"/>
      <path class="cls-11" d="M23.79.79s-.03.03-.03.03c-.01,0-.02,0-.03,0-.17,0-.34,0-.52,0h-.14s-.03-.04-.03-.07c0-.25,0-.5,0-.76.11,0,.73-.02.76.02v.77Z"/>
      <path class="cls-11" d="M26.06,2.79c0,.26.07.54.03.81l-.72.02c0-.27.03-.56.03-.82h.65Z"/>
      <path class="cls-4" d="M24.13,25.98c0,.22,0,.44,0,.65-3.38.08-6.76,0-10.14,0v-.65c3.38,0,6.76,0,10.14,0Z"/>
      <path class="cls-4" d="M7.78,26.01v.65c-2.22,0-4.44,0-6.67,0,0-.23,0-.46,0-.69,2.22-.04,4.44.04,6.67.03Z"/>
      <path class="cls-4" d="M12.83,25.94v.65c-.05,0-.02.07-.05.07-1.27,0-2.53-.03-3.8-.03v-.62c1.28,0,2.57-.07,3.85-.07Z"/>
      <path class="cls-3" d="M8.98,26.01v.62s.01.07-.02.07c-.39,0-.79-.03-1.19-.03v-.65c.05,0,.02-.07.05-.07.38,0,.76,0,1.13,0,.03,0,.01.07.02.07Z"/>
      <path class="cls-3" d="M14,25.98v.65c-.38,0-.77.03-1.15.03-.03,0-.01-.07-.02-.07v-.65c.39,0,.78.03,1.17.03Z"/>
      <path class="cls-1" d="M17.81,7.42v.84l.74.02.02.69s-.09-.02-.14.05v.74s.12.06-.27.07c-.12,0-.75-.08-.82.02v1.08s.01.07-.02.07c-.1,0-.71-.02-.74.02,0,.36,0,.72,0,1.08-.24.01-.49,0-.74,0-.19,1.47.28.87-.88,1.15l.03,1.08s.01.03-.03.03c-.1,0-.66-.02-.69.02v1.01l-.07.07-.72.05c-.02.32.02.66,0,.98,0,.03-.07.18-.07.21l-.82.05.03.96-.74.05s-.02.59-.02.69h-.81l-.05.86v.55s.01.07-.02.07h-.65c0,.12.04.71.02.74-.04.06-.47-.04-.52.07v1.48l-.76.02c-.06-1.13-.03-2.26-.03-3.38,0-.03-.07-.01-.07-.02,0-.34.07-.7.03-1.05.02-.05.5-.08.58-.09.2,0,.43.08.64.03.07.05.05.08.05.1.03.11-.04.55.02.58h.69l.02-.64c-.03-.08-.47-.06-.55-.05-.18.02-.08-.36-.1-.67l.82-.07v-1.27l.82-.07-.03-1.07.88-.05.02-1.08.82-.07v-1.07l.82-.03c.04-1.42-.26-1.15.76-1.27v-1l.82-.03v-1.13l.89-.07v-1.37s.8-.11.82.02Z"/>
      <path class="cls-1" d="M21.35,2.65c-.04.18-.06.67-.03.82,0,.03.02.04.03.07.13.3.33-.04.38.38,0,.04-.07.63-.03.89,0,0,.04.02-.14.03-.25.01-.75-.04-.79.05v.93c.04.08.07.08.07.09,0,.07-.04.08-.03.1l-.72.02v.86l-.05.09-.77.09c0,.25-.01.49,0,.74-.89.12-.42-.38-.57-.48-.03-.02-.61,0-.7,0-.2.06-.07-.7-.1-1.15l.72-.07.05-1.19.77-.02.05-1.08.88-.05c.03-.39-.07-.95.07-1.12.26,0,.53-.03.79-.03.06,0,.07.04.14.03Z"/>
      <path class="cls-4" d="M19.25,7.8c0,.12,0,.3.03.41.01.04-.02.14.02.17.29-.03.59.03.88.03v1.17s.12.11-.55.07c0-.01,0-.02,0-.03,0-.21,0-.42,0-.64-.02-.03-.56-.02-.65-.02-.13,0-.33-.02-.41,0l-.02-.69-.74-.02v-.84s.16-.1.17-.1c.1,0,.68-.02.7,0,.14.1-.32.61.57.48Z"/>
      <path class="cls-5" d="M10.46,17.73c.08,0,.52-.02.55.05l-.02.64h-.69c-.05-.04.01-.47-.02-.58.05-.09.05-.09.17-.1Z"/>
      <path class="cls-18" d="M24.17,6.67c0,2.13,0,4.26,0,6.39,0,.59-.03,1.19-.03,1.79,0,.44,0,.87,0,1.31,0,.48.03.97.03,1.44,0,2.76.04,5.52,0,8.28,0,.03-.03.03-.03.1-3.38,0-6.76,0-10.14,0-.39,0-.78-.03-1.17-.03-1.28,0-2.57.07-3.85.07,0,0,.01-.07-.02-.07-.38,0-.76,0-1.13,0-.03,0,0,.07-.05.07-2.22,0-4.44-.07-6.67-.03,0-.11-.07-.1-.07-.1-.01-.41.03-.83-.03-1.24h22.45c.12-4.51-.09-9.03-.02-13.54,0-.11.07-.06.07-.09.01-.67.03-3.87.07-4.09.06-.3.13-.12.21-.22.01-.01.03-.05.03-.07.1.06.23.03.34.03Z"/>
      <path class="cls-14" d="M23.79,6.7c-.08.1-.15-.07-.21.22-.04.22-.06,3.42-.07,4.09,0,.03-.07-.02-.07.09-.11.01-.51-.02-.53,0-.03.02-.01.52-.07.62l-.6.05v1.17l-.65.03v1.03l-1,.1v1.03l-.65.07v1.03l-.72.03-.05,1.12-.81.02v1.03l-.72.07v1.07l-.82.07v1l-.79.07-.05.94-1.07-.03-.1,1.03c-1.2.06-1.26-.28-1.24.58h-1.13l-.07.58-2.94-.03s0-.08.05-.1c.08-.03.35.03.41,0,.09-.04.03-.19.05-.22.05-.08,1.13-.31,1.29-.36.05-.02.06-.12.1-.14.4-.14,1.09-.36,1.48-.38l.05-.89.03-.07h.03l-.03.6c.61.08.8.04.58-.6.14,0,.1-.03.1-.03.09,0,.36.07.64.03-.08-1.02.37-.47.52-.65.05-.06,0-.26.02-.29.06-.09.31.24.24-.62.91.05.42-.27.55-.55.04-.08.17-.02.21-.1.14-.3-.33-.41.55-.48-.12-1.05.41-.11.31-1.07.83-.01.34-.25.48-.58.07-.17.43.22.34-.52.79.07.36-.44.48-.62.08-.11.35.26.27-.55.61-.19.3-.26.38-.45.06-.15.32.21.24-.58.93-.06.4-.23.55-.58.06-.14.35.16.27-.48.06-.16.64.37.55-.62.54,0-.24-.71.7-.57.05-.96.27-.5.36-.64.02-.03-.02-.29,0-.34.1-.23.56.37.45-.62.51-.03.22-.12.34-.27.03-.04.13.01.17-.07.02-.04-.02-.18,0-.21.06-.08.2.25.21-.76.25-.14.51,0,.65-.14,0-1.19.36-1.56-.57-1.43-.1.34.19,1.05-.33.82.1,0,.22.03.27-.05l.02-.81.7-.05v-1.03l.62-.02Z"/>
      <path class="cls-18" d="M13.58,21.58l-.03-.88.62-.07v-1.27l.79-.03v-1l.76-.03.03-1.13.79-.03v-1.03l.76-.07.02-.94.77-.05v-1.2l.74-.02.02-.94.79-.07v-1.07l.72-.07v-.96l.79-.03c-.11-1.54.28-.85.41-1.03.03-.04-.02-.79,0-.93.04-.1.4-.03.62-.05.52.22.23-.49.33-.82.93-.13.57.24.57,1.43-.14.14-.4,0-.65.14,0,1.01-.15.67-.21.76-.02.02.02.17,0,.21-.04.08-.14.03-.17.07-.13.15.17.25-.34.27.11.98-.35.39-.45.62-.02.05.02.31,0,.34-.09.13-.31-.33-.36.64-.95-.14-.17.56-.7.57.09.98-.49.46-.55.62.08.64-.21.34-.27.48-.15.36.38.53-.55.58.07.79-.18.44-.24.58-.08.19.23.26-.38.45.08.81-.2.44-.27.55-.12.18.31.69-.48.62.08.74-.27.35-.34.52-.15.33.35.57-.48.58.1.95-.43.01-.31,1.07-.88.07-.41.18-.55.48-.04.08-.17.02-.21.1-.13.28.36.6-.55.55.07.86-.18.53-.24.62-.02.03.03.23-.02.29-.14.18-.6-.37-.52.65-.27.03-.55-.04-.64-.03Z"/>
      <path class="cls-3" d="M18.98,9.62h.65s0,.02,0,.03c0,.2,0,.41,0,.62l-.79.05c0,.35,0,.7,0,1.05-.05,0-.45-.08-.76-.02l-.03,1.15s-.02,0-.03,0c-.1,0-.66-.02-.69.02v1.15s-.02,0-.03,0c-.12,0-.72-.03-.76.05v1.05s-.02,0-.03,0c-.21,0-.68-.04-.72.05v1.07l-.79.07c0,.34-.02.68-.03,1.01,0,.01,0,.02,0,.03l-.76.02v1.08s-.02,0-.03,0c-.11,0-.73-.02-.76.02v1.19c-.25,0-.5,0-.76,0v-1.56l.76-.07c.02-.32-.02-.66,0-.98,0-.03.07-.18.07-.21l.79-.02s-.02-.78,0-.94c0-.05-.01-.08.07-.07.06.01.6,0,.62-.02v-1.08s.03-.03.03-.03c.12,0,.76.02.79-.02v-1.1l.79-.07c0-.35,0-.7,0-1.05.26-.01.53-.03.79-.05.03-.38-.07-1.01.07-1.05.19,0,.68.04.72-.05v-1.12c.39-.01.26-.07.27-.07.02,0,.33.08.43.03,0,0,.12-.16.12-.17Z"/>
      <path class="cls-4" d="M24.54,4.68c-.05.06-.09.01-.14.05l.1.03c.11.93-.28.47-.34.69.13,1.29-.42.27-.43,1.19h-.58l-.09.09v1c-.95-.01-.63.06-.7.88-1.43-.2-.68.7-.88.98-.1.13-.53-.39-.41,1.03-.16.22-1.04-.58-.79,1.03-.21.24-.89-.63-.72,1.1-1.22.04-.64.07-.84,1.05h-.65l-.09-.1.03-1.17s.02,0,.03,0c.19,0,.75.04.79-.05,0-.36,0-.72,0-1.08.25,0,.51-.05.76-.05-.03-.34.02-.68.03-1.01l.62-.02.03-.67c.1,0,.48.03.52-.02.03-.26-.04-.6-.03-.64,0-.18.03-.36.03-.55l.76-.05c-.03-.33.02-.65.03-.98.11,0,.73.02.76-.02,0-.35,0-.7,0-1.05,0-.01,0-.02,0-.03l.72-.02v-.79l.6-.05c.14-.6-.02-.68-.02-.72,0-.01,0-.02,0-.03h.89Z"/>
      <path class="cls-13" d="M11.04,19.9s-.04.06.19.07c.03,0,0-.07.05-.07,0,0-.01.07.02.07.2,0,.4-.01.6,0,0,0-.02.03.07.03-.1.06-.1.65-.02.69.29,0,.58,0,.88,0,.03.36-.07.92.07.93l-.03.07c-.73-.15-.64.16-.7.21-.05.04-.75.18-1.2.34-.27.1-.52.25-.79.34-.23.08-.29-.11-.38.27-.33-.05-.32.1-.34.1-.53.1-.33-.19-.36-.72l.76-.02v-1.48c.05-.11.47,0,.52-.07.02-.03,0-.62-.02-.74h.65s.01-.07.02-.07c.04,0,.03.03.03.03Z"/>
      <path class="cls-4" d="M11.97,19.31c.23,0,.46,0,.69,0,.25,0,.5,0,.76,0h.72c-.01.42-.06.84-.03,1.25-.2.02-.39.02-.58.05-.01-.09.03-.55-.02-.58-.06-.04-1.08-.01-1.53-.03-.09,0-.06-.03-.07-.03v-.65s.05,0,.07,0Z"/>
      <path class="cls-8" d="M16.5,14.78l-.03,1.15-.72.03v1l-.79.02c.01-.34.03-.68.03-1.01l.79-.07v-1.07c.04-.09.52-.04.72-.05Z"/>
      <path class="cls-1" d="M13.51,20.62s0,.03-.05.07c-.21,0-.42,0-.64,0-.29,0-.58,0-.88,0-.09-.04-.08-.63.02-.69.44.02,1.47,0,1.53.03.04.03,0,.49.02.58Z"/>
      <path class="cls-8" d="M14.17,18.11c-.05.4-.02.8-.03,1.2h-.72v-1.19s.64-.01.76-.02Z"/>
      <path class="cls-8" d="M14.96,17.01c-.01.35,0,.7,0,1.05-.25,0-.51.04-.76.05v-1.08l.76-.02Z"/>
      <path class="cls-8" d="M17.29,13.68v1.05c-.04.09-.52.04-.76.05v-1.05c.04-.09.64-.05.76-.05Z"/>
      <path class="cls-8" d="M18.02,12.51l-.03,1.17h-.65v-1.15s.59-.01.69-.02Z"/>
      <path class="cls-18" d="M13.48,21.61c.21.64.03.68-.58.6l.03-.6c.18,0,.37,0,.55,0Z"/>
      <g>
        <path class="cls-13" d="M3.96,1.89l.03,2.08c.05.07.1.05.1.05.01.34,0,.69,0,1.03-.61-.04-1.22.03-1.82.03,0-.34,0-.69,0-1.03,0-.4.03-.81.03-1.22,0-.03-.07,0-.07-.05,0-.29.03-.6.03-.89.48-.04,1.27.05,1.68,0Z"/>
        <path class="cls-4" d="M3.96,1.89c-.41.05-1.2-.04-1.68,0,0-.21-.02-.55,0-.69.11.02.05-.09.09-.1.15-.04,1.41.03,1.79,0l.02.77s-.16.01-.21.02Z"/>
        <path class="cls-4" d="M4.1,5.05s.03-.02.03.07c0,.12.02.93-.02.96h-1.82s-.02-.86-.02-1c.6,0,1.22-.07,1.82-.03Z"/>
      </g>
      <path class="cls-14" d="M2.28,4.06c0,.34,0,.69,0,1.03-.38,0-.77-.01-1.15,0-.28-.18.01-.81-.19-.93v-.03c.29,0,.6-.05.89-.07.15,0,.3,0,.45,0Z"/>
      <g>
        <path class="cls-7" d="M2.28,5.09c0,.13-.02.97.02,1h1.82s.02-.84.02-.96c.05,0,.02-.06.05-.07.12-.03,1.82,0,2.15.03,0,.34-.02.69.02,1.03h1.75c.12-.05.02-.92.02-1.07.72,0,1.44,0,2.16,0l.05,1.07h1.79s.01-.47.02-.55h1.12l.1-.55c.31,0,.63,0,.94,0,0,.1-.02.66.05.69h1.86l.02-.69s.02,0,.03,0c.54,0,1.08-.06,1.61-.03,0,.1.02.66-.02.69l-.81.05v1.37l-.81.02-.05,1.08-.89.07v1.2l-.76.03v1.1l-.82.1v1.03l-.79.03v1.24l-.89.03v1.13l-.84.05-.02,1.08-.77.02-.02,1.08-.79.07v1.22c-.08,0-.56.04-.58.09.04.35-.04.71-.03,1.05l-.62.02v4.98c.03.07.97.07,1.01.05.06-.02.05-.1.05-.1l2.94.03.07-.58h1.13c-.02-.86.03-.52,1.24-.58l.1-1.03,1.07.03.05-.94.79-.07v-1l.82-.07v-1.07l.72-.07v-1.03l.81-.02.05-1.12.72-.03v-1.03l.65-.07v-1.03l1-.1v-1.03l.65-.03v-1.17l.6-.05c.06-.09.04-.6.07-.62.03-.02.42.01.53,0-.07,4.51.14,9.03.02,13.54H1.01c.03-1.09-.03-2.18-.03-3.26,0-.39,0-.78,0-1.17,0-.39.04-.79.03-1.19,0-.03-.07-.01-.07-.02,0-.05.07-.03.07-.05,0-.41,0-.81,0-1.22,0-.24,0-.48,0-.72,0-.34.02-.97-.07-1.17,0,0,.07.01.07-.02,0-.35-.03-.7-.03-1.05,0-.58,0-1.17,0-1.75,0-2.12,0-4.24,0-6.36,0-.51,0-1.02,0-1.53,0-.03-.07,0-.07-.05,0,0,.07.01.07-.02,0-.3.02-.61-.03-.91.2.12-.09.75.19.93.38-.01.77,0,1.15,0Z"/>
        <path class="cls-14" d="M5.72,3.99c.2,0,.42.07.62.03,0,.34,0,.69,0,1.03,0,.01,0,.02,0,.03-.33-.03-2.03-.07-2.15-.03-.03,0,0,.07-.05.07,0-.09-.03-.06-.03-.07,0-.34.01-.69,0-1.03.25.03.52-.03.55-.03.36,0,.71,0,1.07,0Z"/>
        <path class="cls-14" d="M14.31,4.02c-.01.33-.01.67,0,1-.31,0-.63,0-.94,0l-.1.55h-1.12c0-.17-.03-.35-.03-.52,0-.34.07-.69.03-1.03.19.02.38-.04.55-.03.36,0,.72.04,1.08.03.03,0,0-.07.05-.07.03,0-.12.1.48.07Z"/>
        <path class="cls-14" d="M8.67,3.99c.37,0,.73,0,1.1,0h.45c0,.05.07.02.07.05,0,.34-.03.68.03,1.01-.01,0-.02,0-.03,0-.72,0-1.44,0-2.16,0,0-.35,0-.71,0-1.07.16.03.38,0,.55,0Z"/>
      </g>
      <g>
        <path class="cls-4" d="M12.24,1.82h-1.96c0-.25-.03-.51.05-.76h1.89s.01.65.02.76Z"/>
        <g>
          <path class="cls-13" d="M11.87,1.82c-.05.42.07.91.07.96.02.39,0,.79-.03,1.19.01.03.2.05.24.05.04.34-.03.69-.03,1.03-.6,0-1.19,0-1.79,0-.06-.33-.03-.68-.03-1.01,0-.03-.07,0-.07-.05,0,0,.07.01.07-.02,0-.41,0-.81,0-1.22,0-.31,0-.62,0-.93h1.58Z"/>
          <path class="cls-20" d="M12.24,1.82c0,.31-.03.62.03.93-.18,0-.35-.02-.34.03,0-.06-.12-.54-.07-.96h.38Z"/>
        </g>
        <path class="cls-4" d="M12.11,5.05c0,.16.04.34.03.52,0,.08.02.53-.02.55h-1.79l-.05-1.07s.02,0,.03,0c.6,0,1.19,0,1.79,0Z"/>
      </g>
      <g>
        <path class="cls-13" d="M8.12,3.99c0,.35,0,.71,0,1.07-.6,0-1.19,0-1.79,0,0-.34,0-.69,0-1.03,0-.42-.04-.85-.03-1.27,0-.29.06-.6.07-.89l1.61.02v2.1s.1.01.14.02Z"/>
        <path class="cls-4" d="M8.67,2.82v1.17c-.17,0-.39.03-.55,0-.04,0-.12.02-.14-.02V1.88l-1.61-.02c0-.12-.11-.77.02-.82h1.82l.02,1.67c.07.09.25.04.43.05.03,0,.01.07.02.07Z"/>
        <path class="cls-4" d="M8.12,5.05c0,.15.11,1.01-.02,1.07h-1.75c-.04-.34-.01-.69-.02-1.03,0-.01,0-.02,0-.03.6,0,1.19,0,1.79,0Z"/>
      </g>
      <path class="cls-4" d="M23.65,4.68s0,.02,0,.03h-.62c.03-.39-.06-.25-.62-.27,0-.13-.07-.29-.03-.43l-.27-.09c0-.09,0-.18,0-.27l1.53-.03c.04.35,0,.71.02,1.07Z"/>
      <path class="cls-21" d="M24.51,1.72s0,.02,0,.03c0,.2.03.42.03.62l-.67-.03c-.09-.04-.04-.39-.05-.58l.69-.03Z"/>
      <path class="cls-2" d="M22.1,3.54s0,.07,0,.1c0,.09,0,.18,0,.27h-.38c-.04-.42-.25-.07-.38-.38h.76Z"/>
      <path class="cls-9" d="M23.07.83c0,.28,0,.56,0,.84l-.91.05-.02.88c-.04.09-.39.04-.58.05-.07,0-.14,0-.21,0-.06,0-.07-.04-.14-.03v-.88l.86-.07c0-.29,0-.58,0-.88.32,0,.65.03.96-.03,0,.03.03.04.03.07Z"/>
      <g>
        <path class="cls-4" d="M23.2.83c-.24.07,0,.86-.15.93l-.88.02v.79l1.53.05.05.91.7.02-.02-1.15c-.99.08-.64-.24-.72-1.56.01,0,.02,0,.03,0,.12-.01.05.54.07.93,0,.19-.04.54.05.58l.67.03c0,.41.01.83-.02,1.24l-.81-.02-.05-.91h-1.48s-.08.75-.09.86h-.76s-.03-.04-.03-.07l.76-.02c-.02-.12.02-.69,0-.72-.05-.07-.52.07-.52-.09.2,0,.54.04.58-.05l.02-.88.91-.05c0-.28,0-.56,0-.84h.14Z"/>
        <path class="cls-17" d="M23.72.83c.08,1.32-.27,1.65.72,1.56l.02,1.15-.7-.02-.05-.91-1.53-.05v-.79l.88-.02c.16-.07-.08-.86.15-.93.17,0,.34,0,.52,0Z"/>
      </g>
      <path class="cls-4" d="M8.98,18.83s.07-.01.07.02c0,1.13-.03,2.26.03,3.38.03.53-.17.82.36.72.03,0,.01-.15.34-.1.09-.38.15-.19.38-.27.27-.1.52-.25.79-.34.45-.16,1.15-.31,1.2-.34.07-.04-.03-.36.7-.21l-.05.89c-.39.02-1.08.24-1.48.38-.05.02-.06.12-.1.14-.16.06-1.24.28-1.29.36-.02.03.04.18-.05.22-.06.03-.34-.03-.41,0-.06.02-.05.1-.05.1s0,.08-.05.1c-.05.02-.98.02-1.01-.05v-4.98l.62-.02Z"/>
      <g>
        <path class="cls-4" d="M16.85,2.79v1.2c-.08,0-.58.08-.62.07,0,0-.13-.07-.14-.09v-1.89c-.04-.09-1.39-.05-1.58-.05-.1,0-.14-.04-.24.03,0-.15-.04-.99.05-1.03h1.99l.05,1.7c.16,0,.33.05.48.05Z"/>
        <path class="cls-13" d="M16.23,4.06l.03.96s-.02,0-.03,0c-.64,0-1.28,0-1.92,0-.01-.33-.01-.67,0-1,0-.18,0-1.2.03-1.25.02-.04.11,0,.14-.03.04-.06-.05-.55.03-.7.19,0,1.54-.04,1.58.05v1.89s.13.08.14.09Z"/>
        <path class="cls-4" d="M16.23,5.02l-.02.69h-1.86c-.07-.03-.05-.58-.05-.69.64,0,1.28,0,1.92,0Z"/>
      </g>
      <path class="cls-6" d="M16.57,12.1c0,.35,0,.7,0,1.05l-.79.07v1.1s-.67,0-.79.02l-.03-1.08c1.16-.28.69.32.88-1.15.25,0,.49.01.74,0Z"/>
      <path class="cls-6" d="M13.41,16.7c-.02.32.02.65,0,.98l-.76.07v.81l-.76.03c0-.11-.03-.12-.03-.14,0-.1-.01-.66.02-.69l.74-.05-.03-.96.82-.05Z"/>
      <path class="cls-6" d="M18.15,9.83v1.12c-.04.09-.53.05-.72.05,0,0-.06-.07-.1-.07v-1.08c.07-.1.7-.01.82-.02Z"/>
      <path class="cls-6" d="M17.43,11c-.14.04-.04.67-.07,1.05-.26.02-.53.04-.79.05,0-.36,0-.72,0-1.08.02-.03.63-.01.74-.02.03,0,.01-.07.02-.07.05,0,.1.07.1.07Z"/>
      <path class="cls-4" d="M11.87,18.45s.03.03.03.14c.01.33-.05.65.07.72-.02,0-.05,0-.07,0-.17,0-.42.02-.57-.03l-.05.62c-.05,0-.03.07-.05.07-.23,0-.18-.07-.19-.07.26.14.27-.83-.03-.58l.05-.86h.81Z"/>
      <path class="cls-6" d="M14.2,15.46l.07.07c-.02.16.03.91,0,.94l-.79.02c.02-.32-.02-.65,0-.98l.72-.05Z"/>
      <path class="cls-6" d="M14.96,14.37v1.08s-.56.03-.62.02c0,0-.06-.05-.07-.07v-1.01s.58-.01.69-.02Z"/>
      <path class="cls-6" d="M18.57,8.97c.08-.02.28,0,.41,0-.02.18.03.56,0,.65,0,.01-.11.17-.12.17-.1.04-.41-.04-.43-.03v-.74c.05-.07.09-.04.14-.05Z"/>
      <path class="cls-12" d="M11.04,19.9s.01-.03-.03-.03v-.55c.31-.25.29.73.03.58Z"/>
      <path class="cls-15" d="M14.34,15.46c-.08,0-.06.01-.07.07l-.07-.07.07-.07s.06.07.07.07Z"/>
      <path class="cls-4" d="M21.55,2.65c0,.15.46.01.52.09.02.03-.02.6,0,.72l-.76.02c-.03-.15,0-.64.03-.82.07,0,.14,0,.21,0Z"/>
      <path class="cls-10" d="M19.63,9.62h-.65c.03-.1-.02-.47,0-.65.09,0,.63-.01.65.02,0,.21,0,.42,0,.64Z"/>
      <path class="cls-16" d="M20.28,9.62l-.03.67-.62.02s0-.02,0-.03c0-.2,0-.41,0-.62.67.04.52-.07.55-.07.03,0,.03.04.1.03Z"/>
      <g>
        <path class="cls-1" d="M20.76,8.97s.07.38.03.64c-.03.05-.42,0-.52.02-.07,0-.07-.04-.1-.03v-.62h.58Z"/>
        <path class="cls-19" d="M20.8,8.39s0,.02,0,.03c0,.19-.03.37-.03.55h-.58v-.55c.19,0,.42-.04.62-.03Z"/>
      </g>
      <path class="cls-8" d="M18.84,11.38c0,.36,0,.72,0,1.08-.04.09-.6.05-.79.05l.03-1.15c.31-.07.71.02.76.02Z"/>
      <path class="cls-8" d="M19.63,10.28s0,.02,0,.03c-.01.34-.06.67-.03,1.01-.25,0-.51.04-.76.05,0-.35,0-.7,0-1.05l.79-.05Z"/>
      <path class="cls-8" d="M12.66,19.31c-.23,0-.46,0-.69,0-.12-.08-.05-.39-.07-.72l.76-.03v.76Z"/>
      <g>
        <path class="cls-3" d="M22.28,4.81c.12.28.07,1.03.07,1.48,0,.01,0,.02,0,.03l-.76-.02s0,.93,0,1.08c-.11,0-.77-.02-.79.02,0,.33,0,.65,0,.98-.2,0-.42.04-.62.03-.29,0-.59-.07-.88-.03-.04-.03,0-.13-.02-.17l.79-.05v-1.17l.76-.07c.03-.3-.03-.61-.03-.91,0-.03.04-.03.03-.1l.76-.02-.03-1.05c.18-.01.13-.03.14-.03.19,0,.39,0,.58,0Z"/>
        <path class="cls-6" d="M20.8,6.02c0,.3.06.61.03.91l-.76.07v1.17l-.79.05c-.03-.12-.03-.29-.03-.41-.01-.25,0-.49,0-.74l.77-.09.05-.09v-.86l.72-.02Z"/>
        <path class="cls-6" d="M21.55,4.85l.03,1.05-.76.02s-.02,0-.07-.09v-.93c.04-.1.54-.04.79-.05Z"/>
        <path class="cls-6" d="M22.1,3.92l.27.09c-.04.14.03.3.03.43,0,.02-.06.11-.03.34-.03,0-.03.03-.1.03-.19,0-.39,0-.58,0-.04-.26.04-.85.03-.89h.38Z"/>
        <path class="cls-8" d="M23.65,4.71s.16.13.02.72l-.6.05v.79l-.72.02c0-.45.05-1.2-.07-1.48.07,0,.08-.04.1-.03.03,0,.54.1.6.14.08-.05.05-.13.05-.21h.62Z"/>
        <path class="cls-8" d="M22.34,6.33c0,.35,0,.7,0,1.05-.02.04-.65.01-.76.02,0-.15-.03-1.04,0-1.08l.76.02Z"/>
        <path class="cls-8" d="M21.59,7.39c-.01.33-.06.65-.03.98l-.76.05s0-.02,0-.03c0-.33,0-.65,0-.98.02-.04.68-.01.79-.02Z"/>
      </g>
      <path class="cls-1" d="M11.9,19.31v.65c-.2-.01-.4,0-.6,0-.03,0-.01-.07-.02-.07l.05-.62c.14.06.4.04.57.03Z"/>
      <path class="cls-3" d="M23.03,4.71c0,.07.03.15-.05.21-.06-.04-.57-.14-.6-.14-.03-.23.03-.33.03-.34.56.02.65-.11.62.27Z"/>
    </g>
  </g>
</svg>