<?xml version="1.0" standalone="no"?>
<!DOCTYPE svg PUBLIC "-//W3C//DTD SVG 20010904//EN"
 "http://www.w3.org/TR/2001/REC-SVG-20010904/DTD/svg10.dtd">
<svg version="1.0" xmlns="http://www.w3.org/2000/svg"
 width="300.000000pt" height="300.000000pt" viewBox="0 0 300.000000 300.000000"
 preserveAspectRatio="xMidYMid meet">
<metadata>
Created by potrace 1.10, written by Peter Selinger 2001-2011
</metadata>
<g transform="translate(0.000000,300.000000) scale(0.100000,-0.100000)"
fill="#000000" stroke="none">
<path d="M1400 2969 c-42 -26 -55 -41 -80 -94 -19 -38 -20 -67 -20 -535 0
-460 2 -498 19 -535 22 -48 54 -79 103 -100 74 -30 173 -10 225 46 51 56 53
75 53 588 0 301 -4 490 -11 514 -12 43 -59 101 -100 123 -44 22 -147 18 -189
-7z m161 -26 c28 -15 59 -42 72 -62 22 -36 22 -37 22 -536 0 -555 2 -537 -67
-587 -25 -18 -46 -23 -90 -23 -61 0 -94 17 -132 69 -21 27 -21 38 -21 534 0
579 -4 549 88 602 28 16 58 30 66 30 7 0 35 -12 62 -27z"/>
<path d="M2185 2440 c-94 -20 -157 -96 -157 -189 0 -72 22 -110 129 -217 201
-201 293 -416 293 -686 0 -117 -20 -227 -60 -336 -104 -280 -353 -503 -648
-583 -118 -32 -310 -37 -434 -11 -355 74 -638 345 -733 703 -26 98 -31 297
-11 399 45 221 119 354 287 523 82 81 101 106 113 148 39 129 -51 248 -187
249 -70 0 -103 -18 -200 -110 -246 -233 -387 -524 -418 -862 -60 -656 365
-1256 1008 -1423 90 -24 293 -45 293 -32 0 9 -88 32 -200 52 -366 67 -702 304
-893 629 -60 103 -122 266 -148 386 -32 150 -32 401 0 545 42 184 131 376 244
524 71 93 205 219 253 237 57 22 114 14 160 -21 42 -32 54 -60 54 -123 0 -58
-12 -76 -117 -180 -85 -86 -175 -211 -217 -303 -14 -30 -37 -94 -52 -144 -26
-83 -28 -103 -28 -265 0 -162 2 -182 27 -261 37 -122 69 -189 134 -288 132
-198 335 -345 569 -413 69 -20 102 -23 254 -23 153 0 185 3 255 23 267 78 490
258 623 504 138 256 149 588 27 864 -42 94 -133 222 -219 307 -105 103 -116
120 -116 183 0 121 120 190 231 133 23 -11 78 -58 123 -104 635 -645 459
-1699 -351 -2099 -109 -54 -215 -88 -378 -120 -154 -31 -185 -45 -99 -46 132
0 331 50 487 124 272 130 528 391 647 663 45 101 85 235 102 337 15 91 15 341
0 432 -46 277 -175 528 -376 730 -56 56 -113 109 -127 118 -33 21 -106 34
-144 26z"/>
</g>
</svg>
