<?xml version="1.0" encoding="UTF-8"?>
<svg id="Layer_2" data-name="Layer 2" xmlns="http://www.w3.org/2000/svg" viewBox="0 0 31.55 29.88">
  <defs>
    <style>
      .cls-1 {
        fill: #4a5c74;
      }

      .cls-1, .cls-2, .cls-3, .cls-4, .cls-5, .cls-6, .cls-7, .cls-8, .cls-9, .cls-10, .cls-11, .cls-12, .cls-13, .cls-14, .cls-15, .cls-16, .cls-17, .cls-18, .cls-19, .cls-20, .cls-21, .cls-22, .cls-23, .cls-24, .cls-25, .cls-26, .cls-27, .cls-28, .cls-29, .cls-30, .cls-31, .cls-32, .cls-33, .cls-34, .cls-35, .cls-36, .cls-37, .cls-38, .cls-39, .cls-40, .cls-41, .cls-42 {
        stroke-width: 0px;
      }

      .cls-2 {
        fill: #caad4b;
      }

      .cls-3 {
        fill: #26a1b0;
      }

      .cls-4 {
        fill: #386488;
      }

      .cls-5 {
        fill: #9eabd3;
      }

      .cls-6 {
        fill: #0b0d0f;
      }

      .cls-7 {
        fill: #1c2614;
      }

      .cls-8 {
        fill: #31495b;
      }

      .cls-9 {
        fill: #2f4244;
      }

      .cls-10 {
        fill: #637278;
      }

      .cls-11 {
        fill: #dbb679;
      }

      .cls-12 {
        fill: #747c83;
      }

      .cls-13 {
        fill: #ac9866;
      }

      .cls-14 {
        fill: #c9484e;
      }

      .cls-15 {
        fill: #aacfd1;
      }

      .cls-16 {
        fill: #176a5b;
      }

      .cls-17 {
        fill: #aac5d0;
      }

      .cls-18 {
        fill: #c3b5d9;
      }

      .cls-19 {
        fill: #42adca;
      }

      .cls-20 {
        fill: #e9bd66;
      }

      .cls-21 {
        fill: #60a5c9;
      }

      .cls-22 {
        fill: #cee2e5;
      }

      .cls-23 {
        fill: #b6c8e7;
      }

      .cls-24 {
        fill: #54636d;
      }

      .cls-25 {
        fill: #b5b6da;
      }

      .cls-26 {
        fill: #f29f58;
      }

      .cls-27 {
        fill: #c13d96;
      }

      .cls-28 {
        fill: #2e96bf;
      }

      .cls-29 {
        fill: #3c4c53;
      }

      .cls-30 {
        fill: #be8f56;
      }

      .cls-31 {
        fill: #87a1d3;
      }

      .cls-32 {
        fill: #236f98;
      }

      .cls-33 {
        fill: #7786a2;
      }

      .cls-34 {
        fill: #8cc8cc;
      }

      .cls-35 {
        fill: #718abc;
      }

      .cls-36 {
        fill: #f9fbfd;
      }

      .cls-37 {
        fill: #647590;
      }

      .cls-38 {
        fill: #1d546f;
      }

      .cls-39 {
        fill: #d1cae3;
      }

      .cls-40 {
        fill: #f4cc93;
      }

      .cls-41 {
        fill: #dfe7f2;
      }

      .cls-42 {
        fill: #eceaf5;
      }
    </style>
  </defs>
  <g id="Layer_1-2" data-name="Layer 1">
    <g>
      <path class="cls-6" d="M12.17.04c.29,0,.58,0,.88,0h.79s.04.04.04.13c0,.19-.05,1.24.06,1.29.81,0,1.63,0,2.44,0,.49,0,.97,0,1.46,0,0,.21,0,.42,0,.63,0,.32-.04.36-.04.38-.21,0-.42.01-.63,0-.28-.01-.52,0-.79,0-.2,0-.41-.04-.63-.04-.24,0-.48.04-.71.04-.2,0-.37-.01-.58,0-.21.01-.42,0-.63,0,0-.05-.09-.77-.04-.98-.05-.11-.6-.06-.83-.06-.21,0-1.8-.04-1.83.06v1.92c.07.15.78.02.92.02.29,0,.58.04.88.04.32,0,.64-.04.96-.04.19,0,.39,0,.58,0,.24,0,.47,0,.71,0,.18,0,.36,0,.54,0,.25,0,.5,0,.75,0,.03,0,.26.04.63.04.25,0,.51-.04.75-.04.24,0,.47,0,.71,0,.24,0,.5.05.75.04.17,0,.33,0,.5,0,.24,0,.7.05.75-.06v-1.92c-.07-.15-1.67-.03-1.92-.02-.25,0-.5.01-.75-.04V.08c.21,0,.16-.04.17-.04.29,0,.58,0,.88,0,.28,0,.58.04.88.04.26,0,.53,0,.79,0,0,.1-.02.6.02.63h.81s.08-.13.08.29c0,.28,0,.56,0,.83,0,.28,0,.56,0,.83,0,.12-.02.76.02.79.31.04.69-.04.73-.04.29,0,.55,0,.83,0,.27,0,.56.04.83.04.28,0,.56,0,.83,0,.29,0,.58,0,.88,0,.28,0,.56,0,.83,0,.29,0,.59-.04.88-.04.29,0,.58.04.88.04.25,0,.5,0,.75,0,.28,0,.56,0,.83,0,.25,0,.5.03.75.04.04,0,.04.04.08.04v.9l.85.02c0,.25.05.5.06.75,0,.11,0,.53,0,.75,0,.25,0,.5,0,.75,0,.26,0,.53,0,.79,0,.26,0,.53,0,.79,0,.25,0,.5,0,.75,0,.26,0,.53,0,.79,0,.26,0,.53,0,.79,0,.29,0,.55,0,.83,0,.25-.09.53-.04.79-.04,0-.05-.04-.08-.04,0-.03.09-.09.02-.17h-.83s-.01.19-.02.25c-.03.24.02.54,0,.79-.01,0-.03,0-.04,0-.35-.02-.79-.05-1.13-.04v-.94c.05-.08.1-.05.17-.06.04,0,.68.13.88-.02,0-.98,0-1.96,0-2.94,0-.96,0-1.92,0-2.88,0-.52,0-1.04,0-1.56l-.88-.02H1.75l-.63.02c0,.24,0,.49,0,.73-.02.44,0,.89,0,1.33,0,.87,0,1.75,0,2.63,0,.9.02,1.79-.04,2.69l-.08.02c-.37.03-.82-.07-.88.08-.05.16-.07-.34-.08-.67,0-.26,0-.53,0-.79,0-.28,0-.56,0-.83,0-.26-.04-.54-.04-.79,0-.25,0-.5,0-.75C0,8.03,0,7.76,0,7.5c0-.25,0-.5,0-.75,0-.26,0-.53,0-.79,0-.24.03-.5.04-.75,0-.11-.02-.72.02-.75l.94-.06c0-.28-.01-.57,0-.85,0-.01,0-.03,0-.04.28.04.56-.03.83-.04.29-.01.58,0,.88,0,.29,0,.58,0,.88,0,.28,0,.56,0,.83,0,.28,0,.56,0,.83,0,.29,0,.58,0,.88,0,.29,0,.58,0,.88,0,.29,0,.58,0,.88,0,.29,0,.58,0,.88,0,.29,0,.58.01.88,0,.23,0,.62.04.67-.06.04-.3-.04-.69-.04-.73,0-.29,0-.55,0-.83,0-.21,0-.83,0-.88,0-.01.07.03.04-.23l.13-.06c1.21.07.66-.13.79-.54.02-.07.08-.02.08-.08.29,0,.58,0,.88,0Z"/>
      <path class="cls-6" d="M31.42,17.13c.11,0,.08.04.08.04-.04.21.03.42.04.63.01.26,0,.53,0,.79,0,.24,0,.47,0,.71,0,.24,0,.47,0,.71,0,.26,0,.53,0,.79,0,.28,0,.56,0,.83,0,.28,0,.56,0,.83,0,.26,0,.53,0,.79,0,.24.03.48-.04.71l-.04.04c-.22-.01-.45.02-.67,0-.07,0-.3.02-.33-.02.02-2.28-.03-4.56,0-6.83,0-.03.08,0,.08-.06.26.07.6.05.88.04Z"/>
      <path class="cls-6" d="M.17,18.54c.16-.04.69.03.96,0,0,.16.04.12.04.13.02,1.43.02,2.87,0,4.29,0,.61-.06,1.22-.04,1.83,0,0,.04.04-.13.04-.29,0-.59-.04-.88.04,0,0-.04.01-.04-.04,0-.26-.04-.53-.04-.79,0-.26,0-.53,0-.79,0-.28,0-.56,0-.83,0-.26,0-.53,0-.79,0-.28,0-.56,0-.83,0-.26,0-.53,0-.79,0-.24,0-.47,0-.71,0-.22,0-.44,0-.67.07-.06.02-.06.13-.08Z"/>
      <path class="cls-6" d="M2.42,26.13c-.23-.02-.54.03-.75,0-.05,0-.18.02-.21-.02.03-.3-.04-.46-.04-.48-.01-.23.09-.54.04-.79.14,0,.98-.11,1.04-.02-.04.47.09,1.25-.08,1.31Z"/>
      <path class="cls-29" d="M2.04,13.08s0,.03,0,.04c0,.27-.07.56-.08.83h-.88l-.04-.04v-.79l1-.04Z"/>
      <path class="cls-17" d="M1.96,13.96s.05-.03.04.13c0,.16.02.49-.04.58,0,.01.02.07-.02.08-.28,0-.57,0-.85,0-.01-.26,0-.53,0-.79h.88Z"/>
      <path class="cls-42" d="M31.42,12.21s0,.03,0,.04l-.83.04c0-.06-.02-.22.02-.25h.83c.07.08-.02.14-.02.17Z"/>
      <g>
        <path class="cls-6" d="M30.13,24.79c-.01.28.02.56,0,.83-.01.23.05.46-.06.54l-.94.02c-.12.1,0,.9,0,1.06,0,.26,0,.5,0,.75,0,.27-.09.56-.04.83,0,0,.03.05-.13.04-.34-.02-.68-.07-1.02-.04,0,.33-.06.67-.06,1-.29.01-.59.03-.88.04-.3.01-.61,0-.92,0,0-.02-.04-.03-.04-.17-.01-.27,0-.54,0-.81l-.85-.06s-.02-.64-.02-.75c0-.11.02-.68-.02-.71-.26,0-.51,0-.77,0-.29,0-.58,0-.88,0-.29,0-.58,0-.88,0-.28,0-.56,0-.83,0-.31,0-.61,0-.92,0-.28,0-.56,0-.83,0-.31,0-.61,0-.92,0-.28,0-.56,0-.83,0-.29,0-.58,0-.88,0-.28,0-.56,0-.83,0-.28,0-.56,0-.83,0-.29,0-.58,0-.88,0s-.58,0-.88,0-.58,0-.88,0c-.28,0-.56,0-.83,0s-.56,0-.83,0-.56,0-.83,0c-.28,0-.56,0-.83,0-.29,0-.58,0-.88,0-.29,0-.58,0-.88,0-.29,0-.58,0-.88,0-.1,0-.64-.02-.67.02-.01.23.02.46,0,.69-.02.26-.03.49-.04.75,0,.06-.04.04-.04.04l-1.06-.04c-.1.05-.06.81-.06.96,0,.01,0,.03,0,.04-.3-.04-.62.04-.92.04s-.59-.09-.88-.04c0-.04-.04-.04-.04-.08,0-.28.08-.57.04-.85-.02-.05-.76-.02-.88-.02-.09,0-.09-.04-.13-.04.12-.23,0-.62,0-.79,0-.27,0-.52,0-.79,0-.27.08-.56.04-.83,0-.05,0-.11,0-.17-.05-.13.37-.08.79-.08.6,0,1.19,0,1.79,0,7.6,0,15.2,0,22.79,0l1.08-.06v-1.27s-.01-.08.02-.08c.37-.02.74.04,1.1.04Z"/>
        <g>
          <g>
            <path class="cls-3" d="M5.29,27.71c.01.15.03,1.04-.06,1.08h-1.75c-.1-.05-.06-.63-.06-.75.18-.03,1.26.04,1.31,0,.11-.07-.24-.43.56-.33Z"/>
            <path class="cls-15" d="M5.29,27.71c-.8-.09-.46.26-.56.33-.05.04-1.13-.03-1.31,0,0-.3-.04-.63.06-.71l1.79.04s.02.26.02.33Z"/>
          </g>
          <g>
            <path class="cls-12" d="M27.17,28.79c.09-.26.01-.5,0-.75,0-.22,0-.45,0-.67.11,0,.73-.11.79-.02v1.42s-.67.02-.79.02Z"/>
            <path class="cls-27" d="M27.17,28.04c.01.25.09.49,0,.75-.34.01-.68,0-1.02,0-.15-.07-.03-.63-.02-.75h1.04Z"/>
            <path class="cls-39" d="M27.17,27.38c0,.22,0,.45,0,.67h-1.04c0-.1-.02-.68.02-.71.34-.04.68.03,1.02.04Z"/>
          </g>
        </g>
      </g>
      <path class="cls-6" d="M29.34,13.08l-.02,1c-.45.01-.9,0-1.35,0l.02-1c.45,0,.9,0,1.35,0Z"/>
      <path class="cls-6" d="M2.04,12.08c0,.33.01.67,0,1l-1,.04v-1.04c.07.02.86.01,1,0Z"/>
      <path class="cls-32" d="M3,15.17l-.71.04c-.06-.65-.05-.34-.33-.54.06-.09.03-.42.04-.58l1.04.06c.05.33-.05.69-.04,1.02Z"/>
      <path class="cls-4" d="M19.71,14.08c-.21,0-.59.04-.63-.06.06-.29.06-.61.04-.9.95-.09.55.17.58.96Z"/>
      <g>
        <path class="cls-14" d="M19.79,3.46c-.03-.14.1-.65.04-.73-.03-.04-.42-.02-.5-.02-.03,0-.06,0-.08,0v-.65c-.12-.18-.79.38-.63-.6.24,0,1.85-.13,1.92.02v1.92c-.05.11-.51.05-.75.06Z"/>
        <path class="cls-39" d="M13.84,2.46c.21,0,.42.01.63,0,.07.63.05.35.5.42.06,0,.23.07.29.08-.14-.04-.07.19-.08.46-.24,0-.47,0-.71,0-.09-.12,0-.37-.06-.42-.04-.03-.7-.15-.52.42-.31,0-.64.04-.96.04v-.71s.03,0,.04,0c.26,0,.51,0,.77,0,0-.39.1-.27.1-.29Z"/>
        <path class="cls-24" d="M13.84,2.46s-.09-.09-.1.29c-.26,0-.51,0-.77,0v-1.33c.23,0,.79-.05.83.06-.05.21.05.93.04.98Z"/>
        <path class="cls-39" d="M19.25,2.71s.06,0,.08,0l-.04.75c-.25,0-.51-.04-.75-.04l.02-.71c-.24,0-.49,0-.73,0,0-.28-.04-.24-.04-.25,0-.02.04-.05.04-.38,1.21-.29.55.51.81.63.2,0,.4-.01.6,0Z"/>
        <path class="cls-8" d="M18.63,1.46c-.16.98.51.43.63.6v.65c-.2-.01-.4,0-.6,0-.26-.11.4-.92-.81-.63,0-.21,0-.42,0-.63l.04-.04c.25.05.5.05.75.04Z"/>
        <path class="cls-38" d="M12.92,2.75v.71c-.3,0-.58-.03-.88-.04,0-.24,0-.47,0-.71.29-.04.59.04.88.04Z"/>
        <path class="cls-10" d="M18.54,3.42c-.24,0-.47,0-.71,0,0-.24,0-.47,0-.71.24,0,.49,0,.73,0l-.02.71Z"/>
        <path class="cls-16" d="M19.79,3.46c-.17,0-.33,0-.5,0l.04-.75c.08,0,.47-.02.5.02.06.08-.07.59-.04.73Z"/>
        <path class="cls-9" d="M17.09,3.46c-.37,0-.59-.04-.63-.04-.2-.57.52-.44.56-.42.06.04-.03.31.06.46Z"/>
        <path class="cls-24" d="M15.25,2.96c.42.07.5-.22.46.46-.18,0-.36,0-.54,0,.02-.27-.05-.5.08-.46Z"/>
        <path class="cls-29" d="M14.46,3.42c-.19,0-.39,0-.58,0-.18-.57.48-.44.52-.42.06.04-.03.29.06.42Z"/>
        <path class="cls-24" d="M17.79,2.46s.04-.03.04.25c-.56-.02-.73.11-.67-.25.21.01.42,0,.63,0Z"/>
        <g>
          <path class="cls-11" d="M17.17.08c.22,1.04-.62.46-.75.65l-.04.73c-.81,0-1.63,0-2.44,0-.11-.05-.06-1.1-.06-1.29.09-.2.45-.12.83-.13.01,0,.03,0,.04,0-.4.57.83.44.9.42.11-.05.05-.32.06-.42.23,0,.48-.04.71-.04.22,0,.53.08.75.08Z"/>
          <path class="cls-13" d="M17.25.04c.2,0,.42.04.63.04v1.33l-.04.04c-.49,0-.97,0-1.46,0l.04-.73c.13-.19.97.39.75-.65,0,0-.03-.04.08-.04Z"/>
          <path class="cls-7" d="M15.63.04s.06,0,.08,0c-.02.1.05.37-.06.42-.06.03-1.29.15-.9-.42.29,0,.58,0,.88,0Z"/>
        </g>
        <g>
          <path class="cls-26" d="M12.96,1.42v.75h-.9s-.02.45-.02.54c0,.24,0,.47,0,.71-.14,0-.85.13-.92-.02v-1.92c.03-.1,1.63-.07,1.83-.06Z"/>
          <path class="cls-30" d="M12.96,2.17v.58s-.03,0-.04,0c-.29,0-.58-.08-.88-.04,0-.09-.02-.51.02-.54h.9Z"/>
        </g>
      </g>
      <g>
        <path class="cls-4" d="M10.75,14.08c-.56,0-1.11,0-1.67,0l.02-.88h1.63l.02.88Z"/>
        <path class="cls-1" d="M12.21,15.29l-.04.85c-1.68,0-.95.1-1.13.5-.06.13-.45.01-.5.08-.03.04.04.6-.02.65-.02.01-.46,0-.48-.02-.18-.25.53-.79-.85-.65-.08.05.06.61-.08.67-.65.29-.34-.6-.5-.67h-1.21l-.02-1.38c1.61,0,3.22-.07,4.83-.04Z"/>
      </g>
      <path class="cls-4" d="M3.79,13.17v.92c-.11,0-.68.02-.71-.02,0-.3,0-.6,0-.9h.71Z"/>
      <g>
        <path class="cls-1" d="M30.54,13.08c0,.28,0,.56,0,.83,0,.29,0,.58,0,.88,0,.25,0,.5,0,.75,0,.26.05.54.04.79,0,.24-.04.5-.04.75,0,.06-.08.03-.08.06-.03,2.28.02,4.56,0,6.83.03.04.26.02.33.02l-.04.79s-.03,0-.04,0c-.19,0-.39,0-.58,0-.37,0-.73-.06-1.1-.04-.03,0-.02.08-.02.08-.02,0-.09-.13-.4-.08.02,1.23-.88-.27-.69,1.42-7.6,0-15.2,0-22.79,0,.16-.11.05-.48.08-.79,1.4-.01,2.79.01,4.19,0l.08-.75,2.06.04c-.05.73-.03.51.77.54,0-.14.07-.63.06-.67l.75-.02.06.85h2.58c0-.65.1-.94.13-.5.86-.13.39.39.54.5.08.06,1.78-.04,2.04,0,.08-.05.05-.1.06-.17.75-.02.79.22.75-.54,1.45.07,1.5-.34,1.48.71h.79l.08-.71h1.21l.04.71h3.54l.04-.75c1.6.16.06-.66,1.52-.56.05-.48-.12-1.15.13-1.4.3-.02.18-.07.25-.08.09-.02.32.05.38-.06.08-.19.06-.73-.42-.56,0-.18,0-.36,0-.54,0-1.03-.16-2.43.33-2.15-.1-.66.3-.36.38-.46.08-.11-.05-2.47-.02-2.81h-1.17l-.08.71c-.21.03-1.44-.04-1.5,0-.06.05.02.58-.04.63-.02.02-.5,0-.52-.02-.04-.05.04-1.1-.02-1.15-.17.03-1.12-.03-1.17,0-.07.05.02.62-.04.67-.05.04-1.2-.04-1.25,0-.05.03.12.8-.46.54-.14-.06,0-1-.08-1.17l-.79-.04c-.22.1.24,1.43-.46,1.13-.15-.07-.01-1.32-.06-1.4-.02-.03-.4-.04-.44-.02-.12.05,0,.28-.13.33-.1.04-.5-.07-.56.06-.15.33.42.57-.71.54.03.65-.03,1.29-.04,1.94-.1.02-.5-.03-.54.02-.02.02-.05.58-.04.6-.75.03-.44.09-.5,1.19l-.56.02c-.07.04-.06.12-.08.13-.7.07-1.99-.05-2.79,0l-.02-.88c.74,0,1.49,0,2.23,0l.13-1.04,1.15-.06.06-3.4q4.69-.02,9.38-.04l-.02-1.21s.06,0,.08,0c.45,0,.9.01,1.35,0l.02-1s.04-.04.08-.04c.34,0,.78.03,1.13.04Z"/>
        <path class="cls-4" d="M5.17,25.38s.03,0,.04,0c-.03.31.08.68-.08.79-.6,0-1.19,0-1.79,0l.02-.79c.6,0,1.21,0,1.81,0Z"/>
        <path class="cls-28" d="M29,24.83v1.27l-1.08.06c-.19-1.69.71-.19.69-1.42.3-.04.37.08.4.08Z"/>
        <path class="cls-39" d="M19.29,24.67c.04.76,0,.52-.75.54,0-.05-.13-.89.02-.96h.71s.02.34.02.42Z"/>
        <path class="cls-39" d="M12.38,24.54s-.07.52-.06.67c-.8-.03-.82.19-.77-.54.01-.17-.04-.34.06-.42h.67s.1.24.1.29Z"/>
        <path class="cls-33" d="M19.5,18.75c0,.12.1.65.04.73-.02.03-.57.1-.63-.1,0-.03.02-.58.04-.6.04-.05.45,0,.54-.02Z"/>
        <g>
          <path class="cls-17" d="M28.34,21.42c0,.18,0,.36,0,.54,0,.2-.03.45.04.63-.07.02.05.07-.25.08-.1,0-.46.03-.5-.06.03-.17-.03-1.12,0-1.17.04-.05.6,0,.71-.02Z"/>
          <path class="cls-33" d="M28.38,22.58c-.07-.18-.04-.42-.04-.63.48-.16.5.37.42.56-.05.11-.28.04-.38.06Z"/>
        </g>
        <path class="cls-28" d="M2.29,15.21c.03.33,0,.9,0,1.29.01.71,0,1.42,0,2.13l-1.13.04s-.04.04-.04-.13c0-.23-.08-.52-.08-.75,0-.04.05.14.04-.75,0-.24-.04-.48-.04-.71,0-.04.06.09.04-.79,0-.26.01-.53,0-.79.28,0,.57,0,.85,0,.04-.02.01-.07.02-.08.29.2.27-.1.33.54Z"/>
        <path class="cls-15" d="M2.29,21.75c-.07-.06-.58-.06-.6-.04-.03.02-.04.54-.02.56.04.05.52,0,.63.02.01.21.02.46.04.67h-1.17c.02-1.43.02-2.87,0-4.29l1.13-.04c0,1.04-.03,2.09,0,3.13Z"/>
        <path class="cls-22" d="M3,16.5c.02,2.28.07,4.57.04,6.85-.66.02-.64.18-.71-.4-.02-.21-.03-.45-.04-.67-.01-.18,0-.36,0-.54-.03-1.04,0-2.09,0-3.13,0-.71.01-1.42,0-2.13h.71Z"/>
        <path class="cls-32" d="M5.21,15.29v.83c-.09,0-.46-.01-.48,0-.16.11.37.53-.71.42l-.02-1.25c.4,0,.81,0,1.21,0Z"/>
        <path class="cls-34" d="M3.04,15.25c0,.42-.05.84-.04,1.25h-.71c0-.4.03-.96,0-1.29l.71-.04s.04.04.04.08Z"/>
        <g>
          <path class="cls-28" d="M4,15.29l.02,1.25c1.08.12.55-.31.71-.42.02-.01.39,0,.48,0l-.04,9.25c-.6,0-1.21,0-1.81,0l-.02.79c-.42,0-.84-.05-.79.08l-.13-.13c.17-.06.05-.85.08-1.31-.06-.09-.9.02-1.04.02-.07,0-.29-.04-.33-.04-.02-.61.03-1.22.04-1.83h1.17c.07.58.05.42.71.4.03-2.29-.02-4.57-.04-6.85,0-.41.05-.83.04-1.25.31.08.64.04.96.04Z"/>
          <path class="cls-15" d="M3.61,22.38l.77.06-.06.9-.77-.06.06-.9Z"/>
        </g>
        <path class="cls-1" d="M13.46,18.79c-.24,0-.74.05-.79-.06v-3.4c.12,0,.72-.13.79.02.02,1.15-.02,2.29,0,3.44Z"/>
        <g>
          <path class="cls-37" d="M12.67,15.33v3.4c.05.11.55.05.79.06,0,.34,0,.68,0,1.02.06.09.83-.02.96-.02.17,0,.36.04.54.04l.02.88c.81-.05,2.09.07,2.79,0,.02,0,.01-.08.08-.13l.56-.02c.06-1.1-.25-1.15.5-1.19.06.2.6.13.63.1.06-.08-.04-.61-.04-.73.01-.65.07-1.29.04-1.94,1.13.03.56-.21.71-.54.06-.13.47-.02.56-.06.12-.05,0-.28.13-.33.04-.02.42,0,.44.02.05.07-.08,1.33.06,1.4.69.31.24-1.03.46-1.13l.79.04c.08.17-.06,1.1.08,1.17.58.26.41-.51.46-.54.05-.04,1.2.04,1.25,0,.07-.05-.02-.62.04-.67.05-.03,1,.03,1.17,0,.07.05-.01,1.1.02,1.15.02.03.5.04.52.02.06-.05-.02-.58.04-.63.06-.04,1.29.03,1.5,0l.08-.71h1.17c-.03.35.1,2.7.02,2.81-.07.1-.48-.2-.38.46-.49-.29-.34,1.12-.33,2.15-.11.02-.67-.03-.71.02-.03.05.03,1,0,1.17.04.1.4.07.5.06-.25.24-.08.92-.13,1.4-1.46-.1.08.73-1.52.56l-.04.75h-3.54l-.04-.71h-1.21l-.08.71h-.79c.02-1.04-.03-.63-1.48-.71,0-.08.02-.39-.02-.42h-.71c-.16.07-.02.91-.02.96,0,.07.02.11-.06.17-.26-.04-1.96.06-2.04,0-.15-.11.32-.63-.54-.5-.03-.44-.12-.15-.13.5h-2.58l-.06-.85-.75.02c0-.05-.06-.27-.1-.29h-.67c-.11.07-.05.25-.06.42l-2.06-.04-.08.75c-1.4.01-2.79-.01-4.19,0-.01,0-.03,0-.04,0l.04-9.25c.46-.02.93.02,1.4,0l.06-.79c.24,0,.47,0,.71,0l.02,1.38h1.21c.16.07-.15.96.5.67.14-.06,0-.61.08-.67,1.38-.15.67.39.85.65.02.03.46.03.48.02.06-.04-.01-.6.02-.65.05-.07.44.05.5-.08.18-.4-.55-.51,1.13-.5l.04-.85c.16,0,.31.04.46.04Z"/>
          <path class="cls-17" d="M27.65,17.42s.67,0,.69.02l-.06,1.9c-.11-.02-.61.03-.65-.02-.05-.08-.06-1.84.02-1.9Z"/>
        </g>
        <path class="cls-1" d="M6.67,15.33l-.06.79c-.46.02-.93-.02-1.4,0v-.83c.48,0,.98.04,1.46.04Z"/>
        <path class="cls-1" d="M14.42,19.79c-.13,0-.9.11-.96.02,0-.34,0-.68,0-1.02.13,0,.93-.02.96.02v.98Z"/>
        <path class="cls-28" d="M2.29,21.75c0,.18-.01.36,0,.54-.1-.02-.59.03-.63-.02-.02-.02,0-.54.02-.56.02-.02.53-.02.6.04Z"/>
      </g>
      <g>
        <path class="cls-35" d="M29.59,4.63c0,.44.01.89,0,1.33h-.69c-.05.21-.14.32-.15.33-1.46,0-2.92,0-4.38,0-.39,0-.78,0-1.17,0-.25,0-.5,0-.75,0-.25,0-.51.04-.75.04-.37,0-.75-.04-1.13-.04-.31,0-.61,0-.92,0-.77,0-1.53.03-2.29.04-.24,0-.46,0-.71,0-.04,0-.45-.08-.77-.04-.11.05-.05.55-.06.79,0,.01,0,.03,0,.04-.28,0-.56,0-.83,0-.26,0-.53,0-.79,0-.31,0-.69.05-.96-.08,0-.12.04-.7-.06-.75-1.71-.04-3.43.04-5.15.04-.28,0-.58-.04-.88-.04-1.38,0-2.75,0-4.13,0,0-.28,0-.57,0-.85-.08-.11-.33-.05-.58-.06-.25-.01-.5,0-.75,0l.04-.75h27.83Z"/>
        <path class="cls-35" d="M2.25,9.33l.04.04-.04,1.65c.06.09.12.06.13.06.03.31-.02.63,0,.94-.07.1-.21.05-.33.06-.14.01-.93.02-1,0-.03,0-.05,0-.04-.04l.08-.02c.06-.9.04-1.79.04-2.69h1.13Z"/>
        <path class="cls-4" d="M30.46,9.08c0,.98,0,1.96,0,2.94-.19.16-.83.02-.88.02v-2.94l.88-.02Z"/>
        <path class="cls-31" d="M1.67,6.75c0,.46.03.91.04,1.38,0,.05-.07.54-.04.56.2,0,.43.06.63.06l-.04.58h-1.13c0-.87,0-1.75,0-2.63l.54.04Z"/>
        <path class="cls-4" d="M30.46,6.21l-.88-.04c0-.07,0-.14,0-.21.01-.44,0-.89,0-1.33l.88.02c0,.52,0,1.04,0,1.56Z"/>
        <path class="cls-4" d="M1.75,4.63l-.04.75h-.58c0-.24,0-.49,0-.73l.63-.02Z"/>
        <path class="cls-31" d="M3.08,13.13h-1.04s0-.03,0-.04c.01-.33,0-.67,0-1,.13-.01.26.04.33-.06-.02-.31.03-.63,0-.94l.58-.04c0,.07.12.02.13.06.04.67-.01,1.35,0,2.02Z"/>
        <path class="cls-5" d="M4.5,8.08s.03.08.06.08c.16,0,.35-.05.48-.04.02,0,.14.03.42.04l-.04.85c-.1.1-.47.06-.79.06-.12,0-.72-.13-.79.02v4.02l-.04.04h-.71s0-.03,0-.04c-.01-.67.04-1.35,0-2.02,0-.04-.12.01-.13-.06-.03-.54.03-1.1,0-1.65l-.67-.02-.04-.04.04-.58s-.04-.04.13-.04c.62-.02.73.19.58-.63l.04-.04c.48.09.97.02,1.46.04Z"/>
        <path class="cls-22" d="M13.25,7.04s-.04-.01-.04.04c-.24-.02-.47-.04-.71-.04-.4-.01-.79,0-1.19,0l-.06,1.19-1.13.02,1.08-.06v-1.08c-.07-.15-.97-.02-1.13-.02-.41,0-.83-.08-1.25-.04h-.79v-.71c1.71,0,3.43-.09,5.15-.04.1.05.06.63.06.75Z"/>
        <path class="cls-31" d="M26.88,7.08v1.06l1.02.02.02-1.13h.83c-.03.39-.05.78-.04,1.17l-.79.02v.81c-.37,0-.75,0-1.13,0v-.81l-.85-.06-.02.88c-.26,0-.53,0-.79,0v-.81l.75-.08v-1.06c.33,0,.67,0,1,0Z"/>
        <path class="cls-31" d="M4.63,9.08v4.04h-.79v-4.02c.07-.15.67-.02.79-.02Z"/>
        <path class="cls-31" d="M7.13,7.08l-.04,1.06.9.06.06-1.13v-.04h.79v1.15l-.79.04-.06.85c-.31.04-.63-.04-.94-.04v-.81c-.05-.11-.6-.06-.83-.06-.01-.36,0-.72,0-1.08.31,0,.6,0,.92,0Z"/>
        <path class="cls-31" d="M21.67,7.08v1.06s.3.02.38.02c-.04.2.13.09.17.15.02.03-.13.43,0,.73-.26,0-.53,0-.79,0l-.02-.83c-.34-.04-.77.04-.81.04,0,0,.03-.04-.08-.04.08-.37.04-.75.04-1.13,0-.01,0-.03,0-.04l1.13.04Z"/>
        <path class="cls-22" d="M19.67,6.29v.75s-.04.04-.21.04c-.26,0-.53,0-.79,0-.43,0-.87-.04-1.29-.04v-.71c.76-.01,1.53-.04,2.29-.04Z"/>
        <path class="cls-35" d="M29.5,7.04c0,.27.12,1.92.04,2.02-.27.08-.63-.02-.79-.02.04-.28-.04-.56-.04-.83,0-.39.02-.78.04-1.17,0-.01,0-.03,0-.04l.75.04Z"/>
        <path class="cls-18" d="M15.84,7.13c0,.32-.02.72,0,1.04l-.83.06c-.17.38.48,1-.75.79-.01-.27.02-.54,0-.81l.75-.06v-1.02c.28,0,.56,0,.83,0Z"/>
        <path class="cls-18" d="M25.88,7.08v1.06l-.75.08v.81c-.11,0-.72.02-.75-.02v-.85c.11,0,.72.02.75-.02v-1.1c.25,0,.51.04.75.04Z"/>
        <g>
          <path class="cls-4" d="M26.04,14.08c-.54,0-1.09-.04-1.63-.04l.02-.88h1.58l.02.92Z"/>
          <path class="cls-4" d="M22.92,14.04c-.47,0-.94,0-1.42,0v-.98c1.52,0,1.47-.37,1.42.98Z"/>
        </g>
        <path class="cls-4" d="M7.96,14.04c-.51,0-1.03.04-1.54.04l.02-.96h1.5l.02.92Z"/>
        <path class="cls-25" d="M10.13,8.25l-.04-1.17c.16,0,1.06-.13,1.13.02v1.08l-1.08.06Z"/>
        <path class="cls-18" d="M24.34,7.08c-.01.36.04.73-.04,1.08-.41.01-1.07-.05-1.13-.04.01-.35-.02-.7,0-1.04,0,0,.08-.08.08-.08,0,.16.65.05,1.08.08Z"/>
        <path class="cls-18" d="M20.54,7.08c0,.37.03.76-.04,1.13-.33,0-.67,0-1,0-.15-.16-.1-.82-.04-1.13.17,0,.19-.04.21-.04.28,0,.59.09.88.04Z"/>
        <path class="cls-18" d="M6.21,7.08c0,.36-.01.72,0,1.08-.25,0-.5,0-.75,0-.28-.01-.4-.04-.42-.04l.04-1.08c.38,0,.75.04,1.13.04Z"/>
        <path class="cls-31" d="M23.17,7.08c-.02.35.01.7,0,1.04-.11,0-.26.06-.38.06l-.02.85c-.19,0-.38,0-.56,0-.13-.3.02-.7,0-.73-.04-.06-.21.05-.17-.15.1,0,.54.03.58-.06v-1.02c.18,0,.36,0,.54,0Z"/>
        <path class="cls-18" d="M14.21,7.13c.01.35-.02.7,0,1.04-.32.05-.64.04-.96.04,0-.36-.04-.75-.04-1.13,0-.05.04-.04.04-.04.27.13.64.08.96.08Z"/>
        <g>
          <path class="cls-35" d="M30.46,6.21c0,.96,0,1.92,0,2.88l-.88.02v2.94c-.07,0-.11-.02-.17.06v.94s-.04.04-.08.04c-.45,0-.9,0-1.35,0l-.02,1s-.06,0-.08,0c-.61,0-1.22,0-1.83,0l-.02-.92h-1.58l-.02.88c-.5,0-1,0-1.5,0,.05-1.35.1-.98-1.42-.98v.98c-.59,0-1.19.06-1.79.04-.04-.79.36-1.04-.58-.96-.02-.35-.07-.71-.04-1.06l-1.1-.06-.08-.92h-4.25c-.07.05-.02.82-.02.96-.17,0-.95-.04-1,.06l-.02,1.98c-.62,0-1.24,0-1.85,0l-.02-.88h-1.63l-.02.88c-.37,0-.76-.04-1.13-.04l-.02-.92h-1.5l-.02.96c-.6,0-1.19,0-1.79,0v-5c.32,0,.7.04.79-.06l.04-.85c.25,0,.5,0,.75,0,0,.28,0,.57,0,.85.07.15.69.02.83.02.31,0,.63.08.94.04l.06-.85.79-.04v-1.15c.42-.04.84.03,1.25.04l.04,1.17,1.13-.02.06-1.19c.4,0,.79-.01,1.19,0,0,.39-.01.78,0,1.17,0,.27,0,.54,0,.81l.69.06c0-.29.06-.59.06-.88.32,0,.64.01.96-.04,0,.06.04.04.04.04.02.27-.01.54,0,.81,1.23.21.58-.41.75-.79l.83-.06s.04.04.04.08c0,.12-.03.76.02.79h.79c.09-.06-.02-.75-.02-.88,0-.35,0-.69,0-1.04.21-.03.5-.08.71-.08.42,0,.86.04,1.29.04-.11.37-.01.75,0,1.13.01.32-.09.69.02.83l.73-.02v-.77s.04-.04.08-.04c.33,0,.67,0,1,0,.11,0,.08.04.08.04l.02.79c.27,0,.54,0,.81,0,.26,0,.53,0,.79,0,.19,0,.38,0,.56,0l.02-.85c.12,0,.26-.05.38-.06.06,0,.71.05,1.13.04.03,0,.06,0,.08,0v.85s.64.02.75.02c.26,0,.53,0,.79,0,.29,0,.58,0,.88,0,.37,0,.75,0,1.13,0,.28,0,.56,0,.83,0,.16,0,.53.1.79.02.07-.1-.05-1.75-.04-2.02,0-.28.08-.6.08-.88l.88.04Z"/>
          <path class="cls-4" d="M23.15,12.08h1.08l.06.9-1.15.06v-.96Z"/>
          <path class="cls-4" d="M8.06,12.08l.94.02-.02.98c-.04.05-.91.1-.98-.06l.06-.94Z"/>
        </g>
        <path class="cls-31" d="M16.67,7.08v.04c0,.35,0,.69,0,1.04-.31.03-.68-.08-.79.08,0-.04-.04-.04-.04-.08-.02-.32,0-.72,0-1.04,0-.01,0-.03,0-.04h.83Z"/>
        <path class="cls-31" d="M19.46,7.08c-.05.3-.1.97.04,1.13-.04,0-.04.04-.08.04-.24,0-.5-.09-.75-.04-.01-.37-.11-.75,0-1.13.26,0,.53,0,.79,0Z"/>
        <path class="cls-31" d="M25.13,7.04v1.1s-.64.02-.75.02c-.03,0-.06,0-.08,0,.08-.36.03-.72.04-1.08,0,0,.04.01.04-.04.25,0,.5,0,.75,0Z"/>
        <path class="cls-5" d="M29.59,5.96c0,.07,0,.14,0,.21,0,.28-.08.6-.08.88l-.75-.04c.02-.22-.03-.57,0-.71,0-.02.09-.13.15-.33h.69Z"/>
        <path class="cls-31" d="M15,7.13v1.02l-.75.06s-.04.01-.04-.04c-.02-.35.01-.7,0-1.04.26,0,.53,0,.79,0Z"/>
        <path class="cls-31" d="M13.21,7.08c0,.37.05.76.04,1.13-.25,0-.5,0-.75,0-.01-.39,0-.78,0-1.17.24,0,.47.03.71.04Z"/>
        <path class="cls-18" d="M4.63,13.13v.96c-.28,0-.56,0-.83,0v-.92l.04-.04h.79Z"/>
        <path class="cls-18" d="M26.79,9.04c-.29,0-.58,0-.88,0l.02-.88.85.06v.81Z"/>
        <path class="cls-18" d="M7.04,9.04c-.15,0-.77.13-.83-.02,0-.28,0-.57,0-.85.23,0,.79-.05.83.06v.81Z"/>
        <path class="cls-18" d="M16.67,8.17c0,.13.11.81.02.88h-.79s-.01-.67-.02-.79c.11-.16.48-.05.79-.08Z"/>
        <path class="cls-18" d="M28.71,8.21c0,.27.08.56.04.83-.28,0-.56,0-.83,0v-.81l.79-.02Z"/>
        <path class="cls-18" d="M21.42,9.04c-.27,0-.54,0-.81,0l-.02-.79s.47-.08.81-.04l.02.83Z"/>
        <path class="cls-18" d="M19.42,8.25v.77l-.73.02c-.11-.14,0-.52-.02-.83.25-.04.51.04.75.04Z"/>
        <path class="cls-18" d="M13.25,8.21c0,.28-.07.59-.06.88l-.69-.06c0-.27,0-.54,0-.81.25,0,.5,0,.75,0Z"/>
        <path class="cls-19" d="M17.38,6.33v.71c-.21,0-.5.05-.71.08v-.79c.24,0,.47,0,.71,0Z"/>
        <path class="cls-22" d="M28.75,6.29c-.03.14.02.48,0,.71,0,.01,0,.03,0,.04h-.83c-.34-.04-.7.04-1.04.04-.33,0-.67,0-1,0-.24,0-.5-.04-.75-.04-.25,0-.5,0-.75,0,.01-.25,0-.5,0-.75,1.46,0,2.92,0,4.38,0Z"/>
        <path class="cls-22" d="M7.17,6.29l.04.79s-.06,0-.08,0c-.31,0-.61,0-.92,0-.37,0-.75-.04-1.13-.04-.19,0-.39,0-.58,0-.48,0-.98-.03-1.46.04,0-.26,0-.53,0-.79,1.38,0,2.75,0,4.13,0Z"/>
        <path class="cls-22" d="M21.71,6.33v.71l-.04.04-1.13-.04c0-.24-.03-.53.04-.75.37,0,.76.04,1.13.04Z"/>
        <path class="cls-19" d="M24.38,6.29c0,.25.01.5,0,.75,0,.06-.04.04-.04.04-.43-.03-1.08.08-1.08-.08,0-.14-.01-.55-.04-.71.39,0,.78,0,1.17,0Z"/>
        <path class="cls-3" d="M20.59,6.29c-.07.22-.04.51-.04.75,0,.01,0,.03,0,.04-.29.04-.59-.04-.88-.04v-.75c.31,0,.61,0,.92,0Z"/>
        <path class="cls-3" d="M8.04,6.33v.75c-.28,0-.56,0-.83,0l-.04-.79c.29,0,.59.04.88.04Z"/>
        <path class="cls-22" d="M16.67,6.33v.75h-.83c0-.24-.05-.74.06-.79.32-.04.73.04.77.04Z"/>
        <path class="cls-22" d="M23.21,6.29c.03.16.05.56.04.71,0,0-.08.08-.08.08-.18,0-.36,0-.54,0-.17,0-.19-.04-.21-.04l.04-.75c.25,0,.5,0,.75,0Z"/>
        <path class="cls-19" d="M22.46,6.29l-.04.75s-.27.23-.71,0v-.71c.24,0,.5-.04.75-.04Z"/>
        <path class="cls-22" d="M2.96,11.04l-.58.04s-.07.02-.13-.06l.04-1.65.67.02c.03.55-.03,1.1,0,1.65Z"/>
        <g>
          <path class="cls-23" d="M1.67,5.38c0,.46,0,.92,0,1.38l-.54-.04c0-.44-.02-.89,0-1.33h.54Z"/>
          <path class="cls-41" d="M2.46,5.38c.07.33-.1,2.65.02,2.71h.52c.14.81.04.6-.58.63-.02-.1.03-.55-.02-.58-.03-.02-.55.02-.69,0-.02-.46-.04-.91-.04-1.38,0-.46,0-.92,0-1.38h.04c.25,0,.5-.01.75,0Z"/>
          <path class="cls-36" d="M3.04,6.29c0,.26,0,.53,0,.79,0,.32,0,.64,0,.96l-.04.04h-.52c-.12-.06.05-2.38-.02-2.71.25.01.5-.05.58.06,0,.28,0,.57,0,.85Z"/>
          <path class="cls-25" d="M2.42,8.71c-.17,0-.12.04-.13.04-.2,0-.42-.06-.63-.06-.02-.02.04-.52.04-.56.14.02.66-.02.69,0,.05.04,0,.48.02.58Z"/>
        </g>
        <path class="cls-31" d="M4.5,7.04v1.04c-.48-.02-.98.05-1.46-.04,0-.32,0-.64,0-.96.48-.08.98-.04,1.46-.04Z"/>
        <path class="cls-21" d="M5.08,7.04l-.04,1.08c-.13,0-.32.05-.48.04-.03,0-.06-.08-.06-.08v-1.04c.19,0,.39,0,.58,0Z"/>
        <path class="cls-18" d="M27.92,7.04l-.02,1.13-1.02-.02v-1.06c.34,0,.7-.09,1.04-.04Z"/>
        <path class="cls-18" d="M7.21,7.08c.28,0,.56,0,.83,0l-.06,1.13-.9-.06.04-1.06s.06,0,.08,0Z"/>
        <path class="cls-18" d="M22.42,7.04s.04.05.21.04v1.02c-.04.1-.48.07-.58.06-.07,0-.34.02-.38-.02v-1.06l.04-.04c.44.23.67,0,.71,0Z"/>
      </g>
      <g>
        <g>
          <path class="cls-11" d="M17.96,12.88l-.69-.04-.06.54c-1.19,0-2.39.06-3.58.13-.02-.48,0-.98,0-1.46,1.42-.03,2.85.02,4.27,0,.11.05.06.6.06.83Z"/>
          <path class="cls-11" d="M17.96,13.63c0,.08.02.39-.02.42h-4.29s-.02-.45-.02-.54c1.19-.06,2.39-.13,3.58-.13.15,0,.51-.02.56,0,.19.06.02.24.19.25Z"/>
          <path class="cls-11" d="M17.96,12.88c0,.24.01.51,0,.75-.17-.01,0-.19-.19-.25-.05-.02-.42,0-.56,0l.06-.54.69.04Z"/>
        </g>
        <g>
          <path class="cls-6" d="M19.13,13.13c.02.29.02.61-.04.9.04.1.42.06.63.06.6.02,1.2-.05,1.79-.04.47,0,.94,0,1.42,0,.5,0,1,0,1.5,0,.54,0,1.08.04,1.63.04.61,0,1.22,0,1.83,0l.02,1.21q-4.69.02-9.38.04l-.06,3.4-1.15.06-.13,1.04c-.74,0-1.49,0-2.23,0-.18,0-.37-.04-.54-.04v-.98s-.82-.02-.96-.02c-.02-1.14.02-2.29,0-3.44-.07-.15-.67-.02-.79-.02-.15,0-.3-.04-.46-.04-1.61-.03-3.22.04-4.83.04-.24,0-.47,0-.71,0-.48,0-.97-.04-1.46-.04-.4,0-.81,0-1.21,0-.32,0-.65.03-.96-.04,0-.04-.04-.04-.04-.08,0-.33.09-.69.04-1.02l-1.04-.06c0-.16-.04-.12-.04-.13.01-.27.07-.56.08-.83h1.04s0,.03,0,.04c0,.3,0,.6,0,.9.03.04.6.02.71.02.28,0,.56,0,.83,0,.6,0,1.19,0,1.79,0,.51,0,1.03-.04,1.54-.04.37,0,.75.04,1.13.04.56,0,1.11,0,1.67,0,.62,0,1.24,0,1.85,0l.02-1.98c.05-.11.83-.06,1-.06,0,.48-.02.98,0,1.46,0,.09-.02.51.02.54h4.29s.02-.34.02-.42c.01-.24,0-.51,0-.75,0-.23.05-.79-.06-.83-1.42.02-2.85-.03-4.27,0,0-.14-.05-.91.02-.96h4.25l.08.92,1.1.06c-.03.36.02.71.04,1.06Z"/>
          <g>
            <path class="cls-13" d="M17.25,15.79c.01.28.11,2.9-.02,2.96q-1.33.02-2.67.04c-.11-.05-.05-.56-.06-.79.43-.11,1.62,0,1.69-.04.06-.04,0-.32.02-.35.04-.06.29.02.33-.04.03-.04-.04-.81.04-.88.15-.13.31.32.25-.9.14,0,.28,0,.42,0Z"/>
            <path class="cls-11" d="M16.84,15.79c.06,1.22-.1.77-.25.9-.08.07-.01.84-.04.88-.04.06-.29-.02-.33.04-.03.04.04.31-.02.35-.07.05-1.26-.07-1.69.04-.01-.44-.01-.89,0-1.33.23.04.48-.04.71-.04.17,0,1.02.1,1.1.04l.02-.83s.11-.04.5-.04Z"/>
            <path class="cls-2" d="M17.25,15.79c-.14,0-.28,0-.42,0-.39,0-.47.04-.5.04-.37,0-.75-.09-1.13-.04,0-.04,0-.08,0-.13,0-.16-.02-.18.08-.33.64-.02,1.29.02,1.94,0,.04.03.02.38.02.46Z"/>
            <path class="cls-40" d="M15.21,15.67s0,.08,0,.13c0,.28,0,.56,0,.83-.22,0-.48.09-.71.04,0-.35-.02-.69.04-1.04.01.25.56.23.67.04Z"/>
            <path class="cls-20" d="M15.29,15.33c-.1.15-.07.18-.08.33-.1.19-.66.21-.67-.04.01-.07-.03-.26.02-.29.24,0,.49,0,.73,0Z"/>
            <path class="cls-6" d="M16.34,15.83l-.02.83c-.09.06-.94-.04-1.1-.04,0-.28,0-.56,0-.83.37-.04.76.04,1.13.04Z"/>
          </g>
        </g>
      </g>
    </g>
  </g>
</svg>