<?xml version="1.0" encoding="UTF-8"?>
<svg id="Layer_2" data-name="Layer 2" xmlns="http://www.w3.org/2000/svg" xmlns:xlink="http://www.w3.org/1999/xlink" viewBox="0 0 36.38 37.69">
  <defs>
    <style>
      .cls-1 {
        fill: #101729;
      }

      .cls-1, .cls-2, .cls-3, .cls-4, .cls-5, .cls-6, .cls-7, .cls-8 {
        stroke-width: 0px;
      }

      .cls-2 {
        fill: url(#linear-gradient);
      }

      .cls-9 {
        letter-spacing: -.01em;
      }

      .cls-3 {
        fill: #c5a2bb;
      }

      .cls-4 {
        fill: #07314e;
      }

      .cls-5 {
        fill: #d4becb;
      }

      .cls-6 {
        fill: #242854;
      }

      .cls-7 {
        fill: #025376;
      }

      .cls-10 {
        letter-spacing: 0em;
      }

      .cls-11 {
        fill: #231f20;
        font-family: MyriadPro-Regular, 'Myriad Pro';
        font-size: 1.11px;
      }

      .cls-8 {
        fill: #ae93b4;
      }
    </style>
    <linearGradient id="linear-gradient" x1="18.98" y1="32.04" x2="19.09" y2="37.36" gradientUnits="userSpaceOnUse">
      <stop offset="0" stop-color="#0b2232"/>
      <stop offset="1" stop-color="#131935"/>
    </linearGradient>
  </defs>
  <g id="Layer_1-2" data-name="Layer 1">
    <g>
      <g>
        <path class="cls-1" d="M30.12,11.44c.57,0,1.14.09,1.71.05.03,1.74-.05,3.49,0,5.23.03.19-.5.03-.93.12v.9c-.33.02-.66.08-.99.05l-.02,1.64-.88.09-.02.95c-.41-.02-.81.07-.76-.09,0-.65,0-1.3,0-1.94,0-.53,0-1.06,0-1.6l1.67-.09.05-5.18c-.49-.05-.99-.02-1.48-.02-1.37-.02-2.75,0-4.12,0-.19,0-.37,0-.56,0-.49,0-.99,0-1.48,0-.59,0-1.19,0-1.78,0l-.02,1.23-.88.05c.05,3.25.04,6.49.05,9.74,0,3.05,0,6.11,0,9.16-.87,0-1.76.1-2.64.05,0-.03,0-.06,0-.09,0-.02,0-.03,0-.05l2.55-.02q-.02-9.39-.05-18.79c.8-.54,1.01.55.93-1.3l.35-.12c3.11.09,6.22.02,9.33.05Z"/>
        <path class="cls-1" d="M32.62,16.81s.03,0,.09.12v1.67l1.02.09v3.33l1.11.05v2.01c.02.21-.67.1-1.06.09-.1,0-.1-.05-.14-.05-.12-2.19.56-1.97-.97-2.11v-3.33l-.79-.05c0-.33.01-.66,0-.99-.01-.28,0-.56,0-.83h.74Z"/>
        <path class="cls-3" d="M34.98,24.21c-.23.04.03.98-.16,1.06h-1.11c-.01-.37-.1-.96.07-1.11.39,0,1.08.12,1.06-.09l.14.14Z"/>
        <g>
          <path class="cls-1" d="M27.48,20.47h.69c-.01,1.23,0,2.47,0,3.7-.2,0-1.43-.04-1.48.07l.07,1.09h1.37c.03,1.19-.04.88,1.5.93.09-.04.17-.88-.12-.93h2.94l.07-1.09c.03-.06.97-.11,1.11-.12.04,0,.04.05.14.05-.17.15-.08.74-.07,1.11h1.11c.19-.09-.07-1.02.16-1.06l1.39.02c-.04.25.05,1.82,0,1.9-.06.08-.67-.06-.74.09,0,.52,0,1.03,0,1.55l-1.92.05-.05,1.39h-5.46l-.09-1.39-1.97-.07v-1.53l-.86-.02c-.18-.1.03-1.71-.02-1.99l.65-.12c-.04-.49.03-.97.05-1.46.12-.02.7.04.74-.02.06-.09-.05-1.83,0-2.11.25,0,.53-.09.79-.05Z"/>
          <path class="cls-1" d="M28.27,24.21c.39.02.79-.01,1.18,0l.07,1.11c.29.04.21.88.12.93-1.54-.05-1.47.26-1.5-.93,0-.17.04-1.17.14-1.11Z"/>
        </g>
      </g>
      <g>
        <path class="cls-5" d="M32.94,7.46l-.05,3.54c-.05.07-.9-.01-.95.02-.06.04,0,.29-.02.37-.02.08-.09.02-.09.09-.57.05-1.15-.04-1.71-.05l.07-1.57,1.74.02v-1.48l-.09-.02c-.31,0-.62,0-.93,0-.28,0-.71.05-.74-.02v-1.55c.07,0,.03-.09.07-.09.56,0,1.11,0,1.67,0l.14.74c.27-.02.65.02.9,0Z"/>
        <path class="cls-5" d="M20.54,2.74c0,1-.08,1.95,0,2.96l-.88-.07V.1c.12-.16.58-.09.88-.07,0,.9,0,1.8,0,2.71Z"/>
        <path class="cls-3" d="M28.96,35.88c-1.46-.02-2.92.02-4.37,0-.05-.03-.02-.75-.02-.88,1.45-.17,2.92-.06,4.37-.09l.02.97Z"/>
        <path class="cls-5" d="M14.75,31.76v1.55l-1.78.02-.02,1.6s-.67.02-.79.02c0,0-.09-.09-.09-.09.05-.27-.05-.57-.05-.83,0-.39.08-.81.07-1.2,1.23.11.66-.27.88-.37.09-.04.87.04.93,0,.08-.06-.06-.67.09-.74.25-.05.52.05.76.05Z"/>
        <path class="cls-5" d="M24.61,34.03c0,.3-.06.62-.05.93-1.32.08-.75,0-.9-1.62l-1.64-.07v-1.46s.02-.17.86-.05c-.12,1.26.56.55.83.74.14.1-.36.42.83.32.05.03.07,1.06.07,1.2Z"/>
        <path class="cls-3" d="M12.16,34.95c-.19-.03-.03.5-.12.93-.81,0-1.62-.01-2.43,0l.02-.97c.81.06,1.63-.06,2.43-.05,0,0,.09.09.09.09Z"/>
        <g>
          <path class="cls-6" d="M19.57.01c-.03.43.14,3.03,0,3.17-.09.08-.77.07-.95.07.04,1.26-.12.61-1.64.83.02-1.34-.01-2.68,0-4.03.86-.03,1.73-.08,2.59-.05Z"/>
          <path class="cls-4" d="M31.83,8.39l.02,1.39c-.65.04-1.32-.09-1.94.09l-.02-1.37c.44-.09,1.03.08,1.02-.12.31,0,.62,0,.93,0Z"/>
          <g>
            <path class="cls-1" d="M19.66.1v5.53l.88.07c.03.36.06.71.07,1.06.75,0,1.5,0,2.24,0,2.43.02,4.88.06,7.31.05v1.55c.03.07.46.02.74.02.02.2-.58.03-1.02.12l.02,1.37c.62-.19,1.3-.05,1.94-.09l-.02-1.39.09.02v1.48l-1.74-.02-.07,1.57c-3.11-.02-6.22.05-9.33-.05l-.35.12c.09,1.85-.13.76-.93,1.3q.02,9.39.05,18.79l-2.55.02c.02-6.26-.02-12.51,0-18.77l-.88-.14c-.02-.36.02-.73,0-1.09,0-.01.11-.06-.02-.23q-4.74.02-9.49.05l-.02-1.46s-.08-.01-.09-.02c0,0,.02-.08-.02-.09-.22,0-.45,0-.67,0,0-.04.04-.05.05-.09,1.08.14.76.09.83-1.27-.1-.13-.15-.11-.19-.12v-1.62c2.41,0,4.81.02,7.22,0,.31,0,.62,0,.93,0,.49,0,.97,0,1.46,0l.02-1.06c.12,0,.8.02.83-.02,0-.53,0-1.06,0-1.6,1.52-.23,1.68.42,1.64-.83.18,0,.86.02.95-.07.14-.14-.03-2.74,0-3.17l.09.09Z"/>
            <text class="cls-11" transform="translate(6.81 9.27)"><tspan class="cls-9" x="0" y="0">L</tspan><tspan x=".51" y="0">o</tspan><tspan class="cls-10" x="1.12" y="0">r</tspan><tspan x="1.47" y="0">em ipsum </tspan></text>
            <path class="cls-5" d="M21.95,8.48h7.82l.07,1.32-7.94.02.05-1.34Z"/>
            <path class="cls-8" d="M17.53,10.7c-.04-.29.04-.59.05-.88h1.5l.07-1.5.86-.02.02,2.34c-.05.11-2.22.08-2.5.07Z"/>
            <path class="cls-5" d="M17.58,9.82c-.01.28-.09.59-.05.88-.26,0-.83.05-.88-.07v-2.31h.93c-.01.5.02,1,0,1.5Z"/>
          </g>
        </g>
        <g>
          <path class="cls-5" d="M4.94,6.72c.51-.06,1.06.04,1.57.05v1.62c-.09-.02-.45,0-.65,0-.16,0-1.21-.03-1.25.02v1.43c.04.05,1.04.02,1.2.02.22,0,.45,0,.67,0,.04.02.01.08.02.09l-.02,1.53c-.43-.04-1.39.05-1.64,0-.58-.13.35-.55-1.16-.49v-3.63c1.46,0,.81-.22.97-.58.05-.11.19-.06.28-.07Z"/>
          <g>
            <path class="cls-7" d="M5.87,8.39c-.03.43.04.98,0,1.39,0,.05-.05.05-.05.09-.17,0-1.17.03-1.2-.02v-1.43c.04-.05,1.09-.03,1.25-.02Z"/>
            <path class="cls-4" d="M6.52,8.39s.08-.01.19.12c-.07,1.37.24,1.41-.83,1.27.04-.41-.03-.96,0-1.39.19,0,.56-.02.65,0Z"/>
          </g>
        </g>
        <g>
          <path class="cls-5" d="M19.75,31.76c-.21.22-.02,1.04-.12,1.57h-2.59c-.17-.08-.02-1.36-.02-1.57.88.05,1.76-.05,2.64-.05.12,0,.09.05.09.05Z"/>
          <g>
            <path class="cls-6" d="M8.92,35.88v1.69l-1.06.07-.05-1.69c.05-.12.92-.07,1.11-.07Z"/>
            <path class="cls-6" d="M30.21,35.88l-.02,1.71-.95-.02c.05-.54-.1-1.26.09-1.69.29,0,.59,0,.88,0Z"/>
            <g>
              <path class="cls-2" d="M17.02,31.76c0,.22-.15,1.5.02,1.57h2.59c.1-.53-.1-1.35.12-1.57.23,0,.46,0,.69,0,.53,0,1.05.04,1.57.05v1.46l1.64.07c.15,1.62-.42,1.7.9,1.62,0,.02,0,.03,0,.05,0,.13-.02.85.02.88,1.46.02,2.92-.02,4.37,0,.12,0,.25,0,.37,0-.2.43-.05,1.15-.09,1.69l.95.02.02-1.71.09.07-.02,1.69c-2.29-.04-4.58.03-6.87.05-2.37.02-4.75,0-7.13,0-2.81-.01-5.61-.09-8.42-.05l1.06-.07v-1.69c.23,0,.46,0,.69,0,.81-.01,1.62,0,2.43,0,.09-.42-.08-.95.12-.93.12,0,.76.02.79-.02l.02-1.6,1.78-.02v-1.55c.48,0,.96,0,1.43,0,.31,0,.66.06.83-.09,0,.03,0,.06,0,.09Z"/>
              <path class="cls-5" d="M20.42,34.21l1.41.07-.07,1.6-1.41-.07.07-1.6Z"/>
              <path class="cls-5" d="M14.91,34.21l1.37.07-.02,1.6-1.41-.02.07-1.64Z"/>
            </g>
          </g>
        </g>
        <path class="cls-5" d="M7.44,12.41v.23c.03,1.08-.04,2.16,0,3.24,0,.13-.02.8.02.83.38-.03.86.09.99-.09-.03.18,0,.09-.14.19l-1.67.02v2.59c1.47-.1.66.44.88.93l.88.14v3.68c-.19,0-1.06-.05-1.11.07l-.02,1.09h-3.7c-.12-1.08.28-1.19-.62-1.18l.05-3.84,1.76-.05.05-2.82c1.44.12.67-.55.9-.72.07-.05.83.08.9-.07.03-1.54-.04-3.11.05-4.65.04.65.23.36.79.42Z"/>
        <g>
          <path class="cls-5" d="M1.52,20.28v3.26s-.62.04-.69.02c0,0-.12-.09-.09-.14.08-.72-.06-1.5-.05-2.22,0-.3.08-.6.05-.9.04-.05.66-.01.79-.02Z"/>
          <path class="cls-1" d="M8.32,16.81l.09.09c0,.32,0,.65,0,.97l-.83.02c.02.15-.03.75,0,.79.04.06.66,0,.79.02,0,.56.09,1.13.05,1.69.03.05.71.02.83.02.82.03.57.09.6.09v3.63c-.04.05-1.16.02-1.34.02-.03,0-.06,0-.09,0v-3.68l-.88-.14c-.21-.48.59-1.02-.88-.93v-2.59l1.67-.02Z"/>
          <path class="cls-5" d="M10.68,23.33c0,.31-.13.62.05.88-.11,0-.85-.01-.88.02l-.07,1.09h-1.3c-.1-.05-.13-1,.02-1.16.18,0,1.3.03,1.34-.02v-3.63s.25-.2.83-.07c-.01.96.02,1.93,0,2.89Z"/>
          <g>
            <path class="cls-1" d="M16.14,11.63c-.17-.16-1.2-.09-1.8-.09-.23,0-.46,0-.69,0-2.06,0-4.14-.05-6.2,0-.25,0-.51,0-.76,0-.05.03-.02.38-.02.46-.09,1.54-.01,3.11-.05,4.65-.07.15-.83.02-.9.07-.23.16.54.83-.9.72l-.05,2.82-1.76.05-.05,3.84c.9-.01.5.1.62,1.18h3.7l.02-1.09c.05-.12.92-.07,1.11-.07.03,0,.06,0,.09,0-.15.15-.13,1.11-.02,1.16h1.3l.07-1.09s.77-.03.88-.02c.08,0,.34-.02.37.02v2.04l-.65.05-.05,1.46c-.63.03-1.25.07-1.87.05l-.09,1.39H3.02l-.02-1.37-1.97-.07-.02-1.6c-1.31.07-1.01-.08-.9-2.01,1.01.09.42-.25.72-.6.08.02.67,0,.69-.02v-3.26c.25-.02.64.05.69-.07.01-.45-.02-.9,0-1.34,0-.04.09-.02.09-.02.11-.02.65.04.69-.02.06-.09-.05-1.95,0-2.24.12,0,.69-.03.72-.05.07-.05-.02-.51.05-.56.07-.05.93.09.99-.07.06-.85-.08-4.07,0-4.4,0-.03.06-.02.09-.02.25.05,1.21-.04,1.64,0l.02-1.53s.08-.02.09.02l.02,1.46q4.74-.02,9.49-.05c.13.17.02.22.02.23Z"/>
            <path class="cls-5" d="M1.63,24.17h1.25l.07,1.09-1.32.07v-1.16Z"/>
          </g>
        </g>
        <path class="cls-3" d="M32.62,16.81h-.74c0-.12-.05-.09-.05-.09-.05-1.74.03-3.49,0-5.23,0-.07.07-.02.09-.09l.65.12c.07,1.76-.03,3.54.05,5.3Z"/>
        <path class="cls-5" d="M9.25,20.42c-.13,0-.8.03-.83-.02.05-.56-.04-1.13-.05-1.69,0-.27.05-.56.05-.83,0-.32,0-.65,0-.97.04-.14.78-.13.83-.02v3.54Z"/>
        <path class="cls-8" d="M8.41,17.87c0,.28-.05.57-.05.83-.12-.02-.74.04-.79-.02-.03-.04.02-.63,0-.79l.83-.02Z"/>
      </g>
      <path class="cls-5" d="M3,16.58c-.05.29.06,2.15,0,2.24-.04.06-.58,0-.69.02.03-.73-.11-1.49-.05-2.22.23,0,.51-.03.74-.05Z"/>
    </g>
  </g>
</svg>