<?xml version="1.0" encoding="UTF-8"?>
<svg id="Layer_2" data-name="Layer 2" xmlns="http://www.w3.org/2000/svg" xmlns:xlink="http://www.w3.org/1999/xlink" viewBox="0 0 32.97 34.03">
  <defs>
    <style>
      .cls-1 {
        fill: #4a7f96;
      }

      .cls-1, .cls-2, .cls-3, .cls-4, .cls-5, .cls-6, .cls-7, .cls-8, .cls-9, .cls-10, .cls-11, .cls-12, .cls-13, .cls-14, .cls-15, .cls-16, .cls-17, .cls-18, .cls-19, .cls-20, .cls-21, .cls-22, .cls-23, .cls-24, .cls-25, .cls-26, .cls-27, .cls-28, .cls-29, .cls-30, .cls-31, .cls-32, .cls-33, .cls-34, .cls-35, .cls-36, .cls-37, .cls-38, .cls-39, .cls-40, .cls-41, .cls-42, .cls-43, .cls-44, .cls-45, .cls-46, .cls-47, .cls-48, .cls-49, .cls-50, .cls-51, .cls-52, .cls-53, .cls-54, .cls-55, .cls-56, .cls-57, .cls-58, .cls-59, .cls-60, .cls-61, .cls-62, .cls-63, .cls-64, .cls-65, .cls-66, .cls-67, .cls-68, .cls-69, .cls-70, .cls-71, .cls-72, .cls-73, .cls-74, .cls-75, .cls-76, .cls-77, .cls-78, .cls-79, .cls-80, .cls-81, .cls-82, .cls-83, .cls-84, .cls-85, .cls-86, .cls-87, .cls-88, .cls-89, .cls-90, .cls-91, .cls-92, .cls-93, .cls-94, .cls-95, .cls-96, .cls-97, .cls-98, .cls-99, .cls-100, .cls-101, .cls-102, .cls-103, .cls-104, .cls-105, .cls-106, .cls-107, .cls-108, .cls-109, .cls-110, .cls-111, .cls-112, .cls-113, .cls-114, .cls-115, .cls-116, .cls-117 {
        stroke-width: 0px;
      }

      .cls-2 {
        fill: #c7c5ca;
      }

      .cls-3 {
        fill: #151f2e;
      }

      .cls-4 {
        fill: #848a9e;
      }

      .cls-5 {
        fill: #83184a;
      }

      .cls-6 {
        fill: #112c4e;
      }

      .cls-7 {
        fill: #565c65;
      }

      .cls-8 {
        fill: #284687;
      }

      .cls-9 {
        fill: #9b6783;
      }

      .cls-10 {
        fill: url(#linear-gradient);
      }

      .cls-11 {
        fill: #2d6ca3;
      }

      .cls-12 {
        fill: #a47891;
      }

      .cls-13 {
        fill: #836288;
      }

      .cls-14 {
        fill: #281425;
      }

      .cls-15 {
        fill: #5b90bb;
      }

      .cls-16 {
        fill: #d2cadc;
      }

      .cls-17 {
        fill: #d8dce7;
      }

      .cls-18 {
        fill: #0379a4;
      }

      .cls-19 {
        fill: #a13b6f;
      }

      .cls-20 {
        fill: #1c4f38;
      }

      .cls-21 {
        fill: #4d2465;
      }

      .cls-22 {
        fill: #c4dde4;
      }

      .cls-23 {
        fill: #151521;
      }

      .cls-24 {
        fill: #0d4a5a;
      }

      .cls-25 {
        fill: #5c6970;
      }

      .cls-26 {
        fill: #68518f;
      }

      .cls-27 {
        fill: #0a1a32;
      }

      .cls-28 {
        fill: #679ebe;
      }

      .cls-29 {
        fill: #027690;
      }

      .cls-30 {
        fill: #a9d5e4;
      }

      .cls-31 {
        fill: #6b2a7f;
      }

      .cls-32 {
        fill: #574f78;
      }

      .cls-33 {
        fill: #3380b2;
      }

      .cls-34 {
        fill: #904a9c;
      }

      .cls-35 {
        fill: #061b21;
      }

      .cls-36 {
        fill: #8e859a;
      }

      .cls-37 {
        fill: #41112a;
      }

      .cls-38 {
        fill: #0596ba;
      }

      .cls-39 {
        fill: #64c9d5;
      }

      .cls-40 {
        fill: #1e1029;
      }

      .cls-41 {
        fill: #c5aec8;
      }

      .cls-42 {
        fill: #295b98;
      }

      .cls-43 {
        fill: #a594b7;
      }

      .cls-44 {
        fill: #f9bbbe;
      }

      .cls-45 {
        fill: #4bafce;
      }

      .cls-46 {
        fill: #5576ab;
      }

      .cls-47 {
        fill: #c4a1c9;
      }

      .cls-48 {
        fill: #abb3cb;
      }

      .cls-49 {
        fill: #7792a1;
      }

      .cls-50 {
        fill: #b3b4b6;
      }

      .cls-51 {
        fill: #b4c7db;
      }

      .cls-52 {
        fill: #311d55;
      }

      .cls-53 {
        fill: #621227;
      }

      .cls-54 {
        fill: #90659c;
      }

      .cls-55 {
        fill: #77c9e9;
      }

      .cls-56 {
        fill: #3f131e;
      }

      .cls-57 {
        fill: #cdecfb;
      }

      .cls-58 {
        fill: #4a3060;
      }

      .cls-59 {
        fill: #0b4b78;
      }

      .cls-60 {
        fill: #bce4eb;
      }

      .cls-61 {
        fill: #371744;
      }

      .cls-62 {
        fill: #6a82b0;
      }

      .cls-63 {
        fill: #9f9bad;
      }

      .cls-64 {
        fill: #f6a0a4;
      }

      .cls-65 {
        fill: #7a8084;
      }

      .cls-66 {
        fill: #d14e6f;
      }

      .cls-67 {
        fill: #1d161b;
      }

      .cls-68 {
        fill: #795085;
      }

      .cls-69 {
        fill: url(#linear-gradient-2);
      }

      .cls-70 {
        fill: #9e85a8;
      }

      .cls-71 {
        fill: #967098;
      }

      .cls-72 {
        fill: #646f61;
      }

      .cls-73 {
        fill: #eddfe0;
      }

      .cls-74 {
        fill: #211726;
      }

      .cls-75 {
        fill: #7b132c;
      }

      .cls-76 {
        fill: #ae78b4;
      }

      .cls-77 {
        fill: #a82451;
      }

      .cls-78 {
        fill: #66696d;
      }

      .cls-79 {
        fill: #536f74;
      }

      .cls-80 {
        fill: #832c5d;
      }

      .cls-81 {
        fill: #8b8c94;
      }

      .cls-82 {
        fill: #4a5f7d;
      }

      .cls-83 {
        fill: #bb446d;
      }

      .cls-84 {
        fill: #0c5c85;
      }

      .cls-85 {
        fill: #def1f2;
      }

      .cls-86 {
        fill: #6c6798;
      }

      .cls-87 {
        fill: #971e3c;
      }

      .cls-88 {
        fill: #100f0f;
      }

      .cls-89 {
        fill: #7f6e6b;
      }

      .cls-90 {
        fill: #a5ddea;
      }

      .cls-91 {
        fill: #2d1314;
      }

      .cls-92 {
        fill: #3e466a;
      }

      .cls-93 {
        fill: #e67c8f;
      }

      .cls-94 {
        fill: #022a3c;
      }

      .cls-95 {
        fill: #719bd1;
      }

      .cls-96 {
        fill: #b4aabf;
      }

      .cls-97 {
        fill: #53bed4;
      }

      .cls-98 {
        fill: #2c2320;
      }

      .cls-99 {
        fill: #67606e;
      }

      .cls-100 {
        fill: #eaeaeb;
      }

      .cls-101 {
        fill: #0a3858;
      }

      .cls-102 {
        fill: #14172f;
      }

      .cls-103 {
        fill: #22376e;
      }

      .cls-104 {
        fill: #241311;
      }

      .cls-105 {
        fill: #ba3154;
      }

      .cls-106 {
        fill: #5d798e;
      }

      .cls-107 {
        fill: #2e4156;
      }

      .cls-108 {
        fill: #a0dadb;
      }

      .cls-109 {
        fill: #cd6181;
      }

      .cls-110 {
        fill: #ca9cc7;
      }

      .cls-111 {
        fill: #014d6d;
      }

      .cls-112 {
        fill: #181338;
      }

      .cls-113 {
        fill: #425d6f;
      }

      .cls-114 {
        fill: #e4f1f3;
      }

      .cls-115 {
        fill: #623b6e;
      }

      .cls-116 {
        fill: #442b73;
      }

      .cls-117 {
        fill: #7a8168;
      }
    </style>
    <linearGradient id="linear-gradient" x1="10.27" y1="18.28" x2="13.08" y2="18.35" gradientUnits="userSpaceOnUse">
      <stop offset="0" stop-color="#c5bbc8"/>
      <stop offset="1" stop-color="#ddbfce"/>
    </linearGradient>
    <linearGradient id="linear-gradient-2" x1="15.43" y1="17.32" x2="17.2" y2="17.51" gradientUnits="userSpaceOnUse">
      <stop offset="0" stop-color="#656296"/>
      <stop offset="1" stop-color="#527792"/>
    </linearGradient>
  </defs>
  <g id="Layer_1-2" data-name="Layer 1">
    <g>
      <path class="cls-2" d="M10.27,22.99c.02.47-.01.95,0,1.43.19,0,.4.06.58.06-.14,1.03.81-.21.62,1.12-.1,0-.69-.02-.72,0-.14.1.2.55-.23.62-.57.09-.3-.16-.39-.74l-.77-.06-.02-.81h-1.74c-.18-.44.02-.67.02-.7.03-.2-.06-.57.06-.62.49-.22.49.31.58.29.11-.03,0-.39.06-.48.06-.09.33,0,.37-.08.05-.11-.1-.61.08-.72,1.51.12.83-.28,1.01-.41.02-.01.4-.01.41,0,.05.03.06.97.06,1.12Z"/>
      <path class="cls-88" d="M31.46,20.05c0-.26-.12-1.14-.04-1.34.08-.23.59,0,.66-.17-.07-.39.09-3.02,0-3.14-.05-.08-.6.06-.66-.08.01-.46-.02-.93,0-1.39,1.08-.27-.31.85,1.24.68v4.76l-.72.02c-.22.1.25.95-.48.66Z"/>
      <path class="cls-88" d="M1.07,13.89s.46,0,.48.02c.04.06,0,1.39-.04,1.45-.05.06-.57-.02-.62.04-.09.13.07,2.75,0,3.14.06.14.57,0,.62.08.04.06.04,1.43-.02,1.47-.02.01-.39.03-.43-.06-.16-.35.45-.72-.74-.66v-4.76l.72-.06s0-.65.04-.66Z"/>
      <path class="cls-88" d="M8.41,3.67c.15.05.06.38.08.66-.5.02-.99-.01-1.49,0-.21.06.02.43-.14.5-.37.17-.51-.37-.56.41-.03.56.06,1.14-.04,1.7-.39-.15-.11-.22-.27-.29-.11-.05-.33.04-.35.04-.02,0,.01-.07-.33-.04.03-.52-.04-1.05,0-1.57h.81l.06-.7c.11,0,.65.02.68,0,.06-.05-.02-.62.04-.66.06-.04,1.32-.02,1.51-.04Z"/>
      <path class="cls-2" d="M8.83,20.96c0,.25-.04.45.33.33.23.75-.64-.19-.46.91,0,.01,0,.03,0,.04-.73.13-.34.3-.52.37-.41.18-.59-.45-.66.66h-1.26s-.03-.04-.04-.21c0-.07,0-.14,0-.21.06,0,.14-.03.21-.04.08-.01.33.02.35,0,.05-.04,0-.19.02-.23.1-.18.23.14.25-.31-.01-.22.37-.08.43-.12.05-.04-.02-.2.08-.25.06-.03.27.04.31-.02.02-.02.04-.57-.08-.52.01,0,.21-.07.25-.08.29-.07.37.18.33-.37.15,0,.32-.03.46.04Z"/>
      <path class="cls-88" d="M27.65,26.59c-.03.76.04,1.53,0,2.3,0,.03-.08.02-.08.02h-.77l-.06.62s.06.18-.66.04c0-.12,0-.24,0-.35.45-.21.54.2.58-.35.05-.6-.05-1.22.04-1.82.33.12.06.3.23.37.64.28.32-.71.43-.81.08-.04.2-.01.29-.02Z"/>
      <path class="cls-88" d="M26.74,4.45c-.04.83-.03.59.91.62.04.74-.07,1.5.04,2.23-.02,0-.09.09-.37.02-.03-.76.18-.86-.5-.81h-.12c0-.42-.02-.87-.04-1.28,0-.09.01-.37,0-.39-.04-.06-.52,0-.56-.02-.06-.04,0-.29-.02-.37-.05-.13.26-.08.64-.08.03,0,.02.08.02.08Z"/>
      <path class="cls-88" d="M6.26,27.04c.09.55.02,1.11.04,1.65,0,.08-.02.47.02.5.05.03.42-.05.6.04-.02.08.05.28-.06.33-.24.04-.49-.04-.72-.04l-.06-.62h-.68s-.08.01-.08-.02c-.03-.49.02-.98,0-1.47.12,0,.25,0,.37,0,.11,0,.36.01.39,0,.1-.04.05-.27.1-.37.03,0,.06,0,.08,0Z"/>
      <path class="cls-100" d="M27.61,25.64s.03,0,.04,0c.01.12-.02.49,0,.52.03.04.34.02.41.02.14,0,.29-.03.41.04.06.6.27.05.29.46-.27-.01-.6-.13-1.12-.08-.09,0-.21-.02-.29.02-.11.09.2,1.09-.43.81-.17-.07.11-.25-.23-.37-.05-.02-.17.03-.21-.02-.03-.04-.03-.87,0-.91.14-.19.66.35.66-.48.15,0,.3,0,.46,0Z"/>
      <path class="cls-88" d="M8.78,22.29c-.18.12-.03.62-.08.72-.04.08-.31,0-.37.08-.06.08.05.45-.06.48-.09.02-.09-.51-.58-.29-.12.05-.03.42-.06.62-.3-.04-.62.04-.91.04-.02,0-.19-.07-.5-.04,0-.19-.05-.4-.04-.6,0-.03.08-.02.08-.02h1.26c.08-1.11.25-.48.66-.66.17-.08-.21-.24.52-.37.03.05.02.05.08.04Z"/>
      <path class="cls-23" d="M7.58,13.97s-.08,0-.12,0c-.01,0-.03,0-.04,0-.17,0-1.09.03-1.14,0-.07-.05.05-.4-.08-.46-.37-.16-.51.39-.52-.5,0-.12.03-.26-.04-.37.95-.13.44.38.6.5.05.04,1.14-.03,1.32,0l.02.83Z"/>
      <path class="cls-100" d="M5.76,25.55c0,.06.08.03.08.06,0,.1-.04.43.06.48.36.16.65-.49.56.89-.06.09-.13.05-.21.06-.03,0-.06,0-.08,0-.15.02-.31-.01-.46,0,0-.51-.02-.43-.41-.46-.4-.03-.8.02-1.2,0,.27-.09.38-.07.39-.08.14-.1-.35-.43.74-.33.2-.44-.2-.69.52-.62Z"/>
      <path class="cls-88" d="M22.02,2.76h-2.4c0-.2,0-.42,0-.62h2.46c.09.74-.06.59-.06.62Z"/>
      <path class="cls-88" d="M13.29,2.14c0,.08,0,.44,0,.62h-2.44c0-.09-.11-.56-.02-.62h2.46Z"/>
      <path class="cls-88" d="M10.89,31.22h2.4c0,.74-.04.59-.04.62h-2.42c-.09-.74.06-.59.06-.62Z"/>
      <path class="cls-88" d="M21.03,31.22h1.03s.15-.12.06.62h-2.38s-.07.11-.08-.62h1.37Z"/>
      <path class="cls-88" d="M24.38,3.58h-.54c-.57-.02-1.15.02-1.72,0-.03,0-.02-.08-.02-.08,0-.15.01-.3,0-.46,0-.03-.01-.07.02-.08.14-.05,1.89.04,2.32,0,.09.75-.06.59-.06.62Z"/>
      <path class="cls-88" d="M23.84,30.4c.18,0,.36,0,.54,0,.14-.04.09.6.06.62-.09.07-2-.05-2.3,0,0-.17-.08-.36-.04-.54,0,0-.01-.08.02-.08.57,0,1.15.02,1.72,0Z"/>
      <path class="cls-88" d="M10.77,2.92c0,.18.09.39.04.58,0,0,.01.08-.02.08-.56.02-1.12,0-1.68,0-.25,0-.55.03-.62-.04.03-.11-.04-.53.02-.58l2.25-.04Z"/>
      <path class="cls-88" d="M9.07,30.4c.58-.01,1.16,0,1.74.04,0,.18,0,.36,0,.54l-2.3.04c-.08-.24.02-.59.02-.62h.54Z"/>
      <path class="cls-100" d="M7.5,14.8c0,.36,0,.72,0,1.08,0,.21,0,.41,0,.62,0,.36,0,.72,0,1.08,0,.26,0,.52,0,.79,0,.4.03,1.23,0,1.45-.01.08.03.15-.06.21h-.97s-.01-.07.02-.08c.17-.04.84.07.93-.06v-2.48l-.93-.02-.02-.77.95-.08v-2.54s.03,0,.04,0c.07.25.04.56.04.83Z"/>
      <path class="cls-100" d="M13.29,2.76s.04.08.04.46c-.95-.19-.52.15-.74.37-1.12.2-.48-.6-.68-.74-.02-.02-.56-.02-.58,0-.05.04,0,.57-.02.68-.36.19-.47-.02-.5-.02.04-.19-.04-.4-.04-.58,0-.04.08-.13.08-.17h2.44Z"/>
      <path class="cls-50" d="M11.47,25.6s.04.03.17.04c-.05.4-.07.92-.04,1.32-.35-.06-.72-.06-1.08-.04v-.7c.43-.07.09-.52.23-.62.03-.02.62,0,.72,0Z"/>
      <path class="cls-61" d="M8.49,19.22c-.11,1.23.3.64.41.81.02.03.04.61.04.64,0,.04-.12.02-.12.29-.13-.07-.3-.04-.46-.04-.11,0-.22,0-.33,0v-.85l-.41-.06.5-.06c.04-.06,0-.64,0-.77l.37.04Z"/>
      <path class="cls-88" d="M26,29.65h.04s.1.39.02.62h-1.59l-.04-.58c.53-.03,1.05-.07,1.57-.04Z"/>
      <path class="cls-88" d="M26,4.33s-.16,0-.25,0c-.43-.04-.89-.03-1.32-.04-.03-.2.04-.39.04-.54.2-.04,1.53-.09,1.59-.04.03.02.07.66-.06.62Z"/>
      <path class="cls-115" d="M6.88,22c.16.03.17.12.17.29-.02.45-.15.13-.25.31-.02.04.03.19-.02.23-.02.02-.27-.01-.35,0-.42-.41,0-.4-1.06-.37-.04-.03-.02-.37-.02-.46.42.04,1.22-.05,1.53,0Z"/>
      <path class="cls-88" d="M8.49,29.65c0,.21,0,.41,0,.62-.21-.03-1.49.04-1.55,0-.02-.02-.04-.58-.02-.6.05-.06,1.38-.03,1.57-.02Z"/>
      <path class="cls-100" d="M22.02,2.76s.06,0,.08.29c.01.15,0,.3,0,.46-.03,0-.2.2-.46.02-.17-.38.4-.81-.64-.68-.08.76.2.78-.64.74.03-.28-.04-.39-.04-.41s.07-.08.04-.41h1.65Z"/>
      <path class="cls-68" d="M7.79,21.38c.12-.06.1.49.08.52-.04.06-.25,0-.31.02-.11.05-.03.21-.08.25-.06.04-.45-.1-.43.12,0-.17,0-.26-.17-.29-.06-.94.04-.53.91-.62Z"/>
      <path class="cls-100" d="M27.65,5.07c-.94-.03-.95.21-.91-.62.04,0,.12-.14.85-.08,0,.23.05.47.06.7Z"/>
      <path class="cls-100" d="M27.57,28.91c0,.06.09.03.08.06-.02.21-.06.43-.06.64-.72.06-.8-.08-.85-.08l.06-.62h.77Z"/>
      <path class="cls-100" d="M6.18,4.37l-.06.7h-.81c0-.1.04-.68.1-.7.25,0,.51,0,.77,0Z"/>
      <path class="cls-100" d="M6.14,29.53s-.39.08-.72.04c-.15-.07-.02-.63-.02-.66h.68l.06.62Z"/>
      <path class="cls-100" d="M26,4.33s.08.12.08.12c.03.08-.04.33.02.37.04.03.52-.04.56.02.01.02,0,.31,0,.39l-.91-.1v-.81c.09,0,.22-.01.25,0Z"/>
      <g>
        <path class="cls-23" d="M7.63,20.01c.02.08.01.76-.02.79h-1.28c-.15.06.02.56-.12.62-.02.01-.47.01-.5,0-.1-.04-.06-.28-.06-.37.16-.03.03.24.1.29.02.01.4.01.41,0,.08-.06-.09-.47.14-.6-.03-.03-.08-.22-.08-.23.02-.16.07-.31.04-.48.04-.05.16,0,.21-.02h.97c.09-.06.05-.13.06-.21.06.22.12.2.12.21Z"/>
        <path class="cls-88" d="M6.22,20.51s.06.2.08.23c-.23.13-.06.54-.14.6-.02.01-.4.01-.41,0-.07-.05.06-.32-.1-.29-.05-.67-.03-.54.58-.54Z"/>
      </g>
      <path class="cls-100" d="M9.11,3.58l-.04.72s-.49.02-.58.02c-.02-.28.07-.62-.08-.66.03-.11.08-.12.08-.12.07.07.37.04.62.04Z"/>
      <path class="cls-100" d="M24.38,3.58s.09.06.08.17c0,.15-.07.33-.04.54-.09,0-.52.11-.58.02-.02-.03.02-.58,0-.72h.54Z"/>
      <path class="cls-100" d="M9.07,30.4h-.54s-.04.04-.04-.12c0-.21,0-.41,0-.62.09,0,.55-.02.58.02.02.03-.02.58,0,.72Z"/>
      <path class="cls-100" d="M24.42,29.69l.04.58-.08.12c-.18,0-.36,0-.54,0v-.68c.13-.15.55-.02.58-.02Z"/>
      <path class="cls-100" d="M11.35,31.22h-.46s-.07-.06-.08-.25c0-.18,0-.36,0-.54.02,0,.31-.13.46.02.02.26-.07.55.08.77Z"/>
      <path class="cls-2" d="M22.11,30.48c-.04.18.04.37.04.54,0,.17-.08.18-.08.21h-.58c.3-.2.19-.48.21-.83.46,0,.39.08.41.08Z"/>
      <path class="cls-100" d="M6.92,29.24c-.18-.1-.55,0-.6-.04-.04-.03-.02-.41-.02-.5.66.03.77-.18.7.48,0,.03-.08.06-.08.06Z"/>
      <path class="cls-81" d="M5.72,27.04s-.07.12-.04.37c-.12,0-.25,0-.37,0v-.83c.39.03.41-.06.41.46Z"/>
      <path class="cls-100" d="M6.72,23.94c-.02.09.03.46-.02.5-.03.02-.39-.01-.52,0,0-.18.04-.37.04-.54.31-.03.47.04.5.04Z"/>
      <path class="cls-100" d="M26.66,28.86c-.04.55-.13.14-.58.35,0,.12,0,.24,0,.35,0,.04-.04.04-.04.08h-.04c.02-.78-.36-.83.66-.79Z"/>
      <path class="cls-115" d="M8.37,20.92c.04.55-.04.31-.33.37v-.37c.11,0,.22,0,.33,0Z"/>
      <path class="cls-92" d="M5.64,12.65c.07.11.04.25.04.37-.1-.06-.22-.04-.33-.04,0-.11,0-.22,0-.33h.29Z"/>
      <path class="cls-2" d="M27.2,12.07c.14,0,.3.08.46.04,0,.18,0,.36,0,.54-.13,0-.26.04-.37.04-.03,0-.49-.09-.56-.04-.07.05.05.44-.08.5-.05.02-.96-.02-1.2.04-.15.07-.02.66-.02.79,0,.08,0,.16,0,.25h-.58s-.1.13-.1-.46c-.25.03-.48-.02-.72-.04v-.33c1.34.16.64-.47.85-.62.03-.02.64.02.79,0l.08-.7c.49.02.98-.03,1.47,0Z"/>
      <path class="cls-23" d="M27.28,21v.33s-.3.18-.52.08c-.15-.06.02-.56-.12-.62h-1.24l-.1-.83c.09,0,.09-.04.12-.04.06,0,.61.15,1.26.08-.08,1.05.75-.05.6.99Z"/>
      <path class="cls-100" d="M25.42,17.32c.02-.06,0-.57,0-.74h.97l.06.72-1.03.02Z"/>
      <path class="cls-3" d="M25.42,14.22c0,.28,0,.55,0,.83-.02-.37-.27-.14-.46-.17-.43-.06-.12-.62-.12-.66h.58Z"/>
      <path class="cls-50" d="M27.69,21c-.05,0-.05.19-.04.33-.08.13-.34,0-.37,0v-.33c.14-.03.28,0,.41,0Z"/>
      <g>
        <path class="cls-23" d="M26.42,12.71v.38c.07,1.14-.22.56-.31.71-.03.06.01.54-.02.6-.03.05-.6-.04-.7,0,0-.16-.07-.95.01-1.03.13-.08.63-.02.66-.05.07-.08,0-.59.05-.65.04-.07.29.06.31.05Z"/>
        <path class="cls-82" d="M26.63,12.65v.44h-.21v-.38c.06,0,.14-.05.21-.05Z"/>
      </g>
      <path class="cls-50" d="M12.42,26.34c0,.19-.03.41.04.58-.89-.02-.33.28-.52.41-.01.01-.33,0-.35-.02-.01-.02,0-.27,0-.35-.03-.4-.01-.92.04-1.32.25.02.51-.01.77,0,.04.03.02.6.02.7Z"/>
      <path class="cls-88" d="M13.83,27.54c-.11.07-.25.04-.37.04-.98.01-.35-.38-.54-.64-.03-.04-.38-.02-.46-.02-.07-.17-.04-.39-.04-.58.23.02.2-.04.21-.04,1.14-.14.62.32.74.6.06.13.41.01.46.08.02.03-.01.45,0,.56Z"/>
      <path class="cls-88" d="M14.7,28.29c.02.67-.25.32-.33.43-.02.03.02.34,0,.37-.1.14-.37-.24-.46.35-.08-.37-.04-.75-.04-1.12,0-.35.05-.55.04-.62.86-.17-.13.68.79.58Z"/>
      <path class="cls-100" d="M13.91,27.71c0,.07-.04.27-.04.62-.58.18-.38-.08-.41-.74.12,0,.26.03.37-.04,0,.04.08.13.08.17Z"/>
      <path class="cls-23" d="M11.39,24.4c-.19,0-.36.09-.54.08-.18,0-.39-.06-.58-.06-.01-.47.02-.95,0-1.43h.04c.14,0,.28,0,.41,0,.27,0,.54-.04.58.02.04.48-.09,1.3.08,1.39Z"/>
      <path class="cls-74" d="M11.97,21v.33s.01.08-.02.08c-.08.02-.36-.03-.39.02-.03.05.06.42-.06.48-.04.02-.54-.01-.85,0-.02,0-.06-.09-.33-.02v1.1h-.04c0-.15-.02-1.08-.06-1.12-.02-.01-.4-.01-.41,0-.18.13.5.53-1.01.41-.06.01-.06,0-.08-.04,0,0,0-.03,0-.04,1.32.2.79-.18,1.16-.39-.03-.13,0-.45,0-.48,2.14.23,1.38-.25,1.55-.37.08-.05.53.04.56.04Z"/>
      <path class="cls-88" d="M11.39,24.4c.21,0,.47-.03.54.06-.16,1.13.48.51.62.7.04.06,0,.94.08,1.14-.01,0,.03.06-.21.04,0-.1.02-.68-.02-.7-.25-.01-.51.02-.77,0-.13,0-.15-.04-.17-.04.19-1.33-.76-.08-.62-1.12.18,0,.35-.08.54-.08Z"/>
      <path class="cls-88" d="M18.71,5.12s.11.09.41,0c0,.01,0,.03,0,.04,0,.42,0,.84,0,1.26.03.04.42.02.5.02.12,0,.25,0,.37,0,.05.61-.2.66.46.62,0,0,.08-.01.08.02,0,.2-.01.4,0,.6.01.21-.01.43,0,.64.08.11.3.04.5.06.08,0,.42-.02.46.02.03.04-.04.6.02.64.2.14.66-.38.64.54-.03,0-.4-.23-.5.08-1.06.05-.44-.65-.64-.79-.07-.05-.58.08-.64-.06v-1.08l-.77-.02c.12-1.46-.85,0-.68-1.3-.81.12-.3-.64-.48-.77-.01,0-.32,0-.33,0-.13.09.33.48-.72.37,0-.05-.12-.09-.08-.21.84-.12.36-.22.52-.33.18-.12.36.29.39-.37.17.03.33,0,.5,0Z"/>
      <path class="cls-88" d="M14.7,5.28c-.03.23.04.31.04.33,0,.24-.08.51-.04.77-1.32-.1,0,.82-1.3.64l-.08.66c-.48.21-.84-.65-.72,1.14-.06.14-.61,0-.66.08-.03.04.04.64-.02.68-.33.23-.74-.73-.6,1.34-.06.14-.61,0-.66.08-.03.04.03.7,0,.74-.02.03-.39.03-.41,0-.06-.08.04-.68.04-.81.04,0,.04,0,.04.04,0,.12-.03.71.02.74.28.2.28-.43.19-.74.14-.02.65-.03.7-.1l.04-1.32c-.39-.16-.36-.03-.46-.02.04-.79.1-.35.66-.56,0-.17,0-.34,0-.52-.01-.24.52-.06.95-.14-.06-.37.06-.93.04-1.26.49.02.5.08.46-.58.1-.07.22-.04.33-.04.09,0,.54.02.56,0,.06-.05-.02-.53.04-.58.03-.02.87.1.52-.27-.08-.08-.26.15-.21-.39.15,0,.32.02.48,0l.06.08Z"/>
      <path class="cls-88" d="M20.58,25.64c-.02.37.03.75,0,1.12-.01.17-.04.12-.04.12-.13.01-.45-.02-.48,0-.04.03-.02.41-.02.5,0,.04,0,.08,0,.12-.13.07-.3.04-.46.04-.08,0-.43-.02-.46.02,0,.39-.01.79,0,1.18,0,.01,0,.03,0,.04-.14-.04-.39.04-.41.04s-.07-.04-.41-.04c.01-.23-.01-.47,0-.7.01-.21-.04-.42.06-.5,1.21.16-.14-.75,1.22-.64-.2-1.1.64-.46.79-.66,0-.21,0-.43,0-.64h.21Z"/>
      <path class="cls-100" d="M21.03,30.44v.79h-1.37c0-.27-.04-.55-.04-.83.3.04.62-.04.91-.04.07,0,.43.08.5.08Z"/>
      <path class="cls-2" d="M20.33,3.17s.07.13.04.41c0,0-.08-.01-.08.02-.03.22.06.63-.06.68-.2.02-.45-.03-.64,0,0-.36,0-.72,0-1.08.2-.11.49-.01.74-.04Z"/>
      <path class="cls-100" d="M20.37,2.76c.03.34-.04.39-.04.41-.25.03-.54-.07-.74.04,0-.38.04-.43.04-.46h.74Z"/>
      <g>
        <path class="cls-2" d="M5.31,6.73v.66c-.49.04-.94-.1-.99.12-.04-.16-.29-.15-.46-.17.1-.11,0-.61.06-.66.06-.04,1.21,0,1.39.04Z"/>
        <path class="cls-65" d="M5.64,6.69l.04.64c-.07.1-.22.05-.37.06v-.74c.34-.03.31.04.33.04Z"/>
        <path class="cls-100" d="M6.26,6.94s.14-.03.17.02c.02.04.03.83,0,.87-.15.21-.68-.45-.66.68-.7.05-.43-.06-.52-.7-.03-.02-.56.01-.68,0-.06,0-.22.02-.25-.02-.02-.03.02-.2,0-.27.05-.22.51-.09.99-.12.15-.01.3.04.37-.06l-.04-.64s.24-.09.35-.04c.16.07-.12.14.27.29Z"/>
      </g>
      <path class="cls-100" d="M6.3,5.24c.05-.78.19-.25.56-.41.16-.07-.07-.44.14-.5-.13.71.6,1.07-.7.91Z"/>
      <path class="cls-23" d="M9.86,21.33s-.03.34,0,.48c-.37.22.16.59-1.16.39-.18-1.1.68-.16.46-.91.06-.02.15-.21.29-.25.47-.11.4.12.41.29Z"/>
      <path class="cls-40" d="M9.45,21.04c-.14.04-.22.23-.29.25-.37.11-.33-.08-.33-.33,0-.27.12-.25.12-.29.11.01.41-.02.43,0,.07.05-.04.31.06.37Z"/>
      <g>
        <path class="cls-100" d="M27.69,7.31c.48,0,1-.14,1.45,0-.11,0-.32-.02-.35,0-.15.07.09.64-.33.41-.04.02-.01.12-.02.12-.04.01-.16.03-.21.04-.28.04-.63-.35-.54.46-.02,0,.03.12-.46.08,0-.03-.07.03-.06-.5l-.72-.02c.04-.75-.15-.83.21-.97.15-.06.29.14.17-.41.68-.05.47.04.5.81.28.07.35-.02.37-.02Z"/>
        <path class="cls-81" d="M26.82,6.52c.12.56-.02.35-.17.41,0-.12.04-.36.04-.41h.12Z"/>
      </g>
      <path class="cls-2" d="M13.83,5.16s-.02.03.29.04c.01,0,.03,0,.04,0-.06.55.13.31.21.39.35.37-.48.24-.52.27-.06.05.02.53-.04.58-.02.02-.47,0-.56,0l.04-.64s-.37-.01-.46-.02c-.18-.02-.2-.08-.21-.08-.09-.56,0-.54,1.2-.54Z"/>
      <path class="cls-50" d="M13.33,3.21c0,.4,0,.8,0,1.2-.1-.06,0-.27-.04-.35-.01-.03-.54,0-.56-.02-.09-.06.1-.39-.14-.46.23-.22-.2-.56.74-.37Z"/>
      <path class="cls-50" d="M6.18,27.04c-.05.1,0,.33-.1.37-.03.01-.28,0-.39,0-.03-.26.04-.35.04-.37.15-.01.31.02.46,0Z"/>
      <path class="cls-2" d="M7.5,10.74c.14.09-.02.53.04.68.08.19.3-.15.46.27.09.25,0,.28,0,.29.03-.14-.59-.08-.99-.06.15.03.06.34.08.66l.93.06s.01.26.02.33c.01.09.04.34.04.37,0,.05,0,.39,0,.41,0,.01-.05.11-.06.29-.47.04-.41-.08-.43-.08l-.02-.83c-.18-.03-1.27.04-1.32,0-.16-.11.35-.63-.6-.5h-.29c0-.08.01-.13-.04-.21.05-.36.16-.23.17-.25.22-.01.57.12.54-.21.92-.04,1.04.23.93-.66h-.77c.02-.17.03-.4.04-.58h1.28Z"/>
      <path class="cls-40" d="M8.41,13.76c.07,0,.14,0,.21,0,.15,1.01-.57.13-.46.99-.03,0-.36.08-.66.04,0-.27.03-.58-.04-.83.04,0,.08,0,.12,0,.02,0-.04.12.43.08.01-.18.06-.27.06-.29h.33Z"/>
      <path class="cls-52" d="M8.08,18.44s.05.33.04.74c0,.12.04.7,0,.77l-.5.06s-.06,0-.12-.21c.03-.22,0-1.05,0-1.45l.58.08Z"/>
      <path class="cls-34" d="M8.12,16.49c.05.24.07.87.04,1.08-.07.45-.66.43-.66,0,0-.36,0-.72,0-1.08.19-.02.45.03.62,0Z"/>
      <path class="cls-61" d="M8.33,14.84c.09.99-.2.54-.29.83,0,0-.04-.04-.04.17l-.5.04c0-.36,0-.72,0-1.08.3.04.63-.04.66-.04,0,0,.12.08.17.08Z"/>
      <path class="cls-31" d="M8.16,17.57h.5s0,.06,0,.08c-.7-.19-.45.15-.5.66,0,.07-.08.12-.08.12l-.58-.08c0-.26,0-.52,0-.79,0,.43.59.45.66,0Z"/>
      <path class="cls-31" d="M8.66,16.41c-.3-.14-.51.08-.54.08-.17.03-.43-.02-.62,0,0-.21,0-.41,0-.62l.5-.04s.07.38.06.54c.27-.05.64-.09.6.04Z"/>
      <path class="cls-68" d="M26.7,11.32c.03.65.6-.12.5.74-.49-.03-.98.02-1.47,0l-.08.7c-.15.02-.75-.02-.79,0-.21.15.49.78-.85.62-.06,0-.22.02-.25-.02-.02-.02.01-.25,0-.35,1.18-.05.53-.22.7-.6.05-.1.18-.04.21-.08.02-.03-.02-.22,0-.25.05-.06.52.01.6-.02.12-.05.02-.29.08-.33.04-.03.31.04.35-.02.13-.19-.46-.48.99-.39Z"/>
      <path class="cls-2" d="M25.29,19.97l.1.83h1.24c.15.06-.02.56.12.62.22.1.49-.08.52-.08.03,0,.29.13.37,0,0,.06.04.04.04.04,0,.1.03.5-.06.54-.17,0-.35,0-.52,0-.38.02-.82,0-1.2,0l-.1-.58h-.89c.02-.44-.02-.88,0-1.32.13-.01.24-.04.37-.04Z"/>
      <path class="cls-88" d="M24.84,19.97s-.02.05.08.04c-.02.44.02.89,0,1.32,0,.07,0,.1-.04.17-.27-.07-.04-.38-.14-.46-.02-.01-.4-.01-.41,0-.05.04.01.21-.04.25-.1.07-.81-.09-.64.27.13.28.84-.42.66.74.79.08.39.26.52.35.04.03.46-.03.5,0,.03.02.03.56,0,.58-.03.02-.37-.01-.5,0-.37-.56-.53.4-.62-.91-.29.04-.6-.04-.89-.04-.02-.15.02-.46,0-.52-.04-.09-.17-.05-.25-.06-.15-.85.8.01.66-.85.76-.08.29-.4.56-.52.05-.02.2.02.25,0,.2-.09-.17-.3.31-.37Z"/>
      <path class="cls-58" d="M10.65,21.91c-.03.2.03.39.04.58.01.16-.04.35.04.5-.14,0-.28,0-.41,0v-1.1c.27-.07.31.02.33.02Z"/>
      <path class="cls-68" d="M15.24,19.68c.05.37.13.32.54.29v.62c-.43,0-.87,0-1.3,0l-.08.74c-.19.03-1.31-.04-1.37,0-.06.05.02.53-.04.58-.05.04-1.1-.03-1.28,0-.13.06,0,.53-.08.58-.04.03-.78-.02-.93,0-.01-.19-.07-.38-.04-.58.3-.01.81.02.85,0,.13-.06.03-.43.06-.48.04-.05.31,0,.39-.02.04,0,.02-.08.02-.08.37-.08.56.24.5-.41.21-.02.42-.07.64-.04.02-.26.06-.24.06-.25.43-.02.64.13.58-.33.26-.03.13-.18.17-.37.3.08.57.12.5-.25.14,0,.29-.04.41-.04.02,0,.13.07.41.04Z"/>
      <path class="cls-90" d="M12.47,20.92c.06.65-.13.33-.5.41v-.33s-.07-.07.21-.12c0,.05.17.05.29.04Z"/>
      <path class="cls-68" d="M22.27,11.53c.05,0-.03.06.21.08.07,0,.14,0,.21,0,0,.08.02.43-.02.46-1.66-.11-.92.27-1.1.52-.09.12-.58-.26-.46.52-.48.03-.38.08-.41.08-.48.09-.47-.23-.5.5-.15,0-.35.07-.5.08-.02,0-.16-.07-.48-.04,0,.1-.07.47-.06.5-.13-.01-.29.02-.41,0,0,0-.03-.08-.06-.08-.13-.01-1.15-.03-1.2,0-.09.04-.06.14-.06.21l-1.74.04c-.02-.29-.69-.23-1.37-.21.08-.44-.25-.22-.17-.79.66.01,1.36-.04,2.03-.04.19,0,.39,0,.58,0,.78,0,1.56.07,2.34,0l.04-.7c1.13-.07,1.47.29,1.41-.54,1.22.13-.43-.92,1.72-.58Z"/>
      <path class="cls-88" d="M16.81,6.27l-.04,7.08c-.19,0-.38,0-.58,0v-7.03c.15,0,.44-.03.62-.04Z"/>
      <path class="cls-54" d="M12.76,12.65c.64.84.18.66,1.03.7.12,0,.27.04.37.04-.09.56.24.35.17.79-.02,0-.32.12-.37.12-.02,0-.04-.04-.33-.04.06-.85-.14-.52-.41-.54-.19-.01-.39-.03-.58-.04-.02-.13.02-.57,0-.6-.03-.04-.37-.02-.46-.02-.19-.01-.39,0-.58,0,.03-.6-.03-.41-.33-.46.02-.09-.03-.42.02-.46.05-.03,1.11-.02,1.16,0,.13.06.03.43.06.48.03.04.19.01.25.02Z"/>
      <path class="cls-23" d="M8.66,12.36c-.02-.13.02-.61,0-.64-.04-.05-.56,0-.66-.02-.15-.42-.37-.08-.46-.27-.07-.15.1-.6-.04-.68,0-.06.06-.02.08-.08,1.19.03.64.21.85.33.22.13.22-.28.33.7,1.01.05,1.33-.28,1.08.7-.34-.04-.87.07-1.18-.04Z"/>
      <path class="cls-23" d="M10.52,10.99c-.07,0-.14,0-.21,0,0-.03,0-.05-.04-.04,0-.45,0-.9,0-1.34.18,0,.36-.04.54-.06.1-.01.06-.14.46.02l-.04,1.32c-.06.07-.57.08-.7.1Z"/>
      <path class="cls-68" d="M8,11.98c.06.28.1.07.46.25l-.04.7s-.03.07-.37.04c0-.07.02-.3-.02-.33l-.93-.06c-.02-.32.07-.64-.08-.66.4-.02,1.02-.08.99.06Z"/>
      <path class="cls-88" d="M6.72,10.08c.21.02.54-.03.7,0,.05,0,.14-.02.17.02-.02.16.03.48,0,.56-.02.07-.08.02-.08.08h-1.28s-.08-.09-.08-.1c0-.19.04-.37.04-.56h.54Z"/>
      <path class="cls-61" d="M9.28,13.76c-.19.05-.31-.04-.33-.04.03-.49.01-.36-.5-.37.03-.13.08-.25,0-.37.28.05,1.34-.05,1.41-.04,0,0-.02.07.02.08.05.02.23,0,.27.06.24.46-.5.27-.6.31-.17.07.12.28-.27.37Z"/>
      <path class="cls-88" d="M11.18,12.6v.46c-.15,0-.93.01-.97.04-.11.08.28.45-.62.33-.1.52-.22.35-.23.37l-.08-.04c.39-.1.1-.3.27-.37.1-.05.84.15.6-.31-.04-.07-.22-.05-.27-.06-.04-.01-.02-.08-.02-.08.01-.07-.03-.3.02-.33.05-.04,1.14-.01,1.3,0Z"/>
      <path class="cls-68" d="M13.79,13.35c-.85-.05-.4.13-1.03-.7.21.02.9-.03.97,0l.06.7Z"/>
      <path class="cls-100" d="M8.66,12.36s.01.05-.06.04c-.02-.24-.07-.13-.14-.17-.36-.17-.4.03-.46-.25,0-.01.09-.04,0-.29.11.02.62-.03.66.02.02.03-.02.51,0,.64Z"/>
      <path class="cls-100" d="M11.27,12.6c.3.05.36-.14.33.46-.02,0-.03.04-.17.04-.27,0-.24-.04-.25-.04v-.46s.06,0,.08,0Z"/>
      <path class="cls-21" d="M8.45,12.98c.08.12.03.25,0,.37h-.37s-.03-.28-.04-.37c.34.03.35-.05.37-.04.05.01.03.03.04.04Z"/>
      <path class="cls-23" d="M22.15,9.58c.09.01.5-.03.54.02-.03.67.03,1.34,0,2.01-.07,0-.14,0-.21,0,.37-.5.19-.59-.21-.62-.1,0-.59.02-.62-.02.03-.3-.04-1.17,0-1.3.1-.31.47-.09.5-.08Z"/>
      <path class="cls-100" d="M20.29,5.69s-.08.08-.1.08c-.13.01-.29-.02-.39,0-.26.05-.14.03-.17.66-.08,0-.47.02-.5-.02,0-.42,0-.84,0-1.26,1.02.05,1.25-.25,1.16.54Z"/>
      <path class="cls-50" d="M21.61,7.72c.06.87-.46.44-.58.66-.2-.02-.42.05-.5-.06-.01-.21.01-.43,0-.64.36-.04.72.03,1.08.04Z"/>
      <path class="cls-50" d="M13.25,6.44c-.11,0-.23-.02-.33.04,0-.04-.13-.1-.08-.7.08.01.42-.03.46.02l-.04.64Z"/>
      <path class="cls-61" d="M10.52,10.99c.09.31.09.94-.19.74-.05-.03-.01-.63-.02-.74.07,0,.14,0,.21,0Z"/>
      <path class="cls-88" d="M26.66,23.24c0,.07.08.03.08.06.01.2-.04.41-.04.6h-.46c-.23-.02-.6.03-.79,0-.05,0-.14.02-.17-.02-.21-1.03.74-.52,1.37-.64Z"/>
      <path class="cls-23" d="M22.69,22.33c.01.24.06,2,0,2.09-.04.06-.52,0-.56.02-.06.04.02.45-.04.5-.25.18-.67-.48-.7.7h-1.01s0-.06,0-.08c.15-.02.93.03.97,0,.16-.12-.35-.83.58-.66.28-.15-.12-.51-.27-.54v-1.3c.06-.1.16-.05.25-.06.14-.02.36.05.41-.06.02-.05-.02-.31,0-.43.07-.46.33.09.37-.54.02.04,0,.26,0,.37Z"/>
      <path class="cls-88" d="M25.42,10.08h1.28c0,.21,0,.41,0,.62-.46-.01-.91,0-1.37.04.01-.21,0-.43,0-.64,0-.03.08-.02.08-.02Z"/>
      <path class="cls-100" d="M26.74,9.42c0,.15,0,.3,0,.46,0,.17-.04.2-.04.21h-.5c.02-.16-.03-.54,0-.6.06-.13.42,0,.54-.06Z"/>
      <g>
        <path class="cls-87" d="M17.18,1.1s-.06.03-.33.04c-.19,0-.39-.01-.58,0-.45.03-.58-.14-.54.37-.48.04-.08.37-.19.41-.17.02-.39-.06-.43.08.02-.18.63-.17.31-.37-.08-.05-.04.13-.12.17-.28.12-.63-.18-.52.46-.56,0-.18,1.37-.29,1.8l.66.02c.01.16.06.33.06.5.59.01.48-.12.68.08,0,0-.03,0,.12.17.01.01.1-.02.12.02.14.28-.38.51.72.43.05-.04,0-.23.02-.29.6.17.84.23.74-.46.22,0,.41.03.41-.04,0,0,.08.03.08.06.02.18-.07.33.12.46-.27.08-.04.09-.04.1-.03.67-.22.25-.39.37-.16.11.32.21-.52.33-1.17.16-1.48-.26-1.37.46-.63-.07-.19-.18-.35-.29-.04-.03-.43.03-.5,0-.17-.08.14-.46-.35-.37,0-.02-.07-.1-.04-.33-.05.25.52.3.54.27.25-.45-.33-.32-.37-.41-.13-.3.41-.56-.74-.48.07-.95-.14-.63-.21-.77-.03-.05,0-1.05,0-1.2,0-.04.12-.07.12-.08.01-.27-.05-.54-.04-.81.02-.88.18-.13.43-.66.28.06.17-.13.19-.5.58-.06.39-.08.41-.08.11,0,2.04-.02,2.13.04.05.04,0,.41.02.5Z"/>
        <path class="cls-56" d="M19.62,2.14c0,.2,0,.42,0,.62,0,.02-.04.08-.04.46,0,.36,0,.72,0,1.08-.02,0,.11.12-.41.08,0,0-.04.03-.04-.08,0-.18.01-.36,0-.54,0-.13-.06-.28-.08-.41.04,0,.08,0,.12,0,.15-.01.3.04.37-.06-.05-.41.08-.55-.33-.64-.02-.59-.71.49-.46-1.3-.03-.04-.23-.01-.29-.02-.04,0-.09,0-.12,0-.02-.46-.52-.18-.95-.17-.14.02-.18-.04-.21-.04-.02-.09.03-.46-.02-.5-.09-.06-2.02-.05-2.13-.04-.08-.37.32-.14.48-.21.12-.05,0-.28.12-.33.08-.04,1.7-.04,1.78,0,.11.05.04.24.06.27.04.06.4,0,.43.02.06.04-.03.24.08.29.08.03.66-.03.7,0,.13.09-.26.4.43.48-.14,1.35.48.25.5,1.06Z"/>
        <path class="cls-56" d="M14.12,4.66v.54c-.31-.01-.27-.04-.29-.04.08-1.07-.19-.55-.5-.74,0-.4,0-.8,0-1.2,0-.37-.04-.43-.04-.46,0-.18,0-.54,0-.62.02-.41.1-.27.54-.29.07,0,.1,0,.17-.04,0,.27.06.53.04.81,0,.01-.12.04-.12.08,0,.15-.03,1.15,0,1.2.06.13.28-.18.21.77Z"/>
        <path class="cls-67" d="M14.62.65c-.02.37.09.55-.19.5-.26.53-.42-.21-.43.66-.06.05-.1.04-.17.04-.07-1.11.12-.62.39-.74.12-.05.03-.39.06-.43.03-.04.26-.01.33-.02Z"/>
        <path class="cls-54" d="M16.27,1.56s.06,0,.08,0c-.05.4.14.19.27.25.08.04.06.12.06.12-.16.79.55.31.66.48.02.02,0,.5,0,.6h-.33l-.5.06c.12,1.44-.3.75-.41.99-.05.12.05.37.04.39,0,.02-.18.22-.25.21-.2-.21-.09-.07-.68-.08,0-.16-.05-.34-.06-.5,0-.05,0-.11,0-.17.62.27.6-.93,0-.7,0-.3-.04-.61-.04-.91,0-.09-.01-.21,0-.29.04-.14.26-.07.43-.08.1-.05-.3-.37.19-.41.03,0,.36.05.54.04Z"/>
        <path class="cls-8" d="M14.78,2.26s.02.07.33.04c0,.3.03.61.04.91,0,.23-.01.47,0,.7,0,.05,0,.11,0,.17l-.66-.02c.11-.43-.27-1.8.29-1.8Z"/>
        <path class="cls-46" d="M17.35,3.71s.08.35.08.37c0,.06-.08.03-.08.06-.01.17,0,.25-.04.43-.01.06.02.2,0,.23-.07.1-.32-.12-.41.19-.02.06.03.25-.02.29-1.1.08-.59-.15-.72-.43-.02-.04-.11,0-.12-.02-.01-.18.52-.03.6-.08.05-.03,0-.22.02-.29.08-.34.33-.07.41-.19.02-.02,0-.47,0-.56h.29Z"/>
        <path class="cls-105" d="M18.42,3.71s.1.04.25.04c.03.15.08.39.08.54,0,.26-.09.56-.04.83-.17,0-.33.03-.5,0,0-.01-.23-.02.04-.1-.19-.13-.1-.27-.12-.46,0-.03-.08-.06-.08-.06-.03-.26-.01-.55.08-.79.05-.01.19,0,.29,0Z"/>
        <path class="cls-56" d="M17.31,5.82c-.04.12.08.16.08.21,0,.37-.31.24-.58.25-.18,0-.47.05-.62.04-.01,0-.1-.02-.25-.04-.11-.72.2-.29,1.37-.46Z"/>
        <path class="cls-77" d="M14.7,5.28l-.06-.08c-.15.02-.33,0-.48,0-.01,0-.03,0-.04,0v-.54c1.15-.08.61.18.74.48.04.1.62-.03.37.41-.02.03-.58-.02-.54-.27Z"/>
        <path class="cls-86" d="M18.13,3.71c-.1.24-.11.52-.08.79,0,.07-.2.03-.41.04-.12,0-.22,0-.33.04.04-.18.03-.27.04-.43,0-.03.08,0,.08-.06.52.02.37-.02.41-.12.33.17.02-.17.29-.25Z"/>
        <path class="cls-80" d="M17.39,1.14l.08.52-.58.02s-.08-.13-.08-.17c0-.02.07-.04.04-.37.27-.01.31-.04.33-.04.02,0,.07.07.21.04Z"/>
        <path class="cls-105" d="M17.64,4.54c.09.68-.15.62-.74.46.1-.31.34-.09.41-.19.02-.02-.01-.17,0-.23.11-.04.21-.04.33-.04Z"/>
        <path class="cls-26" d="M16.27,1.14v.41c-.18,0-.51-.04-.54-.04-.05-.51.09-.34.54-.37Z"/>
        <path class="cls-86" d="M16.85,1.14c.03.34-.04.35-.04.37-.15-.04-.31.03-.46.04-.03,0-.06,0-.08,0v-.41c.19-.01.39,0,.58,0Z"/>
        <path class="cls-77" d="M15.11,2.01c-.01.08,0,.2,0,.29-.31.03-.31-.04-.33-.04-.11-.64.23-.34.52-.46.09-.04.05-.21.12-.17.32.2-.29.19-.31.37Z"/>
        <path class="cls-28" d="M16.15,4.45h.5c-.01.07.03.26-.02.29-.08.05-.61-.1-.6.08-.16-.17-.12-.16-.12-.17.07,0,.24-.19.25-.21Z"/>
        <path class="cls-105" d="M19.21,2.63c0,.14-.08.43-.04.7-.04,0-.08,0-.12,0-.01,0-.03,0-.04,0-.21,0-.41,0-.62,0-.02-.28,0-.7,0-.99,0-.34.05-.7.08-1.03.06,0,.26-.02.29.02-.26,1.79.43.72.46,1.3Z"/>
        <path class="cls-87" d="M18.34,1.31c-.49.07-.13.17-.33.46-.24-.03-.65.02-.79,0-.08-.01-.26-.04-.33-.08l.58-.02-.08-.52c.43-.02.94-.3.95.17Z"/>
        <path class="cls-75" d="M19.13,4.29c0,.11.04.08.04.08,0,.24-.04.5-.04.74-.31.09-.39,0-.41,0-.05-.27.04-.56.04-.83h.37Z"/>
        <path class="cls-105" d="M18.34,1.31s.09,0,.12,0c-.04.34-.07.7-.08,1.03.02-.18-.32-.09-.5-.12v-.04c.07,0,.14.02.17-.02-.03-.28.08-.44-.04-.39.21-.29-.16-.39.33-.46Z"/>
        <path class="cls-87" d="M19.13,3.75c.01.18,0,.36,0,.54h-.37c0-.15-.05-.39-.08-.54.25,0,.2-.04.21-.04.09,0,.17-.01.25.04Z"/>
        <path class="cls-75" d="M19.17,3.34c-.04-.28.05-.56.04-.7.42.09.28.23.33.64-.07.11-.23.05-.37.06Z"/>
        <path class="cls-98" d="M19.13,3.75c-.08-.05-.16-.05-.25-.04.01-.19-.07-.3.12-.37.01,0,.03,0,.04,0,.02.13.07.28.08.41Z"/>
        <path class="cls-2" d="M17.02,3.01c.07.2.05.49.04.7,0,.09.02.54,0,.56-.08.12-.34-.15-.41.19h-.5s-.09-.28-.04-.39c.11-.25.54.44.41-.99l.5-.06Z"/>
        <path class="cls-100" d="M17.89,2.18v.04c.04.32-.04.64-.04.95h-.46s-.03.05-.04-.17c0-.1.02-.58,0-.6-.11-.16-.83.31-.66-.48.16.04.49.03.54-.17-.04.37.13.43.66.41Z"/>
        <path class="cls-100" d="M15.16,3.92c-.01-.23,0-.47,0-.7.6-.23.62.97,0,.7Z"/>
        <path class="cls-51" d="M16.81,1.52s.05.15.08.17c.07.04.25.07.33.08-.05.2-.38.2-.54.17,0,0,.02-.09-.06-.12-.13-.06-.32.15-.27-.25.14,0,.3-.08.46-.04Z"/>
        <path class="cls-43" d="M17.35,3.01c0,.21.04.16.04.17,0,.03-.04.37-.04.54h-.29c0-.22.03-.51-.04-.7h.33Z"/>
        <path class="cls-51" d="M17.84,3.17s.12.51,0,.79c-.04.1.11.15-.41.12,0-.02-.08-.34-.08-.37,0-.17.04-.51.04-.54h.46Z"/>
        <path class="cls-106" d="M18.38,2.34c0,.29-.02.71,0,.99,0,.02.07.12.04.37-.1,0-.24-.01-.29,0-.27.08.04.42-.29.25.12-.27,0-.75,0-.79,0-.31.08-.64.04-.95.17.03.52-.06.5.12Z"/>
        <path class="cls-20" d="M19,3.34c-.2.07-.11.18-.12.37-.01,0,.05.05-.21.04-.15,0-.2-.04-.25-.04.03-.25-.04-.35-.04-.37.21,0,.41,0,.62,0Z"/>
        <path class="cls-109" d="M18.01,1.76c.13-.04.01.11.04.39-.03.04-.1.02-.17.02-.53.01-.71-.04-.66-.41.14.02.55-.03.79,0Z"/>
      </g>
      <path class="cls-100" d="M6.72,10.08h-.54c0-.22,0-.44,0-.66,0-.01,0-.03,0-.04.75-.05.39.03.54.7Z"/>
      <path class="cls-68" d="M6.01,11.98s-.06-.06-.04-.17c.02,0,.12-.04.12-.04.13-.07.14.12.21-.46h.64c.11.9-.01.63-.93.66Z"/>
      <path class="cls-40" d="M6.18,11.32h.12c-.07.58-.07.38-.21.46.01-.12-.02-.27,0-.37.02-.14.08-.07.08-.08Z"/>
      <path class="cls-58" d="M9.28,13.76l.08.04c-.02.07.02.29,0,.41,0,0-.07.05-.08.12-.1.01-.37-.02-.39,0-.05.03,0,.3-.02.37,0,0-.06.08-.12.08-.12.01-.29.04-.41.04-.04,0-.16-.08-.17-.08-.12-.86.61.02.46-.99.28,0,.31-.04.33-.04s.14.09.33.04Z"/>
      <g>
        <path class="cls-76" d="M8.41,13.35v.41h-.33s0-.36,0-.41h.33Z"/>
        <path class="cls-110" d="M8.95,13.72s-.05.04-.33.04c-.07,0-.14,0-.21,0v-.41h.04c.51.01.53-.12.5.37Z"/>
      </g>
      <g>
        <path class="cls-101" d="M6.22,23.07c0,.17.04.2.04.21,0,0-.08-.01-.08.02-.01.2.05.41.04.6,0,.17-.04.36-.04.54-.04,1.2-.05.56-.31.74-.04.03-.01.28-.02.35,0,.03-.08.02-.08.02-.72-.07-.32.18-.52.62-1.09-.1-.61.23-.74.33-.02.01-.12,0-.39.08,0,0,.01.07-.02.08-.09.02-1.69.07-1.78.04-.11-.04-.04-.23-.06-.27-.1-.18-.54.12-.46-.27.01,0,.12-.06.21-.06,0-.17,0-.35,0-.52,0-.02.05-.22.04-.25.28.26.4.29.83.29.01.08-.03.34.02.37.05.03,1.07.03,1.12,0,.06-.04-.03-.23.06-.25.6.16.49-.23.52-.25.21-.15.69.42.56-.68.06-.13.5-.02.56-.06.04-.03.02-.37.02-.46,0-.18,0-.36,0-.54,0-.18-.02-.36,0-.54.01-.13.04-.14.04-.17h.46Z"/>
        <path class="cls-6" d="M1.5,20.92c-.07.56-.27.1-.33.54-.73-.18-.4.6-.41,1.41,0,.05-.15.58-.08,1.08,0,.05-.02.18.02.21.23.16.22-.43.31.83.01.2-.01.4,0,.6,0,.03.08.02.08.02,0,.05-.08.12-.08.12.03-.17-.32-.03-.37-.1-.15-.22.41-.8-.58-.7.06-.36-.08-2.78,0-2.9.04-.06.45.02.5-.04.03-.04-.03-.55,0-.62.05-.12.28,0,.33-.12.13-.29-.3-.28.62-.31Z"/>
        <path class="cls-101" d="M2.54,20.88c-.21.86.22.37.41.62-.07.03-1.04.95-1.08,1.01-.12.18.31.22-.5.31-.22.02-.41-.03-.62.04.01-.81-.32-1.59.41-1.41-.06.42.29.4.43.33.12-.05.03-.31.06-.35.04-.06.29.02.33-.04.01-.02.01-.48,0-.5-.03-.04-.34-.02-.41-.02,0-.08-.01-.22,0-.25.74-.09.75.2.95.25Z"/>
        <path class="cls-6" d="M5.02,21.04c.03.09-.04.08-.04.08-.15.02-.46-.02-.52,0-.1.04-.05.17-.06.25-.32.17-.23-.16-.56-.08-.12-.71-.16-.4-.68-.41-.2,0-.52.02-.62,0-.21-.04-.21-.34-.95-.25.09-.18.65-.03.72-.08.06-.04-.04-.28.08-.33.08-.03,1.59-.05,1.65,0,.09.06-.19.42.46.33,0,.58.38.02.52.5Z"/>
        <path class="cls-58" d="M4.98,21.13c.07.39-.06.51.37.46,0,.14,0,.28,0,.41,0,.08-.02.43.02.46,1.05-.03.63-.04,1.06.37-.07,0-.15.03-.21.04-.13.02-.3-.01-.43,0-.14.12-.02.2-.02.21,0,.03-.03.04-.04.17h-.54c0-.22-.08-.46-.04-.68-.28-.06-.35-.15-.37-.14v-.12c.04-.25-.08-.24-.08-.25-.05-.29.15-.42-.29-.37,0-.09-.01-.2,0-.29.01-.07-.03-.21.06-.25.05-.02.37.02.52,0Z"/>
        <path class="cls-32" d="M1.17,21.46c.06-.43.26.03.33-.54.11,0,.08-.04.08-.04.07,0,.39-.02.41.02.01.02.01.48,0,.5-.04.06-.29-.02-.33.04-.03.04.06.3-.06.35-.15.06-.49.09-.43-.33Z"/>
        <path class="cls-32" d="M1.54,25.6c.15,0,.3,0,.46,0,0,.17,0,.35,0,.52-.08,0-.19.06-.21.06-.02,0,.12-.02-.41-.08v-.41c.06,0-.02-.07.17-.08Z"/>
        <path class="cls-102" d="M5.35,21.58c-.44.05-.31-.07-.37-.46,0,0,.07,0,.04-.08.46-.04.31.02.33.54Z"/>
        <path class="cls-3" d="M1.38,25.68v.41c-.07,0-.34.02-.37-.02,0-.12,0-.24,0-.35,0,0,.09-.07.08-.12.3-.04.27.08.29.08Z"/>
        <path class="cls-78" d="M5.72,24.31c0,.08.02.42-.02.46-.05.04-.5-.07-.56.06.13,1.11-.35.54-.56.68-.03.02.08.41-.52.25-.02,0-.19-.2-.21-.21l-.04-.33c.05-.18.19-.07.25-.08.18-.03.28.1.25-.33.02,0-.07-.01.33-.08.21-.04.62.08.33-.29.07-.03.12-.12.12-.12,0,0-.02-.03.04-.04.03,0,.46.09.58.04Z"/>
        <path class="cls-111" d="M1.38,23.82c0,.11-.02.58.02.62.66.07.93.6.99.62.18.03.26-.04.27-.04-.17.1.17.48.23.5.04.01.87.03.91,0,.05-.04,0-.23.02-.29l.04.33c-.08-.02-.7,0-.93,0-.03,0-.06.08-.06.08-.42,0-.55-.03-.83-.29,0-.02-.1-.07-.1-.33-.13-.02-.31.02-.43,0-.03,0,.06-.18-.5-.04-.09-1.25-.08-.66-.31-.83-.04-.03-.01-.15-.02-.21.28-.03.51.09.7-.12Z"/>
        <path class="cls-7" d="M3.86,25.55s.19.2.21.21c-.09.02,0,.21-.06.25-.05.03-1.07.03-1.12,0-.05-.03,0-.3-.02-.37,0,0,.03-.08.06-.08.23,0,.85-.02.93,0Z"/>
        <path class="cls-92" d="M5.72,23.78c0,.18,0,.36,0,.54-.12.05-.55-.05-.58-.04,0-.17,0-.33,0-.5h.58Z"/>
        <path class="cls-117" d="M5.72,23.24c-.02.18,0,.36,0,.54h-.58c0-.32.04-.51.04-.54h.54Z"/>
        <path class="cls-24" d="M2.04,25.35s-.04.23-.04.25c-.15,0-.3,0-.46,0l-.04-.58c.12.02.3-.02.43,0,0,.26.1.31.1.33Z"/>
        <path class="cls-27" d="M6.22,22.87c0,.07,0,.14,0,.21h-.46s-.12-.09.02-.21c.14-.01.3.02.43,0Z"/>
        <path class="cls-99" d="M1.38,22.82c0,.33-.01.66,0,.99-.19.21-.42.1-.7.12-.07-.5.08-1.02.08-1.08.21-.08.41-.02.62-.04Z"/>
        <path class="cls-82" d="M1.5,25.02l.04.58c-.19,0-.1.08-.17.08-.02,0,.01-.12-.29-.08,0,0-.08.01-.08-.02-.01-.2.01-.4,0-.6.55-.14.47.04.5.04Z"/>
        <path class="cls-92" d="M3.16,20.88l-.04.58c-.07.01-.08,0-.17.04-.2-.25-.62.24-.41-.62.1.02.42,0,.62,0Z"/>
        <path class="cls-8" d="M4.4,21.38c-.01.09,0,.2,0,.29v.37c-.12,0-.25,0-.37,0-.06,0-.39-.09-.41-.08.02-.47.06-.59-.5-.5l.04-.58c.52.02.57-.29.68.41.33-.07.24.25.56.08Z"/>
        <path class="cls-49" d="M4.4,22.04h.29s.12,0,.08.25h-.7s-.06.02-.04-.25c.12,0,.25,0,.37,0Z"/>
        <path class="cls-27" d="M4.69,22.04h-.29v-.37c.44-.04.24.08.29.37Z"/>
        <path class="cls-101" d="M4.98,24.44c.29.37-.12.25-.33.29-.18-.46.16-.22.33-.29Z"/>
        <g>
          <path class="cls-85" d="M4.77,22.29v.12s.07.09-.21.1c.04.61-.08.53-.08.56-.56.05-.32-.08-.37-.5-.01-.1-.02-.18-.04-.29h.7Z"/>
          <path class="cls-11" d="M4.11,24.81l-.04.33c-.06.01-.2-.09-.25.08-.02.06.03.25-.02.29-.04.03-.87.01-.91,0-.06-.02-.39-.4-.23-.5.43,0,.47-.08.5-.08.25-.03.49.22.54-.17.14-.04.39.04.41.04Z"/>
          <path class="cls-59" d="M4.32,24.81c.03.43-.07.3-.25.33l.04-.33c.06,0,.18,0,.21,0Z"/>
          <path class="cls-60" d="M4.03,22.04c-.02.27.04.24.04.25.02.11.03.19.04.29-.13-.03-.65.06-.7-.06-.07-.17-.03-.52.21-.56.02,0,.36.08.41.08Z"/>
          <path class="cls-85" d="M3.69,24.77c-.05.38-.29.13-.54.17-.29-.6.48-.48.52-.46.03.02.03.24.02.29Z"/>
          <g>
            <path class="cls-33" d="M3.12,21.46c.56-.09.52.03.5.5-.24.04-.28.39-.21.56.05.12.58.04.7.06.06.42-.19.55.37.5,0,.03.08-.12.04.5-.36-.22-.53.17-.41.43.04.1.32.06.41.06.32,0,.54-.24.58.25,0,0-.05.1-.12.12-.18.07-.51-.17-.33.29-.4.07-.31.08-.33.08-.03,0-.15,0-.21,0-.02,0-.28-.08-.41-.04,0-.05.01-.27-.02-.29-.04-.03-.81-.15-.52.46-.02,0-.07.09-.5.08-.01,0-.09.07-.27.04-.06-.02-.34-.55-.99-.62-.04-.04-.02-.51-.02-.62-.01-.33,0-.66,0-.99.81-.09.38-.13.5-.31.04-.06,1.01-.98,1.08-1.01.08-.04.09-.03.17-.04Z"/>
            <path class="cls-85" d="M3.3,23.2c.51-.23.37.71.29.74-.53.24-.36-.71-.29-.74Z"/>
            <path class="cls-30" d="M1.69,23.24c.49-.22.39.62.29.66-.49.22-.39-.62-.29-.66Z"/>
          </g>
          <path class="cls-85" d="M4.52,23.57c0,.16,0,.33,0,.5-.09,0-.37.04-.41-.06-.12-.27.05-.65.41-.43Z"/>
          <g>
            <path class="cls-11" d="M5.18,23.24s-.04.22-.04.54c0,.17,0,.33,0,.5-.06,0-.04.04-.04.04-.04-.48-.26-.25-.58-.25,0-.16,0-.33,0-.5.04-.62-.04-.47-.04-.5,0-.03.13.05.08-.56.28-.01.19-.1.21-.1.02,0,.09.08.37.14-.04.23.03.46.04.68Z"/>
            <path class="cls-57" d="M4.87,23.36s.11.21.04.25c-.09.04-.08-.23-.04-.25Z"/>
          </g>
        </g>
      </g>
      <path class="cls-88" d="M14.37,19.31c.7.05.43.12.46.12v.21c-.12,0-.28.04-.41.04-.45,0-.42-.23-.5.25-.03.19.1.34-.17.37-.03,0-.3-.08-.58-.04,0-.01,0-.03,0-.04.01-.05-.02-.16,0-.19.11-.17.27.08.33-.19.03-.11-.06-.48.06-.54.27.01.54-.02.81,0Z"/>
      <path class="cls-23" d="M13.17,20.22s0,.03,0,.04c-.06.31,0,.35,0,.37,0,.01-.04-.02-.06.25-.22-.03-.43.02-.64.04-.12.01-.3.01-.29-.04-.07-.53.19-.26.35-.33.19-.08-.26-.43.64-.33Z"/>
      <path class="cls-100" d="M14.41,18.85s.13.29-.04.46c-.27-.02-.54.01-.81,0-.12.05-.03.43-.06.54-.52-.05-1.05-.05-1.57-.04l1.51-.04.14-.91h.83Z"/>
      <g>
        <path class="cls-87" d="M1.46,8.47c.23-.02.47.01.7,0,0,.08.06-.03.04.12-.01.11.02.26,0,.33,0,0-.07-.02-.12.06,0,.46.03.23-.12.23-.1,0-.41-.04-.46.06-.13.29.09.35.21.39-.1.02-.46-.05-.5.06-.02.07.03,1.22.04,1.41,0,.02.08.05.08.1,0,.2-.09.48-.04.7-.05,0-.44.08-.5.08-.32,0-.27.04-.29.04-.07,0-.47-.05-.5-.1-.04-.25.04-.52.04-.77.98.1.49-.19.58-1.47,0-.04.12-.07.12-.08.02-.18-.01-.37,0-.56.02-.22-.05-.46.06-.54.24.02.34-.06.64-.08Z"/>
        <path class="cls-14" d="M3.86,7.35c.17.02.41,0,.46.17.02.06-.02.24,0,.27.03.04.19.01.25.02-.08.63.25.22.33.46h-.08c-.15,0-.3,0-.46,0-.16,0-.35-.03-.5.04,0-.09.03-.37-.06-.41-.34,0-.68,0-1.01,0-.2,0-.39.03-.58.04-.02,0-.1-.07-.46-.04.03-.5.28-.2.48-.29.11-.05.03-.21.08-.25.06-.04,1.39-.02,1.55,0Z"/>
        <path class="cls-56" d="M.76,9.09c-.01.18.02.38,0,.56,0,.01-.12.04-.12.08-.08,1.28.4,1.57-.58,1.47,0-.68,0-1.37,0-2.05.2-.02.38-.02.58-.06.04,0,.08,0,.12,0Z"/>
        <path class="cls-87" d="M2.12,11.74c.05.23,0,.21,0,.33,0,.38.09.12.17.23.05.08-.18.33.41.27,0,0,.02-.05.04.17.02.22-.04.32-.04.39,0,.02.08.06.08.1,0,.46-.06.34-.5.29-.3-.04-.46.12-.41-.21.06.02.04.14.21.06v-.58c-.35,0-.23-.14-.25-.14v-.25c-.02-.14.02-.25.04-.37.03-.16-.08-.45.25-.29Z"/>
        <path class="cls-56" d="M4.32,13.27v.17c-.12.05-.23-.09-.29.08-.02.06.03.21-.02.25-.07.05-1.63.05-1.7,0-.05-.03-.01-.19-.02-.25.44.05.49.17.5-.29l1.53.04Z"/>
        <path class="cls-77" d="M2.21,7.93c.03.3-.04.51-.04.54-.23.01-.47-.02-.7,0v-.54c.09,0,.21-.04.29-.04.35-.02.43.04.46.04Z"/>
        <path class="cls-77" d="M1.83,12.65s-.1.14.25.14v.58c-.17.08-.15-.04-.21-.06-.02,0,.1-.12-.35-.08-.01,0-.05-.12-.06-.12.08-.24-.26-.18-.33-.5.16.03.63.01.7.04Z"/>
        <path class="cls-91" d="M.8,12.03c0,.1-.03.46,0,.52.04.06.27.05.33.06.07.32.41.26.33.5-.11-.02-.58.04-.62-.02-.02-.03.02-.38,0-.41-.09-.13-.43.29-.33-.6.01,0-.03-.04.29-.04Z"/>
        <path class="cls-67" d="M1.46,7.93v.54c-.3.02-.4.1-.64.08-.11.08-.05.31-.06.54-.04,0-.09,0-.12,0-.11-1.14.27-.61.37-.77.03-.04-.04-.35.02-.39.02-.02.34,0,.43,0Z"/>
        <path class="cls-112" d="M5.31,12.44c.05.07.04.13.04.21,0,.11,0,.22,0,.33-.76.02-.41.19-.5.31-.04.06-.26,0-.31.02-.13.06.12.27-.52.21.06-.17.17-.03.29-.08.02,0,.07,0,.1,0,.22-.45.38.18.35-.5.11-.09-.03-.44.1-.5.05-.02.3.01.43,0Z"/>
        <path class="cls-54" d="M2.21,8.92c.22.01.44-.02.66,0,.01,0-.02.07.29.04-.04.53.08.39.08.41.02.14-.32.4.46.33h.17c0,.21.04.35.04.37,0,.01-.12.21-.17.21-.77-.08-.49.1-.54,1.08-.29-.06-.23.18-.25.29l-.91-.04s-.04-.13-.04-.17c.05,0,.23.01.25-.02.03-.04.13-.92-.41-.6-.01-.35-.02-.77,0-1.12.01-.21-.02-.33.12-.5.15,0,.12.23.12-.23.06-.09.12-.06.12-.06Z"/>
        <path class="cls-8" d="M1.71,9.67s.07.06.12.04c-.02.35-.01.77,0,1.12,0,.12-.01.26,0,.37l-.5.04s-.08-.09-.08-.1c0-.19-.06-1.34-.04-1.41.04-.11.4-.04.5-.06Z"/>
        <path class="cls-109" d="M1.83,11.2c0,.07-.01.21,0,.23.03.04.12.01.17.02,0,.03.04.16.04.17.06.07.11.02.12.06.02.06-.04.06-.04.06-.33-.16-.22.13-.25.29-.14,0-.28.01-.41,0-.25-.02-.15-.08-.17-.08-.05-.22.05-.5.04-.7l.5-.04Z"/>
        <path class="cls-105" d="M1.46,12.03c.01.1-.02.33,0,.35.03.05.3,0,.37.02v.25c-.07-.03-.55-.01-.7-.04-.06-.01-.29,0-.33-.06-.03-.05,0-.42,0-.52.05,0,.45-.08.5-.08.01,0-.09.06.17.08Z"/>
        <path class="cls-5" d="M2.78,7.89l-.04.7c-.18,0-.36,0-.54,0,.02-.16-.04-.05-.04-.12,0-.03.08-.24.04-.54.19,0,.38-.05.58-.04Z"/>
        <path class="cls-68" d="M2.74,8.59c.16,0,.12.04.12.04v.29c-.22-.02-.44.01-.66,0,.02-.08-.01-.23,0-.33.18,0,.36,0,.54,0Z"/>
        <path class="cls-83" d="M1.96,9.21c-.15.17-.11.28-.12.5-.06.01-.08-.02-.12-.04-.12-.05-.34-.1-.21-.39.04-.1.36-.06.46-.06Z"/>
        <path class="cls-87" d="M4.89,8.26c.03.07-.05.24.06.29.25.11.31-.17.33.46h.43c-.11.46.07.44.46.41,0,.22,0,.44,0,.66,0,.19-.04.37-.04.56,0,.02.08.06.08.1,0,.18-.02.4-.04.58,0,0-.06-.05-.08.08-.09-.16-.27-.05-.35-.08-.07-.03-.33-.28-.43-.37-.05-.04-.08-.11-.17-.12,0-.1.01-.2-.04-.29.05,0,.5.01.52,0,.03-.02.03-.42.02-.43-.05-.07-.44.05-.5-.08-.02-.06.02-.28,0-.33-.11-.22-.33.31-.33-.56,0-.28.09-.59,0-.87h.08Z"/>
        <path class="cls-77" d="M3.86,8.3s-.07-.02-.04.29c-.06,0-.22.08-.25.08-.02,0,.01-.03-.33-.04-.13,0-.25,0-.37,0,0,0,.04-.04-.12-.04l.04-.7c.34,0,.68,0,1.01,0,.09.04.07.33.06.41Z"/>
        <path class="cls-67" d="M5.76,8.51s.06.27.08.33c-.09.03-.11.09-.12.17h-.43c-.02-.62-.08-.34-.33-.46-.11-.05-.04-.22-.06-.29-.08-.23-.41.17-.33-.46.13.01.65-.02.68,0,.08.65-.18.75.52.7Z"/>
        <path class="cls-77" d="M4.81,8.26c.09.28,0,.59,0,.87-.09-.1-.25-.1-.37-.12-.05-.13-.03-.24-.04-.37,0-.12.03-.26-.04-.37.15,0,.3,0,.46,0Z"/>
        <path class="cls-5" d="M4.36,8.26c.07.12.04.25.04.37-.28-.08-.35,0-.37,0-.02,0-.04-.05-.21-.04-.02-.31.04-.28.04-.29.14-.07.33-.04.5-.04Z"/>
        <path class="cls-42" d="M4.56,11.24c-.03.16.15.09-.21.35.31,1.31-.76.06-.7,1.06-.26.17-.59.01-.91.08-.02-.22-.04-.16-.04-.17-.02-.15-.06-.3-.04-.46-.03.32.62.36.72.29.06-.04-.02-.29.04-.33.11-.08.66.15.19-.5.04,0,.08,0,.12,0,.02,0,.28.09.35.04.02-.01.06-.32.06-.37h.41Z"/>
        <path class="cls-87" d="M4.77,12.89c-.35.13-.51-.14-.46.37l-1.53-.04s-.08-.08-.08-.1c0-.07.06-.17.04-.39.32-.07.65.08.91-.08,0,.02-.11.16.02.21.58.23-.03-.59,1.1-.23-.05.1-.01.16,0,.27Z"/>
        <path class="cls-62" d="M2.95,11.65c0,.05.01.12,0,.17-.04.16-.14.22-.29.25-.13.03-.38-.02-.54,0,0-.13.05-.1,0-.33,0,0,.06,0,.04-.06-.01-.04-.07.01-.12-.06l.91.04Z"/>
        <path class="cls-77" d="M2.66,12.07v.04c-.01.16.02.3.04.46-.6.06-.36-.19-.41-.27-.07-.11-.17.15-.17-.23.16-.02.4.03.54,0Z"/>
        <path class="cls-87" d="M1.87,12.03c-.03.13-.07.24-.04.37-.08-.01-.34.03-.37-.02-.02-.02.01-.25,0-.35.14.01.28,0,.41,0Z"/>
        <path class="cls-104" d="M4.77,12.94c.03.68-.13.05-.35.5-.03,0-.08,0-.1,0v-.17c-.05-.51.11-.25.46-.37,0,.01,0,.03,0,.04Z"/>
        <path class="cls-77" d="M4.94,10.99s.23.19.25.21c.23.21.28.21.29.23.01.03,0,.35,0,.43,0,.11.01.23,0,.33,0,.02-.11-.11-.17.25-.14.01-.39-.02-.43,0-.14.06,0,.4-.1.5,0-.01,0-.03,0-.04-.01-.1-.05-.17,0-.27-1.13-.36-.51.46-1.1.23-.13-.05-.02-.19-.02-.21-.05-1,1.01.25.7-1.06.35-.27.18-.19.21-.35.03-.16.04-.26.04-.41.2.13.32.15.33.17Z"/>
        <path class="cls-16" d="M3.74,10.29v1.28s-.08,0-.12,0c-.07,0-.14,0-.21,0,0-.01-.19-.2-.21-.21.05-.97-.23-1.15.54-1.08Z"/>
        <path class="cls-43" d="M4.11,10.08c.05.22.06,1,.04,1.16,0,.05-.05.36-.06.37-.07.05-.33-.04-.35-.04v-1.28s.16-.19.17-.21c.07,0,.14,0,.21,0Z"/>
        <path class="cls-8" d="M3.57,8.67c.01.11-.02.29,0,.33.09.22.27-.21.33.58,0,.03-.04.04-.04.12h-.17c.04-.42-.07-.33-.46-.33,0-.02-.12.12-.08-.41,0-.02.06-.25.08-.33.35,0,.31.04.33.04Z"/>
        <path class="cls-73" d="M2,11.45s-.14.02-.17-.02c-.01-.02,0-.16,0-.23-.01-.11,0-.25,0-.37.55-.32.44.56.41.6-.02.03-.2.03-.25.02Z"/>
        <path class="cls-55" d="M4.32,9.58c-.01.13.02.45,0,.48-.03.04-.15.02-.21.02-.07,0-.14,0-.21,0,0-.02-.04-.17-.04-.37,0-.09.04-.09.04-.12.14,0,.28,0,.41,0Z"/>
        <path class="cls-17" d="M3.41,11.57c.09.34-.16.24-.46.25.01-.05,0-.12,0-.17.02-.11-.04-.35.25-.29.01,0,.2.19.21.21Z"/>
        <path class="cls-100" d="M3.69,9.71c-.77.07-.43-.19-.46-.33.38,0,.5-.09.46.33Z"/>
        <path class="cls-100" d="M3.24,8.63c-.02.08-.08.31-.08.33-.31.02-.28-.04-.29-.04v-.29c.12,0,.25,0,.37,0Z"/>
        <path class="cls-23" d="M6.18,9.38s0,.03,0,.04c-.38.03-.56.05-.46-.41.02-.08.04-.14.12-.17.44-.13.32.18.33.54Z"/>
        <path class="cls-61" d="M6.01,11.98c.03.32-.32.2-.54.21.01-.1,0-.22,0-.33.18.01.32,0,.5-.04-.02.1.04.13.04.17Z"/>
        <path class="cls-93" d="M4.03,8.96c.15,0,.26.02.41.04.12.02.29.02.37.12,0,.86.22.34.33.56.02.05-.02.28,0,.33.06.13.45.01.5.08.01.02,0,.41-.02.43-.02.01-.46,0-.52,0-.41-.07-.17-.41-.5-.37-.02-.18-.07-.37-.04-.56-.09-.13-.16-.02-.25-.02-.14,0-.28,0-.41,0-.06-.79-.24-.36-.33-.58.15-.04.3-.04.46-.04Z"/>
        <path class="cls-116" d="M6.09,11.4c-.02.11.01.26,0,.37,0,0-.1.04-.12.04-.17.04-.32.05-.5.04,0-.09.01-.41,0-.43,0-.02-.06-.01-.29-.23.17-.07.18-.07.12-.25.1.09.37.35.43.37.09.03.26-.07.35.08Z"/>
        <path class="cls-103" d="M5.1,10.54c.06.09.05.19.04.29,0,.05.02.18-.02.21-.03.02-.09-.07-.19-.04-.01-.01-.13-.03-.33-.17,0-.2.02-.47,0-.66.33-.04.09.3.5.37Z"/>
        <path class="cls-116" d="M5.31,10.95c.06.17.05.17-.12.25-.01-.01-.24-.2-.25-.21.1-.03.16.06.19.04.04-.03.02-.15.02-.21.08.01.12.08.17.12Z"/>
        <path class="cls-83" d="M3.82,8.59c.17,0,.19.04.21.04v.33c-.16,0-.3,0-.46.04-.02-.05.01-.22,0-.33.03,0,.18-.08.25-.08Z"/>
        <path class="cls-5" d="M4.4,8.63c0,.13-.01.25.04.37-.15-.03-.26-.04-.41-.04v-.33s.09-.08.37,0Z"/>
        <path class="cls-16" d="M4.61,10.16c.02.19,0,.46,0,.66,0,.16-.01.26-.04.41h-.41c.02-.16,0-.94-.04-1.16.05,0,.18.02.21-.02.02-.03-.01-.35,0-.48.09,0,.16-.11.25.02-.03.19.03.37.04.56Z"/>
        <path class="cls-15" d="M3.61,11.57c.48.65-.08.42-.19.5-.06.04.02.29-.04.33-.11.08-.76.03-.72-.29v-.04c.15-.03.25-.09.29-.25.3-.01.55.09.46-.25.07,0,.14,0,.21,0Z"/>
      </g>
      <path class="cls-3" d="M23.02,13.02v.12c-.23-.09-.37,0-.58,0-.65-.03-.67-.08-.7-.08.02-.09-.03-.42.02-.46.05-.04,1.19-.04,1.24,0,.05.04,0,.33.02.41Z"/>
      <g>
        <path class="cls-56" d="M32.37,9.05s-.12.07-.37.04c-.05-.78-.16-.15-.31-.58-.49,0,.18-.36-.83-.25,0,.41-.14.31-.14.33-.57.07.03-.34-.66-.29.04-.5-.15-.29-.37-.29-.14,0-.28,0-.41,0l.08-.7c2.2-.1,1.28.25,1.51.41.04.03.46-.03.5,0,.05.04,0,.17.04.21.04.03.47-.03.54,0,.12.05.02.33.08.37.16.11.43-.38.35.74Z"/>
        <path class="cls-75" d="M32.95,10.16c0,.22.05,1.69,0,1.76-.04.06-.37,0-.43.02-.11.05-.04.3-.06.46-.15.02-.37-.02-.5,0v-.17c.03-.28-.04-.7,0-.95.08-.56.58.39.46-1.16.03,0,.28-.13.54.04Z"/>
        <path class="cls-53" d="M32.95,10.16c-.26-.18-.51-.04-.54-.04-.12,0-.23,0-.35,0,0-.11-.05-.23-.06-.33-.03-.19.01-.48,0-.7.26.03.35-.04.37-.04.07,0,.56.05.58.1,0,.34,0,.68,0,1.01Z"/>
        <path class="cls-88" d="M31.95,12.4c.13-.02.35.02.5,0-.06.55-.26.16-.37.31-.1.14.32.44-.62.41.04.37-.08.33-.08.35-.16.02-.58-.03-.64,0-.13.06.04.23-.19.29.15-.54.19-.25.43-.33.09-.03-.02-.08-.02-.08.11-.17.02-.19.06-.21.16-.07.41.21.35-.41.7.07.19-.26.58-.33Z"/>
        <path class="cls-40" d="M29.14,7.31c.07,0,.14,0,.21,0l-.08.7s-.06,0-.08,0c-.15,0-.3-.01-.46-.04-.1-.02-.3-.03-.29-.12,0,0-.02-.1.02-.12.42.23.18-.35.33-.41.04-.02.24,0,.35,0Z"/>
        <path class="cls-87" d="M28.48,12.03c.09-.02.42,0,.58,0,0,0-.01.04.04.04,0,.14,0,.28,0,.41,0,0-.07.05-.04.19.09.12.12.02.17.02-.02.14.04.12.04.12.12.86-.03.71-.37.66,0,0,.01-.08-.02-.08-.22-.05-.66.12-.72-.12.46.15.31-.05.33-.6-.03-.04-.12,0-.17-.02.03-.46-.11-.57.17-.62Z"/>
        <path class="cls-87" d="M30.22,13.51s-.02.07-.06.08c-.06.02-1.04-.09-1.26-.04v-.08c.34.05.49.2.37-.66l.93-.04.02.74Z"/>
        <path class="cls-56" d="M30.96,13.35s.11.05.02.08c-.25.08-.28-.21-.43.33-.08.02-1.56,0-1.63-.04-.04-.02-.01-.12-.02-.17.22-.05,1.2.06,1.26.04.04-.02.06-.08.06-.08,0,0-.02-.07.02-.08.04-.01.32,0,.72-.08Z"/>
        <path class="cls-87" d="M28.31,12.65s.14-.02.17.02c-.02.55.13.75-.33.6-.02-.06.02-.24,0-.27-.03-.04-.19-.01-.25-.02v-.25s.11-.16.41-.08Z"/>
        <path class="cls-67" d="M27.9,12.73v.25c-.08-.01-.17,0-.25,0v-.33c.36,0,.23.08.25.08Z"/>
        <path class="cls-87" d="M31.99,9.09c.01.22-.03.52,0,.7h-.25c-.1-.75-.27-.27-.48-.41-.2-.14.4-.33-.56-.37.02-.12-.02-.32,0-.41,0-.02.14.08.14-.33,1.01-.11.34.24.83.25.15.43.26-.2.31.58Z"/>
        <path class="cls-80" d="M30.71,8.59c-.02.09.02.29,0,.41-.33-.01-.28.04-.29.04-.04,0-.1-.04-.29-.04-.03-.28-.07-.42-.41-.37v-.21s0-.06,0-.08c.34.03.31-.04.33-.04.69-.05.09.36.66.29Z"/>
        <path class="cls-66" d="M29.26,8.01c.14,0,.28,0,.41,0,.07.1.04.22.04.33,0,.03,0,.06,0,.08-.18,0-.36-.01-.54,0v-.41s.06,0,.08,0Z"/>
        <path class="cls-87" d="M30.05,8.3s0,.07-.33.04c0-.11.02-.23-.04-.33.23,0,.41-.21.37.29Z"/>
        <path class="cls-14" d="M27.9,8.26v.04c-.25.12-.14.34-.17.39-.01.02-.15-.06-.23-.02-.11.06-.04.25-.06.31-.05.12-.28,0-.33.12-.09.22.23,1.01-.37.77,0-.15,0-.3,0-.46,0-.1-.02-.54,0-.56.04-.06.29,0,.35-.02.11-.05.04-.3.06-.39,0-.04.08-.02.08-.02.48.04.43-.08.46-.08.07-.02.14-.05.21-.08Z"/>
        <path class="cls-77" d="M28.44,7.85c-.01.1.19.1.29.12.01.09-.01.2,0,.29.04.25-.9.23-.83.04v-.04c.22-.1.41.04.33-.37.05,0,.16-.03.21-.04Z"/>
        <path class="cls-88" d="M28.23,7.89c.08.41-.11.27-.33.37-.06.03-.14.06-.21.08-.09-.8.26-.41.54-.46Z"/>
        <path class="cls-66" d="M31.99,9.79c.01.1.06.22.06.33.12,0,.23,0,.35,0,.13,1.55-.37.6-.46,1.16h-.74s0-.03,0-.04l.7-.02c-.34-.24-.36-.14-.33-.64.32-.07.11-.24.12-.46,0-.04.05-.24.04-.33h.25Z"/>
        <path class="cls-105" d="M31.95,11.28c-.04.25.03.67,0,.95l-.66.04c-.02-.21-.07-.45-.08-.66,0-.11,0-.22,0-.33h.74Z"/>
        <path class="cls-105" d="M31.95,12.23v.17c-.39.07.13.4-.58.33,0-.03-.03.18-.08-.46l.66-.04Z"/>
        <path class="cls-87" d="M31.21,11.61c0,.21.07.45.08.66.05.63.08.43.08.46.06.63-.19.34-.35.41-.04.02.05.04-.06.21-.41.09-.69.07-.72.08-.04.01-.02.08-.02.08l-.02-.74-.93.04s-.06.02-.04-.12c1.41.11.86-.25,1.06-.33.06-.02.29.02.33,0,.03-.02-.02-.31.02-.74h.58Z"/>
        <path class="cls-80" d="M29.18,8.01v.41s-.04.07-.37.04c0-.1-.06-.09-.08-.21-.01-.09.01-.2,0-.29.15.03.3.03.46.04Z"/>
        <path class="cls-87" d="M28.81,8.47s-.04-.14-.08.54c-.3.09-.66.19-1.03.23.15,1.13-.42.49-.54.74-.28.84.99.85.66.08.01-.04.07-.01.08-.02v1.39c.07.1.29.06.5.06.03,0,.06,0,.08,0v.54c-.27.05-.14.16-.17.62-.3-.08-.39.08-.41.08-.02,0,.11-.09-.25-.08,0-.18,0-.36,0-.54,0-.09.1-.52.02-.58-.03-.02-.38.02-.41,0-.1-.07.22-.32-.52-.25.04-.24-.04-.55-.04-.58,0-.21,0-.41,0-.62,0-.01.04-.04.04-.21.61.24.28-.55.37-.77.05-.12.28,0,.33-.12.03-.06-.05-.25.06-.31.07-.04.21.05.23.02.03-.05-.09-.27.17-.39-.07.19.87.21.83-.04.02.12.08.11.08.21Z"/>
        <path class="cls-37" d="M27.65,12.11c-.15.04-.31-.03-.46-.04.11-.86-.46-.1-.5-.74l.04-.04c.74-.07.42.18.52.25.03.02.38-.02.41,0,.08.06-.02.49-.02.58Z"/>
        <path class="cls-106" d="M30.59,11.49s.05.04.04.12c-.04.44.01.73-.02.74-.04.02-.27-.02-.33,0-.19.08.36.44-1.06.33-.04,0-.07.1-.17-.02-.03-.14.04-.18.04-.19.39.05.18-.12.29-.37,0,0-.03-.06.1,0l.06-.12c1.09.28,0-.67,1.03-.5Z"/>
        <path class="cls-19" d="M28.81,11.49c.11.47.29.04.25.54-.16,0-.49-.02-.58,0v-.54h.33Z"/>
        <path class="cls-41" d="M29.39,12.11c-.11.25.1.42-.29.37,0-.14,0-.28,0-.41.25,0,.28.04.29.04Z"/>
        <path class="cls-109" d="M30.71,9c.96.04.36.23.56.37.2.14.38-.34.48.41.01.09-.04.29-.04.33l-.41-.04c-.04-.71-.22-.22-.43-.37-.06-.04.04-.28-.08-.33-.14-.06-.54.16-.35-.33.01,0-.05-.06.29-.04Z"/>
        <path class="cls-100" d="M30.42,9.05c-.18.49.21.27.35.33.12.05.02.29.08.33.21.15.39-.34.43.37,0,.16,0,.34,0,.5,0,0-.08.12-.08.17-1,.19-.09-.89-.77-.79,0-.63-.75.26-.6-.83.14,0,.27-.12.29-.12.19,0,.25.04.29.04Z"/>
        <path class="cls-68" d="M29.72,8.43v.21c-.22.03-.16.06-.17.37-.28,0-.55,0-.83,0,.05-.68.08-.51.08-.54.33.03.35-.04.37-.04.18-.01.36,0,.54,0Z"/>
        <path class="cls-48" d="M29.72,8.63c.34-.05.38.1.41.37-.02,0-.15.12-.29.12-.3-.05-.27-.12-.29-.12,0-.32-.06-.34.17-.37Z"/>
        <path class="cls-55" d="M30.71,11.07h.5c0,.06,0,.11,0,.17,0,.01,0,.03,0,.04,0,.11,0,.22,0,.33h-.58c0-.08-.04-.09-.04-.12.02-.45.12-.39.12-.41Z"/>
        <path class="cls-109" d="M31.58,10.58c-.03.5,0,.4.33.64l-.7.02c0-.06,0-.11,0-.17,0-.11,0-.22,0-.33,0-.05.08-.16.08-.17.09-.01.21.02.29,0Z"/>
        <path class="cls-44" d="M31.71,10.12c0,.21.19.38-.12.46-.08.02-.2-.01-.29,0,0-.16,0-.34,0-.5l.41.04Z"/>
        <path class="cls-109" d="M28.73,9c0,.1.01.45,0,.48-.12.17-.65-.34-.62.52-.1,0-.12,0-.21.04-.02,0-.07-.02-.08.02.33.77-.95.76-.66-.08.11-.26.69.39.54-.74.38-.04.73-.14,1.03-.23Z"/>
        <path class="cls-8" d="M28.11,10c.06,0,.22-.02.25.02-.03.23.03.46.04.68,0,.16,0,.33,0,.5v.29c-.21,0-.43.04-.5-.06v-1.39c.09-.05.11-.05.21-.04Z"/>
        <path class="cls-68" d="M28.81,11.2c0,.1-.02.2,0,.29h-.33s-.06,0-.08,0v-.29h.41Z"/>
        <path class="cls-16" d="M30.71,11.07s-.1-.04-.12.41c-1.04-.17.06.78-1.03.5-.11-1.19.29-.65.48-.79.11-.08-.27-.15.62-.29,0,.05.06.15.06.17Z"/>
        <path class="cls-100" d="M28.81,11.2h-.41c0-.16,0-.33,0-.5.59-.04.37.01.41.5Z"/>
        <g>
          <path class="cls-54" d="M29.55,9s-.01.07.29.12c-.15,1.09.6.2.6.83.68-.1-.24.97.77.79,0,.11,0,.22,0,.33h-.5s-.06-.12-.06-.17c-.89.14-.51.21-.62.29-.19.13-.59-.41-.48.79l-.06.12c-.13-.06-.1,0-.1,0-.01,0-.04-.03-.29-.04-.05,0-.04-.04-.04-.04.04-.49-.14-.07-.25-.54-.02-.09,0-.19,0-.29-.04-.48.17-.53-.41-.5-.01-.22-.08-.45-.04-.68-.03-.04-.19-.02-.25-.02-.03-.86.5-.35.62-.52.01-.02,0-.38,0-.48.28,0,.55,0,.83,0Z"/>
          <path class="cls-100" d="M29.82,10.29c.36-.26.54.4.33.5-.44.2-.39-.46-.33-.5Z"/>
        </g>
      </g>
      <path class="cls-94" d="M22.6,21.38c.14.03.27-.05.08.33-.31.01-.19.08-.21.08-1.42.05-.92-.05-1.03-.31,0-.02-.35-.14-.37-.14,0-.07.01-.17,0-.21.67-.19.45.2.52.25.05.03.84-.03,1.01,0Z"/>
      <g>
        <path class="cls-101" d="M32.45,22.04c.08,0,.47-.02.5.02-.06.35.08,2.7,0,2.81-.05.07-.52-.05-.58.08.09,1.23-.21.68-.39.81-.06.04.02.33-.04.37-.04.03-.65-.03-.7,0-.03.02-.04.27-.08.29-.05.03-.35-.04-.39.02-.02.03.05.22-.06.27-.16.07-1.63-.03-1.92-.04-.02-.4-.23.14-.29-.46-.01-.13.02-.69,0-.72-.09-.13-.4.25-.41-.43.12.02.04.04.25.12.31.13.25.2.27.21.11.02.44-.01.64,0,.24.01.28.04.29.04.02.1-.03.54.02.58.04.03.99.03,1.03,0,.22-.16-.49-.49.72-.54.03,0,.3.1.58.02v-.7s-.22-.01-.29-.02v-.5c.09.01.76.01.79-.02v-1.41c-.14,0-.28-.04-.41-.06,0-.23,0-.47,0-.7.16-.06.33-.04.5-.04Z"/>
        <path class="cls-6" d="M31.29,20.55c-.02.66.6.26.77.37.06.04,0,.25.02.31.1.22.36-.36.37.81-.17,0-.33-.02-.5.04-.01-.27.05-.54-.06-.62-1.13-.12-.59.33-.72.52-.06.08-.35-.02-.37-.02-.01-.13.02-.45,0-.48-.01-.02-.43-.06-.5-.06-.02-.09.03-.5-.02-.54-.04-.03-1.03-.03-1.08,0-.05.04,0,.48-.02.58-.13,0-.21.05-.35.04-.01,0-.22-.08-.23-.08-.02-.14.02-.4,0-.48-.03-.09-.34-.02-.41-.06.03-.08-.05-.22.06-.29.95.07.55-.14.64-.31.04-.08,1.68-.1,1.76-.06.19.08-.26.43.64.33Z"/>
        <path class="cls-115" d="M28.6,21.42c-.13-.02-.28.01-.41,0,0-.01-.08-.24-.08-.25,0-.07.03-.1.04-.17,0-.01.03-.08.04-.12.07.04.38-.03.41.06.02.07-.02.34,0,.48Z"/>
        <path class="cls-112" d="M28.15,21c0,.07-.04.1-.04.17-.33-.13-.08.26-.41.21,0,0-.04.01-.04-.04-.01-.14-.01-.34.04-.33.15,0,.3,0,.46,0Z"/>
        <path class="cls-101" d="M28.23,22.78c0,.31.02.64,0,.95,0,.04-.37.64.29.54.02.13.08.32.08.46,0,.38,0,.47-.29.46-.21-.08-.13-.1-.25-.12-.09-.02-.23.01-.33,0,.1-.43-.17-.41-.54-.37-.04-.28.03-.56.04-.83.78.19.48-.13.54-.66.04-.43,0-.49.46-.41Z"/>
        <path class="cls-113" d="M31.33,24.11c-.03.11.16.15.25.17v.5s-.28.02-.29.06v.64c-1.21.05-.5.38-.72.54-.04.03-.99.03-1.03,0-.05-.04,0-.48-.02-.58,0,0,.06-.08.12-.08.03,0,.37.08.52.04.05-.03.1-.3.1-.33.42,0,.54-.04.58-.46.44.03.32,0,.33-.46.07,0,.1-.03.17-.04Z"/>
        <path class="cls-7" d="M31.95,22.08c0,.23,0,.47,0,.7-.08-.01-.15.05-.33.04-.02,0-.03-.18-.41-.08.04-1.05-.69-.17-.83-.74.15,0,.27-.03.41-.04.02,0,.31.1.37.02.13-.19-.41-.64.72-.52.11.08.05.35.06.62Z"/>
        <path class="cls-79" d="M31.95,22.78c.14.02.28.06.41.06v1.41s-.69.03-.79.02c-.09-.01-.28-.06-.25-.17.07,0,.17.01.21,0,.03-.01.1.02.12-.02.03-.3-.02-.59-.04-.89,0,0,0-.07,0-.12,0-.08,0-.17,0-.25.18,0,.25-.05.33-.04Z"/>
        <path class="cls-89" d="M27.73,25.06c.1.01.24-.02.33,0,.01.69.32.31.41.43.02.03-.01.59,0,.72-.13-.07-.28-.03-.41-.04-.01-.12.02-.49,0-.52-.04-.06-.33-.02-.41-.02-.01,0-.03,0-.04,0-.06-.77.12-.55.12-.58Z"/>
        <path class="cls-25" d="M31.58,24.77c.06,0,.26-.02.29.02v.7c-.28.08-.55-.02-.58-.02v-.64s.26-.07.29-.06Z"/>
        <path class="cls-101" d="M29.22,25.39c-.2-.01-.54.02-.64,0-.02,0,.04-.08-.27-.21.3.01.29-.08.29-.46.4-.11.18.23.27.29.12.08.32-.24.35.37Z"/>
        <path class="cls-101" d="M28.6,21.42s.22.08.23.08c.14,0,.22-.04.35-.04.03,0,.06,0,.08,0,0,.02.08.08.08.08l-1.12.99s-.09-.12-.12-.6c0-.03.08-.41.08-.52.13.01.28-.02.41,0Z"/>
        <path class="cls-32" d="M30.3,21.42c-.32-.01-.7.04-1.03.04-.03,0-.06,0-.08,0,.02-.1-.03-.54.02-.58.04-.03,1.03-.03,1.08,0,.05.04,0,.44.02.54Z"/>
        <path class="cls-8" d="M30.79,21.96c-.14.01-.27.04-.41.04-.1,0-.19,0-.29,0-.08-.36,0-.37,0-.39-.03-.1-.29-.05-.37-.06-.12-.01-.27.02-.37,0,0,0-.08-.06-.08-.08.34,0,.71-.06,1.03-.04.06,0,.48.04.5.06.02.03-.01.35,0,.48Z"/>
        <path class="cls-6" d="M27.73,25.06s-.18-.19-.12.58c-.15,0-.3,0-.46,0,0-.85-.39-.02-.46-.87.63.04.47-.08.5-.08.36-.04.64-.06.54.37Z"/>
        <path class="cls-3" d="M28.06,26.18c-.08,0-.38.02-.41-.02-.02-.03.01-.39,0-.52.08,0,.37-.04.41.02.02.03-.01.39,0,.52Z"/>
        <path class="cls-58" d="M28.11,21.17s.08.24.08.25c0,.11-.08.49-.08.52.03.48.12.57.12.6,0,.08,0,.17,0,.25-.46-.07-.41-.02-.46.41l-.54.04s-.03.03-.04-.08c-.03-.26.21-.43-.5-.29-.09-.32-.7.14-.54-.46.12-.44,1.12.09.95-.5.17,0,.35,0,.52,0,.1-.04.07-.44.06-.54.34.06.08-.33.41-.21Z"/>
        <path class="cls-6" d="M27.2,23.15c.01.11.04.08.04.08.01.19,0,.42,0,.62,0,.27-.08.55-.04.83-.03,0,.13.12-.5.08,0-.08,0-.32,0-.46,0-.14,0-.27,0-.41,0-.19.06-.4.04-.6,0-.03-.08,0-.08-.06,0,0,.07.02.04-.12l.5.04Z"/>
        <path class="cls-72" d="M27.77,23.2c-.05.54.24.85-.54.66,0-.2.01-.43,0-.62l.54-.04Z"/>
        <g>
          <path class="cls-60" d="M30.09,22c.1,0,.19,0,.29,0,.13.58.86-.31.83.74-.25.06-.03.12-.19.33h.6c0,.06,0,.12,0,.12-.55-.08-.09.41-.41.5-.7.18.08-.76-.7-.77.08-.74-.63.24-.58-.89.01,0,.15-.04.17-.04Z"/>
          <path class="cls-38" d="M31.62,23.2c.02.3.07.59.04.89-.02.04-.09.01-.12.02-.06-.1-.32,0-.37-.06-.02-.02.07-.2.04-.35.32-.08-.13-.57.41-.5Z"/>
          <path class="cls-60" d="M30.17,24.93h-.5s-.08-.28-.04-.56c.7-.23.51.07.54.56Z"/>
          <g>
            <path class="cls-33" d="M29.72,21.54c.03.3-.13.42.21.5-.05,1.13.66.14.58.89.78,0,0,.95.7.77.03.15-.06.33-.04.35.06.07.31-.04.37.06-.04.01-.13,0-.21,0-.07,0-.1.04-.17.04-.02,0-.23-.13-.37.02-.03.3.04.41.04.43-.04.41-.16.46-.58.46,0,0-.08-.06-.08-.12-.03-.48.16-.79-.54-.56-.04.28.04.53.04.56,0,.02-.07.08-.04.41-.06,0-.12.08-.12.08-.01,0-.05-.03-.29-.04-.04-.61-.24-.29-.35-.37-.09-.06.13-.4-.27-.29,0-.13-.07-.32-.08-.46-.05-.42.17-.54-.29-.54.02-.31,0-.64,0-.95,0-.08,0-.17,0-.25l1.12-.99c.11.02.26-.01.37,0Z"/>
            <path class="cls-90" d="M29.86,23.11c.65-.15.52,1-.1.6.03-.17-.08-.56.1-.6Z"/>
          </g>
          <path class="cls-45" d="M30.17,24.93c0,.06.08.12.08.12,0,.03-.05.3-.1.33-.15.04-.49-.04-.52-.04-.03-.34.04-.39.04-.41h.5Z"/>
          <path class="cls-85" d="M28.52,24.27c-.65.1-.29-.49-.29-.54.46,0,.24.12.29.54Z"/>
          <path class="cls-39" d="M31.17,24.15c0,.45.1.49-.33.46,0-.02-.07-.13-.04-.43.14-.15.35-.02.37-.02Z"/>
          <path class="cls-45" d="M30.09,22s-.16.04-.17.04c-.33-.08-.18-.19-.21-.5.08,0,.34-.04.37.06,0,.02-.08.04,0,.39Z"/>
          <path class="cls-114" d="M31.21,22.74c.39-.09.39.08.41.08,0,.08,0,.17,0,.25h-.6c.16-.21-.06-.27.19-.33Z"/>
        </g>
        <path class="cls-68" d="M25.91,21.91c.38,0,.82.02,1.2,0,.16.59-.83.06-.95.5-.1-.24-.55.18-.46-.46.01,0,.13-.04.21-.04Z"/>
        <path class="cls-54" d="M25.91,21.91c-.08,0-.2.04-.21.04-.74-.05-.32-.14-.46-.39-.05-.09-.3-.04-.37-.06.05-.06.04-.1.04-.17h.89l.1.58Z"/>
        <path class="cls-112" d="M27.2,23.15l-.5-.04c-.01-.08.02-.19,0-.25.71-.14.46.03.5.29Z"/>
      </g>
      <path class="cls-88" d="M16.77,20.63c-.02.1.04.08.04.08.09.42-.07,5.71,0,6.91-.06,0-.03.08-.06.08-.17,0-.41-.05-.56-.04v-7.03c.19,0,.4.02.58,0Z"/>
      <path class="cls-58" d="M17.22,20.42s.11.04-.06.17c-.13-.04-.27.03-.39.04-.18.02-.39,0-.58,0-.02,0-.06-.04-.41-.04v-.25l1.45.08Z"/>
      <g>
        <path class="cls-101" d="M19.13,28.78c0,.21,0,.43,0,.64.02.05.44.1.5.1,0,.29,0,.58,0,.87,0,.28.03.55.04.83.02.73.08.59.08.62,0,0-.08-.01-.08.02-.01.09.04.31-.06.35-.07.03-.43-.04-.48.02-.03.04.03.66,0,.7-.05.07-.36-.04-.41.08-.03.06.04.31-.02.35-.04.03-.52-.03-.58,0-.05.03-.05.31-.08.33-.04.03-.43-.03-.5,0-.11.05-.03.25-.08.29-.08.05-1.82.04-1.9,0-.12-.05-.02-.29-.08-.33-.03-.02-.2.01-.27,0,.39-1.04-.21-.57-.29-.77-.02-.05.02-.29,0-.39.82-.04.26.44,1.2.33-.12.7.23.39,1.22.46.04,0,.01-.12.02-.12.52-.07.79.28.7-.41.01,0,.03,0,.04,0,.09,0,.48.1.54.02-.03-.72.13-.74-.29-.72,0-.14,0-.28,0-.41l.7-.06c-.03-.28.04-1.36,0-1.45-.1-.22-.56.46-.33-1.3.02,0,.27-.08.41-.04Z"/>
        <path class="cls-101" d="M13.91,29.49c0,.09.05.62.04.87,0,.05-.12-.04-.08.87,0,.09-.01.46,0,.48.13.19.46-.5.46.97.02.65.44-.09.37.7-.44-.05-.46.18-.48-.37-.84.15.2-.98-.87-.79-.01-.05-.1-.35-.1-.37,0-.03.04.12.04-.62,0-.22,0-1.6.04-1.68.05-.12.46-.04.58-.06Z"/>
        <path class="cls-7" d="M14.91,32.51c.02.11-.02.34,0,.39.08.19.68-.27.29.77-.06-.01-.21.02-.23,0-.11-.08.18-.24-.27-.29.07-.8-.35-.06-.37-.7-.02-.54.53-.39.58-.17Z"/>
        <path class="cls-107" d="M15.53,29.49s-.13-.01-.14,0c-.14.15.17.33-.27.41-.18.04-.42-.08-.54.1.06.48-.04.33-.04.35h-.58c0-.25-.05-.78-.04-.87,0-.01,0-.03,0-.04.09-.59.35-.21.46-.35.02-.03-.02-.34,0-.37.08-.12.35.23.33-.43.42-.05.17-.05.25-.17,1.04-.2-.04,1.22.58,1.37Z"/>
        <path class="cls-7" d="M18.3,28.78c.35,0,.39.04.41.04-.22,1.76.24,1.09.33,1.3.04.09-.03,1.17,0,1.45l-.7.06s0-.03,0-.04c.01-.33.02-.66,0-.99,0-.17,0-.35,0-.52-.13,0-.25-.04-.37-.06.03-.29-.04-.51-.04-.54-.01-.21-.02-.51.04-.7.11,0,.22,0,.33,0Z"/>
        <path class="cls-111" d="M14.58,31.22c.05.51-.04.62.54.58.45.56.69.47.7.52.1.26-.22.34.29.39v.12c-.94.11-.38-.37-1.2-.33-.05-.23-.6-.37-.58.17,0-1.47-.32-.78-.46-.97-.01-.02,0-.39,0-.48h.7Z"/>
        <path class="cls-113" d="M18.34,31.6s0,.03,0,.04c0,.14,0,.28,0,.41-.06,0-.22-.02-.25.02-.02.03.02.55,0,.68-.01,0-.03,0-.04,0-.19,0-.67.04-.7.04-.09,0-.2-.08-.25-.17l.83-.89v-.14h.41Z"/>
        <path class="cls-113" d="M17.35,32.8v.37s.02.12-.02.12c-.99-.06-1.34.25-1.22-.46v-.12c.3.03.66-.02.97,0l.02-.08c.05.08.16.16.25.17Z"/>
        <path class="cls-25" d="M18.34,32.05c.42-.02.26,0,.29.72-.06.08-.45-.02-.54-.02.02-.14-.02-.65,0-.68.03-.04.19-.02.25-.02Z"/>
        <path class="cls-101" d="M18.05,32.75c.09.69-.18.35-.7.41v-.37s.51-.04.7-.04Z"/>
        <path class="cls-78" d="M14.53,30.35s.03.76.04.87h-.7c-.04-.91.08-.82.08-.87h.58Z"/>
        <path class="cls-101" d="M15.86,27.71c.71.13-.33.62,1.14.5.05.02-.03.05-.02.08h-.97s-.01.56-.02.66c0,.09,0,.18,0,.27-.02.05-.37.22-.46.27-.62-.15.46-1.56-.58-1.37.13-.18.4-.03.48-.08.06-.04-.02-.29.04-.33.02-.01.31,0,.39,0Z"/>
        <path class="cls-6" d="M18.3,28.08c-.01.23.01.47,0,.7-.11,0-.22,0-.33,0-.15,0-.39,0-.5,0-.16-.01-.41.04-.46-.06-.03-.06.02-.26-.04-.43-.01-.03.07-.06.02-.08-1.47.13-.42-.37-1.14-.5.16-.01.31-.04.33-.04.15,0,.38.04.56.04.03,0,0-.08.06-.08,1.02,0,.55.28.68.37.09.06.47,0,.5,0,.03,0,.06.44.31.08Z"/>
        <path class="cls-1" d="M18.34,30.6c.02.33.01.66,0,.99h-.41c.08-.12-.09-.17-.08-.29.01-.43-.06-.83.5-.7Z"/>
        <path class="cls-101" d="M17.97,28.78c-.06.19-.05.49-.04.7-.17,0-.33,0-.5,0l.04-.7c.11,0,.35,0,.5,0Z"/>
        <path class="cls-82" d="M16.98,28.29c.06.17.01.37.04.43.05.1.29.05.46.06l-.04.7s-.06,0-.08,0c-.16,0-.31-.03-.46-.04.06-.7-.06-.46-.54-.46-.02,0-.12-.07-.37-.04.01-.11-.03-.63.02-.66h.97Z"/>
        <g>
          <path class="cls-8" d="M15.11,29.9v1.9c-.58.04-.49-.07-.54-.58,0-.1-.04-.83-.04-.87,0-.02.1.12.04-.35.12-.19.36-.07.54-.1Z"/>
          <path class="cls-60" d="M17.35,29.49l.02.5c.08.05.48.02.6.04.12.02.25.05.37.06,0,.17,0,.35,0,.52-.56-.13-.48.27-.5.7-.76.11-.43-.2-.5-1.26-.57-.08-.67.17-.62-.52,0,0,.16-.08.17-.08.15,0,.3.04.46.04Z"/>
          <path class="cls-22" d="M17.43,29.49c.17,0,.33,0,.5,0,0,.03.08.25.04.54-.12-.02-.51,0-.6-.04l-.02-.5s.06,0,.08,0Z"/>
          <path class="cls-28" d="M16.89,29.44s-.16.08-.17.08c-.42-.03-.5-.09-.37-.54.48,0,.6-.24.54.46Z"/>
          <g>
            <path class="cls-33" d="M16.36,28.99c-.13.45-.05.51.37.54-.05.69.05.44.62.52.07,1.06-.26,1.38.5,1.26,0,.12.17.17.08.29v.14l-.83.89-.02.08c-.31-.02-.67.03-.97,0-.51-.05-.19-.13-.29-.39-.02-.04-.26.05-.7-.52v-1.9c.44-.09.13-.27.27-.41.01-.01.12.01.14,0,.08-.05.43-.22.46-.27,0-.09,0-.18,0-.27.26-.03.35.04.37.04Z"/>
            <path class="cls-60" d="M16.38,31.72c.48-.21.85.23.64.52-.02.03-.65.04-.68.02-.03-.02-.06-.49.04-.54Z"/>
            <path class="cls-108" d="M16.62,30.56c.49-.22.39.62.29.66-.51.23-.37-.62-.29-.66Z"/>
          </g>
        </g>
      </g>
      <path class="cls-56" d="M17.22,19.89c.03.05.04.06.04.12.01.16,0,.26-.04.41l-1.45-.08v-.37s-.01-.08.02-.08c.44-.02,1.12.04,1.43,0Z"/>
      <path class="cls-100" d="M13.75,20.3c.06.46-.15.31-.58.33,0-.02-.06-.07,0-.37.28-.04.55.04.58.04Z"/>
      <path class="cls-100" d="M14.41,19.68c.07.37-.2.33-.5.25.08-.48.05-.25.5-.25Z"/>
      <path class="cls-23" d="M19.17,14.22c.05.3.27.19.5.21,0,.05-.04-.04-.04.17,0,.11,0,.22,0,.33-.47,0-.23.38-.29.66-.01.06-.36.25-.08.58,0,0-.06.1-.12-.02.05-.69-.12-.49-.12-.52-.02-.09.03-.42-.02-.46-.11-.08-.45-.15-.35.46,0,.01.07.19.08.21-.47-.12-.14-.61-.27-.7-.04-.03-.52.02-.64,0-.28-.06-.18-.32-.08-.54.67.07,1.2.07,1.03-.37.12.02.28-.01.41,0Z"/>
      <path class="cls-47" d="M15.69,14.38c.02.26-.08.22-.25.25-.09.01-1.41.04-1.47,0-.05-.03,0-.26-.02-.33.05,0,.35-.12.37-.12.68-.03,1.35-.09,1.37.21Z"/>
      <path class="cls-96" d="M18.76,14.22c.17.44-.36.44-1.03.37-.22-.02-.31.07-.29-.25,0-.07-.02-.17.06-.21.05-.03,1.07-.01,1.2,0,.03,0,.06.08.06.08Z"/>
      <path class="cls-100" d="M19.71,13.76c.03.23-.02.44-.04.66-.23-.01-.45.09-.5-.21,0-.02.07-.4.06-.5.31-.03.45.04.48.04Z"/>
      <path class="cls-100" d="M20.7,13.18c.05.09.06.23.04.33-.01.07.03.16-.06.21-.03.02-.19,0-.27,0-.16.02-.19-.04-.21-.04.03-.73.02-.41.5-.5Z"/>
      <path class="cls-40" d="M22.48,11.61c-.23-.03-.15-.07-.21-.08v-.54c.4.03.58.12.21.62Z"/>
      <path class="cls-3" d="M12.18,13.06v.54c-.24-.02-.5.02-.74,0v-.5c.13,0,.14-.04.17-.04.19,0,.39-.01.58,0Z"/>
      <path class="cls-100" d="M12.63,13.68c-.09,0-.09.04-.12.04-.41-.05-.31-.12-.33-.12v-.54c.08,0,.43-.02.46.02.02.03-.02.47,0,.6Z"/>
      <path class="cls-100" d="M13.62,14.26s-.35.13-.41-.02c-.02-.05.02-.37,0-.52.27.02.47-.31.41.54Z"/>
      <path class="cls-88" d="M25.33,10.74c0,.11.02.65,0,.68-.04.06-.44-.01-.52.02-.11.05-.03.21-.08.25-.06.04-.47-.31-.46.66l-1.34-.02c.64-.26-.51-.83,1.3-.68.08-.95.27-.45.46-.58.06-.04-.04-.28.08-.33.05-.02.42.01.56,0Z"/>
      <path class="cls-68" d="M18.51,19.97s.26.11.5,0c.07.54.17-.08.25.37.01.07-.03.3.02.33h.72c.04.1.03.19.1.25.01.01.22.02.35.04-.08.6.18.29.62.37.02,0,.36.13.37.14.11.26-.39.36,1.03.31-.02.15.15.01.21.17-.04.63-.3.08-.37.54-.17-.08-.39-.04-.58-.04-.09,0-.54.02-.56,0-.06-.04.02-.49-.04-.54-.05-.03-1.15.03-1.2,0-.07-.05.05-.56-.08-.62-.17-.03-1.19.04-1.24,0-.08-.05.06-.59-.08-.66-.38.1-1.47-.08-1.7,0-.03.01-.02.05-.02.08,0,0-.06.01-.04-.08.12-.01.26-.08.39-.04.17-.12.06-.16.06-.17.04-.15.05-.25.04-.41.41,0,.83-.04,1.24-.04Z"/>
      <path class="cls-88" d="M20.37,25.55c0-.08-.02-.38.02-.41,1.08.19.47-.61.66-.74.12.05.57-.05.6-.04.15.03.55.39.27.54-.93-.17-.42.55-.58.66-.04.03-.82-.02-.97,0Z"/>
      <path class="cls-2" d="M22.31,22.49c-.02.12.02.38,0,.43-.05.11-.28.04-.41.06-.3-.08-.2-.29-.17-.54.19,0,.41-.03.58.04Z"/>
      <g>
        <path class="cls-12" d="M9.49,19.27c.04.2.12.23.12.25,0,.02-.09.32-.04.39.04.06.28-.04.33.08.09.22-.22.49.46.31.01.13-.06.37.35.25.21-.06.12-.11.14-.29.58.14.5.01.5-.46.18,0,.36,0,.54,0,.01,0,.03,0,.04,0,.52,0,1.05,0,1.57.04-.07.27-.22.02-.33.19-.02.02.01.14,0,.19-.9-.1-.45.25-.64.33-.16.07-.42-.2-.35.33-.28.06-.19.12-.21.12-.03,0-.48-.09-.56-.04-.17.12.59.6-1.55.37-.02-.17.06-.4-.41-.29-.1-.06,0-.33-.06-.37-.03-.02-.32.01-.43,0,0-.03-.02-.62-.04-.64-.12-.17-.53.42-.41-.81.05-.53.12-.29.12-.37.15.09.43.01.48.04.07.05-.14.54.39.37Z"/>
        <path class="cls-9" d="M8.66,18.31c-.01.18-.02.36-.04.54,0,.08-.07-.16-.12.37l-.37-.04c0-.42-.04-.71-.04-.74,0,0,.08-.06.08-.12h.5Z"/>
        <path class="cls-71" d="M8.66,16.41c0,.39,0,.77,0,1.16h-.5c.03-.2,0-.83-.04-1.08.03,0,.24-.22.54-.08Z"/>
        <path class="cls-68" d="M11.43,13.89s-.07.12.23.08c.21.39.66.52.72.95.01.07.01.31,0,.37-.69-.02-.48,0-.54.17-.06.17-.03.31-.06.33-.03.02-.24-.02-.31,0,0-.05,0-.11,0-.17-.01-.07-.04-.4-.06-.41-.03-.02-.64.02-.79,0-.1.07-.05.24-.06.41-.01.21-.01.53,0,.74h-.37l-.54.02c-.03.24.03.48.04.72-.28-.11-.17.67-.17,1.39,0,.02-.12.25-.08.41,0,.02.34.26.04.35-.53.17-.33-.33-.39-.37-.04-.03-.32.05-.48-.04.02-.18.03-.36.04-.54.02-.22,0-.44,0-.66,0-.03,0-.06,0-.08,0-.39,0-.77,0-1.16.04-.14-.33-.1-.6-.04,0-.16-.06-.51-.06-.54,0-.21.04-.16.04-.17l.74-.06-.04-.81c.07,0,.12-.08.12-.08.02,0,.11.07.39.04.15-.13.02-.39.02-.41.01-.08.08-.12.08-.12,0,.2.36-.01.64.08.02-.43.61-.06.7-.41.04,0,.67-.01.72,0Z"/>
        <path class="cls-100" d="M8.74,14.8l.04.81-.74.06c.09-.29.38.16.29-.83.12,0,.29-.03.41-.04Z"/>
        <path class="cls-100" d="M8.66,17.65c0,.22.02.45,0,.66h-.5c.05-.51-.2-.85.5-.66Z"/>
        <path class="cls-10" d="M10.19,16.82c.12-.02.28,0,.41,0,.22,0,.49-.01.7,0,.25.02.5.06.74.06l.02,2.05c1.06.14.46-.41.7-.5.01,0,.28,0,.29,0,.06.04-.04.28.08.33.04.02.37.06.35,0l.08.08-.14.91-1.51.04s-.03,0-.04,0c.12-.78-.49-.37-.54-.37-.02,0,.05-.09-.41-.12-.08-.96.62.39.46-1.55l-1.43-.06-.02-.81c.07-.1.16-.05.25-.06Z"/>
        <path class="cls-13" d="M9.69,17.11c.03.6.13,1.2.08,1.8.59-.03.29.32.39.39.08.06.73,0,.77,0,.47.03.39.12.41.12v.37c-.09,0-.46-.01-.48,0-.05.03-.01.37-.02.46-.02.18.06.23-.14.29-.41.12-.34-.12-.35-.25-.01-.12.02-.35,0-.39-.06-.13-.43-.03-.48-.06-.09-.07.14-.42-.27-.33,0-.01-.09-.05-.12-.25.3-.09-.04-.33-.04-.35-.04-.16.08-.39.08-.41,0-.72-.12-1.49.17-1.39Z"/>
        <path class="cls-73" d="M10.36,20.3c-.68.18-.36-.09-.46-.31-.05-.12-.29-.02-.33-.08-.05-.07.04-.37.04-.39.41-.09.18.26.27.33.05.03.42-.06.48.06.02.05-.01.27,0,.39Z"/>
        <path class="cls-100" d="M11.35,19.8c0,.47.08.59-.5.46,0-.08-.03-.42.02-.46.02-.01.39,0,.48,0Z"/>
        <path class="cls-73" d="M11.89,19.8c-.18,0-.36,0-.54,0v-.37s.66-.4.54.37Z"/>
        <path class="cls-70" d="M11.18,13.06s-.03.04.25.04v.79s-.69,0-.72,0c-.09.35-.68-.02-.7.41-.28-.09-.64.12-.64-.08.02-.12-.02-.35,0-.41,0-.02.13.15.23-.37.9.11.51-.25.62-.33.04-.03.82-.03.97-.04Z"/>
        <path class="cls-100" d="M9.28,14.34s.13.28-.02.41c-.28.03-.37-.04-.39-.04.01-.08-.03-.34.02-.37.03-.02.3.01.39,0Z"/>
        <path class="cls-70" d="M10.19,16.37v.46c-.09.01-.18-.04-.25.06l.02.81,1.43.06c.16,1.94-.53.59-.46,1.55-.04,0-.68.06-.77,0-.11-.07.2-.42-.39-.39.05-.6-.05-1.2-.08-1.8-.01-.24-.07-.48-.04-.72l.54-.02Z"/>
        <path class="cls-42" d="M12.18,13.6s-.08.08.33.12c-.17.82.57.42.66.56.02.03-.02.47,0,.6-.25,0-.53.09-.79.04-.07-.43-.52-.56-.72-.95-.3.03-.21-.08-.23-.08v-.29c.24.02.51-.02.74,0Z"/>
        <path class="cls-36" d="M11.47,15.62c0,.05,0,.11,0,.17-.33.07-.1.75-.17,1.03-.21-.01-.49,0-.7,0,.04-.15-.03-.31-.04-.46-.01-.21-.01-.53,0-.74h.91Z"/>
        <path class="cls-63" d="M11.47,15.62h-.91c.01-.17-.04-.34.06-.41.15.02.75-.02.79,0,.02.01.05.34.06.41Z"/>
        <path class="cls-41" d="M10.56,16.37c0,.14.08.3.04.46-.13,0-.29-.02-.41,0v-.46h.37Z"/>
        <g>
          <path class="cls-73" d="M13.5,16.45c.01.77,0,1.54,0,2.32.02.06-.31.02-.35,0-.12-.05-.02-.29-.08-.33-.01,0-.28,0-.29,0-.24.09.35.64-.7.5l-.02-2.05c-.25,0-.5-.05-.74-.06.07-.29-.17-.97.17-1.03.07-.02.28.02.31,0,.03-.02,0-.16.06-.33.14-.01.48.02.52,0,.04-.02.01-.12.02-.17.01-.06.01-.31,0-.37.26.05.54-.05.79-.04.13,0,.26-.03.33.06,0,.5,0,1.01,0,1.51Z"/>
          <path class="cls-96" d="M12.38,15.29s.02.14-.02.17c-.04.02-.38-.01-.52,0,.05-.16-.15-.18.54-.17Z"/>
        </g>
      </g>
      <path class="cls-23" d="M19.38,19.18c.04,1.2.21.65.39.79.12.09-.32.47.74.37-.08.68.52.12.35.62-.1-.02-.29.02-.41,0-.13-.02-.34-.03-.35-.04-.07-.06-.06-.15-.1-.25-.03-.07.05-.22-.06-.29l-.68-.04c-.08-.45-.18.17-.25-.37-.01-.11.02-.28,0-.33-.07-.21-.49.08-.25-.29.28.01.22-.03.25-.17h.37Z"/>
      <g>
        <path class="cls-39" d="M25.42,16.58c0,.18.02.69,0,.74,0,0-.04.04-.04.04,0,0-.03,0-.04,0-.17.09-.27-.28-.27.62-.13,0-.26,0-.39,0l.04-1.37c.19,0,.47-.05.66-.08l.04.04Z"/>
        <path class="cls-94" d="M25.42,19.06v.87s-.04.04-.12.04c-.14,0-.24.03-.37.04-.1,0-.08-.04-.08-.04.11-.12.03-.29.04-.46,0-.16.03-.33.04-.5l.5.04Z"/>
        <path class="cls-101" d="M25.42,15.05c0,.51.01,1.02,0,1.53l-.04-.04c.12-1.23-.31-.61-.41-.85-.01-.03-.05-.55-.04-.6,0-.01.06.03.04-.21.19.03.43-.21.46.17Z"/>
        <path class="cls-29" d="M25.42,18.6l-.5.04c0-.07-.03-.31,0-.35.11-.16.53.44.41-.93.01,0,.03,0,.04,0,.08.41.04.83.04,1.24Z"/>
        <path class="cls-111" d="M25.42,18.6c0,.15,0,.3,0,.46l-.5-.04c0-.12,0-.25,0-.37l.5-.04Z"/>
        <path class="cls-101" d="M24.01,13.72c.24.02.48.07.72.04,0,.59.1.43.1.46,0,.04-.3.6.12.66.02.23-.04.2-.04.21-.83-.05-.39-.1-.54-.43-.06-.14-.51.12-.46-.5-.61.02-.35-.33-.43-.39-.07-.05-.27.09-.35-.08.28.05.59.02.87.04Z"/>
        <path class="cls-6" d="M23.76,13.02c.01.1-.02.33,0,.35.03.04.19.01.25.02v.33c-.28-.02-.58.01-.87-.04,0-.02,0-.08,0-.12-.03-.15.05-.34-.12-.41v-.12c.25,0,.5.01.74,0Z"/>
        <path class="cls-38" d="M23.14,13.56s0,.1,0,.12c.08.18.28.03.35.08.09.06-.18.41.43.39-.05.61.39.35.46.5.14.33-.3.39.54.43,0,.05.03.57.04.6.1.24.53-.38.41.85-.2.03-.47.08-.66.08-.02,0-.1-.07-.33-.04,0-.16.03-1.13,0-1.18-.04-.06-.29,0-.35-.02-.13-.06-.02-.37-.08-.41-.03-.02-.24.02-.29,0-.25-.12.11-.2-.68-.21.04-.27-.04-.56-.04-.83,0-.02.07-.12.04-.37h.17Z"/>
        <path class="cls-38" d="M25.33,17.36c.12,1.37-.3.77-.41.93-.03.04,0,.29,0,.35,0,.12,0,.25,0,.37,0,.17-.03.33-.04.5-.17.02-.43-.03-.58,0-.17.03-.04-.33-.08-.39-.04-.05-.6.11-.5-.37.05-.21.52-.09.62-.19.08-.08.04-.41.04-.54.1-.01.19-.04.29-.04.13,0,.26,0,.39,0,0-.9.1-.53.27-.62Z"/>
        <path class="cls-38" d="M24.71,16.62l-.04,1.37c-.1,0-.19.03-.29.04.02-.46,0-.98,0-1.45.23-.03.31.04.33.04Z"/>
        <path class="cls-84" d="M24.88,19.51c0,.16.07.33-.04.46-.48.07-.11.28-.31.37-.05.02-.2-.02-.25,0-.26.12.2.44-.56.52.14.86-.82,0-.66.85-.09-.01-.27,0-.37,0,.19-.38.06-.31-.08-.33-.12-.77.52,0,.64-.66.63-.03.45-.64.48-.68.05-.08.36.14.29-.35.02,0,.06-.12.29-.17.15-.03.41.02.58,0Z"/>
        <path class="cls-111" d="M23.02,13.14c.18.07.1.26.12.41h-.17c-.13-.01-.45.02-.48,0-.07-.05.04-.35-.06-.41.21,0,.35-.09.58,0Z"/>
        <path class="cls-60" d="M22.98,14.76c.79.01.43.09.68.21.05.02.26-.02.29,0,.07.05-.04.36.08.41.06.03.31-.04.35.02.03.05,0,1.02,0,1.18,0,.47.02.99,0,1.45,0,.13.04.46-.04.54-.18,0-.36,0-.54,0-.19-1.16.34-1.27-.72-1.2-.1.04-.07.59-.06.7-.8-.17-.6.47-.56.5.02.02.42,0,.52,0l.04.58c-.06,0-.69.11-1.16-.02-.04-.05.03-1.07,0-1.26.35.06.73,0,.54-.43-.06-.13-.5-.02-.6-.06-.1-.05-.05-.29-.06-.46-.03-.43.02-.87,0-1.3.06-.14.57,0,.62-.08.05-.07-.08-.7.06-.77.19,0,.37,0,.56,0Z"/>
        <path class="cls-38" d="M22.93,13.93c0,.27.08.55.04.83-.19,0-.37,0-.56,0-.14.06,0,.69-.06.77-.05.07-.56-.05-.62.08.02.43-.03.87,0,1.3l-.66-.04s-.1-.02-.08-.12c.2-.05.14-.41.12-.43-.06-.08-.39.02-.41.02-.04,0-.05-.05-.08-.04-.03-.48.09-.57-.12-.62-.15-1.85.42-1.05.68-1.24.06-.04-.02-.45.04-.5.07-.05,1.49.04,1.72,0Z"/>
        <path class="cls-45" d="M22.44,13.14c.1.07,0,.37.06.41.03.02.35-.01.48,0,.03.26-.04.35-.04.37-.23.04-1.65-.05-1.72,0-.06.04.02.45-.04.5-.27.19-.84-.61-.68,1.24-.63-.16-.46.24-.56.29-.2.09-.27-.14-.23-.29.43-.05.26-.18.29-.68-.35.09-.35-.06-.37-.06,0-.11,0-.22,0-.33,0-.21.26,0,.33-.14.03-.05-.03-.27.02-.31.11-.08.53.24.43-.41.08,0,.24.02.27,0,.09-.04.05-.14.06-.21.08-.01.38.03.41-.02.02-.03-.01-.3,0-.39.19,0,.4-.04.58-.04.04,0,.05.06.7.08Z"/>
        <path class="cls-18" d="M23.8,18.56c.18,0,.36,0,.54,0-.1.1-.57-.03-.62.19-.11.48.46.32.5.37.04.06-.08.42.08.39-.23.04-.27.16-.29.17-.19.04-.31-.04-.33-.04.06-.6-.13-.36-.64-.41-.03,0-.02-.08-.02-.08l-.04-.58s.03,0,.04,0c.27.01.52,0,.79,0Z"/>
        <path class="cls-38" d="M20.12,18.07s-.11.02-.17.14c.1.57-.19.83.54.66v-.72c.1,0,.59-.02.62.02-.07,1.2.12,1,.12,1.06.09.64-.28.78.66.7,0,.06-.02.26.02.29,1.15-.06,1.31.27,1.22-.58.15,0,.38,0,.54,0,.02,0,.14.08.33.04.07.49-.24.27-.29.35-.03.04.16.65-.48.68-.12.66-.76-.11-.64.66-.17-.03-.97.03-1.01,0-.07-.05.15-.44-.52-.25-.04-.11-.1-.14-.21-.17.17-.5-.43.06-.35-.62-1.06.1-.62-.28-.74-.37-.19-.13-.35.41-.39-.79,0-.02.05-.27.04-.46,0-.43.01-.86,0-1.28.46.21.06.46.85.37-.15.07-.08.13-.14.25Z"/>
        <path class="cls-94" d="M20.41,13.72c.1.66-.32.33-.43.41-.06.04,0,.26-.02.31-.07.15-.33-.06-.33.14,0-.2.04-.12.04-.17.03-.22.07-.44.04-.66.15,0,.35-.07.5-.08.02,0,.05.06.21.04Z"/>
        <path class="cls-35" d="M21.11,13.1s.03,0,.04,0c-.01.1.02.37,0,.39-.04.05-.33,0-.41.02.02-.1.01-.24-.04-.33.04,0-.07-.05.41-.08Z"/>
        <path class="cls-97" d="M20.62,16.29s.04.04.08.04c0,.29-.08.51.29.41-.02.1.08.12.08.12.21.23.35.55.7.56-.04.47.08.41.08.43.03.2-.04,1.21,0,1.26.47.13,1.1.02,1.16.02,0,0-.01.08.02.08.51.05.7-.19.64.41-.16,0-.39,0-.54,0-.41-.01-.83-.08-1.24-.04,0,0-.07-.02-.08-.06-.09-.28.24-.34-.58-.31,0-.06-.19.14-.12-1.06-.03-.04-.52-.01-.62-.02-.19-.01-.1-.07-.17-.08v-1.72c.07-.1.19-.05.29-.06Z"/>
        <path class="cls-38" d="M23.8,18.56c-.27,0-.52.01-.79,0,.1-.25,0-.41,0-.5,0-.12-.04-.66.06-.7,1.06-.07.54.04.72,1.2Z"/>
        <path class="cls-18" d="M21.73,16.91c.01.16-.04.41.06.46.1.04.54-.07.6.06.19.44-.19.49-.54.43,0-.02-.12.03-.08-.43-.36,0-.5-.33-.7-.56l.66.04Z"/>
        <path class="cls-38" d="M23.02,18.07c0,.09.1.25,0,.5-.01,0-.03,0-.04,0-.1,0-.5.02-.52,0-.04-.03-.24-.67.56-.5Z"/>
        <path class="cls-18" d="M19.71,15.67c-.04.15.03.38.23.29.1-.05-.07-.45.56-.29.22.05.1.14.12.62-.1.01-.22-.04-.29.06v1.72s-.07.1-.21,0c.07-.12,0-.17.14-.25-.79.08-.39-.16-.85-.37,0-.31-.03-.64-.04-.95-.01-.27.04-.26.04-.27-.02-.08-.14-.05-.17-.06-.27-.33.07-.52.08-.58.07.11.24.1.37.08Z"/>
        <path class="cls-84" d="M20.99,16.74c-.37.1-.29-.13-.29-.41.02,0,.35-.1.41-.02.02.02.08.38-.12.43Z"/>
        <path class="cls-38" d="M19.71,15.67c-.13.01-.3.03-.37-.08.06-.28-.18-.66.29-.66.02,0,.02.15.37.06-.03.5.14.64-.29.68Z"/>
        <path class="cls-18" d="M23.14,19.64c.08.85-.07.52-1.22.58-.04-.03-.01-.22-.02-.29-.01-.1.02-.24,0-.33.41-.04.83.03,1.24.04Z"/>
        <path class="cls-38" d="M21.9,19.6c.02.09-.01.23,0,.33-.95.07-.57-.07-.66-.7.82-.03.49.03.58.31.01.04.08.06.08.06Z"/>
        <path class="cls-45" d="M20.33,18.07c.07.01-.02.07.17.08v.72c-.73.17-.44-.1-.54-.66.06-.12.16-.14.17-.14.14.1.2,0,.21,0Z"/>
      </g>
      <path class="cls-39" d="M20.87,20.96c.1.02.17.05.21.17.01.04,0,.14,0,.21-.44-.08-.7.23-.62-.37.12.02.31-.02.41,0Z"/>
      <path class="cls-42" d="M19.42,18.73c0,.19-.04.43-.04.46h-.37c.03-.13.03-.34-.08-.41.11-.01.08-.04.08-.04.06,0,.26.02.41,0Z"/>
      <path class="cls-23" d="M18.63,19.27s-.07.07.12.08c-.25.37.17.08.25.29-.41,0-.54-.1-.5.33-.41,0-.83.05-1.24.04,0-.06-.01-.07-.04-.12.17-.02.2.07.23-.17.59.09.32-.17.66-.12.15-.06-.26-.3.52-.33Z"/>
      <path class="cls-100" d="M18.92,18.77c.11.07.11.28.08.41-.03.13.03.18-.25.17-.19,0-.12-.08-.12-.08-.02-.17.01-.33.04-.5.08,0,.17,0,.25,0Z"/>
      <path class="cls-67" d="M19,15.62s.18-.17.12.52c.07.12.12.02.12.02.02.01.15-.02.17.06,0,.01-.05,0-.04.27-.66.07-.33-.18-.41-.39-.03-.08-.1.04-.25-.27,0-.02-.08-.2-.08-.21h.37Z"/>
      <path class="cls-4" d="M19,15.62h-.37c-.1-.6.24-.54.35-.46.05.04,0,.37.02.46Z"/>
      <g>
        <path class="cls-102" d="M12.63,13.68c.19.01.39.03.58.04.02.15-.02.46,0,.52.06.15.39.02.41.02.29,0,.31.04.33.04.01.07-.03.3.02.33.06.04,1.38.01,1.47,0-.04.35.17.16.19.17.04.01.02.08.02.08-.14-.02-.12.04-.12.04-.5.07-.81-.25-.62.5-.03,0-.22.07-.52.04-.1.1-.09.54-.1.56-.07.1-.19-.14-.25.19l-.54.25c0-.5,0-1.01,0-1.51-.07-.1-.2-.06-.33-.06-.02-.13.02-.57,0-.6-.1-.13-.83.26-.66-.56.03,0,.04-.05.12-.04Z"/>
        <path class="cls-95" d="M13.93,15.05s.37,0,.39.02c.01.02,0,.5-.02.52-.02.01-.37,0-.39-.02-.01-.02,0-.5.02-.52Z"/>
      </g>
      <path class="cls-114" d="M20,20.67h-.72s0-.26-.02-.33l.68.04c.11.07.04.22.06.29Z"/>
      <path class="cls-100" d="M19,19.64c.02.06-.01.23,0,.33-.23.11-.47,0-.5,0-.04-.43.09-.32.5-.33Z"/>
      <g>
        <path class="cls-87" d="M18.71,18.48c.03.19-.04.26-.04.29-.03.17-.06.32-.04.5-.78.03-.37.27-.52.33-.34-.04-.07.22-.66.12-.03.24-.05.14-.23.17-.31.04-.99-.02-1.43,0-.03,0-.02.08-.02.08-.41.03-.49.08-.54-.29,0-.07,0-.14,0-.21.46-.03.39-.12.41-.12.19,0,1.19.1,1.24,0,.05-.08-.09-.43.08-.5-.04.55,0,.6.58.56.02-.03-.01-.45,0-.56,0-.06.08-.34.08-.37.36-.09.72-.04,1.08,0Z"/>
        <path class="cls-64" d="M15.24,19.47c0,.07,0,.14,0,.21-.28.03-.39-.04-.41-.04v-.21c.14.01.27.05.41.04Z"/>
        <path class="cls-56" d="M17.72,14.59c-.1.22-.2.48.08.54-.1.14,0,.2,0,.21-.08.23-.21.19-.5.17-.03-.16.07-.23-.33-.21,0-.15.02-.31-.02-.46-.08-.06-.79.04-.93.04-.12,0-.3.02-.37,0,0,0,.02-.07-.02-.08-.02,0-.23.19-.19-.17.16-.02.27.01.25-.25l1.74-.04c-.02.32.07.23.29.25Z"/>
        <path class="cls-37" d="M14.04,16.2c-.02.13,0,.67,0,.91,0,.25.03.53.04.79.03.66-.14.86.29.79,0,.13.04.15.04.17h-.83l-.08-.08c0-.77.01-1.54,0-2.32l.54-.25Z"/>
        <path class="cls-77" d="M15.73,18.93s-.12-.11-.08.41c-.02,0,.05.1-.41.12-.14,0-.28-.03-.41-.04-.03,0,.25-.07-.46-.12.18-.16.04-.43.04-.46,0-.02-.03-.04-.04-.17,0,0,.08.01.08-.02,0-.15-.16-.31-.04-.77.21,0,.24-.04.25-.04.83.01.29.45.48.58.21.15.7-.37.6.5Z"/>
        <path class="cls-87" d="M18.71,15.83c.15.31.22.19.25.27.09.21-.25.47.41.39.01.31.03.64.04.95.01.43,0,.86,0,1.28-.15.02-.36,0-.41,0-.05-.36-.16-.23-.17-.25-.05-.19.05-1.4,0-1.47-.04-.06-.33.02-.37-.04-.02-.03.02-.38,0-.41-.04-.06-.24.03-.29-.08-.16-.38.23-1.2-.37-1.14,0,0-.1-.07,0-.21.12.02.6-.03.64,0,.13.09-.2.58.27.7Z"/>
        <path class="cls-77" d="M18.84,18.48c-.09-.07-.08,0-.12,0-.36-.04-.72-.09-1.08,0,0-.07,0-.14,0-.21h.21c.57.08.31-.39.37-.48.04-.05.21.01.25-.04.04-.05.08-1-.29-.77.09-.61-.19-.06-.29-.79-.04-.26.32-.35-.58-.41,0-.03,0-.28,0-.29.28.03.42.06.5-.17.6-.07.21.76.37,1.14.05.11.25.03.29.08.02.03-.02.38,0,.41.04.06.33-.02.37.04.05.07-.05,1.28,0,1.47Z"/>
        <path class="cls-87" d="M17.56,18.85c-.01.11.02.53,0,.56-.57.05-.62-.01-.58-.56.07-.03.42.02.58,0Z"/>
        <path class="cls-5" d="M15.73,18.93c.95-.12-.13.56,1.16.41-.05.1-1.06,0-1.24,0-.04-.53.08-.39.08-.41Z"/>
        <path class="cls-67" d="M18.84,18.48s.11-.11.17.25c0,0,.03.03-.08.04-.08,0-.17,0-.25,0,0-.03.07-.1.04-.29.04,0,.04-.07.12,0Z"/>
        <path class="cls-77" d="M16.98,15.29c0,.18-.08.08-.08.21-.12,0-.25,0-.37,0-.15-.01-.3-.04-.46-.04-.01,0-.03,0-.04,0v-.58c.14,0,.85-.1.93-.04.04.15.02.31.02.46Z"/>
        <path class="cls-5" d="M15.65,14.88c.07.02.26,0,.37,0v.58c-.28,0-.31.04-.33.04-.13,0-.06-.08-.12-.08l-.04-.5s-.02-.06.12-.04Z"/>
        <path class="cls-80" d="M17.31,15.5s0,.26,0,.29c0,.09-.04.3-.08.33.02-.21-.1-.16-.25-.17.04-.58-.08-.43-.08-.46,0-.12.08-.03.08-.21.4-.03.3.05.33.21Z"/>
        <path class="cls-87" d="M15.57,15.42c.06,0,0,.08.12.08-.09.13-.01.28-.04.41-.07.32-.57.54-.83.83-.03.03-.13.04-.17.1,0,.08,0,.15,0,.23-.05,0-.04.04-.04.04-.16.03-.4-.02-.58,0,0-.24-.02-.78,0-.91.06-.33.17-.08.25-.19.02-.02,0-.46.1-.56.3.03.49-.04.52-.04.08,0,.48,0,.66,0Z"/>
        <path class="cls-77" d="M15.53,14.92l.04.5c-.18,0-.59,0-.66,0-.19-.74.12-.43.62-.5Z"/>
        <path class="cls-109" d="M14.62,17.11l.04.74s-.04.03-.25.04c-.11,0-.22,0-.33,0-.01-.25-.04-.54-.04-.79.18-.02.42.03.58,0Z"/>
        <path class="cls-5" d="M14.41,17.9c-.12.45.03.61.04.77,0,.03-.08.02-.08.02-.43.07-.26-.12-.29-.79.11,0,.22,0,.33,0Z"/>
        <path class="cls-73" d="M16.98,15.96c.15,0,.27-.04.25.17-.04.15.3.06.66.08.1.72.38.18.29.79,0,.05.02.18-.02.21-.15.11-.51-.44-.31,1.08h-.21c0-.12-.01-.93-.04-.97-.04-.06-.33.02-.37-.04-.03-.04.04-.64-.02-.68-.16-.12-.59.34-.48-.54.02,0-.1-.11.25-.08Z"/>
        <g>
          <path class="cls-8" d="M15.16,17.36v.5s-.25-.06-.46-.06c.05-.23-.05-.51-.04-.72,0-.08,0-.15,0-.23.04-.06.14-.07.17-.1.43,0,.33.03.33.62Z"/>
          <path class="cls-100" d="M15.16,17.86v-.5c.6-.28.48.44.46.48-.03.04-.39.02-.46.02Z"/>
          <g>
            <path class="cls-69" d="M16.52,15.5v.48c.22-.02.16.06.21.06-.11.87.31.42.48.54.06.04-.01.64.02.68.04.06.33-.02.37.04.03.04.04.85.04.97,0,.07,0,.14,0,.21,0,.03-.07.31-.08.37-.16.02-.51-.03-.58,0-.17.06-.04.41-.08.5-1.29.14-.21-.53-1.16-.41.1-.87-.39-.35-.6-.5-.19-.13.35-.57-.48-.58l-.04-.74s-.01-.05.04-.04c0,.21.09.5.04.72.21,0,.43.06.46.06.07,0,.43.02.46-.02.03-.04.14-.75-.46-.48,0-.59.1-.61-.33-.62.26-.29.76-.51.83-.83.12-.09.29.02.37-.1.01-.01-.06-.13.04-.35.16,0,.3.03.46.04Z"/>
            <path class="cls-100" d="M16.62,17.2c.52-.23.52.47.37.54-.52.23-.52-.47-.37-.54Z"/>
            <path class="cls-100" d="M16.29,17.94c.47-.21.4.49.29.54-.47.21-.4-.49-.29-.54Z"/>
          </g>
          <path class="cls-62" d="M16.89,15.5s.12-.12.08.46c-.34-.02-.23.08-.25.08-.05,0,0-.08-.21-.06v-.48c.12,0,.25,0,.37,0Z"/>
          <path class="cls-58" d="M16.02,15.46s.03,0,.04,0c-.1.22-.03.34-.04.35-.09.12-.25.01-.37.1.03-.13-.05-.29.04-.41.02,0,.05-.05.33-.04Z"/>
        </g>
        <path class="cls-93" d="M17.84,18.27c-.2-1.51.16-.97.31-1.08.04-.03.01-.15.02-.21.37-.24.33.71.29.77-.04.05-.21-.01-.25.04-.06.09.19.56-.37.48Z"/>
        <path class="cls-83" d="M17.89,16.2c-.36-.02-.7.06-.66-.08.04-.03.08-.24.08-.33.9.06.54.16.58.41Z"/>
      </g>
    </g>
  </g>
</svg>