<?xml version="1.0" encoding="UTF-8"?>
<svg id="Layer_2" data-name="Layer 2" xmlns="http://www.w3.org/2000/svg" viewBox="0 0 33.07 23.59">
  <defs>
    <style>
      .cls-1 {
        fill: #7c7672;
      }

      .cls-1, .cls-2, .cls-3, .cls-4, .cls-5, .cls-6, .cls-7, .cls-8, .cls-9, .cls-10, .cls-11, .cls-12, .cls-13, .cls-14, .cls-15, .cls-16, .cls-17, .cls-18, .cls-19, .cls-20, .cls-21, .cls-22, .cls-23, .cls-24, .cls-25, .cls-26, .cls-27, .cls-28, .cls-29, .cls-30, .cls-31, .cls-32, .cls-33, .cls-34, .cls-35, .cls-36, .cls-37, .cls-38, .cls-39, .cls-40, .cls-41, .cls-42, .cls-43, .cls-44, .cls-45, .cls-46, .cls-47, .cls-48, .cls-49, .cls-50, .cls-51, .cls-52, .cls-53, .cls-54, .cls-55, .cls-56, .cls-57, .cls-58, .cls-59 {
        stroke-width: 0px;
      }

      .cls-2 {
        fill: #e3bb8e;
      }

      .cls-3 {
        fill: #dbb8b3;
      }

      .cls-4 {
        fill: #dbae9b;
      }

      .cls-5 {
        fill: #8f6055;
      }

      .cls-6 {
        fill: #0a2925;
      }

      .cls-7 {
        fill: #7b7f98;
      }

      .cls-8 {
        fill: #064450;
      }

      .cls-9 {
        fill: #e7d0c5;
      }

      .cls-10 {
        fill: #f3f1f1;
      }

      .cls-11 {
        fill: #b27774;
      }

      .cls-12 {
        fill: #6bc0c8;
      }

      .cls-13 {
        fill: #a17086;
      }

      .cls-14 {
        fill: #191413;
      }

      .cls-15 {
        fill: #cd6b68;
      }

      .cls-16 {
        fill: #27150d;
      }

      .cls-17 {
        fill: #4f2a11;
      }

      .cls-18 {
        fill: #8c4c4c;
      }

      .cls-19 {
        fill: #b5e1e3;
      }

      .cls-20 {
        fill: #1f626c;
      }

      .cls-21 {
        fill: #ebcd9c;
      }

      .cls-22 {
        fill: #87d2dd;
      }

      .cls-23 {
        fill: #078b97;
      }

      .cls-24 {
        fill: #7b3f33;
      }

      .cls-25 {
        fill: #1d202a;
      }

      .cls-26 {
        fill: #08717d;
      }

      .cls-27 {
        fill: #85d4ec;
      }

      .cls-28 {
        fill: #378499;
      }

      .cls-29 {
        fill: #0e2223;
      }

      .cls-30 {
        fill: #ab7c69;
      }

      .cls-31 {
        fill: #aa7e8e;
      }

      .cls-32 {
        fill: #069ba8;
      }

      .cls-33 {
        fill: #bd8f83;
      }

      .cls-34 {
        fill: #461f18;
      }

      .cls-35 {
        fill: #a3314f;
      }

      .cls-36 {
        fill: #576282;
      }

      .cls-37 {
        fill: #713c41;
      }

      .cls-38 {
        fill: #9b96a6;
      }

      .cls-39 {
        fill: #052d36;
      }

      .cls-40 {
        fill: #ead2bb;
      }

      .cls-41 {
        fill: #6c7959;
      }

      .cls-42 {
        fill: #563f3d;
      }

      .cls-43 {
        fill: #eaded7;
      }

      .cls-44 {
        fill: #adb7c9;
      }

      .cls-45 {
        fill: #e7c4b1;
      }

      .cls-46 {
        fill: #7686a4;
      }

      .cls-47 {
        fill: #131819;
      }

      .cls-48 {
        fill: #e9f6f9;
      }

      .cls-49 {
        fill: #0e5456;
      }

      .cls-50 {
        fill: #0f8e85;
      }

      .cls-51 {
        fill: #065367;
      }

      .cls-52 {
        fill: #037e85;
      }

      .cls-53 {
        fill: #722013;
      }

      .cls-54 {
        fill: #a15758;
      }

      .cls-55 {
        fill: #5d2827;
      }

      .cls-56 {
        fill: #a16868;
      }

      .cls-57 {
        fill: #401f10;
      }

      .cls-58 {
        fill: #c29660;
      }

      .cls-59 {
        fill: #a38039;
      }
    </style>
  </defs>
  <g id="Layer_1-2" data-name="Layer 1">
    <g>
      <path class="cls-16" d="M.53,15.48s.05.07.04.45c0,.09,0,.19,0,.29,0,.43.05,1.1.04,1.43-.03.76-.06.85-.61.77,0-.03,0-.05,0-.08,0-.37,0-.73,0-1.1,0-.34,0-.68,0-1.02,0-.24,0-.49,0-.73h.53Z"/>
      <g>
        <path class="cls-14" d="M2.65,21.71c.13-.02.43.02.49,0-.07,1.56.82.11.75,1.26,1.25.1.69-.24.9-.33.21-.09.47.24.45-.37-.02.43.45.41.35-.04.06.04.05.14.04.2-.07.45-.32-.26-.37.61-.59-.07-.36.19-.41.26-.06.09-.4-.12-.33.22-.02,0,.05.05-.33.04-.16,0-.3-.03-.45-.04-.02-.11.06-.52-.06-.57-.06-.02-.4.02-.55,0-.01-.16.04-.4-.06-.45-.31.03-.48-.04-.51-.04,0-.25,0-.5,0-.75,0-.03.08-.02.08-.02Z"/>
        <path class="cls-25" d="M5.34,22c-.01.14-.12.18.04.24.04.02.18-.02.2,0,.11.45-.36.47-.35.04.02.61-.24.28-.45.37-.2.09.35.43-.9.33.06-1.15-.82.3-.75-1.26,0,0,.04-.04.04-.04l.67-.04c0-.25.09-.37.1-.41.98-.12.46.31.67.41.06.03.41-.03.45,0,.1.07-.15.45.26.37Z"/>
      </g>
      <g>
        <path class="cls-16" d="M32.62,5.22c.16.06.29.04.45.04,0,.2,0,.37,0,.57,0,.34,0,.68,0,1.02,0,.23,0,.46,0,.69-.13.01-.57-.03-.63.04-.04.04,0,.19-.02.37-.05.35-.05.67-.04,1.02-.03,0-.05,0-.08,0-.16,0-.33,0-.49,0l-.04-.92c-1.07.08-.5-.44-.65-.65-.04-.05-.24.03-.29-.08-.03-.06.04-.31-.02-.35-.08-.05-.38.18-.31-.37.03,0,.08,0,.12,0,.09.01.53.03.57-.06,0-.22,0-.45,0-.67l.61-.08s0,.03,0,.04c-.04.53-.05,1.04-.04,1.57.9.34.74-.25.65-1.57-.02-.36.3-.54-.49-.49-.2-.02-.13-.55-.1-.57.03-.02.66-.02.69,0,.06.04,0,.38.02.47.02.05.05-.03.08-.02Z"/>
        <path class="cls-14" d="M1.51,17.4c.05,0,.11,0,.16,0-.11.85.31.41.41.55.11.15-.22.52-.12.75-.03-.01-.06.07-.08.02-.15-.44.36-.23-.81-.43.1-.37-.24-.39-.39-.33-.11.05-.04.3-.06.45-.05.36-.03.68-.04,1.04,0,.03-.08,0-.08.06H.04s-.04-.04-.04-.12c0-.33,0-.65,0-.98.55.07.58-.01.61-.77.79.07.51-.19.59-.24.02-.01.23,0,.31,0Z"/>
        <path class="cls-18" d="M30.3,5.34v1.2c.1.01.16.05.2.06-.07.55.23.31.31.37.06.04,0,.28.02.35.05.11.25.03.29.08.15.22-.42.73.65.65l.04.92s-.08.08-.08.08c-.91-.25-.42.35-.63.45-.1.04-1.16-.04-1.26,0-.12.05-.02.28-.08.33-.08.06-1.95-.06-2.04,0-.05.04,0,.31-.02.35-.07.1-2.11.08-2.38.02l-.08.65h-2.85c-.02.18-.03.35-.06.53h-.9c-.01-.15,0-.43-.2-.37h-.12c.02-.42-.07-.88,0-1.3.03,0,.05,0,.08,0,.44.02,3.39.06,3.56.04.27-.03.2-.37.18-.39-.09-.12-.42.2-.37-.31l.94-.04s.04.08.06.08c.1.04,2.1.04,2.2,0,.12-.05.02-.32.08-.37.03-.02.62-.02.65,0,.05.03-.02.2.08.24.04.02.53,0,.55-.02.17-.24-.25-.21-.29-.29-.03-.06.03-.27-.02-.31-.04-.03-.47.04-.51-.02-.12-.17.34-.86-.53-.65.03-.19-.04-1.29,0-1.34.02-.03.42-.03.45,0,.05.07-.08.98.06,1.04.98-.07.58.14.67.26.04.05.21-.01.24.04.09.13-.32.33.71.26.15-1.98-.2-1.26-.33-1.34-.06-.04.01-.4-.02-.47-.1-.22-.48.35-.37-.83.3.02.35-.04.37-.04.04,0-.07.13.73.08Z"/>
        <path class="cls-10" d="M31.2,4.89c.02.15,0,.75,0,.98,0,.22,0,.45,0,.67-.04.09-.48.07-.57.06-.02-1.2-.33-2.04.57-1.71Z"/>
        <path class="cls-16" d="M31.2,4.89c-.9-.33-.59.51-.57,1.71-.04,0-.09,0-.12,0-.04,0-.11-.05-.2-.06v-1.2c-.1-.29-.44.27-.45-.47,0-.03.08-.02.08-.02.63.04.54-.08.57-.08.06,0,.03.08.06.08.15,0,.51-.09.65-.04.06.07-.02.08-.02.08Z"/>
        <g>
          <path class="cls-18" d="M32.42,5.83c.09,1.32.25,1.9-.65,1.57-.01-.53,0-1.04.04-1.57h.61Z"/>
          <path class="cls-31" d="M31.93,5.34c.79-.05.46.12.49.49h-.61s0-.03,0-.04c.02-.22-.07-.46.12-.45Z"/>
        </g>
        <g>
          <path class="cls-25" d="M31.85,3.71c.17.03.48-.03.61,0,.03,0,.12.05.12.08-.04.34.04.68.04,1.02,0,.02-.11.19,0,.41-.03-.01-.06.07-.08.02-.03-.08.04-.43-.02-.47-.03-.02-.66-.02-.69,0-.03.02-.09.55.1.57-.19,0-.1.23-.12.45l-.61.08c0-.23.02-.83,0-.98,0,0,.08,0,.02-.08-.14-.05-.5.04-.65.04-.03,0,0-.08-.06-.08,0-.54,0-1.09,0-1.63,1.85-.2,1.09.14,1.26.59.07.06.08-.02.08-.02Z"/>
          <path class="cls-14" d="M31.28,2.53c.17.01.34,0,.51,0,.04.02.01.12.02.16.06.31-.08.71.04,1.02,0,0,0,.08-.08.02-.17-.45.59-.79-1.26-.59,0-.38,0-.76,0-1.14.5.11.19.45.31.53.02.01.37,0,.47,0Z"/>
        </g>
        <g>
          <path class="cls-14" d="M1.96,18.7c.17.06.36.07.53,0-.01.18.09.82.04,1.2.07.16.66-.05.65.14-.81-.25-.61.18-.61,1.55-.01.05-.29.06-.45.04-.54-.05-.3-.12-.33-.12.05-.27-.04-.55-.04-.81,0-.03.2-.25.02-.65H.53c0-.17-.04-.37-.04-.53,0-.06.08-.03.08-.06.01-.36,0-.68.04-1.04.19-.03.39.09.45-.12,1.17.2.66-.01.81.43.02.05.05-.03.08-.02Z"/>
          <path class="cls-14" d="M1.75,20.7c-.19.02-.38.04-.57.04-.21,0-.42,0-.63,0-.04-.03-.01-.26-.02-.33-.01-.12,0-.25,0-.37h1.24c.18.4-.02.62-.02.65Z"/>
        </g>
        <path class="cls-4" d="M27.45,3.71c.02.35.07.69.04,1.04.58.21.58-.23.67.51.21.04.6-.04.63-.04.07,0,.34.08.41.08-.11,1.19.27.62.37.83.03.07-.04.42.02.47.12.09.48-.64.33,1.34-1.03.06-.62-.14-.71-.26-.04-.05-.21.01-.24-.04-.09-.12.31-.33-.67-.26-.14-.06-.01-.97-.06-1.04-.02-.03-.42-.03-.45,0-.04.05.03,1.16,0,1.34.87-.2.41.48.53.65.04.06.47,0,.51.02.05.04,0,.25.02.31.03.07.46.04.29.29-.02.02-.51.04-.55.02-.11-.05-.03-.21-.08-.24-.03-.02-.62-.02-.65,0-.06.04.04.31-.08.37-.1.04-2.1.04-2.2,0-.02,0-.06-.05-.06-.08.2-.22-.87-.19-.92-.16-.04.03-.02.15-.02.2-.05.51.28.18.37.31.02.02.09.36-.18.39-.18.02-3.13-.02-3.56-.04-.01-1.14-.26-.6-.37-.75-.03-.04.03-.49,0-.53-.04-.06-.4.01-.47-.02-.12-.06-.03-.42-.06-.47-.03-.05-.33-.01-.41-.02v-.37l.02-.45c2.19.08,1.34-.17,1.53-.43.04-.06.39,0,.43-.02.11-.08-.33-.49.94-.29-.02-1.03.53.2.45-1.38.87-.09.5.25.61.33.02.02.55.02.57,0,.06-.04-.02-.45.04-.49.02-.01.43-.03.51-.04.07,0,.14.03.41,0,.08,0,.38.02.41-.02.04-.05-.07-.54.06-.59l.73.04c.06-.03.09-.4.1-.49h.77Z"/>
        <path class="cls-16" d="M31.73,9.05c-.03.07.03.39,0,.43-.05.07-.39-.05-.45.08-.03.06.03.33,0,.39,0,0-.05,0-.04.04-.87.06-1.36-.22-1.22.37-.18,0-.59.08-.77.08-.34,0-.67-.06-1.02-.04-.17,0-.34,0-.51,0-.11.08-.04.28-.06.47,0,.03-.08.02-.08.02h-.41c-.35,0-.71-.01-1.06,0-1.29.04-.6.08-.81.39-.06.08-.25-.11-.29.18-1.19.05-1.24-.27-1.18.63.68,0,.5.1.53.1l.06.61c.21,0,.42,0,.63,0,.35.01.71,0,1.06,0h1.1s.03.24.04.37c0,.09-.02.5.02.53h.92s.03-.16.08.41c.02.23-.06.48.06.57,1.34.08.71-.14.88-.53,0,0,.05,0,.04-.04.34.04.69-.04,1.02-.04.25,0,.93.04.86.12-.15,1.31.67.1.69,1.02,0,.18-.03.33.04.33,0,0,.04.05-.16.04-.08,0-.59-.05-.61-.1l.02-.63h-1.63s-.03.46-.02.53c-.33,0-.65,0-.98,0-.19,0-.38,0-.57,0l-.02-1.02c-.39.02-.77.04-1.16.04-.23,0-.47-.04-.69-.04-.04-.3.04-.62.04-.65.93.01,1.02-.16-.04-.2-.2,0-.41,0-.61,0-.01,0-.03,0-.04,0-.49,0-.98,0-1.47,0,0-.1.02-.67-.02-.69-.18-.03-1.25.04-1.3,0-.06-.04.02-.49-.04-.53-.05-.04-1.14.03-1.32,0,0-.03-.09-.02.08-.31l-.08-.96c.2-.06.19.21.2.37,0,.02-.13.35.02.49h.81s.03-.29.06-.49c.03-.18.04-.35.06-.53h2.85l.08-.65c.27.06,2.31.08,2.38-.02.02-.04-.03-.31.02-.35.08-.06,1.95.06,2.04,0,.06-.04-.04-.27.08-.33.1-.04,1.17.04,1.26,0,.21-.09-.28-.69.63-.45Z"/>
        <path class="cls-18" d="M19.47,7.5c.08.11.02.28.04.35.03.07.29.05.37.06.08.01.37-.03.41.02.03.05-.06.41.06.47.07.03.43-.04.47.02.03.04-.03.49,0,.53.11.16.35-.39.37.75-.03,0-.05,0-.08,0-.21,0-.43-.08-.65-.04.08-.69-.21-.35-.29-.51-.02-.05.02-.22,0-.24-.03-.05-.16,0-.18-.02-.47-.39-.37-.59-.41-.61-.04-.03-.35.04-.39-.02-.03-.04.03-.43-.06-.47-.06-.02-.27.03-.31-.02-.02-.02-.01-.51,0-.53,0,0,.15-.1.16-.1.02,0,.33.03.35.04.1.07-.12.25.14.33Z"/>
        <path class="cls-34" d="M27.86,1.76c.25,0,.5,0,.75,0l.02,1.08s.48.02.57.02c.07.14.04.33.04.49,0,.02-.12.27.02.41.48.21.67-.6.67,1.1,0,0-.08-.01-.08.02,0,.74.35.18.45.47-.8.05-.69-.08-.73-.08l-.04-1c-.53,0-.5-.1-.53-.1,0-.13.01-.27,0-.41,0-.07.02-.3-.02-.33-.16.03-.31-.02-.47-.04.09-.63-.26-.41-.12-1-.59.01-.34-.16-.47-.22-.11-.06-.38.18-.22-.41.05,0,.11,0,.16,0Z"/>
        <path class="cls-31" d="M29,4.16s0,.1.53.1l.04,1s-.07.06-.37.04c-.07,0-.33-.08-.41-.08.08-.68-.36.05-.24-1.06.12.02.32-.02.45,0Z"/>
        <path class="cls-55" d="M22.32,11.37c-.03.2-.04.47-.06.49h-.81c-.15-.14-.02-.46-.02-.49h.9Z"/>
        <path class="cls-14" d="M21.22,11l.08.96c-.17.29-.08.27-.08.31-.01.1.02.37,0,.41-.16.02-.22,0-.24-.16,0-.07.03-1.19.04-1.41,0-.02.08-.05.08-.1h.12Z"/>
        <path class="cls-15" d="M25.49,9.01l-.94.04c0-.05-.02-.18.02-.2.04-.03,1.11-.06.92.16Z"/>
        <path class="cls-16" d="M27.98.5c0,.23,0,.46,0,.69-.1.02-.44-.05-.49.06-.02.05.02.33,0,.47-.03,0-.03.04-.12.04-.24,0-.48,0-.71,0l-.02.67c-.07.1-.26.05-.45.06.61,0,.3-.35.33-.73,0-.03.18-.19.04-.51.17-.01.32-.03.49-.06.07-.01.29.03.33-.02.02-.03-.02-.46,0-.59.03,0-.09-.08.61-.08Z"/>
        <path class="cls-16" d="M29.77,1.27c.15,0,.4-.02.53,0,.06,0,.21-.02.24.02,0,.11,0,.23,0,.35.01.26-.04.31-.04.33-.28-.01-.57.02-.86,0-.07,0-.22-.07-.45-.04-.02-.22.02-.47,0-.69.06.02.1-.06.18.16.09-.04.3-.12.39-.12Z"/>
        <path class="cls-34" d="M29.28.5c.14,0,.29.04.41.04.02.38-.07.77.08.73-.08,0-.29.09-.39.12-.08-.22-.12-.14-.18-.16-.54-.18-.56.23-.53-.73.2,0,.41,0,.61,0Z"/>
        <path class="cls-14" d="M28.1.05c.12.01.48-.02.51,0,.05.04,0,.36.02.45-.19,0-.38,0-.57,0-.13-.5.04-.42.04-.45Z"/>
        <g>
          <path class="cls-10" d="M28.06.5c.19,0,.38,0,.57,0,.01,0,.03,0,.04,0-.03.96-.01.55.53.73.02.23-.02.47,0,.69,0,.07.04.43.06.45.07.05.52.11.39-.41.28.02.57-.01.86,0,0,.01,0,.03,0,.04,0,.38,0,.76,0,1.14,0,.54,0,1.09,0,1.63-.03,0,.06.12-.57.08,0-1.7-.2-.89-.67-1.1-.14-.13-.02-.39-.02-.41.55.2.43-.43.41-.47-.03-.04-.37-.02-.45-.02-.09,0-.54.02-.57-.02l-.02-1.08c-.25,0-.5,0-.75,0,.2-.13.12-.27.12-.57,0-.23,0-.46,0-.69.03,0,.05,0,.08,0Z"/>
          <path class="cls-43" d="M27.98,1.19c0,.3.08.44-.12.57-.05,0-.11,0-.16,0-.23,0-.19-.04-.2-.04.02-.14-.02-.42,0-.47.05-.11.38-.04.49-.06Z"/>
          <path class="cls-12" d="M29.24,3.35c0-.16.03-.35-.04-.49.08,0,.42-.02.45.02.02.03.14.67-.41.47Z"/>
          <path class="cls-50" d="M29.65,1.96c.14.52-.32.46-.39.41-.02-.01-.05-.38-.06-.45.23-.03.38.04.45.04Z"/>
        </g>
        <path class="cls-43" d="M28.63,19.03h.04s.08.12.08.16c0,.26.02.69,0,.9,0,.06,0,.12,0,.18-.03.05-.19.09-.24.1-.08.02-.37,0-.49,0-.14-1.22.6.04.45-1.34.04,0,.05-.09.16,0Z"/>
        <path class="cls-56" d="M31.68,15.56c.13.64.06.59-.53.57.01-.7-.1-.49-.57-.49-.21,0-.96.02-1.02,0-.2-.06-.12-.27-.12-.29,0-.07-.01-.51.02-.53h1.63l-.02.63c.02.05.53.1.61.1Z"/>
        <path class="cls-18" d="M31.16,16.14c0,.35.07.39-.49.37-.02,0-.08-.16-.45-.08-.09-.61.48.11.37-.77.47,0,.58-.22.57.49Z"/>
        <path class="cls-43" d="M30.67,16.5v.24c0,.51,0,.33-.53.37-.04,0-.04-.05-.12-.04.02-.53-.11-.58.2-.65.37-.08.42.08.45.08Z"/>
        <path class="cls-16" d="M23.87,20.25c.23,0,.85-.05.9-.04.03,0,.11.05.16.06-.28,1.1.96.26,1.02.75,0,.03-.13.46.02.57.28-.04.57.04.83.04-.11.22,0,.43,0,.45,0,.03,0,.05,0,.08,0,0-.08.15-.08.16.04-.14-.21-.07-.49-.08-.15.03-.04-.2-.1-.24-.03-.02-.27.03-.31-.02-.03-.04.04-.35-.02-.39-.03-.02-.63,0-.75,0-.01,0-.23-.08-.24-.08l-.06-.61h-.71c-.52.04-.38-.08-.41-.08l-.04-.61c.18,0,.24.04.29.04Z"/>
        <path class="cls-47" d="M12.22,12.92s-.04.04-.04.2c-.16-.1-.29,0-.37,0-.04,0-.14.02-.16-.02-.02-.03.01-.3,0-.43.05,0,.07-.08.12-.08.14-.01.29,0,.43,0,.04.03.02.26.02.33Z"/>
        <path class="cls-43" d="M27.37,1.76c.14.07-.01.43.04.71,0,.04.11,0,.12.04.02.07-.02.23,0,.29.11.3.49-.24.49.55-.03,0-.08.13-.53.08-.08-.36-.55-.29-.59.04-.41-.16-.22.22-.22.24,0,.08-.04.46-.1.49l-.73-.04c-.13.05-.02.54-.06.59-.03.04-.33.01-.41.02.13-.59-.54-.58-.41,0-.08,0-.49.03-.51.04-.06.04.02.45-.04.49-.02.02-.55.02-.57,0-.11-.08.26-.42-.61-.33.08,1.59-.47.35-.45,1.38-1.27-.2-.83.21-.94.29-.04.03-.39-.04-.43.02-.19.26.66.51-1.53.43l-.02.45c-.11,0-.31-.01-.41-.04-.27-.08-.04-.25-.14-.33-.01-.01-.33-.04-.35-.04.02-.37,0-.26-.16-.29-.08-.16-.07-.22.08-.29.16.04.9-.03,1.2,0,.05-.03,0-.61.02-.73,0-.04.04-.05.04-.08.17.04.92-.03,1.24,0l.02-.71,1.24-.02c0-.27.06-.59.06-.65,0-.01,0-.03,0-.04h.61l.69-.02c0-.24,0-.48,0-.71,0,0,.03.04.04-.12h1.28l.02-.92c.04-.11.53-.05.81-.06.19-.01.38.04.45-.06l.02-.67c.24,0,.48,0,.71,0Z"/>
        <path class="cls-43" d="M28.51,3.39c.16.02.31.07.47.04.04.03.01.26.02.33-.88-.13-.87.32-.45.41-.11,1.11.32.38.24,1.06-.03,0-.42.08-.63.04-.09-.74-.1-.3-.67-.51.03-.35-.02-.69-.04-1.04,0-.01.08-.09.04-.29.45.05.5-.08.53-.08.02,0,.42.03.49.04Z"/>
        <path class="cls-21" d="M27.49,3.43c.04.2-.04.27-.04.29h-.77s-.18-.41.22-.24c.04-.33.51-.41.59-.04Z"/>
        <path class="cls-2" d="M25.37,4.77c-.26.03-.33,0-.41,0-.13-.58.54-.59.41,0Z"/>
        <path class="cls-43" d="M19.87,7.54v.37c-.07,0-.34.01-.37-.06-.03-.07.04-.24-.04-.35.09.03.3.04.41.04Z"/>
        <path class="cls-4" d="M23.91,13.53c0,.09.02.53,0,.55-.02.03-.64-.07-.41.45.05.12.31.03.35.06.06.04-.03.23.08.29.09.04.27-.05.29-.04.11.07-.21.17.39.2-.19.9.53.48,1.73.57.1-.06.05-.16.06-.24.5,0,1,0,1.51,0,.19,0,.38,0,.57,0-.04.74.07.36.26.45.12.05,0,.27.12.33.2.09.93.09.71-.49.06.02.81,0,1.02,0,.12.88-.45.17-.37.77-.31.07-.18.12-.2.65-.06.01-.11.03-.16.06-.02.1.04.15.04.22-.72-.16-.4.07-.49.41,0,.03-.07-.16-.12.45-.12,0-.46-.03-.53.02.02.34-.13.48-.12.79-.11-.09-.12,0-.16,0-.58-.04-1.15-.07-1.73-.12-.01-.7-.26-.29-.53-.41-.13-.06.01-.39-.12-.45-.2-.09-1.9.06-2.26.04.1-.25,0-.35,0-.37,0-.09.12-.35.08-.43-.1-.21-.4.26-.41-.55,0,0,.12-.08.14-.08.12-.01.62.02.65,0,.06-.04,0-.36.02-.43.05-.12.32-.02.37-.08.01-.02,0-.45-.02-.47-.04-.03-.94-.03-.98,0-.06.04.02.49-.04.53-.02.02-.48,0-.57,0-.03,0,0,.08-.06.08-.42,0-.35-.22-.35-.57-1.2.18-.53-.55-.73-.69h-.63l-.04-.83s-.41-.02-.49-.02c-.01,0-.03,0-.04,0,0-.16.01-.33,0-.49.97.09.55-.2.67-.29.02-.02.51-.02.53,0,.06.04-.02.57.04.61.04.03.98.03,1.02,0,.2-.14-.5-.62.92-.49Z"/>
        <path class="cls-54" d="M23.91,13.49s0,.03,0,.04c-1.41-.13-.72.35-.92.49-.04.03-.98.03-1.02,0-.06-.04.02-.57-.04-.61-.02-.02-.51-.02-.53,0-.12.08.3.37-.67.29-.01-.18-.06-.34-.04-.53.08-.82.41-.27.53-.49.02-.04-.01-.31,0-.41.18.03,1.27-.04,1.32,0,.06.04-.02.49.04.53.05.04,1.12-.03,1.3,0,.04.03.02.59.02.69Z"/>
        <path class="cls-18" d="M25.37,13.49c.1,1.55-.18.8-.33,1-.02.02.01.23,0,.31-.04.24.13.28-.45.24-.59-.03-.27-.13-.39-.2-.01,0-.19.08-.29.04-.11-.05-.03-.25-.08-.29-.04-.03-.29.05-.35-.06-.23-.52.38-.42.41-.45.02-.02,0-.46,0-.55,0-.01,0-.03,0-.04.49,0,.98,0,1.47,0Z"/>
        <path class="cls-10" d="M26.72,14.38c.09.96-.25.56-.33.67-.02.02.01.23,0,.31-.01.09.04.18-.06.24-1.2-.09-1.92.33-1.73-.57.58.03.41,0,.45-.24.4,0,.57.08.49-.41.16.04.34-.04.49-.04.22,0,.46.04.69.04Z"/>
        <path class="cls-11" d="M27.9,15.36c-.5,0-1,0-1.51,0,.01-.07-.02-.28,0-.31.08-.11.42.29.33-.67.39,0,.77-.03,1.16-.04l.02,1.02Z"/>
        <path class="cls-11" d="M29.44,15.36s-.07.22.12.29c.22.58-.51.58-.71.49-.12-.05,0-.27-.12-.33-.2-.09-.31.29-.26-.45.33,0,.65,0,.98,0Z"/>
        <path class="cls-11" d="M26.02,13.49c-.03.16.04.19.04.2,0,.03-.08.35-.04.65-.15,0-.33.08-.49.04,0-.05-.18.13-.12-.9.2,0,.41,0,.61,0Z"/>
        <path class="cls-30" d="M25.54,14.38c.08.49-.09.41-.49.41.01-.07-.02-.28,0-.31.14-.2.43.55.33-1,.01,0,.03,0,.04,0-.06,1.03.11.85.12.9Z"/>
        <path class="cls-24" d="M26.06,13.69s-.07-.04-.04-.2c1.06.05.97.22.04.2Z"/>
        <path class="cls-18" d="M19.1,15.36c.07.25.38.06.47.12.08.06-.22.42.59.37.02.15-.02.36,0,.49.05.28.32.06.37.18.04.12-.09.39.02.43h.9l.08.69c.89-.06.62.05.59.81-1.14-.19-1.25.33-1.18-.71l-.83-.06c-.06-.04.02-.57-.04-.61-.05-.04-1.16-.04-1.32-.04.04-.66-.17-.3-.43-.41-.11-.05-.03-.25-.08-.29-.12-.09-.38.28-.31-.53.11-.02.39.02.43,0,.02-.01-.09-.34.06-.45h.69Z"/>
        <path class="cls-34" d="M20.73,14.18s.03,0,.04,0c-.1.28-.02.57,0,.86,0,.03-.08.27-.04.35.07.15.3-.04.37.14-.16,0-.33,0-.49,0-.19,0-.38.04-.45-.06-.01-.14.02-.29,0-.43-.02-.14-.03-.26-.04-.41,0-.14,0-.27,0-.41,0-.01,0-.03,0-.04.2,0,.41,0,.61,0Z"/>
        <path class="cls-55" d="M20.69,13.16c-.02.19.03.35.04.53.01.16,0,.33,0,.49-.2,0-.41,0-.61,0,0-.35.01-.67.04-1.02h.53Z"/>
        <path class="cls-14" d="M17.92,15.81c-.08.81.18.44.31.53.05.04-.03.24.08.29.25.11.47-.25.43.41-.01,0-.15.04-.29.04-.16,0-.19-.04-.2-.04.03-.37-.02-.34-.37-.33,0-.29-.05-.43-.37-.37,0-.02-.01-.32,0-.41.02,0-.15-.03.41-.12Z"/>
        <path class="cls-14" d="M19.47,14.22c-.03.22.04.35.04.41,0,.02-.07.11-.04.37-.28.02-.46.03-.37.37h-.69l-.04-.04c.56.04.57.03.45-.61-.07-.31.44-.16.55-.2.12-.05,0-.23.1-.29Z"/>
        <path class="cls-55" d="M20.12,14.22c0,.14,0,.27,0,.41h-.61c0-.05-.07-.19-.04-.41.06-.04.53-.03.65,0Z"/>
        <path class="cls-29" d="M18.82,14.71c.12.64.11.65-.45.61.18-.37-.19-.7.45-.61Z"/>
        <path class="cls-25" d="M12.95,13.9c0,.08.07.17.08.24-.1.01-.26-.02-.33,0-.01-.08.02-.18,0-.24h.24Z"/>
        <path class="cls-4" d="M27.69,1.76c-.16.59.11.35.22.41.13.07-.13.24.47.22-.14.58.21.37.12,1-.07,0-.46-.04-.49-.04,0-.79-.38-.25-.49-.55-.02-.06.02-.22,0-.29-.01-.04-.11,0-.12-.04-.05-.28.09-.65-.04-.71.09,0,.09-.04.12-.04.01,0-.03.03.2.04Z"/>
        <path class="cls-3" d="M29,3.75c.01.13,0,.27,0,.41-.13-.02-.33.02-.45,0-.42-.08-.43-.53.45-.41Z"/>
        <path class="cls-34" d="M26.11,1.72c.13,0,.27.08.41.04-.03.38.28.74-.33.73-.28.02-.78-.05-.81.06l-.02.92h-1.28c0-.09-.13-.59.02-.77h1.14l-.02-.92c.04-.1.77-.07.9-.06Z"/>
        <path class="cls-10" d="M29.28,18.7s0,.03,0,.04c0,.08.02.42-.02.45-.03.02-.39-.01-.51,0,0-.05-.08-.15-.08-.16,0-.48.24-.3.61-.33Z"/>
        <path class="cls-10" d="M29.89,17.8c0,.13,0,.26,0,.39-.03.04-.15.01-.2.02-.12.02-.28,0-.41,0,.05-.61.12-.42.12-.45l.49.04Z"/>
        <path class="cls-5" d="M29.89,17.36c0,.14,0,.27,0,.41,0,.01,0,.03,0,.04l-.49-.04c.08-.34-.23-.57.49-.41Z"/>
        <path class="cls-38" d="M30.02,17.07c.08-.01.09.04.12.04-.03.51.12.72-.24.65,0-.14,0-.27,0-.41,0-.07-.06-.13-.04-.22.05-.03.1-.05.16-.06Z"/>
        <path class="cls-43" d="M27.98,21.06c-.06.97-.2.34-.47.53-.06.04,0,.36-.02.43-.05.1-.16.04-.2.06v-.08c.04-.52-.08-.38-.08-.41-.03-.17-.07-.36-.04-.53h.81Z"/>
        <path class="cls-30" d="M27.98,20.78c0,.08,0,.16,0,.24,0,.01,0,.03,0,.04h-.81s0-.1,0-.12c0-.01.17-.2.18-.2.09-.04.44.08.63.04Z"/>
        <g>
          <path class="cls-14" d="M29.73,20.74s-.18-.09-.45-.02c.02.13-.03.92.02.96.02.01.41,0,.43-.02.03-.04-.02-.77,0-.92.05,0,.16-.06.41-.04.18.01.28-.05.37.16-.03.15.02.43,0,.61,0,.06,0,.12,0,.18-.03.04-.12.01-.16.02-.11.02-.48-.05-.53.06v.75s-.2.07-.51.04c0,.45-.1.42-.1.45-.12.01-.48-.02-.51,0-.05.04,0,.4-.02.49-.02,0,.15.09-.41.08-.14,0-.27,0-.41,0,.06-.38-.27-.19-.33-.26-.05-.07.17-.28-.33-.22-.02-.14-.07-.28-.04-.43-.04-.09-.24.02-.41-.02,0-.04-.04-.04-.04-.08.72-.11.45.18.59.24.09.04.28-.08.37-.04.17.08-.27.41.83.26.01-.78,0-1.56-.04-2.34,0-.11,0-.18.04-.29.05,0,.22-.05.24-.1,0-.06,0-.12,0-.18.82-.13.37.38.49.55.06.08.51-.07.49.1Z"/>
          <g>
            <path class="cls-14" d="M32.42,15.52s.08.33.04.59c.17,0,.41.06.57.06-.06.36.06.75.04,1.1-.04.79-.24.38-.33.51-.01.02,0,.42,0,.51-.01.37.01.73,0,1.1-.02,0,.22.05-.33.12-.22.03-.51-.06-.61.06-.06.13.05.66.04.79,0,.02-.05.12-.06.33-.17,0-.34,0-.51,0-.24,0-.48,0-.71,0-.09.05-.05.11-.06.16-.09-.21-.19-.15-.37-.16.02-.1-.03-.57.02-.61.12-.09,1.56,0,1.61-.06.17-.24-.36-.73-.14-1.16l1.08-.06c.11-1.6-.24-.92-.37-1.1-.07-.09.1-1.47.04-1.55-.02-.03-.4-.06-.45.04-.19.43.62.62-1.26.55v-.24c.56.03.48-.01.49-.37.59.02.66.07.53-.57.2,0,.15-.04.16-.04.19,0,.38,0,.57,0Z"/>
            <path class="cls-25" d="M30.14,20.7c-.25-.02-.35.04-.41.04.02-.17-.43-.02-.49-.1-.12-.17.33-.68-.49-.55.02-.2,0-.64,0-.9.12-.01.48.02.51,0,.04-.03.02-.37.02-.45.12-.09.37,0,.41-.06.02-.03-.01-.34,0-.47.05,0,.17.02.2-.02,0-.13,0-.26,0-.39,0-.01,0-.03,0-.04.37.07.22-.14.24-.65.53-.03.53.14.53-.37,1.88.07,1.07-.12,1.26-.55.04-.1.43-.07.45-.04.05.08-.11,1.45-.04,1.55.12.18.47-.5.37,1.1l-1.08.06c-.22.43.31.92.14,1.16-.05.07-1.49-.02-1.61.06-.05.04,0,.51-.02.61Z"/>
          </g>
          <path class="cls-25" d="M26.72,22.53c0-.05,0-.15,0-.2,0,0,.08-.15.08-.16.14-.02.37.03.47,0,.04,0,.02-.08.02-.08.04-.02.16.04.2-.06.03-.06-.04-.39.02-.43.27-.19.41.44.47-.53,0-.01,0-.03,0-.04.57.07,0-.31.49-.37.04.78.05,1.56.04,2.34-1.1.14-.66-.18-.83-.26-.08-.04-.28.08-.37.04-.14-.06.13-.35-.59-.24Z"/>
          <path class="cls-7" d="M29.73,20.74c-.02.14.03.88,0,.92-.02.03-.41.03-.43.02-.05-.04,0-.82-.02-.96.26-.07.43.02.45.02Z"/>
          <path class="cls-46" d="M28.51,20.37c-.03.1-.05.18-.04.29-.48.05.08.44-.49.37,0-.08,0-.16,0-.24v-.41s.03,0,.04,0c.12,0,.41.02.49,0Z"/>
          <path class="cls-36" d="M29.69,18.21c-.01.12.02.44,0,.47-.04.06-.29-.03-.41.06,0-.01,0-.03,0-.04,0-.16-.01-.33,0-.49.13,0,.29.02.41,0Z"/>
          <path class="cls-13" d="M27.29,22.08s.02.07-.02.08c-.09.03-.33-.02-.47,0,0-.03,0-.05,0-.08.19-.02.39.06.49-.08v.08Z"/>
        </g>
        <path class="cls-18" d="M28.47,19.03c.15,1.39-.58.13-.45,1.34-.01,0-.03,0-.04,0-.93-.08-.19-.34-.98-.29,0-.02-.05-.39-.1-.41-.35-.03-.68.04-.71.04-1.13-.05-.54-.04-.81-.69-.22,0-.44,0-.65,0-.87-.04-.32-.1-.49-.47-.1-.22-.76.25-.61-.47.07,0,.14,0,.2,0,.36.01,2.06-.13,2.26-.04.13.06-.01.39.12.45.27.12.52-.29.53.41.58.05,1.15.08,1.73.12Z"/>
        <path class="cls-4" d="M29.28,18.21c-.01.16,0,.33,0,.49-.37.03-.61-.16-.61.33h-.04c-.01-.31.14-.46.12-.79.07-.05.41-.01.53-.02Z"/>
        <path class="cls-4" d="M20.57,16.26c.65-.04.45.14.51.16.85.02-.29.48,1,.49-.09.52.34.25.41.35.02.03-.03.31.02.35.04.03.39-.04.43.02.03.04-.04.35.02.39.03.02.46-.01.57,0,.02,0,.05.08.1.08-.15.72.51.24.61.47.17.37-.38.43.49.47-.14.4.8.37.65,0,.27.65-.31.65.81.69-.04.84-.01.52.75.57.09-.06.06-.12.06-.2.79-.05.05.21.98.29v.41c-.19.04-.54-.08-.63-.04-.01,0-.18.19-.18.2l-1.22.08c-.05-.49-1.3.34-1.02-.75-.05,0-.13-.06-.16-.06.1-.96-.34-.21-.47-.65-.3-.03-.44.04-.47.04,0,0,.04-.04-.16-.04,0-.14,0-.27,0-.41,0-.8-.1-.23-.26-.61-.66-.03-.4.03-.47.26-.01.04-.08.02-.08.02h-.69c0-.11-.05-.24-.04-.37.03-.76.3-.88-.59-.81l-.08-.69h-.9c-.11-.04.02-.3-.02-.43-.04-.12-.32.09-.37-.18.15-.05.25-.07.41-.08Z"/>
        <path class="cls-16" d="M18.73,17.03c.16,0,1.27,0,1.32.04.06.04-.02.57.04.61l.83.06c-.07,1.05.04.53,1.18.71,0,.13.04.26.04.37,0,.02-.11.24,0,.33,0,0-.12.11-.12.12l-1.16-.04-.08-.81h-.96l-.08-.08-.06-.65c-.29-.01-.59.02-.88,0-.07,0-.34.02-.37-.02-.02-.03.02-.46,0-.59.14,0,.27-.04.29-.04Z"/>
        <path class="cls-14" d="M23.66,19.56c.21,0,.15.04.16.04l.04.65s-.11-.03-.29-.04c-.19,0-.38,0-.57,0-.32-.01-.64,0-.96,0-.04-.03-.04-.88-.02-.94,0,0,.11-.12.12-.12.45-.13.2.38.35.45.16.07.94-.04,1.16-.04Z"/>
        <path class="cls-54" d="M27.16,20.94s0,.08,0,.12c-.03.17.01.36.04.53-.33-.03-.39.04-.41.04-.27,0-.56-.08-.83-.04-.15-.11-.02-.54-.02-.57l1.22-.08Z"/>
        <path class="cls-54" d="M24.76,20.21s-.67.05-.9.04l-.04-.65s.17-.07.47-.04c.12.44.57-.31.47.65Z"/>
        <path class="cls-35" d="M27.21,21.59s.12-.11.08.41c-.09.15-.3.06-.49.08,0-.02-.11-.22,0-.45.02,0,.08-.07.41-.04Z"/>
        <path class="cls-14" d="M14.21,16.54l.04.45c-.52-.01-.34.29-.37.67-.03.04-.22.01-.29.02-.18.02-.92-.03-.96,0l-.02.65-.08.08h-.96l-.08.81-1.12.02-.06,1c-.31,0-.61,0-.92,0-.01,0-.03,0-.04,0-.09,0-.58-.02-.61.02-.02.03.02.5,0,.63-.12,0-.24,0-.37,0-.24,0-.48,0-.71,0l-.06.65c-.06,0-.1.03-.2.04-.3.02-.61-.01-.92,0-.12.15-.03.36-.06.47,0,.03-.06,0-.08.06-.19-.03-.47-.08-.65-.08v-.45c.14-.02.68.02.71,0,.05-.04,0-.58.02-.69.17,0,.36-.03.53-.04.1,0,.57.02.59,0,.23-.16-.59-.77,1.06-.61l.02-.69s.03,0,.04,0c.59-.02,1.15.06,1.2.04.11-.05.04-.21.06-.29,0-.02-.02-.07.06-.12.4.04.29-.08.31-.08.06,0,.03.08.06.08.37,0,.73,0,1.1,0,.02-.26.08-.67-.06-.77l.04-.04c1.17-.05,1.2.27,1.14-.63-.02-.04-.12-.01-.16-.02v-.08l1.41-.04c.08-.06-.02-.52-.02-.61,0-.14,0-.29,0-.43.03-.04.33-.02.41-.02Z"/>
        <path class="cls-57" d="M22.73,4.37c0,.06-.06.38-.06.65l-1.24.02-.02.71c-.32-.03-1.07.04-1.24,0-.04,0-.1.02-.12-.02l.02-.75,1.26.04s.01-.33.02-.41c.01-.09-.04-.18.06-.24.18.04.37-.03.55-.04.04,0,.48.08.77.04Z"/>
        <path class="cls-16" d="M20.12,5.83c-.01.12.03.7-.02.73-.31-.03-1.04.04-1.2,0-.26-.07-.06-.49-.08-.69l.04-.04h1.26Z"/>
        <g>
          <path class="cls-34" d="M23.01,3.55c.12,0,.24,0,.37,0l-.04.77h-.61s-.13.12-.08-.69c.02,0-.11-.12.37-.08Z"/>
          <path class="cls-53" d="M24.03,3.59c0,.24,0,.48,0,.71l-.69.02.04-.77c.2,0,.5-.03.65.04Z"/>
        </g>
        <path class="cls-34" d="M21.3,15.04h.63c.21.15-.46.87.73.69,0,.35-.08.58.35.57.02.09-.05.4.06.45.02.01.34,0,.43,0,.01.81.31.34.41.55.04.08-.07.34-.08.43-.85.14-.41-.39-.59-.49-.05-.03-.41.03-.45,0-.16-.12.29-.36-.39-.37,0-.93-.76.2-.61-1.04-.98-.03-.59-.03-.69-.31-.06-.18-.3,0-.37-.14-.04-.08.04-.31.04-.35h.53Z"/>
        <path class="cls-10" d="M23.5,16.75c-.09,0-.4.01-.43,0-.12-.05-.04-.35-.06-.45.06,0,.03-.08.06-.08.09,0,.55.02.57,0,.06-.04-.02-.49.04-.53.04-.03.94-.03.98,0,.03.02.03.45.02.47-.04.06-.31-.04-.37.08-.03.07.04.39-.02.43-.03.02-.53-.01-.65,0-.02,0-.13.08-.14.08Z"/>
        <path class="cls-11" d="M23.82,17.72s.1.12,0,.37c-.07,0-.14,0-.2,0-.05,0-.08-.08-.1-.08-.11-.01-.54.02-.57,0-.06-.04,0-.35-.02-.39-.04-.06-.39,0-.43-.02-.05-.04,0-.31-.02-.35-.07-.1-.5.18-.41-.35.28,0,.31-.04.33-.04.68,0,.22.25.39.37.04.03.4-.03.45,0,.19.1-.26.62.59.49Z"/>
        <path class="cls-55" d="M21.3,15.04h-.53c-.02-.28-.1-.57,0-.86.08,0,.46-.02.49.02l.04.83Z"/>
        <path class="cls-58" d="M16.41,4.77c-.02.16.05.5,0,.61,0,.02-.04.08-.04.08h-.73c.03-.15-.02-.46,0-.65.1-.03.12-.08.12-.08.15-.05.46.05.65.04Z"/>
        <path class="cls-16" d="M10.3,19.11c-.06-1.01.03-.51,1.1-.69.14.11.08.51.06.77-.37,0-.73,0-1.1,0-.03,0,0-.08-.06-.08Z"/>
        <path class="cls-16" d="M12.42,17.64c-.16-1.02.47-.33,1.38-.65,0,.09.1.55.02.61l-1.41.04Z"/>
        <path class="cls-16" d="M12.42,17.72s.14-.02.16.02c.06.9.03.58-1.14.63l.02-.65c.27.03.75-.04.96,0Z"/>
        <path class="cls-14" d="M14.82,16.01v.53c-.19,0-.38,0-.57,0-.05-.77.09-.46.57-.53Z"/>
        <path class="cls-11" d="M20.16,15.04c.02.13-.01.29,0,.43.07.1.26.06.45.06-.03.08-.04.16-.04.24-.52-.04-.38.08-.41.08-.81.06-.51-.31-.59-.37-.09-.06-.4.12-.47-.12-.09-.34.09-.35.37-.37.07,0,.37.08.69.04Z"/>
        <path class="cls-33" d="M20.57,15.77c0,.16,0,.33,0,.49-.16,0-.26.03-.41.08-.02-.13.02-.34,0-.49.02,0-.11-.12.41-.08Z"/>
        <path class="cls-56" d="M21.1,15.52c.1.28-.28.28.69.31-.15,1.24.61.11.61,1.04-.02,0-.05.04-.33.04-1.29,0-.15-.46-1-.49-.06-.03.14-.2-.51-.16,0-.16,0-.33,0-.49,0-.09.01-.16.04-.24.16,0,.33,0,.49,0Z"/>
        <path class="cls-54" d="M20.12,14.63c0,.15.02.26.04.41-.32.03-.62-.05-.69-.04-.03-.25.04-.35.04-.37h.61Z"/>
        <path class="cls-11" d="M27,20.09c0,.08.03.15-.06.2-.77-.05-.79.27-.75-.57.04,0,.36-.08.71-.04.05.02.1.39.1.41Z"/>
        <path class="cls-33" d="M25.37,19.03c.15.37-.79.4-.65,0,.22,0,.44,0,.65,0Z"/>
        <path class="cls-56" d="M22.85,18.82c-.03.43.54.22.81.33,0,.14,0,.27,0,.41-.22,0-1,.11-1.16.04-.15-.07.1-.58-.35-.45-.11-.09,0-.31,0-.33h.69Z"/>
        <path class="cls-5" d="M23.66,19.15c-.27-.11-.84.1-.81-.33,0,0,.07.02.08-.02.07-.23-.19-.3.47-.26.16.38.26-.19.26.61Z"/>
        <g>
          <path class="cls-43" d="M3.18,14.83c-.27.83.48.52,1.24.57.1-.07.05-.2.06-.33h.53c-.07.63-.31.11-.45.31-.09.12.24.53-.37.49.28.63-1.01.51-1.04.26h-1.57c.02-.55-.43-.56-.45-.2h-.57c0-.38-.04-.43-.04-.45,0-.16.04-.12.04-.12-.03.15.44.06.83.08.27-.19-.82-.9,1.77-.61Z"/>
          <path class="cls-16" d="M2.16,14.1c.31,0,.62,0,.94,0h.08c.02.36-.06.69.08.65,0,.06-.06.01-.08.08-2.59-.29-1.51.42-1.77.61-.39-.03-.87.07-.83-.08,0-.07,0-.14,0-.2.01-.07-.03-.29.02-.33.13-.01.26.01.39,0,.37-.04.48.17.45-.65,0,0-.01-.08.02-.08.24,0,.48,0,.71,0Z"/>
          <path class="cls-4" d="M8.92,16.79c0,.92-.45.1-.37.94,0,0,.01.08-.02.08-.2,0-.97-.02-1.02,0-.11.05-.03.25-.08.29-.06.04-1.33-.04-1.38,0-.05.04,0,.31-.02.35-.02.03-.41.05-.43.06-.03.03.05.54-.45.33-.11-.05-.03-.25-.08-.29-.02-.01-.39-.01-.41,0-.07.05.05.39-.08.45-.57.25-.23-.65-.41-.73-.02-.01-.51-.02-.53,0-.04.03-.02.41-.02.49-.17-.27-.34-.13-.65-.2,0-.04-.03-.04-.04-.08-.01-.09.04-.32-.06-.37-.18-.07-.62.45-.51-.67-.12,0-.27-.05-.37-.06-.02-.15.02-.76,0-.79-.06-.09-.64.16-.49-.35.01-.04-.03-.1.08-.08h1.57c.03.24,1.32.37,1.04-.26.6.04.28-.37.37-.49.14-.2.38.32.45-.31,0-.08-.02-.42.02-.45.03-.02.45.01.57,0,.1,1.02.5-.06.57,1.02,2.11-.05,1.3.05,1.49.47,1.05.1-.16.63,1.16.51l.1.16Z"/>
          <path class="cls-10" d="M6.44,14.42c.67.05.23.09.37.39.05.12.38.03.43.06.06.04-.02.33.04.37.03.02.37-.02.41,0,.05.04,0,.27.02.35.1.31,1.35-.28,1.06.61.68,0,.5.1.53.1-.01.11.02.4,0,.43-.04.06-.25-.03-.37.06l-.1-.16c-1.32.12-.11-.41-1.16-.51-.18-.42.63-.52-1.49-.47-.07-1.08-.47,0-.57-1.02-.12.01-.54-.02-.57,0-.04.03-.01.37-.02.45h-.53c.02-.29-.06-.8.06-.86.25.03,1.27-.03,1.34,0,.22.1-.27.14.55.2Z"/>
          <path class="cls-16" d="M5.91,13.45c-.32.37.22.31.53.24v.73c-.82-.06-.33-.1-.55-.2-.07-.03-1.09.03-1.34,0-.12.05-.04.56-.06.86-.01.12.04.26-.06.33-.76-.05-1.51.26-1.24-.57.02-.07.08-.02.08-.08h.92c.15-.07.02-.55.02-.65,0-.02.04-.06.04-.41.24-.03.86.06,1.02-.04.16-.1.02-.3.22-.45.2.06.2.2.43.24Z"/>
          <path class="cls-9" d="M1.14,15.93c-.02.39.06.17.37.29-.15.5.43.26.49.35.02.03-.02.65,0,.79-.02,0-.26.04-.33.04-.05,0-.11,0-.16,0-.16-.21-.05-.47-.08-.55-.05-.12-.27,0-.33-.12-.1-.24.3-.6-.53-.51,0-.1,0-.19,0-.29h.57Z"/>
          <path class="cls-4" d="M1.59,16.14c-.11-.01-.07.04-.08.08-.31-.12-.39.1-.37-.29.02-.36.47-.35.45.2Z"/>
          <path class="cls-16" d="M1.39,9.01c0,.07-.01.42.02.45l1.12.04c.05.14.03.31.06.33.09.06,2.03-.06,2.12,0,.06.05-.04.35.08.41.15.07,2.23-.07,2.32,0,.06.04-.02.57.04.61.12.08,2.49-.06,2.85,0,.1.04.06.5.06.61,0,.07-.09.19-.02.33h1.16s.08.03.08.06c.02.28-.04.4-.04.43-1.09.08-1.51-.38-1.38.49-.08,0-.16,0-.24,0-.18,0-1.22,0-1.28.04-.07.05.05.59-.08.65-.6-.02-1.21.03-1.81,0-.17,0-.43.02-.53,0-.23-.05-.23-.19-.43-.24-.2.15-.06.35-.22.45.03-.3-.04-.5-.04-.53,0-.09.04-.22.04-.33h1.06c.33,0,.65,0,.98,0,.26,0,.53,0,.79,0,.09-.06.08-.53.06-.57-.01-.09.01-.07.08-.08.42-.04,1,.03,1.45,0,.15-.87-.01-.64-1.49-.65-.42,0-.86.05-.81-.08.03-.33-.23-.15-.29-.22-.02-.03.03-.27-.02-.31-.08-.06-.67.04-.79.04-.35-.01-.67,0-1.02,0-.02,0-.13-.07-.41-.04,0,0-.08.01-.08-.02,0-.2.04-.4-.06-.47-.18,0-.37,0-.55,0-.33-.02-.66.04-.98.04-.22,0-.45-.04-.67-.04-.03,0-.02-.08-.02-.08.16-.52-.47-.27-1.34-.33,0-.01,0-.03,0-.04,0-.08.02-.38-.02-.41-.03-.02-.29.01-.39,0,0-.17-.04-.35-.04-.53.28.03.39-.04.41-.04.01,0,.01.07.29.04Z"/>
          <path class="cls-10" d="M1.51,17.4c-.07,0-.28-.01-.31,0-.08.06.2.32-.59.24.01-.32-.04-1-.04-1.43.83-.09.43.27.53.51.05.12.27,0,.33.12.04.08-.07.34.08.55Z"/>
          <path class="cls-18" d="M8.76,17.8c.13,1.06-.35.51-.55.65-.24.17.65.72-1.22.57l-.08.65c-.15.02-.98-.03-1.02,0-.07.05.05.51-.08.57-.4-.03-.84.1-1.24.04-.49-.08-.19-.15-.29-.35-.05-.1-.18-.04-.2-.08-.03-.04.04-.35-.02-.39-.23-.16-.44.43-.43-.65,0-.03,0-.05,0-.08,0-.08-.02-.46.02-.49.02-.02.51-.01.53,0,.18.08-.17.99.41.73.13-.06.01-.4.08-.45.02-.01.39-.01.41,0,.05.04-.03.24.08.29.5.22.42-.3.45-.33.02-.01.4-.03.43-.06.02-.03-.03-.31.02-.35.06-.04,1.33.04,1.38,0,.05-.04-.03-.24.08-.29.05-.02.82,0,1.02,0,.03,0,.02-.08.02-.08.05,0,.05.09.2.08Z"/>
          <path class="cls-34" d="M11.24,15.04h.49c.02.26.16.56.43.37.06-.05-.05-.28.1-.24,0,.09,0,.19,0,.29l-.88.04s-.01.19-.02.24c-1.23-.04-.55.5-.73.75-.08.12-.7-.2-.57.35-.66.07-.24.3-.39.41-.05.03-.41-.06-.47.06-.15.34.35.47-.45.51-.16,0-.16-.08-.2-.08-.08-.84.36-.02.37-.94.12-.09.33,0,.37-.06.02-.03-.01-.32,0-.43,1.17.1-.19-.66,1.22-.67-.03-.2.03-.4.04-.59h.69Z"/>
          <path class="cls-14" d="M2.93,18.46s.04.04.04.08c0,.09,0,.19,0,.29.02.22-.01.45,0,.67,1.05.09.24.23.65.79,0,0-.03.06-.14.04-.03,0,.07-.17-.31-.12,0-.05,0-.11,0-.16,0-.19-.58.02-.65-.14.05-.38-.05-1.02-.04-1.2,0-.07-.03-.21.06-.24.04-.02.26.01.39,0Z"/>
          <path class="cls-43" d="M2,17.36c.1,0,.24.05.37.06-.11,1.12.33.6.51.67.1.04.05.28.06.37-.12.01-.34-.02-.39,0-.09.04-.06.17-.06.24-.17.07-.36.06-.53,0-.09-.23.23-.6.12-.75-.1-.14-.52.3-.41-.55.07,0,.31-.04.33-.04Z"/>
          <path class="cls-45" d="M3.63,18.74s0,.05,0,.08h-.65c0-.09,0-.19,0-.29.31.08.48-.06.65.2Z"/>
          <g>
            <path class="cls-4" d="M9.86,12.75c.83.08.36.2.49.39.04.05.19,0,.22.02.11.06.03.21.08.24.03.02.33-.02.37,0,.16.11-.38.42.71.37-.01.09.02.4,0,.43-.09.13-.61-.26-.49.47-1.02-.04-.67.08-.69.37-.01.19-.07.39-.04.59-1.41.01-.05.77-1.22.67-.03,0,.15-.1-.53-.1.29-.89-.96-.3-1.06-.61-.02-.07.03-.31-.02-.35-.03-.02-.37.02-.41,0-.06-.04.02-.33-.04-.37-.05-.03-.37.06-.43-.06-.13-.3.3-.34-.37-.39v-.33l2.46.04c-.13-1.53.89.1.71-1.38.08,0,.16,0,.24,0Z"/>
            <path class="cls-43" d="M9.61,12.75c.18,1.48-.85-.15-.71,1.38l-2.46-.04v-.65c.6.03,1.21-.02,1.81,0,.14-.06,0-.6.08-.65.07-.05,1.1-.05,1.28-.04Z"/>
          </g>
          <path class="cls-5" d="M5.91,13.45c.1.02.36,0,.53,0v.24c-.3.06-.85.13-.53-.24Z"/>
          <path class="cls-18" d="M7.82,9.33c-.45-.11-.48.23-.41.37.09.17,3.37.05,3.79.04,0,.16,0,.33,0,.49,0,.39,0,.79,0,1.18l-1.14.04c0-.11.04-.57-.06-.61-.36-.06-2.73.08-2.85,0-.06-.04.02-.57-.04-.61-.09-.07-2.17.07-2.32,0-.12-.05-.02-.36-.08-.41-.09-.06-2.03.06-2.12,0-.03-.02-.01-.19-.06-.33-.01-.03.07-.06.02-.08-.4-.14-.52.4-.47-.83.58-.21.6.09.57-.67.93.15.55-.16.67-.24.03-.02.23.03.26-.02.14-.2-.39-.42.61-.49.02-.15-.02-.74,0-.77.02-.03.45-.03.47-.02.06.04,0,1.04.02,1.2-1.29,0,.02.89-1.12.75-.09.53-.24.25-.31.35-.01.01-.03.31.06.35.16.07,3.09,0,3.54.04-.04-.28.41-.13.94-.16.08.03.02.37.02.45Z"/>
          <path class="cls-54" d="M1.59,7.3s-.01.09.06.12c.05.02.25-.02.29,0,.05.04-.01.21.04.24.01,0,.13-.09.24-.04.11.05.01.23.12.29.04.02.22-.01.31,0,.03.77,0,.46-.57.67-.06,1.23.07.69.47.83.05.02-.03.05-.02.08l-1.12-.04s-.03-.38-.02-.45c0-.07.26-.86-.08-.98.27-.13-.07-.17-.08-.18-.11-.19.2-.35-.12-.39,0-.05.04-.04.04-.04.04-.04.03-.2.45-.12Z"/>
          <path class="cls-18" d="M11.24,12.27c0,.42-.1.45.41.41.01.13-.02.4,0,.43.02.04.12.02.16.02,0,.22-.05.44-.08.65-1.09.06-.55-.25-.71-.37-.03-.02-.33.02-.37,0-.05-.04.03-.18-.08-.24-.04-.02-.19.03-.22-.02-.13-.19.34-.31-.49-.39-.12-.87.3-.4,1.38-.49Z"/>
          <path class="cls-18" d="M1.1,8.03v.94s-.13.07-.41.04c0-.01,0-.03,0-.04,0-.3-.04-.61,0-.92.03-.04.34-.02.41-.02Z"/>
          <path class="cls-34" d="M11.2,11.78h-1.16c-.07-.13.02-.25.02-.33l1.14-.04c.06,0-.01.17,0,.37Z"/>
          <path class="cls-11" d="M1.3,8.03c.34.11.09.91.08.98-.27.03-.27-.04-.29-.04v-.94c.08,0,.18,0,.2,0Z"/>
          <path class="cls-10" d="M1.3,4.73c-.03.16.02.41,0,.59.07.11.28.05.49.06-.02.15.03.92,0,.96-.05.06-.61-.02-.65.04-.03.04.02.88,0,1.04,0,0-.05,0-.04.04-.2-.02-.44.06-.53-.06v-2.69c.04-.09.76-.12.73.02Z"/>
          <g>
            <path class="cls-25" d="M1.34,4.61c-.25,0-.52-.07-.77-.06l-.04-.79s0-.03,0-.04c0-.03.04.14.08-.57l1.26-.02v1.43c-.07.1-.31.06-.53.06Z"/>
            <path class="cls-14" d="M1.91,2.13c0,1.09-.04,2.17.04,3.26-.02,0-.14,0-.16,0-.21-.01-.41.04-.49-.06.02-.18-.03-.43,0-.59,0,0,.06.02.04-.12.22,0,.46.03.53-.06v-1.43l-1.26.02c0-.15-.02-.34,0-.45,0-.04-.02-.14.02-.16.17-.01.34.01.51,0,.13-.01.42.02.47,0,.16-.07-.1-.48.31-.41Z"/>
          </g>
          <path class="cls-10" d="M1.06,18.29c-.06.22-.26.09-.45.12.02-.15-.05-.4.06-.45.14-.06.49-.04.39.33Z"/>
          <path class="cls-10" d="M3.18,20.04c0,.05,0,.11,0,.16.02.16.03,1.4,0,1.47,0,0-.04.04-.04.04-.05.02-.36-.02-.49,0,0-.06-.08-.11-.08-.12,0-1.37-.2-1.8.61-1.55Z"/>
          <path class="cls-4" d="M12.22,16.22c-.01.21,0,.42,0,.63-.03.05-.26,0-.33.02-.14-.14,0-.55-.43-.37-.11.05-.04.24-.06.33-.07.25-.38.05-.45.14-.02.03.02.27,0,.33-.05.12-.28.02-.33.08-.03.04.06.33-.06.39-.06.03-.37-.03-.41,0-.09.06.18.42-.45.33-.05.72-.47.28-.65.41-.06.04.01.25-.04.29-.21.15-.23-.31-.31.37-.02.14.02.27-.04.41-.01,0-.03,0-.04,0-.16,0-.31,0-.47-.04-.1.21-.33.1-.57.12.11,1.27-.79-.05-.63,1.22-.17,0-.36.04-.53.04-.35.01-.71,0-1.06,0-.27,0-.54-.11-.81,0-.02-.2.01-.41,0-.61.4.06.84-.07,1.24-.04.13-.06,0-.52.08-.57.04-.03.87.02,1.02,0l.08-.65c1.87.15.98-.4,1.22-.57.2-.14.68.41.55-.65.8-.04.3-.17.45-.51.06-.12.42-.03.47-.06.14-.1-.27-.34.39-.41.04,0,.6.04.83,0-.04-.78.47-.12.51-.61h.81Z"/>
          <path class="cls-43" d="M3.63,18.82c-.02,1.08.2.49.43.65.06.04,0,.34.02.39.03.04.16-.02.2.08.09.19-.21.27.29.35.01.2-.02.41,0,.61,0,.06-.02.26.02.29h.75s.05.07.04.41c0,.14-.03.27-.04.41-.42.09-.17-.3-.26-.37-.04-.03-.38.03-.45,0-.22-.1.31-.52-.67-.41.21-1.15-.09-.9-.33-.94-.41-.56.4-.7-.65-.79-.01-.22.02-.45,0-.67h.65Z"/>
          <path class="cls-16" d="M12.71,13.9c.02.06-.01.17,0,.24-.02,0,.12.09-.41.18-.01.18.02.37,0,.55,0,.09-.03.18-.04.29-.15-.03-.04.2-.1.24-.27.19-.41-.1-.43-.37,0-.06.02-.8.04-.83.18-.25.54.52.45-.71.06-.04.26-.06.31-.04.02,0,.17.4.18.45Z"/>
          <path class="cls-55" d="M12.18,13.12c0,.53.04.34.04.37.09,1.23-.27.46-.45.71-.02.03-.05.77-.04.83h-.49v-.37c-.12-.73.4-.34.49-.47.02-.03-.01-.33,0-.43.03-.22.08-.43.08-.65.07,0,.2-.1.37,0Z"/>
          <path class="cls-56" d="M11.4,16.22c-.04.49-.55-.16-.51.61-.24.04-.79,0-.83,0-.13-.55.49-.23.57-.35.18-.25-.5-.79.73-.75-.04.31.04.46.04.49Z"/>
          <path class="cls-4" d="M13.15,15.08c.1.68-.28.42-.39.49-.08.06.18.36-.47.29,0-.02-.07.09-.04-.41,0-.09,0-.19,0-.29,0-.1.03-.19.04-.29.79-.22.3.31.86.2Z"/>
          <path class="cls-11" d="M12.3,15.85s-.05-.15-.08.37h-.81s-.08-.18-.04-.49c0-.06-.02-.21.02-.24l.88-.04c-.03.5.04.38.04.41Z"/>
          <path class="cls-54" d="M11.24,14.67v.37h-.69c.02-.29-.33-.41.69-.37Z"/>
          <path class="cls-14" d="M3.63,20.29c.23.04.53-.21.33.94,0,.04-.1.16-.1.41l-.67.04c.03-.07.02-1.31,0-1.47.37-.05.28.12.31.12.11.02.14-.04.14-.04Z"/>
          <path class="cls-4" d="M5.29,3.47c.04.27.27.14.49.16.01.16.06.33.06.49,1.3-.17.58.52.86.61.29-.13.59.03.86.08.1.02.42-.02.45,0,.06.04-.02.41.04.45.02.02.51.02.53,0,.1-.07-.25-.32.61-.24-.03,1.45.2.83.41.98.13.09-.37.37.9.29.01.67.22.31.45.41.31.14-.6.47,1.2.41.08,0,.13.01.2-.04,0,.26.04.42,0,.69,0,.03-.31.4.16.45-.45.05-.22.1-.29.53-.92-.11-.42.31-.63.41-.36.16-.35-.38-.39.61-.41,0-3.7.12-3.79-.04.67.05.4-.16.41-.37,0-.08.06-.42-.02-.45-.53.04-.97-.12-.94.16-.45-.03-3.38.03-3.54-.04-.09-.04-.07-.33-.06-.35.07-.09.21.18.31-.35,1.14.14-.17-.74,1.12-.75-.02-.16.03-1.16-.02-1.2-.02-.01-.45,0-.47.02-.02.03.02.63,0,.77-1,.07-.47.29-.61.49-.04.05-.23,0-.26.02-.12.08.26.39-.67.24-.09-.01-.27.02-.31,0-.11-.05-.01-.24-.12-.29-.11-.05-.23.05-.24.04-.05-.03.01-.21-.04-.24-.03-.02-.23.02-.29,0-.08-.03-.05-.12-.06-.12.02-.08-.03-.41.02-.45.04-.03.47.04.51-.02.03-.04-.03-.81,0-.86.04-.06.49.02.53-.04.03-.04,0-.87.04-1.02.14,0,.43-.06.45-.06.02,0-.06.05.37.08.16.01.27-.04.24.08-.02.05-.01.25.06.29,1.11.14-.02-.6,1.14-.45.22-.67-.21-1.55.35-1.38Z"/>
          <path class="cls-4" d="M7.82,9.33c0,.21.26.42-.41.37-.08-.14-.05-.47.41-.37Z"/>
          <path class="cls-34" d="M3.05,4.2s.13,0,.08.49v.16s-.31.06-.45.06c-.04.15-.01.98-.04,1.02-.04.06-.49-.02-.53.04-.03.04.03.81,0,.86-.04.06-.47,0-.51.02-.05.04,0,.36-.02.45-.42-.07-.4.08-.45.12.02-.15-.03-1,0-1.04.05-.06.61.02.65-.04.03-.04-.02-.81,0-.96.02,0,.14,0,.16,0,.09,0,.5.02.53-.02.05-1.06-.25-1.24.57-1.16Z"/>
          <path class="cls-10" d="M4.36.54s0,.05,0,.08v1.14c-.26.01-.53-.05-.61.06-.02.16.03,1.02,0,1.06-.04.06-.55,0-.59.02-.04.03-.02.48-.02.57-.03.82-.08.69-.08.73-.82-.08-.52.1-.57,1.16-.03.04-.44.02-.53.02-.08-1.08-.04-2.17-.04-3.26,0-.05,0-.11,0-.16.28,0,.57.01.86,0-.17.56.42.38.45.35.01-.02,0-.26,0-.35.02-.25-.03-1.3,0-1.36l1.14-.06Z"/>
          <path class="cls-18" d="M14.87,15.97c-.05,0-.04.04-.04.04-.48.07-.62-.24-.57.53-.01,0-.03,0-.04,0-.08,0-.38-.02-.41.02,0,.14,0,.29,0,.43-.91.32-1.55-.37-1.38.65v.08c-.21-.04-.68.03-.96,0l-.02.65-.04.04c-1.07.18-1.16-.32-1.1.69-.02,0,.09.12-.31.08-.08.05-.05.1-.06.12-.11-.2-.8-.12-1.22-.16.08-.68.1-.22.31-.37.06-.04-.01-.25.04-.29.18-.12.61.31.65-.41.63.09.36-.26.45-.33.04-.03.35.03.41,0,.12-.05.03-.34.06-.39.04-.06.27.04.33-.08.02-.05-.02-.29,0-.33.07-.09.38.11.45-.14.16.13.31.07.49.04.07-.01.29.03.33-.02,0-.21-.01-.42,0-.63.03-.52.08-.35.08-.37.65.08.38-.23.47-.29.1-.07.49.19.39-.49.05,0,.18-.16.2-.16.78-.17.38.48.51.57.04.03.89-.03.94,0,.06.05-.03.33.06.49Z"/>
          <path class="cls-37" d="M13.03,14.14c.02.07-.02.28,0,.31.07.09.41-.2.33.47-.03,0-.15.15-.2.16-.56.11-.06-.42-.86-.2.02-.18-.01-.37,0-.55.53-.1.38-.18.41-.18.06-.02.23.01.33,0Z"/>
          <path class="cls-16" d="M4.28,0s.06-.18.08.53l-1.14.06c-.03.07.02,1.11,0,1.36-.22-.11-.43,0-.45,0-.28.01-.57,0-.86,0,0-.02-.06-.08-.04-.33,0-.1,0-.2,0-.31.03-.04.22-.01.29-.02.09,0,.54.03.57-.02.02-.03-.02-.58,0-.71.02,0,.3-.06.49-.06-.03-.17.03-.34.04-.51h1.02Z"/>
          <path class="cls-54" d="M8.63,19.56l-.02.69c-1.65-.16-.83.45-1.06.61-.02.02-.49,0-.59,0-.16-1.27.74.05.63-1.22.24-.03.47.09.57-.12.16.04.31.05.47.04Z"/>
          <path class="cls-18" d="M6.44,20.9c-.02.11.03.66-.02.69-.03.02-.58-.02-.71,0h-.33c.01-.33-.04-.39-.04-.41,0-.01.07-.01.04-.29.35,0,.71.01,1.06,0Z"/>
          <path class="cls-11" d="M9.94,19.31c-.02.07.05.24-.06.29-.05.02-.61-.06-1.2-.04.06-.14.03-.27.04-.41.43.04,1.12-.04,1.22.16Z"/>
          <path class="cls-33" d="M5.38,20.9c.03.27-.04.27-.04.29h-.75s-.01-.22-.02-.29c.27-.11.55,0,.81,0Z"/>
          <path class="cls-5" d="M11.89,16.87c-.18.03-.33.09-.49-.04.02-.08-.05-.28.06-.33.42-.18.29.23.43.37Z"/>
          <path class="cls-55" d="M5.7,21.59v.45c-.18,0-.43-.06-.33.2-.16-.06-.05-.11-.04-.24.01-.14.03-.26.04-.41h.33Z"/>
          <path class="cls-43" d="M4.97,1.76c.26,0,.53,0,.79,0l.12.73h1.28c0,.05-.01.14,0,.16-.26.05-.16.45-.14.77h1.32s0,.08,0,.12c0,.13-.04.73.06.77.42.01.83-.03,1.24.04v.61l.06.08,1.24-.04.06.73,1.41-.04s0,.05,0,.08c0,.04-.13-.25-.16.73-.22.07-.09.35-.12.57-1.8.06-.89-.27-1.2-.41-.23-.1-.44.26-.45-.41-1.27.09-.76-.19-.9-.29-.2-.14-.44.48-.41-.98-.86-.08-.51.17-.61.24-.02.02-.51.02-.53,0-.06-.04.02-.41-.04-.45-.03-.02-.35.02-.45,0-.27-.06-.57-.21-.86-.08-.27-.09.45-.78-.86-.61,0-.16-.05-.33-.06-.49,0-.1.06-.63-.02-.69-.02-.01-.39-.03-.43.06,0,.02-.04.45-.04.47-.55-.16-.12.72-.35,1.38-1.16-.15-.03.59-1.14.45-.07-.03-.08-.23-.06-.29.08-.21.33-.04.37-.14.04-.48-.04-.97-.04-1.45,0-.1,0-.19,0-.29.52.08.25-.22.35-.29.24-.17.41.44.47-.65,0-.15,0-.3,0-.45.03,0,.05,0,.08,0Z"/>
          <path class="cls-43" d="M13.32,6.56c.11.94-.45-.02-.33,1.16l-.65.02c.04-.27,0-.43,0-.69,0-.02.11-.32,0-.49.22.02.71,0,.98,0Z"/>
          <path class="cls-58" d="M13.6,6.85c0,.14-.02.84-.04.88-.04.06-.33-.02-.37.04-.03.05.06.37-.06.43-.06.02-.48-.02-.63,0-.47-.05-.17-.41-.16-.45l.65-.02c-.12-1.18.44-.22.33-1.16.1,0,.2.02.29-.04,0,.11,0,.22,0,.33Z"/>
          <path class="cls-9" d="M4.07,3.43c0,.48.08.97.04,1.45-.04.1-.29-.07-.37.14.02-.12-.09-.07-.24-.08v-1.47s.28-.08.57-.04Z"/>
          <path class="cls-54" d="M12.22,8.72c-.06.41-.24.08-.33.26-.02.04.01.23,0,.33,0,.03-.08.02-.08.02-.07.01-.29-.03-.33.02-.01.01,0,.27,0,.35-.09.06-.19.04-.29.04.03-.99.03-.45.39-.61.21-.09-.29-.52.63-.41Z"/>
          <path class="cls-9" d="M5.78,3.63c-.22-.03-.45.1-.49-.16,0-.02.03-.45.04-.47.04-.09.41-.07.43-.06.08.06.01.59.02.69Z"/>
          <path class="cls-40" d="M12.34,6.56c.11.17,0,.46,0,.49-.07.05-.12.04-.2.04.03-.22-.1-.5.12-.57.04,0,.04.04.08.04Z"/>
          <path class="cls-44" d="M3.5,4.65v.29c-.43-.03-.35-.08-.37-.08v-.16l.37-.04Z"/>
          <path class="cls-42" d="M3.5,3.47v1.18l-.37.04c.05-.48-.08-.46-.08-.49,0-.04.05.09.08-.73.22-.09.3,0,.37,0Z"/>
          <path class="cls-16" d="M5.01.58c.02.15-.03.53,0,.59.05.11.42.05.53.06.07,0,.3-.02.33.02.03.04-.04.47.02.51.02.01.34,0,.43,0,.29.01.58-.01.88,0,.04.03.02.63.02.73h-1.32l-.12-.73c-.26,0-.53,0-.79,0-.02-.11.06-.52-.06-.57-.06-.02-.4.02-.55,0v-.57c.14-.18.56-.04.65-.04Z"/>
          <path class="cls-34" d="M4.36,1.76c.17,0,.36,0,.53,0,0,.15,0,.3,0,.45-.56-.06-.37.14-.43.16-.08.03-.37.03-.39.06-.02.03,0,.61,0,.71,0,.1,0,.19,0,.29-.29-.03-.54.04-.57.04-.07,0-.15-.09-.37,0,0-.09-.02-.54.02-.57.04-.03.55.04.59-.02.03-.04-.02-.9,0-1.06.08-.11.35-.05.61-.06Z"/>
          <path class="cls-43" d="M4.97,1.76s-.05,0-.08,0c-.17,0-.36,0-.53,0v-.57c.15.02.49-.02.55,0,.12.05.04.46.06.57Z"/>
          <path class="cls-50" d="M3.22,1.96c0,.08.01.33,0,.35-.02.03-.62.21-.45-.35.02,0,.23-.11.45,0Z"/>
          <path class="cls-34" d="M12.42,5.71l-1.41.04-.06-.73.04-.04,1.41.04s.03.61.02.69Z"/>
          <path class="cls-16" d="M7.21,2.7c.08.03.88-.03,1.12,0,.15.07.02.62.02.73h-1.32c-.01-.32-.12-.73.14-.77.01.03,0,.03.04.04Z"/>
          <path class="cls-16" d="M12.42,5.79c.39,0,.79,0,1.18,0,0,.24,0,.49,0,.73-.09.06-.19.04-.29.04-.27,0-.75.02-.98,0-.04,0-.05-.04-.08-.04.04-.99.16-.69.16-.73Z"/>
          <path class="cls-17" d="M9.86,4.32c.19.02.42-.02.61,0l.04.04-.02.61h-.83v-.61s.08.01.08-.04c.15.02.12,0,.12,0Z"/>
          <path class="cls-4" d="M4.89,2.21c-.05,1.09-.23.48-.47.65-.09.07.17.36-.35.29,0-.1-.02-.68,0-.71.02-.03.31-.03.39-.06.05-.02-.13-.22.43-.16Z"/>
          <path class="cls-16" d="M11,4.77c0,.07,0,.14,0,.2l-.04.04-1.24.04-.06-.08h.83l.02-.61c.5,0,.53-.12.49.41Z"/>
          <path class="cls-1" d="M7.21,2.7s-.03,0-.04-.04c-.01-.03,0-.11,0-.16h.04c0,.07,0,.14,0,.2Z"/>
          <g>
            <path class="cls-53" d="M9.04,3.55c.02.13-.02.64,0,.67.02.03.6.09.69.1,0,.05-.04.05-.08.04-.42-.07-.82-.03-1.24-.04-.1-.04-.06-.64-.06-.77.23-.01.46,0,.69,0Z"/>
            <path class="cls-16" d="M9.41,3.55c.33,0,.43.04.45.04v.73s.02.02-.12,0c-.1-.01-.67-.07-.69-.1-.02-.03.02-.54,0-.67.12,0,.24,0,.37,0Z"/>
          </g>
        </g>
        <g>
          <path class="cls-47" d="M11.53,10.56c.13.02.24-.05.37.08-.01.26.02.52,0,.77,0,.02-.07,0-.04.33-.12-.85-.36.23-.29.43.03.08.17-.07.2.43-.05,0-.07.08-.12.08-.51.04-.4.01-.41-.41,0-.03.06-.15.04-.43,0-.03-.08-.06-.08-.06-.01-.2.06-.36,0-.37,0-.39,0-.79,0-1.18.21-.06.02.2.08.31.04.06.23.02.24.02Z"/>
          <path class="cls-39" d="M19.43,9.62s.04.04.04.08c.04.78-.03,1.58,0,2.36,0,.16,0,.33,0,.49.45.15.42.09.45-.29.08,0,.29,0,.33-.06.06-.11.04-1.81.12-2.52,0-.03.08-.02.08-.02.22-.04.44.03.65.04-.07.43.02.88,0,1.3,0,.05-.08.08-.08.1,0,.21-.05,1.34-.04,1.41-.29-.08-.21.1-.31.16-.45-.03-.12.32-.59.39.05.1.08.1.08.1-.03.35-.04.67-.04,1.02,0,.01,0,.03,0,.04-.12-.03-.59-.04-.65,0-.1.06.02.23-.1.29-.11.05-.62-.11-.55.2-.64-.09-.27.24-.45.61l.04.04c-.16.1-.04.44-.06.45-.04.02-.32-.02-.43,0-.55.09-.38.12-.41.12-.87.08-1.77-.07-2.65.04-.09-.15,0-.44-.06-.49-.04-.03-.9.03-.94,0-.13-.09.27-.74-.51-.57.09-.67-.26-.37-.33-.47-.02-.03.02-.23,0-.31-.02-.07-.08-.16-.08-.24.01-.42.31-.2.16-.49h.08c.02.36-.11.49.33.45,0,0,.07-.02.12.06-.15.78.7.03.57.81.65.17.32.36.43.43.05.04,1.14,0,1.32,0,.14,0,.28-.04.41-.04.16,0,.96.1,1.04.04.05-.04,0-.19.02-.22.07-.12.59-.03.63-.06.06-.04-.02-.29.04-.33.04-.03.33.06.39-.06.04-.09-.04-.24-.04-.31,0-.21.04-.23.04-.24.6.2.49-.52.45-.59-.12.02-.24.02-.37.02.07-.06.14-.03.24-.08.23-.11.03-.08.18-.29.25.12.61-.1.43-.35-.04-.06-.27,0-.33-.02-.02,0-.13-.18-.12-.41,0,0,.08.01.08-.02,0-.2-.04-.4-.04-.59,0-.52.08-1.04.04-1.57,0-.03-.08-.02-.08-.02,0-.03.26-.35-.29-.37,0-.04.01-.04.04-.04.21-.02.47.02.69,0Z"/>
          <path class="cls-29" d="M11.53,10.56s-.21.04-.24-.02c-.06-.1.13-.36-.08-.31,0-.16,0-.33,0-.49.1,0,.2.02.29-.04,0,.27.09.57.04.86Z"/>
          <path class="cls-39" d="M11.85,11.74s.35.08.37.08c-.04.52.09.3.45.41,0,.11,0,.22,0,.33,0,.02-.03.08-.04.37h-.41c0-.06.02-.3-.02-.33-.14,0-.29-.01-.43,0-.04-.49-.17-.34-.2-.43-.07-.2.16-1.28.29-.43Z"/>
          <path class="cls-32" d="M12.71,10.19c0,.44-.03.87-.04,1.3-.19-.16-.52-.05-.77-.08.02-.25-.01-.52,0-.77,0-.11.04-.08.04-.08.27.03.39-.04.41-.04.01,0,.21.08.26.04.06-.05-.04-.31.1-.41,0,.01,0,.03,0,.04Z"/>
          <path class="cls-39" d="M11.81,9.33s.12.36.14.37c.05.02.29-.01.43,0,0,.04-.04.04-.04.08-.71-.12-.39.33-.41.77,0,0-.04-.03-.04.08-.13-.13-.24-.06-.37-.08.05-.28-.04-.58-.04-.86,0-.07-.01-.33,0-.35.03-.05.25,0,.33-.02Z"/>
          <path class="cls-26" d="M12.67,11.49c0,.07,0,.14,0,.2-.07.13-.15.02-.39.04-.03,0,0,.08-.06.08-.02,0-.33-.06-.37-.08-.03-.33.04-.31.04-.33.26.03.59-.07.77.08Z"/>
          <path class="cls-8" d="M16.9,5.79c.01.2,0,.39,0,.59.29.01.31.06.33.06-.1.53.49.21.53.2.59-.03.35.16.43.2.05.03.5-.02.63,0,.16.03.18-.09.16.29,0,0-.16.09-.16.1-.01.02-.02.51,0,.53.04.05.24,0,.31.02.1.03.03.43.06.47.04.06.34,0,.39.02.03.02-.06.22.41.61.02.02.15-.03.18.02.02.03-.02.2,0,.24.07.16.37-.18.29.51,0,0-.08-.01-.08.02-.08.72-.06,2.41-.12,2.52-.03.06-.25.07-.33.06.02-.28.07-2.48,0-2.59-.03-.04-.38-.04-.45.02,0-.04-.04-.04-.04-.08,0-.02.09-.24.04-.35-.07-.16-.42.1-.39-.26-.33.08-.12-.34-.18-.43-.04-.06-.32,0-.39-.02-.13-.06,0-.35-.12-.41-.07-.03-.35.04-.39-.02-.24-.34.61-.48-.94-.43-.27,0-.35.07-.65,0-.04,0,.22-.18-.71-.12-.09.06-.05.13-.06.2-1.81-.08-1.11.17-1.28.33-.02.02-.15-.02-.16,0-.18.16-.44.57-.69.53-.09.6-.55-.05-.47.65,0,0,.02.06-.06.12-.04-.06-.16-.05-.22-.04-.1.01-.21,0-.31,0-.11.05-.04.24-.06.33-.13-.01-.38.02-.43,0-.02,0-.14-.35-.14-.37,0,0,.08.01.08-.02.01-.1-.02-.28,0-.33.08-.19.27.15.33-.26.06-.43-.16-.48.29-.53.15-.02.57.02.63,0,.12-.05.03-.38.06-.43.04-.06.33.02.37-.04.03-.04.03-.74.04-.88,1.25.17.49-.27,1.18-.2,0,0,.07-.02.08.02,0,.03-.01.49.33.24.02-.02-.06-.59-.04-.61.04-.06.27.04.33-.08.05-.1-.06-.31-.04-.39,0-.02.02-.03.08-.35,0-.04.12-.01.12-.02h.73c-.07.05-.35.04-.37.14-.02.19.76.25.79.22.05-.04,0-.36.02-.45.14.07.07.27.08.41Z"/>
          <path class="cls-23" d="M19.43,9.62c-.22.02-.48-.02-.69,0,0-.23-.18-.33-.39-.24-.11.05-.03.25-.08.29-.23.16-.55-.39-.43.57,0,.06.05.03.08.06,0,.1,0,.2,0,.31l-.57.04c0-.31,0-.62,0-.94.51-.05.4-.44.16-.49,0-.08.05-.1.04-.2.49.22.45-.28.41-.35-.04-.06-.28,0-.35-.02-.18-.08.19-.52-.51-.41.02-.09.01-.42-.04-.53,1.55-.05.69.08.94.43.04.06.32,0,.39.02.13.06,0,.35.12.41.07.03.35-.04.39.02.06.09-.14.51.18.43-.03.36.32.1.39.26.05.11-.04.33-.04.35Z"/>
          <path class="cls-32" d="M14.5,13.9l.06.86c.47,0,.94,0,1.41,0v.41c-.18,0-1.27.04-1.32,0-.1-.07.22-.26-.43-.43.13-.79-.72-.04-.57-.81-.06-.09-.12-.05-.12-.06-.1-.59.47-.43.51-.41.03.02-.09.69.47.45Z"/>
          <path class="cls-32" d="M19.92,12.27c-.03.38,0,.44-.45.29.54.17.54-.65,0-.49-.03-.78.04-1.58,0-2.36.07-.06.42-.06.45-.02.07.11.02,2.3,0,2.59Z"/>
          <path class="cls-22" d="M18.98,10.03s.08-.01.08.02c.04.52-.04,1.05-.04,1.57h-.53c0-.06-.02-.92-.04-.96-.05-.09-.22.18-.2-.43,0-.05.07-.19.08-.24l.65.04Z"/>
          <path class="cls-32" d="M17.92,14.22c.16,0,.37-.02.53-.04,0,.06.08.22.04.31-.06.12-.34.03-.39.06-.06.04.02.29-.04.33-.04.03-.56-.06-.63.06-.02.03.03.19-.02.22-.08.06-.88-.04-1.04-.04l.04-.37c1.03-.02,1.07.19,1.02-.57.04,0,.04-.04.08-.04.02,0-.16.08.41.08Z"/>
          <path class="cls-48" d="M13.52,12.67s.06.06.16.04c0,.01,0,.03,0,.04.02.58.22.22.43.33.09.05.05.37.06.39.04.05.19,0,.24.02.01,0,.11.08.12.08-.01.1.02.25,0,.29,0,0-.04.04-.04.04-.56.25-.43-.42-.47-.45-.04-.02-.61-.18-.51.41-.44.04-.3-.09-.33-.45,0-.13,0-.27,0-.41,0-.09,0-.19,0-.29.11-.03.21-.05.33-.04Z"/>
          <path class="cls-19" d="M17.96,13.37c.16,0,.33-.01.49,0-.04.19.03.39.04.57,0,.01-.04.04-.04.24-.16.02-.37.04-.53.04-.02-.19.09-.38-.12-.45.19,0-.03-.41.16-.41Z"/>
          <path class="cls-47" d="M12.63,12.92s0,.03,0,.04c0,.02-.12.38.02.45.03.01.35,0,.47,0,.15.29-.15.06-.16.49h-.24s-.16-.44-.18-.45c-.05-.02-.24,0-.31.04,0-.02-.05.17-.04-.37,0-.17.04-.19.04-.2h.41Z"/>
          <path class="cls-47" d="M18.49,12.67s.31.1.41.12c-.07.03-.24-.05-.29.06-.04.1-.03.53.2.43-.1.05-.18.02-.24.08-.04,0-.08,0-.12,0-.16-.01-.33,0-.49,0,0,0-.07-.08-.12-.08-.08-.48.25-.18.33-.35.07-.15-.19-.3.33-.26Z"/>
          <path class="cls-48" d="M18.73,9.62s-.05,0-.04.04c-.49-.02-.32.14-.37.33-.01.05-.08.2-.08.24h-.41c-.12-.96.2-.41.43-.57.05-.04-.03-.24.08-.29.2-.09.39.02.39.24Z"/>
          <path class="cls-32" d="M19.02,11.61c0,.19.05.39.04.59,0,.03-.08.02-.08.02-.14-.04-.28.03-.41.04-.2.01-.19-.04-.2-.04l-.04-.29c.14-.03.14-.07.16-.33h.53Z"/>
          <path class="cls-19" d="M19.1,12.63c.06.03.29-.04.33.02.18.25-.18.46-.43.35-.15.21.05.18-.18.29-.24.1-.25-.33-.2-.43.05-.11.22-.03.29-.06.2-.08.06-.15.2-.16Z"/>
          <path class="cls-47" d="M20.97,12.51c.02.16.09.18.24.16-.12.22-.45-.33-.53.49h-.53s-.03,0-.08-.1c.47-.07.14-.42.59-.39.09-.06.01-.24.31-.16Z"/>
          <path class="cls-32" d="M18.49,13.94c0-.18-.08-.38-.04-.57.04,0,.08,0,.12,0,.12,0,.24,0,.37-.02.04.08.15.79-.45.59Z"/>
          <path class="cls-8" d="M13.2,13c0,.13,0,.27,0,.41h-.08c-.12,0-.44.01-.47,0-.14-.06-.02-.43-.02-.45l.57.04Z"/>
          <path class="cls-6" d="M18.98,12.23c-.01.23.1.4.12.41-.14.01,0,.08-.2.16-.09-.02-.39-.12-.41-.12.13.03.07-.17.08-.41.13,0,.27-.08.41-.04Z"/>
          <path class="cls-29" d="M18.98,10.03l-.65-.04c.05-.19-.13-.35.37-.33.55.02.28.34.29.37Z"/>
          <path class="cls-23" d="M19.47,12.55c0-.16,0-.33,0-.49.54-.17.54.65,0,.49Z"/>
          <path class="cls-22" d="M16.41,14.75l-.04.37c-.13,0-.27.04-.41.04v-.41c.15,0,.3,0,.45,0Z"/>
          <path class="cls-19" d="M13.15,10.23c-.03.57-.02,1.68,0,2.28l-.49.04c0-.11,0-.22,0-.33,0-.18,0-.35,0-.53,0-.07,0-.14,0-.2.01-.44.04-.87.04-1.3l.45.04Z"/>
          <path class="cls-23" d="M13.2,12.71c0,.09,0,.19,0,.29l-.57-.04s0-.03,0-.04c.01-.28.04-.35.04-.37l.49-.04c0,.11.04.14.04.2Z"/>
          <path class="cls-23" d="M12.67,12.23c-.36-.11-.49.11-.45-.41.06,0,.03-.08.06-.08.24-.02.31.09.39-.04,0,.18,0,.35,0,.53Z"/>
          <path class="cls-52" d="M12.75,9.37c-.02.11-.04.21-.04.33,0,.15,0,.3,0,.45-.15.1-.04.36-.1.41-.05.04-.25-.04-.26-.04.02-.24-.02-.5,0-.73,0-.04.03-.04.04-.08.02-.09-.04-.28.06-.33.1,0,.21.01.31,0Z"/>
          <path class="cls-10" d="M12.34,9.78c-.02.23.02.5,0,.73-.02,0-.14.07-.41.04.02-.44-.31-.9.41-.77Z"/>
          <path class="cls-27" d="M13.2,9.74c.04.16-.03.33-.04.49l-.45-.04s0-.03,0-.04c0-.15,0-.3,0-.45.51-.05.46.04.49.04Z"/>
          <path class="cls-23" d="M15.64,7.79c-.03.18.04.27.04.29,0,.01-.11.08,0,.29-.2,0-.39,0-.59,0-.02,0-.1.15-.1.16-.44,0-.53-.1-.49.37-.3.04-.12.34-.12.53,0,.08.01.2,0,.24h-.41c.09-.65-.45-.28-.49-.29-.02,0-.22-.11-.45-.08-.08-.7.38-.05.47-.65.26.04.51-.37.69-.53.02-.02.15.02.16,0,.18-.16-.52-.41,1.28-.33Z"/>
          <path class="cls-48" d="M16.41,7.7v.37c-.19-.03-.52.02-.73,0,0-.01-.07-.1-.04-.29.01-.08-.03-.15.06-.2.93-.06.67.11.71.12Z"/>
          <path class="cls-19" d="M17.06,7.7c.05.11.06.44.04.53-.03.11-.03.05-.08.12-.15,0-.3,0-.45,0,.15-.24.1-.24-.16-.29v-.37c.3.07.38,0,.65,0Z"/>
          <path class="cls-51" d="M16.74,5.38s.07,0,.08,0c-.02.09.03.41-.02.45-.04.03-.82-.03-.79-.22.01-.1.3-.09.37-.14,0,0,.03-.06.04-.08.1.01.24-.02.33,0Z"/>
          <path class="cls-32" d="M13.48,9.37v.29c-.41.01-.27.08-.29.08-.03,0,.02-.09-.49-.04,0-.11.02-.21.04-.33.07,0,.18-.02.22.04.09-.06.05-.12.06-.12.23-.02.43.08.45.08Z"/>
          <path class="cls-30" d="M17.76,6.4v.24s-.63.33-.53-.2c.03,0,.22-.08.53-.04Z"/>
          <path class="cls-59" d="M16.54,17.8c.02.18-.02.39,0,.57-.17,0-.37.02-.53,0l-.08-.77c.2-.02.39-.07.59-.04.04.03.01.19.02.24Z"/>
          <g>
            <path class="cls-8" d="M17.51,15.93c-.01.09,0,.39,0,.41-.01.05.03.11-.06.16-.75-.04-.51.02-.55.77-.02.43.1.52-.2.53-.05,0-.11,0-.16,0,0-.06.02-.21-.02-.24-.2-.03-.39.02-.59.04-.01,0-.18.08-.2.08-.37-.06.06-.34-.33-.41-.02-.14.02-.68,0-.71-.03-.04-.41-.02-.49-.02-.03,0-.05,0-.08,0v-.53s-.01-.03.04-.04c.88-.11,1.78.04,2.65-.04Z"/>
            <path class="cls-26" d="M15.39,17.28c-.09-.02-.45.03-.49-.02-.02-.03.02-.58,0-.71.08,0,.46-.02.49.02.02.03-.02.58,0,.71Z"/>
          </g>
          <path class="cls-41" d="M16.01,18.38c-.1-.01-.21.04-.29-.06v-.63s.19-.08.2-.08l.08.77Z"/>
          <path class="cls-28" d="M16.7,17.8l.08.57s-.03,0-.04,0c-.07,0-.14,0-.2,0-.02-.18.02-.39,0-.57.05,0,.11,0,.16,0Z"/>
          <path class="cls-12" d="M17.23,9.62s.11.08.12.08c0,.31,0,.62,0,.94,0,.17.04.37.04.53,0,.83-.15.42-.24.55-.02.04.05.26-.06.31-.27.12-.27-.28-.31.41,0,.06-.07.15,0,.33-.44-.01-1.15-.03-1.57,0-.03,0-.02.08-.02.08-.03,0-.08-.14-.18-.08-.04.02.15.16-.22.12-.01-.1-.02-.19-.04-.29-.01-.07.03-.29-.02-.33-.13,0-.26.01-.39,0-.12-.01-.25.04-.33-.06.03-.23-.04-.33-.04-.35-.02-.18,0-.45,0-.65,1.13.09.65-.21.83-.29.48-.21.49.31.53.33.46.2.42-.27.45-.29.18-.12.45.49.39-1.28.21,0,.44-.05.65-.06.13,0,.26,0,.41,0Z"/>
          <path class="cls-51" d="M18.25,10.23c-.02.6.15.34.2.43.02.04.04.9.04.96-.02.26-.02.29-.16.33-.09.02-.39-.02-.43,0-.11.08.18.3-.26.33-.02,0-.01-.07-.31-.04-.07.03.01.26-.55.2.04-.68.03-.29.31-.41.11-.05.04-.27.06-.31.09-.13.25.28.24-.55.09-.02.49.03.53-.02.02-.02,0-.47,0-.55,0-.1,0-.2,0-.31-.03-.04-.07,0-.08-.06h.41Z"/>
          <path class="cls-22" d="M17.55,9.01c-.03-.31-.13-.11-.33-.12-.35-.02-.15-.13-.2-.16.12-.03.13-.4,0-.37.05-.07.06-.02.08-.12.7-.11.33.33.51.41.06.03.31-.04.35.02.05.07.08.57-.41.35Z"/>
          <path class="cls-6" d="M17.55,9.01c0,.1-.04.12-.04.2-.38-.08-.28.1-.29.41-.14,0-.28,0-.41,0,.01-.24-.05-.44.08-.41.06,0,.26.02.29-.02,0-.01-.02-.17.04-.31.2,0,.3-.19.33.12Z"/>
          <path class="cls-32" d="M17.92,10.6c0,.08.02.53,0,.55-.04.05-.44,0-.53.02,0-.16-.04-.36-.04-.53l.57-.04Z"/>
          <path class="cls-48" d="M17.51,9.21c.24.05.35.44-.16.49,0,0-.11-.08-.12-.08,0-.3-.09-.48.29-.41Z"/>
          <path class="cls-19" d="M14.82,13.9c.16-.03.03.24.1.29.08.06.45-.04.55-.04.57,0,1.14.02,1.71.04.08,0,.16,0,.24,0,.05.76.01.55-1.02.57-.15,0-.3,0-.45,0-.47,0-.94,0-1.41,0l-.06-.86s.04-.04.04-.04c.09.06.19.05.29.04Z"/>
          <path class="cls-29" d="M17.96,13.37c-.19,0,.03.41-.16.41-.32-.11-.31.12-.29.37-.04,0-.04.04-.08.04-.09,0-.16,0-.24,0,0-.12,0-.25,0-.37,0-.19-.03-.38.06-.45.73.04.56-.08.59-.08.05,0,.11.08.12.08Z"/>
          <path class="cls-48" d="M17.8,13.77c.21.07.1.26.12.45-.56,0-.38-.08-.41-.08-.02-.25-.03-.48.29-.37Z"/>
          <path class="cls-47" d="M13.48,9.66c.16,0,.33,0,.49,0h.41c-.1.35-.44-.26-.51.61-.49-.21-.35.62-.35,1.59,0,.38.04.46.04.49,0,.02-.07.1-.04.33-.12-.01-.22,0-.33.04,0-.06-.04-.09-.04-.2-.02-.6-.03-1.71,0-2.28,0-.16.08-.33.04-.49.02,0-.13-.07.29-.08Z"/>
          <path class="cls-22" d="M13.97,11.86s.07.11.04.35c.07.1.21.05.33.06-.04.38.03.44.41.33.02.1.03.19.04.29.04.29,0,.41,0,.43,0,.01.1.09.12.2,0,.03-.09,0-.08.06-.09-.01-.2.02-.29,0,0,0-.11-.08-.12-.08.12.06.09-.37.08-.39-.04-.05-.27,0-.31-.02-.11-.08.25-.42-.51-.33,0-.01,0-.03,0-.04,0-.14.18-.42-.12-.37,0-.02-.04-.11-.04-.49h.45Z"/>
          <path class="cls-49" d="M14.42,13.49c-.05-.02-.21.03-.24-.02-.01-.02.03-.34-.06-.39-.21-.11-.41.26-.43-.33.76-.1.4.25.51.33.03.02.27-.03.31.02.01.02.04.45-.08.39Z"/>
          <path class="cls-39" d="M14.82,13.57s.12-.09.08.29c-.11,0-.08.04-.08.04-.1,0-.2.01-.29-.04.02-.04-.01-.19,0-.29.08.02.2-.01.29,0Z"/>
          <path class="cls-20" d="M13.68,12.71c-.1.02-.13-.04-.16-.04-.03-.22.04-.31.04-.33.3-.05.12.23.12.37Z"/>
          <path class="cls-19" d="M18.57,12.27c-.01.24.05.44-.08.41-.51-.04-.26.11-.33.26-.07.16-.41-.13-.33.35-.03,0,.14.12-.59.08-.1.07-.06.26-.06.45-.11.18-.55.04-.73.04v-.65c1.15-.02.62-.06.79-.24.03-.03.28-.03.31-.04.13-.05.08-.1.08-.37v-.04c.75.07.26-.19.73-.29.01,0,0,.05.2.04Z"/>
          <path class="cls-12" d="M18.33,11.94l.04.29c-.48.09.02.35-.73.29v-.24c.44-.03.15-.25.26-.33.03-.02.34.02.43,0Z"/>
          <path class="cls-10" d="M14.87,9.42s.08.12.08.16c-.02.76-.16.33-.43.45-.13.06,0,.29-.12.37-.03.02-.18-.02-.2,0-.08.06.01.13-.26.22-.03.31.04.54.04.59,0,.2-.02.47,0,.65h-.45c0-.97-.15-1.8.35-1.59.07-.87.41-.26.51-.61.01-.04,0-.16,0-.24h.49Z"/>
          <path class="cls-48" d="M14.99,8.52s.04.43.06.45c.28.2.33-.27.37-.29.07-.03,1.54,0,1.61.04.05.03-.15.15.2.16-.06.13-.03.29-.04.31-.03.04-.23.02-.29.02-.27,0-1.3-.12-1.49-.04-.19.09.21.51-.47.41,0-.04-.08-.15-.08-.16,0-.16.25-.61-.37-.53-.04-.47.05-.36.49-.37Z"/>
          <path class="cls-29" d="M15.68,8.36c.3-.01.6.02.9,0,.15,0,.3,0,.45,0,.13-.03.12.34,0,.37-.07-.05-1.53-.07-1.61-.04-.04.02-.08.48-.37.29-.02-.01-.07-.43-.06-.45,0,0,.08-.15.1-.16.2,0,.39,0,.59,0Z"/>
          <path class="cls-47" d="M14.87,9.42h-.49c0-.19-.18-.49.12-.53.62-.08.36.37.37.53Z"/>
          <path class="cls-22" d="M16.41,8.07c.27.05.32.04.16.29-.3.02-.6-.01-.9,0-.11-.21,0-.27,0-.29.22.02.55-.03.73,0Z"/>
          <path class="cls-10" d="M13.97,9.66c-.16,0-.33,0-.49,0v-.29s.58-.36.49.29Z"/>
          <path class="cls-26" d="M16.78,12.75c.13,0,.27,0,.41,0,.09,0,.46.06.37.16-.03.01-.27,0-.31.04-.18.18.35.23-.79.24-.19,0-.38,0-.57,0-.66-.03-.75.11-.69-.37,0,0-.01-.08.02-.08.42-.03,1.13-.01,1.57,0Z"/>
          <path class="cls-22" d="M15.19,12.84c-.06.47.03.34.69.37v.65c-.14,0-.29.04-.41.04-.18,0-.37-.05-.57-.04.04-.37-.08-.27-.08-.29,0-.06.09-.03.08-.06-.02-.11-.12-.19-.12-.2,0-.02.04-.13,0-.43.37.04.19-.1.22-.12.11-.06.16.08.18.08Z"/>
          <path class="cls-12" d="M17.63,12.27v.29c-.2-.08-.53-.07-.45.2-.13,0-.27,0-.41,0-.07-.18,0-.27,0-.33.56.06.48-.18.55-.2.29-.03.29.04.31.04Z"/>
          <path class="cls-8" d="M14.74,12.59c-.37.11-.44.06-.41-.33.12.01.26,0,.39,0,.05.03,0,.26.02.33Z"/>
          <path class="cls-39" d="M17.19,14.18c-.57-.02-1.14-.05-1.71-.04v-.24c.12,0,.27-.04.41-.04.19,0,.38,0,.57,0,.18,0,.62.14.73-.04,0,.12,0,.25,0,.37Z"/>
          <path class="cls-32" d="M14.91,13.85c.2,0,.39.04.57.04v.24c-.1,0-.47.1-.55.04-.07-.05.05-.32-.1-.29,0,0-.03-.04.08-.04Z"/>
          <path class="cls-32" d="M16.45,13.2v.65c-.19,0-.38,0-.57,0v-.65c.19,0,.38,0,.57,0Z"/>
          <path class="cls-26" d="M17.63,12.55c0,.26.05.31-.08.37.09-.1-.27-.16-.37-.16-.08-.27.25-.28.45-.2Z"/>
          <g>
            <path class="cls-22" d="M16.9,9.21c-.13-.03-.07.17-.08.41-.21,0-.44.06-.65.06.07,1.78-.21,1.16-.39,1.28-.03.02.01.48-.45.29-.04-.02-.05-.54-.53-.33-.18.08.29.38-.83.29,0-.05-.07-.28-.04-.59.28-.1.18-.17.26-.22.03-.02.17.02.2,0,.13-.07,0-.31.12-.37.27-.12.41.31.43-.45.68.11.27-.32.47-.41.19-.08,1.21.05,1.49.04Z"/>
            <path class="cls-12" d="M15.17,9.9c.56-.22.41.82.37.86-.35.25-.24-.42-.47-.39.14-.23.01-.43.1-.47Z"/>
          </g>
        </g>
      </g>
    </g>
  </g>
</svg>