<?xml version="1.0" encoding="UTF-8"?>
<svg id="Layer_2" data-name="Layer 2" xmlns="http://www.w3.org/2000/svg" xmlns:xlink="http://www.w3.org/1999/xlink" viewBox="0 0 36.28 29.28">
  <defs>
    <style>
      .cls-1 {
        fill: #f4e34f;
      }

      .cls-1, .cls-2, .cls-3, .cls-4, .cls-5, .cls-6, .cls-7, .cls-8, .cls-9, .cls-10, .cls-11, .cls-12, .cls-13, .cls-14, .cls-15, .cls-16, .cls-17, .cls-18, .cls-19, .cls-20, .cls-21, .cls-22, .cls-23, .cls-24, .cls-25, .cls-26, .cls-27, .cls-28, .cls-29, .cls-30, .cls-31, .cls-32, .cls-33, .cls-34, .cls-35, .cls-36, .cls-37, .cls-38, .cls-39, .cls-40, .cls-41, .cls-42, .cls-43, .cls-44, .cls-45, .cls-46, .cls-47, .cls-48, .cls-49, .cls-50, .cls-51, .cls-52, .cls-53, .cls-54, .cls-55, .cls-56, .cls-57, .cls-58, .cls-59, .cls-60, .cls-61, .cls-62, .cls-63, .cls-64, .cls-65, .cls-66, .cls-67, .cls-68, .cls-69, .cls-70, .cls-71, .cls-72, .cls-73, .cls-74, .cls-75, .cls-76, .cls-77, .cls-78, .cls-79, .cls-80, .cls-81, .cls-82, .cls-83, .cls-84, .cls-85, .cls-86, .cls-87, .cls-88, .cls-89, .cls-90, .cls-91, .cls-92, .cls-93, .cls-94, .cls-95, .cls-96, .cls-97, .cls-98, .cls-99, .cls-100, .cls-101, .cls-102, .cls-103, .cls-104 {
        stroke-width: 0px;
      }

      .cls-2 {
        fill: #e9f2d6;
      }

      .cls-3 {
        fill: #5a3a5f;
      }

      .cls-4 {
        fill: #bc8c67;
      }

      .cls-5 {
        fill: #3eab8a;
      }

      .cls-6 {
        fill: #e7e979;
      }

      .cls-7 {
        fill: #a75b33;
      }

      .cls-8 {
        fill: url(#linear-gradient);
      }

      .cls-9 {
        fill: #cf6269;
      }

      .cls-10 {
        fill: #bc7637;
      }

      .cls-11 {
        fill: #403916;
      }

      .cls-12 {
        fill: #65979e;
      }

      .cls-13 {
        fill: #352c1f;
      }

      .cls-14 {
        fill: #372411;
      }

      .cls-15 {
        fill: #c46f58;
      }

      .cls-16 {
        fill: #7f451d;
      }

      .cls-17 {
        fill: #a091c5;
      }

      .cls-18 {
        fill: #cab42d;
      }

      .cls-19 {
        fill: #453b74;
      }

      .cls-20 {
        fill: #2a3575;
      }

      .cls-21 {
        fill: #3c3516;
      }

      .cls-22 {
        fill: #95ce91;
      }

      .cls-23 {
        fill: #33262b;
      }

      .cls-24 {
        fill: #766e9f;
      }

      .cls-25 {
        fill: #008c6d;
      }

      .cls-26 {
        fill: #b9cd88;
      }

      .cls-27 {
        fill: #e17d4d;
      }

      .cls-28 {
        fill: #ac6728;
      }

      .cls-29 {
        fill: #1d1316;
      }

      .cls-30 {
        fill: #cec9af;
      }

      .cls-31 {
        fill: #f39b50;
      }

      .cls-32 {
        fill: #512612;
      }

      .cls-33 {
        fill: #835020;
      }

      .cls-34 {
        fill: #211d1a;
      }

      .cls-35 {
        fill: #858b9a;
      }

      .cls-36 {
        fill: #302712;
      }

      .cls-37 {
        fill: #783219;
      }

      .cls-38 {
        fill: #c1e1bc;
      }

      .cls-39 {
        fill: #c4e4ca;
      }

      .cls-40 {
        fill: #cf2026;
      }

      .cls-41 {
        fill: #bdbfb7;
      }

      .cls-42 {
        fill: #5bc6cb;
      }

      .cls-43 {
        fill: #99d1a4;
      }

      .cls-44 {
        fill: #f79b61;
      }

      .cls-45 {
        fill: #6f65ad;
      }

      .cls-46 {
        fill: #4fc2bb;
      }

      .cls-47 {
        fill: #03562c;
      }

      .cls-48 {
        fill: #ca5a4b;
      }

      .cls-49 {
        fill: #a6c4b1;
      }

      .cls-50 {
        fill: #6d4d97;
      }

      .cls-51 {
        fill: #a0d4a8;
      }

      .cls-52 {
        fill: #5d481c;
      }

      .cls-53 {
        fill: #11100f;
      }

      .cls-54 {
        fill: #dcba58;
      }

      .cls-55 {
        fill: #ac8d4e;
      }

      .cls-56 {
        fill: #df7f6b;
      }

      .cls-57 {
        fill: #3b3f7a;
      }

      .cls-58 {
        fill: #4c479d;
      }

      .cls-59 {
        fill: #006e49;
      }

      .cls-60 {
        fill: #ccbc86;
      }

      .cls-61 {
        fill: #8f5723;
      }

      .cls-62 {
        fill: #103134;
      }

      .cls-63 {
        fill: #99ce88;
      }

      .cls-64 {
        fill: #7782c0;
      }

      .cls-65 {
        fill: #9fd4af;
      }

      .cls-66 {
        fill: #c9b051;
      }

      .cls-67 {
        fill: #272e30;
      }

      .cls-68 {
        fill: #d1a435;
      }

      .cls-69 {
        fill: #fccb75;
      }

      .cls-70 {
        fill: #442f46;
      }

      .cls-71 {
        fill: #ac7029;
      }

      .cls-72 {
        fill: #d6e15e;
      }

      .cls-73 {
        fill: #251d0f;
      }

      .cls-74 {
        fill: #17151b;
      }

      .cls-75 {
        fill: #e1d31f;
      }

      .cls-76 {
        fill: #a3ae98;
      }

      .cls-77 {
        fill: #933b1f;
      }

      .cls-78 {
        fill: #d07077;
      }

      .cls-79 {
        fill: #bcdfb9;
      }

      .cls-80 {
        fill: #fbf5b6;
      }

      .cls-81 {
        fill: #d2d6c7;
      }

      .cls-82 {
        fill: #e2c299;
      }

      .cls-83 {
        fill: #7f78a5;
      }

      .cls-84 {
        fill: #eedb78;
      }

      .cls-85 {
        fill: #2b2211;
      }

      .cls-86 {
        fill: #00a05a;
      }

      .cls-87 {
        fill: #b94d46;
      }

      .cls-88 {
        fill: #242211;
      }

      .cls-89 {
        fill: #8fd3cd;
      }

      .cls-90 {
        fill: #a3bcca;
      }

      .cls-91 {
        fill: #232c3e;
      }

      .cls-92 {
        fill: #385356;
      }

      .cls-93 {
        fill: #c5c32f;
      }

      .cls-94 {
        fill: #4ebe97;
      }

      .cls-95 {
        fill: #ab704f;
      }

      .cls-96 {
        fill: #643413;
      }

      .cls-97 {
        fill: #4b3b15;
      }

      .cls-98 {
        fill: #4faea8;
      }

      .cls-99 {
        fill: #24130c;
      }

      .cls-100 {
        fill: #bb3726;
      }

      .cls-101 {
        fill: #dce3d1;
      }

      .cls-102 {
        fill: #a9d9c1;
      }

      .cls-103 {
        fill: #4960ab;
      }

      .cls-104 {
        fill: #fcd06f;
      }
    </style>
    <linearGradient id="linear-gradient" x1="16.83" y1="2.21" x2="23.09" y2="2.98" gradientUnits="userSpaceOnUse">
      <stop offset="0" stop-color="#009366"/>
      <stop offset="1" stop-color="#007d6d"/>
    </linearGradient>
  </defs>
  <g id="Layer_1-2" data-name="Layer 1">
    <g>
      <path class="cls-32" d="M32.9,27.4s0,.03,0,.04c-.02.32-.06.65-.06.98l-1.75.04c-.02.14-.06.12-.06.12,0-.03.01-.07-.02-.08-.08-.03-1.38,0-1.65,0-.56,0-1.11,0-1.67,0-.29,0-.57,0-.85,0-.9,0-1.81-.08-2.71-.04-.02.14-.06.12-.06.12.03-.18-.29-.12-.65-.12-.22,0-.44.04-.65.04-.2,0-.41,0-.61,0-.76,0-1.53-.04-2.3-.04-.03,0,0,.08-.06.08,0,0,.01-.08-.02-.08-.32,0-.64,0-.96,0-.27,0-.55.04-.81.04-.64,0-1.28,0-1.91,0-.26,0-.52,0-.77,0-.38,0-.77.04-1.14.04,0,0,.01-.08-.02-.08-.78,0-1.57.05-2.34.04-.26,0-.54-.04-.81-.04-.76,0-.54.08-.57.08-.04,0,.08-.07-.77-.08-.38,0-.76,0-1.14,0-.22,0-.43,0-.65,0-.23,0-.5-.07-.73-.08.01-.3.07-.6.08-.9,0-.01,0-.03,0-.04,8.18-.03,16.37.2,24.55,0,.38,0,.76.05,1.14-.04Z"/>
      <path class="cls-53" d="M36.11,13.76l-.69.06c-.03.07.02.82,0,1.04,0,.06.02.26-.02.28l-1.04.02c-.05,1.68-.03,3.35-.04,5.03h-.69c.02-.33-.04-.5-.04-.53.03-.9.01-1.75,0-2.65,0-.33,0-.64,0-.98,0-.11.09-.6.04-.67-.09,0-.2-.05-.28-.06-.03-.42.35-.07.28-.61l1.18-.06v-1.24c.09,0,.54.02.57-.02.04-.31-.04-.72-.04-.75,0-.19.04-.38.04-.57,0-.11,0-.22,0-.33.02-1.44.01-2.87,0-4.32,0-.26.05-.54.04-.81,0-.26,0-.53,0-.79l-.81-.08c0-.43,0-.86,0-1.28,0-.31,0-.61,0-.92-.03-.04-.55-.02-.65-.02-.05-.73.12-.85.12-.9.77-.04.45,0,.55.81l.79.02v2.28l.81.08c-.1,2.13.14,6.15,0,7.94,0,.04-.12.01-.12.02Z"/>
      <path class="cls-53" d="M24.43,2.28c-.04.25.04.35.04.37,0,.16,0,.25,0,.41.01.62-.35.86.57.77h.04c-.04.52,0,1.49,0,2.12,0,.57,0,1.14,0,1.71,0,.23,0,.46,0,.69,0,1.02.03,2.05,0,3.07,0,.03-.08.02-.08.02h-.69s-.08.01-.08-.02c-.04-2.51.03-5.02,0-7.53-.06-.14-.6,0-.65-.08-.04-.06.03-1.19,0-1.38l-.08-.06c-.44-.16-.7.5-.61-.92l-.71-.06c-.08-.04-.08-.5-.06-.57,0,0,.05-.02.08-.12h1.45c.15,1.5-.39,1.69.79,1.59Z"/>
      <path class="cls-53" d="M22.19.69c-.03.1-.08.12-.08.12,0-.03-.05-.08-.06-.08-.27-.04-4.67.03-5.39.04-.15,0-.3,0-.45,0V.04c1.96,0,3.92.04,5.88-.04.1.03-.09.64.1.69Z"/>
      <path class="cls-53" d="M3.7,26.14c.09,0,.37-.01.39,0,.14.09-.24.28.43.28-.08.47.2.18.24.31.03.07-.03.41,0,.45.04.06.29,0,.35.02.11.05.01.23.12.28.05.03.33-.02.37,0,.07.05-.04.31.06.41.09.08.59.01.63.04.07.05-.05.43.08.49.18.08.56-.05.75-.04.23.01.5.07.73.08v.73c-.77,0-1.53,0-2.3,0l-.06-.83-.69-.08c.12-1.46-.28-.73-.67-.92-.14-.07.21-.24-.75-.22v-.96s0-.06.33-.04Z"/>
      <path class="cls-53" d="M4.52,24.26v1.1c-.19,0-1.31-.04-1.36,0-.03.02-.03.33-.02.35.1.14.58-.27.57.43-.33-.02-.31.04-.33.04-.23-.01-.47-.08-.71-.04-.22-.72.29-.83-.71-.77-.17-1.23.49-.52.61-.79l-.04-1.08c.07,0,.1,0,.16-.04,0,.11-.02.7.02.73.6,0,1.19,0,1.79,0,.03,0,.02.08.02.08Z"/>
      <path class="cls-53" d="M14.21.08v1.02c-.25,0-.54.09-.79.04l-.06.81c-.59,0-1.2-.05-1.79-.04v-.65c.44,0,.88,0,1.32,0-.05-1.13.25-.59.35-.79.03-.07-.04-.39.02-.43.08-.06.81.04.96.04Z"/>
      <path class="cls-74" d="M10.14,1.3c-.02.16.03.55,0,.61,0,0-.05,0-.04.04-.28-.03-.47.04-.53.04-.95.03-1.93-.06-2.89-.04v-.65c1.15,0,2.31,0,3.46,0Z"/>
      <path class="cls-53" d="M34.28,20.85c0,1.09,0,2.17,0,3.26h-.69c0-1.1.03-2.2-.04-3.3l.04-.04c.18.15.46.06.69.08Z"/>
      <path class="cls-29" d="M2.69,19.5c.01.06-.02.11.06.16.59-.02,1.18,0,1.77,0v1.18c-.62,0-1.22,0-1.83.04-.05,0-.11,0-.16,0,.04-.31.08-1.09.04-1.34l.12-.04Z"/>
      <path class="cls-53" d="M33.55,27.44c0,.31.05.64.04.96,0,.03-.08.02-.08.02-.7-.04-.51,0-.53.77-.65.03-1.31-.01-1.95,0,.02-.17-.03-.52,0-.61,0,0,.04.02.06-.12l1.75-.04c0-.33.05-.65.06-.98h.65Z"/>
      <path class="cls-53" d="M26.83,28.5v.65s.01.08-.02.08c-.92,0-1.83-.04-2.75-.04.02-.17-.03-.52,0-.61,0,0,.04.02.06-.12.9-.04,1.81.04,2.71.04Z"/>
      <path class="cls-53" d="M2.52,20.89c.05,0,.11,0,.16,0,.02.85-.03,1.71,0,2.56-.06.05-.09.04-.16.04-.12,0-.48.01-.53,0-.03,0-.07.02-.12-.06v-2.52s.55-.01.65-.02Z"/>
      <path class="cls-53" d="M14.17,28.54v.61s.01.08-.02.08c-.78,0-1.56-.04-2.34-.04v-.69c.77,0,1.56-.04,2.34-.04.03,0,.02.08.02.08Z"/>
      <path class="cls-53" d="M22.15,28.5v.69c-.79,0-1.57,0-2.36,0v-.65c.06,0,.03-.08.06-.08.77,0,1.54.04,2.3.04Z"/>
      <path class="cls-53" d="M18,28.5v.65s.01.08-.02.08c-.63,0-1.26,0-1.89,0v-.73c.64,0,1.28,0,1.91,0Z"/>
      <path class="cls-53" d="M34.28,24.71c0,.24.1,1.76.04,1.85l-.73.02s0-.05,0-.08c0-.38,0-.76,0-1.14,0-.22-.04-.44-.04-.65h.73Z"/>
      <g>
        <path class="cls-53" d="M33.38,2.04c-.02.07-.08,0-.16.12-.02-.12-.25-.08-.45-.08-.67.01-.77-.15-.69.51-.14.15-.39.02-.41.02-.02-.1.03-.57-.02-.61-.05-.04-1.06-.03-1.24-.04-.41-.01-.82,0-1.22,0v-.69c1.39.01,2.78.06,4.17.04.03.02.04.68.02.73Z"/>
        <path class="cls-53" d="M27.32,1.3c-.02.16.03.5,0,.57,0,0-.06.08-.08.08-.68.02-1.36-.03-2.04,0-.2,0-.41,0-.61,0l.02-.69c.9-.05,1.81.05,2.71.04Z"/>
        <path class="cls-2" d="M29.19,1.26v.69c-.14,0-.27,0-.41,0-.27,0-.54,0-.81,0-.38,0-.7.04-.65-.08.03-.07-.02-.41,0-.57.62,0,1.25-.05,1.87-.04Z"/>
      </g>
      <path class="cls-2" d="M6.68,1.3v.65c-.33,0-.65.03-.98.04-.27,0-.56-.05-.81-.04v-.61c.06,0,.03-.08.06-.08.58,0,1.16.04,1.73.04Z"/>
      <path class="cls-53" d="M29.35,28.5v.69c-.55,0-1.1.04-1.65.04-.03,0-.02-.08-.02-.08v-.65c.55,0,1.11,0,1.67,0Z"/>
      <path class="cls-51" d="M31.02,28.58c-.03.09.02.44,0,.61-.56.01-1.11,0-1.67,0v-.69c.27,0,1.57-.03,1.65,0,.03.01.02.05.02.08Z"/>
      <path class="cls-36" d="M34.08,2.61s-.17.16-.12.9c-.24,0-.49,0-.73,0-.04,0-.08,0-.12,0,.04-.11-.04-.39-.04-.41,0-.02.07-.15.12-.45.03-.17.06-.31.04-.49.08-.12.14-.05.16-.12.52.1.73-.12.69.57Z"/>
      <path class="cls-2" d="M11.56,1.26v.65c-.08,0-.4.08-.49.08-.38.01-.91.04-.94-.08.03-.06-.02-.45,0-.61.47,0,.95-.03,1.42-.04Z"/>
      <path class="cls-51" d="M15.31,28.5v.73c-.36,0-.72,0-1.08,0-.03,0,0-.08-.06-.08v-.61c.37,0,.76-.04,1.14-.04Z"/>
      <path class="cls-49" d="M2.52,23.49l.04,1.08c-.12.28-.78-.43-.61.79l-.12-.02c.07-.4.02-1.5.08-1.79,0-.03.09,0,.08-.06.05.01.41,0,.53,0Z"/>
      <path class="cls-22" d="M36.11,13.76c-.02.22.03,1.01,0,1.08l-.69.02c.02-.21-.03-.97,0-1.04l.69-.06Z"/>
      <path class="cls-76" d="M19.79,28.54v.65c-.32,0-.65.04-.98.04v-.77c.32,0,.64,0,.96,0,.03,0,.02.08.02.08Z"/>
      <path class="cls-2" d="M27.68,28.5v.65c-.06,0-.03.08-.06.08-.87,0-.75-.08-.79-.08v-.65c.29,0,.57,0,.85,0Z"/>
      <path class="cls-49" d="M11.81,28.5v.69c-.26,0-.54.04-.81.04v-.77c.27,0,.55.04.81.04Z"/>
      <path class="cls-51" d="M18.81,28.46v.77c-.89,0-.77-.08-.81-.08v-.65c.26,0,.54-.04.81-.04Z"/>
      <path class="cls-53" d="M10.42,28.54v.69c-.12,0-.71.13-.77-.02v-.75c.86,0,.73.08.77.08Z"/>
      <path class="cls-52" d="M33.59,26.59c0,.29-.04.58-.04.85h-.65s0-.03,0-.04c.01-.27,0-.54,0-.81.26,0,.55.05.69-.08,0,.03,0,.05,0,.08Z"/>
      <path class="cls-51" d="M16.08,28.5v.73c-.26,0-.52,0-.77,0v-.73c.26,0,.52,0,.77,0Z"/>
      <path class="cls-79" d="M1.91,16.61c0-.11.02-.22.04-.33.02-.1-.05-.44.06-.49.02-.01.51-.02.53,0,.03.02.04.76.02.79-.04.05-.55,0-.65.02Z"/>
      <path class="cls-51" d="M8.51,28.46v.75c-.06.08-.55-.02-.65-.02v-.73c.22,0,.43,0,.65,0Z"/>
      <path class="cls-49" d="M23.41,28.46v.77c-.22,0-.44-.04-.65-.04v-.69c.21,0,.43-.04.65-.04Z"/>
      <path class="cls-51" d="M24.06,28.58c-.03.09.02.44,0,.61-.21,0-.44.04-.65.04v-.77c.36,0,.68-.06.65.12Z"/>
      <path class="cls-30" d="M25.2,1.95c-.12.2,0,.48-.04.73-.07,0-.14,0-.2,0-.16,0-.32-.08-.49-.04,0-.02-.08-.11-.04-.37,0-.02.07-.09.04-.26l.12-.06c.2,0,.41,0,.61,0Z"/>
      <path class="cls-2" d="M34.32,20.19c0,.19.04.39.04.59,0,.03-.08,0-.08.06-.23-.03-.52.07-.69-.08-.03-.19.03-.39.04-.57h.69Z"/>
      <path class="cls-2" d="M34.28,24.1c0,.2,0,.4,0,.61h-.73c0-.18,0-.35,0-.53,0-.04.04-.04.04-.08h.69Z"/>
      <path class="cls-51" d="M22.76,28.5v.69c-.2,0-.41,0-.61,0v-.69c.2,0,.41,0,.61,0Z"/>
      <path class="cls-102" d="M33.51,28.42s.13.02.08.71c-.08.11-.35.05-.61.06.02-.77-.17-.82.53-.77Z"/>
      <path class="cls-51" d="M10.99,28.46v.77c-.19,0-.38,0-.57,0v-.69s-.19-.09.57-.08Z"/>
      <g>
        <path class="cls-53" d="M4.89,1.34v.61s.01.08-.02.08c-.29,0-.59.03-.88.04-.02,0-.3-.08-.33-.08.13-.38-.65-.36-.49.04-.3.02-.6.05-.9.06v1.83l-.81.08c-.01.24.02,1.91-.04,1.99-.04.06-.57-.02-.61.04v6.88l.77.04v1.91c1.01.32.53-.4.65-.57.04-.05.82-.26.61.65.96.16.56-.27.67-.35.03-.02.29.02.37,0,.02,0,.03-.11.08-.12.43-.1.46.26.57-.41.92.16-.11-.56.96-.47V4.6c.11,0,.08-.04.08-.04.25,0,.49.04.73.04-.04.99.04,1.98.04,2.97,0,1.26,0,2.53,0,3.79,0,.22-.04.46-.04.69,0,.2,0,.41,0,.61,0,.24,0,.49,0,.73,0,.38-.05.76-.04,1.14h-1.16l-.06.81c-.18,0-.35,0-.53,0-.3.01-.59.02-.9.04-.62.04-.85-.21-.71.65.24,0,.48,0,.71,0,.3,0,.6,0,.9,0l-.02,1.06-1.81.02c.05.57-.06,2.07,0,2.38l-.12.04c-.07-.45-.49,0-.69-.31,0-.88-.03-1.75.04-2.63.11-.02.61.03.65-.02.02-.03.01-.77-.02-.79-.02-.02-.51-.01-.53,0-.11.05-.05.38-.06.49-.64.1-.32-.24-.43-1.02-1.06.12-.63-.18-.71-1.57l-.81-.08V5.27l.77-.08v-1.91l.69-.08v-1.1c.12-.26.69.43.63-.83.92,0,1.85,0,2.77,0,.03,0,.02.08.02.08Z"/>
        <path class="cls-21" d="M3.99,2.89c0,.09-.02.54.02.57h.75c.03.38.06.74.04,1.12.03.04.59.02.69.02v9.02c-1.07-.09-.04.63-.96.47-.11.67-.14.31-.57.41-.05.01-.06.12-.08.12-.08.02-.33-.02-.37,0-.11.08.29.5-.67.35.21-.91-.58-.7-.61-.65-.12.17.36.89-.65.57v-1.91l-.77-.04v-6.88c.04-.06.57.02.61-.04.06-.08.03-1.75.04-1.99l.81-.08v-1.83c.3,0,.6-.04.9-.06.01,0,.03,0,.04,0v.83l.77.02Z"/>
      </g>
      <path class="cls-68" d="M15.06,4.64c-.01.26.05.53-.06.61-.49-.04-1,.04-1.49.04-.22,0-.5-.07-.73-.04-.01-.6.23-.71-.61-.65,0-.02-.05-.15-.06-.37h-1.51c-.13.06-.03,1.28-.06,1.67,0,.07-.07,0-.08.12-.04-.08-.36-.04-.69-.04.07-1.06,0-.66-1.4-.73l-.02.73c-.23.01-.49.02-.71.04-.03,0-.02.08-.02.08-.18.02-.39-.01-.57,0,0-.51,0-1.02,0-1.53-.31-.08-.7.02-.73.02-.24,0-.48-.04-.73-.04l-.04-1.06,9.47-.04c.1.04.07,1.02.06,1.18Z"/>
      <path class="cls-52" d="M12.17,10.14c-.02.27-.06,2.51.06,2.56.27-.05,1.99.06,2.08,0,.06-.05-.02-.61.04-.65.05-.03,1.03-.04,1.16-.04.27,0,.56.08.83.04.2.06-.07.42.18.57v.69c-3.4.19-6.81.12-10.22.08,0-.24,0-.49,0-.73.13-.02.64.02.67,0,.05-.04,0-.47.02-.57.11,0,.08-.04.08-.04.22,0,1.62-.05,1.69,0,.06.05-.02.61.04.65.09.06,1.92-.05,2.2,0-.02-.85.08-1.72.06-2.56h1.1Z"/>
      <path class="cls-16" d="M11.07,1.99c.02.11-.03.61.02.65.09.07,2.02-.03,2.3-.04.6-.02.82.31.65-.65.29,0,.6-.09.9-.04.55.09-.29.76.77.61,0,0,.08-.01.08.02.01.68,0,1.37,0,2.06-.08,0-.34.04-.45.04-.09,0-.19,0-.28,0,0-.16.04-1.14-.06-1.18l-9.47.04c.04-.15-.39-.06-.77-.08-.02-.22.05-.56-.06-.61h-.71c0-.24,0-.49,0-.73.29,0,.58-.03.88-.04.03,0,.02-.08.02-.08.26,0,.55.05.81.04.02.11-.03.61.02.65.16.11,3.39-.02,3.85-.04.56-.02.67.32.53-.65,0-.05.04-.04.04-.04.02.12.56.09.94.08Z"/>
      <path class="cls-52" d="M6.31,15.31c.33,0,.66.04.98.04v.65l-.04.04c-.28,0-.57,0-.85,0-.41,0-.83,0-1.24,0l-.02,1.04c.42.04.84.02,1.26.02v2.52c-.06,0-1,.05-1.26.04-.2,0-.41,0-.61,0-.59,0-1.18-.02-1.77,0-.09-.05-.05-.11-.06-.16-.06-.31.05-1.81,0-2.38l1.81-.02.02-1.06v-.69c.18,0,.35,0,.53,0,.42-.01.84-.03,1.26-.04Z"/>
      <path class="cls-37" d="M7.04,7.57s0,.03,0,.04c0,.24,0,.49,0,.73,0,1,0,2.01,0,3.01h-.69c0-1.26,0-2.53,0-3.79h.69Z"/>
      <path class="cls-4" d="M7.04,6.11c0,.49,0,.98,0,1.47h-.69c0-.99-.08-1.98-.04-2.97.04,0,.42-.1.73-.02,0,.51,0,1.02,0,1.53Z"/>
      <path class="cls-29" d="M6.27,14.53c0,.26,0,.52.04.77-.42,0-.84.03-1.26.04l.06-.81h1.16Z"/>
      <path class="cls-53" d="M5.54,3.5l.04,1.06s.03.04-.08.04c-.1,0-.67.02-.69-.02.02-.38-.01-.74-.04-1.12,0-.01,0-.03,0-.04.38.02.81-.07.77.08Z"/>
      <path class="cls-52" d="M3.99,2.08c0,.24,0,.49,0,.73,0,.03,0,.05,0,.08l-.77-.02v-.83c.15,0,.31-.04.45-.04.03,0,.31.08.33.08Z"/>
      <path class="cls-11" d="M4.52,15.35v.69c-.3,0-.6,0-.9,0v-.65c.3-.02.59-.03.9-.04Z"/>
      <path class="cls-71" d="M7.04,11.36c0,.21-.03.51.04.69,0,0,.03.04-.08.04-.22,0-.47-.08-.69-.04,0-.23.04-.47.04-.69h.69Z"/>
      <path class="cls-21" d="M3.62,15.39v.65c-.24,0-.48,0-.71,0-.13-.87.09-.61.71-.65Z"/>
      <path class="cls-68" d="M7,12.09c-.02.1.03.53-.02.57-.03.02-.54-.02-.67,0,0-.2,0-.41,0-.61.23-.04.47.04.69.04Z"/>
      <path class="cls-4" d="M3.66,1.99c-.14,0-.3.03-.45.04-.01,0-.03,0-.04,0-.16-.4.61-.42.49-.04Z"/>
      <path class="cls-16" d="M31.72,26.59s.03,0,.04,0v.85c-8.18.2-16.37-.03-24.55,0,.01-.27,0-.54,0-.81l.04-.04c8.15.05,16.32.23,24.47,0Z"/>
      <path class="cls-32" d="M5.98,27.44s.34,0,.41,0c.26,0,.55.09.81.04-.01.3-.07.6-.08.9-.19,0-.57.12-.75.04-.13-.06-.01-.44-.08-.49-.04-.03-.55.04-.63-.04.33-.06-.03-.38.33-.45Z"/>
      <path class="cls-32" d="M32.9,26.59c0,.27.01.54,0,.81-.38.1-.76.03-1.14.04v-.85c.38-.01.76,0,1.14,0Z"/>
      <path class="cls-16" d="M7.21,26.63c0,.27.01.54,0,.81,0,.01,0,.03,0,.04-.27.05-.55-.04-.81-.04-.04-.27.03-.55.04-.81h.77Z"/>
      <path class="cls-52" d="M34.73,7.41c.21-.02.44.01.65,0,.01,1.44.02,2.87,0,4.32-.68-.11-.58-.08-.61.33-.01.15-.02.47.04.57-.33,0-.67.03-1,0l-.02.73c-2.95.03-5.88.12-8.83,0,.11-.58-.04-.73-.04-.77,0-.03.09.09.12-.53l1.67-.04.02.69h2.48c0-.85.06-1.71.06-2.56h1.06c-.02.83.01,1.67,0,2.5.27.06,2.17.13,2.26.06.06-.05-.02-.61.04-.65.05-.03,1.07.04,1.12-.02v-1.71l.77-.04c0-.67,0-1.34,0-2.02,0-.27.05-.54.04-.81.07,0,.09-.03.16-.04Z"/>
      <path class="cls-36" d="M24.96,13.35c2.96.12,5.88.03,8.83,0,.33,0,.68.05,1.02.04v1.24l-1.18.06s-.04.02-.06-.24c-.66-.02-1.32,0-1.97,0-2.27-.02-5.18.1-7.29.04-.02,0,.14-.06-.33-.08.42,0,.04-.75.37-1.1.2.01.4.03.61.04Z"/>
      <path class="cls-32" d="M32.9,19.66c.23,0,.46,0,.69,0,0,.03.06.2.04.53-.01.18-.07.38-.04.57l-.04.04-.65.02c.04.4-.1,3.2,0,3.34.04.05.55,0,.65.02,0,.18,0,.35,0,.53,0,.21.04.43.04.65-.23,0-.46,0-.69,0-.4-.02-.79.01-1.18,0-.29,0-.6-.08-.9-.04l.9-.1v-1.04c.25,0,.48-.02.73-.04.02,0,.15.09.37.02v-3.34s-.3-.02-.37-.02c-.28-.02-.73.05-.77-.06l.04-1.02c.07-.1.99-.06,1.18-.06Z"/>
      <path class="cls-68" d="M33.59,17.02c.01.89.03,1.75,0,2.65-.23,0-.46,0-.69,0l-.04-2.65h.73Z"/>
      <path class="cls-32" d="M33.59,16.04c0,.33,0,.65,0,.98h-.73c-.39,0-.79.01-1.18,0,0-.31,0-.62,0-.94.07,0,.14,0,.2,0,.57,0,1.14-.04,1.71-.04Z"/>
      <path class="cls-13" d="M33.63,14.7c.06.54-.32.2-.28.61-.13-.02-.39,0-.57,0-.38-.01-.77.04-1.14.04-.26,0-.52-.04-.77-.04l.85-.06c-.03-.45.09-.86-.12-.79.66,0,1.32-.02,1.97,0,.02.26.06.23.06.24Z"/>
      <g>
        <path class="cls-100" d="M34.61,4.44c0,.43,0,.86,0,1.28l.81.08c0,.26,0,.53,0,.79-.13.03-.68-.06-.73.06-.06.15.07.57.04.75-.08,0-.1.04-.16.04,0-.09.02-.5-.02-.53-.4.05-.62-.07-.71-.08v-1.97l-.57-.1c0-.12,0-.24,0-.37l1.34.04Z"/>
        <path class="cls-52" d="M33.95,3.5c.1,0,.62-.02.65.02,0,.31,0,.61,0,.92l-1.34-.04c0-.28.03-.63-.04-.9.24,0,.49,0,.73,0Z"/>
      </g>
      <path class="cls-37" d="M34.81,12.62c.18,0,.35,0,.53,0,0,.04.08.45.04.75-.03.04-.48.02-.57.02-.34.01-.69-.04-1.02-.04l.02-.73c.33.03.67,0,1,0Z"/>
      <path class="cls-16" d="M33.34,15.31c.09.01.19.06.28.06.05.08-.04.57-.04.67-.57,0-1.14.03-1.71.04-.02-.16.51-.05.92-.08l-.02-.69c.18,0,.44-.02.57,0Z"/>
      <path class="cls-2" d="M35.42,6.6c0,.27-.04.55-.04.81-.21.01-.44-.02-.65,0,.03-.18-.11-.61-.04-.75.05-.12.6-.03.73-.06Z"/>
      <path class="cls-60" d="M35.38,12.05c0,.19-.03.38-.04.57-.18,0-.35,0-.53,0-.06-.1-.05-.42-.04-.57h.61Z"/>
      <path class="cls-2" d="M35.38,11.73c0,.11,0,.22,0,.33h-.61c.03-.41-.07-.43.61-.33Z"/>
      <path class="cls-68" d="M25.85,8.35s.04.09.04.45c-.05-.01-.19.03-.2.06-.07.14.05,2.69,0,3.09.03.04.15.01.2.02.12.02.78-.04.81.04l-1.67.04s-.06-.16-.04-.61c0,0,.08.01.08-.02.03-1.02,0-2.05,0-3.07h.77Z"/>
      <path class="cls-54" d="M25.69,3.5c-.04.83.02,1.65.08,2.48,0,.01,0,.03,0,.04l-.69-.08c0-.62-.04-1.6,0-2.12,0-.07-.02-.3.02-.33.2,0,.39,0,.59,0Z"/>
      <path class="cls-2" d="M25,11.44c-.01.45.04.58.04.61-.03.62-.12.5-.12.53h-.61c0-.37,0-.77,0-1.14h.69Z"/>
      <path class="cls-4" d="M25.89,8.26s-.05-.02-.04.08h-.77c0-.23,0-.46,0-.69h.75c.11.05.04.39.06.61Z"/>
      <path class="cls-82" d="M24.96,3.05c.01.26.06.51.08.77-.92.08-.56-.15-.57-.77h.49Z"/>
      <path class="cls-15" d="M24.96,2.69c0,.12,0,.24,0,.37h-.49c0-.15,0-.25,0-.41.16-.04.33.03.49.04Z"/>
      <path class="cls-32" d="M5.13,25.32c.43,0,.87,0,1.3,0,0,.43.02.87,0,1.3,0,.27-.08.54-.04.81-.07,0-.39,0-.41,0-.03-.67-.25-.31-.39-.41-.05-.04,0-.31-.02-.35-.04-.06-.35,0-.39-.02-.06-.04.01-.25-.04-.28-.08-.05-.53.04-.63.04-.67,0-.29-.19-.43-.28-.02-.01-.3,0-.39,0,0-.7-.47-.29-.57-.43-.01-.01,0-.33.02-.35.06-.04,1.18,0,1.36,0,.21,0,.41-.04.61-.04Z"/>
      <path class="cls-36" d="M5.98,27.44c-.36.07,0,.39-.33.45-.1-.09,0-.36-.06-.41-.03-.02-.31.03-.37,0-.11-.05-.01-.23-.12-.28-.05-.03-.31.04-.35-.02-.03-.04.03-.37,0-.45-.05-.12-.32.16-.24-.31.1,0,.56-.09.63-.04.06.04-.01.25.04.28.04.03.35-.04.39.02.02.03-.03.31.02.35.13.09.36-.26.39.41Z"/>
      <path class="cls-11" d="M4.52,20.85c.2,0,.41,0,.61,0,.42,0,.84,0,1.26,0,.01,0,.03,0,.04,0l-.04,3.3c-.41.07-.85.04-1.26.04-.69,0-.58.08-.61.08,0,0,.01-.08-.02-.08-.6,0-1.19,0-1.79,0-.04-.03-.02-.62-.02-.73-.03-.85.02-1.71,0-2.56.62-.04,1.22-.03,1.83-.04Z"/>
      <path class="cls-16" d="M5.13,24.18v1.14c-.2,0-.41.03-.61.04v-1.1s-.08-.09.61-.08Z"/>
      <path class="cls-4" d="M29.19,1.95c.41,0,.82-.01,1.22,0-.02.09-.03.63-.06.65-.06.04-1.32-.03-1.53,0-.06-.22-.04-.43-.04-.65.14,0,.27,0,.41,0Z"/>
      <path class="cls-68" d="M31.67,2.61s-.03.08-.06.08c-.58.05-2,0-2.79,0,0-.03,0-.06,0-.08.21-.03,1.46.04,1.53,0,.03-.02.04-.56.06-.65.18,0,1.19,0,1.24.04.05.04,0,.51.02.61Z"/>
      <path class="cls-68" d="M13.35,1.95s.03,0,.04,0v.65c-.28.01-2.21.11-2.3.04-.05-.04,0-.55-.02-.65.09,0,.41-.08.49-.08.59,0,1.2.04,1.79.04Z"/>
      <path class="cls-13" d="M14.98,1.14s.04.04.04.04c-.15.11-.05.45-.08.73-.29-.05-.61.04-.9.04-.22,0-.43,0-.65,0-.01,0-.03,0-.04,0l.06-.81c.26.05.54-.05.79-.04.04,0,.21.17.77.04Z"/>
      <path class="cls-4" d="M6.68,1.95c.96-.02,1.94.07,2.89.04v.61c-.46.02-3.69.15-3.85.04-.05-.04,0-.55-.02-.65.33,0,.65-.04.98-.04Z"/>
      <path class="cls-13" d="M10.1,1.95c.14.97.03.63-.53.65v-.61c.06,0,.25-.07.53-.04Z"/>
      <path class="cls-54" d="M33.55,20.8c.07,1.1.04,2.2.04,3.3,0,.04-.04.04-.04.08-.11-.02-.61.03-.65-.02-.1-.14.04-2.94,0-3.34l.65-.02Z"/>
      <path class="cls-52" d="M5.13,19.66v1.18c-.2,0-.41,0-.61,0v-1.18c.2,0,.41,0,.61,0Z"/>
      <path class="cls-68" d="M27.24,1.95l.04.69c-.7,0-1.41.06-2.12.04.04-.25-.08-.53.04-.73.68-.03,1.36.02,2.04,0Z"/>
      <path class="cls-37" d="M27.97,1.95v.69c-.23,0-.46,0-.69,0l-.04-.69s.08-.08.08-.08c-.05.13.27.08.65.08Z"/>
      <path class="cls-68" d="M33.59,25.36c0,.38,0,.76,0,1.14-.15.13-.43.08-.69.08,0-.41,0-.81,0-1.22.23,0,.46,0,.69,0Z"/>
      <path class="cls-95" d="M28.78,1.95c0,.23-.02.43.04.65,0,.02,0,.06,0,.08-.29,0-.58-.04-.85-.04v-.69c.27,0,.54,0,.81,0Z"/>
      <path class="cls-68" d="M33.1,3.5s.08,0,.12,0c.07.27.05.62.04.9,0,.12,0,.24,0,.37,0,.14-.07.34-.08.49l-1.32-.04-.06.69c-.23,0-.49.06-.73.04-.06,0-.08-.08-.08-.08l.02-1.63h-2.24l-.06,1.67-.04.04c-.23,0-.46-.01-.69,0l-.06-.73h-1.3l-.02.77h-.81c-.06-.83-.12-1.65-.08-2.48,2.47-.08,4.94-.02,7.41,0Z"/>
      <path class="cls-29" d="M33.18,2.65c-.05.3-.12.42-.12.45-.09-.01-.24.02-.28,0-.06-.1-.06-.43-.04-.45.02-.02.37.01.45,0Z"/>
      <g>
        <path class="cls-22" d="M16.2.04v.73c-.05,0-.11,0-.16,0-.24,0-.27.04-.28.04-.03,0-.05,0-.08,0-.23.01-.46,0-.69,0-.02-.23.01-.46,0-.69.06,0,.03-.08.06-.08.39,0,.77,0,1.16,0Z"/>
        <path class="cls-59" d="M14.98.12c.01.23-.02.46,0,.69,0,.11,0,.22,0,.33-.56.13-.73-.04-.77-.04V.08c.24,0,.5-.04.75-.04.03,0,.02.08.02.08Z"/>
        <path class="cls-42" d="M15.67.81c.01.11-.02.26,0,.37-.12.07-.58.06-.65,0,0,0-.05,0-.04-.04,0-.11,0-.22,0-.33.23,0,.46.01.69,0Z"/>
        <path class="cls-47" d="M15.76.81v.45s-.07-.04-.08-.08c-.02-.1.01-.25,0-.37.03,0,.05,0,.08,0Z"/>
      </g>
      <path class="cls-71" d="M4.76,3.42s0,.03,0,.04h-.75s-.02-.48-.02-.57c0-.03,0-.05,0-.08h.71c.11.05.04.39.06.61Z"/>
      <path class="cls-4" d="M15.8,4.6c.1,0,.67.04.69.1-.03.43-.05.85-.04,1.28l-.81.02-.06.96h-2.73s-.01-.86-.02-1c0-.03-.08-.02-.08-.02,0-.21.05-.47.04-.69.23-.03.51.04.73.04l.06.69h1.51c-.05-1.15.29-.57.39-.79.02-.04.05-.62-.12-.55.11,0,.37-.05.45-.04Z"/>
      <path class="cls-4" d="M10.46,6.03c-.03.3.06.61-.06.9h-2.75c-.01-.27-.08-.54-.04-.81,0,0-.01-.08.02-.08.23-.02.48-.03.71-.04.37-.02,1.02,0,1.42,0,.34,0,.65-.04.69.04Z"/>
      <path class="cls-2" d="M15.35,4.64c.17-.07.14.51.12.55-.1.22-.44-.36-.39.79h-1.51l-.06-.69c.49,0,.99-.08,1.49-.04.11-.08.05-.35.06-.61.09,0,.19,0,.28,0Z"/>
      <path class="cls-2" d="M9.77,5.98c-.41,0-1.06-.02-1.42,0l.02-.73c1.41.07,1.48-.33,1.4.73Z"/>
      <g>
        <path class="cls-2" d="M11.11,5.94v1.3c-.22.08-.43,0-.65.06.05.33-.05.67-.04,1-.21.04-.45-.04-.65-.04-.02-.11.03-.65-.02-.69-.03-.02-.63.02-.77,0l-.02.73c-.42,0-.84,0-1.26,0v-.69c.13-.06-.08-.09-.08-.14-.02-.19.05-.36.04-.55h2.75c.12-.29.03-.6.06-.9.01-.13.08-.06.08-.12.14.06.42.06.57.04Z"/>
        <path class="cls-2" d="M7.61,6.11c-.04.27.03.55.04.81,0,.19-.06.36-.04.55,0,.05.22.08.08.14h-.65s0-.03,0-.04c0-.49,0-.98,0-1.47.18-.01.39.02.57,0Z"/>
      </g>
      <path class="cls-92" d="M16.69,15.1s0,.05,0,.08c-.23,0-.59.11-.77.12-1.42.09-5.42-.01-7.33,0l.06-.85h8.02s.01.55.02.65Z"/>
      <path class="cls-4" d="M8.59,15.31c1.91-.01,5.91.09,7.33,0l.04.73c-.84-.03-2.63.04-3.7.04-.83,0-.69.08-.73.08,0,0,.01-.08-.02-.08-.86,0-1.71-.07-2.56-.04-.1.07-.05.18-.06.28.01-.41-.48-.33-.73-.2v-.81c.15,0,.3,0,.45,0Z"/>
      <path class="cls-53" d="M18.24,14.41c.17,0,.19.04.2.04-.05.35-.05.71-.04,1.06h-.88c0,.26-.06.62-.06.65l-.69.04c-.05,0-.04-.04-.04-.04,0-.33-.02-.65-.04-.98,0-.03,0-.05,0-.08.74-.01.78.19.77-.69.26,0,.52,0,.77,0Z"/>
      <path class="cls-62" d="M18.16,13.23c0,.17.04.36.04.53,0,.21-.03.46.04.65-.26,0-.52,0-.77,0,0-.06-.15-.49-.08-1.14.26-.02.51-.07.77-.04Z"/>
      <path class="cls-7" d="M17.22,12.13c0,.06.08.03.08.06,0,.37.01.75,0,1.12-.26.02-.52-.01-.77,0v-.69c.1-.06.21-.04.33-.08.38-.14-.06-.45.37-.41Z"/>
      <path class="cls-7" d="M8.14,15.31v.73l-.85-.04v-.65c.28,0,.57-.04.85-.04Z"/>
      <g>
        <path class="cls-32" d="M17.47,14.41c0,.88-.04.68-.77.69,0-.1.02-.62-.02-.65h-8.02l-.06.85c-.15,0-.3,0-.45,0-.29,0-.58.04-.85.04-.32,0-.65-.05-.98-.04-.03-.25-.04-.52-.04-.77,0-.38.04-.76.04-1.14,3.41.04,6.81.11,10.22-.08.26-.01.52.02.77,0,.04,0,.04-.04.08-.04-.07.65.08,1.08.08,1.14Z"/>
        <path class="cls-67" d="M7.59,14.45s.34,0,.39.06c0,.73.17.84-.65.73v-.73c.22-.02.25-.06.26-.06Z"/>
      </g>
      <path class="cls-16" d="M16.45,6.96c.02,1.47-.03,2.95,0,4.42,0,.03.08.06.08.06.01.36-.29,1.27.33,1.1-.12.04-.22.02-.33.08-.26-.15.01-.51-.18-.57-.28.04-.56-.03-.83-.04.04-.21-.04-.45-.04-.65,0-.02.03-.08.04-.41.02-.83-.01-1.93.04-2.69,0,0,.06.02.12-.06v-1.18l.77-.06Z"/>
      <path class="cls-53" d="M16.61,2.48c0,.3,0,.6,0,.9,0,.31,0,.61,0,.92.23,0,.47.05.69.06v.81c0,1.74,0,3.47,0,5.21,0,.35,0,.71,0,1.06h-.77s-.08-.03-.08-.06c-.03-1.47.02-2.95,0-4.42,0-.33,0-.65,0-.98,0-.43,0-.85.04-1.28-.03-.06-.6-.1-.69-.1,0-.69.01-1.37,0-2.06,0-.03-.08-.02-.08-.02,0-.16.04-.12.04-.12-.03.15.46.06.85.08Z"/>
      <path class="cls-53" d="M15.67,1.18s.04.08.08.08c0,.11,0,.22,0,.33,0,.27,0,.54,0,.81,0,0-.04-.03-.04.12-1.07.15-.22-.52-.77-.61.03-.29-.07-.63.08-.73.07.06.53.07.65,0Z"/>
      <path class="cls-30" d="M14.05,1.95c.17.96-.05.63-.65.65v-.65c.22,0,.43,0,.65,0Z"/>
      <path class="cls-33" d="M7.21,17.1v2.56h-.77s0-.04-.04-.04v-2.52c.27,0,.55.01.81,0Z"/>
      <g>
        <path class="cls-74" d="M6.39,16.04v.96l.85.02v.04s.01.04-.04.04c-.27.01-.54,0-.81,0-.42,0-.84.02-1.26-.02l.02-1.04c.41,0,.83,0,1.24,0Z"/>
        <path class="cls-32" d="M8.14,16.04v1s-.77.01-.9.02v-1.02l.04-.04.85.04Z"/>
        <path class="cls-29" d="M7.25,16.04v.98l-.85-.02v-.96c.28,0,.57,0,.85,0Z"/>
      </g>
      <path class="cls-4" d="M7.69,7.61v.69c-.22,0-.43.01-.65.04,0-.24,0-.49,0-.73h.65Z"/>
      <path class="cls-4" d="M8.88,25.28l2.54.04.02-1.1c.15,0,.6-.16.77.08v.98c-.42.04-.32.39-.22.73h2.89c.19-.56-.02-.65-.02-.69-.02-.35.01-.71,0-1.06.03,0,.41-.1.69-.02v1.02l.12.02c.9,0,1.79,0,2.69,0l.06.73c1.47-.02,2.93-.06,4.4-.04.09-.78-.06-.65-.06-.69-.02-.35.01-.71,0-1.06.23,0,.65-.04.69.06v1.02l.08-.02c.26.09,2.22.04,2.69.04,0,.11-.02.66.02.69h3.83c.09-.78-.06-.65-.06-.69,0-.34.09-.71.04-1.06,0,0,.13-.08.14-.08.31,0,.56.04.59.04l.04,1.1c.3-.04.6.03.9.04v1.22c-8.15.23-16.32.05-24.47,0v-1.26c.21,0,.85.04.9-.06v-1.08c.11,0,.66-.02.69.02l.04,1.08Z"/>
      <path class="cls-37" d="M32.9,25.36c0,.41,0,.81,0,1.22-.38,0-.76-.01-1.14,0-.01,0-.03,0-.04,0v-1.22c.39.01.78-.02,1.18,0Z"/>
      <path class="cls-71" d="M7.25,25.32v1.26l-.04.04h-.77c.02-.43,0-.87,0-1.3.27,0,.54,0,.81,0Z"/>
      <g>
        <path class="cls-2" d="M29.35,5.94c-.02.27.01.54,0,.81v.77c-.24,0-.48,0-.71,0-.08.03-.06.67-.06.77-1.21.16-.26-.53-.88-.65-.87-.17-.33.59-.57.69-.45-.04-1.2.09-1.24-.08-.02-.22.05-.56-.06-.61h-.75c0-.57,0-1.14,0-1.71l.69.08c0,.14-.03.86.02.9l2.85-.04.02-.94.04-.04.65.04Z"/>
        <path class="cls-2" d="M30.98,5.86s.02.08.08.08l.02.9c.83.05,1.99-.07,2.75,0,.09,0,.31.13.71.08.04.03.02.44.02.53.01.28-.04.55-.04.81h-3.42c0-.23-.08-.48-.04-.71-.08-.1-.43-.06-.73-.06v-.77c0-.27,0-.54,0-.81.17-.06.47-.06.65-.04Z"/>
      </g>
      <path class="cls-33" d="M24.92,12.58s.15.2.04.77c-.21,0-.41-.03-.61-.04-.11,0-.08-.04-.08-.04-.04-.32.04-.66.04-.69h.61Z"/>
      <path class="cls-92" d="M31.59,14.45c.21-.07.09.34.12.79l-.85.06c-1.18,0-2.36,0-3.54,0-.2,0-.41,0-.61,0-.77,0-1.55-.03-2.32.04,0-.02-.06.1-.08-.37,0-.16,0-.33,0-.49,2.11.06,5.01-.06,7.29-.04Z"/>
      <path class="cls-62" d="M24.26,13.27s-.03.04.08.04c-.33.35.05,1.1-.37,1.1-.22,0-.43,0-.65,0,.04-.1-.02-.3-.04-.41-.02-.1-.11-.21-.12-.35-.03-.28.04-.37.04-.39.35.01.71-.02,1.06,0Z"/>
      <path class="cls-29" d="M23.98,14.41c.46.02.31.08.33.08,0,.16,0,.33,0,.49h-1.02c0-.18,0-.35,0-.53,0,0,.04-.04.04-.04.22,0,.43,0,.65,0Z"/>
      <path class="cls-52" d="M32.86,17.02l.04,2.65c-.19,0-1.11-.04-1.18.06l-.04,1.02c.04.11.5.04.77.06v3.34c-.25.02-.48.03-.73.04-.01,0-.03,0-.04,0,.17-1.1-.59-.22-.41-1,0-.03.05-.02.08-.02.12-.01.25.04.33-.06,0-.21,0-.42,0-.63,0-.2.05-1.58,0-1.65-.04-.06-.45.02-.49-.04-.03-.04-.03-1.05,0-1.1.04-.06.49.02.53-.04.08-.11-.03-2.3-.04-2.63.39.01.79,0,1.18,0Z"/>
      <path class="cls-32" d="M32.45,24.14v-3.34c.07,0,.34-.02.37.02v3.34c-.22.07-.35-.02-.37-.02Z"/>
      <path class="cls-32" d="M31.67,24.18s.03,0,.04,0v1.04l-.9.1-.04-1.1c.29,0,.6-.03.9-.04Z"/>
      <path class="cls-55" d="M33.83,6.84c-.76-.07-1.92.05-2.75,0l-.02-.9c.24.02.51-.04.73-.04.45,0,.91.08,1.36.04.05-.03,0-.58.02-.69.01-.15.07-.35.08-.49l.57.1v1.97Z"/>
      <path class="cls-16" d="M31.67,16.08c0,.31,0,.62,0,.94-.12,0-.83.02-.85-.02v-.92c.28,0,.57,0,.85,0Z"/>
      <path class="cls-37" d="M32.77,15.31l.02.69c-.41.03-.94-.07-.92.08-.07,0-.14,0-.2,0,0-.23.03-.53-.04-.73.37,0,.76-.05,1.14-.04Z"/>
      <path class="cls-10" d="M30.86,15.31c.25,0,.52.04.77.04.07.2.04.51.04.73-.28,0-.57,0-.85,0-.24,0-.5.04-.73.04-.93,0-1.87-.04-2.81-.04l.04-.77c1.18,0,2.36,0,3.54,0Z"/>
      <path class="cls-91" d="M22.56,11.97c.15,0,.38-.02.49,0,.04,0,.14-.02.16.02.01.41-.02.83,0,1.24l-.85-.08c0-.14,0-.27,0-.41,0-.27.09-.53,0-.77.07,0,.14,0,.2,0Z"/>
      <path class="cls-32" d="M23.21,13.23s0,.03,0,.04c0,.02-.07.11-.04.39.01.13.1.24.12.35l-.49-.04c0-.05.02-.22-.02-.24-.03-.02-.29.01-.39,0,0-.15-.04-.31-.04-.45,0-.04,0-.08,0-.12l.85.08Z"/>
      <path class="cls-80" d="M22.47,11.16c-.12-.01-.25,0-.37,0-.06,0-.04-.15-.04-.33.37-.1.56-.09.41.33Z"/>
      <g>
        <path class="cls-6" d="M23.04,11.97c-.1-.02-.33,0-.49,0l-.04-.45c.27-.06.57.08.41-.33.03,0,.07-.02.12.06v.71Z"/>
        <path class="cls-63" d="M22.92,11.2c.16.41-.13.26-.41.33v-.33c.13.01.33-.02.41,0Z"/>
      </g>
      <g>
        <path class="cls-16" d="M32.77,2.08c.03.19-.03.38-.04.57-.01.15-.13.39.04.45.05.02.19-.01.28,0,0,.02.08.3.04.41-2.47-.02-4.94-.08-7.41,0-.2,0-.39,0-.59,0-.04.03-.01.26-.02.33h-.04c-.02-.26-.07-.51-.08-.77,0-.12,0-.24,0-.37.07,0,.14,0,.2,0,.71.02,1.41-.04,2.12-.04.23,0,.46,0,.69,0,.28,0,.57.04.85.04.79,0,2.21.05,2.79,0,.03,0,.06-.08.06-.08.02,0,.27.13.41-.02-.08-.66.02-.5.69-.51Z"/>
        <path class="cls-100" d="M33.22,2.16c.01.18-.01.32-.04.49-.08.01-.43-.02-.45,0,.01-.19.07-.38.04-.57.2,0,.43-.04.45.08Z"/>
        <path class="cls-100" d="M32.77,3.09c-.18-.06-.05-.29-.04-.45-.02.02-.02.35.04.45Z"/>
      </g>
      <path class="cls-4" d="M27.97,5.94c.23-.01.46,0,.69,0l-.02.94-2.85.04s-.01-.76-.02-.9c0-.01,0-.03,0-.04h.81c.46,0,.92-.01,1.38-.04Z"/>
      <path class="cls-68" d="M25.89,8.79c.02,1.06-.01,2.12,0,3.18-.05,0-.17.02-.2-.02.05-.41-.07-2.95,0-3.09.01-.03.15-.07.2-.06Z"/>
      <path class="cls-29" d="M6.43,24.18c-.04.37,0,.73,0,1.1,0,.01,0,.03,0,.04-.43,0-.87,0-1.3,0v-1.14c.42,0,.85.03,1.26-.04l.04.04Z"/>
      <path class="cls-33" d="M7.21,20.85v.81c0,.83,0,1.66,0,2.48,0,.01,0,.03,0,.04h-.77l-.04-.04.04-3.3c.26,0,.52.01.77,0Z"/>
      <path class="cls-2" d="M27.97,5.94c-.46.03-.92.05-1.38.04l.02-.77h1.3l.06.73Z"/>
      <path class="cls-2" d="M33.18,5.25c-.01.11.03.66-.02.69-.45.04-.91-.03-1.36-.04l.06-.69,1.32.04Z"/>
      <path class="cls-2" d="M12.74,5.94s.08-.01.08.02c0,.14-.02.97.02,1h2.73l.06-.96.81-.02c0,.33,0,.65,0,.98l-.77.06v1.18c-.06.09-.12.05-.12.06h-.77c-.17-.03-1.19.04-1.24,0-.06-.04.02-.49-.04-.53-.03-.02-.56,0-.67,0-.21,0-.42,0-.63,0-.03,0-.05-.06-.06-.08,0-.57,0-1.14,0-1.71h.61Z"/>
      <path class="cls-68" d="M9.77,8.26s-.17.08-.18.08c-.2,0-.42-.04-.63-.04l.02-.73c.15.02.74-.02.77,0,.05.04,0,.58.02.69Z"/>
      <path class="cls-16" d="M16.73,16.16s-.28-.1-.77-.12l-.04-.73c.18-.01.54-.11.77-.12.02.33.04.65.04.98Z"/>
      <path class="cls-68" d="M12.25,16.08l.06,1.02c.74.04,1.48-.03,2.22-.04l-.04.77c-.48.03-.81,0-.65.35.06.13.61.02.67.06.11.08-.26.46.55.37v.04l-.04.96-.08.06c-.91,0-1.82,0-2.73,0-.22,0-.43,0-.65,0-.84,0-1.68,0-2.52,0h-.94v-2.54c.05-.1.65-.06.77-.06.87-.03,1.75.02,2.63,0l.02-.9s-.09-.08.73-.08Z"/>
      <path class="cls-52" d="M16.73,16.16s0,.05.04.04c-.07.26-.04.58-.04.85-.25-.04-.53.04-.77.04-.47,0-.95-.05-1.42-.04-.74,0-1.48.08-2.22.04l-.06-1.02c1.07,0,2.87-.07,3.7-.04.5.02.73.12.77.12Z"/>
      <path class="cls-4" d="M8.88,16.33c-.02.23.02.5,0,.73-.13,0-.72-.04-.77.06v2.54h-.9v-2.56c.05,0,.04-.04.04-.04.13,0,.86.02.9-.02v-.92c.25-.13.75-.21.73.2Z"/>
      <path class="cls-52" d="M11.52,16.16l-.02.9c-.87.02-1.75-.03-2.63,0,.02-.24-.02-.5,0-.73.01-.1-.04-.21.06-.28.86-.03,1.71.04,2.56.04.03,0,.02.08.02.08Z"/>
      <path class="cls-53" d="M19.75,11.48c0,.23.05.46.04.69-.02.3-.07.61-.04.92l-.67.02.02.08c-.02.06-.08.54-.08.57h-.81c0-.17-.04-.36-.04-.53,0-.03,0-.05,0-.08l.73-.06c0-.32,0-.64,0-.96,0-.21-.01-.4,0-.61l.85-.04Z"/>
      <path class="cls-2" d="M17.3,11.44c0,.22,0,.45,0,.67,0,.03-.08.02-.08.02-.43-.04.02.27-.37.41-.61.17-.31-.74-.33-1.1h.77Z"/>
      <path class="cls-62" d="M18.16,13.15c0-.32,0-.64,0-.96,0-.03.08-.02.08-.02l.65-.04c0,.32,0,.64,0,.96l-.73.06Z"/>
      <g>
        <path class="cls-68" d="M10.42,8.31c0,.13.01.96.04,1,.04.06.51,0,.55.02.04.03.01.37.02.45.01.16.04.35.04.37.02.84-.09,1.72-.06,2.56-.28-.05-2.11.06-2.2,0-.06-.05.02-.61-.04-.65-.07-.05-1.47,0-1.69,0-.07-.18-.04-.48-.04-.69,0-1,0-2.01,0-3.01.22-.03.43-.04.65-.04.42,0,.84,0,1.26,0,.21,0,.43.04.63.04.01,0,.15-.08.18-.08.2,0,.44.08.65.04Z"/>
        <path class="cls-60" d="M9.67,11.24c.72-.24.52.74.45.77-.04.02-.51,0-.55-.02-.01-.17-.09-.69.1-.75Z"/>
      </g>
      <path class="cls-4" d="M15.55,8.26c-.06.76-.02,1.86-.04,2.69-.53.01-.56-.12-.53.37-.05-.03-.06-.34-.04-.39.05-.11.8.07.53-.45-.07-.14-.65.02-.69-.08v-2.14h.77Z"/>
      <g>
        <path class="cls-68" d="M14.78,8.26v2.14c.04.1.62-.06.69.08.27.52-.48.33-.53.45-.02.05-.01.35.04.39.13.08.34.02.49.04,0,.2.08.44.04.65-.13,0-1.11,0-1.16.04-.06.05.02.61-.04.65-.08.06-1.81-.05-2.08,0-.12-.05-.08-2.3-.06-2.56,0-.11.03-.25.04-.37,0-.08-.03-.41.02-.45.04-.03.55.04.59-.02.05-.06-.03-1.36,0-1.57.11,0,.64-.02.67,0,.06.04-.02.49.04.53.05.04,1.07-.03,1.24,0Z"/>
        <path class="cls-84" d="M13.13,11.52c.71-.32.69.8,0,.49-.09-.04-.09-.45,0-.49Z"/>
      </g>
      <path class="cls-84" d="M15.51,10.95c0,.33-.04.39-.04.41-.15-.02-.36.04-.49-.04-.03-.49,0-.35.53-.37Z"/>
      <path class="cls-68" d="M14.94,19.66l-.04.04-2.61.02.06,1.04c.83.01,1.67-.02,2.5,0,.27,0,.54.03.81.04.55.01,1.08.02,1.63.04-.07,1.18.14.7.41.81.17.69-.28.54-1.59.57l-.02-.65c-.94-.06-1.89-.03-2.83,0-.44.01-.88-.01-1.32,0-.14.04-.09.56-.04.69.07.04,1.21-.04,1.4-.04.49,0,.98,0,1.47,0v.63s.06.07.1.1c.11.08,2.67-.14,2.81-.04.06.04-.03.16.06.2.06.03.56-.03.63,0,.13.06.01.4.08.45.05.04,1.16.04,1.32.04v.61c-1.38,0-2.76,0-4.13,0l.02,1.06-.12-.02v-1.02c-.28-.08-.66.02-.69.02-.41-.01-2.39-.12-2.63-.04-.03.01-.02.05-.02.08-.18-.24-.63-.08-.77-.08-.84-.03-1.67-.06-2.5-.04l-.06,1.1-.04-1.08s-.59-.02-.69-.02c-.26-.56-.06-1.71-.12-2.46l-.81-.06v-.81c.34-.02.68-.06,1.02-.06v-1.12h.81l.02,1.14c.85,0,1.69.02,2.54-.04.68-.05.74.3.61-1.1.91,0,1.82,0,2.73,0Z"/>
      <g>
        <path class="cls-52" d="M19.79,24.22c.28,0,.57.06.85,0,.7.02,1.41-.03,2.12,0,.01.35-.02.71,0,1.06-1.47,0-2.93,0-4.4,0-.9,0-1.79,0-2.69,0l-.02-1.06c1.38,0,2.76,0,4.13,0Z"/>
        <path class="cls-2" d="M22.76,25.28s.15-.08.06.69c-1.47-.02-2.93.02-4.4.04l-.06-.73c1.47,0,2.93,0,4.4,0Z"/>
      </g>
      <path class="cls-52" d="M26.22,24.22c0,.37,0,.73,0,1.1-.47,0-2.43.05-2.69-.04l.02-1.06c.89.02,1.78-.02,2.67,0Z"/>
      <path class="cls-37" d="M11.44,24.22l-.02,1.1-2.54-.04.06-1.1c.84-.02,1.67,0,2.5.04Z"/>
      <g>
        <path class="cls-52" d="M30.05,24.26c.05.35-.04.72-.04,1.06-1,.04-2.01-.04-3.01-.04l.02-1.06c.12-.09,2.66.05,3.03.04Z"/>
        <path class="cls-2" d="M30.01,25.32s.16-.09.06.69h-3.83s-.02-.59-.02-.69c.23,0,.46,0,.69,0,.04,0,.04-.04.08-.04,1,0,2.01.08,3.01.04Z"/>
      </g>
      <g>
        <path class="cls-52" d="M14.86,24.26c.01.35-.02.71,0,1.06-.64.07-2.32-.07-2.65-.04v-.98s-.01-.07.02-.08c.23-.08,2.21.03,2.63.04Z"/>
        <path class="cls-2" d="M14.86,25.32s.21.13.02.69h-2.89c-.1-.35-.2-.69.22-.73.32-.03,2.01.11,2.65.04Z"/>
      </g>
      <path class="cls-32" d="M8.14,24.18v1.08c-.05.11-.69.06-.9.06-.27,0-.54,0-.81,0,0-.01,0-.03,0-.04l.81-.02c.01-.36-.04-.73-.04-1.08,0-.01,0-.03,0-.04.3.08.63.03.94.04Z"/>
      <g>
        <path class="cls-68" d="M28.58,8.31c0,.17,0,1.27.04,1.32.04.06.59,0,.63.02.04.03.02.41.02.49,0,.85-.07,1.71-.06,2.56h-2.48l-.02-.69c-.03-.08-.7-.02-.81-.04-.01-1.06.02-2.12,0-3.18,0-.36-.04-.4-.04-.45,0-.1.04-.08.04-.08.04.17.79.04,1.24.08.24-.11-.3-.87.57-.69.61.12-.34.81.88.65Z"/>
        <path class="cls-60" d="M27.87,11.28s.53,0,.55.02c.02.03,0,.65-.02.67-.02.02-.53,0-.55-.02-.02-.03,0-.65.02-.67Z"/>
      </g>
      <path class="cls-55" d="M34.48,8.26l-.02,1.99-.75-.06v-1.93h.77Z"/>
      <g>
        <path class="cls-68" d="M33.71,8.26v1.93l.75.06.02-1.99h.04c0,.67,0,1.34,0,2.02l-.77.04v1.71c-.05.06-1.07-.01-1.12.02-.06.05.02.61-.04.65-.09.07-1.99,0-2.26-.06.01-.83-.02-1.67,0-2.5,0-.31,0-.61,0-.92l.73-.08c-.05-.28.05-.6.04-.88h2.61Z"/>
        <path class="cls-68" d="M31.29,11.28s.58,0,.67.02c.04.05.24.99-.69.69.02-.11-.03-.68.02-.71Z"/>
      </g>
      <path class="cls-4" d="M26.71,15.31v.77c-.59,0-2.12-.06-2.32-.04-.1-.44,0-.66,0-.69.77-.07,1.55-.04,2.32-.04Z"/>
      <path class="cls-14" d="M24.31,14.98c.02.47.08.35.08.37,0,.03-.1.25,0,.69-.03,0-.02.12-.37.08,0-.07.02-.34-.02-.37h-.67s-.04-.49-.04-.69c0-.03,0-.05,0-.08h1.02Z"/>
      <path class="cls-4" d="M27.32,15.31l-.04.77c-.19,0-.38,0-.57,0v-.77c.2,0,.41,0,.61,0Z"/>
      <path class="cls-84" d="M31.67,22.47c0,.21,0,.42,0,.63-.07.1-.2.05-.33.06-.18.02-.44-.02-.63,0-.28-.99.21-.63.96-.69Z"/>
      <path class="cls-52" d="M26.71,16.08c.19,0,.38,0,.57,0,.94,0,1.88.04,2.81.04.05.29-.04.61-.04.9-1.64,0-3.28,0-4.93,0-.17,0-.33.02-.33-.04,0-.17,0-.34,0-.51l-.45-.06h-.33c0-.09,0-.19,0-.28.35.04.34-.08.37-.08.2-.01,1.73.04,2.32.04Z"/>
      <g>
        <path class="cls-8" d="M22.11.81c-.02.07-.02.53.06.57l.71.06c-.09,1.42.17.75.61.92.04.35-.04.71-.04,1.06h-.69l-4.7-.04c0,.31-.06.64-.06.94-.21.04-.43-.04-.63-.04-.03,0,0,.08-.06.08-.22,0-.47-.06-.69-.06,0-.31,0-.61,0-.92.89.1.36-.21.59-.94l4.13-.02-.06-.83h-4.6l-.02-.81c.73,0,5.13-.09,5.39-.04.01,0,.06.06.06.08Z"/>
        <path class="cls-25" d="M24.31,11.44c0,.37,0,.77,0,1.14,0,.03-.08.37-.04.69-.35-.02-.71.01-1.06,0,0-.01,0-.03,0-.04-.02-.41.01-.83,0-1.24-.02-.04-.12-.01-.16-.02v-.71c-.05-.08-.1-.05-.12-.06-.08-.02-.28.01-.41,0-.05,0-.04-.04-.04-.04.16-.42-.04-.43-.41-.33,0-.15.03-.32-.04-.45.26,0,.52.01.77,0,.09,0,.5.02.53-.02.01-.26-.02-.53,0-.79.04-.63.05-1.26.04-1.89l-.53-.06.57-.06v-.73s-.48-.02-.57-.02c-.28-.01-.57.02-.85-.02-.06-.08.05-.7.04-.83.25.03.49-.03.73-.04.11,0,.66.02.69-.02.06-.82,0-1.64,0-2.46,0-.35.08-.71.04-1.06l.08.06c.03.19-.04,1.33,0,1.38.05.07.59-.05.65.08.03,2.51-.04,5.02,0,7.53,0,.03.08.02.08.02Z"/>
        <path class="cls-94" d="M16.04.77v.81h-.28c0-.11,0-.22,0-.33v-.45s.04-.03.28-.04Z"/>
        <path class="cls-25" d="M18.04,10.38c.05,0,.11,0,.16,0-.05.36.05.74.04,1.1,0,.23,0,.46,0,.69,0,0-.08-.01-.08.02,0,.32,0,.64,0,.96,0,.03,0,.05,0,.08-.26-.03-.51.02-.77.04-.04,0-.04.04-.08.04.01-.37,0-.75,0-1.12,0-.03-.08,0-.08-.06,0,0,.08.01.08-.02,0-.22,0-.45,0-.67,0-.35,0-.71,0-1.06h.73Z"/>
        <path class="cls-25" d="M23.45,3.42c0,.82.06,1.64,0,2.46-.03.04-.58.01-.69.02v-2.48h.69Z"/>
        <path class="cls-94" d="M18,4.32c0,.29.08.6.04.9-.04,0-.08,0-.12,0-.21,0-.41.01-.61-.04v-.81c.06,0,.03-.08.06-.08.2,0,.43.08.63.04Z"/>
        <path class="cls-5" d="M22.72,8.31c-.01.35-.02.91,0,1.24,0,.03.08.02.08.02.02.27-.01.54,0,.81-.26.01-.52,0-.77,0-.84.01-1.69.04-2.52.04-.16,0-.33,0-.49,0-.26,0-.54-.04-.81-.04-.05,0-.11,0-.16,0v-2.06c.12,0,.26-.05.37-.06.81-.06,3.19.13,4.32.04Z"/>
        <path class="cls-25" d="M22.84,7.61l.53.06c0,.63,0,1.26-.04,1.89h-.53s-.08.01-.08-.02c-.02-.34-.01-.89,0-1.24,0-.21.02-.46.04-.67,0-.03.08-.02.08-.02Z"/>
        <path class="cls-79" d="M22.76,5.21v.69c-.24.01-.49.07-.73.04,0-.04-.13-.04-.08-.73h.81Z"/>
        <path class="cls-22" d="M22.84,7.61c.02-.27-.02-.55,0-.81.09,0,.54-.02.57.02v.73l-.57.06Z"/>
        <path class="cls-94" d="M23.33,9.57c-.02.26.01.53,0,.79-.03.04-.44.02-.53.02-.01-.27.02-.55,0-.81h.53Z"/>
        <g>
          <path class="cls-46" d="M16.2.77c.15,0,.3,0,.45,0l.02.81h4.6l.06.83-4.13.02c-.24.73.3,1.03-.59.94,0-.3,0-.6,0-.9,0-.29,0-.58,0-.88l-.57-.02v-.81c.05,0,.11,0,.16,0Z"/>
          <path class="cls-86" d="M16.04,1.59l.57.02c0,.29,0,.58,0,.88-.4-.03-.88.07-.85-.08,0-.27,0-.54,0-.81h.28Z"/>
        </g>
        <path class="cls-25" d="M17.91,5.21c-.04.23.04.56.04.73,0,.22-.05.46-.04.69,0,.17-.02.39,0,.55,0,.03.08.02.08.02.06.32-.18.55.37.49,0,.18.08.38.04.57-.11,0-.25.06-.37.06v2.06h-.73c0-1.74,0-3.47,0-5.21.2.05.4.04.61.04Z"/>
        <path class="cls-25" d="M19.01,10.42c-.02.2.03.48,0,.65,0,.02-.08-.2-.12.41h-.65c0-.36-.09-.74-.04-1.1.27,0,.55.04.81.04Z"/>
        <path class="cls-5" d="M18.89,11.48s0,.03,0,.04c-.01.21,0,.4,0,.61l-.65.04c0-.23,0-.46,0-.69h.65Z"/>
        <g>
          <path class="cls-42" d="M22.76,3.42v1.79h-.81l-.04.71s-.48.02-.57.02l-.02-.73h-2.04l-.06.69c-.16,0-.33,0-.49,0-.02-.11.03-.65-.02-.69-.03-.02-.56,0-.67,0,.04-.3-.04-.61-.04-.9s.07-.63.06-.94l4.7.04Z"/>
          <path class="cls-79" d="M21.33,5.94c-.71.03-1.41-.04-2.12-.04l.06-.69h2.04l.02.73Z"/>
        </g>
        <path class="cls-79" d="M18.04,5.21c.11,0,.64-.02.67,0,.05.04,0,.58.02.69-.25,0-.52.08-.77.04,0-.17-.08-.5-.04-.73.04,0,.08,0,.12,0Z"/>
        <g>
          <path class="cls-46" d="M22.03,5.94c0,.13-.1.75-.04.83.28.04.57.01.85.02-.02.27.02.55,0,.81,0,0-.08-.01-.08.02-.02.21-.03.46-.04.67-1.13.08-3.51-.1-4.32-.04.04-.19-.04-.39-.04-.57,0-.13.07-.3.04-.45.03,0,.28-.05.28-.06.02-.02.02-.51,0-.53-.04-.05-.66,0-.77-.02-.01-.24.04-.47.04-.69.25.04.53-.04.77-.04.16,0,.33,0,.49,0,.7,0,1.41.07,2.12.04.09,0,.54.02.57-.02l.04-.71c-.05.69.08.69.08.73Z"/>
          <path class="cls-79" d="M18.4,7.25s-.12-.07-.41-.04c0,0-.08.01-.08-.02-.02-.16,0-.38,0-.55.12.02.74-.03.77.02.02.02.02.51,0,.53,0,.01-.25.06-.28.06Z"/>
          <path class="cls-89" d="M18.4,7.25c.03.15-.04.32-.04.45-.55.06-.31-.17-.37-.49.28-.03.39.04.41.04Z"/>
        </g>
      </g>
      <path class="cls-38" d="M19.5,10.42v.61s.06.18-.49.04c.03-.17-.02-.46,0-.65.16,0,.33,0,.49,0Z"/>
      <g>
        <g>
          <path class="cls-70" d="M29.44,5.86h.9s0,.03,0,.04c0,.27,0,.54,0,.81l-.98.04c.01-.27-.02-.55,0-.81,0-.13.08-.08.08-.08Z"/>
          <path class="cls-3" d="M30.33,6.72v.77c-.31,0-.66.03-.98.04v-.77l.98-.04Z"/>
        </g>
        <g>
          <path class="cls-87" d="M31.1,8.26c0,.28-.09.59-.04.88l-.73.08c0,.31,0,.61,0,.92h-1.06c0-.08.02-.46-.02-.49-.04-.03-.59.04-.63-.02-.04-.05-.04-1.16-.04-1.32,0-.1-.02-.74.06-.77.24,0,.48,0,.71,0,.32-.01.66-.04.98-.04.3,0,.65-.04.73.06-.04.24.03.48.04.71Z"/>
          <path class="cls-44" d="M29.5,8.26s.74-.02.77,0c.03.02.03.35.02.39-.04.09-.72.08-.75.06-.1-.04-.07-.43-.04-.45Z"/>
        </g>
        <g>
          <path class="cls-87" d="M30.98,5.86c-.18-.02-.48-.02-.65.04,0-.01,0-.03,0-.04,0-.09,0-.88-.06-.9l-.83.06c-.02.27.03.56,0,.83,0,0-.07-.05-.08.08l-.65-.04.06-1.67h2.24l-.02,1.63Z"/>
          <path class="cls-27" d="M30.33,5.86h-.9c.03-.27-.02-.56,0-.83l.83-.06c.06.02.06.81.06.9Z"/>
        </g>
      </g>
      <path class="cls-32" d="M7.21,24.18c0,.35.05.72.04,1.08l-.81.02c0-.37-.04-.73,0-1.1h.77Z"/>
      <path class="cls-68" d="M8.14,24.18c-.31,0-.63.04-.94-.04,0-.83,0-1.66,0-2.48l.81.06c.06.75-.13,1.9.12,2.46Z"/>
      <g>
        <path class="cls-74" d="M6.43,19.66c0,.06-.09.91-.04,1.18-.42,0-.84,0-1.26,0v-1.18c.26,0,1.2-.05,1.26-.04.04,0,.04,0,.04.04Z"/>
        <path class="cls-36" d="M7.21,19.66h.04c-.08.15.02.95,0,1-.13.24-.79-.03-.81.18-.01,0-.03,0-.04,0-.05-.27.05-1.12.04-1.18h.77Z"/>
        <path class="cls-32" d="M8.1,19.66h.12v1.12c-.34,0-.68.05-1.02.06-.26.01-.52,0-.77,0,.02-.21.68.06.81-.18.02-.04-.08-.85,0-1h.85Z"/>
      </g>
      <g>
        <g>
          <path class="cls-87" d="M12.17,4.6s-.08.27-.08.28c-.8.03-.84-.2-.75.61h.75s.04.06.04.37c-.33.02-.67-.03-1,0-.03,0-.02.08-.02.08-.15.02-.43.02-.57-.04.03-.39-.06-1.61.06-1.67h1.51c0,.22.06.35.06.37Z"/>
          <path class="cls-87" d="M12.78,5.25c0,.23-.05.48-.04.69h-.61s0-.05,0-.08c0-.3-.04-.32-.04-.37,0-.2,0-.4,0-.61,0-.01.08-.27.08-.28.84-.06.6.05.61.65Z"/>
          <path class="cls-27" d="M12.09,4.89c0,.21,0,.41,0,.61h-.75c-.09-.81-.05-.58.75-.61Z"/>
        </g>
        <g>
          <path class="cls-48" d="M12.21,9.77c-.01.12-.03.25-.04.37h-1.1s-.03-.2-.04-.37h1.18Z"/>
          <path class="cls-3" d="M12.13,5.86s0,.05,0,.08c0,.57,0,1.14,0,1.71-.11-.17.04-.67-.1-.73-1.18-.04-.73.05-.83.35-.02.05-.05-.03-.08-.02v-1.3s-.01-.08.02-.08c.33-.03.67.02,1,0Z"/>
          <g>
            <path class="cls-87" d="M12.13,7.65s.03.07.06.08c.21,0,.42,0,.63,0-.03.21.05,1.5,0,1.57-.04.06-.55,0-.59.02-.05.04-.01.36-.02.45h-1.18c0-.08.02-.42-.02-.45-.04-.03-.51.04-.55-.02-.03-.04-.04-.86-.04-1,0-.32.09-.67.04-1,.22-.05.43.02.65-.06.03-.01.06.07.08.02.11-.3-.35-.39.83-.35.14.06-.01.57.1.73Z"/>
            <path class="cls-66" d="M11.26,8.06h.81c.1.83.04.58-.81.61v-.61Z"/>
          </g>
        </g>
      </g>
      <path class="cls-16" d="M11.56,19.66l.04,1.1c-.85.06-1.69.04-2.54.04l-.02-1.14c.84,0,1.68,0,2.52,0Z"/>
      <path class="cls-7" d="M15.96,17.83c.03,1.29.24.58.67.77.1.08.06.35.06.61,0,.12-.03.25.04.37-.06,0-.03.08-.06.08-.29.02-.67,0-.98,0-.03,0,0,.08-.06.08-.03,0,.2-.08-.57-.08v-1.79c.29,0,.6-.08.9-.04Z"/>
      <path class="cls-10" d="M15.96,17.1c.07.2,0,.46,0,.73-.3-.04-.6.03-.9.04-.03,0-.17-.07-.57-.04l.04-.77c.48,0,.95.04,1.42.04Z"/>
      <path class="cls-68" d="M12.21,19.66c.13,1.4.07,1.05-.61,1.1l-.04-1.1c.22,0,.43,0,.65,0Z"/>
      <path class="cls-2" d="M15.06,17.87v.73c-.81.1-.44-.29-.55-.37-.06-.04-.61.07-.67-.06-.15-.35.18-.31.65-.35.4-.03.54.04.57.04Z"/>
      <path class="cls-68" d="M15.06,19.66s-.08,0-.12,0l.08-.06.04-.96v1.02Z"/>
      <path class="cls-53" d="M16.73,17.06c0,.22,0,.43,0,.65,0,.39,0,.77,0,1.16l.77.06c0,.06-.02.21.02.24.15.01.32-.02.47,0,.14.02.11.08.12.08v.73c-.13-.02-.6.02-.63,0-.02-.01-.05-.37-.06-.45-.03-.22.27-.47-.73-.33,0-.26.04-.54-.06-.61-.43-.19-.64.52-.67-.77,0-.28.07-.53,0-.73.25,0,.52-.08.77-.04Z"/>
      <path class="cls-100" d="M18.36,21.62c.27,0,.56.09.83.04l.02.75c.12.27.82-.41.65.73.04.1.64.06.77.06.03.32-.04.35-.04.37-.27-.04-.55.04-.81.04-.17,0-1.27,0-1.32-.04-.07-.05.05-.39-.08-.45-.08-.03-.57.03-.63,0v-1.38c.13-.11.41-.12.61-.12Z"/>
      <path class="cls-52" d="M26.71,19.75l-.02,1.06c-.94.01-1.89-.02-2.83,0v-1.02s.04-.04.08-.04c.92.01,1.85.02,2.77,0Z"/>
      <path class="cls-37" d="M28.58,19.71c.5,0,1,0,1.51,0,0,.14.11,1,.02,1.06h-2.61l.04-1.06c.35,0,.69,0,1.04,0Z"/>
      <path class="cls-4" d="M26.91,25.32c-.23,0-.46,0-.69,0,0-.37,0-.73,0-1.1.11,0,.66-.02.69.02v1.08Z"/>
      <path class="cls-53" d="M23.57,19.75c.1,0,.2.04.28.04v1.02c-.21,0-.54-.02-.69,0-.02-.35.02-.71,0-1.06.14,0,.27,0,.41,0Z"/>
      <path class="cls-4" d="M20.6,23.57s.08.35.04.65c-.28.06-.57,0-.85,0v-.61c.26,0,.55-.08.81-.04Z"/>
      <g>
        <path class="cls-68" d="M30.82,16.08v.92s.73.02.85.02c0,.32.12,2.52.04,2.63-.04.06-.49-.02-.53.04-.03.04-.03,1.05,0,1.1.04.06.45-.02.49.04.05.07,0,1.45,0,1.65-.75.06-1.24-.3-.96.69.19-.02.45.02.63,0-.03,0-.07,0-.08.02-.18.77.58-.1.41,1-.3,0-.6.03-.9.04-.03,0-.28-.05-.59-.04-.01,0-.13.08-.14.08-.38,0-2.91-.13-3.03-.04l-.02,1.06s-.04.04-.08.04v-1.08s-.59-.02-.69-.02c-.89-.02-1.78.02-2.67,0l-.02,1.06-.08.02v-1.02c-.05-.1-.47-.05-.69-.06-.7-.03-1.41.02-2.12,0,.04-.3-.04-.62-.04-.65,0-.02.07-.04.04-.37.24,0,.48,0,.71,0l.08-.73h.85c.17-.07-.06-.79.14-.81.09,0,.5.02.53-.02,0-.24,0-.48,0-.71,0-.01,0-.03,0-.04.18-.03.19-.08.2-.08.15-.02.48,0,.69,0,.94-.02,1.89.01,2.83,0l.02-1.06c.22,0,.52,0,.71,0,.02,0,.06-.08.08-.08.35-.02.73-.02,1.08.04-.35,0-.69,0-1.04,0l-.04,1.06h2.61c.09-.06-.03-.92-.02-1.06,0-.26.08-.64.08-1.04,0,0-.08-.11-.08-.12,0-.47.05-.96.04-1.42,0-.02-.08-.05-.08-.1,0-.29.09-.6.04-.9.24,0,.49-.04.73-.04Z"/>
        <path class="cls-2" d="M29.86,21.21c.38-.27.51.49.33.57-.48.21-.36-.54-.33-.57Z"/>
      </g>
      <path class="cls-37" d="M14.9,19.71l-.04,1.06c-.83-.02-1.67.01-2.5,0l-.06-1.04,2.61-.02Z"/>
      <path class="cls-32" d="M17.43,19.54c.01.07.04.43.06.45.03.02.5-.02.63,0v.08c-.12,0-.05.07-.16.1v.63c-.15,0-.45.05-.65.04-.55-.02-1.08-.03-1.63-.04l-.04-1.06c.06,0,.03-.08.06-.08.31,0,.69.02.98,0,.03,0,0-.07.06-.08.22-.02.47,0,.69-.04Z"/>
      <path class="cls-68" d="M17.75,21.74v1.38c-.09-.05,0-.17-.06-.2-.14-.1-2.7.13-2.81.04-.04-.03-.07-.07-.1-.1v-.63c.45,0,.9.01,1.34,0,1.31-.03,1.76.12,1.59-.57.05.02.05.03.04.08Z"/>
      <path class="cls-30" d="M16.12,22.23c-.45.01-.9,0-1.34,0-.49,0-.98,0-1.47,0l-.04-.65c.94-.03,1.89-.06,2.83,0l.02.65Z"/>
      <path class="cls-60" d="M13.27,21.58l.04.65c-.2,0-1.33.09-1.4.04-.05-.13-.1-.65.04-.69.44-.01.88.01,1.32,0Z"/>
      <path class="cls-7" d="M18.36,21.62c-.2,0-.48,0-.61.12,0-.05.01-.06-.04-.08-.27-.11-.48.37-.41-.81.21,0,.5-.05.65-.04.6.04.37.11.41.81Z"/>
      <path class="cls-4" d="M15.06,19.66c.77,0,.54.08.57.08l.04,1.06c-.27,0-.54-.04-.81-.04l.04-1.06.04-.04s.08,0,.12,0Z"/>
      <path class="cls-68" d="M25.12,17.02v.45c-.34.03-.31-.04-.33-.04-.01-.15,0-.3,0-.45,0,.06.15.04.33.04Z"/>
      <path class="cls-34" d="M17.43,19.54c-.23.04-.47.02-.69.04-.07-.11-.04-.24-.04-.37,1.01-.15.7.11.73.33Z"/>
      <path class="cls-53" d="M24.59,18.85c-.02.1.03.53-.02.57-.03.02-.5-.02-.63,0v-.57s.04,0,.04-.04c.19-.05.43.05.61.04Z"/>
      <g>
        <path class="cls-68" d="M30.05,17.02s.08.08.08.1c0,.47-.04.96-.04,1.42,0,0,.08.11.08.12,0,.4-.07.78-.08,1.04-.5,0-1,0-1.51,0-.35-.06-.73-.06-1.08-.04-.02,0-.06.08-.08.08-.19,0-.49,0-.71,0-.92.02-1.85.01-2.77,0v-.33c.13-.02.6.02.63,0,.05-.04,0-.47.02-.57.06,0,.11-.08.12-.08.23-.03.35.09.41-.02v-1.73c1.64,0,3.28,0,4.93,0Z"/>
        <path class="cls-2" d="M28.15,17.87c.67-.3.7,1.11-.06.67.03-.12-.06-.62.06-.67Z"/>
      </g>
      <g>
        <path class="cls-14" d="M22.03,10.38c.07.13.04.3.04.45,0,.17-.02.33.04.33-.01,0-.13,0-.2,0-.71-.04-1.41-.03-2.12-.04-.32,0-.24-.08-.28-.08v-.61c.84,0,1.69-.03,2.52-.04Z"/>
        <path class="cls-34" d="M22.11,11.16c.12,0,.25-.01.37,0,0,0-.01.03.04.04v.33l.04.45c-.07,0-.14,0-.2,0-.16,0-.34.04-.49-.04,0-.26.05-.51.04-.77.08,0,.19,0,.2,0Z"/>
        <path class="cls-83" d="M17.55,16.29c0,.27,0,.54,0,.81,0,.15,0,.3,0,.45,0,.05,0,.11,0,.16h-.81c0-.22,0-.43,0-.65,0-.28-.03-.59.04-.85l.69-.04s.08,0,.08.12Z"/>
        <path class="cls-101" d="M19.14,14.53c-.02.3-.02.7.04,1-.25.03-.15.23-.16.43h-.57c0-.15-.04-.31-.04-.45,0-.35-.01-.71.04-1.06.32.02.61-.06.69.08Z"/>
        <path class="cls-78" d="M19.01,13.76c.01.09.09.22.2.24-.03.16-.07.36-.08.53-.09-.14-.37-.06-.69-.08-.01,0-.04-.03-.2-.04-.08-.19-.04-.44-.04-.65h.81Z"/>
        <path class="cls-50" d="M18.4,15.51c0,.14.04.3.04.45,0,.11,0,.22,0,.33,0,.39,0,.77,0,1.16-.03.05-.22,0-.28.02,0-.11,0-.22,0-.33.02-.24.05-.6.04-.83,0-.03-.08-.06-.08-.06-.02-.24.01-.49,0-.73h.28Z"/>
        <path class="cls-9" d="M18.12,15.51c.01.24-.02.49,0,.73l-.57.04c0-.12-.08-.11-.08-.12,0-.03.06-.39.06-.65h.59Z"/>
        <path class="cls-41" d="M23.29,14.01c.02.1.08.31.04.41,0,0-.04.04-.04.04-.05.02-.38-.02-.53,0,0-.36.04-.46.04-.49l.49.04Z"/>
        <path class="cls-45" d="M23.29,14.45c0,.18,0,.35,0,.53,0,.03,0,.05,0,.08-.66.04-.5-.08-.53-.08,0-.18,0-.35,0-.53.15-.02.47.02.53,0Z"/>
        <path class="cls-69" d="M21.9,11.16c0,.26-.03.51-.04.77-.13-.07-.01-.04-.1-.37-.29.09-1.11-.11-.88.37,0,0-.03.08-.06.08-.1.01-.42-.02-.45,0-.03.02.08.45-.59.16.01-.24-.04-.47-.04-.69,0-.02.07-.04.04-.37.71,0,1.41,0,2.12.04Z"/>
        <path class="cls-40" d="M19.79,11.11c.03.32-.04.35-.04.37l-.85.04s0-.03,0-.04c.05-.6.12-.38.12-.41.55.14.46-.04.49-.04.04,0-.03.08.28.08Z"/>
        <path class="cls-31" d="M21.86,12.01c0,.1-.02.68,0,.71.04.05.4,0,.49.02,0,.14,0,.27,0,.41,0,.04,0,.08,0,.12-.28-.04-.7.04-.73.04-.02,0,.16-.06-.41-.08-.21,0-.23-.04-.24-.04v-1.22c.26-.02.64-.02.9.04Z"/>
        <path class="cls-16" d="M22.35,11.97c.09.24,0,.5,0,.77-.09-.02-.45.03-.49-.02-.02-.03,0-.61,0-.71,0-.03,0-.05,0-.08.15.08.33.03.49.04Z"/>
        <path class="cls-80" d="M22.35,13.27c0,.13.04.3.04.45,0,.11-.04.22-.04.33.04-.15-.36-.06-.73-.08v-.65s.46-.08.73-.04Z"/>
        <path class="cls-2" d="M22.8,13.96s-.04.13-.04.49c0,.18,0,.35,0,.53-.01,0-.08.07-.24.04-.02-.07-.1-.12-.16-.16,0-.27-.01-.54,0-.81,0-.1.04-.22.04-.33.1.01.36-.02.39,0,.04.03.02.19.02.24Z"/>
        <path class="cls-40" d="M20.97,11.97v1.22c-.1,0-.22,0-.33,0,.15-.46-.29-.5-.47-.41-.02.01.05.33.02.41-.03,0-.33.08-.37.08-.22,0-.5-.06-.73-.08l-.02-.08.67-.02c-.03-.31.02-.61.04-.92.67.29.56-.14.59-.16.03-.02.35.01.45,0,.03,0,.06-.08.06-.08.1,0,.08.04.08.04Z"/>
        <path class="cls-26" d="M19.83,13.27c-.02.38.07.77-.08.73-.17-.01-.44.02-.53,0-.11-.03-.19-.15-.2-.24,0-.03.06-.51.08-.57.23.02.51.08.73.08Z"/>
        <path class="cls-90" d="M18.93,16.33c.1.14.03,2.1,0,2.46.04.06.45-.01.53.02,0,0,0,.05.04.04.02.21-.02.45,0,.65h-.04c-.89-.03-.59-.01-.65.63,0,.03-.08.02-.08.02-.66.05-.58-.08-.61-.08v-.81s.3-.05.33-.1v-.94s-.37-.02-.45-.02c-.07,0-.22-.07-.45-.04,0-.15,0-.3,0-.45,0-.05,0-.11,0-.16.2-.06.4-.04.61-.08.06-.01.25.03.28-.02,0-.39,0-.77,0-1.16.15-.02.38-.11.49.04Z"/>
        <path class="cls-103" d="M17.55,17.71c0,.15,0,.3,0,.45,0,.32-.06.6-.04.77l-.77-.06c0-.39,0-.77,0-1.16h.81Z"/>
        <path class="cls-2" d="M18.12,16.24s.08.03.08.06c.01.23-.02.59-.04.83l-.61-.04c0-.27,0-.54,0-.81l.57-.04Z"/>
        <path class="cls-35" d="M18.16,17.14c0,.11,0,.22,0,.33-.21.04-.41.02-.61.08,0-.15,0-.3,0-.45l.61.04Z"/>
        <path class="cls-20" d="M19.75,14.01s-.03.03.08.04c-.04.39.04.79.04,1.18,0,.32-.08.65-.04.98v.37c-.16,0-.12.04-.12.04-.01,0-.09-.07-.28-.04-.03-.41-.03-.25-.41-.28v-.33c.02-.19-.08-.4.16-.43-.06-.29-.06-.7-.04-1,0-.16.05-.37.08-.53.09.02.36-.01.53,0Z"/>
        <path class="cls-41" d="M19.01,15.96v.33s-.04.05-.08.04c-.1-.15-.33-.06-.49-.04,0-.11,0-.22,0-.33h.57Z"/>
        <path class="cls-53" d="M18.12,20.07s-.05.13.61.08c-.08,1.47.75.02.57,1.4.03.04.15.01.2.02.1.01.25,0,.37,0,.3.01.6,0,.9,0,0,.01,0,.03,0,.04,0,.11-.02.79.02.81.03.02.65,0,.67-.02-.04-.25.03-.51.04-.75.27.04.55-.03.81-.04.16,0,.12.04.12.04-.2.02.02.74-.14.81h-.85l-.08.73c-.24,0-.48,0-.71,0-.13,0-.73.04-.77-.06.17-1.14-.53-.46-.65-.73l-.02-.75c-.27.04-.57-.04-.83-.04-.04-.71.2-.78-.41-.81v-.63c.12-.03.05-.1.16-.1Z"/>
        <path class="cls-43" d="M23.17,19.75c.02.35-.02.71,0,1.06-.01,0-.03.06-.2.08,0-.11.02-.68,0-.71-.02-.03-.61-.04-.63-.02-.05.04,0,.66-.02.77-.01,0-.03,0-.04,0-.18,0-.37,0-.55,0-.04-.03-.01-.26-.02-.33-.02-.23.01-.48,0-.71.05-.12.71-.05.67.14.04-.02.02-.3.02-.37.13-.01.61.04.67-.04.06-.08,0-.45.02-.57.03.02.08.6.08.69Z"/>
        <path class="cls-57" d="M22.96,20.89s0,.03,0,.04c-.22,0-.43,0-.65,0,.02-.12-.03-.74.02-.77.03-.02.61,0,.63.02.02.03,0,.6,0,.71Z"/>
        <path class="cls-74" d="M22.96,20.93c0,.24,0,.48,0,.71-.03.04-.44.02-.53.02,0,0,.03-.05-.12-.04l-.04-.69s.03,0,.04,0c.22,0,.43,0,.65,0Z"/>
        <path class="cls-103" d="M23.49,15.76l-.04,1.53c.04.09.25.07.33.06-.28.04-.19.14-.2.37-.02.36,0,.77,0,1.14,0,.3,0,.6,0,.9-.14,0-.27,0-.41,0,0-.09-.05-.68-.08-.69-.22,0-.43,0-.65,0,0-.11,0-.22,0-.33,0-.11.04-.08.04-.08.92.13.57-.34.57-1.02,0-.55-.04-.5-.04-.53,0-.12-.03-.92,0-.96.07-.1.29.17.33-.39h.16Z"/>
        <path class="cls-2" d="M23.29,15.06c0,.2.04.66.04.69-.04.56-.26.29-.33.39-.03.04,0,.84,0,.96h-.45c.07-.1.36,0,.41-.06.02-.03.02-.62,0-.65-.04-.05-.4-.02-.49.02,0-.05,0-.11,0-.16,0-.34.09-1.05.04-1.22.16.03.23-.04.24-.04.03,0-.13.12.53.08Z"/>
        <path class="cls-2" d="M24.02,16.12c0,.09,0,.19,0,.28,0,.29,0,.58,0,.88-.06.1-.16.05-.24.06-.08,0-.29.02-.33-.06l.04-1.53h.51s.02.3.02.37Z"/>
        <path class="cls-64" d="M24.35,16.41l-.04,1c.07.1.2.05.33.06.13.42-.05,1.16.08,1.3,0,0-.06.08-.12.08-.18,0-.42-.09-.61-.04-.05-.89.22-1.21-.41-1.1.01-.23-.08-.32.2-.37.09,0,.18.03.24-.06,0-.29,0-.58,0-.88h.33Z"/>
        <path class="cls-2" d="M24.79,16.98c0,.15-.01.3,0,.45-.03,0-.04.05-.16.04-.12-.01-.25.04-.33-.06l.04-1,.45.06c0,.17,0,.34,0,.51Z"/>
        <path class="cls-56" d="M21.86,11.93s0,.05,0,.08c-.26-.06-.63-.06-.9-.04,0,0,.02-.05-.08-.04-.23-.47.58-.27.88-.37.09.32-.02.3.1.37Z"/>
        <path class="cls-73" d="M20.64,13.19c.11,0,.22,0,.33,0,.01,0,.04.03.24.04l-.04.81c-.11,0-.22,0-.33,0-.33,0-.7.02-1.02,0-.11,0-.08-.04-.08-.04.15.04.06-.36.08-.73.03,0,.33-.08.37-.08.15,0,.3,0,.45,0Z"/>
        <path class="cls-96" d="M21.62,13.31v.73c-.14-.03-.27,0-.41,0-.01,0-.03,0-.04,0l.04-.81c.56.02.38.08.41.08Z"/>
        <g>
          <path class="cls-20" d="M22.35,14.05c-.01.27,0,.54,0,.81-.07-.05-.02-.11-.06-.12-.65-.25-.35,1.01-.26,1.47-.14,0-.27,0-.41,0-.02-.04,0-.29,0-.41,0-.2,0-.41,0-.61,0-.18,0-.35,0-.53v-.69c.38.02.77-.07.73.08Z"/>
          <path class="cls-58" d="M22.35,14.86c.06.05.14.09.16.16.04.17-.04.88-.04,1.22-.14-.04-.3-.04-.45-.04-.09-.45-.38-1.71.26-1.47.04.01-.01.07.06.12Z"/>
        </g>
        <path class="cls-41" d="M18,18.2v.98c-.15-.02-.32.01-.47,0-.04-.03-.01-.19-.02-.24-.02-.18.04-.46.04-.77.23-.03.38.04.45.04Z"/>
        <path class="cls-20" d="M18.12,19.26s.01-.07-.12-.08v-.98c.08,0,.42-.02.45.02v.94s-.31.1-.33.1Z"/>
        <path class="cls-104" d="M20.64,13.19c-.14,0-.3,0-.45,0,.03-.07-.04-.4-.02-.41.18-.09.61-.05.47.41Z"/>
        <path class="cls-50" d="M19.54,19.62c.01.06-.03.21.02.24.04.02.66.13.59-.33.5,0,1.01,0,1.51,0,.25,0,.52.11.73-.04,0,.05,0,.11,0,.16,0,.07.02.35-.02.37.04-.19-.62-.26-.67-.14.01.24-.02.48,0,.71-.15.03-.04-.2-.1-.24-.2-.15-.14.08-.14.16,0-.03,0-.04-.04-.04-.4-.03-.33-.01-.33.37-.03,0-.04.03-.08.04l-.02-.61h-.79c0-.09.03-.32-.06-.37-.03-.01-.55-.02-.57,0-.04.03-.06.84-.06.98-.23,0-.04-.05-.04-.06.02-.44,0-.88,0-1.32h.04c.02.16.04.12.04.12Z"/>
        <path class="cls-14" d="M20.07,18.81c.09,0,.19,0,.28,0,.3,0,.6,0,.9,0,.03,0,.04.04.12.04.04.58-.14.61.24.65.03,0,.05,0,.04.04-.5,0-1.01,0-1.51,0-.37,0-.66-.04-.61.08,0,0-.02.04-.04-.12-.02-.2.02-.44,0-.65.19-.06.38-.04.57-.04Z"/>
        <path class="cls-53" d="M19.42,16.57c.04.55.01,1.12.04,1.67,0,.19,0,.38,0,.57-.07-.03-.49.04-.53-.02.03-.37.1-2.32,0-2.46.04,0,.04-.04.08-.04.38.04.37-.12.41.28Z"/>
        <path class="cls-19" d="M19.46,19.5c0,.44.02.88,0,1.32,0,.01-.19.06.04.06-.01.23,0,.46,0,.69-.05,0-.17.02-.2-.02.18-1.38-.65.06-.57-1.4,0,0,.08.01.08-.02.06-.64-.24-.66.65-.63Z"/>
        <path class="cls-61" d="M19.71,18.2c.05.58.43,0,.37.61-.19,0-.38-.02-.57.04-.05,0-.04-.04-.04-.04,0-.19,0-.38,0-.57l.24-.04Z"/>
        <path class="cls-101" d="M20.85,14.05c.02.13-.02.56,0,.59.03.05.29.01.37.02.04,0,.16.1.41,0,0,.18,0,.35,0,.53l-1.75.04c0-.39-.08-.79-.04-1.18.32.02.69,0,1.02,0Z"/>
        <path class="cls-9" d="M21.62,15.19c0,.2,0,.41,0,.61-.53-.25-.71-.19-.73.41-.35,0-.71,0-1.06,0-.04-.32.04-.66.04-.98l1.75-.04Z"/>
        <path class="cls-53" d="M19.83,16.57c.12,0,.24,0,.37,0-.22.5-.09,1.07-.12,1.61l.08.02s.08,0,.12,0c.05,0,.11,0,.16,0-.12.06.02.28-.08.61-.09,0-.19,0-.28,0,.06-.61-.31-.04-.37-.61,0-.08.09-1.02,0-1.59,0,0-.03-.04.12-.04Z"/>
        <path class="cls-77" d="M20.89,16.2c.25,0,.48,0,.73,0,.01.03,0,.03.04.04-.06.08-.04.16-.04.24-.47.06-.95.07-1.42.08-.12,0-.24,0-.37,0v-.37c.35,0,.71,0,1.06,0Z"/>
        <path class="cls-97" d="M19.71,16.61c.09.57,0,1.51,0,1.59l-.24.04c-.03-.55,0-1.12-.04-1.67.19-.03.27.04.28.04Z"/>
        <path class="cls-103" d="M25.12,17.47v1.28c-.06.11-.18,0-.41.02-.14-.14.05-.89-.08-1.3.12.01.13-.04.16-.04.02,0-.01.07.33.04Z"/>
        <path class="cls-12" d="M23.94,18.85v.9s-.04.04-.08.04c-.08,0-.19-.04-.28-.04,0-.3,0-.6,0-.9.11-.01.32.02.37,0Z"/>
        <path class="cls-83" d="M21.01,20.89c-.05.01-.17-.03-.2.02.03.23-.03.45-.04.67-.3,0-.6.01-.9,0-.08-.57.22-.29.28-.39.03-.04.04-.81.04-.92h.79l.02.61Z"/>
        <path class="cls-81" d="M20.19,20.28c0,.11-.01.88-.04.92-.07.1-.36-.19-.28.39-.12,0-.27.01-.37,0,0-.23-.01-.46,0-.69,0-.13.02-.95.06-.98.02-.02.54-.01.57,0,.09.04.06.28.06.37Z"/>
        <path class="cls-103" d="M21.7,20.6c0,.07-.02.3.02.33.18,0,.37,0,.55,0l.04.69c-.26,0-.54.08-.81.04,0-.04-.04-.04-.04-.08,0-.35-.02-.71,0-1.06,0-.08-.06-.31.14-.16.06.05-.05.28.1.24Z"/>
        <path class="cls-98" d="M21.46,21.58s.04.04.04.08c0,.25-.08.5-.04.75-.02.03-.64.04-.67.02-.04-.03-.02-.7-.02-.81l.69-.04Z"/>
        <path class="cls-65" d="M21.46,20.52c-.02.35,0,.71,0,1.06l-.69.04s0-.03,0-.04c.02-.22.07-.44.04-.67.03-.05.15,0,.2-.02.04-.01.05-.04.08-.04.22-.01.37.3.33-.37.03,0,.04,0,.04.04Z"/>
        <path class="cls-39" d="M23.08,19.05c-.02.12.04.49-.02.57-.06.08-.54.03-.67.04,0-.05,0-.11,0-.16v-.45s.03,0,.04,0c.22,0,.43,0,.65,0Z"/>
        <path class="cls-81" d="M23.04,17.63c0,.68.35,1.15-.57,1.02,0-.33-.05-.68-.04-1.02h.61Z"/>
        <path class="cls-96" d="M22.35,18.57s.05.16.08.16c0,.11,0,.22,0,.33-.01,0-.03,0-.04,0-.61,0-.84-.14-.77.45-.39-.05-.21-.07-.24-.65.09,0,.18,0,.26,0,.1-.06.05-.16.06-.24,0-.01,0-.03,0-.04h.65Z"/>
        <path class="cls-2" d="M23.98,18.81s-.03.04-.04.04c-.05.02-.25-.01-.37,0,0-.37-.02-.78,0-1.14.63-.11.35.21.41,1.1Z"/>
        <path class="cls-23" d="M22.03,16.2c.15,0,.31,0,.45.04,0,.05,0,.11,0,.16,0,.23,0,.46,0,.69,0,.18-.04.35-.04.53,0,.34.04.68.04,1.02,0,0-.04-.03-.04.08-.03,0-.08-.15-.08-.16-.04-.34.06-1.93,0-2.02-.04-.05-.22.02-.33-.06-.06-.44-.16-.16-.37-.24-.03-.01-.03,0-.04-.04.14,0,.27,0,.41,0Z"/>
        <path class="cls-17" d="M22.56,17.1h.45s.04-.02.04.53h-.61c0-.18.04-.35.04-.53h.08Z"/>
        <path class="cls-101" d="M22.56,17.1h-.08c0-.23,0-.46,0-.69.09-.04.45-.07.49-.02.02.03.02.62,0,.65-.05.07-.34-.04-.41.06Z"/>
        <path class="cls-9" d="M21.17,14.05s.03,0,.04,0v.61c-.07,0-.33.03-.37-.02-.02-.03.02-.46,0-.59.11,0,.22,0,.33,0Z"/>
        <path class="cls-26" d="M21.62,14.05v.61c-.24.1-.36,0-.41,0v-.61c.14,0,.27-.03.41,0Z"/>
        <path class="cls-78" d="M21.62,15.8c0,.11-.02.37,0,.41-.25,0-.48,0-.73,0,.02-.6.21-.66.73-.41Z"/>
        <path class="cls-19" d="M22.39,19.05v.45c-.21.15-.48.04-.73.04,0-.04-.01-.04-.04-.04-.07-.59.17-.44.77-.45Z"/>
        <path class="cls-24" d="M20.15,19.54c.07.46-.56.35-.59.33-.05-.03,0-.19-.02-.24-.05-.12.24-.08.61-.08Z"/>
        <path class="cls-79" d="M21.42,20.48c.04.67-.1.35-.33.37,0-.38-.07-.4.33-.37Z"/>
        <path class="cls-88" d="M21.7,18.57s0,.03,0,.04c-.24-.08-.51-.11-.45.2-.3,0-.6,0-.9,0,.1-.34-.04-.55.08-.61.16.01.33,0,.49,0,.21,0,.51.03.69-.04,0,.02.12-.04.08.41Z"/>
        <path class="cls-93" d="M21.7,18.61c-.01.09.04.18-.06.24-.09,0-.18,0-.26,0-.09,0-.09-.04-.12-.04-.06-.31.2-.28.45-.2Z"/>
        <path class="cls-85" d="M21.62,16.9c-.48.03-.97-.02-1.45,0-.11.08-.05.3-.06.53-.01.23-.02.56.04.77l-.08-.02c.03-.54-.09-1.11.12-1.61.48-.01.95-.02,1.42-.08,0,.14,0,.27,0,.41Z"/>
        <path class="cls-72" d="M22.03,16.49c.06.51-.07.38-.37.41-.01,0-.03,0-.04,0,0-.14,0-.27,0-.41,0-.09-.02-.17.04-.24.21.09.31-.2.37.24Z"/>
        <path class="cls-28" d="M22.35,18.57h-.65c.04-.45-.08-.38-.08-.41-.01-.16.05-.6-.04-.69,0,0-.05,0-.04-.04.23-.06.09-.34.12-.53.3-.02.43.1.37-.41.11.08.29,0,.33.06.06.08-.04,1.67,0,2.02Z"/>
        <g>
          <path class="cls-75" d="M21.13,17.43c.01.24-.05.44.08.41-.23.08,0,.18-.28.37-.16,0-.33.01-.49,0-.05,0-.11,0-.16,0-.16-.23.05-.07.1-.12.02-.01.02-.19.14-.24.15-.07.41.18.24-.41.12,0,.25,0,.37,0Z"/>
          <path class="cls-18" d="M20.52,17.43v.41c-.12.05-.13.23-.14.24-.06.05-.26-.11-.1.12-.04,0-.08,0-.12,0-.06-.21-.05-.55-.04-.77h.41Z"/>
          <path class="cls-1" d="M21.62,18.16c-.18.07-.48.04-.69.04.29-.19.06-.29.28-.37.27-.09.31.21.37-.37.09.09.03.53.04.69Z"/>
          <path class="cls-1" d="M21.62,16.9s.03,0,.04,0c-.04.19.1.47-.12.53-.07.02-.27,0-.41,0-.12,0-.24,0-.37,0h-.65c.01-.22-.05-.45.06-.53.48-.02.97.03,1.45,0Z"/>
          <path class="cls-99" d="M21.54,17.43s.04.04.04.04c-.06.58-.09.27-.37.37-.13.03-.07-.17-.08-.41.14,0,.34.02.41,0Z"/>
          <path class="cls-88" d="M20.76,17.43c.17.59-.09.34-.24.41v-.41h.24Z"/>
        </g>
      </g>
    </g>
  </g>
</svg>